<svg xmlns="http://www.w3.org/2000/svg" viewBox="0 0 512 512" width="512" height="512">
	<style>
		tspan { white-space:pre }
		.shp0 { fill: #000000 } 
		.shp1 { fill: #fdb819 } 
	</style>
	<g id="Layer">
		<g id="Layer">
			<path id="Layer" fill-rule="evenodd" class="shp0" d="M495.97 456.4C495.97 460.55 492.61 463.9 488.47 463.9L23.53 463.9C19.39 463.9 16.03 460.55 16.03 456.4C16.03 452.26 19.39 448.9 23.53 448.9L32.06 448.9L32.06 226.4C12.8 214 0 192.39 0 167.82C0 166.52 0.34 165.23 0.99 164.1L60.5 59.95C64.68 52.64 72.51 48.1 80.93 48.1L431.07 48.1C439.49 48.1 447.32 52.64 451.5 59.95L511.01 164.1C511.66 165.23 512 166.52 512 167.82C512 192.39 499.2 214 479.94 226.4L479.94 448.9L488.47 448.9C492.61 448.9 495.97 452.26 495.97 456.4ZM69.63 222.45C97.2 222.45 120.05 201.9 123.72 175.32L71.63 175.32C67.49 175.32 64.13 171.96 64.13 167.82C64.13 163.68 67.49 160.32 71.63 160.32L440.37 160.32C444.52 160.32 447.87 163.68 447.87 167.82C447.87 171.96 444.52 175.32 440.37 175.32L388.28 175.32C391.95 201.9 414.8 222.45 442.37 222.45C469.95 222.45 492.82 201.91 496.48 175.32L472.43 175.32C468.29 175.32 464.93 171.96 464.93 167.82C464.93 163.68 468.29 160.32 472.43 160.32L491.58 160.32L438.48 67.39C436.96 64.74 434.12 63.1 431.07 63.1L80.93 63.1C77.88 63.1 75.04 64.74 73.53 67.39L20.42 160.32L39.56 160.32C43.7 160.32 47.06 163.68 47.06 167.82C47.06 171.96 43.7 175.32 39.56 175.32L15.52 175.32C19.18 201.91 42.05 222.45 69.63 222.45ZM264.03 175.32C267.7 201.9 290.55 222.45 318.13 222.45C345.7 222.45 368.55 201.9 372.22 175.32L264.03 175.32ZM139.78 175.32C143.45 201.9 166.3 222.45 193.88 222.45C221.45 222.45 244.3 201.9 247.97 175.32L139.78 175.32ZM464.94 233.68C457.86 236.11 450.27 237.45 442.38 237.45C415.28 237.45 391.75 221.89 380.25 199.24C368.75 221.89 345.22 237.45 318.13 237.45C291.03 237.45 267.5 221.89 256 199.24C244.5 221.89 220.97 237.45 193.88 237.45C166.78 237.45 143.25 221.89 131.75 199.24C120.25 221.89 96.72 237.45 69.63 237.45C61.73 237.45 54.15 236.11 47.06 233.67L47.06 448.9L328.66 448.9L328.66 264.02C328.66 259.87 332.02 256.52 336.16 256.52L432.35 256.52C436.5 256.52 439.85 259.87 439.85 264.02L439.85 448.9L464.94 448.9L464.94 233.68ZM424.85 271.52L343.66 271.52L343.66 408.82L424.85 408.82L424.85 271.52ZM424.85 423.82L343.66 423.82L343.66 448.9L424.85 448.9L424.85 423.82Z" />
		</g>
	</g>
	<g id="Layer">
		<g id="Layer">
			<path id="Layer" fill-rule="evenodd" class="shp0" d="M303.58 264.02L303.58 416.32C303.58 420.46 300.22 423.82 296.08 423.82L79.64 423.82C75.5 423.82 72.14 420.46 72.14 416.32L72.14 264.02C72.14 259.87 75.5 256.52 79.64 256.52L296.08 256.52C300.22 256.52 303.58 259.87 303.58 264.02ZM288.58 271.52L87.14 271.52L87.14 408.82L288.58 408.82L288.58 271.52Z" />
		</g>
		<path id="Shape 2" class="shp1" d="M87 270L289 270L289 410L87 410L87 270Z" />
		<path id="Shape 3" class="shp1" d="M343 423L425 423L425 449L343 449L343 423Z" />
	</g>
</svg>