<svg xmlns="http://www.w3.org/2000/svg" id="Capa_1" style="" viewBox="0 0 512 512" x="0px" y="0px" width="60" height="60" xmlns:xml="http://www.w3.org/XML/1998/namespace" xml:space="preserve" version="1.1">
                                    <g>
                                        <g>
                                            <path d="M 488.468 448.903 h -8.532 V 226.4 C 499.202 214.003 512 192.386 512 167.822 c 0 -1.305 -0.341 -2.588 -0.988 -3.721 L 451.499 59.953 c -4.18 -7.313 -12.009 -11.857 -20.432 -11.857 H 80.933 c -8.423 0 -16.252 4.543 -20.432 11.857 L 0.988 164.101 C 0.341 165.234 0 166.518 0 167.822 c 0 24.564 12.798 46.181 32.064 58.578 v 222.503 h -8.532 c -4.142 0 -7.5 3.358 -7.5 7.5 c 0 4.142 3.358 7.5 7.5 7.5 h 464.936 c 4.143 0 7.5 -3.358 7.5 -7.5 C 495.968 452.261 492.61 448.903 488.468 448.903 Z M 15.517 175.322 h 24.044 c 4.142 0 7.5 -3.358 7.5 -7.5 c 0 -4.142 -3.358 -7.5 -7.5 -7.5 H 20.424 l 53.101 -92.927 c 1.516 -2.652 4.354 -4.299 7.408 -4.299 h 350.134 c 3.054 0 5.893 1.647 7.408 4.299 l 53.1 92.927 h -19.141 c -4.143 0 -7.5 3.358 -7.5 7.5 c 0 4.142 3.357 7.5 7.5 7.5 h 24.048 c -3.667 26.584 -26.532 47.125 -54.108 47.125 c -27.575 0 -50.429 -20.543 -54.097 -47.125 h 52.096 c 4.143 0 7.5 -3.358 7.5 -7.5 c 0 -4.142 -3.357 -7.5 -7.5 -7.5 H 71.631 c -4.142 0 -7.5 3.358 -7.5 7.5 c 0 4.142 3.358 7.5 7.5 7.5 h 52.091 c -3.668 26.582 -26.523 47.125 -54.097 47.125 C 42.049 222.447 19.184 201.906 15.517 175.322 Z M 372.222 175.322 c -3.668 26.582 -26.523 47.125 -54.097 47.125 c -27.575 0 -50.429 -20.543 -54.097 -47.125 H 372.222 Z M 247.972 175.322 c -3.668 26.582 -26.523 47.125 -54.097 47.125 c -27.574 0 -50.429 -20.543 -54.097 -47.125 H 247.972 Z M 424.854 448.904 h -81.193 v -25.081 h 81.193 V 448.904 Z M 424.854 408.823 h -81.193 V 271.516 h 81.193 V 408.823 Z M 464.936 448.904 h -25.081 V 264.016 c 0 -4.142 -3.357 -7.5 -7.5 -7.5 h -96.193 c -4.143 0 -7.5 3.358 -7.5 7.5 v 184.887 H 47.064 V 233.674 c 7.081 2.433 14.665 3.773 22.561 3.773 c 27.095 0 50.624 -15.556 62.125 -38.207 c 11.501 22.65 35.03 38.207 62.125 38.207 c 27.095 0 50.624 -15.556 62.125 -38.207 c 11.501 22.65 35.03 38.207 62.125 38.207 c 27.095 0 50.624 -15.556 62.125 -38.207 c 11.501 22.65 35.03 38.207 62.125 38.207 c 7.896 0 15.48 -1.34 22.561 -3.772 V 448.904 Z" />
                                        </g>
                                    </g>
                                    <g>
                                        <g>
                                            <path d="M 296.081 256.516 H 79.645 c -4.142 0 -7.5 3.358 -7.5 7.5 v 152.307 c 0 4.142 3.358 7.5 7.5 7.5 h 216.436 c 4.143 0 7.5 -3.358 7.5 -7.5 V 264.016 C 303.581 259.873 300.224 256.516 296.081 256.516 Z M 288.581 408.823 H 87.145 V 271.516 h 201.436 V 408.823 Z" />
                                        </g>
                                    </g>
                                    </svg>