<svg xmlns="http://www.w3.org/2000/svg" viewBox="0 0 511 511" width="511" height="511">
	<style>
		tspan { white-space:pre }
		.shp0 { fill: #000000 } 
		.shp1 { fill: #fdb819 } 
	</style>
	<path id="Layer" fill-rule="evenodd" class="shp0" d="M410.9 292C411 294.7 410 297.2 408.2 299C231.9 475.3 354.9 352.3 309.5 397.7C293.9 413.3 268.7 413.3 253.1 397.7L219.4 364.1C215.7 360.4 209.4 360.6 206 364.8L107.6 484.5C70.7 529.4 -2.6 501.3 0.2 443.1C1.6 413.1 21.4 399.9 33.3 390.1C36.5 387.4 41.2 387.9 43.8 391.1C46.5 394.3 46 399 42.8 401.6C31.2 411.1 16.2 420.8 15.1 443.7C12.9 487.8 68.3 508.5 95.9 474.9L194.1 355.1C203.1 344.2 219.7 343.4 229.7 353.4L263.4 387.1C273.1 396.8 288.9 396.8 298.6 387.1L351.9 333.8L340.5 322.4C337.6 319.5 337.6 314.7 340.5 311.8C343.4 308.9 348.2 308.9 351.1 311.8L362.5 323.2L393.3 292.4C235.2 134.3 374.2 273.3 214.1 113.2L183.3 144L326.4 287C329.3 289.9 329.3 294.7 326.4 297.6C323.5 300.5 318.7 300.5 315.8 297.6L172.7 154.5L119.4 207.8C109.7 217.5 109.7 233.3 119.4 243L153 276.7C163.1 286.8 162.3 303.3 151.3 312.3L69.6 379.4C66.5 382 61.7 381.6 59.1 378.4C56.4 375.2 56.9 370.5 60.1 367.9L141.8 300.8C146 297.4 146.3 291.2 142.5 287.4L108.8 253.7C93.2 238.1 93.2 212.9 108.8 197.3C196.4 109.7 142.2 163.9 207.5 98.6C209.4 96.7 211.9 95.8 214.5 95.9C229.9 80.5 211.7 98.7 300.8 9.6C308.1 2.2 320.8 3.8 325.7 13.3C332.6 26.4 327.5 33.8 338.2 44.5C350.8 57.1 363 48 379.8 64.8C396.8 81.8 387.4 93.7 400.1 106.4C412.7 119 424.9 109.9 441.7 126.7C458.7 143.7 449.3 155.6 462 168.3C472.6 179 480 173.9 493.2 180.8C502.6 185.7 504.3 198.3 496.9 205.7C470.4 232.3 427.9 274.8 410.9 292ZM401.9 279.8L436.5 245.2C432.7 233.1 433.9 224.6 421.7 212.4C403 193.6 388.7 205.9 366 183.2C343 160.3 355.8 146.5 336.8 127.5C333.5 124.2 330.3 121.7 327.1 119.9C323.5 117.9 322.3 113.3 324.3 109.7C326.3 106.1 330.9 104.9 334.5 106.9C338.9 109.4 343.2 112.7 347.4 116.9C370.1 139.6 357.9 153.9 376.6 172.6C395.6 191.6 409.4 178.9 432.3 201.8C444.2 213.8 446.7 223.9 448.8 232.9C489.4 192.4 487.5 194.8 486.4 194.2C477.1 189.3 465.6 193.1 451.5 179C434.5 162.1 443.9 150.1 431.2 137.4C418.6 124.8 406.4 133.9 389.6 117.1C372.6 100.2 382 88.2 369.3 75.5C356.7 62.9 344.5 72 327.7 55.2C313.5 41.1 317.4 29.6 312.5 20.3C311.9 19.1 312.8 18.8 276.7 54.9C280.5 66.9 279.3 75.4 291.5 87.6C294.8 90.9 297.9 93.4 301.2 95.2C304.8 97.2 306 101.8 304 105.4C302 109 297.4 110.2 293.8 108.2C289.3 105.7 285.1 102.4 280.9 98.2C269 86.2 266.5 76.1 264.4 67.1L226.8 104.7L262.6 140.5L279.4 123.7C282.3 120.8 287.1 120.8 290 123.7C292.9 126.6 292.9 131.4 290 134.3L273.2 151.1L309 186.9L325.8 170.1C328.7 167.2 333.5 167.2 336.4 170.1C339.3 173 339.3 177.8 336.4 180.7L319.6 197.5L355.4 233.3L372.2 216.5C375.1 213.6 379.9 213.6 382.8 216.5C385.7 219.4 385.7 224.2 382.8 227.1L366 243.9L401.9 279.8Z" />
	<path id="Layer" class="shp0" d="M363.6 293.5C366.5 290.6 366.5 285.8 363.6 282.9L223.6 142.9C220.7 140 215.9 140 213 142.9C210.1 145.8 210.1 150.6 213 153.5L353 293.5C356 296.4 360.7 296.4 363.6 293.5Z" />
	<path id="Layer" fill-rule="evenodd" class="shp0" d="M39.9 428.6C50.4 418.1 67.4 418.1 77.9 428.6C88.4 439.1 88.4 456.1 77.9 466.6C72.7 471.8 65.8 474.4 58.9 474.4C44.2 474.4 32.1 462.5 32.1 447.6C32.1 440.4 34.9 433.7 39.9 428.6ZM50.5 456C55.1 460.6 62.7 460.6 67.3 456C71.9 451.3 71.9 443.8 67.3 439.2C62.6 434.6 55.1 434.6 50.5 439.2C45.9 443.8 45.9 451.3 50.5 456Z" />
	<path id="Layer" class="shp1" d="M468.9 263.8L454.4 303.5L472 324L493.5 312.7L501.4 295.8L486.6 263.9C486.7 263.8 475.6 254.8 468.9 263.8Z" />
	<path id="Layer" fill-rule="evenodd" class="shp1" d="M511 300.6C511 318.7 496.3 333.4 478.2 333.4C460.1 333.4 445.4 318.7 445.4 300.6C445.4 289.1 453.7 274 456.2 269.6C464.1 256.1 471.5 249.2 478.2 249.2C484.9 249.2 492.3 256 500.2 269.6C502.7 273.9 511 289 511 300.6ZM496.1 300.5C496.1 290.7 484.2 269.8 478.2 264.7C472.1 269.8 460.3 290.7 460.3 300.5C460.3 310.4 468.3 318.4 478.2 318.4C488 318.4 496 310.4 496.1 300.5Z" />
	<path id="Shape 1" class="shp1" d="M58 462C50.26 462 44 455.74 44 448C44 440.26 50.26 434 58 434C65.74 434 72 440.26 72 448C72 455.74 65.74 462 58 462Z" />
</svg>