<svg xmlns="http://www.w3.org/2000/svg" id="Layer_1" style="" viewBox="0 0 511 511" x="0px" y="0px" width="60" height="60" xmlns:xml="http://www.w3.org/XML/1998/namespace" xml:space="preserve" version="1.1">
                                    <style type="text/css">
                                        .st0{fill:#13CB77;}
                                    </style>
                                    <path d="M 496.9 205.7 c 7.4 -7.4 5.7 -20 -3.7 -24.9 c -13.2 -6.9 -20.6 -1.8 -31.2 -12.5 c -12.7 -12.7 -3.3 -24.6 -20.3 -41.6 c -16.8 -16.8 -29 -7.7 -41.6 -20.3 c -12.7 -12.7 -3.3 -24.6 -20.3 -41.6 c -16.8 -16.8 -29 -7.7 -41.6 -20.3 c -10.7 -10.7 -5.6 -18.1 -12.5 -31.2 c -4.9 -9.5 -17.6 -11.1 -24.9 -3.7 c -89.1 89.1 -70.9 70.9 -86.3 86.3 c -2.6 -0.1 -5.1 0.8 -7 2.7 c -65.3 65.3 -11.1 11.1 -98.7 98.7 c -15.6 15.6 -15.6 40.8 0 56.4 l 33.7 33.7 c 3.8 3.8 3.5 10 -0.7 13.4 l -81.7 67.1 c -3.2 2.6 -3.7 7.3 -1 10.5 c 2.6 3.2 7.4 3.6 10.5 1 l 81.7 -67.1 c 11 -9 11.8 -25.5 1.7 -35.6 L 119.4 243 c -9.7 -9.7 -9.7 -25.5 0 -35.2 l 53.3 -53.3 l 143.1 143.1 c 2.9 2.9 7.7 2.9 10.6 0 c 2.9 -2.9 2.9 -7.7 0 -10.6 L 183.3 144 l 30.8 -30.8 c 160.1 160.1 21.1 21.1 179.2 179.2 l -30.8 30.8 l -11.4 -11.4 c -2.9 -2.9 -7.7 -2.9 -10.6 0 c -2.9 2.9 -2.9 7.7 0 10.6 l 11.4 11.4 l -53.3 53.3 c -9.7 9.7 -25.5 9.7 -35.2 0 l -33.7 -33.7 c -10 -10 -26.6 -9.2 -35.6 1.7 L 95.9 474.9 c -27.6 33.6 -83 12.9 -80.8 -31.2 c 1.1 -22.9 16.1 -32.6 27.7 -42.1 c 3.2 -2.6 3.7 -7.3 1 -10.5 c -2.6 -3.2 -7.3 -3.7 -10.5 -1 c -11.9 9.8 -31.7 23 -33.1 53 c -2.8 58.2 70.5 86.3 107.4 41.4 l 98.4 -119.7 c 3.4 -4.2 9.7 -4.4 13.4 -0.7 l 33.7 33.6 c 15.6 15.6 40.8 15.6 56.4 0 c 45.4 -45.4 -77.6 77.6 98.7 -98.7 c 1.8 -1.8 2.8 -4.3 2.7 -7 C 427.9 274.8 470.4 232.3 496.9 205.7 Z M 366 243.9 l 16.8 -16.8 c 2.9 -2.9 2.9 -7.7 0 -10.6 c -2.9 -2.9 -7.7 -2.9 -10.6 0 l -16.8 16.8 l -35.8 -35.8 l 16.8 -16.8 c 2.9 -2.9 2.9 -7.7 0 -10.6 c -2.9 -2.9 -7.7 -2.9 -10.6 0 L 309 186.9 l -35.8 -35.8 l 16.8 -16.8 c 2.9 -2.9 2.9 -7.7 0 -10.6 c -2.9 -2.9 -7.7 -2.9 -10.6 0 l -16.8 16.8 l -35.8 -35.8 l 37.6 -37.6 c 2.1 9 4.6 19.1 16.5 31.1 c 4.2 4.2 8.4 7.5 12.9 10 c 3.6 2 8.2 0.8 10.2 -2.8 c 2 -3.6 0.8 -8.2 -2.8 -10.2 c -3.3 -1.8 -6.4 -4.3 -9.7 -7.6 c -12.2 -12.2 -11 -20.7 -14.8 -32.7 c 36.1 -36.1 35.2 -35.8 35.8 -34.6 c 4.9 9.3 1 20.8 15.2 34.9 c 16.8 16.8 29 7.7 41.6 20.3 c 12.7 12.7 3.3 24.7 20.3 41.6 c 16.8 16.8 29 7.7 41.6 20.3 c 12.7 12.7 3.3 24.7 20.3 41.6 c 14.1 14.1 25.6 10.3 34.9 15.2 c 1.1 0.6 3 -1.8 -37.6 38.7 c -2.1 -9 -4.6 -19.1 -16.5 -31.1 c -22.9 -22.9 -36.7 -10.2 -55.7 -29.2 c -18.7 -18.7 -6.5 -33 -29.2 -55.7 c -4.2 -4.2 -8.5 -7.5 -12.9 -10 c -3.6 -2 -8.2 -0.8 -10.2 2.8 c -2 3.6 -0.8 8.2 2.8 10.2 c 3.2 1.8 6.4 4.3 9.7 7.6 c 19 19 6.2 32.8 29.2 55.7 c 22.7 22.7 37 10.4 55.7 29.2 c 12.2 12.2 11 20.7 14.8 32.8 l -34.6 34.6 L 366 243.9 Z" />
                                    <path d="M 363.6 293.5 c 2.9 -2.9 2.9 -7.7 0 -10.6 l -140 -140 c -2.9 -2.9 -7.7 -2.9 -10.6 0 c -2.9 2.9 -2.9 7.7 0 10.6 l 140 140 C 356 296.4 360.7 296.4 363.6 293.5 Z" />
                                    <path d="M 32.1 447.6 c 0 14.9 12.1 26.8 26.8 26.8 c 6.9 0 13.8 -2.6 19 -7.8 c 10.5 -10.5 10.5 -27.5 0 -38 c -10.5 -10.5 -27.5 -10.5 -38 0 C 34.9 433.7 32.1 440.4 32.1 447.6 Z M 50.5 439.2 c 4.6 -4.6 12.1 -4.6 16.8 0 c 4.6 4.6 4.6 12.1 0 16.8 c -4.6 4.6 -12.2 4.6 -16.8 0 C 45.9 451.3 45.9 443.8 50.5 439.2 Z" />
                                    <path class="cs-1" d="M 468.9 263.8 l -14.5 39.7 l 17.6 20.5 l 21.5 -11.3 l 7.9 -16.9 l -14.8 -31.9 C 486.7 263.8 475.6 254.8 468.9 263.8 Z" />
                                    <path d="M 500.2 268.6 c -7.9 -13.6 -15.3 -20.4 -22 -20.4 c -6.7 0 -14.1 6.9 -22 20.4 c -2.5 4.4 -10.8 19.5 -10.8 31 c 0 18.1 14.7 32.8 32.8 32.8 s 32.8 -14.7 32.8 -32.8 C 511 288 502.7 272.9 500.2 268.6 Z M 478.2 317.4 c -9.9 0 -17.9 -8 -17.9 -17.9 c 0 -9.8 11.8 -30.7 17.9 -35.8 c 6 5.1 17.9 26 17.9 35.8 C 496 309.4 488 317.4 478.2 317.4 Z" />
                                    </svg>