<svg xmlns="http://www.w3.org/2000/svg" viewBox="0 0 511 511" width="511" height="511">
	<style>
		tspan { white-space:pre }
		.shp0 { fill: none } 
		.shp1 { fill: #ffffff } 
		.shp2 { fill: #333333 } 
	</style>
	<g id="Layer">
		<path id="Layer" class="shp0" d="M361.75 254.95C350.02 249.91 343.58 237.21 346.07 224.87L167.78 224.87C170.27 237.27 163.83 249.97 152.1 254.95C145.48 257.81 138.12 257.93 131.38 255.25C124.7 252.58 119.47 247.47 116.61 240.91L109.2 224.87L19.02 224.87C18.35 224.87 17.87 225.42 17.87 226.02L17.87 274.45C17.87 275.12 18.36 275.6 19.02 275.6L494.7 275.6C495.37 275.6 495.85 275.05 495.85 274.45L495.85 226.02C495.85 225.41 495.36 224.87 494.7 224.87L404.58 224.87L397.11 241.03C391.34 254.53 375.48 260.85 361.75 254.95Z" />
		<path id="Layer" class="shp1" d="M136.12 243.41C139.77 244.87 143.66 244.81 147.12 243.35C150.64 241.83 153.32 239.04 154.78 235.51C156.18 231.99 156.18 228.04 154.66 224.57L115.77 140.23C112.55 132.76 104.28 129.41 96.87 132.57C93.28 134.09 90.55 136.95 89.09 140.53C87.69 144.05 87.75 147.94 89.21 151.41L128.16 235.75C129.68 239.21 132.48 241.95 136.12 243.41Z" />
		<path id="Layer" class="shp1" d="M416.99 132.51C415.17 131.72 413.22 131.29 411.28 131.29C409.52 131.29 407.69 131.65 405.99 132.32C402.47 133.72 399.67 136.45 398.15 139.98L359.08 224.69C356.04 231.86 359.44 240.25 366.68 243.35C373.73 246.33 382.54 242.86 385.58 235.88L385.58 235.82L407.7 187.87L400.47 187.87L400.47 170.3L415.78 170.3L424.59 151.16C427.74 144.05 424.28 135.67 416.99 132.51Z" />
		<path id="Layer" class="shp2" d="M178.23 337.41C173.43 337.41 169.54 342.15 169.54 347.92L169.54 383.16L186.86 383.16L186.86 347.92C186.92 342.09 182.97 337.41 178.23 337.41Z" />
		<path id="Layer" class="shp2" d="M169.54 426.38C169.54 432.21 173.43 436.89 178.23 436.89C183.03 436.89 186.92 432.15 186.92 426.38L186.92 383.24L169.6 383.24L169.6 426.38L169.54 426.38Z" />
		<path id="Layer" class="shp2" d="M178.23 440.72C185.1 440.72 190.69 434.28 190.69 426.38L190.69 383.24L186.86 383.24L186.86 426.38C186.86 432.21 182.97 436.89 178.17 436.89C173.37 436.89 169.48 432.15 169.48 426.38L169.48 383.17L165.65 383.17L165.65 426.38C165.72 434.28 171.37 440.72 178.23 440.72Z" />
		<path id="Layer" class="shp2" d="M169.54 347.93C169.54 342.16 173.43 337.42 178.23 337.42C183.03 337.42 186.92 342.16 186.92 347.93L186.92 383.17L190.75 383.17L190.75 347.93C190.75 340.03 185.16 333.59 178.29 333.59C171.42 333.59 165.83 340.03 165.83 347.93L165.83 383.17L169.66 383.17L169.66 347.93L169.54 347.93Z" />
		<path id="Layer" class="shp2" d="M230.67 337.41C225.87 337.41 221.98 342.15 221.98 347.92L221.98 383.23L239.3 383.23L239.3 347.92C239.36 342.09 235.48 337.41 230.67 337.41Z" />
		<path id="Layer" class="shp2" d="M221.99 426.38C221.99 432.21 225.88 436.89 230.68 436.89C235.48 436.89 239.37 432.15 239.37 426.38L239.37 383.24L222.05 383.24L222.05 426.38L221.99 426.38Z" />
		<path id="Layer" class="shp2" d="M230.67 440.72C237.54 440.72 243.13 434.28 243.13 426.38L243.13 383.24L239.3 383.24L239.3 426.38C239.3 432.21 235.41 436.89 230.61 436.89C225.81 436.89 221.92 432.15 221.92 426.38L221.92 383.24L218.09 383.24L218.09 426.38C218.22 434.28 223.81 440.72 230.67 440.72Z" />
		<path id="Layer" class="shp2" d="M221.99 347.93C221.99 342.16 225.88 337.42 230.68 337.42C235.48 337.42 239.37 342.16 239.37 347.93L239.37 383.24L243.2 383.24L243.2 347.93C243.2 340.03 237.61 333.59 230.74 333.59C223.87 333.59 218.28 340.03 218.28 347.93L218.28 383.24L222.11 383.24L222.11 347.93L221.99 347.93Z" />
		<path id="Layer" class="shp2" d="M283.06 337.41C278.26 337.41 274.37 342.15 274.37 347.92L274.37 383.29L291.69 383.29L291.69 347.92C291.75 342.09 287.86 337.41 283.06 337.41Z" />
		<path id="Layer" class="shp2" d="M274.37 426.38C274.37 432.21 278.26 436.89 283.06 436.89C287.86 436.89 291.75 432.15 291.75 426.38L291.75 383.3L274.43 383.3L274.43 426.38L274.37 426.38Z" />
		<path id="Layer" class="shp2" d="M283.06 440.72C289.93 440.72 295.52 434.28 295.52 426.38L295.52 383.3L291.69 383.3L291.69 426.38C291.69 432.21 287.8 436.89 283 436.89C278.2 436.89 274.31 432.15 274.31 426.38L274.31 383.3L270.48 383.3L270.48 426.38C270.6 434.28 276.19 440.72 283.06 440.72Z" />
		<path id="Layer" class="shp2" d="M274.37 347.93C274.37 342.16 278.26 337.42 283.06 337.42C287.86 337.42 291.75 342.16 291.75 347.93L291.75 383.3L295.58 383.3L295.58 347.93C295.58 340.03 289.99 333.59 283.12 333.59C276.25 333.59 270.66 340.03 270.66 347.93L270.66 383.3L274.49 383.3L274.49 347.93L274.37 347.93Z" />
		<path id="Layer" class="shp2" d="M335.5 337.41C330.7 337.41 326.81 342.15 326.81 347.92L326.81 383.29L344.13 383.29L344.13 347.86C344.19 342.09 340.3 337.41 335.5 337.41Z" />
		<path id="Layer" class="shp2" d="M326.87 426.38C326.87 432.21 330.76 436.89 335.56 436.89C340.36 436.89 344.25 432.15 344.25 426.38L344.25 383.36L326.93 383.36L326.93 426.38L326.87 426.38Z" />
		<path id="Layer" class="shp2" d="M335.5 440.72C342.37 440.72 347.96 434.28 347.96 426.38L347.96 383.36L344.13 383.36L344.13 426.38C344.13 432.21 340.24 436.89 335.44 436.89C330.64 436.89 326.75 432.15 326.75 426.38L326.75 383.36L322.92 383.36L322.92 426.38C323.04 434.28 328.63 440.72 335.5 440.72Z" />
		<path id="Layer" class="shp2" d="M326.87 347.93C326.87 342.16 330.76 337.42 335.56 337.42C340.36 337.42 344.25 342.16 344.25 347.93L344.25 383.36L348.08 383.36L348.08 347.93C348.08 340.03 342.49 333.59 335.62 333.59C328.75 333.59 323.16 340.03 323.16 347.93L323.16 383.3L326.99 383.3L326.99 347.93L326.87 347.93Z" />
		<path id="Layer" fill-rule="evenodd" class="shp2" d="M411.11 187.71L418.34 187.71L405.7 215.12L494.78 215.12C500.74 215.12 505.54 219.99 505.54 225.88L505.54 274.31C505.54 280.27 500.67 285.07 494.78 285.07L482.63 285.07L453.64 460.87C450.05 480.44 433.1 494.6 413.29 494.6L100.58 494.6C80.77 494.6 63.82 480.45 60.23 461L50.63 402.79C50.33 399.75 48.02 386.63 47.47 383.53L43.52 359.53L50.14 359.53L66.66 459.92C69.7 476.27 83.92 488.12 100.57 488.12L413.27 488.12C429.92 488.12 444.14 476.27 447.18 459.86L475.98 285.16L37.85 285.16L46.66 338.63L40.04 338.63L31.41 286.43L31.17 285.15L19.02 285.15C13.06 285.15 8.26 280.35 8.26 274.39L8.26 225.96C8.26 220 13.13 215.2 19.02 215.2L108.16 215.2L80.45 155.22C77.9 149.21 77.84 142.59 80.27 136.63C82.64 130.8 87.2 126.18 93.03 123.69C105.13 118.53 119.22 124.12 124.45 136.27L160.48 214.36L160.91 215.27L352.94 215.27L389.46 136.15C394.63 124.11 408.73 118.58 420.82 123.75C432.97 128.98 438.63 143.08 433.46 155.17L426.41 170.42L419.18 170.42L427.44 152.49C431.2 143.74 427.07 133.53 418.2 129.76C413.94 127.94 409.2 127.88 404.89 129.58C400.58 131.28 397.23 134.57 395.41 138.82L356.34 223.53C352.64 232.22 356.71 242.43 365.52 246.2C367.64 247.11 369.95 247.54 372.2 247.54C379 247.54 385.56 243.59 388.36 237.09L411.11 187.71ZM125.37 236.9C127.13 241.16 130.59 244.44 134.97 246.2C137.15 247.05 139.4 247.48 141.59 247.48C143.83 247.48 146.14 246.99 148.27 246.08C152.53 244.26 155.87 240.91 157.57 236.6C159.27 232.28 159.21 227.6 157.39 223.29L118.5 138.95C114.61 129.95 104.58 125.88 95.65 129.71C91.33 131.59 87.99 135 86.29 139.31C84.59 143.63 84.65 148.31 86.47 152.56L125.37 236.9ZM494.77 221.84L402.52 221.84L394.26 239.83C389.09 251.87 374.99 257.46 362.84 252.23C351.9 247.55 346.13 235.34 349.35 223.79L349.9 221.85L163.76 221.85L164.31 223.79C167.53 235.34 161.76 247.55 150.88 252.23C144.99 254.78 138.43 254.84 132.47 252.47C126.57 250.1 121.89 245.54 119.4 239.71L111.2 221.84L19.08 221.84C16.77 221.84 14.89 223.72 14.89 226.03L14.89 274.46C14.89 276.77 16.77 278.65 19.08 278.65L494.77 278.65C497.08 278.65 498.96 276.77 498.96 274.46L498.96 226.03C498.96 223.72 497.08 221.84 494.77 221.84Z" />
		<path id="Layer" class="shp2" d="M31.42 286.49L31.18 285.21L19.02 285.21C13.13 285.21 8.26 280.41 8.26 274.45L8.26 226.02C8.26 220.13 13.06 215.26 19.02 215.26L108.16 215.26L80.46 155.3C77.85 149.28 77.79 142.66 80.28 136.71C82.71 130.88 87.21 126.26 93.04 123.77C105.13 118.6 119.23 124.2 124.46 136.35L160.49 214.44L160.92 215.35L352.88 215.35L389.4 136.23C394.57 124.2 408.66 118.61 420.76 123.83C432.91 129.06 438.56 143.15 433.4 155.25L426.35 170.5L429.69 170.5L436.13 156.52C441.96 142.85 435.58 126.99 421.91 121.09C408.24 115.26 392.38 121.52 386.6 135.07L350.93 212.43L162.86 212.43L127.25 135.26C121.42 121.59 105.5 115.27 91.88 121.1C85.32 123.9 80.21 129.12 77.48 135.68C74.68 142.43 74.81 149.84 77.72 156.64L103.42 212.36L19.08 212.36C11.48 212.36 5.29 218.56 5.29 226.15L5.29 274.58C5.29 282.18 11.49 288.37 19.08 288.37L28.68 288.37L37.01 338.81L40.11 338.81L31.42 286.49Z" />
		<path id="Layer" class="shp2" d="M494.77 212.23L410.43 212.23L421.67 187.86L418.33 187.86L405.69 215.27L494.77 215.27C500.66 215.27 505.53 220.07 505.53 226.03L505.53 274.46C505.53 280.42 500.73 285.22 494.77 285.22L482.62 285.22L453.63 461.02C450.04 480.53 433.09 494.75 413.28 494.75L100.57 494.75C80.76 494.75 63.81 480.59 60.22 461.15L50.62 402.94C50.32 399.9 48.01 386.78 47.46 383.68L43.51 359.68L40.41 359.68L44.42 384.17L45.94 383.93L44.42 384.17C45.15 388.3 47.28 400.46 47.58 403.31L57.18 461.65C61.07 482.55 79.3 497.75 100.51 497.75L413.22 497.75C434.49 497.75 452.72 482.5 456.55 461.53L469.25 384.48L485.11 288.23L494.71 288.23C502.31 288.23 508.5 282.03 508.5 274.44L508.5 226.01C508.56 218.43 502.36 212.23 494.77 212.23Z" />
		<path id="Layer" fill-rule="evenodd" class="shp2" d="M402.77 221.77L494.89 221.77C497.2 221.77 499.08 223.65 499.08 225.96L499.08 274.39C499.08 276.7 497.2 278.58 494.89 278.58L19.21 278.58C16.9 278.58 15.02 276.7 15.02 274.39L15.02 225.96C15.02 223.65 16.9 221.77 19.21 221.77L111.33 221.77L119.53 239.64C122.03 245.47 126.64 250.03 132.6 252.4C138.61 254.77 145.12 254.71 151.01 252.16C161.89 247.48 167.66 235.27 164.44 223.72L163.89 221.78L350.02 221.78L349.47 223.72C346.25 235.27 352.02 247.48 362.96 252.16C375.12 257.38 389.21 251.79 394.38 239.76L402.77 221.77ZM494.77 224.87L494.77 224.81L404.71 224.81L397.24 240.97C391.4 254.52 375.54 260.84 361.81 254.95C350.08 249.97 343.58 237.27 346.13 224.87L167.84 224.87C170.33 237.27 163.83 249.97 152.16 254.95C145.54 257.8 138.19 257.92 131.44 255.25C124.75 252.64 119.53 247.53 116.67 240.91L109.26 224.87L19.08 224.87C18.42 224.87 17.93 225.41 17.93 226.02L17.93 274.45C17.93 275.05 18.41 275.6 19.08 275.6L494.77 275.6C495.43 275.6 495.92 275.12 495.92 274.45L495.92 226.02C495.92 225.42 495.44 224.87 494.77 224.87Z" />
		<path id="Layer" class="shp2" d="M100.57 488.18L413.28 488.18C429.93 488.18 444.15 476.27 447.19 459.92L475.99 285.22L37.86 285.22L46.67 338.69L49.77 338.69L41.44 288.25L472.4 288.25L456.6 384.2L444.2 459.37C441.47 474.32 428.46 485.14 413.27 485.14L100.57 485.14C85.38 485.14 72.37 474.32 69.64 459.5L57.19 383.9L53.18 359.65L50.08 359.65L66.6 460.04C69.7 476.33 83.92 488.18 100.57 488.18Z" />
		<path id="Layer" fill-rule="evenodd" class="shp2" d="M125.48 236.96L86.53 152.62C84.71 148.36 84.65 143.68 86.35 139.37C88.05 135.06 91.4 131.65 95.71 129.77C104.64 125.95 114.67 130.02 118.56 139.01L157.45 223.35C159.27 227.61 159.33 232.35 157.63 236.66C155.87 240.91 152.58 244.32 148.33 246.14C146.21 247.05 143.96 247.54 141.65 247.54C139.41 247.54 137.16 247.11 135.03 246.26C130.59 244.5 127.19 241.16 125.48 236.96ZM89.21 151.29L128.16 235.63C129.62 239.16 132.47 241.89 136.12 243.35C139.77 244.81 143.66 244.81 147.12 243.29C150.65 241.77 153.38 238.98 154.78 235.45C156.18 231.92 156.18 228.03 154.66 224.51L115.77 140.17C112.55 132.69 104.22 129.35 96.87 132.51C93.28 134.09 90.49 136.88 89.09 140.47C87.69 143.99 87.75 147.88 89.21 151.29Z" />
		<path id="Layer" class="shp2" d="M418.2 129.77C413.89 127.95 409.21 127.89 404.89 129.59C400.64 131.29 397.23 134.57 395.41 138.83L356.34 223.54C352.57 232.29 356.7 242.44 365.52 246.21C367.71 247.12 369.96 247.55 372.2 247.55C379.01 247.55 385.57 243.6 388.36 237.1L411.09 187.88L407.75 187.88L385.63 235.83L385.63 235.89C382.65 242.88 373.78 246.4 366.73 243.36C359.5 240.26 356.1 231.87 359.13 224.7L398.2 139.99C399.72 136.47 402.51 133.73 406.04 132.33C407.74 131.66 409.56 131.3 411.33 131.3C413.27 131.3 415.22 131.66 417.04 132.52C424.33 135.68 427.8 144.07 424.7 151.18L415.89 170.32L419.23 170.32L427.49 152.39C431.21 143.75 427.01 133.54 418.2 129.77Z" />
		<path id="Layer" fill-rule="evenodd" class="shp2" d="M206.37 110.56C205.52 109.59 205.33 108.19 205.88 107.04C206.43 105.89 207.58 105.16 208.86 105.16L226.97 105.16L226.97 19.6C226.97 17.78 228.43 16.32 230.25 16.32L283.36 16.32C285.18 16.32 286.64 17.78 286.64 19.6L286.64 105.17L304.87 105.17C306.15 105.17 307.3 105.9 307.85 107.05C308.39 108.2 308.21 109.6 307.36 110.57L259.29 166.17C258.02 167.63 255.53 167.63 254.31 166.17L206.37 110.56ZM230.25 111.72L215.96 111.72L256.8 159.06L297.7 111.72L283.36 111.72C281.54 111.72 280.08 110.26 280.08 108.44L280.08 22.88L233.53 22.88L233.53 108.45C233.53 110.27 232.07 111.73 230.25 111.73L230.25 111.72Z" />
		<path id="Layer" fill-rule="evenodd" class="shp2" d="M204.18 112.58C202.54 110.75 202.18 108.08 203.21 105.83C204.18 103.58 206.43 102.12 208.92 102.12L223.99 102.12L223.99 19.6C223.99 16.14 226.85 13.28 230.31 13.28L283.42 13.28C286.88 13.28 289.74 16.14 289.74 19.6L289.74 102.12L304.93 102.12C307.36 102.12 309.61 103.58 310.64 105.83C311.68 108.08 311.25 110.7 309.67 112.58L261.6 168.18C260.39 169.58 258.62 170.37 256.8 170.37C254.92 170.37 253.22 169.58 252 168.18L204.18 112.58ZM206.36 110.56L254.31 166.16C255.58 167.62 258.01 167.62 259.29 166.16L307.36 110.56C308.15 109.59 308.4 108.19 307.85 107.04C307.3 105.89 306.15 105.16 304.87 105.16L286.64 105.16L286.64 19.6C286.64 17.78 285.18 16.32 283.36 16.32L230.25 16.32C228.43 16.32 226.97 17.78 226.97 19.6L226.97 105.17L208.86 105.17C207.58 105.17 206.43 105.9 205.88 107.05C205.33 108.26 205.52 109.6 206.36 110.56Z" />
		<path id="Layer" fill-rule="evenodd" class="shp2" d="M256.75 159.06L215.91 111.72L230.19 111.72C232.01 111.72 233.47 110.26 233.47 108.44L233.47 22.88L280.02 22.88L280.02 108.45C280.02 110.27 281.48 111.73 283.3 111.73L297.64 111.73L256.75 159.06ZM230.25 114.76L222.66 114.76L256.81 154.38L291.08 114.76L283.36 114.76C279.9 114.76 277.04 111.9 277.04 108.44L277.04 25.92L236.57 25.92L236.57 108.44C236.57 111.9 233.71 114.76 230.25 114.76Z" />
		<path id="Layer" class="shp1" d="M419.17 170.37L415.83 170.37L400.52 170.37L400.52 187.93L407.75 187.93L411.09 187.93L418.32 187.93L421.66 187.93L446.09 187.93L446.09 170.37L429.75 170.37L426.4 170.37L419.17 170.37Z" />
		<path id="Layer" class="shp1" d="M50.14 359.59L53.24 359.59L63.81 359.59L63.81 338.69L49.77 338.69L46.67 338.69L40.05 338.69L36.95 338.69L14.89 338.69L14.89 359.59L40.41 359.59L43.51 359.59L50.14 359.59Z" />
	</g>
</svg>