<svg xmlns="http://www.w3.org/2000/svg" viewBox="0 0 512 559" width="512" height="559">
	<style>
		tspan { white-space:pre }
		.shp0 { fill: #ffffff } 
		.shp1 { fill: #333333 } 
		.shp2 { fill: #13cb77 } 
		.shp3 { fill: #ffffff;stroke: #333333;stroke-width: 15 } 
		.shp4 { fill: #fdb819 } 
	</style>
	<g id="Layer">
		<g id="Layer">
			<path id="Layer" fill-rule="evenodd" class="shp0" d="M126.27 276.62L139.39 276.62L139.39 250.97L119.79 250.97L91.78 140.07L393.41 140.07L393.41 150.97L410.21 150.97L410.21 140.07L470.1 140.07L401.29 345.37L143.64 345.37L126.27 276.62ZM465.93 143.07L413.21 143.07L413.21 153.97L390.41 153.97L390.41 143.07L95.64 143.07L122.14 247.97L142.4 247.97L142.4 279.62L130.13 279.62L145.98 342.37L399.13 342.37L465.93 143.07ZM194.31 297.92L194.31 201.02C194.31 194.43 199.67 189.07 206.26 189.07C212.85 189.07 218.21 194.43 218.21 201.02L218.21 297.92C218.21 304.51 212.85 309.87 206.26 309.87C199.67 309.87 194.31 304.51 194.31 297.92ZM197.31 201.02L197.31 297.92C197.31 302.86 201.32 306.87 206.26 306.87C211.2 306.87 215.21 302.86 215.21 297.92L215.21 201.02C215.21 196.09 211.2 192.07 206.26 192.07C201.32 192.07 197.31 196.08 197.31 201.02ZM268.31 297.92L268.31 201.02C268.31 194.43 273.67 189.07 280.26 189.07C286.85 189.07 292.21 194.43 292.21 201.02L292.21 297.92C292.21 304.51 286.85 309.87 280.26 309.87C273.67 309.87 268.31 304.51 268.31 297.92ZM271.31 201.02L271.31 297.92C271.31 302.86 275.32 306.87 280.26 306.87C285.2 306.87 289.21 302.86 289.21 297.92L289.21 201.02C289.21 196.09 285.2 192.07 280.26 192.07C275.33 192.07 271.31 196.08 271.31 201.02ZM342.41 297.92L342.41 201.02C342.41 194.43 347.77 189.07 354.36 189.07C360.95 189.07 366.31 194.43 366.31 201.02L366.31 297.92C366.31 304.51 360.95 309.87 354.36 309.87C347.77 309.87 342.41 304.51 342.41 297.92ZM345.41 201.02L345.41 297.92C345.41 302.86 349.43 306.87 354.36 306.87C359.29 306.87 363.31 302.86 363.31 297.92L363.31 201.02C363.31 196.09 359.3 192.07 354.36 192.07C349.42 192.07 345.41 196.08 345.41 201.02Z" />
		</g>
		<g id="Layer">
			<path id="Layer" fill-rule="evenodd" class="shp0" d="M370.61 505.37C370.61 492.81 379.97 482.97 391.91 482.97C403.46 482.97 413.21 493.23 413.21 505.37C413.21 517.93 403.85 527.77 391.91 527.77C380.36 527.77 370.61 517.51 370.61 505.37ZM373.61 505.37C373.61 515.89 381.99 524.77 391.91 524.77C402.34 524.77 410.21 516.43 410.21 505.37C410.21 495.04 401.66 485.97 391.91 485.97C381.48 485.97 373.61 494.31 373.61 505.37Z" />
		</g>
		<g id="Layer">
			<path id="Layer" fill-rule="evenodd" class="shp0" d="M148.51 505.37C148.51 493.23 158.26 482.97 169.81 482.97C181.36 482.97 191.11 493.23 191.11 505.37C191.11 517.93 181.75 527.77 169.81 527.77C158.26 527.77 148.51 517.51 148.51 505.37ZM151.51 505.37C151.51 515.7 160.06 524.77 169.81 524.77C180.24 524.77 188.11 516.43 188.11 505.37C188.11 495.04 179.56 485.97 169.81 485.97C160.06 485.97 151.51 495.03 151.51 505.37Z" />
		</g>
		<g id="Layer">
			<path id="Layer" fill-rule="evenodd" class="shp1" d="M169.81 463.77C192.71 463.77 210.51 482.57 210.51 505.47C210.51 528.37 191.71 547.17 169.81 547.17C147.91 547.17 129.11 528.37 129.11 505.47C129.11 482.57 147.91 463.77 169.81 463.77ZM169.81 526.27C181.31 526.27 189.61 516.87 189.61 505.37C189.61 493.87 180.21 484.47 169.81 484.47C159.41 484.47 150.01 493.87 150.01 505.37C150.01 516.87 159.41 526.27 169.81 526.27Z" />
			<path id="Layer" fill-rule="evenodd" class="shp0" d="M127.61 505.47C127.61 482.05 146.93 462.27 169.81 462.27C193.08 462.27 212.01 481.65 212.01 505.47C212.01 528.89 192.69 548.67 169.81 548.67C146.93 548.67 127.61 528.89 127.61 505.47ZM130.61 505.47C130.61 527.26 148.56 545.67 169.81 545.67C191.06 545.67 209.01 527.26 209.01 505.47C209.01 483.3 191.43 465.27 169.81 465.27C148.56 465.27 130.61 483.68 130.61 505.47ZM148.51 505.37C148.51 493.23 158.26 482.97 169.81 482.97C181.36 482.97 191.11 493.23 191.11 505.37C191.11 517.93 181.75 527.77 169.81 527.77C158.26 527.77 148.51 517.51 148.51 505.37ZM151.51 505.37C151.51 515.7 160.06 524.77 169.81 524.77C180.24 524.77 188.11 516.43 188.11 505.37C188.11 495.04 179.56 485.97 169.81 485.97C160.06 485.97 151.51 495.03 151.51 505.37Z" />
		</g>
		<g id="Layer">
			<path id="Layer" fill-rule="evenodd" class="shp1" d="M391.91 463.77C414.81 463.77 432.61 482.57 432.61 505.47C432.61 528.37 413.81 547.17 391.91 547.17C369.01 547.17 351.21 528.37 351.21 505.47C351.21 482.57 370.01 463.77 391.91 463.77ZM391.91 526.27C403.41 526.27 411.71 516.87 411.71 505.37C411.71 493.87 402.31 484.47 391.91 484.47C380.41 484.47 372.11 493.87 372.11 505.37C372.11 516.97 381.41 526.27 391.91 526.27Z" />
			<path id="Layer" fill-rule="evenodd" class="shp0" d="M349.71 505.47C349.71 482.05 369.03 462.27 391.91 462.27C415.18 462.27 434.11 481.65 434.11 505.47C434.11 528.89 414.78 548.67 391.91 548.67C368.64 548.67 349.71 529.29 349.71 505.47ZM352.71 505.47C352.71 527.64 370.29 545.67 391.91 545.67C413.16 545.67 431.11 527.26 431.11 505.47C431.11 483.3 413.52 465.27 391.91 465.27C370.66 465.27 352.71 483.68 352.71 505.47ZM370.61 505.37C370.61 492.81 379.97 482.97 391.91 482.97C403.46 482.97 413.21 493.23 413.21 505.37C413.21 517.93 403.85 527.77 391.91 527.77C380.36 527.77 370.61 517.51 370.61 505.37ZM373.61 505.37C373.61 515.89 381.99 524.77 391.91 524.77C402.34 524.77 410.21 516.43 410.21 505.37C410.21 495.04 401.66 485.97 391.91 485.97C381.48 485.97 373.61 494.31 373.61 505.37Z" />
		</g>
		<g id="Layer">
			<path id="Layer" class="shp1" d="M13.51 57.17L13.51 77.97L55.21 77.97L99.48 249.47L120.97 249.47L93.71 141.57L391.91 141.57L391.91 120.77L88.01 120.77L71.81 57.17L13.51 57.17Z" />
			<path id="Layer" fill-rule="evenodd" class="shp0" d="M54.05 79.47L12.01 79.47L12.01 55.67L72.98 55.67L89.18 119.27L393.41 119.27L393.41 143.07L95.64 143.07L122.89 250.97L98.31 250.97L54.05 79.47ZM91.78 140.07L390.41 140.07L390.41 122.27L86.84 122.27L70.64 58.67L15.01 58.67L15.01 76.47L56.37 76.47L100.64 247.97L119.04 247.97L91.78 140.07Z" />
		</g>
		<g id="Layer">
			<path id="Layer" class="shp1" d="M128.2 278.12L106.87 278.12L129.21 364.67L130.21 364.67L413.81 364.67C430.51 364.67 445.11 379.27 445.11 398.07C445.11 416.87 431.51 431.47 413.81 431.47L130.21 431.47L130.21 451.27L413.81 451.27C443.01 451.27 465.91 427.27 465.91 397.07C465.91 369.57 447.01 348.17 421.71 344.47L497.21 120.77L411.71 120.77L411.71 141.57L468.01 141.57L400.21 343.87L144.81 343.87L128.2 278.12Z" />
			<path id="Layer" fill-rule="evenodd" class="shp0" d="M413.81 429.97C430.52 429.97 443.61 415.96 443.61 398.07C443.61 380.48 430.24 366.17 413.81 366.17L128.05 366.17L104.94 276.62L129.38 276.62L145.99 342.37L399.14 342.37L465.93 143.07L410.21 143.07L410.21 119.27L499.3 119.27L423.7 343.27C435.71 345.44 446.58 351.65 454.44 360.87C462.8 370.68 467.41 383.54 467.41 397.07C467.41 428.3 443.87 452.77 413.81 452.77L128.71 452.77L128.71 429.97L413.81 429.97ZM413.21 122.27L413.21 140.07L470.1 140.07L401.29 345.37L143.64 345.37L127.03 279.62L108.8 279.62L130.37 363.17L413.81 363.17C431.9 363.17 446.61 378.83 446.61 398.07C446.61 417.64 432.2 432.97 413.81 432.97L131.71 432.97L131.71 449.77L413.81 449.77C442.18 449.77 464.41 426.62 464.41 397.07C464.41 370.66 446.76 349.65 421.49 345.95L419.71 345.69L495.12 122.27L413.21 122.27Z" />
		</g>
		<g id="Layer">
			<path id="Layer" class="shp1" d="M361.81 297.92L361.81 201.02C361.81 195.25 357.13 190.57 351.36 190.57C345.59 190.57 340.91 195.25 340.91 201.02L340.91 297.92C340.91 303.69 345.59 308.37 351.36 308.37C357.13 308.37 361.81 303.69 361.81 297.92Z" />
			<path id="Layer" fill-rule="evenodd" class="shp0" d="M339.41 297.92L339.41 201.02C339.41 194.43 344.77 189.07 351.36 189.07C357.95 189.07 363.31 194.43 363.31 201.02L363.31 297.92C363.31 304.51 357.95 309.87 351.36 309.87C344.77 309.87 339.41 304.51 339.41 297.92ZM342.41 201.02L342.41 297.92C342.41 302.86 346.43 306.87 351.36 306.87C356.29 306.87 360.31 302.86 360.31 297.92L360.31 201.02C360.31 196.09 356.3 192.07 351.36 192.07C346.42 192.07 342.41 196.08 342.41 201.02Z" />
		</g>
		<g id="Layer">
			<path id="Layer" class="shp1" d="M290.71 297.92L290.71 201.02C290.71 195.25 286.03 190.57 280.26 190.57C274.49 190.57 269.81 195.25 269.81 201.02L269.81 297.92C269.81 303.69 274.49 308.37 280.26 308.37C286.03 308.37 290.71 303.69 290.71 297.92Z" />
			<path id="Layer" fill-rule="evenodd" class="shp0" d="M268.31 297.92L268.31 201.02C268.31 194.43 273.67 189.07 280.26 189.07C286.85 189.07 292.21 194.43 292.21 201.02L292.21 297.92C292.21 304.51 286.85 309.87 280.26 309.87C273.67 309.87 268.31 304.51 268.31 297.92ZM271.31 201.02L271.31 297.92C271.31 302.86 275.32 306.87 280.26 306.87C285.2 306.87 289.21 302.86 289.21 297.92L289.21 201.02C289.21 196.09 285.2 192.07 280.26 192.07C275.33 192.07 271.31 196.08 271.31 201.02Z" />
		</g>
		<g id="Layer">
			<path id="Layer" class="shp1" d="M219.71 297.92L219.71 201.02C219.71 195.25 215.03 190.57 209.26 190.57C203.49 190.57 198.81 195.25 198.81 201.02L198.81 297.92C198.81 303.69 203.49 308.37 209.26 308.37C215.03 308.37 219.71 303.69 219.71 297.92Z" />
			<path id="Layer" fill-rule="evenodd" class="shp0" d="M197.31 297.92L197.31 201.02C197.31 194.43 202.67 189.07 209.26 189.07C215.85 189.07 221.21 194.43 221.21 201.02L221.21 297.92C221.21 304.51 215.85 309.87 209.26 309.87C202.67 309.87 197.31 304.51 197.31 297.92ZM200.31 201.02L200.31 297.92C200.31 302.86 204.32 306.87 209.26 306.87C214.2 306.87 218.21 302.86 218.21 297.92L218.21 201.02C218.21 196.09 214.2 192.07 209.26 192.07C204.32 192.07 200.31 196.08 200.31 201.02Z" />
		</g>
		<g id="Layer">
			<path id="Layer" class="shp0" d="M120.97 249.47L99.48 249.47L75.96 249.47L75.96 278.12L106.87 278.12L128.2 278.12L140.9 278.12L140.9 249.47L120.97 249.47Z" />
			<path id="Layer" fill-rule="evenodd" class="shp0" d="M74.46 247.97L142.4 247.97L142.4 279.62L74.46 279.62L74.46 247.97ZM77.46 250.97L77.46 276.62L139.4 276.62L139.4 250.97L77.46 250.97Z" />
		</g>
		<g id="Layer">
			<path id="Layer" class="shp0" d="M411.71 141.57L411.71 120.77L411.71 108.71L391.91 108.71L391.91 120.77L391.91 141.57L391.91 152.47L411.71 152.47L411.71 141.57Z" />
			<path id="Layer" fill-rule="evenodd" class="shp0" d="M390.41 107.21L413.21 107.21L413.21 153.97L390.41 153.97L390.41 107.21ZM410.21 110.21L393.41 110.21L393.41 150.97L410.21 150.97L410.21 110.21Z" />
		</g>
	</g>
	<path id="Layer" class="shp2" d="M412.52 514C407.8 525.4 394.78 530.79 383.38 526.07C371.99 521.35 366.59 508.33 371.31 496.94C376.03 485.54 389.06 480.15 400.45 484.87C411.84 489.59 417.24 502.61 412.52 514Z" />
	<path id="Layer" class="shp2" d="M191.83 509.05C189.86 521.22 178.42 529.46 166.25 527.49C154.07 525.51 145.83 514.08 147.81 501.9C149.78 489.73 161.22 481.49 173.39 483.46C185.56 485.44 193.81 496.88 191.83 509.05Z" />
	<path id="Layer copy" class="shp2" d="M191.83 509.05C189.86 521.22 178.42 529.46 166.25 527.49C154.07 525.51 145.83 514.08 147.81 501.9C149.78 489.73 161.22 481.49 173.39 483.46C185.56 485.44 193.81 496.88 191.83 509.05Z" />
	<path id="Layer" class="shp3" d="M237.51 179.59C189.95 179.59 151.51 141.15 151.51 93.59C151.51 46.03 189.95 7.59 237.51 7.59C285.07 7.59 323.51 46.03 323.51 93.59C323.51 141.15 285.07 179.59 237.51 179.59Z" />
	<g id="Layer">
		<path id="Layer" class="shp1" d="M278.26 73.97C278.26 75.32 277.78 76.46 276.83 77.41L239.72 113.99L232.75 120.86C231.79 121.8 230.63 122.27 229.26 122.27C227.89 122.27 226.73 121.8 225.78 120.86L218.81 113.99L200.25 95.7C199.29 94.76 198.81 93.61 198.81 92.26C198.81 90.91 199.29 89.77 200.25 88.82L207.22 81.95C208.18 81.01 209.34 80.53 210.71 80.53C212.08 80.53 213.24 81 214.2 81.95L229.27 96.86L262.9 63.66C263.86 62.72 265.02 62.25 266.39 62.25C267.76 62.25 268.92 62.72 269.88 63.66L276.85 70.53C277.78 71.47 278.26 72.62 278.26 73.97Z" />
		<path id="Shape 1" class="shp4" d="M170 528C157.28 528 147 517.72 147 505C147 492.28 157.28 482 170 482C182.72 482 193 492.28 193 505C193 517.72 182.72 528 170 528Z" />
		<path id="Shape 1 copy" class="shp0" d="M392 529C379.28 529 369 518.72 369 506C369 493.28 379.28 483 392 483C404.72 483 415 493.28 415 506C415 518.72 404.72 529 392 529Z" />
		<path id="Shape 2" class="shp0" d="M169.5 528C157.06 528 147 517.5 147 504.5C147 491.5 157.06 481 169.5 481C181.94 481 192 491.5 192 504.5C192 517.5 181.94 528 169.5 528Z" />
	</g>
</svg>