<svg xmlns="http://www.w3.org/2000/svg" xmlns:xlink="http://www.w3.org/1999/xlink" width="458" height="458" viewBox="0 0 458 458">
  <defs>
    <linearGradient id="linear-gradient" x1="0.865" y1="0.178" x2="0.152" y2="0.822" gradientUnits="objectBoundingBox">
      <stop offset="0" stop-color="#fdb819"/>
      <stop offset="1" stop-color="#fff"/>
    </linearGradient>
  </defs>
  <g id="Group_2059" data-name="Group 2059" transform="translate(-1052 -1747)">
    <circle id="Ellipse_8" data-name="Ellipse 8" cx="229" cy="229" r="229" transform="translate(1052 2205) rotate(-90)" fill="url(#linear-gradient)"/>
    <g id="Add_Car_Parts" data-name="Add Car Parts" transform="translate(1078.231 1774.874)">
      <g id="Group_1970" data-name="Group 1970" transform="translate(25.769 59.125)">
        <g id="Group_1968" data-name="Group 1968">
          <g id="Group_1957" data-name="Group 1957" transform="translate(62.543)">
            <g id="Group_1935" data-name="Group 1935">
              <path id="Path_3544" data-name="Path 3544" d="M373.974,198.754l122.362-22.4-3.709,144.126L373.07,350.5Z" transform="translate(-272.614 -147.716)" fill="#cfcfcf"/>
              <path id="Path_3545" data-name="Path 3545" d="M276.745,191.3l-.9,151.342-98.977-41.953L175.39,160.37Z" transform="translate(-175.385 -139.856)" fill="#ddd"/>
              <path id="Path_3546" data-name="Path 3546" d="M175.38,139.213,294.419,120,399.1,148.634l-122.362,22.4-50.678-16.881Z" transform="translate(-175.38 -120)" fill="#e6e6e6"/>
              <path id="Path_3547" data-name="Path 3547" d="M276.74,189.635l-50.678-16.881L175.38,157.81l.005,1.3L276.74,191.017Z" transform="translate(-175.38 -138.597)" fill="#ababab"/>
            </g>
            <g id="Group_1936" data-name="Group 1936" transform="translate(40.108 11.489)">
              <path id="Path_3548" data-name="Path 3548" d="M256.149,220.146c1.138-.772,1.108.569,1.768.335,1.316-.468,1.133-1.7,1.763-3.054.366,1.047.955,2.348,2.205,1.946.01.467.518,1.194.529,1.687,1.753-.935,1.484.635,2.531,1.58,1.387,1.24,3.842,1.946,3.8,4.157a11.53,11.53,0,0,0,1.174-.488c.168.147.1.955.295,1.067a9.576,9.576,0,0,1,1.057-.452c.112.432,1.016,1.8,1.077,2.266.254-.407.716-.838.884-1.093.163.417.285.849.467,1.3a2.629,2.629,0,0,1,2.078.076l-.178-41.694-10.717-3.567L254.31,181.1s1.179,37.664,1.184,37.664C255.728,219.216,255.946,219.679,256.149,220.146Z" transform="translate(-254.31 -161.541)" fill="#fdb819"/>
              <path id="Path_3549" data-name="Path 3549" d="M254.386,183.214l21.23,6.682-.01-2.114-10.717-3.567L254.32,181.1C254.32,181.095,254.345,181.888,254.386,183.214Z" transform="translate(-254.315 -161.541)" fill="#fdb819"/>
              <path id="Path_3550" data-name="Path 3550" d="M254.32,162.164l10.569,3.115,10.717,3.572L393.6,147.631l-18.359-5.021Z" transform="translate(-254.315 -142.61)" fill="#fdb819"/>
              <path id="Path_3551" data-name="Path 3551" d="M390.109,146.02,271.66,166.437l1.758.518,1.85.62L394.048,147.1Z" transform="translate(-262.844 -144.287)" fill="#fdb819"/>
            </g>
            <g id="Group_1950" data-name="Group 1950" transform="translate(107.992 117.088)">
              <g id="Group_1949" data-name="Group 1949">
                <g id="Group_1938" data-name="Group 1938" transform="translate(0 5.767)">
                  <g id="Group_1937" data-name="Group 1937" transform="translate(8.811 10.308)">
                    <path id="Path_3552" data-name="Path 3552" d="M419.007,382.068a.975.975,0,0,0-.732.925c-.02,6.708-.03,10.021-.051,16.632-.005.574-.132,1.921-1.392,2.216-.854.2-1.728-.188-1.723-1.5a.586.586,0,0,0-.752-.595,1.029,1.029,0,0,0-.757.945,2.492,2.492,0,0,0,3.232,2.683,3.96,3.96,0,0,0,2.866-4.08c.015-6.6.025-9.9.041-16.6A.605.605,0,0,0,419.007,382.068Z" transform="translate(-409.352 -382.055)" fill="#001327"/>
                    <path id="Path_3553" data-name="Path 3553" d="M414.839,384.888c2.358-.478,7.221-.63,8.959,5.224-.676-.7-2.1-.452-3,.666-.91-.752-2.16-.539-3.156.645a1.9,1.9,0,0,0-2.515-.005c-.239.051-.361.076-.595.132a2.384,2.384,0,0,0-2.571,1.108c-1.037-.762-2.373-.437-3.369.742a2.544,2.544,0,0,0-3.349.706A12.608,12.608,0,0,1,414.839,384.888Z" transform="translate(-405.24 -383.345)" fill="#001327"/>
                  </g>
                  <path id="Path_3554" data-name="Path 3554" d="M442.86,371.659c-.371.869-1.037,1.433-1.5,1.25s-.523-1.052-.147-1.926a11.255,11.255,0,0,1,1.972-2.383A10.727,10.727,0,0,1,442.86,371.659Z" transform="translate(-414.003 -365.129)" fill="#001327"/>
                  <path id="Path_3555" data-name="Path 3555" d="M435.235,377.594c-.386.874-1.077,1.448-1.55,1.27s-.534-1.042-.142-1.926a11.507,11.507,0,0,1,2.038-2.4A10.558,10.558,0,0,1,435.235,377.594Z" transform="translate(-410.224 -368.051)" fill="#001327"/>
                  <path id="Path_3556" data-name="Path 3556" d="M442.37,381.648c-.371.869-1.052,1.428-1.509,1.25s-.523-1.032-.142-1.9a11.3,11.3,0,0,1,1.982-2.368A10.512,10.512,0,0,1,442.37,381.648Z" transform="translate(-413.756 -370.063)" fill="#001327"/>
                  <path id="Path_3557" data-name="Path 3557" d="M422.723,392.086q-17.462,4.055-34.823,8.334V368.828c11.464-2.459,22.953-4.843,34.508-7.058Q422.568,376.931,422.723,392.086Zm-32.847,5.966q15.565-3.811,31.226-7.378-.122-13.362-.234-26.729-15.542,3-30.946,6.326Q389.892,384.174,389.877,398.052Z" transform="translate(-387.9 -361.77)" fill="#001327"/>
                </g>
                <g id="Group_1940" data-name="Group 1940" transform="translate(35.977)">
                  <path id="Path_3558" data-name="Path 3558" d="M486.846,379.73q-13.88,3.255-27.791,6.423-.183-15.115-.356-30.25c9.4-1.794,18.8-3.572,28.146-5.483Zm-26.246,4.3c8.318-1.89,16.642-3.765,24.95-5.681-.041-9.929-.061-14.787-.1-25.763-8.374,1.7-16.784,3.3-25.194,4.9C460.392,368.469,460.463,373.617,460.6,384.029Z" transform="translate(-458.7 -350.42)" fill="#a7a7a7"/>
                  <g id="Group_1939" data-name="Group 1939" transform="translate(9.055 6.108)">
                    <path id="Path_3559" data-name="Path 3559" d="M487.857,395.507c-.844.193-1.265.285-2.119.478-.076-3.913-.117-5.864-.2-9.853.854-.178,1.281-.259,2.124-.442C487.74,389.664,487.781,391.62,487.857,395.507Z" transform="translate(-480.957 -373.876)" fill="#a7a7a7"/>
                    <path id="Path_3560" data-name="Path 3560" d="M488.03,403.119c-3.374.757-5.107,1.138-8.694,1.926-.005-.274-.01-.407-.015-.7-.025-1.24,8.674-3.14,8.7-1.926C488.019,402.707,488.025,402.84,488.03,403.119Z" transform="translate(-477.897 -381.914)" fill="#a7a7a7"/>
                    <path id="Path_3561" data-name="Path 3561" d="M484.34,363.014c-.508,1.047-.757,1.575-1.265,2.617l1.611-.33c.239-.051.356-.066.589-.122-.117.264-.168.4-.285.661-1.128,2.586-1.692,3.872-2.83,6.418.818-2.378,1.225-3.562,2.038-5.971-.783.269-1.179.412-1.967.691-.346.117-.518.183-.869.3.173-.447.259-.671.432-1.123.442-1.133.661-1.707,1.1-2.861-2.515.493-3.791.737-6.377,1.235.066,3.857.1,5.747.168,9.487a1.919,1.919,0,0,0,.838,1.641c3.618,2.129,5.854,1.636,9.187-1.88a2.776,2.776,0,0,0,.732-1.941c-.061-3.689-.091-5.559-.152-9.4C486.114,362.674,485.524,362.786,484.34,363.014Z" transform="translate(-476.52 -362.44)" fill="#a7a7a7"/>
                  </g>
                </g>
                <g id="Group_1941" data-name="Group 1941" transform="translate(36.348 30.895)">
                  <path id="Path_3562" data-name="Path 3562" d="M487.205,440.535q-13.7,3.75-27.42,7.449-.175-15.13-.356-30.25c9.264-2.165,18.527-4.314,27.77-6.514Q487.208,425.878,487.205,440.535Zm-25.824,5.142q12.325-3.346,24.65-6.692c-.041-10.976-.061-15.839-.1-25.773q-12.44,2.988-24.9,5.925Q461.206,432.4,461.381,445.678Z" transform="translate(-459.43 -411.22)" fill="#a7a7a7"/>
                  <path id="Path_3563" data-name="Path 3563" d="M470.707,443.446a1.1,1.1,0,0,1,.041-.981c.356-.7.534-1.047.884-1.748.508.29.762.437,1.265.727.152-2.581.229-3.852.381-6.387-1.9,1.53-2.861,2.3-4.848,3.877.528.279.788.432,1.316.727-.361.7-.539,1.047-.894,1.743a4.282,4.282,0,0,0-.168,3.837,2.341,2.341,0,0,0,2.785,1.24c2.647-.711,3.933-1.062,6.423-1.733-.02-1.082-.03-1.621-.056-2.688-2.485.666-3.77,1.006-6.413,1.7A.588.588,0,0,1,470.707,443.446Zm17.084-7.033c-1.047-1.728-1.591-2.586-2.688-4.279-.635.772-.955,1.153-1.6,1.926,1.118,1.7,1.667,2.561,2.744,4.294a1.16,1.16,0,0,1,.056.94.96.96,0,0,1-.584.65c-1.2.325-1.819.488-3.069.828-.015-.732-.015-1.093-.031-1.809-1.641,1.7-2.48,2.561-4.2,4.3,1.768.808,2.632,1.215,4.309,2.068-.015-.752-.02-1.128-.036-1.87,1.255-.34,1.865-.5,3.064-.828a3.7,3.7,0,0,0,2.256-2.576A4.614,4.614,0,0,0,487.791,436.413Zm-10.727-6.265a2.449,2.449,0,0,1,1.524-1.352,1.413,1.413,0,0,1,1.545.589c.285.417.432.615.716,1.032-.452.523-.681.788-1.138,1.311,1.824.569,2.724.859,4.462,1.438-.218-2.409-.33-3.6-.549-5.966-.447.518-.671.777-1.118,1.3-.279-.412-.422-.615-.706-1.037a2.949,2.949,0,0,0-3.257-1.25,5.273,5.273,0,0,0-3.272,2.866c-1.026,2.048-1.545,3.064-2.6,5.142.742.427,1.1.64,1.84,1.067C475.539,433.217,476.047,432.19,477.064,430.147Z" transform="translate(-463.796 -418.546)" fill="#a7a7a7"/>
                </g>
                <g id="Group_1948" data-name="Group 1948" transform="translate(0 37.761)">
                  <path id="Path_3564" data-name="Path 3564" d="M423.054,455.051q-17.607,4.794-35.154,9.711v-31.6q17.386-4.3,34.844-8.435Q422.9,439.891,423.054,455.051Zm-33.228,7.287q15.747-4.413,31.556-8.71-.122-13.354-.234-26.729-15.679,3.735-31.276,7.658Q389.841,448.453,389.826,462.338Z" transform="translate(-387.9 -424.73)" fill="#001327"/>
                  <g id="Group_1947" data-name="Group 1947" transform="translate(9.223 7.414)">
                    <path id="Path_3565" data-name="Path 3565" d="M423.784,477.83c-6.784,1.85-10.361,2.825-17.734,4.868.005-.757.005-1.128.01-1.88,7.373-2.043,10.94-3.013,17.714-4.848C423.779,476.707,423.784,477.078,423.784,477.83Z" transform="translate(-406.05 -457.346)" fill="#001327"/>
                    <g id="Group_1946" data-name="Group 1946" transform="translate(0.859)">
                      <g id="Group_1943" data-name="Group 1943" transform="translate(0 2.221)">
                        <path id="Path_3566" data-name="Path 3566" d="M414.989,466.94c-.976.269-1.469.4-2.459.671.025-5.4.036-8.08.061-13.435.986-.254,1.479-.381,2.449-.625C415.02,458.875,415.01,461.553,414.989,466.94Z" transform="translate(-410.096 -448.54)" fill="#001327"/>
                        <g id="Group_1942" data-name="Group 1942">
                          <path id="Path_3567" data-name="Path 3567" d="M415.068,449.148c-1.428-2.175-2.149-3.267-3.6-5.457-1.474,2.927-2.221,4.406-3.725,7.373C410.728,450.281,412.2,449.895,415.068,449.148Z" transform="translate(-407.74 -443.69)" fill="#001327"/>
                        </g>
                      </g>
                      <g id="Group_1945" data-name="Group 1945" transform="translate(9.091)">
                        <path id="Path_3568" data-name="Path 3568" d="M432.638,462.3c-.94.254-1.408.381-2.358.64.005-5.356.005-8.008.015-13.288.94-.244,1.408-.361,2.332-.6C432.633,454.314,432.633,456.952,432.638,462.3Z" transform="translate(-427.917 -444.106)" fill="#001327"/>
                        <g id="Group_1944" data-name="Group 1944">
                          <path id="Path_3569" data-name="Path 3569" d="M432.607,444.752c-1.367-2.165-2.063-3.247-3.45-5.432-1.392,2.871-2.1,4.314-3.527,7.221Z" transform="translate(-425.63 -439.32)" fill="#001327"/>
                        </g>
                      </g>
                    </g>
                  </g>
                </g>
              </g>
            </g>
            <g id="Group_1956" data-name="Group 1956" transform="translate(6.509 115.863)">
              <g id="Group_1955" data-name="Group 1955">
                <path id="Path_3570" data-name="Path 3570" d="M188.988,390.257l26.256,11.108.711-43.838L188.19,348.01Z" transform="translate(-188.19 -348.01)" fill="#eaeaea"/>
                <g id="Group_1954" data-name="Group 1954" transform="translate(4.741 10.239)">
                  <g id="Group_1951" data-name="Group 1951" transform="translate(9.67 3.415)">
                    <path id="Path_3571" data-name="Path 3571" d="M216.733,383.244c-.071-3.323-.107-4.98-.183-8.364,2.094.716,3.227,1.1,5.854,1.977.056,3.415.081,5.107.137,8.491C219.97,384.433,218.842,384.022,216.733,383.244Zm.447-7.175c.056,2.6.086,3.882.142,6.443,1.657.6,2.536.915,4.467,1.606-.051-2.6-.071-3.9-.122-6.52C219.711,376.933,218.832,376.633,217.18,376.069Z" transform="translate(-216.55 -374.88)" fill="#001327"/>
                    <path id="Path_3572" data-name="Path 3572" d="M219.711,384.264c-.036-1.474-.046-2.205-.081-3.684.976.335,1.479.508,2.551.879.031,1.479.046,2.221.076,3.7C221.19,384.782,220.687,384.6,219.711,384.264Z" transform="translate(-218.065 -377.684)" fill="#001327"/>
                  </g>
                  <g id="Group_1952" data-name="Group 1952">
                    <path id="Path_3573" data-name="Path 3573" d="M197.637,376.26c-.051-3.186-.071-4.782-.117-8.1,1.7.625,2.52.92,4.279,1.545.046,3.333.066,4.96.112,8.2C200.127,377.23,199.3,376.905,197.637,376.26Zm.381-6.972c.036,2.536.051,3.776.081,6.24,1.286.5,1.931.742,3.283,1.25-.036-2.495-.051-3.74-.086-6.291C199.964,370,199.324,369.766,198.018,369.288Z" transform="translate(-197.52 -368.16)" fill="#001327"/>
                    <path id="Path_3574" data-name="Path 3574" d="M199.966,377.122c-.02-1.408-.025-2.119-.046-3.552.742.269,1.108.407,1.865.681.02,1.438.031,2.155.046,3.572Z" transform="translate(-198.7 -370.821)" fill="#001327"/>
                  </g>
                  <path id="Path_3575" data-name="Path 3575" d="M207.116,393.847c-.02-1.423-.036-2.129-.056-3.547.793.3,1.2.452,2.033.772.03,1.433.041,2.149.066,3.582C208.32,394.33,207.914,394.167,207.116,393.847Z" transform="translate(-202.212 -379.05)" fill="#001327"/>
                  <path id="Path_3576" data-name="Path 3576" d="M203.23,390.017c-.005-.422-.01-.63-.01-1.047.224.086.335.132.564.219.005.422.005.63.015,1.052C203.566,390.149,203.454,390.108,203.23,390.017Z" transform="translate(-200.324 -378.395)" fill="#001327"/>
                  <path id="Path_3577" data-name="Path 3577" d="M203.245,392.072c-.005-.422-.01-.63-.015-1.052.224.091.335.132.564.224.005.422.01.63.015,1.042C203.586,392.209,203.474,392.158,203.245,392.072Z" transform="translate(-200.328 -379.404)" fill="#001327"/>
                  <path id="Path_3578" data-name="Path 3578" d="M202.15,391.647c-.005-.417-.01-.62-.01-1.047l.559.218c.005.417.01.63.015,1.052C202.486,391.779,202.369,391.738,202.15,391.647Z" transform="translate(-199.792 -379.197)" fill="#001327"/>
                  <path id="Path_3579" data-name="Path 3579" d="M201.055,391.207c-.005-.417-.01-.62-.015-1.037l.554.219c.005.422.01.63.01,1.047C201.386,391.349,201.274,391.3,201.055,391.207Z" transform="translate(-199.251 -378.986)" fill="#001327"/>
                  <path id="Path_3580" data-name="Path 3580" d="M199.98,390.782c-.005-.417-.005-.625-.01-1.042.218.086.325.127.549.219.005.417.01.62.015,1.037C200.305,390.914,200.2,390.873,199.98,390.782Z" transform="translate(-198.725 -378.774)" fill="#001327"/>
                  <path id="Path_3581" data-name="Path 3581" d="M200,392.837c-.005-.417-.005-.63-.015-1.047.219.086.33.127.549.213.005.422.01.63.015,1.052C200.326,392.959,200.214,392.918,200,392.837Z" transform="translate(-198.73 -379.782)" fill="#001327"/>
                  <path id="Path_3582" data-name="Path 3582" d="M200.025,394.892c-.005-.422-.005-.63-.015-1.042.219.086.33.127.549.219.005.412.005.625.01,1.047C200.356,395.024,200.244,394.978,200.025,394.892Z" transform="translate(-198.745 -380.796)" fill="#001327"/>
                  <path id="Path_3583" data-name="Path 3583" d="M201.11,395.327c-.005-.422-.005-.635-.01-1.047.219.086.33.132.554.224.005.417.005.63.015,1.047C201.44,395.459,201.329,395.418,201.11,395.327Z" transform="translate(-199.281 -381.007)" fill="#001327"/>
                  <path id="Path_3584" data-name="Path 3584" d="M202.2,395.767c-.005-.417-.005-.63-.015-1.047.224.081.335.132.559.224.005.417.01.625.015,1.052C202.531,395.9,202.419,395.853,202.2,395.767Z" transform="translate(-199.812 -381.224)" fill="#001327"/>
                  <path id="Path_3585" data-name="Path 3585" d="M200.055,396.937c-.005-.422-.01-.625-.015-1.047.218.086.33.132.549.224.005.417.01.625.015,1.047C200.38,397.069,200.269,397.028,200.055,396.937Z" transform="translate(-198.759 -381.799)" fill="#001327"/>
                  <path id="Path_3586" data-name="Path 3586" d="M200.085,399.007c-.005-.422-.01-.63-.015-1.047.213.091.325.132.549.224.005.417.005.63.015,1.052C200.41,399.139,200.3,399.1,200.085,399.007Z" transform="translate(-198.774 -382.817)" fill="#001327"/>
                  <path id="Path_3587" data-name="Path 3587" d="M200.115,401.062c-.005-.417-.01-.63-.015-1.052.213.091.325.137.549.229.005.417.01.635.015,1.057C200.44,401.2,200.329,401.158,200.115,401.062Z" transform="translate(-198.789 -383.825)" fill="#001327"/>
                  <path id="Path_3588" data-name="Path 3588" d="M201.185,401.517c-.005-.422-.01-.635-.015-1.057.219.091.33.137.554.229.005.422.005.64.015,1.057C201.516,401.654,201.4,401.608,201.185,401.517Z" transform="translate(-199.315 -384.047)" fill="#001327"/>
                  <path id="Path_3589" data-name="Path 3589" d="M201.22,403.6c-.005-.427-.005-.635-.01-1.057.218.091.33.137.554.229.005.422.005.63.01,1.057C201.55,403.739,201.439,403.688,201.22,403.6Z" transform="translate(-199.335 -385.07)" fill="#001327"/>
                  <path id="Path_3590" data-name="Path 3590" d="M201.24,405.682c-.005-.427-.005-.635-.01-1.062.219.091.33.142.554.229.005.427.01.635.015,1.067C201.576,405.819,201.464,405.779,201.24,405.682Z" transform="translate(-199.345 -386.093)" fill="#001327"/>
                  <path id="Path_3591" data-name="Path 3591" d="M202.335,406.147c-.005-.432-.01-.645-.015-1.067.224.091.33.142.564.239.005.422.01.635.015,1.062C202.671,406.284,202.559,406.233,202.335,406.147Z" transform="translate(-199.881 -386.319)" fill="#001327"/>
                  <path id="Path_3592" data-name="Path 3592" d="M203.435,406.6c-.005-.422-.01-.635-.015-1.062.224.1.34.142.569.239.005.427.01.64.015,1.067C203.776,406.749,203.664,406.7,203.435,406.6Z" transform="translate(-200.422 -386.545)" fill="#001327"/>
                  <path id="Path_3593" data-name="Path 3593" d="M203.47,408.7c-.005-.432-.005-.65-.01-1.072.229.1.34.147.569.244.005.427.01.64.02,1.077C203.811,408.85,203.7,408.8,203.47,408.7Z" transform="translate(-200.442 -387.573)" fill="#001327"/>
                  <path id="Path_3594" data-name="Path 3594" d="M203.485,410.822c-.005-.437-.005-.65-.015-1.082.229.1.34.147.574.244.005.432.005.65.015,1.077C203.831,410.965,203.714,410.919,203.485,410.822Z" transform="translate(-200.447 -388.611)" fill="#001327"/>
                  <path id="Path_3595" data-name="Path 3595" d="M203.525,412.952c-.005-.437-.01-.65-.015-1.082.229.1.346.142.574.244.005.432.005.65.015,1.082C203.866,413.095,203.749,413.049,203.525,412.952Z" transform="translate(-200.466 -389.659)" fill="#001327"/>
                  <path id="Path_3596" data-name="Path 3596" d="M202.415,412.477c-.005-.432-.01-.65-.015-1.077.224.091.335.147.559.239.005.432.01.64.015,1.082C202.751,412.62,202.639,412.574,202.415,412.477Z" transform="translate(-199.92 -389.428)" fill="#001327"/>
                  <path id="Path_3597" data-name="Path 3597" d="M201.355,414.137c-.005-.442-.01-.655-.015-1.087.218.091.33.142.554.234.005.437.005.656.015,1.092C201.686,414.285,201.574,414.229,201.355,414.137Z" transform="translate(-199.399 -390.239)" fill="#001327"/>
                  <path id="Path_3598" data-name="Path 3598" d="M202.475,416.763c-.005-.442-.005-.661-.015-1.1.224.1.335.147.564.239.005.437.01.656.015,1.1C202.811,416.91,202.7,416.859,202.475,416.763Z" transform="translate(-199.95 -391.523)" fill="#001327"/>
                  <path id="Path_3599" data-name="Path 3599" d="M199.26,415.368c-.01-.442-.01-.661-.02-1.1.213.091.32.137.539.229.005.437.005.661.015,1.1C199.58,415.5,199.474,415.464,199.26,415.368Z" transform="translate(-198.366 -390.839)" fill="#001327"/>
                  <path id="Path_3600" data-name="Path 3600" d="M199.205,411.082c-.005-.432-.01-.645-.015-1.082.213.091.32.142.539.234.005.427.01.645.015,1.077C199.525,411.22,199.414,411.174,199.205,411.082Z" transform="translate(-198.341 -388.739)" fill="#001327"/>
                  <path id="Path_3601" data-name="Path 3601" d="M204.555,407.077c-.005-.427-.005-.64-.015-1.067.229.1.346.147.579.239.005.427.005.64.015,1.067C204.9,407.219,204.789,407.179,204.555,407.077Z" transform="translate(-200.973 -386.777)" fill="#001327"/>
                  <path id="Path_3602" data-name="Path 3602" d="M205.705,407.547c-.01-.427-.01-.64-.015-1.067.234.1.351.147.584.249.005.427.01.64.015,1.067C206.056,407.7,205.939,407.649,205.705,407.547Z" transform="translate(-201.538 -387.008)" fill="#001327"/>
                  <path id="Path_3603" data-name="Path 3603" d="M206.9,410.152c-.005-.432-.005-.65-.015-1.082.239.1.356.158.6.254.01.432.015.64.02,1.072C207.251,410.3,207.134,410.254,206.9,410.152Z" transform="translate(-202.124 -388.282)" fill="#001327"/>
                  <path id="Path_3604" data-name="Path 3604" d="M208.105,412.772c-.005-.437-.01-.65-.015-1.082.244.1.361.158.61.254.01.437.01.656.02,1.087C208.471,412.93,208.349,412.874,208.105,412.772Z" transform="translate(-202.719 -389.57)" fill="#001327"/>
                  <path id="Path_3605" data-name="Path 3605" d="M210.53,413.8c-.01-.437-.015-.656-.02-1.087.254.1.381.158.635.264.005.432.01.656.02,1.087C210.911,413.955,210.784,413.909,210.53,413.8Z" transform="translate(-203.909 -390.072)" fill="#001327"/>
                  <path id="Path_3606" data-name="Path 3606" d="M211.78,414.327c-.01-.437-.015-.656-.02-1.087.254.107.381.163.64.269.01.432.015.656.025,1.093C212.167,414.49,212.034,414.434,211.78,414.327Z" transform="translate(-204.524 -390.333)" fill="#001327"/>
                  <path id="Path_3607" data-name="Path 3607" d="M210.5,411.662c-.005-.432-.01-.65-.015-1.082.249.112.371.163.63.264.005.432.01.645.02,1.082C210.876,411.825,210.749,411.764,210.5,411.662Z" transform="translate(-203.894 -389.024)" fill="#001327"/>
                  <path id="Path_3608" data-name="Path 3608" d="M210.46,409.537c-.01-.432-.015-.645-.02-1.077.249.107.376.158.63.259.01.432.01.65.02,1.082C210.831,409.7,210.709,409.649,210.46,409.537Z" transform="translate(-203.875 -387.982)" fill="#001327"/>
                  <path id="Path_3609" data-name="Path 3609" d="M209.23,409.037c-.005-.432-.01-.65-.02-1.077.249.1.371.158.62.259.005.432.01.65.02,1.077C209.6,409.19,209.479,409.139,209.23,409.037Z" transform="translate(-203.27 -387.736)" fill="#001327"/>
                  <path id="Path_3610" data-name="Path 3610" d="M209.205,406.917c-.005-.427-.01-.64-.015-1.067.244.1.366.147.62.254.005.427.01.64.02,1.072C209.571,407.075,209.449,407.024,209.205,406.917Z" transform="translate(-203.26 -386.698)" fill="#001327"/>
                  <path id="Path_3611" data-name="Path 3611" d="M208,406.427c-.005-.432-.01-.64-.02-1.067.244.1.366.142.61.249.005.427.01.64.015,1.067C208.366,406.58,208.239,406.529,208,406.427Z" transform="translate(-202.665 -386.457)" fill="#001327"/>
                  <path id="Path_3612" data-name="Path 3612" d="M209.16,404.812c-.01-.427-.015-.64-.02-1.072.244.1.366.147.62.249.005.427.01.64.02,1.077C209.531,404.96,209.4,404.914,209.16,404.812Z" transform="translate(-203.235 -385.66)" fill="#001327"/>
                  <path id="Path_3613" data-name="Path 3613" d="M210.38,405.307c-.01-.437-.015-.65-.02-1.077.244.1.371.152.625.254.005.432.01.645.02,1.072C210.756,405.455,210.629,405.4,210.38,405.307Z" transform="translate(-203.835 -385.901)" fill="#001327"/>
                  <path id="Path_3614" data-name="Path 3614" d="M211.62,405.812c-.01-.432-.015-.64-.02-1.072.254.1.381.152.64.264.01.427.01.645.02,1.077C212,405.965,211.874,405.914,211.62,405.812Z" transform="translate(-204.445 -386.152)" fill="#001327"/>
                  <path id="Path_3615" data-name="Path 3615" d="M212.88,406.327c-.01-.432-.015-.65-.02-1.077.259.1.391.152.656.259.01.432.015.65.025,1.082C213.272,406.485,213.139,406.429,212.88,406.327Z" transform="translate(-205.065 -386.403)" fill="#001327"/>
                  <path id="Path_3616" data-name="Path 3616" d="M211.66,407.932c-.01-.432-.015-.65-.02-1.082.254.107.381.158.64.264.01.432.015.645.02,1.077C212.041,408.09,211.914,408.034,211.66,407.932Z" transform="translate(-204.465 -387.19)" fill="#001327"/>
                  <path id="Path_3617" data-name="Path 3617" d="M211.7,410.052c-.01-.432-.01-.65-.02-1.082.254.107.381.163.64.264.005.437.015.65.02,1.082C212.081,410.215,211.954,410.159,211.7,410.052Z" transform="translate(-204.485 -388.232)" fill="#001327"/>
                  <path id="Path_3618" data-name="Path 3618" d="M212.96,410.572c-.005-.437-.015-.645-.02-1.082.259.1.391.158.656.269.01.437.01.655.02,1.087C213.352,410.74,213.225,410.684,212.96,410.572Z" transform="translate(-205.104 -388.488)" fill="#001327"/>
                  <path id="Path_3619" data-name="Path 3619" d="M214.3,413.247c-.01-.437-.015-.65-.025-1.087.264.107.4.163.666.274.01.432.015.656.025,1.087C214.692,413.415,214.56,413.354,214.3,413.247Z" transform="translate(-205.759 -389.802)" fill="#001327"/>
                  <path id="Path_3620" data-name="Path 3620" d="M214.08,402.592c-.01-.432-.015-.65-.02-1.082.264.1.4.152.661.264.01.432.015.645.025,1.077C214.477,402.745,214.345,402.694,214.08,402.592Z" transform="translate(-205.655 -384.563)" fill="#001327"/>
                  <path id="Path_3621" data-name="Path 3621" d="M213.985,398.357c-.01-.432-.01-.645-.025-1.077.259.1.4.147.666.249.01.432.01.65.02,1.077C214.382,398.51,214.25,398.464,213.985,398.357Z" transform="translate(-205.606 -382.483)" fill="#001327"/>
                  <path id="Path_3622" data-name="Path 3622" d="M216.625,399.372c-.01-.432-.015-.65-.025-1.082.274.1.412.158.691.264.01.432.015.65.025,1.082C217.037,399.53,216.9,399.484,216.625,399.372Z" transform="translate(-206.905 -382.979)" fill="#001327"/>
                  <path id="Path_3623" data-name="Path 3623" d="M216.715,403.637c-.01-.442-.015-.655-.025-1.087.274.107.412.163.691.274.01.432.015.645.025,1.087C217.132,403.8,216.99,403.744,216.715,403.637Z" transform="translate(-206.949 -385.075)" fill="#001327"/>
                  <path id="Path_3624" data-name="Path 3624" d="M218.035,402.027c-.01-.437-.015-.65-.025-1.087.279.107.422.163.706.269.01.437.01.655.025,1.092C218.452,402.2,218.315,402.134,218.035,402.027Z" transform="translate(-207.598 -384.283)" fill="#001327"/>
                  <path id="Path_3625" data-name="Path 3625" d="M219.385,400.422c-.01-.432-.015-.645-.025-1.082.285.107.432.158.722.274.01.437.015.656.02,1.093C219.812,400.59,219.67,400.539,219.385,400.422Z" transform="translate(-208.262 -383.496)" fill="#001327"/>
                  <path id="Path_3626" data-name="Path 3626" d="M219.425,402.573l-.025-1.093c.285.117.432.168.722.285.015.427.015.65.025,1.092C219.857,402.74,219.71,402.679,219.425,402.573Z" transform="translate(-208.282 -384.548)" fill="#001327"/>
                  <path id="Path_3627" data-name="Path 3627" d="M219.475,404.727c-.01-.442-.015-.656-.025-1.087.285.1.432.163.727.279.01.437.015.656.025,1.087C219.907,404.89,219.765,404.834,219.475,404.727Z" transform="translate(-208.306 -385.611)" fill="#001327"/>
                  <path id="Path_3628" data-name="Path 3628" d="M220.905,405.277c-.01-.432-.015-.656-.025-1.087.295.112.437.168.742.285.01.437.015.656.02,1.092C221.342,405.45,221.2,405.389,220.905,405.277Z" transform="translate(-209.01 -385.881)" fill="#001327"/>
                  <path id="Path_3629" data-name="Path 3629" d="M222.36,405.843c-.01-.442-.015-.656-.02-1.093.3.117.452.168.757.29.01.437.015.661.025,1.1C222.813,406.02,222.66,405.954,222.36,405.843Z" transform="translate(-209.728 -386.157)" fill="#001327"/>
                  <path id="Path_3630" data-name="Path 3630" d="M223.855,406.408c-.01-.437-.015-.661-.025-1.1.31.117.462.178.777.3.01.437.01.655.02,1.1C224.313,406.58,224.16,406.53,223.855,406.408Z" transform="translate(-210.461 -386.432)" fill="#001327"/>
                  <path id="Path_3631" data-name="Path 3631" d="M223.8,404.248c-.01-.437-.01-.655-.02-1.1.3.117.462.178.777.295.005.437.01.656.02,1.1Z" transform="translate(-210.436 -385.37)" fill="#001327"/>
                  <path id="Path_3632" data-name="Path 3632" d="M222.315,403.678c-.01-.442-.015-.661-.025-1.1.3.112.457.173.762.29.01.442.01.661.02,1.1C222.768,403.845,222.615,403.794,222.315,403.678Z" transform="translate(-209.703 -385.09)" fill="#001327"/>
                  <path id="Path_3633" data-name="Path 3633" d="M220.855,403.122c-.01-.442-.01-.666-.025-1.092.295.112.442.163.742.279.01.432.015.656.025,1.1C221.292,403.29,221.15,403.229,220.855,403.122Z" transform="translate(-208.985 -384.819)" fill="#001327"/>
                  <path id="Path_3634" data-name="Path 3634" d="M225.34,404.833c-.01-.447-.01-.666-.02-1.1.31.122.473.183.793.3.01.437.015.655.02,1.1C225.813,405.016,225.655,404.95,225.34,404.833Z" transform="translate(-211.193 -385.655)" fill="#001327"/>
                  <path id="Path_3635" data-name="Path 3635" d="M226.855,403.258c-.005-.447-.01-.666-.015-1.108.32.122.488.183.818.3.005.442.01.661.02,1.108C227.348,403.441,227.186,403.375,226.855,403.258Z" transform="translate(-211.941 -384.878)" fill="#001327"/>
                  <path id="Path_3636" data-name="Path 3636" d="M226.82,401.083c-.01-.437-.015-.661-.02-1.1.325.127.488.183.818.31.01.447.015.661.02,1.1C227.308,401.266,227.146,401.2,226.82,401.083Z" transform="translate(-211.921 -383.811)" fill="#001327"/>
                  <path id="Path_3637" data-name="Path 3637" d="M225.25,400.5c-.01-.437-.015-.655-.02-1.1.315.117.478.178.8.29.005.447.01.666.02,1.1C225.723,400.675,225.565,400.62,225.25,400.5Z" transform="translate(-211.149 -383.525)" fill="#001327"/>
                  <path id="Path_3638" data-name="Path 3638" d="M225.205,398.343c-.01-.442-.01-.661-.025-1.1.315.117.478.173.8.295.01.437.015.661.02,1.1C225.683,398.521,225.52,398.46,225.205,398.343Z" transform="translate(-211.125 -382.463)" fill="#001327"/>
                  <path id="Path_3639" data-name="Path 3639" d="M223.67,397.778c-.01-.442-.01-.656-.02-1.1.31.117.468.173.783.285.01.442.015.661.02,1.1C224.133,397.95,223.98,397.889,223.67,397.778Z" transform="translate(-210.372 -382.188)" fill="#001327"/>
                  <path id="Path_3640" data-name="Path 3640" d="M223.715,399.928c-.01-.437-.015-.661-.025-1.1.31.112.467.173.783.29.01.442.015.661.02,1.1C224.178,400.105,224.02,400.044,223.715,399.928Z" transform="translate(-210.392 -383.245)" fill="#001327"/>
                  <path id="Path_3641" data-name="Path 3641" d="M222.215,399.373c-.015-.437-.015-.661-.025-1.1.3.112.452.173.757.29.01.437.015.661.025,1.1C222.668,399.54,222.52,399.479,222.215,399.373Z" transform="translate(-209.654 -382.97)" fill="#001327"/>
                  <path id="Path_3642" data-name="Path 3642" d="M220.755,398.833l-.025-1.092c.295.107.442.163.742.269.01.442.015.666.025,1.1C221.2,399,221.05,398.939,220.755,398.833Z" transform="translate(-208.936 -382.709)" fill="#001327"/>
                  <path id="Path_3643" data-name="Path 3643" d="M220.705,396.683c-.01-.442-.015-.655-.025-1.093.295.107.442.168.742.279.01.432.015.656.025,1.087C221.148,396.845,221,396.789,220.705,396.683Z" transform="translate(-208.911 -381.651)" fill="#001327"/>
                  <path id="Path_3644" data-name="Path 3644" d="M216.53,395.112c-.01-.437-.01-.65-.02-1.082.274.1.412.158.691.254.01.437.015.65.025,1.087C216.942,395.275,216.8,395.219,216.53,395.112Z" transform="translate(-206.86 -380.884)" fill="#001327"/>
                  <path id="Path_3645" data-name="Path 3645" d="M212.62,393.637c-.005-.427-.01-.645-.02-1.067.254.1.386.142.645.239.01.432.01.65.02,1.077C213.012,393.79,212.88,393.739,212.62,393.637Z" transform="translate(-204.937 -380.166)" fill="#001327"/>
                  <path id="Path_3646" data-name="Path 3646" d="M212.5,387.307c-.005-.427-.01-.64-.02-1.067.254.1.386.137.645.229.01.432.01.65.02,1.077C212.887,387.449,212.754,387.4,212.5,387.307Z" transform="translate(-204.878 -377.053)" fill="#001327"/>
                  <path id="Path_3647" data-name="Path 3647" d="M213.78,387.767c-.01-.427-.015-.64-.02-1.077.259.091.391.147.656.244.01.432.015.65.025,1.082Z" transform="translate(-205.508 -377.274)" fill="#001327"/>
                  <path id="Path_3648" data-name="Path 3648" d="M213.725,385.642c-.01-.432-.015-.645-.025-1.082.259.091.391.142.656.234.01.432.015.656.025,1.087C214.117,385.79,213.985,385.734,213.725,385.642Z" transform="translate(-205.478 -376.226)" fill="#001327"/>
                  <path id="Path_3649" data-name="Path 3649" d="M213.685,383.512c-.005-.437-.015-.645-.025-1.082.259.086.391.137.656.229.01.437.015.655.025,1.087C214.077,383.655,213.945,383.6,213.685,383.512Z" transform="translate(-205.458 -375.179)" fill="#001327"/>
                  <path id="Path_3650" data-name="Path 3650" d="M212.38,380.927c-.005-.432-.01-.65-.02-1.087.249.091.381.142.64.229.01.437.015.65.02,1.087C212.761,381.065,212.634,381.019,212.38,380.927Z" transform="translate(-204.819 -373.905)" fill="#001327"/>
                  <path id="Path_3651" data-name="Path 3651" d="M213.6,379.243c-.005-.437-.01-.656-.02-1.093.259.091.386.137.656.229.01.442.015.661.02,1.092C213.992,379.38,213.859,379.334,213.6,379.243Z" transform="translate(-205.419 -373.074)" fill="#001327"/>
                  <path id="Path_3652" data-name="Path 3652" d="M212.3,376.647c-.01-.432-.015-.65-.025-1.087.254.091.381.132.64.229.005.437.01.65.02,1.087C212.677,376.78,212.549,376.744,212.3,376.647Z" transform="translate(-204.775 -371.8)" fill="#001327"/>
                  <path id="Path_3653" data-name="Path 3653" d="M211.03,374.068c-.01-.437-.015-.65-.02-1.1.244.091.371.132.62.224.01.437.015.656.02,1.092C211.4,374.2,211.274,374.159,211.03,374.068Z" transform="translate(-204.155 -370.526)" fill="#001327"/>
                  <path id="Path_3654" data-name="Path 3654" d="M208.65,373.237c-.01-.432-.01-.65-.02-1.087.239.086.361.127.6.208.005.437.01.65.02,1.087C209.006,373.37,208.884,373.324,208.65,373.237Z" transform="translate(-202.984 -370.123)" fill="#001327"/>
                  <path id="Path_3655" data-name="Path 3655" d="M208.71,377.512c-.01-.432-.01-.65-.02-1.082.239.091.361.127.6.213.005.437.01.65.02,1.082C209.071,377.644,208.949,377.6,208.71,377.512Z" transform="translate(-203.014 -372.228)" fill="#001327"/>
                  <path id="Path_3656" data-name="Path 3656" d="M209.9,377.932c-.01-.432-.01-.645-.02-1.082.244.086.366.132.61.224.01.432.015.645.02,1.077C210.266,378.065,210.139,378.019,209.9,377.932Z" transform="translate(-203.599 -372.434)" fill="#001327"/>
                  <path id="Path_3657" data-name="Path 3657" d="M211.11,378.367c-.005-.432-.015-.65-.02-1.077.249.081.376.132.63.213.01.442.01.656.02,1.087C211.481,378.5,211.359,378.454,211.11,378.367Z" transform="translate(-204.194 -372.651)" fill="#001327"/>
                  <path id="Path_3658" data-name="Path 3658" d="M208.745,379.632c-.005-.427-.005-.65-.015-1.072.239.086.361.132.6.213.005.432.01.645.02,1.077C209.106,379.759,208.984,379.724,208.745,379.632Z" transform="translate(-203.034 -373.275)" fill="#001327"/>
                  <path id="Path_3659" data-name="Path 3659" d="M209.965,382.172c-.01-.427-.015-.64-.025-1.072.244.086.371.132.62.219.01.437.01.65.015,1.082C210.336,382.309,210.209,382.259,209.965,382.172Z" transform="translate(-203.629 -374.525)" fill="#001327"/>
                  <path id="Path_3660" data-name="Path 3660" d="M210.015,384.292c-.01-.427-.01-.645-.015-1.072.244.086.366.132.61.229.015.432.015.645.02,1.077C210.381,384.429,210.259,384.379,210.015,384.292Z" transform="translate(-203.658 -375.567)" fill="#001327"/>
                  <path id="Path_3661" data-name="Path 3661" d="M210.045,386.392c-.005-.422-.01-.64-.015-1.072.244.091.371.137.62.229.005.432.015.645.02,1.072C210.416,386.534,210.294,386.484,210.045,386.392Z" transform="translate(-203.673 -376.6)" fill="#001327"/>
                  <path id="Path_3662" data-name="Path 3662" d="M210.08,388.507c-.005-.427-.01-.645-.02-1.067.249.091.371.137.62.234.01.427.01.64.02,1.072C210.451,388.644,210.324,388.594,210.08,388.507Z" transform="translate(-203.688 -377.643)" fill="#001327"/>
                  <path id="Path_3663" data-name="Path 3663" d="M208.88,388.047c-.01-.427-.01-.64-.02-1.067l.61.229c.01.427.015.645.02,1.067C209.246,388.189,209.124,388.139,208.88,388.047Z" transform="translate(-203.098 -377.417)" fill="#001327"/>
                  <path id="Path_3664" data-name="Path 3664" d="M209.055,398.517c-.005-.432-.01-.645-.015-1.067.244.1.366.142.615.239.005.427.015.64.02,1.067C209.426,398.664,209.3,398.614,209.055,398.517Z" transform="translate(-203.186 -382.566)" fill="#001327"/>
                  <path id="Path_3665" data-name="Path 3665" d="M209.09,400.607c-.01-.422-.01-.635-.02-1.057.244.1.371.142.615.239.005.427.01.64.015,1.072Z" transform="translate(-203.201 -383.599)" fill="#001327"/>
                  <path id="Path_3666" data-name="Path 3666" d="M209.13,402.7c-.005-.432-.01-.64-.02-1.072.244.1.366.152.615.254.01.427.01.64.02,1.067C209.5,402.85,209.374,402.8,209.13,402.7Z" transform="translate(-203.221 -384.622)" fill="#001327"/>
                  <path id="Path_3667" data-name="Path 3667" d="M205.605,401.282c-.005-.427-.01-.64-.015-1.062.234.091.346.147.584.239.005.427.005.635.015,1.062C205.961,401.419,205.839,401.379,205.605,401.282Z" transform="translate(-201.489 -383.929)" fill="#001327"/>
                  <path id="Path_3668" data-name="Path 3668" d="M203.355,400.347c-.005-.417-.01-.625-.015-1.047.229.086.34.132.569.229.005.422.01.635.015,1.057C203.7,400.5,203.584,400.443,203.355,400.347Z" transform="translate(-200.383 -383.476)" fill="#001327"/>
                  <path id="Path_3669" data-name="Path 3669" d="M203.615,419.413c-.005-.442-.01-.666-.015-1.113.229.1.34.147.574.249.005.442.01.666.015,1.108C203.956,419.56,203.839,419.5,203.615,419.413Z" transform="translate(-200.51 -392.821)" fill="#001327"/>
                  <path id="Path_3670" data-name="Path 3670" d="M204.705,417.728c-.005-.442-.01-.661-.015-1.1.229.1.351.147.584.254.01.437.01.656.015,1.1Z" transform="translate(-201.047 -392)" fill="#001327"/>
                  <path id="Path_3671" data-name="Path 3671" d="M205.885,420.4c-.005-.442-.01-.666-.015-1.108.234.1.351.152.595.254.005.437.01.661.015,1.108C206.241,420.55,206.124,420.494,205.885,420.4Z" transform="translate(-201.627 -393.308)" fill="#001327"/>
                  <path id="Path_3672" data-name="Path 3672" d="M207.025,418.723c-.005-.442-.01-.661-.015-1.1.239.1.366.152.6.254.01.442.01.666.015,1.1C207.386,418.875,207.264,418.824,207.025,418.723Z" transform="translate(-202.188 -392.487)" fill="#001327"/>
                  <path id="Path_3673" data-name="Path 3673" d="M208.215,419.223c-.005-.437-.01-.661-.015-1.1.244.107.366.163.61.269.01.437.01.661.02,1.1C208.581,419.385,208.459,419.334,208.215,419.223Z" transform="translate(-202.773 -392.733)" fill="#001327"/>
                  <path id="Path_3674" data-name="Path 3674" d="M209.41,419.758c-.01-.442-.01-.666-.02-1.1.244.107.376.158.625.264.015.442.015.661.025,1.1C209.786,419.92,209.664,419.859,209.41,419.758Z" transform="translate(-203.358 -392.999)" fill="#001327"/>
                  <path id="Path_3675" data-name="Path 3675" d="M209.45,421.933c-.005-.447-.01-.671-.02-1.113.249.107.371.163.63.264.005.442.01.671.02,1.113C209.826,422.085,209.7,422.029,209.45,421.933Z" transform="translate(-203.378 -394.061)" fill="#001327"/>
                  <path id="Path_3676" data-name="Path 3676" d="M210.69,422.448c-.01-.442-.015-.666-.02-1.108.254.107.381.163.64.274.005.437.01.661.02,1.108C211.071,422.61,210.939,422.56,210.69,422.448Z" transform="translate(-203.988 -394.317)" fill="#001327"/>
                  <path id="Path_3677" data-name="Path 3677" d="M211.95,422.988c-.01-.447-.015-.666-.02-1.108.254.107.386.163.645.269.01.447.015.666.025,1.118C212.337,423.15,212.2,423.1,211.95,422.988Z" transform="translate(-204.608 -394.582)" fill="#001327"/>
                  <path id="Path_3678" data-name="Path 3678" d="M213.18,421.343c-.01-.442-.015-.661-.02-1.1.259.107.4.163.661.279.01.442.015.661.02,1.113C213.572,421.51,213.445,421.454,213.18,421.343Z" transform="translate(-205.213 -393.776)" fill="#001327"/>
                  <path id="Path_3679" data-name="Path 3679" d="M214.43,419.718c-.01-.442-.015-.666-.02-1.108.264.117.4.173.671.285.01.447.015.661.025,1.1C214.832,419.88,214.7,419.824,214.43,419.718Z" transform="translate(-205.827 -392.974)" fill="#001327"/>
                  <path id="Path_3680" data-name="Path 3680" d="M205.675,405.452c-.005-.427-.01-.635-.015-1.062.234.1.351.142.589.239.005.427.01.645.015,1.067C206.026,405.6,205.9,405.549,205.675,405.452Z" transform="translate(-201.524 -385.98)" fill="#001327"/>
                  <path id="Path_3681" data-name="Path 3681" d="M200.165,405.232c-.005-.427-.01-.635-.015-1.062.218.1.325.142.549.234.005.427.01.635.01,1.062C200.49,405.364,200.384,405.318,200.165,405.232Z" transform="translate(-198.814 -385.872)" fill="#001327"/>
                  <path id="Path_3682" data-name="Path 3682" d="M201.27,407.777c-.005-.432-.01-.64-.02-1.067l.554.239c.005.422.01.64.01,1.067C201.6,407.919,201.489,407.874,201.27,407.777Z" transform="translate(-199.355 -387.121)" fill="#001327"/>
                  <path id="Path_3683" data-name="Path 3683" d="M200.19,407.317c-.005-.427-.01-.64-.02-1.067.218.091.325.137.549.234.005.427.015.64.02,1.067C200.521,407.454,200.409,407.4,200.19,407.317Z" transform="translate(-198.823 -386.895)" fill="#001327"/>
                  <path id="Path_3684" data-name="Path 3684" d="M199.145,406.862c-.005-.427-.01-.64-.015-1.062.213.086.32.137.539.229.005.427.015.64.02,1.067C199.465,407,199.359,406.953,199.145,406.862Z" transform="translate(-198.312 -386.673)" fill="#001327"/>
                  <path id="Path_3685" data-name="Path 3685" d="M198.09,406.407c-.01-.427-.01-.64-.02-1.067.213.086.32.137.534.234.005.422.01.635.015,1.062C198.405,406.549,198.3,406.5,198.09,406.407Z" transform="translate(-197.791 -386.447)" fill="#001327"/>
                  <path id="Path_3686" data-name="Path 3686" d="M198.065,404.322c-.005-.422-.01-.635-.015-1.062.213.091.32.132.534.224.005.427.01.64.015,1.067C198.38,404.459,198.274,404.414,198.065,404.322Z" transform="translate(-197.781 -385.424)" fill="#001327"/>
                  <path id="Path_3687" data-name="Path 3687" d="M198.025,402.242c-.005-.422-.01-.63-.015-1.052l.534.229c.005.422.01.63.015,1.057C198.345,402.384,198.239,402.333,198.025,402.242Z" transform="translate(-197.761 -384.406)" fill="#001327"/>
                  <path id="Path_3688" data-name="Path 3688" d="M198,400.177c-.005-.417-.01-.625-.015-1.047.213.086.32.122.534.218.005.417.01.63.015,1.052C198.315,400.314,198.209,400.268,198,400.177Z" transform="translate(-197.746 -383.393)" fill="#001327"/>
                  <path id="Path_3689" data-name="Path 3689" d="M197.965,398.112c-.005-.422-.01-.63-.015-1.052.213.086.325.137.539.224.005.417.005.625.015,1.047C198.285,398.239,198.179,398.2,197.965,398.112Z" transform="translate(-197.732 -382.375)" fill="#001327"/>
                  <path id="Path_3690" data-name="Path 3690" d="M199.015,398.557c-.005-.422-.01-.63-.015-1.047.218.086.325.137.544.229.005.417.01.625.015,1.047C199.34,398.689,199.234,398.643,199.015,398.557Z" transform="translate(-198.248 -382.596)" fill="#001327"/>
                  <path id="Path_3691" data-name="Path 3691" d="M202.28,401.967c-.005-.422-.005-.635-.01-1.057.224.091.33.132.564.229.005.422.005.64.01,1.062C202.616,402.109,202.5,402.058,202.28,401.967Z" transform="translate(-199.856 -384.268)" fill="#001327"/>
                  <path id="Path_3692" data-name="Path 3692" d="M198.9,390.352c-.005-.417-.005-.625-.015-1.042.218.091.325.132.549.219.005.417.005.625.01,1.042C199.226,390.484,199.114,390.443,198.9,390.352Z" transform="translate(-198.189 -378.563)" fill="#001327"/>
                  <path id="Path_3693" data-name="Path 3693" d="M198.925,392.4c-.005-.417-.01-.625-.015-1.042.218.086.325.132.544.218.005.417.01.625.015,1.047C199.25,392.534,199.144,392.483,198.925,392.4Z" transform="translate(-198.204 -379.571)" fill="#001327"/>
                  <path id="Path_3694" data-name="Path 3694" d="M201.025,389.157c-.005-.417-.01-.625-.015-1.047.224.091.335.132.554.219.005.417.01.63.015,1.047C201.361,389.294,201.244,389.243,201.025,389.157Z" transform="translate(-199.237 -377.972)" fill="#001327"/>
                  <path id="Path_3695" data-name="Path 3695" d="M203.275,394.142c-.005-.422-.01-.63-.015-1.052.229.086.34.132.569.219.005.427.005.635.01,1.057C203.616,394.274,203.5,394.233,203.275,394.142Z" transform="translate(-200.343 -380.422)" fill="#001327"/>
                  <g id="Group_1953" data-name="Group 1953" transform="translate(10.061 21.205)">
                    <path id="Path_3696" data-name="Path 3696" d="M217.508,418.33c-.076-3.435-.112-5.107-.188-8.44,2.119.859,3.257,1.306,5.752,2.292.056,3.389.086,5.092.142,8.532C220.775,419.7,219.637,419.225,217.508,418.33Zm.452-7.231c.061,2.571.086,3.872.147,6.5,1.667.7,2.546,1.062,4.4,1.829-.051-2.642-.071-3.948-.122-6.555C220.5,412.126,219.622,411.77,217.96,411.1Z" transform="translate(-217.32 -409.89)" fill="#001327"/>
                    <path id="Path_3697" data-name="Path 3697" d="M220.511,419.444c-.036-1.489-.051-2.231-.081-3.7.971.391,1.469.595,2.51,1.016.031,1.484.046,2.226.076,3.73C221.98,420.049,221.482,419.846,220.511,419.444Z" transform="translate(-218.85 -412.767)" fill="#001327"/>
                  </g>
                </g>
              </g>
            </g>
          </g>
          <g id="Group_1962" data-name="Group 1962" transform="translate(0 158.944)">
            <path id="Path_3698" data-name="Path 3698" d="M80.01,462.41,138.478,434.2l14.081-1.408,148.257,21.632L267.242,469.89,234.02,486.674Z" transform="translate(-65.929 -432.79)" fill="#4c4c4c" opacity="0.15"/>
            <g id="Group_1961" data-name="Group 1961" transform="translate(0 1.408)">
              <g id="Group_1958" data-name="Group 1958">
                <path id="Path_3699" data-name="Path 3699" d="M355.041,510.372l66.8-32.252-.788,48.594L354.69,561.66Z" transform="translate(-201.031 -456.493)" fill="#cfcfcf"/>
                <path id="Path_3700" data-name="Path 3700" d="M52.3,465.175l72.548-29.615,148.257,21.627-33.573,15.468L206.31,489.439Z" transform="translate(-52.3 -435.56)" fill="#e6e6e6"/>
                <path id="Path_3701" data-name="Path 3701" d="M206.31,518.1l-.351,51.287L53.027,543.12,52.3,493.84Z" transform="translate(-52.3 -464.225)" fill="#ddd"/>
                <path id="Path_3702" data-name="Path 3702" d="M422.176,478.12l-66.8,32.252L388.6,493.588Z" transform="translate(-201.37 -456.493)" fill="#ababab"/>
              </g>
              <g id="Group_1959" data-name="Group 1959" transform="translate(28.746 11.067)">
                <path id="Path_3703" data-name="Path 3703" d="M418.837,531.35c-.854-.6-.828.442-1.321.259-.986-.361-.849-1.321-1.321-2.368-.274.813-.716,1.819-1.651,1.509-.01.361-.386.925-.4,1.311-1.311-.727-1.108.493-1.9,1.225-1.037.96-2.876,1.509-2.841,3.222a9.469,9.469,0,0,1-.879-.376c-.127.117-.071.742-.219.828a6.307,6.307,0,0,0-.793-.351c-.081.335-1.814,1.9-1.855,2.256-.188-.315-.534-.65-.661-.849-.122.325-.213.656-.351,1.006a1.892,1.892,0,0,0-1.555.061l.213-29.6,8.771-4.431,7.861-3.623-.61,28.848C419.158,530.633,418.99,530.989,418.837,531.35Z" transform="translate(-253.588 -479.026)" fill="#fdb819"/>
                <path id="Path_3704" data-name="Path 3704" d="M108.87,464.149,258.586,487.8l8.771-4.431,7.861-3.623-149.66-22.4Z" transform="translate(-108.87 -457.34)" fill="#fdb819"/>
                <path id="Path_3705" data-name="Path 3705" d="M403.49,510.038l16.621-8.024c.005-.361.01-.574.01-.574l-7.861,3.623-8.771,4.431Z" transform="translate(-253.779 -479.031)" fill="#a7a7a7"/>
                <path id="Path_3706" data-name="Path 3706" d="M271.949,486.816l1.88-.95,1.352-.62L125.714,462.42l-2.261.92-1.423.579Z" transform="translate(-115.343 -459.839)" fill="#c2c2c2"/>
              </g>
              <g id="Group_1960" data-name="Group 1960" transform="translate(7.317 40.525)">
                <path id="Path_3707" data-name="Path 3707" d="M139.1,563.777l-72.4-12.7L66.7,515.31l72.2,11.215Z" transform="translate(-66.7 -515.31)" fill="#eaeaea"/>
                <path id="Path_3708" data-name="Path 3708" d="M81.205,553.367l.9.158-.025-30.082-.9-.142Zm55.967-21.276.142,31.028.96.168-.147-31.043ZM84.153,546.2l.452.076-.02-22.44-.452-.071Zm1.474.249.91.152-.025-22.465-.91-.142Zm3.542.6,1.367.234-.03-22.516-1.367-.213Zm2.973.508.915.158-.036-22.547-.915-.142Zm2.759.468.92.157L95.779,525.6l-.915-.142Zm1.845.31,2.764.467-.046-22.628-2.759-.432Zm4.97.844.462.076-.051-22.663-.462-.071Zm1.5.254.925.158-.051-22.689-.925-.147Zm2.556.437,1.392.239-.056-22.73-1.392-.218Zm5.376.909,1.87.315-.066-22.8-1.87-.295Zm3.283.554.94.158-.071-22.831-.935-.147Zm2.353.4,1.88.32-.076-22.877-1.88-.295Zm3.023.513,4.731.8-.086-22.948-4.721-.742Zm5.676.96.473.081-.086-22.968-.473-.076Zm3.161.534.955.163-.1-23.014-.95-.147Zm2.393.406,1.911.325-.1-23.055-1.911-.3Zm3.115.529,1.438.244-.107-23.09-1.438-.224Zm-25.326,3.5.935.163-.081-30.555-.93-.147Z" transform="translate(-73.822 -519.24)" fill="#001327"/>
              </g>
            </g>
          </g>
          <g id="Group_1967" data-name="Group 1967" transform="translate(185.794 54.276)">
            <g id="Group_1966" data-name="Group 1966" transform="translate(0 0)">
              <path id="Path_3710" data-name="Path 3710" d="M516.217,318.307c-.091,0-.188-.005-.279-.01a4.271,4.271,0,0,1-4.126-4.446l2.856-42.791c.732-10.971,5.661-20.372,13.878-26.459a31.39,31.39,0,0,1,24.31-5.823c15.605,2.724,27.75,17.008,28.878,33.954l2.744,41.124a4.265,4.265,0,0,1-4.126,4.446,4.315,4.315,0,0,1-4.685-3.918l-2.744-41.124c-.864-12.953-10.173-24.234-21.662-26.241a22.348,22.348,0,0,0-17.277,4.187c-6.2,4.594-9.929,11.835-10.5,20.382l-2.856,42.791A4.341,4.341,0,0,1,516.217,318.307Z" transform="translate(-464.101 -232.462)" fill="#d59a13"/>
              <g id="Group_1963" data-name="Group 1963" transform="translate(139.136 55.799)">
                <path id="Path_3711" data-name="Path 3711" d="M691.74,341.148l3.745-4.528,25.2,150.275-5.529,2.4Z" transform="translate(-691.74 -336.62)" fill="#05101c"/>
                <path id="Path_3712" data-name="Path 3712" d="M723.689,499.2l-2.759,21.307L709.09,356.77Z" transform="translate(-700.274 -346.531)" fill="#05101c"/>
                <path id="Path_3713" data-name="Path 3713" d="M740.678,632.35l-8.288,23.705,2.759-21.307Z" transform="translate(-711.734 -482.075)" fill="#05101c"/>
              </g>
              <g id="Group_1964" data-name="Group 1964" transform="translate(0 55.799)">
                <path id="Path_3714" data-name="Path 3714" d="M446.874,341.148l-3.745-4.528-25.2,150.275,5.529,2.4Z" transform="translate(-417.93 -336.62)" fill="#05101c"/>
                <path id="Path_3715" data-name="Path 3715" d="M428.81,499.2l2.759,21.307,11.84-163.741Z" transform="translate(-423.281 -346.531)" fill="#05101c"/>
                <path id="Path_3716" data-name="Path 3716" d="M417.93,632.35l8.288,23.705-2.759-21.307Z" transform="translate(-417.93 -482.075)" fill="#05101c"/>
              </g>
              <path id="Path_3717" data-name="Path 3717" d="M576.548,341.148l3.745-4.528H462.611l3.745,4.528-8.816,5.712H585.365Z" transform="translate(-437.412 -280.821)" fill="#e1e1e1"/>
              <path id="Path_3718" data-name="Path 3718" d="M573.9,356.77H446.08L434.24,520.511h151.5Z" transform="translate(-425.952 -290.732)" fill="#001327"/>
              <g id="Group_1965" data-name="Group 1965" transform="translate(17.663 73.609)" opacity="0.4">
                <path id="Path_3719" data-name="Path 3719" d="M676.686,454.5a5.8,5.8,0,1,1-5.8-5.8A5.8,5.8,0,0,1,676.686,454.5Z" transform="translate(-557.159 -409.557)" fill="#cfcfcf"/>
                <path id="Path_3720" data-name="Path 3720" d="M667,589.758a5.8,5.8,0,1,1-5.8-5.8A5.8,5.8,0,0,1,667,589.758Z" transform="translate(-552.393 -476.085)" fill="#cfcfcf"/>
                <path id="Path_3721" data-name="Path 3721" d="M536.636,377.468a5.8,5.8,0,1,1-5.8-5.8A5.8,5.8,0,0,1,536.636,377.468Z" transform="translate(-488.276 -371.67)" fill="#cfcfcf"/>
                <circle id="Ellipse_153" data-name="Ellipse 153" cx="8.527" cy="8.527" r="8.527" transform="translate(39.834 126.336)" fill="#cfcfcf"/>
                <circle id="Ellipse_154" data-name="Ellipse 154" cx="4.233" cy="4.233" r="4.233" transform="translate(104.572 66.562)" fill="#cfcfcf"/>
                <circle id="Ellipse_155" data-name="Ellipse 155" cx="4.233" cy="4.233" r="4.233" transform="translate(7.399 143.318)" fill="#cfcfcf"/>
                <circle id="Ellipse_156" data-name="Ellipse 156" cx="4.233" cy="4.233" r="4.233" transform="translate(74.967 56.811)" fill="#cfcfcf"/>
                <circle id="Ellipse_157" data-name="Ellipse 157" cx="4.233" cy="4.233" r="4.233" transform="translate(9.36 66.562)" fill="#cfcfcf"/>
                <circle id="Ellipse_158" data-name="Ellipse 158" cx="4.233" cy="4.233" r="4.233" transform="translate(11.632 34.849)" fill="#cfcfcf"/>
                <circle id="Ellipse_159" data-name="Ellipse 159" cx="4.233" cy="4.233" r="4.233" transform="translate(79.205 99.404)" fill="#cfcfcf"/>
                <path id="Path_3722" data-name="Path 3722" d="M588.826,528.183a4.233,4.233,0,1,1-4.233-4.233A4.233,4.233,0,0,1,588.826,528.183Z" transform="translate(-515.485 -446.569)" fill="#cfcfcf"/>
                <circle id="Ellipse_160" data-name="Ellipse 160" cx="4.233" cy="4.233" r="4.233" transform="translate(46.145 93.596)" fill="#cfcfcf"/>
                <circle id="Ellipse_161" data-name="Ellipse 161" cx="5.859" cy="5.859" r="5.859" transform="translate(36.698 50.952)" fill="#cfcfcf"/>
                <circle id="Ellipse_162" data-name="Ellipse 162" cx="5.859" cy="5.859" r="5.859" transform="translate(77.579 33.223)" fill="#cfcfcf"/>
                <circle id="Ellipse_163" data-name="Ellipse 163" cx="5.859" cy="5.859" r="5.859" transform="translate(118.571 87.737)" fill="#cfcfcf"/>
                <circle id="Ellipse_164" data-name="Ellipse 164" cx="5.859" cy="5.859" r="5.859" transform="translate(89.297 135.894)" fill="#cfcfcf"/>
                <circle id="Ellipse_165" data-name="Ellipse 165" cx="5.859" cy="5.859" r="5.859" transform="translate(113.729 1.514)" fill="#cfcfcf"/>
                <path id="Path_3723" data-name="Path 3723" d="M582.75,410.345a3.425,3.425,0,1,1-3.425-3.425A3.427,3.427,0,0,1,582.75,410.345Z" transform="translate(-513.291 -389.008)" fill="#cfcfcf"/>
                <path id="Path_3724" data-name="Path 3724" d="M457.619,581.575a2.465,2.465,0,1,1-2.465-2.464A2.464,2.464,0,0,1,457.619,581.575Z" transform="translate(-452.69 -473.7)" fill="#cfcfcf"/>
                <circle id="Ellipse_166" data-name="Ellipse 166" cx="3.425" cy="3.425" r="3.425" transform="translate(124.43 132.464)" fill="#cfcfcf"/>
                <path id="Path_3725" data-name="Path 3725" d="M516.33,593.415a3.425,3.425,0,1,1-3.425-3.425A3.427,3.427,0,0,1,516.33,593.415Z" transform="translate(-480.622 -479.051)" fill="#cfcfcf"/>
              </g>
              <circle id="Ellipse_167" data-name="Ellipse 167" cx="8.7" cy="8.7" r="8.7" transform="translate(112.626 85.21)" fill="#d59a13"/>
              <path id="Path_3726" data-name="Path 3726" d="M509.759,403.2a8.7,8.7,0,1,1-8.7-8.7A8.7,8.7,0,0,1,509.759,403.2Z" transform="translate(-454.538 -309.29)" fill="#d59a13"/>
              <path id="Path_3727" data-name="Path 3727" d="M504.977,325.184c-.107,0-.219-.005-.33-.01a5.149,5.149,0,0,1-4.817-5.468l3.333-52.614c.854-13.491,6.606-25.042,16.2-32.532a35.256,35.256,0,0,1,28.385-7.16c18.222,3.349,32.4,20.91,33.716,41.749l3.2,50.561a5.153,5.153,0,0,1-10.285.65l-3.2-50.561c-1.006-15.925-11.88-29.793-25.3-32.262a25.1,25.1,0,0,0-20.174,5.148c-7.241,5.651-11.591,14.553-12.257,25.057l-3.333,52.614A5.161,5.161,0,0,1,504.977,325.184Z" transform="translate(-458.207 -226.812)" fill="#fdb819"/>
            </g>
          </g>
        </g>
        <g id="Group_1969" data-name="Group 1969" transform="translate(230.669 168.253)">
          <path id="Path_3728" data-name="Path 3728" d="M564.373,534.356a25.123,25.123,0,1,0-25.123-25.123A25.152,25.152,0,0,0,564.373,534.356Zm-3.638-37.923a3.638,3.638,0,1,1,7.277,0v9.162h9.162a3.638,3.638,0,0,1,0,7.277h-9.162v9.162a3.638,3.638,0,0,1-7.277,0v-9.162h-9.162a3.638,3.638,0,0,1,0-7.277h9.162Z" transform="translate(-522.476 -467.341)" fill="#fdb819"/>
          <path id="Path_3729" data-name="Path 3729" d="M548.137,451.11a41.688,41.688,0,0,0-14.685,2.658,12.711,12.711,0,0,1,3.5,6.469A34.672,34.672,0,1,1,519,474.317a12.84,12.84,0,0,1-5.452-4.924,41.885,41.885,0,1,0,34.59-18.283Z" transform="translate(-506.24 -451.11)" fill="#fdb819"/>
          <circle id="Ellipse_168" data-name="Ellipse 168" cx="6.931" cy="6.931" r="6.931" transform="translate(11.286 4.756)" fill="#fdb819"/>
        </g>
      </g>
    </g>
  </g>
</svg>
