<svg xmlns="http://www.w3.org/2000/svg" xmlns:xlink="http://www.w3.org/1999/xlink" width="458" height="458" viewBox="0 0 458 458">
  <defs>
    <linearGradient id="linear-gradient" x1="0.865" y1="0.178" x2="0.152" y2="0.822" gradientUnits="objectBoundingBox">
      <stop offset="0" stop-color="#fdb819"/>
      <stop offset="1" stop-color="#fff"/>
    </linearGradient>
  </defs>
  <g id="Group_2058" data-name="Group 2058" transform="translate(-409 -1747)">
    <circle id="Ellipse_8" data-name="Ellipse 8" cx="229" cy="229" r="229" transform="translate(409 2205) rotate(-90)" fill="url(#linear-gradient)"/>
    <g id="Add_Car_Parts" data-name="Add Car Parts" transform="translate(433.231 1772.874)">
      <g id="Group_1970" data-name="Group 1970" transform="translate(25.769 59.125)">
        <g id="Group_1968" data-name="Group 1968">
          <g id="Group_1957" data-name="Group 1957" transform="translate(63.35)">
            <g id="Group_1935" data-name="Group 1935">
              <path id="Path_3544" data-name="Path 3544" d="M373.986,199.044,497.928,176.35l-3.757,145.987-121.1,30.409Z" transform="translate(-271.317 -147.346)" fill="#cfcfcf"/>
              <path id="Path_3545" data-name="Path 3545" d="M278.054,191.7l-.916,153.3L176.883,302.5,175.39,160.37Z" transform="translate(-175.385 -139.591)" fill="#ddd"/>
              <path id="Path_3546" data-name="Path 3546" d="M175.38,139.461,295.956,120l106.035,29L278.049,171.7l-51.332-17.1Z" transform="translate(-175.38 -120)" fill="#e6e6e6"/>
              <path id="Path_3547" data-name="Path 3547" d="M278.049,190.046l-51.332-17.1L175.38,157.81l.005,1.318,102.664,32.319Z" transform="translate(-175.38 -138.349)" fill="#ababab"/>
            </g>
            <g id="Group_1936" data-name="Group 1936" transform="translate(40.626 11.638)">
              <path id="Path_3548" data-name="Path 3548" d="M256.173,220.65c1.153-.782,1.122.576,1.791.34,1.333-.474,1.148-1.724,1.786-3.093.371,1.06.968,2.378,2.234,1.971.01.474.525,1.21.535,1.709,1.776-.947,1.5.643,2.563,1.6,1.405,1.256,3.891,1.971,3.845,4.21a11.677,11.677,0,0,0,1.189-.494c.17.149.1.968.3,1.081a9.7,9.7,0,0,1,1.071-.458c.113.437,1.029,1.827,1.091,2.3.257-.412.726-.849.9-1.107.165.422.288.86.474,1.318a2.663,2.663,0,0,1,2.105.077l-.18-42.232-10.855-3.613L254.31,181.1s1.194,38.15,1.2,38.15C255.746,219.708,255.967,220.177,256.173,220.65Z" transform="translate(-254.31 -161.289)" fill="#b4b4b4"/>
              <path id="Path_3549" data-name="Path 3549" d="M254.387,183.241l21.5,6.768-.01-2.141-10.855-3.613L254.32,181.1C254.32,181.095,254.346,181.9,254.387,183.241Z" transform="translate(-254.315 -161.289)" fill="#a7a7a7"/>
              <path id="Path_3550" data-name="Path 3550" d="M254.32,162.416l10.706,3.155,10.855,3.618L395.4,147.7l-18.6-5.085Z" transform="translate(-254.315 -142.61)" fill="#bdbdbd"/>
              <path id="Path_3551" data-name="Path 3551" d="M391.638,146.02,271.66,166.7l1.781.525,1.874.628,120.313-20.743Z" transform="translate(-262.73 -144.265)" fill="#c2c2c2"/>
            </g>
            <g id="Group_1950" data-name="Group 1950" transform="translate(109.386 118.599)">
              <g id="Group_1949" data-name="Group 1949">
                <g id="Group_1938" data-name="Group 1938" transform="translate(0 5.842)">
                  <g id="Group_1937" data-name="Group 1937" transform="translate(8.925 10.441)">
                    <path id="Path_3552" data-name="Path 3552" d="M419.076,382.068a.988.988,0,0,0-.741.937c-.021,6.794-.031,10.15-.051,16.846-.005.582-.134,1.946-1.41,2.244-.865.2-1.75-.19-1.745-1.518a.593.593,0,0,0-.762-.6,1.042,1.042,0,0,0-.767.957,2.524,2.524,0,0,0,3.274,2.718,4.011,4.011,0,0,0,2.9-4.133c.015-6.686.026-10.027.041-16.81A.613.613,0,0,0,419.076,382.068Z" transform="translate(-409.297 -382.055)" fill="#a7a7a7"/>
                    <path id="Path_3553" data-name="Path 3553" d="M414.963,384.89c2.388-.484,7.314-.638,9.074,5.291-.685-.71-2.131-.458-3.042.674-.921-.762-2.187-.546-3.2.654a1.928,1.928,0,0,0-2.548-.005c-.242.051-.365.077-.6.134a2.415,2.415,0,0,0-2.6,1.122c-1.05-.772-2.4-.443-3.413.751a2.577,2.577,0,0,0-3.392.715A12.771,12.771,0,0,1,414.963,384.89Z" transform="translate(-405.24 -383.328)" fill="#a7a7a7"/>
                  </g>
                  <path id="Path_3554" data-name="Path 3554" d="M442.885,371.7c-.376.88-1.05,1.452-1.518,1.266s-.53-1.065-.149-1.951a11.4,11.4,0,0,1,2-2.414A10.864,10.864,0,0,1,442.885,371.7Z" transform="translate(-413.654 -365.085)" fill="#a7a7a7"/>
                  <path id="Path_3555" data-name="Path 3555" d="M435.26,377.633c-.391.885-1.091,1.467-1.57,1.287s-.54-1.055-.144-1.951a11.655,11.655,0,0,1,2.064-2.429A10.7,10.7,0,0,1,435.26,377.633Z" transform="translate(-409.926 -367.967)" fill="#a7a7a7"/>
                  <path id="Path_3556" data-name="Path 3556" d="M442.394,381.687c-.376.88-1.065,1.446-1.529,1.266s-.53-1.045-.144-1.925a11.446,11.446,0,0,1,2.007-2.4A10.647,10.647,0,0,1,442.394,381.687Z" transform="translate(-413.411 -369.952)" fill="#a7a7a7"/>
                  <path id="Path_3557" data-name="Path 3557" d="M423.173,392.477q-17.688,4.107-35.273,8.441v-32c11.612-2.491,23.249-4.905,34.954-7.149Q423.016,377.126,423.173,392.477ZM389.9,398.52q15.766-3.86,31.629-7.474-.124-13.534-.237-27.074-15.742,3.034-31.346,6.408Q389.918,384.463,389.9,398.52Z" transform="translate(-387.9 -361.77)" fill="#a7a7a7"/>
                </g>
                <g id="Group_1940" data-name="Group 1940" transform="translate(36.441)">
                  <path id="Path_3558" data-name="Path 3558" d="M487.21,380.108q-14.059,3.3-28.149,6.506-.185-15.31-.36-30.641c9.517-1.817,19.039-3.618,28.51-5.554Zm-26.585,4.354c8.426-1.915,16.857-3.814,25.272-5.754-.041-10.057-.062-14.978-.1-26.1-8.482,1.719-17,3.34-25.519,4.967C460.414,368.7,460.486,373.916,460.625,384.463Z" transform="translate(-458.7 -350.42)" fill="#a7a7a7"/>
                  <g id="Group_1939" data-name="Group 1939" transform="translate(9.172 6.187)">
                    <path id="Path_3559" data-name="Path 3559" d="M487.887,395.634c-.854.2-1.282.288-2.146.484-.077-3.963-.118-5.94-.2-9.98.865-.18,1.3-.263,2.151-.448C487.769,389.715,487.81,391.7,487.887,395.634Z" transform="translate(-480.897 -373.723)" fill="#a7a7a7"/>
                    <path id="Path_3560" data-name="Path 3560" d="M488.142,403.133c-3.418.767-5.173,1.153-8.807,1.951-.005-.278-.01-.412-.015-.705-.026-1.256,8.786-3.181,8.812-1.951C488.132,402.716,488.137,402.85,488.142,403.133Z" transform="translate(-477.879 -381.654)" fill="#a7a7a7"/>
                    <path id="Path_3561" data-name="Path 3561" d="M484.441,363.022c-.515,1.06-.767,1.6-1.282,2.651l1.632-.335c.242-.051.36-.067.6-.124-.118.268-.17.4-.288.669-1.143,2.62-1.714,3.922-2.867,6.5.829-2.409,1.24-3.608,2.064-6.048-.793.273-1.194.417-1.992.7-.35.118-.525.185-.88.309.175-.453.263-.679.438-1.138.448-1.148.669-1.729,1.117-2.9-2.548.5-3.84.746-6.46,1.251.067,3.907.1,5.821.17,9.61a1.944,1.944,0,0,0,.849,1.663c3.665,2.157,5.929,1.657,9.306-1.9a2.812,2.812,0,0,0,.741-1.966c-.062-3.737-.093-5.631-.154-9.522C486.238,362.677,485.641,362.79,484.441,363.022Z" transform="translate(-476.52 -362.44)" fill="#a7a7a7"/>
                  </g>
                </g>
                <g id="Group_1941" data-name="Group 1941" transform="translate(36.817 31.294)">
                  <path id="Path_3562" data-name="Path 3562" d="M487.564,440.914q-13.874,3.8-27.774,7.546-.178-15.325-.36-30.641c9.383-2.193,18.766-4.37,28.129-6.6Q487.567,426.067,487.564,440.914Zm-26.157,5.209q12.484-3.389,24.968-6.779c-.041-11.118-.062-16.043-.1-26.106q-12.6,3.026-25.221,6Q461.229,432.673,461.406,446.122Z" transform="translate(-459.43 -411.22)" fill="#a7a7a7"/>
                  <path id="Path_3563" data-name="Path 3563" d="M470.738,443.669a1.114,1.114,0,0,1,.041-.993c.36-.705.54-1.06.9-1.771.515.293.772.443,1.282.736.154-2.615.232-3.9.386-6.47-1.92,1.549-2.9,2.332-4.91,3.927.535.283.8.438,1.333.736-.365.705-.546,1.06-.906,1.765a4.338,4.338,0,0,0-.17,3.886,2.371,2.371,0,0,0,2.821,1.256c2.682-.721,3.984-1.076,6.506-1.755-.021-1.1-.031-1.642-.057-2.723-2.517.674-3.819,1.019-6.5,1.724A.6.6,0,0,1,470.738,443.669Zm17.3-7.124c-1.06-1.75-1.611-2.62-2.723-4.334-.643.782-.968,1.168-1.621,1.951,1.132,1.724,1.688,2.594,2.779,4.349a1.175,1.175,0,0,1,.057.952.973.973,0,0,1-.592.659c-1.22.329-1.843.494-3.109.839-.015-.741-.015-1.107-.031-1.832-1.663,1.719-2.512,2.594-4.251,4.36,1.791.818,2.666,1.23,4.365,2.095-.015-.762-.021-1.143-.036-1.894,1.271-.345,1.889-.51,3.1-.839a3.752,3.752,0,0,0,2.285-2.61A4.674,4.674,0,0,0,488.042,436.546ZM477.177,430.2a2.48,2.48,0,0,1,1.544-1.369,1.431,1.431,0,0,1,1.565.6c.288.422.437.623.726,1.045-.458.53-.69.8-1.153,1.328,1.848.577,2.759.87,4.519,1.457-.221-2.44-.335-3.644-.556-6.043-.453.525-.679.788-1.132,1.318-.283-.417-.427-.623-.715-1.05a2.987,2.987,0,0,0-3.3-1.266,5.341,5.341,0,0,0-3.315,2.9c-1.04,2.074-1.565,3.1-2.63,5.209.751.432,1.117.649,1.863,1.081C475.633,433.308,476.147,432.269,477.177,430.2Z" transform="translate(-463.738 -418.449)" fill="#a7a7a7"/>
                </g>
                <g id="Group_1948" data-name="Group 1948" transform="translate(0 38.248)">
                  <path id="Path_3564" data-name="Path 3564" d="M423.507,455.443q-17.835,4.856-35.607,9.836v-32q17.611-4.354,35.294-8.544Q423.356,440.086,423.507,455.443Zm-33.657,7.381q15.951-4.47,31.963-8.822-.124-13.526-.237-27.074-15.881,3.783-31.68,7.757Q389.866,448.759,389.851,462.824Z" transform="translate(-387.9 -424.73)" fill="#a7a7a7"/>
                  <g id="Group_1947" data-name="Group 1947" transform="translate(9.342 7.51)">
                    <path id="Path_3565" data-name="Path 3565" d="M424.013,477.854c-6.871,1.874-10.495,2.862-17.963,4.931.005-.767.005-1.143.01-1.9,7.468-2.069,11.082-3.052,17.943-4.91C424.008,476.716,424.013,477.092,424.013,477.854Z" transform="translate(-406.05 -457.106)" fill="#a7a7a7"/>
                    <g id="Group_1946" data-name="Group 1946" transform="translate(0.87)">
                      <g id="Group_1943" data-name="Group 1943" transform="translate(0 2.249)">
                        <path id="Path_3566" data-name="Path 3566" d="M415.021,467.113c-.988.273-1.488.4-2.491.679.026-5.466.036-8.184.062-13.609,1-.257,1.5-.386,2.481-.633C415.052,458.944,415.042,461.657,415.021,467.113Z" transform="translate(-410.065 -448.475)" fill="#a7a7a7"/>
                        <g id="Group_1942" data-name="Group 1942">
                          <path id="Path_3567" data-name="Path 3567" d="M415.162,449.218c-1.446-2.2-2.177-3.31-3.649-5.528-1.493,2.965-2.249,4.462-3.773,7.468C410.767,450.366,412.254,449.975,415.162,449.218Z" transform="translate(-407.74 -443.69)" fill="#a7a7a7"/>
                        </g>
                      </g>
                      <g id="Group_1945" data-name="Group 1945" transform="translate(9.208)">
                        <path id="Path_3568" data-name="Path 3568" d="M432.668,462.468c-.952.257-1.426.386-2.388.649.005-5.425.005-8.112.015-13.46.952-.247,1.426-.365,2.363-.607C432.663,454.382,432.663,457.054,432.668,462.468Z" transform="translate(-427.887 -444.042)" fill="#a7a7a7"/>
                        <g id="Group_1944" data-name="Group 1944">
                          <path id="Path_3569" data-name="Path 3569" d="M432.7,444.822c-1.385-2.193-2.09-3.289-3.495-5.5-1.41,2.908-2.126,4.37-3.572,7.314Z" transform="translate(-425.63 -439.32)" fill="#a7a7a7"/>
                        </g>
                      </g>
                    </g>
                  </g>
                </g>
              </g>
            </g>
            <g id="Group_1956" data-name="Group 1956" transform="translate(6.593 117.359)">
              <g id="Group_1955" data-name="Group 1955">
                <path id="Path_3570" data-name="Path 3570" d="M189,390.8l26.595,11.252.721-44.4-28.124-9.64Z" transform="translate(-188.19 -348.01)" fill="#eaeaea"/>
                <g id="Group_1954" data-name="Group 1954" transform="translate(4.802 10.371)">
                  <g id="Group_1951" data-name="Group 1951" transform="translate(9.795 3.459)">
                    <path id="Path_3571" data-name="Path 3571" d="M216.735,383.352c-.072-3.366-.108-5.044-.185-8.472,2.121.726,3.268,1.112,5.929,2,.057,3.459.082,5.173.139,8.6C220.014,384.557,218.871,384.14,216.735,383.352Zm.453-7.268c.057,2.63.088,3.932.144,6.526,1.678.607,2.568.927,4.524,1.627-.051-2.635-.072-3.953-.124-6.6C219.751,376.959,218.861,376.656,217.188,376.084Z" transform="translate(-216.55 -374.88)" fill="#a7a7a7"/>
                    <path id="Path_3572" data-name="Path 3572" d="M219.712,384.312c-.036-1.493-.046-2.234-.082-3.732.988.34,1.5.515,2.584.89.031,1.5.046,2.249.077,3.747C221.21,384.837,220.7,384.656,219.712,384.312Z" transform="translate(-218.045 -377.646)" fill="#a7a7a7"/>
                  </g>
                  <g id="Group_1952" data-name="Group 1952">
                    <path id="Path_3573" data-name="Path 3573" d="M197.638,376.364c-.051-3.227-.072-4.843-.118-8.2,1.724.633,2.553.932,4.334,1.565.046,3.376.067,5.024.113,8.307C200.16,377.348,199.327,377.018,197.638,376.364Zm.386-7.062c.036,2.568.051,3.824.082,6.321,1.3.5,1.956.751,3.325,1.266-.036-2.527-.051-3.788-.088-6.372C200,370.028,199.347,369.786,198.024,369.3Z" transform="translate(-197.52 -368.16)" fill="#a7a7a7"/>
                    <path id="Path_3574" data-name="Path 3574" d="M199.966,377.168c-.021-1.426-.026-2.146-.046-3.6.751.273,1.122.412,1.889.69.021,1.457.031,2.182.046,3.618Z" transform="translate(-198.685 -370.785)" fill="#a7a7a7"/>
                  </g>
                  <path id="Path_3575" data-name="Path 3575" d="M207.117,393.893c-.021-1.441-.036-2.157-.057-3.593.8.3,1.215.458,2.059.782.031,1.452.041,2.177.067,3.629C208.336,394.382,207.925,394.217,207.117,393.893Z" transform="translate(-202.15 -378.904)" fill="#a7a7a7"/>
                  <path id="Path_3576" data-name="Path 3576" d="M203.23,390.03c-.005-.427-.01-.638-.01-1.06.226.088.34.134.571.221.005.427.005.638.015,1.065C203.57,390.164,203.457,390.123,203.23,390.03Z" transform="translate(-200.286 -378.259)" fill="#a7a7a7"/>
                  <path id="Path_3577" data-name="Path 3577" d="M203.245,392.085c-.005-.427-.01-.638-.015-1.065.226.093.34.134.571.226.005.427.01.638.015,1.055C203.59,392.224,203.477,392.173,203.245,392.085Z" transform="translate(-200.291 -379.254)" fill="#a7a7a7"/>
                  <path id="Path_3578" data-name="Path 3578" d="M202.15,391.66c-.005-.422-.01-.628-.01-1.06.226.087.34.134.566.221.005.422.01.638.015,1.065C202.49,391.794,202.372,391.753,202.15,391.66Z" transform="translate(-199.762 -379.05)" fill="#a7a7a7"/>
                  <path id="Path_3579" data-name="Path 3579" d="M201.055,391.22c-.005-.422-.01-.628-.015-1.05l.561.221c.005.427.01.638.01,1.06C201.39,391.364,201.277,391.313,201.055,391.22Z" transform="translate(-199.228 -378.841)" fill="#a7a7a7"/>
                  <path id="Path_3580" data-name="Path 3580" d="M199.98,390.8c-.005-.422-.005-.633-.01-1.055.221.088.329.129.556.221.005.422.01.628.015,1.05C200.31,390.929,200.2,390.888,199.98,390.8Z" transform="translate(-198.709 -378.633)" fill="#a7a7a7"/>
                  <path id="Path_3581" data-name="Path 3581" d="M200,392.85c-.005-.422-.005-.638-.015-1.06.221.088.335.129.556.216.005.427.01.638.015,1.065C200.33,392.974,200.217,392.933,200,392.85Z" transform="translate(-198.714 -379.627)" fill="#a7a7a7"/>
                  <path id="Path_3582" data-name="Path 3582" d="M200.025,394.905c-.005-.427-.005-.638-.015-1.055.221.087.335.129.556.221.005.417.005.633.01,1.06C200.36,395.039,200.247,394.993,200.025,394.905Z" transform="translate(-198.728 -380.627)" fill="#a7a7a7"/>
                  <path id="Path_3583" data-name="Path 3583" d="M201.11,395.34c-.005-.427-.005-.643-.01-1.06.221.088.335.134.561.226.005.422.005.638.015,1.06C201.445,395.474,201.332,395.433,201.11,395.34Z" transform="translate(-199.257 -380.836)" fill="#a7a7a7"/>
                  <path id="Path_3584" data-name="Path 3584" d="M202.2,395.78c-.005-.422-.005-.638-.015-1.06.226.082.34.134.566.226.005.422.01.633.015,1.065C202.535,395.914,202.422,395.868,202.2,395.78Z" transform="translate(-199.781 -381.049)" fill="#a7a7a7"/>
                  <path id="Path_3585" data-name="Path 3585" d="M200.055,396.95c-.005-.427-.01-.633-.015-1.06.221.088.335.134.556.226.005.422.01.633.015,1.06C200.385,397.084,200.272,397.043,200.055,396.95Z" transform="translate(-198.743 -381.617)" fill="#a7a7a7"/>
                  <path id="Path_3586" data-name="Path 3586" d="M200.085,399.02c-.005-.427-.01-.638-.015-1.06.216.093.329.134.556.227.005.422.005.638.015,1.065C200.415,399.154,200.3,399.113,200.085,399.02Z" transform="translate(-198.758 -382.622)" fill="#a7a7a7"/>
                  <path id="Path_3587" data-name="Path 3587" d="M200.115,401.075c-.005-.422-.01-.638-.015-1.065.216.093.329.139.556.232.005.422.01.643.015,1.071C200.445,401.22,200.332,401.173,200.115,401.075Z" transform="translate(-198.772 -383.617)" fill="#a7a7a7"/>
                  <path id="Path_3588" data-name="Path 3588" d="M201.185,401.531c-.005-.427-.01-.643-.015-1.071.221.093.335.139.561.232.005.427.005.648.015,1.071C201.52,401.67,201.407,401.623,201.185,401.531Z" transform="translate(-199.291 -383.835)" fill="#a7a7a7"/>
                  <path id="Path_3589" data-name="Path 3589" d="M201.22,403.611c-.005-.432-.005-.643-.01-1.071.221.093.335.139.561.232.005.427.005.638.01,1.071C201.555,403.755,201.442,403.7,201.22,403.611Z" transform="translate(-199.311 -384.844)" fill="#a7a7a7"/>
                  <path id="Path_3590" data-name="Path 3590" d="M201.24,405.7c-.005-.432-.005-.643-.01-1.076.221.093.335.144.561.232.005.432.01.643.015,1.081C201.58,405.835,201.467,405.794,201.24,405.7Z" transform="translate(-199.32 -385.854)" fill="#a7a7a7"/>
                  <path id="Path_3591" data-name="Path 3591" d="M202.335,406.161c-.005-.438-.01-.654-.015-1.081.226.093.335.144.571.242.005.427.01.643.015,1.076C202.675,406.3,202.562,406.248,202.335,406.161Z" transform="translate(-199.849 -386.077)" fill="#a7a7a7"/>
                  <path id="Path_3592" data-name="Path 3592" d="M203.435,406.616c-.005-.427-.01-.643-.015-1.076.226.1.345.144.576.242.005.432.01.649.015,1.081C203.78,406.765,203.667,406.714,203.435,406.616Z" transform="translate(-200.383 -386.3)" fill="#a7a7a7"/>
                  <path id="Path_3593" data-name="Path 3593" d="M203.47,408.716c-.005-.437-.005-.659-.01-1.086.232.1.345.149.576.247.005.432.01.648.021,1.091C203.815,408.865,203.7,408.819,203.47,408.716Z" transform="translate(-200.403 -387.315)" fill="#a7a7a7"/>
                  <path id="Path_3594" data-name="Path 3594" d="M203.485,410.836c-.005-.443-.005-.659-.015-1.1.232.1.345.149.582.247.005.438.005.659.015,1.091C203.835,410.98,203.717,410.934,203.485,410.836Z" transform="translate(-200.407 -388.338)" fill="#a7a7a7"/>
                  <path id="Path_3595" data-name="Path 3595" d="M203.525,412.966c-.005-.443-.01-.659-.015-1.1.232.1.35.144.582.247.005.438.005.659.015,1.1C203.87,413.11,203.752,413.064,203.525,412.966Z" transform="translate(-200.427 -389.372)" fill="#a7a7a7"/>
                  <path id="Path_3596" data-name="Path 3596" d="M202.415,412.491c-.005-.437-.01-.659-.015-1.091.226.093.34.149.566.242.005.438.01.649.015,1.1C202.755,412.635,202.642,412.589,202.415,412.491Z" transform="translate(-199.888 -389.144)" fill="#a7a7a7"/>
                  <path id="Path_3597" data-name="Path 3597" d="M201.355,414.151c-.005-.448-.01-.664-.015-1.1.221.093.335.144.561.237.005.443.005.664.015,1.107C201.69,414.3,201.577,414.244,201.355,414.151Z" transform="translate(-199.374 -389.945)" fill="#a7a7a7"/>
                  <path id="Path_3598" data-name="Path 3598" d="M202.475,416.777c-.005-.448-.005-.669-.015-1.117.226.1.34.149.571.242.005.443.01.664.015,1.112C202.815,416.926,202.7,416.875,202.475,416.777Z" transform="translate(-199.917 -391.211)" fill="#a7a7a7"/>
                  <path id="Path_3599" data-name="Path 3599" d="M199.261,415.382c-.01-.448-.01-.669-.021-1.112.216.093.324.139.546.232.005.443.005.669.015,1.112C199.585,415.521,199.477,415.48,199.261,415.382Z" transform="translate(-198.355 -390.537)" fill="#a7a7a7"/>
                  <path id="Path_3600" data-name="Path 3600" d="M199.205,411.1c-.005-.437-.01-.654-.015-1.1.216.093.324.144.546.237.005.432.01.654.015,1.091C199.53,411.235,199.416,411.189,199.205,411.1Z" transform="translate(-198.33 -388.465)" fill="#a7a7a7"/>
                  <path id="Path_3601" data-name="Path 3601" d="M204.555,407.091c-.005-.432-.005-.649-.015-1.081.232.1.35.149.587.242.005.432.005.649.015,1.081C204.905,407.235,204.792,407.194,204.555,407.091Z" transform="translate(-200.927 -386.528)" fill="#a7a7a7"/>
                  <path id="Path_3602" data-name="Path 3602" d="M205.705,407.561c-.01-.432-.01-.649-.015-1.081.237.1.355.149.592.252.005.432.01.649.015,1.081C206.061,407.715,205.942,407.664,205.705,407.561Z" transform="translate(-201.485 -386.756)" fill="#a7a7a7"/>
                  <path id="Path_3603" data-name="Path 3603" d="M206.9,410.166c-.005-.437-.005-.659-.015-1.1.242.1.36.16.607.257.01.438.015.649.021,1.086C207.256,410.321,207.137,410.269,206.9,410.166Z" transform="translate(-202.062 -388.013)" fill="#a7a7a7"/>
                  <path id="Path_3604" data-name="Path 3604" d="M208.105,412.786c-.005-.443-.01-.659-.015-1.1.247.1.365.16.618.257.01.443.01.664.021,1.1C208.476,412.946,208.352,412.889,208.105,412.786Z" transform="translate(-202.65 -389.285)" fill="#a7a7a7"/>
                  <path id="Path_3605" data-name="Path 3605" d="M210.531,413.811c-.01-.443-.015-.664-.021-1.1.257.1.386.16.643.268.005.438.01.664.021,1.1C210.917,413.971,210.788,413.925,210.531,413.811Z" transform="translate(-203.824 -389.78)" fill="#a7a7a7"/>
                  <path id="Path_3606" data-name="Path 3606" d="M211.781,414.341c-.01-.443-.015-.664-.021-1.1.257.108.386.165.649.273.01.438.015.664.026,1.107C212.172,414.506,212.038,414.45,211.781,414.341Z" transform="translate(-204.431 -390.037)" fill="#a7a7a7"/>
                  <path id="Path_3607" data-name="Path 3607" d="M210.5,411.676c-.005-.437-.01-.659-.015-1.1.252.113.376.165.638.268.005.438.01.654.021,1.1C210.881,411.841,210.753,411.779,210.5,411.676Z" transform="translate(-203.809 -388.746)" fill="#a7a7a7"/>
                  <path id="Path_3608" data-name="Path 3608" d="M210.461,409.551c-.01-.437-.015-.654-.021-1.091.252.108.381.16.638.262.01.438.01.659.021,1.1C210.836,409.716,210.713,409.664,210.461,409.551Z" transform="translate(-203.79 -387.717)" fill="#a7a7a7"/>
                  <path id="Path_3609" data-name="Path 3609" d="M209.231,409.051c-.005-.437-.01-.659-.021-1.091.252.1.376.16.628.263.005.437.01.659.021,1.091C209.606,409.206,209.483,409.154,209.231,409.051Z" transform="translate(-203.193 -387.475)" fill="#a7a7a7"/>
                  <path id="Path_3610" data-name="Path 3610" d="M209.205,406.931c-.005-.432-.01-.649-.015-1.081.247.1.371.149.628.257.005.432.01.648.021,1.086C209.576,407.09,209.453,407.039,209.205,406.931Z" transform="translate(-203.183 -386.451)" fill="#a7a7a7"/>
                  <path id="Path_3611" data-name="Path 3611" d="M208,406.441c-.005-.437-.01-.648-.021-1.081.247.1.371.144.618.252.005.432.01.649.015,1.081C208.371,406.6,208.243,406.544,208,406.441Z" transform="translate(-202.596 -386.213)" fill="#a7a7a7"/>
                  <path id="Path_3612" data-name="Path 3612" d="M209.161,404.826c-.01-.432-.015-.649-.021-1.086.247.1.371.149.628.252.005.432.01.648.021,1.091C209.536,404.975,209.408,404.929,209.161,404.826Z" transform="translate(-203.159 -385.427)" fill="#a7a7a7"/>
                  <path id="Path_3613" data-name="Path 3613" d="M210.381,405.321c-.01-.443-.015-.659-.021-1.091.247.1.376.154.633.257.005.438.01.654.021,1.086C210.761,405.47,210.633,405.419,210.381,405.321Z" transform="translate(-203.751 -385.664)" fill="#a7a7a7"/>
                  <path id="Path_3614" data-name="Path 3614" d="M211.621,405.826c-.01-.437-.015-.649-.021-1.086.257.1.386.154.649.268.01.432.01.654.021,1.091C212.007,405.98,211.878,405.929,211.621,405.826Z" transform="translate(-204.353 -385.912)" fill="#a7a7a7"/>
                  <path id="Path_3615" data-name="Path 3615" d="M212.881,406.341c-.01-.438-.015-.659-.021-1.091.262.1.4.154.664.262.01.438.015.659.026,1.1C213.277,406.5,213.143,406.444,212.881,406.341Z" transform="translate(-204.964 -386.159)" fill="#a7a7a7"/>
                  <path id="Path_3616" data-name="Path 3616" d="M211.661,407.946c-.01-.437-.015-.659-.021-1.1.257.108.386.16.649.268.01.438.015.654.021,1.091C212.047,408.106,211.918,408.049,211.661,407.946Z" transform="translate(-204.372 -386.936)" fill="#a7a7a7"/>
                  <path id="Path_3617" data-name="Path 3617" d="M211.7,410.066c-.01-.438-.01-.659-.021-1.1.257.108.386.165.648.268.005.443.015.659.021,1.1C212.087,410.231,211.958,410.174,211.7,410.066Z" transform="translate(-204.392 -387.965)" fill="#a7a7a7"/>
                  <path id="Path_3618" data-name="Path 3618" d="M212.961,410.586c-.005-.443-.015-.654-.021-1.1.262.1.4.16.664.273.01.443.01.664.021,1.1C213.357,410.756,213.228,410.7,212.961,410.586Z" transform="translate(-205.003 -388.217)" fill="#a7a7a7"/>
                  <path id="Path_3619" data-name="Path 3619" d="M214.3,413.261c-.01-.443-.015-.659-.026-1.1.268.108.4.165.674.278.01.438.015.664.026,1.1C214.7,413.431,214.563,413.37,214.3,413.261Z" transform="translate(-205.649 -389.513)" fill="#a7a7a7"/>
                  <path id="Path_3620" data-name="Path 3620" d="M214.081,402.606c-.01-.437-.015-.659-.021-1.1.268.1.4.154.669.268l.026,1.091C214.482,402.761,214.348,402.709,214.081,402.606Z" transform="translate(-205.547 -384.345)" fill="#a7a7a7"/>
                  <path id="Path_3621" data-name="Path 3621" d="M213.986,398.371c-.01-.437-.01-.654-.026-1.091.263.1.4.149.674.252.01.438.01.659.021,1.091C214.387,398.526,214.253,398.479,213.986,398.371Z" transform="translate(-205.498 -382.292)" fill="#a7a7a7"/>
                  <path id="Path_3622" data-name="Path 3622" d="M216.626,399.386l-.026-1.1c.278.1.417.16.7.268.01.438.015.659.026,1.1C217.043,399.546,216.9,399.5,216.626,399.386Z" transform="translate(-206.779 -382.782)" fill="#a7a7a7"/>
                  <path id="Path_3623" data-name="Path 3623" d="M216.716,403.651c-.01-.448-.015-.664-.026-1.1.278.108.417.165.7.278.01.438.015.654.026,1.1C217.138,403.816,216.994,403.76,216.716,403.651Z" transform="translate(-206.823 -384.849)" fill="#a7a7a7"/>
                  <path id="Path_3624" data-name="Path 3624" d="M218.036,402.041c-.01-.443-.015-.659-.026-1.1.283.108.427.165.715.273.01.443.01.664.026,1.107C218.458,402.211,218.319,402.15,218.036,402.041Z" transform="translate(-207.464 -384.068)" fill="#a7a7a7"/>
                  <path id="Path_3625" data-name="Path 3625" d="M219.386,400.436c-.01-.437-.015-.654-.026-1.1.288.108.438.16.731.278.01.443.015.664.021,1.107C219.818,400.606,219.674,400.555,219.386,400.436Z" transform="translate(-208.119 -383.291)" fill="#a7a7a7"/>
                  <path id="Path_3626" data-name="Path 3626" d="M219.426,402.587l-.026-1.107c.288.118.437.17.731.288.015.432.015.659.026,1.107C219.863,402.756,219.714,402.695,219.426,402.587Z" transform="translate(-208.138 -384.33)" fill="#a7a7a7"/>
                  <path id="Path_3627" data-name="Path 3627" d="M219.476,404.741c-.01-.448-.015-.664-.026-1.1.288.1.438.165.736.283.01.443.015.664.026,1.1C219.913,404.906,219.769,404.85,219.476,404.741Z" transform="translate(-208.162 -385.378)" fill="#a7a7a7"/>
                  <path id="Path_3628" data-name="Path 3628" d="M220.906,405.291c-.01-.438-.015-.664-.026-1.1.3.113.443.17.751.288.01.443.015.664.021,1.107C221.348,405.466,221.2,405.4,220.906,405.291Z" transform="translate(-208.856 -385.645)" fill="#a7a7a7"/>
                  <path id="Path_3629" data-name="Path 3629" d="M222.361,405.857c-.01-.448-.015-.664-.021-1.107.3.118.458.17.767.293.01.443.015.669.026,1.112C222.819,406.037,222.664,405.97,222.361,405.857Z" transform="translate(-209.565 -385.917)" fill="#a7a7a7"/>
                  <path id="Path_3630" data-name="Path 3630" d="M223.856,406.422c-.01-.443-.015-.669-.026-1.112.314.118.468.18.788.3.01.443.01.664.021,1.112C224.319,406.6,224.165,406.545,223.856,406.422Z" transform="translate(-210.288 -386.189)" fill="#a7a7a7"/>
                  <path id="Path_3631" data-name="Path 3631" d="M223.8,404.262c-.01-.443-.01-.664-.021-1.112.309.118.468.18.788.3.005.443.01.664.021,1.112Z" transform="translate(-210.264 -385.14)" fill="#a7a7a7"/>
                  <path id="Path_3632" data-name="Path 3632" d="M222.316,403.692c-.01-.448-.015-.669-.026-1.112.3.113.463.175.772.293.01.448.01.669.021,1.112C222.774,403.862,222.619,403.81,222.316,403.692Z" transform="translate(-209.541 -384.864)" fill="#a7a7a7"/>
                  <path id="Path_3633" data-name="Path 3633" d="M220.856,403.137c-.01-.448-.01-.674-.026-1.107.3.113.448.165.751.283.01.438.015.664.026,1.112C221.3,403.307,221.154,403.245,220.856,403.137Z" transform="translate(-208.832 -384.597)" fill="#a7a7a7"/>
                  <path id="Path_3634" data-name="Path 3634" d="M225.341,404.847c-.01-.453-.01-.674-.021-1.117.314.124.479.185.8.309.01.443.015.664.021,1.112C225.819,405.032,225.66,404.965,225.341,404.847Z" transform="translate(-211.011 -385.422)" fill="#a7a7a7"/>
                  <path id="Path_3635" data-name="Path 3635" d="M226.855,403.272c-.005-.453-.01-.674-.015-1.122.324.124.494.185.829.309.005.448.01.669.021,1.122C227.355,403.457,227.19,403.39,226.855,403.272Z" transform="translate(-211.749 -384.655)" fill="#a7a7a7"/>
                  <path id="Path_3636" data-name="Path 3636" d="M226.821,401.1c-.01-.443-.015-.669-.021-1.117.329.129.494.185.829.314.01.453.015.669.021,1.117C227.315,401.282,227.15,401.22,226.821,401.1Z" transform="translate(-211.729 -383.602)" fill="#a7a7a7"/>
                  <path id="Path_3637" data-name="Path 3637" d="M225.251,400.512c-.01-.443-.015-.664-.021-1.112.319.118.484.18.813.293.005.453.01.674.021,1.117C225.729,400.692,225.57,400.635,225.251,400.512Z" transform="translate(-210.967 -383.32)" fill="#a7a7a7"/>
                  <path id="Path_3638" data-name="Path 3638" d="M225.206,398.357c-.01-.448-.01-.669-.026-1.117.319.118.484.175.813.3.01.443.015.669.021,1.112C225.69,398.537,225.525,398.475,225.206,398.357Z" transform="translate(-210.943 -382.272)" fill="#a7a7a7"/>
                  <path id="Path_3639" data-name="Path 3639" d="M223.671,397.792c-.01-.448-.01-.664-.021-1.112.314.118.474.175.793.288.01.448.015.669.021,1.117C224.139,397.967,223.985,397.9,223.671,397.792Z" transform="translate(-210.201 -382.001)" fill="#a7a7a7"/>
                  <path id="Path_3640" data-name="Path 3640" d="M223.716,399.942c-.01-.443-.015-.669-.026-1.112.314.113.474.175.793.293.01.448.015.669.021,1.112C224.184,400.122,224.025,400.06,223.716,399.942Z" transform="translate(-210.22 -383.044)" fill="#a7a7a7"/>
                  <path id="Path_3641" data-name="Path 3641" d="M222.216,399.387c-.015-.443-.015-.669-.026-1.117.3.113.458.175.767.293.01.443.015.669.026,1.112C222.674,399.557,222.525,399.495,222.216,399.387Z" transform="translate(-209.492 -382.772)" fill="#a7a7a7"/>
                  <path id="Path_3642" data-name="Path 3642" d="M220.756,398.847l-.026-1.107c.3.108.448.165.751.273.01.448.015.674.026,1.117C221.2,399.011,221.054,398.955,220.756,398.847Z" transform="translate(-208.784 -382.515)" fill="#a7a7a7"/>
                  <path id="Path_3643" data-name="Path 3643" d="M220.706,396.7c-.01-.448-.015-.664-.026-1.107.3.108.448.17.751.283.01.438.015.664.026,1.1C221.154,396.861,221,396.8,220.706,396.7Z" transform="translate(-208.759 -381.472)" fill="#a7a7a7"/>
                  <path id="Path_3644" data-name="Path 3644" d="M216.531,395.126c-.01-.443-.01-.659-.021-1.1.278.1.417.16.7.257.01.443.015.659.026,1.1C216.948,395.291,216.809,395.234,216.531,395.126Z" transform="translate(-206.736 -380.714)" fill="#a7a7a7"/>
                  <path id="Path_3645" data-name="Path 3645" d="M212.621,393.651c-.005-.432-.01-.654-.021-1.081.257.1.391.144.654.242.01.438.01.659.021,1.091C213.017,393.805,212.883,393.754,212.621,393.651Z" transform="translate(-204.838 -380.006)" fill="#a7a7a7"/>
                  <path id="Path_3646" data-name="Path 3646" d="M212.5,387.321c-.005-.432-.01-.649-.021-1.081.257.1.391.139.654.232.01.437.01.659.021,1.091C212.892,387.465,212.758,387.419,212.5,387.321Z" transform="translate(-204.78 -376.934)" fill="#a7a7a7"/>
                  <path id="Path_3647" data-name="Path 3647" d="M213.781,387.781c-.01-.432-.015-.649-.021-1.091.263.093.4.149.664.247.01.438.015.659.026,1.1Z" transform="translate(-205.401 -377.152)" fill="#a7a7a7"/>
                  <path id="Path_3648" data-name="Path 3648" d="M213.726,385.656c-.01-.437-.015-.654-.026-1.1.263.093.4.144.664.237.01.438.015.664.026,1.1C214.122,385.806,213.988,385.749,213.726,385.656Z" transform="translate(-205.372 -376.119)" fill="#a7a7a7"/>
                  <path id="Path_3649" data-name="Path 3649" d="M213.686,383.526c-.005-.443-.015-.654-.026-1.1.262.087.4.139.664.232.01.443.015.664.026,1.1C214.082,383.67,213.948,383.619,213.686,383.526Z" transform="translate(-205.353 -375.085)" fill="#a7a7a7"/>
                  <path id="Path_3650" data-name="Path 3650" d="M212.381,380.941c-.005-.437-.01-.659-.021-1.1.252.093.386.144.649.232.01.443.015.659.021,1.1C212.767,381.08,212.638,381.034,212.381,380.941Z" transform="translate(-204.722 -373.828)" fill="#a7a7a7"/>
                  <path id="Path_3651" data-name="Path 3651" d="M213.6,379.257c-.005-.443-.01-.664-.021-1.107.262.093.391.139.664.232.01.448.015.669.021,1.107C214,379.4,213.863,379.349,213.6,379.257Z" transform="translate(-205.314 -373.008)" fill="#a7a7a7"/>
                  <path id="Path_3652" data-name="Path 3652" d="M212.3,376.661c-.01-.437-.015-.659-.026-1.1.257.093.386.134.649.232.005.443.01.659.021,1.1C212.682,376.8,212.553,376.759,212.3,376.661Z" transform="translate(-204.678 -371.751)" fill="#a7a7a7"/>
                  <path id="Path_3653" data-name="Path 3653" d="M211.031,374.082c-.01-.443-.015-.659-.021-1.112.247.093.376.134.628.226.01.443.015.664.021,1.107C211.406,374.216,211.278,374.174,211.031,374.082Z" transform="translate(-204.067 -370.494)" fill="#a7a7a7"/>
                  <path id="Path_3654" data-name="Path 3654" d="M208.651,373.251c-.01-.438-.01-.659-.021-1.1.242.088.365.129.607.211.005.443.01.659.021,1.1C209.011,373.385,208.887,373.339,208.651,373.251Z" transform="translate(-202.912 -370.096)" fill="#a7a7a7"/>
                  <path id="Path_3655" data-name="Path 3655" d="M208.711,377.526c-.01-.437-.01-.659-.021-1.1.242.093.365.129.613.216.005.443.01.659.021,1.1C209.076,377.66,208.953,377.614,208.711,377.526Z" transform="translate(-202.941 -372.173)" fill="#a7a7a7"/>
                  <path id="Path_3656" data-name="Path 3656" d="M209.9,377.946c-.01-.437-.01-.654-.021-1.1.247.087.371.134.618.226.01.438.015.654.021,1.091C210.271,378.08,210.143,378.034,209.9,377.946Z" transform="translate(-203.518 -372.377)" fill="#a7a7a7"/>
                  <path id="Path_3657" data-name="Path 3657" d="M211.111,378.381c-.005-.437-.015-.659-.021-1.091.252.082.381.134.638.216.01.448.01.664.021,1.1C211.486,378.515,211.363,378.469,211.111,378.381Z" transform="translate(-204.105 -372.591)" fill="#a7a7a7"/>
                  <path id="Path_3658" data-name="Path 3658" d="M208.745,379.646c-.005-.432-.005-.659-.015-1.086.242.088.365.134.612.216.005.438.01.654.021,1.091C209.111,379.775,208.987,379.739,208.745,379.646Z" transform="translate(-202.96 -373.207)" fill="#a7a7a7"/>
                  <path id="Path_3659" data-name="Path 3659" d="M209.966,382.186c-.01-.432-.015-.649-.026-1.086.247.088.376.134.628.221.01.443.01.659.015,1.1C210.341,382.325,210.213,382.274,209.966,382.186Z" transform="translate(-203.547 -374.44)" fill="#a7a7a7"/>
                  <path id="Path_3660" data-name="Path 3660" d="M210.015,384.306c-.01-.432-.01-.654-.015-1.086.247.088.371.134.618.232.015.438.015.654.021,1.091C210.386,384.445,210.263,384.394,210.015,384.306Z" transform="translate(-203.576 -375.469)" fill="#a7a7a7"/>
                  <path id="Path_3661" data-name="Path 3661" d="M210.045,386.406c-.005-.427-.01-.649-.015-1.086.247.093.376.139.628.232.005.438.015.654.021,1.086C210.421,386.55,210.3,386.5,210.045,386.406Z" transform="translate(-203.591 -376.488)" fill="#a7a7a7"/>
                  <path id="Path_3662" data-name="Path 3662" d="M210.081,388.521c-.005-.432-.01-.654-.021-1.081.252.093.376.139.628.237.01.432.01.649.021,1.086C210.456,388.66,210.328,388.608,210.081,388.521Z" transform="translate(-203.606 -377.516)" fill="#a7a7a7"/>
                  <path id="Path_3663" data-name="Path 3663" d="M208.881,388.061c-.01-.432-.01-.649-.021-1.081l.618.232c.01.432.015.654.021,1.081C209.251,388.2,209.128,388.154,208.881,388.061Z" transform="translate(-203.023 -377.293)" fill="#a7a7a7"/>
                  <path id="Path_3664" data-name="Path 3664" d="M209.055,398.531c-.005-.438-.01-.654-.015-1.081.247.1.371.144.623.242.005.432.015.649.021,1.081C209.431,398.68,209.3,398.629,209.055,398.531Z" transform="translate(-203.111 -382.374)" fill="#a7a7a7"/>
                  <path id="Path_3665" data-name="Path 3665" d="M209.091,400.621c-.01-.427-.01-.643-.021-1.071.247.1.376.144.623.242.005.432.01.649.015,1.086Z" transform="translate(-203.125 -383.393)" fill="#a7a7a7"/>
                  <path id="Path_3666" data-name="Path 3666" d="M209.131,402.716c-.005-.438-.01-.649-.021-1.086.247.1.371.154.623.257.01.432.01.649.021,1.081C209.5,402.865,209.378,402.819,209.131,402.716Z" transform="translate(-203.145 -384.403)" fill="#a7a7a7"/>
                  <path id="Path_3667" data-name="Path 3667" d="M205.605,401.3c-.005-.432-.01-.649-.015-1.076.237.093.35.149.592.242.005.432.005.643.015,1.076C205.966,401.435,205.842,401.394,205.605,401.3Z" transform="translate(-201.436 -383.719)" fill="#a7a7a7"/>
                  <path id="Path_3668" data-name="Path 3668" d="M203.355,400.36c-.005-.422-.01-.633-.015-1.06.232.087.345.134.576.232.005.427.01.643.015,1.071C203.7,400.515,203.587,400.458,203.355,400.36Z" transform="translate(-200.344 -383.272)" fill="#a7a7a7"/>
                  <path id="Path_3669" data-name="Path 3669" d="M203.615,419.427c-.005-.448-.01-.674-.015-1.127.232.1.345.149.582.252.005.448.01.674.015,1.122C203.96,419.576,203.842,419.52,203.615,419.427Z" transform="translate(-200.471 -392.493)" fill="#a7a7a7"/>
                  <path id="Path_3670" data-name="Path 3670" d="M204.705,417.742c-.005-.448-.01-.669-.015-1.112.232.1.355.149.592.257.01.443.01.664.015,1.112Z" transform="translate(-201 -391.682)" fill="#a7a7a7"/>
                  <path id="Path_3671" data-name="Path 3671" d="M205.885,420.412c-.005-.448-.01-.674-.015-1.122.237.1.355.154.6.257.005.443.01.669.015,1.122C206.246,420.566,206.127,420.51,205.885,420.412Z" transform="translate(-201.572 -392.973)" fill="#a7a7a7"/>
                  <path id="Path_3672" data-name="Path 3672" d="M207.025,418.737c-.005-.448-.01-.669-.015-1.117.242.1.371.154.613.257.01.448.01.674.015,1.117C207.391,418.891,207.267,418.84,207.025,418.737Z" transform="translate(-202.125 -392.163)" fill="#a7a7a7"/>
                  <path id="Path_3673" data-name="Path 3673" d="M208.215,419.237c-.005-.443-.01-.669-.015-1.117.247.108.371.165.618.273.01.443.01.669.021,1.112C208.586,419.4,208.462,419.35,208.215,419.237Z" transform="translate(-202.703 -392.405)" fill="#a7a7a7"/>
                  <path id="Path_3674" data-name="Path 3674" d="M209.411,419.772c-.01-.448-.01-.674-.021-1.112.247.108.381.16.633.268.015.448.015.669.026,1.117C209.791,419.936,209.668,419.875,209.411,419.772Z" transform="translate(-203.28 -392.667)" fill="#a7a7a7"/>
                  <path id="Path_3675" data-name="Path 3675" d="M209.451,421.947c-.005-.453-.01-.679-.021-1.127.252.108.376.165.638.268.005.448.01.679.021,1.127C209.831,422.1,209.708,422.045,209.451,421.947Z" transform="translate(-203.3 -393.715)" fill="#a7a7a7"/>
                  <path id="Path_3676" data-name="Path 3676" d="M210.691,422.462c-.01-.448-.015-.674-.021-1.122.257.108.386.165.649.278.005.443.01.669.021,1.122C211.077,422.627,210.943,422.575,210.691,422.462Z" transform="translate(-203.902 -393.968)" fill="#a7a7a7"/>
                  <path id="Path_3677" data-name="Path 3677" d="M211.951,423c-.01-.453-.015-.674-.021-1.122.257.108.391.165.654.273.01.453.015.674.026,1.132C212.342,423.167,212.208,423.115,211.951,423Z" transform="translate(-204.513 -394.23)" fill="#a7a7a7"/>
                  <path id="Path_3678" data-name="Path 3678" d="M213.181,421.357c-.01-.448-.015-.669-.021-1.117.262.108.4.165.669.283.01.448.015.669.021,1.127C213.577,421.527,213.448,421.47,213.181,421.357Z" transform="translate(-205.11 -393.434)" fill="#a7a7a7"/>
                  <path id="Path_3679" data-name="Path 3679" d="M214.431,419.732c-.01-.448-.015-.674-.021-1.122.268.118.4.175.679.288.01.453.015.669.026,1.117C214.837,419.9,214.7,419.84,214.431,419.732Z" transform="translate(-205.717 -392.643)" fill="#a7a7a7"/>
                  <path id="Path_3680" data-name="Path 3680" d="M205.675,405.466c-.005-.432-.01-.643-.015-1.076.237.1.355.144.6.242.005.432.01.654.015,1.081C206.031,405.615,205.907,405.564,205.675,405.466Z" transform="translate(-201.47 -385.742)" fill="#a7a7a7"/>
                  <path id="Path_3681" data-name="Path 3681" d="M200.165,405.246c-.005-.432-.01-.643-.015-1.076.221.1.329.144.556.237.005.432.01.643.01,1.076C200.495,405.38,200.387,405.333,200.165,405.246Z" transform="translate(-198.796 -385.635)" fill="#a7a7a7"/>
                  <path id="Path_3682" data-name="Path 3682" d="M201.271,407.791c-.005-.437-.01-.649-.021-1.081l.561.242c.005.427.01.649.01,1.081C201.605,407.935,201.492,407.889,201.271,407.791Z" transform="translate(-199.33 -386.868)" fill="#a7a7a7"/>
                  <path id="Path_3683" data-name="Path 3683" d="M200.191,407.331c-.005-.432-.01-.648-.021-1.081.221.093.329.139.556.237.005.432.015.649.021,1.081C200.525,407.47,200.412,407.418,200.191,407.331Z" transform="translate(-198.806 -386.645)" fill="#a7a7a7"/>
                  <path id="Path_3684" data-name="Path 3684" d="M199.145,406.876c-.005-.432-.01-.649-.015-1.076.216.088.324.139.546.232.005.432.015.649.021,1.081C199.47,407.02,199.362,406.968,199.145,406.876Z" transform="translate(-198.301 -386.426)" fill="#a7a7a7"/>
                  <path id="Path_3685" data-name="Path 3685" d="M198.091,406.421c-.01-.432-.01-.649-.021-1.081.216.088.324.139.54.237.005.427.01.643.015,1.076C198.41,406.565,198.3,406.514,198.091,406.421Z" transform="translate(-197.787 -386.203)" fill="#a7a7a7"/>
                  <path id="Path_3686" data-name="Path 3686" d="M198.065,404.336c-.005-.427-.01-.643-.015-1.076.216.093.324.134.54.227.005.432.01.648.015,1.081C198.385,404.475,198.276,404.428,198.065,404.336Z" transform="translate(-197.777 -385.194)" fill="#a7a7a7"/>
                  <path id="Path_3687" data-name="Path 3687" d="M198.025,402.255c-.005-.427-.01-.638-.015-1.065l.54.232c.005.427.01.638.015,1.071C198.35,402.4,198.242,402.348,198.025,402.255Z" transform="translate(-197.758 -384.189)" fill="#a7a7a7"/>
                  <path id="Path_3688" data-name="Path 3688" d="M198,400.19c-.005-.422-.01-.633-.015-1.06.216.087.324.124.54.221.005.422.01.638.015,1.065C198.32,400.329,198.212,400.283,198,400.19Z" transform="translate(-197.743 -383.189)" fill="#a7a7a7"/>
                  <path id="Path_3689" data-name="Path 3689" d="M197.965,398.125c-.005-.427-.01-.638-.015-1.065.216.087.329.139.546.226.005.422.005.633.015,1.06C198.29,398.254,198.182,398.213,197.965,398.125Z" transform="translate(-197.729 -382.185)" fill="#a7a7a7"/>
                  <path id="Path_3690" data-name="Path 3690" d="M199.015,398.57c-.005-.427-.01-.638-.015-1.06.221.088.329.139.551.232.005.422.01.633.015,1.06C199.345,398.7,199.237,398.658,199.015,398.57Z" transform="translate(-198.238 -382.403)" fill="#a7a7a7"/>
                  <path id="Path_3691" data-name="Path 3691" d="M202.28,401.981c-.005-.427-.005-.643-.01-1.071.226.093.335.134.571.232.005.427.005.649.01,1.076C202.62,402.125,202.507,402.073,202.28,401.981Z" transform="translate(-199.825 -384.053)" fill="#a7a7a7"/>
                  <path id="Path_3692" data-name="Path 3692" d="M198.9,390.365c-.005-.422-.005-.633-.015-1.055.221.093.329.134.556.221.005.422.005.633.01,1.055C199.23,390.5,199.117,390.458,198.9,390.365Z" transform="translate(-198.18 -378.424)" fill="#a7a7a7"/>
                  <path id="Path_3693" data-name="Path 3693" d="M198.925,392.415c-.005-.422-.01-.633-.015-1.055.221.088.329.134.551.221.005.422.01.633.015,1.06C199.255,392.549,199.147,392.5,198.925,392.415Z" transform="translate(-198.195 -379.419)" fill="#a7a7a7"/>
                  <path id="Path_3694" data-name="Path 3694" d="M201.025,389.17c-.005-.422-.01-.633-.015-1.06.226.093.34.134.561.221.005.422.01.638.015,1.06C201.365,389.309,201.247,389.258,201.025,389.17Z" transform="translate(-199.214 -377.842)" fill="#a7a7a7"/>
                  <path id="Path_3695" data-name="Path 3695" d="M203.275,394.155c-.005-.427-.01-.638-.015-1.065.232.088.345.134.576.221.005.432.005.643.01,1.071C203.62,394.289,203.5,394.248,203.275,394.155Z" transform="translate(-200.306 -380.258)" fill="#a7a7a7"/>
                  <g id="Group_1953" data-name="Group 1953" transform="translate(10.191 21.479)">
                    <path id="Path_3696" data-name="Path 3696" d="M217.51,418.439c-.077-3.479-.113-5.173-.19-8.549,2.146.87,3.3,1.323,5.826,2.321.057,3.433.088,5.157.144,8.642C220.82,419.824,219.667,419.345,217.51,418.439Zm.458-7.324c.062,2.6.087,3.922.149,6.583,1.688.71,2.579,1.076,4.452,1.853-.051-2.676-.072-4-.124-6.64C220.542,412.155,219.652,411.794,217.969,411.115Z" transform="translate(-217.32 -409.89)" fill="#a7a7a7"/>
                    <path id="Path_3697" data-name="Path 3697" d="M220.512,419.492c-.036-1.508-.051-2.26-.082-3.752.983.4,1.488.6,2.543,1.029.031,1.5.046,2.254.077,3.778C222,420.1,221.5,419.9,220.512,419.492Z" transform="translate(-218.829 -412.729)" fill="#a7a7a7"/>
                  </g>
                </g>
              </g>
            </g>
          </g>
          <g id="Group_1962" data-name="Group 1962" transform="translate(0 160.996)">
            <path id="Path_3698" data-name="Path 3698" d="M80.01,462.792l59.222-28.577,14.263-1.426L303.666,454.7l-34.007,15.668-33.652,17Z" transform="translate(-65.747 -432.79)" fill="#4c4c4c" opacity="0.15"/>
            <g id="Group_1961" data-name="Group 1961" transform="translate(0 1.426)">
              <g id="Group_1958" data-name="Group 1958">
                <path id="Path_3699" data-name="Path 3699" d="M355.045,510.789,422.7,478.12l-.8,49.222-67.216,35.4Z" transform="translate(-199.047 -456.214)" fill="#cfcfcf"/>
                <path id="Path_3700" data-name="Path 3700" d="M52.3,465.557l73.485-30,150.171,21.906-34.007,15.668-33.652,17Z" transform="translate(-52.3 -435.56)" fill="#e6e6e6"/>
                <path id="Path_3701" data-name="Path 3701" d="M208.3,518.417l-.355,51.949L53.036,543.756,52.3,493.84Z" transform="translate(-52.3 -463.843)" fill="#ddd"/>
                <path id="Path_3702" data-name="Path 3702" d="M423.038,478.12,355.38,510.789l33.652-17Z" transform="translate(-199.382 -456.214)" fill="#ababab"/>
              </g>
              <g id="Group_1959" data-name="Group 1959" transform="translate(29.117 11.21)">
                <path id="Path_3703" data-name="Path 3703" d="M419.041,531.736c-.865-.607-.839.448-1.338.262-1-.365-.86-1.338-1.338-2.4-.278.823-.726,1.843-1.673,1.529-.01.365-.391.937-.4,1.328-1.328-.736-1.122.5-1.92,1.24-1.05.973-2.913,1.529-2.877,3.263a9.573,9.573,0,0,1-.89-.381c-.129.118-.072.752-.221.839a6.393,6.393,0,0,0-.8-.355c-.082.34-1.837,1.92-1.879,2.285-.19-.319-.54-.659-.669-.86-.124.329-.216.664-.355,1.019a1.917,1.917,0,0,0-1.575.062l.216-29.982L412.2,505.1l7.963-3.67-.618,29.22C419.365,531.01,419.195,531.371,419.041,531.736Z" transform="translate(-251.657 -478.737)" fill="#b4b4b4"/>
                <path id="Path_3704" data-name="Path 3704" d="M108.87,464.237l151.649,23.955L269.4,483.7l7.963-3.67L125.773,457.34Z" transform="translate(-108.87 -457.34)" fill="#bdbdbd"/>
                <path id="Path_3705" data-name="Path 3705" d="M403.49,510.149l16.836-8.127c.005-.365.01-.582.01-.582l-7.963,3.67L403.49,509.6Z" transform="translate(-251.847 -478.741)" fill="#a7a7a7"/>
                <path id="Path_3706" data-name="Path 3706" d="M273.884,487.131l1.9-.962,1.369-.628-151.4-23.121-2.29.932-1.441.587Z" transform="translate(-115.256 -459.805)" fill="#c2c2c2"/>
              </g>
              <g id="Group_1960" data-name="Group 1960" transform="translate(7.412 41.048)">
                <path id="Path_3707" data-name="Path 3707" d="M140.036,564.4l-73.33-12.868L66.7,515.31l73.135,11.36Z" transform="translate(-66.7 -515.31)" fill="#eaeaea"/>
                <path id="Path_3708" data-name="Path 3708" d="M81.206,553.755l.916.16L82.1,523.444l-.916-.144ZM137.9,532.2l.144,31.428.973.17-.149-31.443Zm-53.7,14.288.458.077-.021-22.729-.458-.072Zm1.493.252.921.154-.026-22.755L85.658,524Zm3.588.607,1.385.237-.031-22.807-1.385-.216Zm3.011.515.926.16-.036-22.838-.926-.144Zm2.795.474.932.16-.041-22.874-.926-.144Zm1.868.314,2.8.474-.046-22.92-2.795-.437Zm5.034.854.468.077L102.4,526.63l-.468-.072Zm1.524.257.937.16-.051-22.982-.937-.149Zm2.589.443,1.41.242-.057-23.023-1.41-.221Zm5.446.921,1.894.319-.067-23.095-1.894-.3Zm3.325.561.952.16-.072-23.126-.947-.149Zm2.383.407,1.9.324-.077-23.172-1.9-.3Zm3.063.52,4.792.813-.087-23.244-4.782-.751Zm5.749.973.479.082-.087-23.265-.479-.077Zm3.2.54.968.165-.1-23.311-.963-.149Zm2.424.412,1.935.329-.1-23.352-1.935-.3Zm3.155.535,1.457.247-.108-23.388-1.457-.227Zm-25.653,3.541.947.165-.082-30.949-.942-.149Z" transform="translate(-73.727 -519.188)" fill="#a7a7a7"/>
              </g>
            </g>
          </g>
          <g id="Group_1967" data-name="Group 1967" transform="translate(185.594 51.642)">
            <path id="Path_3709" data-name="Path 3709" d="M450.84,359.416,513.5,343.681l1.719-66.825H470.682l1.127-16.893c.576-8.657,4.354-15.992,10.634-20.645a22.642,22.642,0,0,1,17.5-4.241,25.776,25.776,0,0,1,16.074,10.531l.484-18.782a37.251,37.251,0,0,0-14.139-5.9,35.716,35.716,0,0,0-28.752,7.252c-9.718,7.587-15.544,19.291-16.409,32.952l-.993,15.719H437.195l-1.323,7.9-3.814,2.471h0l-5.343,52.135-4.571,27.264,1.323-.329-1.379.664-9.208,54.914,2.61,10.536,34.666-30.167Z" transform="translate(-412.88 -220.332)" fill="#4c4c4c" opacity="0.2"/>
            <g id="Group_1966" data-name="Group 1966" transform="translate(2.599 3.335)">
              <path id="Path_3710" data-name="Path 3710" d="M516.273,319.34c-.093,0-.19-.005-.283-.01a4.326,4.326,0,0,1-4.179-4.5l2.893-43.344c.741-11.113,5.734-20.635,14.057-26.8a31.8,31.8,0,0,1,24.624-5.9c15.807,2.759,28.108,17.227,29.251,34.393l2.779,41.655a4.32,4.32,0,0,1-4.179,4.5,4.37,4.37,0,0,1-4.746-3.968l-2.779-41.655c-.875-13.12-10.3-24.546-21.942-26.58a22.637,22.637,0,0,0-17.5,4.241c-6.285,4.653-10.057,11.988-10.634,20.645l-2.893,43.344A4.4,4.4,0,0,1,516.273,319.34Z" transform="translate(-463.485 -232.386)" fill="#a4a4a4"/>
              <g id="Group_1963" data-name="Group 1963" transform="translate(140.932 56.519)">
                <path id="Path_3711" data-name="Path 3711" d="M691.74,341.206l3.793-4.586,25.524,152.215-5.6,2.429Z" transform="translate(-691.74 -336.62)" fill="silver"/>
                <path id="Path_3712" data-name="Path 3712" d="M723.878,501.043l-2.795,21.582L709.09,356.77Z" transform="translate(-700.16 -346.399)" fill="#9e9e9e"/>
                <path id="Path_3713" data-name="Path 3713" d="M740.785,632.35l-8.395,24.011,2.795-21.582Z" transform="translate(-711.467 -480.135)" fill="#b0b0b0"/>
              </g>
              <g id="Group_1964" data-name="Group 1964" transform="translate(0 56.519)">
                <path id="Path_3714" data-name="Path 3714" d="M447.248,341.206l-3.793-4.586L417.93,488.835l5.6,2.429Z" transform="translate(-417.93 -336.62)" fill="silver"/>
                <path id="Path_3715" data-name="Path 3715" d="M428.81,501.043l2.795,21.582L443.6,356.77Z" transform="translate(-423.21 -346.399)" fill="#9e9e9e"/>
                <path id="Path_3716" data-name="Path 3716" d="M417.93,632.35l8.395,24.011-2.795-21.582Z" transform="translate(-417.93 -480.135)" fill="#b0b0b0"/>
              </g>
              <path id="Path_3717" data-name="Path 3717" d="M578.085,341.206l3.793-4.586h-119.2l3.793,4.586-8.93,5.785H587.015Z" transform="translate(-437.152 -280.101)" fill="#9b9b9b"/>
              <path id="Path_3718" data-name="Path 3718" d="M575.708,356.77H446.233L434.24,522.624H587.7Z" transform="translate(-425.845 -289.88)" fill="#cfcfcf"/>
              <g id="Group_1965" data-name="Group 1965" transform="translate(17.891 74.559)" opacity="0.4">
                <path id="Path_3719" data-name="Path 3719" d="M676.836,454.573a5.873,5.873,0,1,1-5.873-5.873A5.874,5.874,0,0,1,676.836,454.573Z" transform="translate(-555.766 -409.052)" fill="#cfcfcf"/>
                <path id="Path_3720" data-name="Path 3720" d="M667.146,589.833a5.873,5.873,0,1,1-5.873-5.873A5.874,5.874,0,0,1,667.146,589.833Z" transform="translate(-551.063 -474.693)" fill="#cfcfcf"/>
                <path id="Path_3721" data-name="Path 3721" d="M536.786,377.543a5.873,5.873,0,1,1-5.873-5.873A5.874,5.874,0,0,1,536.786,377.543Z" transform="translate(-487.801 -371.67)" fill="#cfcfcf"/>
                <circle id="Ellipse_153" data-name="Ellipse 153" cx="8.637" cy="8.637" r="8.637" transform="translate(40.348 127.967)" fill="#cfcfcf"/>
                <circle id="Ellipse_154" data-name="Ellipse 154" cx="4.288" cy="4.288" r="4.288" transform="translate(105.922 67.422)" fill="#cfcfcf"/>
                <circle id="Ellipse_155" data-name="Ellipse 155" cx="4.288" cy="4.288" r="4.288" transform="translate(7.494 145.168)" fill="#cfcfcf"/>
                <circle id="Ellipse_156" data-name="Ellipse 156" cx="4.288" cy="4.288" r="4.288" transform="translate(75.935 57.544)" fill="#cfcfcf"/>
                <circle id="Ellipse_157" data-name="Ellipse 157" cx="4.288" cy="4.288" r="4.288" transform="translate(9.481 67.422)" fill="#cfcfcf"/>
                <circle id="Ellipse_158" data-name="Ellipse 158" cx="4.288" cy="4.288" r="4.288" transform="translate(11.782 35.299)" fill="#cfcfcf"/>
                <circle id="Ellipse_159" data-name="Ellipse 159" cx="4.288" cy="4.288" r="4.288" transform="translate(80.228 100.687)" fill="#cfcfcf"/>
                <path id="Path_3722" data-name="Path 3722" d="M588.935,528.238a4.288,4.288,0,1,1-4.288-4.288A4.288,4.288,0,0,1,588.935,528.238Z" transform="translate(-514.647 -445.57)" fill="#cfcfcf"/>
                <circle id="Ellipse_160" data-name="Ellipse 160" cx="4.288" cy="4.288" r="4.288" transform="translate(46.741 94.804)" fill="#cfcfcf"/>
                <circle id="Ellipse_161" data-name="Ellipse 161" cx="5.935" cy="5.935" r="5.935" transform="translate(37.172 51.61)" fill="#cfcfcf"/>
                <circle id="Ellipse_162" data-name="Ellipse 162" cx="5.935" cy="5.935" r="5.935" transform="translate(78.581 33.652)" fill="#cfcfcf"/>
                <circle id="Ellipse_163" data-name="Ellipse 163" cx="5.935" cy="5.935" r="5.935" transform="translate(120.102 88.87)" fill="#cfcfcf"/>
                <circle id="Ellipse_164" data-name="Ellipse 164" cx="5.935" cy="5.935" r="5.935" transform="translate(90.45 137.648)" fill="#cfcfcf"/>
                <circle id="Ellipse_165" data-name="Ellipse 165" cx="5.935" cy="5.935" r="5.935" transform="translate(115.197 1.534)" fill="#cfcfcf"/>
                <path id="Path_3723" data-name="Path 3723" d="M582.838,410.389a3.469,3.469,0,1,1-3.469-3.469A3.471,3.471,0,0,1,582.838,410.389Z" transform="translate(-512.483 -388.776)" fill="#cfcfcf"/>
                <path id="Path_3724" data-name="Path 3724" d="M457.683,581.606a2.5,2.5,0,1,1-2.5-2.5A2.5,2.5,0,0,1,457.683,581.606Z" transform="translate(-452.69 -472.339)" fill="#cfcfcf"/>
                <circle id="Ellipse_166" data-name="Ellipse 166" cx="3.469" cy="3.469" r="3.469" transform="translate(126.037 134.174)" fill="#cfcfcf"/>
                <path id="Path_3725" data-name="Path 3725" d="M516.418,593.459a3.469,3.469,0,1,1-3.469-3.469A3.471,3.471,0,0,1,516.418,593.459Z" transform="translate(-480.25 -477.619)" fill="#cfcfcf"/>
              </g>
              <circle id="Ellipse_167" data-name="Ellipse 167" cx="8.812" cy="8.812" r="8.812" transform="translate(114.08 86.31)" fill="#9b9b9b"/>
              <path id="Path_3726" data-name="Path 3726" d="M509.984,403.312a8.812,8.812,0,1,1-8.812-8.812A8.812,8.812,0,0,1,509.984,403.312Z" transform="translate(-454.05 -308.19)" fill="#9b9b9b"/>
              <path id="Path_3727" data-name="Path 3727" d="M505.044,326.453c-.108,0-.221-.005-.335-.01a5.215,5.215,0,0,1-4.879-5.538l3.376-53.293c.865-13.665,6.691-25.365,16.409-32.952a35.711,35.711,0,0,1,28.752-7.252c18.457,3.392,32.818,21.18,34.151,42.288l3.243,51.213a5.219,5.219,0,0,1-10.418.659L572.1,270.355c-1.019-16.131-12.034-30.177-25.622-32.679a25.423,25.423,0,0,0-20.434,5.214c-7.335,5.724-11.74,14.741-12.415,25.38l-3.376,53.293A5.227,5.227,0,0,1,505.044,326.453Z" transform="translate(-457.67 -226.812)" fill="#b9b9b9"/>
            </g>
          </g>
        </g>
        <g id="Group_1969" data-name="Group 1969" transform="translate(233.647 170.425)">
          <path id="Path_3728" data-name="Path 3728" d="M564.7,535a25.447,25.447,0,1,0-25.447-25.447A25.477,25.477,0,0,0,564.7,535Zm-3.685-38.413a3.685,3.685,0,0,1,7.371,0v9.28h9.28a3.685,3.685,0,0,1,0,7.371h-9.28v9.28a3.685,3.685,0,0,1-7.371,0v-9.28h-9.28a3.685,3.685,0,0,1,0-7.371h9.28Z" transform="translate(-522.26 -467.125)" fill="#4c4c4c"/>
          <path id="Path_3729" data-name="Path 3729" d="M548.678,451.11A42.226,42.226,0,0,0,533.8,453.8a12.875,12.875,0,0,1,3.541,6.552,35.12,35.12,0,1,1-18.18,14.263,13.006,13.006,0,0,1-5.523-4.987,42.425,42.425,0,1,0,35.036-18.519Z" transform="translate(-506.24 -451.11)" fill="#4c4c4c"/>
          <circle id="Ellipse_168" data-name="Ellipse 168" cx="7.021" cy="7.021" r="7.021" transform="translate(11.432 4.818)" fill="#4c4c4c"/>
        </g>
      </g>
    </g>
  </g>
</svg>
