<svg xmlns="http://www.w3.org/2000/svg" xmlns:xlink="http://www.w3.org/1999/xlink" width="458" height="458" viewBox="0 0 458 458">
  <defs>
    <linearGradient id="linear-gradient" x1="0.865" y1="0.178" x2="0.152" y2="0.822" gradientUnits="objectBoundingBox">
      <stop offset="0" stop-color="#fdb819"/>
      <stop offset="1" stop-color="#fff"/>
    </linearGradient>
  </defs>
  <g id="Group_2054" data-name="Group 2054" transform="translate(-408 -297)">
    <circle id="Ellipse_8" data-name="Ellipse 8" cx="229" cy="229" r="229" transform="translate(408 755) rotate(-90)" fill="url(#linear-gradient)"/>
    <g id="Group_1999" data-name="Group 1999" transform="translate(0 1)">
      <g id="Create_Your_Store" data-name="Create Your Store" transform="translate(455.449 349.675)">
        <g id="OBJECTS" transform="translate(-5.449 51.325)">
          <g id="Group_1682" data-name="Group 1682">
            <path id="Path_2924" data-name="Path 2924" d="M588.018,493.9a28.46,28.46,0,0,0-28.458,28.458v37.287h56.916V522.358A28.461,28.461,0,0,0,588.018,493.9Z" transform="translate(-280.553 -315.277)" fill="#9b9b9b"/>
            <circle id="Ellipse_139" data-name="Ellipse 139" cx="19.878" cy="19.878" r="19.878" transform="translate(322.185 201.039)" fill="#a9a9a9"/>
            <circle id="Ellipse_140" data-name="Ellipse 140" cx="13.223" cy="13.223" r="13.223" transform="translate(9.297 214.337)" fill="#b9b9b9"/>
            <circle id="Ellipse_141" data-name="Ellipse 141" cx="27.319" cy="27.319" r="27.319" transform="translate(24.538 186.168)" fill="#a9a9a9"/>
            <rect id="Rectangle_153" data-name="Rectangle 153" width="373.505" height="15.189" transform="translate(0 233.475)" fill="#f4f4f4"/>
            <g id="Group_1680" data-name="Group 1680" transform="translate(56.031 58.604)">
              <rect id="Rectangle_154" data-name="Rectangle 154" width="248.323" height="155.866" transform="translate(6.557 18.999)" fill="#8b8b8b"/>
              <path id="Path_2925" data-name="Path 2925" d="M598.682,572.46H575v9.43h26.406v-6.707A2.724,2.724,0,0,0,598.682,572.46Z" transform="translate(-343.097 -407.019)" fill="#fefefe"/>
              <g id="Group_1665" data-name="Group 1665" transform="translate(162.133 62.137)">
                <rect id="Rectangle_155" data-name="Rectangle 155" width="69.769" height="112.728" fill="#656565"/>
                <rect id="Rectangle_156" data-name="Rectangle 156" width="61.478" height="104.443" transform="translate(4.146 4.146)" fill="#dbdbdb"/>
                <g id="Group_1663" data-name="Group 1663" transform="translate(4.146 4.146)">
                  <path id="Path_2926" data-name="Path 2926" d="M544.3,426.8v6.406L512.05,400.96h6.406Z" transform="translate(-482.823 -400.96)" fill="#ebebeb"/>
                  <path id="Path_2927" data-name="Path 2927" d="M522.978,509.708v6.4L461.5,454.63v-6.4Z" transform="translate(-461.5 -420.899)" fill="#ebebeb"/>
                  <path id="Path_2928" data-name="Path 2928" d="M532.469,436.616v12.813L484,400.96h12.813Z" transform="translate(-470.991 -400.96)" fill="#ebebeb"/>
                </g>
                <rect id="Rectangle_157" data-name="Rectangle 157" width="61.478" height="2.214" transform="translate(4.146 4.146)" fill="#4c4c4c" opacity="0.2"/>
                <path id="Path_2929" data-name="Path 2929" d="M454.33,545.32v25.122h25.122Z" transform="translate(-454.33 -457.708)" fill="#4c4c4c" opacity="0.4"/>
                <g id="Group_1664" data-name="Group 1664" transform="translate(8.944 46.405)">
                  <path id="Path_2930" data-name="Path 2930" d="M475.1,476.7a2.648,2.648,0,1,1-2.648-2.648A2.648,2.648,0,0,1,475.1,476.7Z" transform="translate(-469.8 -474.05)" fill="#fdfdfd"/>
                  <path id="Path_2931" data-name="Path 2931" d="M475.1,509.528a2.648,2.648,0,1,1-2.648-2.648A2.648,2.648,0,0,1,475.1,509.528Z" transform="translate(-469.8 -487.898)" fill="#fdfdfd"/>
                  <path id="Path_2932" data-name="Path 2932" d="M473.271,475.04a1.522,1.522,0,0,0-1.521,1.521v20.092a1.521,1.521,0,1,0,3.041,0V476.561A1.53,1.53,0,0,0,473.271,475.04Z" transform="translate(-470.623 -474.468)" fill="#fefefe"/>
                </g>
              </g>
              <path id="Path_2933" data-name="Path 2933" d="M338.33,572.46H182.053a2.724,2.724,0,0,0-2.723,2.723v6.707h159Z" transform="translate(-176.196 -407.019)" fill="#fefefe"/>
              <rect id="Rectangle_158" data-name="Rectangle 158" width="248.947" height="4.568" transform="translate(6.25 9.141)" fill="#fbfbfb"/>
              <rect id="Rectangle_159" data-name="Rectangle 159" width="248.947" height="4.568" transform="translate(6.25)" fill="#fbfbfb"/>
              <rect id="Rectangle_160" data-name="Rectangle 160" width="242.836" height="4.568" transform="translate(9.303 4.568)" fill="#8b8b8b"/>
              <rect id="Rectangle_161" data-name="Rectangle 161" width="242.836" height="2.284" transform="translate(9.303 4.568)" fill="#4c4c4c" opacity="0.4"/>
              <g id="Group_1666" data-name="Group 1666" transform="translate(210.036 43.861)">
                <rect id="Rectangle_162" data-name="Rectangle 162" width="13.928" height="5.418" transform="translate(0 9.014)" fill="#797979"/>
                <rect id="Rectangle_163" data-name="Rectangle 163" width="13.928" height="5.418" transform="translate(17.594 9.014)" fill="#797979"/>
                <rect id="Rectangle_164" data-name="Rectangle 164" width="13.928" height="5.418" transform="translate(8.852)" fill="#797979"/>
              </g>
              <g id="Group_1667" data-name="Group 1667" transform="translate(234.591 119.868)">
                <rect id="Rectangle_165" data-name="Rectangle 165" width="13.928" height="5.418" transform="translate(0 9.02)" fill="#797979"/>
                <rect id="Rectangle_166" data-name="Rectangle 166" width="13.928" height="5.418" transform="translate(8.852)" fill="#797979"/>
              </g>
              <g id="Group_1668" data-name="Group 1668" transform="translate(29.551 43.861)">
                <rect id="Rectangle_167" data-name="Rectangle 167" width="13.928" height="5.418" transform="translate(0 9.014)" fill="#797979"/>
                <rect id="Rectangle_168" data-name="Rectangle 168" width="13.928" height="5.418" transform="translate(17.588 9.014)" fill="#797979"/>
                <rect id="Rectangle_169" data-name="Rectangle 169" width="13.928" height="5.418" transform="translate(8.852)" fill="#797979"/>
                <rect id="Rectangle_170" data-name="Rectangle 170" width="13.928" height="5.418" transform="translate(26.44)" fill="#797979"/>
              </g>
              <g id="Group_1669" data-name="Group 1669" transform="translate(45.37 146.725)">
                <rect id="Rectangle_171" data-name="Rectangle 171" width="13.928" height="5.418" transform="translate(26.44 9.02)" fill="#797979"/>
                <rect id="Rectangle_172" data-name="Rectangle 172" width="13.928" height="5.418" transform="translate(78.39)" fill="#797979"/>
                <rect id="Rectangle_173" data-name="Rectangle 173" width="13.928" height="5.418" transform="translate(8.846 9.02)" fill="#797979"/>
                <rect id="Rectangle_174" data-name="Rectangle 174" width="13.928" height="5.418" transform="translate(17.588)" fill="#797979"/>
                <rect id="Rectangle_175" data-name="Rectangle 175" width="13.928" height="5.418" fill="#797979"/>
              </g>
              <g id="Group_1670" data-name="Group 1670" transform="translate(4.232 90.769)">
                <rect id="Rectangle_176" data-name="Rectangle 176" width="10.066" height="5.418" transform="translate(0 9.02)" fill="#797979"/>
                <rect id="Rectangle_177" data-name="Rectangle 177" width="10.066" height="5.418" transform="translate(6.395)" fill="#797979"/>
              </g>
              <g id="Group_1671" data-name="Group 1671" transform="translate(230.862 78.06)">
                <path id="Path_2934" data-name="Path 2934" d="M574.241,421.33a1.04,1.04,0,0,0-1.041,1.041V430.3a1.041,1.041,0,0,0,2.082,0v-7.927A1.044,1.044,0,0,0,574.241,421.33Z" transform="translate(-573.2 -421.33)" fill="#fefefe"/>
                <path id="Path_2935" data-name="Path 2935" d="M574.241,543.92a1.04,1.04,0,0,0-1.041,1.041v7.927a1.041,1.041,0,0,0,2.082,0v-7.927A1.04,1.04,0,0,0,574.241,543.92Z" transform="translate(-573.2 -473.041)" fill="#fefefe"/>
              </g>
              <rect id="Rectangle_178" data-name="Rectangle 178" width="6.967" height="5.418" transform="translate(120.614 52.875)" fill="#797979"/>
              <rect id="Rectangle_179" data-name="Rectangle 179" width="6.967" height="5.418" transform="translate(128.564 43.861)" fill="#797979"/>
              <rect id="Rectangle_180" data-name="Rectangle 180" width="13.928" height="5.418" transform="translate(109.924 43.861)" fill="#797979"/>
              <rect id="Rectangle_181" data-name="Rectangle 181" width="6.967" height="5.418" transform="translate(16.16 146.349)" fill="#797979"/>
              <rect id="Rectangle_182" data-name="Rectangle 182" width="13.928" height="5.418" transform="translate(4.313 137.329)" fill="#797979"/>
              <rect id="Rectangle_183" data-name="Rectangle 183" width="10.055" height="5.418" transform="translate(236.817 93.249)" fill="#797979"/>
              <rect id="Rectangle_184" data-name="Rectangle 184" width="7.031" height="5.418" transform="translate(144.308 76.279)" fill="#797979"/>
              <rect id="Rectangle_185" data-name="Rectangle 185" width="7.031" height="5.418" transform="translate(147.823 84.091)" fill="#797979"/>
              <g id="Group_1676" data-name="Group 1676" transform="translate(0 13.709)">
                <g id="Group_1672" data-name="Group 1672" transform="translate(29.054 10.586)">
                  <path id="Path_2936" data-name="Path 2936" d="M224.16,337.4a14.526,14.526,0,0,0,14.524,14.524h0A14.526,14.526,0,0,0,253.208,337.4v-9.06H224.16v9.06Z" transform="translate(-224.16 -328.34)" fill="#fdfdfd"/>
                  <path id="Path_2937" data-name="Path 2937" d="M324.64,337.4a14.526,14.526,0,0,0,14.524,14.524h0A14.526,14.526,0,0,0,353.688,337.4v-9.06H324.64Z" transform="translate(-266.544 -328.34)" fill="#fdfdfd"/>
                  <path id="Path_2938" data-name="Path 2938" d="M425.12,337.4a14.526,14.526,0,0,0,14.524,14.524h0A14.526,14.526,0,0,0,454.168,337.4v-9.06H425.12Z" transform="translate(-308.929 -328.34)" fill="#fdfdfd"/>
                  <path id="Path_2939" data-name="Path 2939" d="M525.6,328.34v9.06a14.526,14.526,0,0,0,14.524,14.524h0A14.526,14.526,0,0,0,554.648,337.4v-9.06Z" transform="translate(-351.313 -328.34)" fill="#fdfdfd"/>
                </g>
                <g id="Group_1673" data-name="Group 1673" transform="translate(29.054)">
                  <path id="Path_2940" data-name="Path 2940" d="M224.16,320.617h29.048l3.469-10.586h-27.66Z" transform="translate(-224.16 -310.03)" fill="#fefefe"/>
                  <path id="Path_2941" data-name="Path 2941" d="M324.64,320.617h29.048l.694-10.586h-27.66Z" transform="translate(-266.544 -310.03)" fill="#fefefe"/>
                  <path id="Path_2942" data-name="Path 2942" d="M423.92,310.03l.694,10.586h29.048L451.58,310.03Z" transform="translate(-308.423 -310.03)" fill="#fefefe"/>
                  <path id="Path_2943" data-name="Path 2943" d="M547.26,310.03H519.6l3.469,10.586h29.048Z" transform="translate(-348.782 -310.03)" fill="#fefefe"/>
                </g>
                <g id="Group_1674" data-name="Group 1674" transform="translate(0 10.586)">
                  <path id="Path_2944" data-name="Path 2944" d="M173.91,337.4a14.526,14.526,0,0,0,14.524,14.524h0A14.526,14.526,0,0,0,202.958,337.4v-9.06H173.91v9.06Z" transform="translate(-173.91 -328.34)" fill="#4c4c4c"/>
                  <path id="Path_2945" data-name="Path 2945" d="M274.4,337.4a14.526,14.526,0,0,0,14.524,14.524h0A14.526,14.526,0,0,0,303.448,337.4v-9.06H274.4Z" transform="translate(-216.299 -328.34)" fill="#4c4c4c"/>
                  <path id="Path_2946" data-name="Path 2946" d="M374.88,337.4a14.524,14.524,0,0,0,29.048,0v-9.06H374.88Z" transform="translate(-258.683 -328.34)" fill="#4c4c4c"/>
                  <path id="Path_2947" data-name="Path 2947" d="M475.36,337.4a14.526,14.526,0,0,0,14.524,14.524h0A14.526,14.526,0,0,0,504.408,337.4v-9.06H475.36Z" transform="translate(-301.067 -328.34)" fill="#4c4c4c"/>
                  <path id="Path_2948" data-name="Path 2948" d="M575.84,328.34v9.06a14.526,14.526,0,0,0,14.524,14.524h0A14.526,14.526,0,0,0,604.888,337.4v-9.06Z" transform="translate(-343.452 -328.34)" fill="#4c4c4c"/>
                </g>
                <g id="Group_1675" data-name="Group 1675" transform="translate(0)">
                  <path id="Path_2949" data-name="Path 2949" d="M173.91,320.617h29.054l4.857-10.586H180.16Z" transform="translate(-173.91 -310.03)" fill="#5a5a5a"/>
                  <path id="Path_2950" data-name="Path 2950" d="M274.4,320.617h29.048l2.081-10.586h-27.66Z" transform="translate(-216.299 -310.03)" fill="#5a5a5a"/>
                  <path id="Path_2951" data-name="Path 2951" d="M375.574,310.03l-.694,10.586h29.048l-.694-10.586Z" transform="translate(-258.683 -310.03)" fill="#5a5a5a"/>
                  <path id="Path_2952" data-name="Path 2952" d="M471.76,310.03l2.081,10.586h29.048L499.42,310.03Z" transform="translate(-299.549 -310.03)" fill="#5a5a5a"/>
                  <path id="Path_2953" data-name="Path 2953" d="M595.1,310.03H567.44l4.857,10.586H601.35Z" transform="translate(-339.909 -310.03)" fill="#5a5a5a"/>
                </g>
              </g>
              <rect id="Rectangle_186" data-name="Rectangle 186" width="7.383" height="5.418" transform="translate(9.262 62.137)" fill="#797979"/>
              <g id="Group_1679" data-name="Group 1679" transform="translate(19.97 63.293)">
                <g id="Group_1678" data-name="Group 1678" transform="translate(6.152)">
                  <rect id="Rectangle_187" data-name="Rectangle 187" width="118.186" height="71.694" fill="#656565"/>
                  <rect id="Rectangle_188" data-name="Rectangle 188" width="109.901" height="63.409" transform="translate(4.146 4.146)" fill="#dbdbdb"/>
                  <g id="Group_1677" data-name="Group 1677" transform="translate(40.82 4.146)">
                    <path id="Path_2954" data-name="Path 2954" d="M395.522,421.67v9.812L367,402.96h9.812Z" transform="translate(-322.301 -402.96)" fill="#ebebeb"/>
                    <path id="Path_2955" data-name="Path 2955" d="M389.954,434.211v4.9L353.8,402.96h4.909Z" transform="translate(-316.733 -402.96)" fill="#ebebeb"/>
                    <path id="Path_2956" data-name="Path 2956" d="M362.911,456.557v9.812H353.1L289.69,402.96h19.623Z" transform="translate(-289.69 -402.96)" fill="#ebebeb"/>
                  </g>
                  <rect id="Rectangle_189" data-name="Rectangle 189" width="109.901" height="2.214" transform="translate(4.146 4.146)" fill="#4c4c4c" opacity="0.2"/>
                </g>
                <rect id="Rectangle_190" data-name="Rectangle 190" width="130.49" height="13.489" transform="translate(0 71.694)" fill="#fff"/>
                <path id="Path_2957" data-name="Path 2957" d="M332.757,506.13H218.451a5.478,5.478,0,0,0-5.481,5.481v2.423H338.244v-2.423A5.486,5.486,0,0,0,332.757,506.13Z" transform="translate(-210.357 -442.334)" fill="#a9a9a9"/>
                <rect id="Rectangle_191" data-name="Rectangle 191" width="130.49" height="2.891" transform="translate(0 71.694)" fill="#fefefe"/>
                <path id="Path_2958" data-name="Path 2958" d="M338.227,515.13H212.982c-.006.093-.012.185-.012.278v2.423H338.244v-2.423C338.239,515.315,338.227,515.222,338.227,515.13Z" transform="translate(-210.357 -446.13)" fill="#b9b9b9"/>
                <path id="Path_2959" data-name="Path 2959" d="M350.613,531.463v28.21H234.838L208.45,533.285H338.94V519.79Z" transform="translate(-208.45 -448.096)" fill="#4c4c4c" opacity="0.4"/>
              </g>
            </g>
            <path id="Path_2960" data-name="Path 2960" d="M429.385,184.96H172.858a7.269,7.269,0,0,0-7.268,7.268v39.628a7.269,7.269,0,0,0,7.268,7.268H429.391a7.269,7.269,0,0,0,7.268-7.268V192.228A7.271,7.271,0,0,0,429.385,184.96Z" transform="translate(-114.369 -184.96)" fill="#656565"/>
            <path id="Path_2961" data-name="Path 2961" d="M430.843,192.39h-253.3a4.674,4.674,0,0,0-4.672,4.672V233.3a4.674,4.674,0,0,0,4.672,4.672h253.3a4.673,4.673,0,0,0,4.672-4.672V197.062A4.674,4.674,0,0,0,430.843,192.39Z" transform="translate(-117.44 -188.094)" fill="#cbcbcb"/>
            <path id="Path_2962" data-name="Path 2962" d="M435.513,197.062v.52H172.88v-.52a4.67,4.67,0,0,1,4.672-4.672h253.3A4.669,4.669,0,0,1,435.513,197.062Z" transform="translate(-117.444 -188.094)" fill="#4c4c4c" opacity="0.2"/>
            <text id="STOR" transform="translate(118.933 37.248)" fill="#001327" font-size="31" font-family="ArialMT, Arial"><tspan x="0" y="0">STOR</tspan></text>
            <text id="E" transform="translate(214.027 36.248)" fill="#001327" font-size="30" font-family="ArialMT, Arial"><tspan x="0" y="0">E</tspan></text>
            <g id="Group_1681" data-name="Group 1681" transform="translate(80.309 54.17)">
              <rect id="Rectangle_192" data-name="Rectangle 192" width="4.336" height="4.435" fill="#4c4c4c"/>
              <rect id="Rectangle_193" data-name="Rectangle 193" width="4.336" height="4.435" transform="translate(208.55)" fill="#4c4c4c"/>
            </g>
          </g>
        </g>
      </g>
    </g>
  </g>
</svg>
