<svg xmlns="http://www.w3.org/2000/svg" xmlns:xlink="http://www.w3.org/1999/xlink" width="458" height="458" viewBox="0 0 458 458">
  <defs>
    <linearGradient id="linear-gradient" x1="0.865" y1="0.178" x2="0.152" y2="0.822" gradientUnits="objectBoundingBox">
      <stop offset="0" stop-color="#fdb819"/>
      <stop offset="1" stop-color="#fff"/>
    </linearGradient>
  </defs>
  <g id="Group_2055" data-name="Group 2055" transform="translate(-1051 -297)">
    <circle id="Ellipse_8" data-name="Ellipse 8" cx="229" cy="229" r="229" transform="translate(1051 755) rotate(-90)" fill="url(#linear-gradient)"/>
    <g id="Group_1998" data-name="Group 1998" transform="translate(0 0)">
      <g id="Create_Your_Store" data-name="Create Your Store" transform="translate(1098.449 352.675)">
        <g id="OBJECTS" transform="translate(-5.449 51.325)">
          <g id="Group_1682" data-name="Group 1682">
            <path id="Path_2924" data-name="Path 2924" d="M588.053,493.9c-15.734,0-28.493,12.505-28.493,27.926v36.591h56.986V521.826C616.546,506.405,603.787,493.9,588.053,493.9Z" transform="translate(-280.21 -318.613)" fill="#05101c"/>
            <ellipse id="Ellipse_139" data-name="Ellipse 139" cx="19.902" cy="19.507" rx="19.902" ry="19.507" transform="translate(322.581 197.285)" fill="#001327"/>
            <path id="Path_2963" data-name="Path 2963" d="M13.239,0A13.11,13.11,0,0,1,26.478,12.976,13.11,13.11,0,0,1,13.239,25.952,13.11,13.11,0,0,1,0,12.976,13.11,13.11,0,0,1,13.239,0Z" transform="translate(9.309 210.334)" fill="#001327"/>
            <ellipse id="Ellipse_141" data-name="Ellipse 141" cx="27.353" cy="26.809" rx="27.353" ry="26.809" transform="translate(24.568 182.692)" fill="#05101c"/>
            <rect id="Rectangle_153" data-name="Rectangle 153" width="373.964" height="14.905" transform="translate(0 229.115)" fill="#f4f4f4"/>
            <g id="Group_1680" data-name="Group 1680" transform="translate(56.1 57.51)">
              <rect id="Rectangle_154" data-name="Rectangle 154" width="248.628" height="152.955" transform="translate(6.565 18.644)" fill="#8b8b8b"/>
              <path id="Path_2925" data-name="Path 2925" d="M598.711,572.46H575v9.254h26.438v-6.582A2.7,2.7,0,0,0,598.711,572.46Z" transform="translate(-342.812 -410.109)" fill="#fefefe"/>
              <g id="Group_1665" data-name="Group 1665" transform="translate(162.333 60.977)">
                <rect id="Rectangle_155" data-name="Rectangle 155" width="69.855" height="110.623" fill="#001327"/>
                <rect id="Rectangle_156" data-name="Rectangle 156" width="61.554" height="102.492" transform="translate(4.151 4.068)" fill="#dbdbdb"/>
                <g id="Group_1663" data-name="Group 1663" transform="translate(4.151 4.068)">
                  <path id="Path_2926" data-name="Path 2926" d="M544.341,426.322v6.287L512.05,400.96h6.414Z" transform="translate(-482.787 -400.96)" fill="#ebebeb"/>
                  <path id="Path_2927" data-name="Path 2927" d="M523.053,508.56v6.281L461.5,454.511V448.23Z" transform="translate(-461.5 -421.41)" fill="#ebebeb"/>
                  <path id="Path_2928" data-name="Path 2928" d="M532.529,435.95v12.573L484,400.96h12.828Z" transform="translate(-470.975 -400.96)" fill="#ebebeb"/>
                </g>
                <rect id="Rectangle_157" data-name="Rectangle 157" width="61.554" height="2.173" transform="translate(4.151 4.068)" fill="#4c4c4c" opacity="0.2"/>
                <path id="Path_2929" data-name="Path 2929" d="M454.33,545.32v24.653h25.153Z" transform="translate(-454.33 -459.345)" fill="#4c4c4c" opacity="0.4"/>
                <g id="Group_1664" data-name="Group 1664" transform="translate(8.955 45.538)">
                  <path id="Path_2930" data-name="Path 2930" d="M475.1,476.649a2.652,2.652,0,1,1-2.651-2.6A2.625,2.625,0,0,1,475.1,476.649Z" transform="translate(-469.8 -474.05)" fill="#fdb819"/>
                  <path id="Path_2931" data-name="Path 2931" d="M475.1,509.479a2.652,2.652,0,1,1-2.651-2.6A2.625,2.625,0,0,1,475.1,509.479Z" transform="translate(-469.8 -488.253)" fill="#fdb819"/>
                  <path id="Path_2932" data-name="Path 2932" d="M473.272,475.04a1.509,1.509,0,0,0-1.523,1.492v19.716a1.523,1.523,0,0,0,3.045,0V476.532A1.517,1.517,0,0,0,473.272,475.04Z" transform="translate(-470.621 -474.478)" fill="#fdb819"/>
                </g>
              </g>
              <path id="Path_2933" data-name="Path 2933" d="M338.525,572.46H182.057a2.7,2.7,0,0,0-2.727,2.672v6.582h159.2Z" transform="translate(-176.192 -410.109)" fill="#fefefe"/>
              <rect id="Rectangle_158" data-name="Rectangle 158" width="249.253" height="4.482" transform="translate(6.258 8.97)" fill="#fbfbfb"/>
              <rect id="Rectangle_159" data-name="Rectangle 159" width="249.253" height="4.482" transform="translate(6.258)" fill="#fbfbfb"/>
              <rect id="Rectangle_160" data-name="Rectangle 160" width="243.134" height="4.482" transform="translate(9.314 4.482)" fill="#8b8b8b"/>
              <rect id="Rectangle_161" data-name="Rectangle 161" width="243.134" height="2.241" transform="translate(9.314 4.482)" fill="#4c4c4c" opacity="0.4"/>
              <g id="Group_1666" data-name="Group 1666" transform="translate(210.294 43.042)">
                <rect id="Rectangle_162" data-name="Rectangle 162" width="13.945" height="5.316" transform="translate(0 8.845)" fill="#797979"/>
                <rect id="Rectangle_163" data-name="Rectangle 163" width="13.945" height="5.316" transform="translate(17.616 8.845)" fill="#797979"/>
                <rect id="Rectangle_164" data-name="Rectangle 164" width="13.945" height="5.316" transform="translate(8.863)" fill="#797979"/>
              </g>
              <g id="Group_1667" data-name="Group 1667" transform="translate(234.879 117.63)">
                <rect id="Rectangle_165" data-name="Rectangle 165" width="13.945" height="5.316" transform="translate(0 8.851)" fill="#797979"/>
                <rect id="Rectangle_166" data-name="Rectangle 166" width="13.945" height="5.316" transform="translate(8.863)" fill="#797979"/>
              </g>
              <g id="Group_1668" data-name="Group 1668" transform="translate(29.587 43.042)">
                <rect id="Rectangle_167" data-name="Rectangle 167" width="13.945" height="5.316" transform="translate(0 8.845)" fill="#797979"/>
                <rect id="Rectangle_168" data-name="Rectangle 168" width="13.945" height="5.316" transform="translate(17.61 8.845)" fill="#797979"/>
                <rect id="Rectangle_169" data-name="Rectangle 169" width="13.945" height="5.316" transform="translate(8.863)" fill="#797979"/>
                <rect id="Rectangle_170" data-name="Rectangle 170" width="13.945" height="5.316" transform="translate(26.473)" fill="#797979"/>
              </g>
              <g id="Group_1669" data-name="Group 1669" transform="translate(45.426 143.985)">
                <rect id="Rectangle_171" data-name="Rectangle 171" width="13.945" height="5.316" transform="translate(26.473 8.851)" fill="#797979"/>
                <rect id="Rectangle_172" data-name="Rectangle 172" width="13.945" height="5.316" transform="translate(78.486)" fill="#797979"/>
                <rect id="Rectangle_173" data-name="Rectangle 173" width="13.945" height="5.316" transform="translate(8.857 8.851)" fill="#797979"/>
                <rect id="Rectangle_174" data-name="Rectangle 174" width="13.945" height="5.316" transform="translate(17.61)" fill="#797979"/>
                <rect id="Rectangle_175" data-name="Rectangle 175" width="13.945" height="5.316" fill="#797979"/>
              </g>
              <g id="Group_1670" data-name="Group 1670" transform="translate(4.237 89.073)">
                <rect id="Rectangle_176" data-name="Rectangle 176" width="10.078" height="5.316" transform="translate(0 8.851)" fill="#797979"/>
                <rect id="Rectangle_177" data-name="Rectangle 177" width="10.078" height="5.316" transform="translate(6.403)" fill="#797979"/>
              </g>
              <g id="Group_1671" data-name="Group 1671" transform="translate(231.146 76.602)">
                <path id="Path_2934" data-name="Path 2934" d="M574.242,421.33a1.031,1.031,0,0,0-1.042,1.021v7.779a1.042,1.042,0,0,0,2.084,0v-7.779A1.035,1.035,0,0,0,574.242,421.33Z" transform="translate(-573.2 -421.33)" fill="#fdb819"/>
                <path id="Path_2935" data-name="Path 2935" d="M574.242,543.92a1.031,1.031,0,0,0-1.042,1.021v7.779a1.042,1.042,0,0,0,2.084,0v-7.779A1.031,1.031,0,0,0,574.242,543.92Z" transform="translate(-573.2 -474.365)" fill="#fdb819"/>
              </g>
              <rect id="Rectangle_178" data-name="Rectangle 178" width="6.976" height="5.316" transform="translate(120.763 51.887)" fill="#797979"/>
              <rect id="Rectangle_179" data-name="Rectangle 179" width="6.976" height="5.316" transform="translate(128.722 43.042)" fill="#797979"/>
              <rect id="Rectangle_180" data-name="Rectangle 180" width="13.945" height="5.316" transform="translate(110.059 43.042)" fill="#797979"/>
              <rect id="Rectangle_181" data-name="Rectangle 181" width="6.976" height="5.316" transform="translate(16.18 143.616)" fill="#797979"/>
              <rect id="Rectangle_182" data-name="Rectangle 182" width="13.945" height="5.316" transform="translate(4.319 134.765)" fill="#797979"/>
              <rect id="Rectangle_183" data-name="Rectangle 183" width="10.067" height="5.316" transform="translate(237.108 91.507)" fill="#797979"/>
              <rect id="Rectangle_184" data-name="Rectangle 184" width="7.039" height="5.316" transform="translate(144.486 74.855)" fill="#797979"/>
              <rect id="Rectangle_185" data-name="Rectangle 185" width="7.039" height="5.316" transform="translate(148.005 82.52)" fill="#797979"/>
              <g id="Group_1676" data-name="Group 1676" transform="translate(0 13.453)">
                <g id="Group_1672" data-name="Group 1672" transform="translate(29.089 10.389)">
                  <path id="Path_2936" data-name="Path 2936" d="M224.16,337.231A14.4,14.4,0,0,0,238.7,351.483h0a14.4,14.4,0,0,0,14.542-14.253V328.34H224.16v8.891Z" transform="translate(-224.16 -328.34)" fill="#fdb819"/>
                  <path id="Path_2937" data-name="Path 2937" d="M324.64,337.231a14.4,14.4,0,0,0,14.542,14.253h0a14.4,14.4,0,0,0,14.542-14.253V328.34H324.64Z" transform="translate(-266.473 -328.34)" fill="#fdb819"/>
                  <path id="Path_2938" data-name="Path 2938" d="M425.12,337.231a14.4,14.4,0,0,0,14.542,14.253h0A14.4,14.4,0,0,0,454.2,337.231V328.34H425.12Z" transform="translate(-308.786 -328.34)" fill="#fdb819"/>
                  <path id="Path_2939" data-name="Path 2939" d="M525.6,328.34v8.891a14.4,14.4,0,0,0,14.542,14.253h0a14.4,14.4,0,0,0,14.542-14.253V328.34Z" transform="translate(-351.099 -328.34)" fill="#fdb819"/>
                </g>
                <g id="Group_1673" data-name="Group 1673" transform="translate(29.089)">
                  <path id="Path_2940" data-name="Path 2940" d="M224.16,320.419h29.083l3.473-10.389H229.023Z" transform="translate(-224.16 -310.03)" fill="#fdb819"/>
                  <path id="Path_2941" data-name="Path 2941" d="M324.64,320.419h29.083l.695-10.389H326.724Z" transform="translate(-266.473 -310.03)" fill="#fdb819"/>
                  <path id="Path_2942" data-name="Path 2942" d="M423.92,310.03l.695,10.389H453.7l-2.084-10.389Z" transform="translate(-308.281 -310.03)" fill="#fdb819"/>
                  <path id="Path_2943" data-name="Path 2943" d="M547.294,310.03H519.6l3.473,10.389h29.084Z" transform="translate(-348.572 -310.03)" fill="#fdb819"/>
                </g>
                <g id="Group_1674" data-name="Group 1674" transform="translate(0 10.389)">
                  <path id="Path_2944" data-name="Path 2944" d="M173.91,337.231a14.4,14.4,0,0,0,14.542,14.253h0a14.4,14.4,0,0,0,14.542-14.253V328.34H173.91v8.891Z" transform="translate(-173.91 -328.34)" fill="#001327"/>
                  <path id="Path_2945" data-name="Path 2945" d="M274.4,337.231a14.4,14.4,0,0,0,14.542,14.253h0a14.4,14.4,0,0,0,14.542-14.253V328.34H274.4Z" transform="translate(-216.227 -328.34)" fill="#001327"/>
                  <path id="Path_2946" data-name="Path 2946" d="M374.88,337.231a14.545,14.545,0,0,0,29.083,0V328.34H374.88Z" transform="translate(-258.54 -328.34)" fill="#001327"/>
                  <path id="Path_2947" data-name="Path 2947" d="M475.36,337.231A14.4,14.4,0,0,0,489.9,351.483h0a14.4,14.4,0,0,0,14.542-14.253V328.34H475.36Z" transform="translate(-300.853 -328.34)" fill="#001327"/>
                  <path id="Path_2948" data-name="Path 2948" d="M575.84,328.34v8.891a14.4,14.4,0,0,0,14.542,14.253h0a14.4,14.4,0,0,0,14.542-14.253V328.34Z" transform="translate(-343.166 -328.34)" fill="#001327"/>
                </g>
                <g id="Group_1675" data-name="Group 1675" transform="translate(0)">
                  <path id="Path_2949" data-name="Path 2949" d="M173.91,320.419H203l4.863-10.389H180.168Z" transform="translate(-173.91 -310.03)" fill="#001327"/>
                  <path id="Path_2950" data-name="Path 2950" d="M274.4,320.419h29.084l2.084-10.389H277.873Z" transform="translate(-216.227 -310.03)" fill="#001327"/>
                  <path id="Path_2951" data-name="Path 2951" d="M375.575,310.03l-.695,10.389h29.083l-.695-10.389Z" transform="translate(-258.54 -310.03)" fill="#001327"/>
                  <path id="Path_2952" data-name="Path 2952" d="M471.76,310.03l2.084,10.389h29.084l-3.473-10.389Z" transform="translate(-299.337 -310.03)" fill="#001327"/>
                  <path id="Path_2953" data-name="Path 2953" d="M595.134,310.03H567.44l4.863,10.389h29.089Z" transform="translate(-339.629 -310.03)" fill="#001327"/>
                </g>
              </g>
              <rect id="Rectangle_186" data-name="Rectangle 186" width="7.392" height="5.316" transform="translate(9.274 60.977)" fill="#797979"/>
              <g id="Group_1679" data-name="Group 1679" transform="translate(19.995 62.111)">
                <g id="Group_1678" data-name="Group 1678" transform="translate(6.159)">
                  <rect id="Rectangle_187" data-name="Rectangle 187" width="118.331" height="70.355" fill="#001327"/>
                  <rect id="Rectangle_188" data-name="Rectangle 188" width="110.036" height="62.225" transform="translate(4.151 4.068)" fill="#dbdbdb"/>
                  <g id="Group_1677" data-name="Group 1677" transform="translate(40.87 4.068)">
                    <path id="Path_2954" data-name="Path 2954" d="M395.557,421.32v9.629L367,402.96h9.824Z" transform="translate(-322.246 -402.96)" fill="#ebebeb"/>
                    <path id="Path_2955" data-name="Path 2955" d="M390,433.627v4.811L353.8,402.96h4.915Z" transform="translate(-316.687 -402.96)" fill="#ebebeb"/>
                    <path id="Path_2956" data-name="Path 2956" d="M363,455.556v9.628h-9.824L289.69,402.96h19.648Z" transform="translate(-289.69 -402.96)" fill="#ebebeb"/>
                  </g>
                  <rect id="Rectangle_189" data-name="Rectangle 189" width="110.036" height="2.173" transform="translate(4.151 4.068)" fill="#4c4c4c" opacity="0.2"/>
                </g>
                <rect id="Rectangle_190" data-name="Rectangle 190" width="130.65" height="13.237" transform="translate(0 70.355)" fill="#d59a13"/>
                <path id="Path_2957" data-name="Path 2957" d="M332.9,506.13H218.458a5.431,5.431,0,0,0-5.488,5.379v2.377H338.4v-2.377A5.44,5.44,0,0,0,332.9,506.13Z" transform="translate(-210.353 -443.525)" fill="#a9a9a9"/>
                <rect id="Rectangle_191" data-name="Rectangle 191" width="130.65" height="2.837" transform="translate(0 70.355)" fill="#fefefe"/>
                <path id="Path_2958" data-name="Path 2958" d="M338.381,515.13h-125.4c-.006.091-.012.182-.012.272v2.377H338.4V515.4C338.393,515.311,338.381,515.221,338.381,515.13Z" transform="translate(-210.353 -447.419)" fill="#b9b9b9"/>
                <path id="Path_2959" data-name="Path 2959" d="M350.788,531.245v27.683H234.871l-26.421-25.9H339.1V519.79Z" transform="translate(-208.45 -449.435)" fill="#4c4c4c" opacity="0.4"/>
              </g>
            </g>
            <path id="Path_2960" data-name="Path 2960" d="M429.709,184.96H172.867a7.207,7.207,0,0,0-7.277,7.132V230.98a7.207,7.207,0,0,0,7.277,7.132H429.715a7.207,7.207,0,0,0,7.277-7.132V192.092A7.208,7.208,0,0,0,429.709,184.96Z" transform="translate(-114.306 -184.96)" fill="#001327"/>
            <path id="Path_2961" data-name="Path 2961" d="M431.16,192.39H177.547a4.633,4.633,0,0,0-4.677,4.584v35.558a4.633,4.633,0,0,0,4.677,4.584H431.16a4.633,4.633,0,0,0,4.677-4.584V196.974A4.633,4.633,0,0,0,431.16,192.39Z" transform="translate(-117.372 -188.174)" fill="#fdb819"/>
            <path id="Path_2962" data-name="Path 2962" d="M435.836,196.974v.511H172.88v-.511a4.63,4.63,0,0,1,4.677-4.584H431.164A4.628,4.628,0,0,1,435.836,196.974Z" transform="translate(-117.376 -188.174)" fill="#4c4c4c" opacity="0.2"/>
            <text id="STOR" transform="translate(121.281 36.075)" fill="#001327" font-size="30" font-family="ArialMT, Arial"><tspan x="0" y="0">STOR</tspan></text>
            <text id="E" transform="translate(216.492 35.075)" fill="#001327" font-size="29" font-family="ArialMT, Arial"><tspan x="0" y="0">E</tspan></text>
            <g id="Group_1681" data-name="Group 1681" transform="translate(80.408 53.158)">
              <rect id="Rectangle_192" data-name="Rectangle 192" width="4.342" height="4.352" fill="#4c4c4c"/>
              <rect id="Rectangle_193" data-name="Rectangle 193" width="4.342" height="4.352" transform="translate(208.806)" fill="#4c4c4c"/>
            </g>
          </g>
        </g>
      </g>
    </g>
  </g>
</svg>
