<svg xmlns="http://www.w3.org/2000/svg" xmlns:xlink="http://www.w3.org/1999/xlink" width="458" height="458" viewBox="0 0 458 458">
  <defs>
    <linearGradient id="linear-gradient" x1="0.865" y1="0.178" x2="0.152" y2="0.822" gradientUnits="objectBoundingBox">
      <stop offset="0" stop-color="#fdb819"/>
      <stop offset="1" stop-color="#fff"/>
    </linearGradient>
  </defs>
  <g id="Group_2050" data-name="Group 2050" transform="translate(-380 -2622)">
    <circle id="Ellipse_8" data-name="Ellipse 8" cx="229" cy="229" r="229" transform="translate(380 3080) rotate(-90)" fill="url(#linear-gradient)"/>
    <g id="Group_2003" data-name="Group 2003" transform="translate(-12.927 -19.397)">
      <g id="Dismental_your_salvage_without_throwing_things_away" data-name="Dismental your salvage without throwing things away" transform="translate(422.559 2688.971)">
        <g id="Group_1934" data-name="Group 1934" transform="translate(10.368 67.426)">
          <g id="Group_1915" data-name="Group 1915" transform="translate(329.982 53.336)">
            <path id="Path_3413" data-name="Path 3413" d="M753.238,294.883v39.136a1.5,1.5,0,0,1-1.169,1.462,1.429,1.429,0,0,1-.329.04H734.327a1.5,1.5,0,0,1-1.5-1.5V294.883a1.5,1.5,0,0,1,1.5-1.5H751.74a1.77,1.77,0,0,1,.329.035A1.5,1.5,0,0,1,753.238,294.883Z" transform="translate(-705.648 -286.515)" fill="#949494"/>
            <g id="Group_1913" data-name="Group 1913" transform="translate(28.785 6.865)" opacity="0.85">
              <path id="Path_3414" data-name="Path 3414" d="M764.331,293.425v.7l-5.671,2v-2.737H764A1.42,1.42,0,0,1,764.331,293.425Z" transform="translate(-747.197 -293.384)" fill="#7b7b7b" opacity="0.41"/>
              <path id="Path_3415" data-name="Path 3415" d="M764.336,301.211l-5.666,2v-4l5.666-1.993Z" transform="translate(-747.201 -295.277)" fill="#7b7b7b" opacity="0.41"/>
              <path id="Path_3416" data-name="Path 3416" d="M764.336,311.487l-5.666,1.993v-3.992l5.666-2Z" transform="translate(-747.201 -300.352)" fill="#7b7b7b" opacity="0.41"/>
              <path id="Path_3417" data-name="Path 3417" d="M764.336,321.757l-5.666,1.993v-4l5.666-1.993Z" transform="translate(-747.201 -305.426)" fill="#7b7b7b" opacity="0.41"/>
              <path id="Path_3418" data-name="Path 3418" d="M764.336,332.027l-5.666,1.993v-3.991l5.666-2Z" transform="translate(-747.201 -310.501)" fill="#7b7b7b" opacity="0.41"/>
              <path id="Path_3419" data-name="Path 3419" d="M764.336,342.292l-5.666,2V340.3l5.666-2Z" transform="translate(-747.201 -315.575)" fill="#7b7b7b" opacity="0.41"/>
              <path id="Path_3420" data-name="Path 3420" d="M764.336,352.567l-5.666,2v-4l5.666-2Z" transform="translate(-747.201 -320.65)" fill="#7b7b7b" opacity="0.41"/>
              <path id="Path_3421" data-name="Path 3421" d="M764.336,362.837l-5.666,1.993v-3.992l5.666-2Z" transform="translate(-747.201 -325.724)" fill="#7b7b7b" opacity="0.41"/>
              <path id="Path_3422" data-name="Path 3422" d="M764.331,369.11V372.9a1.426,1.426,0,0,1-.329.04H758.66v-1.826Z" transform="translate(-747.197 -330.799)" fill="#7b7b7b" opacity="0.41"/>
              <rect id="Rectangle_203" data-name="Rectangle 203" width="1.31" height="42.136" transform="translate(9.035)" fill="#7b7b7b" opacity="0.41"/>
              <path id="Path_3423" data-name="Path 3423" d="M741.671,293.38v2.737l-5.671-2v-.734Z" transform="translate(-736 -293.38)" fill="#7b7b7b" opacity="0.41"/>
              <path id="Path_3424" data-name="Path 3424" d="M736,301.211l5.666,2v-4L736,297.22Z" transform="translate(-736 -295.277)" fill="#7b7b7b" opacity="0.41"/>
              <path id="Path_3425" data-name="Path 3425" d="M736,311.487l5.666,1.993v-3.992l-5.666-2Z" transform="translate(-736 -300.352)" fill="#7b7b7b" opacity="0.41"/>
              <path id="Path_3426" data-name="Path 3426" d="M736,321.757l5.666,1.993v-4L736,317.76Z" transform="translate(-736 -305.426)" fill="#7b7b7b" opacity="0.41"/>
              <path id="Path_3427" data-name="Path 3427" d="M736,332.027l5.666,1.993v-3.991l-5.666-2Z" transform="translate(-736 -310.501)" fill="#7b7b7b" opacity="0.41"/>
              <path id="Path_3428" data-name="Path 3428" d="M736,342.292l5.666,2V340.3l-5.666-2Z" transform="translate(-736 -315.575)" fill="#7b7b7b" opacity="0.41"/>
              <path id="Path_3429" data-name="Path 3429" d="M736,352.567l5.666,2v-4l-5.666-2Z" transform="translate(-736 -320.65)" fill="#7b7b7b" opacity="0.41"/>
              <path id="Path_3430" data-name="Path 3430" d="M736,362.837l5.666,1.993v-3.992l-5.666-2Z" transform="translate(-736 -325.724)" fill="#7b7b7b" opacity="0.41"/>
              <path id="Path_3431" data-name="Path 3431" d="M736,372.94v-3.83l5.671,2v1.826Z" transform="translate(-736 -330.799)" fill="#7b7b7b" opacity="0.41"/>
              <rect id="Rectangle_204" data-name="Rectangle 204" width="1.31" height="42.136" transform="translate(6.789)" fill="#7b7b7b" opacity="0.41"/>
            </g>
            <rect id="Rectangle_205" data-name="Rectangle 205" width="2.277" height="25.113" transform="translate(24.9 15.379)" fill="#c9c9c9"/>
            <rect id="Rectangle_206" data-name="Rectangle 206" width="25.462" height="6.632" transform="translate(0 24.617)" fill="#c9c9c9"/>
            <path id="Path_3432" data-name="Path 3432" d="M705.621,303.466a2.353,2.353,0,0,1-2.2,2.484h0a2.353,2.353,0,0,1-2.2-2.484V282.289a2.348,2.348,0,0,1,2.2-2.479h0a2.348,2.348,0,0,1,2.2,2.479Z" transform="translate(-690.034 -279.81)" fill="#c9c9c9"/>
            <g id="Group_1914" data-name="Group 1914" transform="translate(8.509 1.745)">
              <path id="Path_3433" data-name="Path 3433" d="M705.37,321.026a.916.916,0,0,1-.916.916h-7.619a.916.916,0,0,1-.916-.916h0a.916.916,0,0,1,.916-.916h7.619a.922.922,0,0,1,.916.916Z" transform="translate(-695.92 -301.468)" fill="#959595"/>
              <path id="Path_3434" data-name="Path 3434" d="M705.455,318.67a.918.918,0,0,1-1.174.551l-7.163-2.58a.92.92,0,0,1-.551-1.174h0a.91.91,0,0,1,1.169-.551l7.168,2.58a.92.92,0,0,1,.551,1.174Z" transform="translate(-696.213 -298.875)" fill="#959595"/>
              <path id="Path_3435" data-name="Path 3435" d="M705.37,315.766a.915.915,0,0,1-.916.916h-7.619a.916.916,0,0,1-.916-.916h0a.916.916,0,0,1,.916-.916h7.619a.915.915,0,0,1,.916.916Z" transform="translate(-695.92 -298.869)" fill="#959595"/>
              <path id="Path_3436" data-name="Path 3436" d="M705.455,313.405a.918.918,0,0,1-1.174.551l-7.163-2.585a.918.918,0,0,1-.551-1.174h0a.91.91,0,0,1,1.169-.551l7.168,2.58a.927.927,0,0,1,.551,1.179Z" transform="translate(-696.213 -296.271)" fill="#959595"/>
              <path id="Path_3437" data-name="Path 3437" d="M705.37,310.5a.916.916,0,0,1-.916.916h-7.619a.916.916,0,0,1-.916-.916h0a.911.911,0,0,1,.916-.911h7.619a.914.914,0,0,1,.916.911Z" transform="translate(-695.92 -296.27)" fill="#959595"/>
              <path id="Path_3438" data-name="Path 3438" d="M705.455,308.145a.911.911,0,0,1-1.174.546l-7.163-2.58a.918.918,0,0,1-.551-1.174h0a.91.91,0,0,1,1.169-.551l7.168,2.58a.925.925,0,0,1,.551,1.179Z" transform="translate(-696.213 -293.672)" fill="#959595"/>
              <path id="Path_3439" data-name="Path 3439" d="M705.37,305.236a.916.916,0,0,1-.916.916h-7.619a.916.916,0,0,1-.916-.916h0a.916.916,0,0,1,.916-.916h7.619a.915.915,0,0,1,.916.916Z" transform="translate(-695.92 -293.666)" fill="#959595"/>
              <path id="Path_3440" data-name="Path 3440" d="M705.455,302.885a.911.911,0,0,1-1.174.546l-7.163-2.58a.916.916,0,0,1-.551-1.174h0a.91.91,0,0,1,1.169-.551l7.168,2.58a.923.923,0,0,1,.551,1.179Z" transform="translate(-696.213 -291.073)" fill="#959595"/>
              <path id="Path_3441" data-name="Path 3441" d="M705.37,299.971a.916.916,0,0,1-.916.916h-7.619a.916.916,0,0,1-.916-.916h0a.92.92,0,0,1,.916-.921h7.619a.917.917,0,0,1,.916.921Z" transform="translate(-695.92 -291.062)" fill="#959595"/>
              <path id="Path_3442" data-name="Path 3442" d="M705.455,297.615a.922.922,0,0,1-1.174.551l-7.163-2.585a.918.918,0,0,1-.551-1.174h0a.91.91,0,0,1,1.169-.551l7.168,2.58a.925.925,0,0,1,.551,1.179Z" transform="translate(-696.213 -288.469)" fill="#959595"/>
              <path id="Path_3443" data-name="Path 3443" d="M705.37,294.706a.92.92,0,0,1-.916.921h-7.619a.92.92,0,0,1-.916-.921h0a.915.915,0,0,1,.916-.916h7.619a.915.915,0,0,1,.916.916Z" transform="translate(-695.92 -288.463)" fill="#959595"/>
              <path id="Path_3444" data-name="Path 3444" d="M705.455,292.348a.918.918,0,0,1-1.174.551l-7.163-2.585a.914.914,0,0,1-.551-1.169h0a.917.917,0,0,1,1.169-.556l7.168,2.585a.918.918,0,0,1,.551,1.174Z" transform="translate(-696.213 -285.867)" fill="#959595"/>
              <path id="Path_3445" data-name="Path 3445" d="M705.37,289.436a.92.92,0,0,1-.916.921h-7.619a.917.917,0,0,1-.916-.921h0a.915.915,0,0,1,.916-.916h7.619a.922.922,0,0,1,.916.916Z" transform="translate(-695.92 -285.859)" fill="#959595"/>
              <path id="Path_3446" data-name="Path 3446" d="M705.455,287.09a.918.918,0,0,1-1.174.551l-7.163-2.58a.922.922,0,0,1-.551-1.174h0a.91.91,0,0,1,1.169-.551l7.168,2.58a.916.916,0,0,1,.551,1.174Z" transform="translate(-696.213 -283.271)" fill="#959595"/>
              <path id="Path_3447" data-name="Path 3447" d="M705.37,284.176a.915.915,0,0,1-.916.916h-7.619a.915.915,0,0,1-.916-.916h0a.916.916,0,0,1,.916-.916h7.619a.916.916,0,0,1,.916.916Z" transform="translate(-695.92 -283.26)" fill="#959595"/>
            </g>
          </g>
          <g id="Group_1916" data-name="Group 1916" transform="translate(283.323 22.133)">
            <rect id="Rectangle_207" data-name="Rectangle 207" width="41.847" height="28.502" transform="translate(2.094 8.413)" fill="#fbfbfb"/>
            <rect id="Rectangle_208" data-name="Rectangle 208" width="45.561" height="3.207" transform="translate(0 5.206)" fill="#7b7b7b"/>
            <path id="Path_3448" data-name="Path 3448" d="M602.837,220.563v2.777H597.97v-2.777a2.433,2.433,0,0,1,4.867,0Z" transform="translate(-592.354 -218.13)" fill="#9b9b9b"/>
            <path id="Path_3449" data-name="Path 3449" d="M660.827,220.563v2.777H655.96v-2.777a2.431,2.431,0,0,1,2.433-2.433,2.4,2.4,0,0,1,1.72.713A2.375,2.375,0,0,1,660.827,220.563Z" transform="translate(-621.008 -218.13)" fill="#c9c9c9"/>
            <path id="Path_3450" data-name="Path 3450" d="M607.688,252.2v2.236h-3.076v3.071h-2.231v-3.071H599.3V252.2h3.081V249.13h2.231V252.2Z" transform="translate(-593.012 -233.447)" fill="#9b9b9b"/>
            <rect id="Rectangle_209" data-name="Rectangle 209" width="8.388" height="2.231" transform="translate(31.436 18.753)" fill="#c9c9c9"/>
            <path id="Path_3451" data-name="Path 3451" d="M632.469,246.11l-5.939,6.85h2.858L626.53,258.6l6.43-7.386-2.686.066Z" transform="translate(-606.466 -231.955)" fill="#c6c6c6"/>
            <rect id="Rectangle_210" data-name="Rectangle 210" width="41.847" height="2.373" transform="translate(2.094 8.413)" fill="#aeaeae" opacity="0.42"/>
          </g>
          <path id="Path_3452" data-name="Path 3452" d="M429.633,206.958H407.106l.339-.233-3.85-5.59a0,0,0,0,0-.005-.005h4.6v5.717h20.453V201.13h4.614a0,0,0,0,1-.005.005l-3.85,5.59.339.233Z" transform="translate(-212.987 -187.597)" fill="#9e9e9e" opacity="0.7"/>
          <g id="Group_1917" data-name="Group 1917" transform="translate(153.587)">
            <path id="Path_3453" data-name="Path 3453" d="M428.827,218.839l-20.352,52.067H377.762l-11.1-28.416L359.2,223.413l-1.786-4.573,11.109-11.109h49.193Z" transform="translate(-343.756 -190.858)" fill="#d8d8d8"/>
            <rect id="Rectangle_211" data-name="Rectangle 211" width="27.338" height="1.538" transform="translate(40.454 63.271) rotate(-22.135)" fill="#7b7b7b"/>
            <rect id="Rectangle_212" data-name="Rectangle 212" width="1.543" height="29.392" transform="translate(34.834 27.821) rotate(-77.679)" fill="#7b7b7b"/>
            <rect id="Rectangle_213" data-name="Rectangle 213" width="1.543" height="27.313" transform="translate(25.949 34.549) rotate(-16.775)" fill="#7b7b7b"/>
            <path id="Path_3454" data-name="Path 3454" d="M451.488,249.554a11.944,11.944,0,1,1-11.944-11.944A11.944,11.944,0,0,1,451.488,249.554Z" transform="translate(-378.437 -205.622)" fill="#fff"/>
            <path id="Path_3455" data-name="Path 3455" d="M396.559,233.13a7.7,7.7,0,1,1-7.7-7.7A7.7,7.7,0,0,1,396.559,233.13Z" transform="translate(-355.491 -199.604)" fill="#fff"/>
            <path id="Path_3456" data-name="Path 3456" d="M408.946,284.523a6.283,6.283,0,1,1-6.283-6.283A6.286,6.286,0,0,1,408.946,284.523Z" transform="translate(-363.011 -225.698)" fill="#fff"/>
            <path id="Path_3457" data-name="Path 3457" d="M451.3,257.425a3.883,3.883,0,1,1-3.88-3.885A3.882,3.882,0,0,1,451.3,257.425Z" transform="translate(-386.308 -213.493)" fill="#aeaeae" opacity="0.37"/>
            <path id="Path_3458" data-name="Path 3458" d="M396.435,238.357a2.347,2.347,0,1,1-2.347-2.347A2.349,2.349,0,0,1,396.435,238.357Z" transform="translate(-360.718 -204.832)" fill="#aeaeae" opacity="0.37"/>
            <path id="Path_3459" data-name="Path 3459" d="M408.845,288.768a1.938,1.938,0,1,1-1.938-1.938A1.934,1.934,0,0,1,408.845,288.768Z" transform="translate(-367.255 -229.942)" fill="#aeaeae" opacity="0.37"/>
            <rect id="Rectangle_214" data-name="Rectangle 214" width="39.804" height="11.039" transform="translate(29.453)" fill="#c6c6c6"/>
            <rect id="Rectangle_215" data-name="Rectangle 215" width="1.189" height="9.116" transform="translate(30.364 1.027)" fill="#fbfbfb" opacity="0.66"/>
            <rect id="Rectangle_216" data-name="Rectangle 216" width="1.189" height="9.116" transform="translate(32.529 1.027)" fill="#fbfbfb" opacity="0.66"/>
            <rect id="Rectangle_217" data-name="Rectangle 217" width="1.189" height="9.116" transform="translate(34.699 1.027)" fill="#fbfbfb" opacity="0.66"/>
            <rect id="Rectangle_218" data-name="Rectangle 218" width="1.189" height="9.116" transform="translate(36.87 1.027)" fill="#fbfbfb" opacity="0.66"/>
            <rect id="Rectangle_219" data-name="Rectangle 219" width="1.189" height="9.116" transform="translate(39.035 1.027)" fill="#fbfbfb" opacity="0.66"/>
            <rect id="Rectangle_220" data-name="Rectangle 220" width="1.189" height="9.116" transform="translate(41.205 1.027)" fill="#fbfbfb" opacity="0.66"/>
            <rect id="Rectangle_221" data-name="Rectangle 221" width="1.189" height="9.116" transform="translate(43.37 1.027)" fill="#fbfbfb" opacity="0.66"/>
            <rect id="Rectangle_222" data-name="Rectangle 222" width="1.189" height="9.116" transform="translate(45.536 1.027)" fill="#fbfbfb" opacity="0.66"/>
            <rect id="Rectangle_223" data-name="Rectangle 223" width="1.189" height="9.116" transform="translate(47.711 1.027)" fill="#fbfbfb" opacity="0.66"/>
            <rect id="Rectangle_224" data-name="Rectangle 224" width="1.189" height="9.116" transform="translate(49.876 1.027)" fill="#fbfbfb" opacity="0.66"/>
            <rect id="Rectangle_225" data-name="Rectangle 225" width="1.189" height="9.116" transform="translate(52.046 1.027)" fill="#fbfbfb" opacity="0.66"/>
            <rect id="Rectangle_226" data-name="Rectangle 226" width="1.189" height="9.116" transform="translate(54.212 1.027)" fill="#fbfbfb" opacity="0.66"/>
            <rect id="Rectangle_227" data-name="Rectangle 227" width="1.189" height="9.116" transform="translate(56.382 1.027)" fill="#fbfbfb" opacity="0.66"/>
            <rect id="Rectangle_228" data-name="Rectangle 228" width="1.189" height="9.116" transform="translate(58.552 1.027)" fill="#fbfbfb" opacity="0.66"/>
            <rect id="Rectangle_229" data-name="Rectangle 229" width="1.189" height="9.116" transform="translate(60.717 1.027)" fill="#fbfbfb" opacity="0.66"/>
            <rect id="Rectangle_230" data-name="Rectangle 230" width="1.189" height="9.116" transform="translate(62.888 1.027)" fill="#fbfbfb" opacity="0.66"/>
            <rect id="Rectangle_231" data-name="Rectangle 231" width="1.189" height="9.116" transform="translate(65.053 1.027)" fill="#fbfbfb" opacity="0.66"/>
            <rect id="Rectangle_232" data-name="Rectangle 232" width="1.189" height="9.116" transform="translate(67.223 1.027)" fill="#fbfbfb" opacity="0.66"/>
            <rect id="Rectangle_233" data-name="Rectangle 233" width="20.453" height="5.717" transform="translate(39.131 11.039)" fill="#7b7b7b"/>
            <path id="Path_3460" data-name="Path 3460" d="M368.8,199.2l-.339.233-22.6,15.683-9.278,6.445-1.138.784-3.931-5.7a6.168,6.168,0,0,1,1.573-8.585l23.281-16.037a6.182,6.182,0,0,1,8.585,1.583Z" transform="translate(-330.42 -182.56)" fill="#fafafa"/>
            <path id="Path_3461" data-name="Path 3461" d="M359.34,257.807h-8.352c-1.821,0-2.5-2.018-2.5-2.018L342.6,245.175l9.278-6.445Z" transform="translate(-336.438 -206.176)" fill="#7b7b7b"/>
            <path id="Path_3462" data-name="Path 3462" d="M449.7,199.2l.339.233,22.6,15.683,9.278,6.445,1.138.784,3.931-5.7a6.168,6.168,0,0,0-1.573-8.585L462.135,192.02a6.182,6.182,0,0,0-8.585,1.583Z" transform="translate(-389.357 -182.56)" fill="#fafafa"/>
            <path id="Path_3463" data-name="Path 3463" d="M480.31,257.807h8.352c1.821,0,2.5-2.018,2.5-2.018l5.884-10.614-9.278-6.445Z" transform="translate(-404.481 -206.176)" fill="#7b7b7b"/>
            <rect id="Rectangle_234" data-name="Rectangle 234" width="20.453" height="2.858" transform="translate(39.131 11.039)" fill="#aeaeae" opacity="0.18"/>
            <path id="Path_3464" data-name="Path 3464" d="M471.79,223.413l-7.457,19.077-11.109,28.416,11.742-46.517L448.2,207.73h.986Z" transform="translate(-388.616 -190.858)" fill="#aeaeae" opacity="0.25"/>
          </g>
          <g id="Group_1918" data-name="Group 1918" transform="translate(0 155.362)">
            <rect id="Rectangle_235" data-name="Rectangle 235" width="25.517" height="34.851" transform="translate(0 21.58) rotate(-57.75)" fill="#fafafa"/>
            <path id="Path_3465" data-name="Path 3465" d="M115.592,529.231l11.074,6.986-3.015,4.776-9.182-5.792-9.991,9.819a2.822,2.822,0,0,1-3.486.379l-9.142-5.772,3.015-4.781,7.249,4.573L112.1,529.6A2.842,2.842,0,0,1,115.592,529.231Z" transform="translate(-58.954 -504.86)" fill="#7b7b7b"/>
            <rect id="Rectangle_236" data-name="Rectangle 236" width="7.371" height="4.007" transform="matrix(0.534, -0.846, 0.846, 0.534, 3.785, 8.061)" fill="#949494"/>
            <rect id="Rectangle_237" data-name="Rectangle 237" width="5.651" height="3.03" transform="translate(32.884 34.776) rotate(-57.75)" fill="#b7b7b7" opacity="0.5"/>
          </g>
          <g id="Group_1919" data-name="Group 1919" transform="translate(322.946 100.62)">
            <rect id="Rectangle_238" data-name="Rectangle 238" width="12.43" height="4.821" transform="matrix(0.844, -0.537, 0.537, 0.844, 33.295, 62.697)" fill="#fff"/>
            <rect id="Rectangle_239" data-name="Rectangle 239" width="18.227" height="3.88" transform="translate(17.008 42.564) rotate(-32.474)" fill="#7b7b7b"/>
            <path id="Path_3466" data-name="Path 3466" d="M689.785,438.86l2.292,3.6a.9.9,0,0,0,1.24.278l17.337-11.034a.9.9,0,0,0,.278-1.239l-2.292-3.6a.9.9,0,0,0-1.24-.273l-17.337,11.034A.893.893,0,0,0,689.785,438.86Z" transform="translate(-677.275 -399.55)" fill="#b0b0b0"/>
            <rect id="Rectangle_240" data-name="Rectangle 240" width="22.345" height="4.27" transform="matrix(0.844, -0.537, 0.537, 0.844, 12.51, 39.307)" fill="#b0b0b0"/>
            <path id="Path_3467" data-name="Path 3467" d="M702.053,442.362a.894.894,0,0,0,1.239.273l7.25-4.609a.894.894,0,0,0,.273-1.239l-1.325-2.084a.9.9,0,0,0-1.24-.278l-7.244,4.614a.9.9,0,0,0-.273,1.24Z" transform="translate(-682.683 -403.422)" fill="#e1e1e1"/>
            <path id="Path_3468" data-name="Path 3468" d="M692.076,451.016a.909.909,0,0,0,1.26.263l3.486-2.221a.911.911,0,0,0,.3-1.255l-1.325-2.084a.915.915,0,0,0-1.265-.263l-3.485,2.216a.911.911,0,0,0-.3,1.255Z" transform="translate(-677.751 -408.868)" fill="#c8c8c8"/>
            <path id="Path_3469" data-name="Path 3469" d="M719.371,433.651a.91.91,0,0,0,1.26.263l3.486-2.216a.911.911,0,0,0,.3-1.255l-1.326-2.084a.908.908,0,0,0-1.26-.263l-3.486,2.216a.911.911,0,0,0-.3,1.255Z" transform="translate(-691.24 -400.29)" fill="#fff"/>
            <path id="Path_3470" data-name="Path 3470" d="M709.208,457.846a2.663,2.663,0,0,1,.987,3.258,1.109,1.109,0,0,1,1.174,1.841,1.109,1.109,0,0,1,1.174,1.841,1.109,1.109,0,0,1,1.174,1.841,1.007,1.007,0,0,0,1.356.425,1.116,1.116,0,0,0,1.179,1.852,2.628,2.628,0,0,1,.982,3.253,1.02,1.02,0,0,0,1.361.43l11.049-7.032a2.646,2.646,0,0,1-.986-3.258,1.11,1.11,0,0,1-1.179-1.841,1.109,1.109,0,0,1-1.174-1.842,1.106,1.106,0,0,1-1.174-1.836,1.027,1.027,0,0,0-1.361-.435,1.01,1.01,0,0,0,.192-1.406,1.028,1.028,0,0,0-1.366-.435,2.638,2.638,0,0,1-.981-3.248,1.026,1.026,0,0,0-1.361-.435,2.633,2.633,0,0,1-.976-3.253,1.018,1.018,0,0,0-1.361-.435l-11.049,7.032a2.658,2.658,0,0,1,.992,3.258A1,1,0,0,0,709.208,457.846Z" transform="translate(-685.595 -409.708)" fill="#959595"/>
            <path id="Path_3471" data-name="Path 3471" d="M686.9,424.66l3.7,5.813,13.28-8.453-3.7-5.813a3.161,3.161,0,0,0-4.371-.971l-7.932,5.044A3.18,3.18,0,0,0,686.9,424.66Z" transform="translate(-675.672 -393.763)" fill="#fff"/>
            <path id="Path_3472" data-name="Path 3472" d="M678.363,405.095a3.425,3.425,0,0,1,1.184,4.7,1.531,1.531,0,0,0,2.115.481l8.635-5.5a3.438,3.438,0,0,1-1.179-4.715,1.532,1.532,0,1,1-1.644-2.585,1.541,1.541,0,0,1-1.654-2.6,1.528,1.528,0,0,0-2.12-.46l-8.641,5.5a3.442,3.442,0,0,1,1.184,4.71A1.538,1.538,0,0,0,678.363,405.095Z" transform="translate(-669.719 -383.603)" fill="#fff"/>
            <path id="Path_3473" data-name="Path 3473" d="M668.841,387.5l3.637,5.717,7.917-5.039-3.642-5.717a2.986,2.986,0,0,0-3.572-1.184,2.13,2.13,0,0,0-.561.273l-2.863,1.821a2.183,2.183,0,0,0-.486.395A2.969,2.969,0,0,0,668.841,387.5Z" transform="translate(-666.763 -377.137)" fill="#fff"/>
            <rect id="Rectangle_241" data-name="Rectangle 241" width="5.504" height="1.573" transform="translate(38.794 64.937) rotate(-32.479)" fill="#fafafa"/>
            <rect id="Rectangle_242" data-name="Rectangle 242" width="2.656" height="1.164" transform="matrix(0.844, -0.536, 0.536, 0.844, 40.832, 65.458)" fill="#7b7b7b"/>
            <path id="Path_3474" data-name="Path 3474" d="M665.333,376.187l2.368,3.718a2.334,2.334,0,0,1,.486-.395l2.863-1.821a2.4,2.4,0,0,1,.562-.273l-2.368-3.723A.892.892,0,0,0,668,373.42l-2.4,1.523A.907.907,0,0,0,665.333,376.187Z" transform="translate(-665.193 -373.277)" fill="#7b7b7b"/>
            <path id="Path_3475" data-name="Path 3475" d="M738.12,503.5a5.114,5.114,0,0,0,7.057,1.568l-.481-.759a4.214,4.214,0,0,1-5.818-1.29Z" transform="translate(-701.227 -437.384)" fill="#7b7b7b"/>
            <path id="Path_3476" data-name="Path 3476" d="M709.2,457.819a1.022,1.022,0,0,0-.187,1.416,1.01,1.01,0,0,0,1.356.42,1.112,1.112,0,0,0,1.179,1.847,2.643,2.643,0,0,1,.981,3.253,1.009,1.009,0,0,0,1.356.42,1.022,1.022,0,0,0-.187,1.417,1.009,1.009,0,0,0,1.356.42,2.649,2.649,0,0,1,.992,3.263,1.023,1.023,0,0,0,1.361.43,1.012,1.012,0,0,0-.192,1.411,1.032,1.032,0,0,0,1.366.43l.278-.177,2.59,4.067,1.472-.941c-3.713-5.706-7.963-11.221-8.98-18.227-.632-4.69,2.706-6.754,6.5-7.907a1.108,1.108,0,0,1-1.174-1.841,1.016,1.016,0,0,0-1.366-.43l-11.044,7.027a1.011,1.011,0,0,0-.187,1.417,1.108,1.108,0,0,1,1.174,1.841A1,1,0,0,0,709.2,457.819Z" transform="translate(-685.585 -409.686)" fill="#aeaeae" opacity="0.28"/>
            <path id="Path_3477" data-name="Path 3477" d="M677.979,412.011l3.7,5.813,13.285-8.454-2.342-3.678a25.178,25.178,0,0,1-5.737,2.4c-4.179,1.128-7.745-3.03-10.042-6.162-2.787-3.749-4.9-9.288-8.378-12.794a2.959,2.959,0,0,0,.369,2.352l3.643,5.717-.369.233a3.442,3.442,0,0,1,1.184,4.71,1.534,1.534,0,0,1,1.644,2.59,1.535,1.535,0,0,1,1.649,2.59,1.524,1.524,0,0,0,2.115.476l.253-.162A3.17,3.17,0,0,0,677.979,412.011Z" transform="translate(-666.76 -381.115)" fill="#aeaeae" opacity="0.21"/>
          </g>
          <g id="Group_1920" data-name="Group 1920" transform="translate(16.293 35.913)">
            <path id="Path_3478" data-name="Path 3478" d="M80,245.37a20.974,20.974,0,1,0,20.974,20.974A20.976,20.976,0,0,0,80,245.37Zm0,25.821a4.854,4.854,0,1,1,4.857-4.852A4.85,4.85,0,0,1,80,271.191Z" transform="translate(-59.03 -245.37)" fill="#fff"/>
            <path id="Path_3479" data-name="Path 3479" d="M88.468,262.48A12.318,12.318,0,1,0,100.787,274.8,12.312,12.312,0,0,0,88.468,262.48Zm0,17.165a4.854,4.854,0,1,1,4.857-4.852A4.85,4.85,0,0,1,88.468,279.645Z" transform="translate(-67.494 -253.824)" fill="#c9c9c9"/>
            <path id="Path_3480" data-name="Path 3480" d="M134.29,269.488H122.376a12.782,12.782,0,0,0-4.8-11.58L126,249.48A28.234,28.234,0,0,1,134.29,269.488Z" transform="translate(-87.96 -247.401)" fill="#c9c9c9"/>
            <path id="Path_3481" data-name="Path 3481" d="M100.487,270.044a1.594,1.594,0,1,1-1.594-1.594A1.593,1.593,0,0,1,100.487,270.044Z" transform="translate(-77.939 -256.774)" fill="#aeaeae" opacity="0.37"/>
            <path id="Path_3482" data-name="Path 3482" d="M86.027,280.714a1.594,1.594,0,1,1-1.594-1.594A1.593,1.593,0,0,1,86.027,280.714Z" transform="translate(-70.795 -262.046)" fill="#aeaeae" opacity="0.37"/>
            <path id="Path_3483" data-name="Path 3483" d="M91.5,297.764A1.594,1.594,0,1,1,89.9,296.17,1.6,1.6,0,0,1,91.5,297.764Z" transform="translate(-73.497 -270.471)" fill="#aeaeae" opacity="0.37"/>
            <path id="Path_3484" data-name="Path 3484" d="M109.522,297.764a1.6,1.6,0,1,1-1.594-1.594A1.593,1.593,0,0,1,109.522,297.764Z" transform="translate(-82.401 -270.471)" fill="#aeaeae" opacity="0.37"/>
            <path id="Path_3485" data-name="Path 3485" d="M115.032,280.714a1.6,1.6,0,1,1-1.6-1.594A1.594,1.594,0,0,1,115.032,280.714Z" transform="translate(-85.124 -262.046)" fill="#aeaeae" opacity="0.37"/>
            <path id="Path_3486" data-name="Path 3486" d="M106.152,277.685A20.969,20.969,0,0,1,69.5,290.464L80.994,278.97a4.851,4.851,0,1,0,6.612-6.612l6.248-6.248a12.8,12.8,0,0,1,4.8,11.575Z" transform="translate(-64.203 -255.618)" fill="#aeaeae" opacity="0.2"/>
          </g>
          <g id="Group_1921" data-name="Group 1921" transform="translate(246.707 81.095)">
            <path id="Path_3487" data-name="Path 3487" d="M554.1,354.46a19.78,19.78,0,1,1-19.78-19.78A19.777,19.777,0,0,1,554.1,354.46Z" transform="translate(-514.515 -334.68)" fill="#959595"/>
            <path id="Path_3488" data-name="Path 3488" d="M553.94,370.135A3.934,3.934,0,0,1,550,374.07H532.946a3.934,3.934,0,0,1-3.936-3.936V353.076a3.934,3.934,0,0,1,3.936-3.936H550a3.934,3.934,0,0,1,3.936,3.936Z" transform="translate(-521.664 -341.825)" fill="#fafafa"/>
            <path id="Path_3489" data-name="Path 3489" d="M553.873,357.328a2.84,2.84,0,0,1-2,2.717v5.044h-7.138v3.369a2.848,2.848,0,1,1-1.69,0v-3.369h-5.448v3.369a2.848,2.848,0,1,1-1.69,0v-8.413a2.848,2.848,0,1,1,1.69,0V363.4h5.448v-3.359a2.848,2.848,0,1,1,1.69,0V363.4h5.448v-3.359a2.847,2.847,0,1,1,3.693-2.717Z" transform="translate(-524.08 -344.463)" fill="#7b7b7b"/>
            <path id="Path_3490" data-name="Path 3490" d="M539.638,359.71a.885.885,0,0,1-.005.121.2.2,0,0,1-.02.076.094.094,0,0,1-.03.04.058.058,0,0,1-.041.015h-1.8a.046.046,0,0,1-.035-.015.093.093,0,0,1-.03-.04.269.269,0,0,1-.02-.076.778.778,0,0,1-.01-.121.821.821,0,0,1,.005-.121.271.271,0,0,1,.02-.081.177.177,0,0,1,.03-.046.058.058,0,0,1,.04-.015h.607v-2.12l-.526.288a.382.382,0,0,1-.1.035.051.051,0,0,1-.056-.015.132.132,0,0,1-.03-.076,1.238,1.238,0,0,1-.005-.152v-.1a.127.127,0,0,1,.015-.066.1.1,0,0,1,.025-.046.144.144,0,0,1,.051-.035l.7-.455a.1.1,0,0,0,.03-.02.434.434,0,0,1,.051-.01.356.356,0,0,1,.081-.005h.126a1.361,1.361,0,0,1,.157.005c.041.005.071.005.091.01a.062.062,0,0,1,.04.025.072.072,0,0,1,.01.035v2.7h.531a.057.057,0,0,1,.04.015.1.1,0,0,1,.03.046.265.265,0,0,1,.02.081A1.032,1.032,0,0,0,539.638,359.71Z" transform="translate(-525.929 -345.545)" fill="#fff"/>
            <path id="Path_3491" data-name="Path 3491" d="M553.656,359a1,1,0,0,1-.091.435.878.878,0,0,1-.258.319,1.184,1.184,0,0,1-.4.2,1.8,1.8,0,0,1-.506.066,1.546,1.546,0,0,1-.314-.025,2.5,2.5,0,0,1-.258-.056c-.076-.025-.137-.051-.187-.071a.815.815,0,0,1-.1-.056.27.27,0,0,1-.035-.046.167.167,0,0,1-.02-.061c-.005-.025-.01-.051-.015-.086s-.005-.076-.005-.126a.43.43,0,0,1,.02-.167.068.068,0,0,1,.061-.046.2.2,0,0,1,.086.035c.041.02.1.046.157.071a1.66,1.66,0,0,0,.223.071,1.035,1.035,0,0,0,.293.035.72.72,0,0,0,.243-.035.514.514,0,0,0,.182-.091.421.421,0,0,0,.111-.142.46.46,0,0,0,.035-.187.442.442,0,0,0-.045-.2.432.432,0,0,0-.132-.157.617.617,0,0,0-.218-.1,1.14,1.14,0,0,0-.314-.036h-.283a.181.181,0,0,1-.056-.01.06.06,0,0,1-.035-.035.267.267,0,0,1-.02-.076.925.925,0,0,1-.005-.126.811.811,0,0,1,.005-.121.2.2,0,0,1,.02-.071.118.118,0,0,1,.035-.035.149.149,0,0,1,.051-.01h.283a.816.816,0,0,0,.258-.035.68.68,0,0,0,.192-.1.384.384,0,0,0,.116-.152.512.512,0,0,0,.04-.2.414.414,0,0,0-.03-.157.361.361,0,0,0-.081-.126.353.353,0,0,0-.142-.086.63.63,0,0,0-.2-.03.8.8,0,0,0-.248.04,1.6,1.6,0,0,0-.207.086c-.061.03-.111.061-.157.086a.227.227,0,0,1-.1.04.074.074,0,0,1-.035-.01.066.066,0,0,1-.025-.035c-.005-.02-.01-.04-.015-.071a.91.91,0,0,1-.005-.126v-.1a.261.261,0,0,1,.01-.071.151.151,0,0,1,.02-.051c.01-.015.02-.025.036-.046a.609.609,0,0,1,.1-.071,1.218,1.218,0,0,1,.2-.091,1.767,1.767,0,0,1,.273-.076,1.738,1.738,0,0,1,.334-.03,1.5,1.5,0,0,1,.42.056.854.854,0,0,1,.309.162.677.677,0,0,1,.187.258.925.925,0,0,1,.066.344.981.981,0,0,1-.035.278.686.686,0,0,1-.111.228.735.735,0,0,1-.182.172.882.882,0,0,1-.253.106v.01a.841.841,0,0,1,.309.086.883.883,0,0,1,.233.167.765.765,0,0,1,.147.228A.4.4,0,0,1,553.656,359Z" transform="translate(-532.762 -345.535)" fill="#fff"/>
            <path id="Path_3492" data-name="Path 3492" d="M567.86,358.926a1.149,1.149,0,0,1-.091.47.941.941,0,0,1-.258.349,1.152,1.152,0,0,1-.4.217,1.681,1.681,0,0,1-.521.076,1.758,1.758,0,0,1-.288-.02,1.457,1.457,0,0,1-.243-.051c-.071-.02-.131-.04-.177-.056a.339.339,0,0,1-.091-.051.106.106,0,0,1-.03-.04c-.005-.015-.01-.035-.015-.056s-.005-.046-.01-.081v-.111a.907.907,0,0,1,.005-.121.758.758,0,0,1,.015-.081.062.062,0,0,1,.025-.04.043.043,0,0,1,.035-.01.189.189,0,0,1,.076.03c.035.02.081.04.137.066a1.263,1.263,0,0,0,.207.066,1.2,1.2,0,0,0,.288.03,1.111,1.111,0,0,0,.268-.03.5.5,0,0,0,.2-.1.46.46,0,0,0,.126-.167.576.576,0,0,0,.046-.243.6.6,0,0,0-.036-.218.415.415,0,0,0-.116-.162.563.563,0,0,0-.207-.1,1.4,1.4,0,0,0-.314-.03,2.193,2.193,0,0,0-.268.015,1.836,1.836,0,0,1-.228.015.129.129,0,0,1-.106-.035.226.226,0,0,1-.03-.137v-1.417a.23.23,0,0,1,.04-.147.154.154,0,0,1,.126-.046h1.543a.081.081,0,0,1,.045.015.1.1,0,0,1,.035.051.308.308,0,0,1,.02.086,1,1,0,0,1,.005.132.723.723,0,0,1-.025.217.083.083,0,0,1-.076.066h-1.159v.7l.177-.015h.182a1.659,1.659,0,0,1,.47.061.9.9,0,0,1,.344.182.7.7,0,0,1,.212.3A1.458,1.458,0,0,1,567.86,358.926Z" transform="translate(-539.808 -345.57)" fill="#fff"/>
            <path id="Path_3493" data-name="Path 3493" d="M539.515,387.01a.947.947,0,0,1-.005.126.313.313,0,0,1-.02.086.116.116,0,0,1-.03.046.082.082,0,0,1-.046.015h-1.877a.513.513,0,0,1-.1-.01.112.112,0,0,1-.066-.04.169.169,0,0,1-.035-.086,1.024,1.024,0,0,1-.01-.142.578.578,0,0,1,.01-.142.553.553,0,0,1,.025-.106.807.807,0,0,1,.051-.091,1.194,1.194,0,0,1,.081-.1l.567-.6a3.332,3.332,0,0,0,.273-.319,1.762,1.762,0,0,0,.162-.263.972.972,0,0,0,.081-.218.856.856,0,0,0,.02-.192.536.536,0,0,0-.025-.157.425.425,0,0,0-.076-.132.35.35,0,0,0-.131-.086.49.49,0,0,0-.182-.03.821.821,0,0,0-.263.04,1.515,1.515,0,0,0-.2.086c-.056.03-.106.061-.147.086a.215.215,0,0,1-.091.04.058.058,0,0,1-.041-.015.094.094,0,0,1-.025-.051c-.005-.025-.01-.056-.015-.1a1.219,1.219,0,0,1-.005-.147.515.515,0,0,1,.005-.1c.005-.025.005-.051.01-.066a.151.151,0,0,1,.02-.051.377.377,0,0,1,.046-.051.577.577,0,0,1,.116-.076,1.671,1.671,0,0,1,.207-.091,1.759,1.759,0,0,1,.273-.076,1.557,1.557,0,0,1,.309-.03,1.329,1.329,0,0,1,.445.066.82.82,0,0,1,.314.177.68.68,0,0,1,.187.273.917.917,0,0,1,.061.339,1.611,1.611,0,0,1-.03.314,1.116,1.116,0,0,1-.126.329,2.734,2.734,0,0,1-.268.395,6.1,6.1,0,0,1-.46.5l-.379.39h1.285a.082.082,0,0,1,.046.015.11.11,0,0,1,.035.045.794.794,0,0,1,.025.081A.751.751,0,0,0,539.515,387.01Z" transform="translate(-525.775 -359.039)" fill="#fff"/>
            <path id="Path_3494" data-name="Path 3494" d="M553.668,386.377a.586.586,0,0,1-.025.192c-.015.045-.04.066-.071.066h-.288v.587a.07.07,0,0,1-.015.046.124.124,0,0,1-.051.03.4.4,0,0,1-.1.02,1.411,1.411,0,0,1-.157,0c-.061,0-.111,0-.152,0a.355.355,0,0,1-.1-.02.226.226,0,0,1-.051-.03.062.062,0,0,1-.015-.046v-.587H551.4a.191.191,0,0,1-.061-.01.072.072,0,0,1-.046-.041.285.285,0,0,1-.025-.091,1.227,1.227,0,0,1-.01-.157,1.175,1.175,0,0,1,.005-.142.337.337,0,0,1,.015-.106.474.474,0,0,1,.025-.091.69.69,0,0,1,.04-.091l1.012-1.786a.094.094,0,0,1,.04-.035.291.291,0,0,1,.086-.025.507.507,0,0,1,.136-.015c.056-.005.121-.005.2-.005s.157.005.218.005a.849.849,0,0,1,.147.02.241.241,0,0,1,.081.035.06.06,0,0,1,.025.045v1.963h.288c.025,0,.051.02.071.061A1.457,1.457,0,0,1,553.668,386.377Zm-1.027-1.771h0l-.865,1.5h.865Z" transform="translate(-532.658 -359.069)" fill="#fff"/>
            <path id="Path_3495" data-name="Path 3495" d="M568.323,386.983a.183.183,0,0,1-.01.056.1.1,0,0,1-.056.035.606.606,0,0,1-.131.02c-.056,0-.137,0-.233,0-.081,0-.147,0-.2,0a.552.552,0,0,1-.116-.02.116.116,0,0,1-.061-.04.346.346,0,0,1-.03-.061l-.344-.85q-.061-.144-.121-.258a.767.767,0,0,0-.132-.187.459.459,0,0,0-.167-.111.574.574,0,0,0-.217-.04h-.243v1.452a.065.065,0,0,1-.02.051.164.164,0,0,1-.066.04c-.03.01-.071.015-.116.025a1.751,1.751,0,0,1-.374,0,.562.562,0,0,1-.121-.025.116.116,0,0,1-.061-.04.1.1,0,0,1-.015-.051v-3.465a.212.212,0,0,1,.228-.243h.987c.1,0,.182.005.248.005l.177.015a1.658,1.658,0,0,1,.415.111,1.059,1.059,0,0,1,.314.207.875.875,0,0,1,.2.3,1.255,1.255,0,0,1,.015.754.9.9,0,0,1-.142.278,1.064,1.064,0,0,1-.233.217,1.2,1.2,0,0,1-.314.147.78.78,0,0,1,.162.1.934.934,0,0,1,.142.142,1.411,1.411,0,0,1,.126.192c.04.076.076.152.116.243l.319.749c.03.076.051.126.061.162A.379.379,0,0,1,568.323,386.983Zm-1-2.59a.577.577,0,0,0-.086-.319.467.467,0,0,0-.278-.182c-.041-.01-.086-.015-.132-.025s-.121-.01-.208-.01h-.349v1.083h.395a.829.829,0,0,0,.288-.04.628.628,0,0,0,.207-.111.446.446,0,0,0,.121-.172A.6.6,0,0,0,567.326,384.393Z" transform="translate(-539.69 -358.689)" fill="#7b7b7b"/>
            <path id="Path_3496" data-name="Path 3496" d="M551.263,367.181a19.781,19.781,0,1,1-27.116-27.121,19.773,19.773,0,0,0,27.116,27.121Z" transform="translate(-514.49 -337.338)" fill="#aeaeae" opacity="0.33"/>
          </g>
          <g id="Group_1922" data-name="Group 1922" transform="translate(104.176 90.054)">
            <path id="Path_3497" data-name="Path 3497" d="M233.4,426.756h32a.654.654,0,0,0,.653-.653V422.84H232.75V426.1A.657.657,0,0,0,233.4,426.756Z" transform="translate(-232.75 -387.2)" fill="#9e9e9e"/>
            <path id="Path_3498" data-name="Path 3498" d="M232.76,353.043v3.263h33.308v-3.263a.654.654,0,0,0-.653-.653h-32A.648.648,0,0,0,232.76,353.043Z" transform="translate(-232.755 -352.39)" fill="#9e9e9e"/>
            <path id="Path_3499" data-name="Path 3499" d="M267.34,363.732v27.06l2.818,1.027V362.7Z" transform="translate(-249.841 -357.484)" fill="#9e9e9e"/>
            <path id="Path_3500" data-name="Path 3500" d="M275.86,363.732v27.06l2.818,1.027V362.7Z" transform="translate(-254.051 -357.484)" fill="#9e9e9e"/>
            <path id="Path_3501" data-name="Path 3501" d="M284.39,363.732v27.06l2.813,1.027V362.7Z" transform="translate(-258.266 -357.484)" fill="#9e9e9e"/>
            <path id="Path_3502" data-name="Path 3502" d="M292.91,363.732v27.06l2.818,1.027V362.7Z" transform="translate(-262.475 -357.484)" fill="#9e9e9e"/>
            <path id="Path_3503" data-name="Path 3503" d="M258.43,362.7v29.119l2.818-1.027v-27.06Z" transform="translate(-245.439 -357.484)" fill="#9e9e9e"/>
            <path id="Path_3504" data-name="Path 3504" d="M249.91,362.7v29.119l2.818-1.027v-27.06Z" transform="translate(-241.229 -357.484)" fill="#9e9e9e"/>
            <path id="Path_3505" data-name="Path 3505" d="M241.39,362.7v29.119l2.818-1.027v-27.06Z" transform="translate(-237.019 -357.484)" fill="#9e9e9e"/>
            <path id="Path_3506" data-name="Path 3506" d="M232.87,362.7v29.119l2.818-1.027v-27.06Z" transform="translate(-232.809 -357.484)" fill="#9e9e9e"/>
            <path id="Path_3507" data-name="Path 3507" d="M244.023,437.066h21.263a.654.654,0,0,0,.653-.653V433.15H243.37v3.263A.651.651,0,0,0,244.023,437.066Z" transform="translate(-237.997 -392.294)" fill="#9e9e9e"/>
          </g>
          <g id="Group_1923" data-name="Group 1923" transform="translate(29.698 94.384)">
            <path id="Path_3508" data-name="Path 3508" d="M121.023,389.469l-.111-.132-.025-.025-14.995-17.468-.415-.481a1.621,1.621,0,0,0-1.093-.374l-5.074.1-.025-1.234L91.393,370l.025,1.234-4.229.081a1.691,1.691,0,0,0-1.659,1.725l.84,43.274a1.694,1.694,0,0,0,1.725,1.659l32.144-.622a1.691,1.691,0,0,0,1.659-1.725l-.486-25.128A1.668,1.668,0,0,0,121.023,389.469ZM116.01,411.96l-24.46.476L91.2,394.573l24.46-.475ZM107.425,389.4,106.2,377.251l9.678,11.661.536.647Z" transform="translate(-85.529 -365.347)" fill="#9e9e9e"/>
            <path id="Path_3509" data-name="Path 3509" d="M125.375,373.311l-.415-.481A1.577,1.577,0,0,1,125.375,373.311Z" transform="translate(-105.012 -366.82)" fill="#9e9e9e"/>
            <rect id="Rectangle_243" data-name="Rectangle 243" width="9.238" height="3.632" transform="translate(5.105 0.179) rotate(-1.112)" fill="#9e9e9e"/>
            <path id="Path_3510" data-name="Path 3510" d="M121.318,429.607l-.071-.1L117.7,423.44l-3.511,6.531a3.975,3.975,0,0,0-.476,2.013,4.149,4.149,0,0,0,8.3-.157A4.233,4.233,0,0,0,121.318,429.607Zm-4.239,5.211c-.278.395-.855.061-1.194-.121-.41-.212-1.209-.84-1.153-1.4.1-.789.9-.273,1.356.091C116.689,433.917,117.2,434.651,117.078,434.818Z" transform="translate(-99.453 -391.826)" fill="#9e9e9e"/>
          </g>
          <g id="Group_1924" data-name="Group 1924" transform="translate(67.865 10.596)">
            <path id="Path_3511" data-name="Path 3511" d="M185.068,195.327a24.478,24.478,0,1,0,24.865,24.1A24.495,24.495,0,0,0,185.068,195.327Zm14.924,38.8-1.538,1.437c-.415.329-.911.713-1.442,1.067a13.724,13.724,0,0,1-1.872,1.138,20.171,20.171,0,0,1-9.308,2.464h-.051a19.918,19.918,0,0,1-9.511-2.2l-1.872-1.072a15.561,15.561,0,0,1-1.341-.936l-.015-.01-.172-.116-1.437-1.265-.1-.091a20.285,20.285,0,0,1-6.324-14.423,18.884,18.884,0,0,1,.263-3.45,15.321,15.321,0,0,1,.425-2.125c.116-.44.278-.911.42-1.356l.086-.253a12.936,12.936,0,0,1,.89-2.064,20.307,20.307,0,0,1,15.02-11.231,14.409,14.409,0,0,1,2.084-.218,6.393,6.393,0,0,1,.708-.051l.218-.01a6.285,6.285,0,0,1,.931.035,18.434,18.434,0,0,1,2.069.147,20.484,20.484,0,0,1,15.415,10.8,16.289,16.289,0,0,1,.9,1.988,10.675,10.675,0,0,1,.567,1.629,12.967,12.967,0,0,1,.516,2.13,21.2,21.2,0,0,1,.354,3.384A20.211,20.211,0,0,1,199.991,234.129Z" transform="translate(-160.974 -195.324)" fill="#9e9e9e"/>
            <path id="Path_3512" data-name="Path 3512" d="M209.471,220.979a11.756,11.756,0,0,0-.5-2.019,9.5,9.5,0,0,0-.536-1.563,18.1,18.1,0,0,0-.855-1.887,19.659,19.659,0,0,0-14.762-10.351,18.958,18.958,0,0,0-2.059-.147,6.345,6.345,0,0,0-.82-.025,6.845,6.845,0,0,0-.87.061,14.969,14.969,0,0,0-2.034.207,19.531,19.531,0,0,0-14.413,10.806,12.2,12.2,0,0,0-.835,1.922c-.167.511-.354,1.047-.5,1.573a15.653,15.653,0,0,0-.41,2.029,18.3,18.3,0,0,0-.248,3.3A19.5,19.5,0,0,0,176.7,238.71l.071.066,1.437,1.265.061.025a12.969,12.969,0,0,0,1.331.941l1.831,1.057a19.415,19.415,0,0,0,18.111-.263,12.95,12.95,0,0,0,1.781-1.083c.465-.314.911-.653,1.336-.992l1.513-1.406a19.511,19.511,0,0,0,5.651-14.039A21.365,21.365,0,0,0,209.471,220.979Zm-2.529-2.929a11.747,11.747,0,0,1,.491,1.411.054.054,0,0,0,.01.035l-10.917,3.733a6.092,6.092,0,0,0-.546-1.553l10.917-3.749C206.916,217.974,206.916,218,206.941,218.05Zm-.916-2.024L193.9,219.274l-1.072-12.45A18.013,18.013,0,0,1,206.025,216.026Zm-10.563,6.981a.939.939,0,1,1-.956-.916A.937.937,0,0,1,195.462,223.007Zm-1.543,5.11a.939.939,0,1,1-.956-.916A.931.931,0,0,1,193.919,228.117Zm-4.831-21.45a.689.689,0,0,1,.192-.03c.177-.01.344-.015.531-.02l.253-.005a5.546,5.546,0,0,1,.668.02h.035l.182,11.539a5.324,5.324,0,0,0-.855-.04,5.83,5.83,0,0,0-.845.076ZM190.115,219a.936.936,0,1,1-.921.961A.929.929,0,0,1,190.115,219Zm.056,2.975a2.6,2.6,0,1,1-2.545,2.656A2.605,2.605,0,0,1,190.171,221.975ZM187.6,227.3a.936.936,0,1,1-.921.961A.935.935,0,0,1,187.6,227.3Zm-1.685-3.172a.934.934,0,1,1,.921-.946A.933.933,0,0,1,185.916,224.125Zm1.138-17.226-.663,12.485v.01h-.01l-12.2-2.858A17.972,17.972,0,0,1,187.054,206.9Zm-14.185,13.062a14.887,14.887,0,0,1,.445-1.447c.01-.01.015-.051.03-.071l11.039,3.41a6.535,6.535,0,0,0-.521,1.583l-11.023-3.4A.178.178,0,0,0,172.869,219.962Zm4.755,17.388a17.836,17.836,0,0,1-5.373-12.506,19.182,19.182,0,0,1,.192-2.777l.116.041,11.529,4.472Zm2.909,2.332-.051-.051a9.269,9.269,0,0,1-1.2-.84l-.076-.056,6.622-9.445a5.739,5.739,0,0,0,1.366.971Zm9.976,2.858a17.605,17.605,0,0,1-8.14-1.831l7.892-9.683,8.292,9.445A17.579,17.579,0,0,1,190.51,242.54Zm11.135-4.1c-.41.314-.789.632-1.26.946-.01,0-.015.015-.025.035l-6.946-9.233a6.181,6.181,0,0,0,1.341-1.022l6.916,9.243A.2.2,0,0,0,201.644,238.442Zm1.538-1.462-6.754-10.624,11.484-4.862a15.778,15.778,0,0,1,.268,2.8A17.728,17.728,0,0,1,203.182,236.98Z" transform="translate(-165.748 -200.098)" fill="#9e9e9e"/>
          </g>
          <g id="Group_1933" data-name="Group 1933" transform="translate(76.891 132.243)">
            <g id="Group_1931" data-name="Group 1931" transform="translate(0 13.57)">
              <path id="Path_3513" data-name="Path 3513" d="M426.706,537.11,207.27,538.375l9.086,29.782h210.35Z" transform="translate(-192.875 -499.421)" fill="#707070"/>
              <path id="Path_3514" data-name="Path 3514" d="M179.476,521.668a5.512,5.512,0,0,0,.268,1,1.148,1.148,0,0,0,.319.5.2.2,0,0,0,.1.046,5.371,5.371,0,0,1,1.958,1.123c.3.2.617.45.992.718.223.147.425.324.668.476.177.116.374.268.6.395a12.8,12.8,0,0,0,1.093.718c.076.056.172.1.253.152.718.445,1.538.89,2.454,1.361a22.332,22.332,0,0,0,4.968,1.614c.4.071.825.177,1.219.248.2.051.395.076.622.127,1.958.4,3.946.718,5.388.946.572.091,1.062.142,1.437.2.2.02.344.045.47.071v-.03a23.26,23.26,0,1,1,45.384.03v.046h117c0-.02-.025-.02-.025-.02h.025v-.025a22.173,22.173,0,0,1-.6-5.135,23.266,23.266,0,1,1,45.96,5.135v.046h11.4c2.8,0,3-.02,5.737-.177.7-.02,1.543-.071,2.631-.142.354-.025.749-.025,1.169-.051.45-.03.87-.076,1.245-.126a5.95,5.95,0,0,0,2.206-.739c.1-.076.2-.127.3-.208a2.739,2.739,0,0,0,.764-.845,3.6,3.6,0,0,0,.3-.7,4.089,4.089,0,0,0-.081-2.13c-.02-.071-.046-.147-.071-.228a.679.679,0,0,0-.051-.217c-.046-.157-.126-.3-.172-.425a3.127,3.127,0,0,0-.3-.617,1.491,1.491,0,0,0-.1-.152v-.025a1.636,1.636,0,0,1-.223-.425c-.1-.2-.2-.395-.293-.642a5.057,5.057,0,0,1-.253-.688,3.262,3.262,0,0,1-.152-.951c0-1.811-.025-3.445-.025-4.917-.025-.491-.025-.966-.025-1.437a4.211,4.211,0,0,1-.02-.491c0-.3,0-.572-.025-.845V514.1c0-.4-.025-.749-.025-1.123-.03-.4-.051-.794-.051-1.163-.03-.349-.046-.718-.076-1.072s-.025-.668-.071-.987c-.03-.3-.051-.622-.076-.9-.051-.5-.1-.916-.147-1.371v-.02a14.859,14.859,0,0,0-1.467-5.19,1.814,1.814,0,0,0-.314-.562c-.106-.182-.228-.374-.329-.551-.344-.572-.744-1.123-1.169-1.735-.268-.354-.541-.723-.814-1.123-.374-.521-.774-1.072-1.219-1.685-4.811-6.905-56.66-7.993-64.456-11.3-3.976-1.664-34.74-18.025-44.22-20.954-4.867-1.518-6.238-1.842-28.082-1.745-1.093,0-2.185,0-3.253.051-.82,0-1.614.02-2.413.051-42.632,1.341-70.167,15.546-77.391,18.253-7.523,2.828-21.971,3.3-22.446,4.346-.051.152-.192.546-.395,1.138-.324,1-.8,2.489-1.27,4.153-.121.364-.248.769-.344,1.164-.147.521-.3,1.042-.45,1.568-.076.268-.126.541-.2.794-.2.789-.42,1.563-.572,2.277-.02.177-.071.344-.1.521a11.767,11.767,0,0,0-.268,1.447c-.025.116-.056.268-.076.415a8.019,8.019,0,0,0-.076,1,5.042,5.042,0,0,1-.172,1.361c-.056.1-.076.218-.132.324v.02a6.711,6.711,0,0,1-.941,1.361c-.02.056-.076.1-.121.172a7.955,7.955,0,0,0-.45.7c-.046.1-.1.172-.147.278a8.054,8.054,0,0,0-.44.946c-.025.091-.076.192-.1.319a8.79,8.79,0,0,0-.324,1.042C178.5,509.723,178.732,518.192,179.476,521.668Zm106-56.286a153.454,153.454,0,0,0-1.366,20.605v.02c-7.872-.47-15.445-.986-22.173-1.487l-2.013-.152c-1.958-.126-3.845-.273-5.636-.42-5.99-.476-10.877-.87-14.18-1.194-.648-.051-1.245-.1-1.761-.177-.273-.02-.526-.045-.749-.071-.445-.056-.845-.076-1.138-.126-.476-.071-.769-.116-.87-.147-2.681-.936,15.071-11.3,22.765-13.507.475-.147.966-.273,1.467-.395a107.046,107.046,0,0,1,14.327-2.433,72.955,72.955,0,0,1,7.376-.471C282.344,465.432,283.73,465.4,285.475,465.382Zm71.26,21.6a1.529,1.529,0,0,1-.521.3c-1.366.551-4.644.845-9.288.971-1.639.046-3.455.071-5.388.071-5.337,0-11.722-.127-18.723-.374-2.261-.076-4.568-.177-6.931-.268h-.02c-4.72-.2-9.612-.43-14.555-.708-1.234-.071-2.479-.147-3.723-.192-3.718-.2-7.452-.4-11.12-.627v-.02a156.129,156.129,0,0,1,1.386-20.782c8.6-.121,22.426-.268,27.465.551,2.236.374,14.651,5.383,25.426,10.649,1.695.845,3.359,1.664,4.922,2.484a.02.02,0,0,1,.02.02c2.084,1.093,4.022,2.185,5.706,3.207a29.633,29.633,0,0,1,4.821,3.475,6.047,6.047,0,0,1,.541.567C356.983,486.584,356.953,486.786,356.735,486.978Z" transform="translate(-178.816 -462.609)" fill="#fff"/>
              <path id="Path_3515" data-name="Path 3515" d="M391.6,488.741c19.866,1.194,41.154,2.2,55.066,2.17,1.948,0,3.754-.025,5.388-.076,4.649-.127,7.937-.42,9.288-.966.668-.263.88-.577.556-.971-5.023-5.975-37.714-19.785-41.438-20.4-5.049-.82-18.87-.678-27.465-.557A153.628,153.628,0,0,0,391.6,488.741Z" transform="translate(-283.953 -465.196)" fill="#9d9d9d"/>
              <path id="Path_3516" data-name="Path 3516" d="M290.764,484.941c1.118.39,23.367,2.206,48.505,3.764a157,157,0,0,1,1.381-20.615c-1.74.02-3.126.046-3.951.046a103.016,103.016,0,0,0-23.175,3.3C305.835,473.635,288.088,484,290.764,484.941Z" transform="translate(-233.996 -465.317)" fill="#9d9d9d"/>
              <path id="Path_3517" data-name="Path 3517" d="M391.6,488.741c19.871,1.194,41.149,2.2,55.061,2.17,1.953,0,3.759-.025,5.388-.076,4.649-.127,7.937-.42,9.288-.966.668-.263.88-.577.557-.971-5.024-5.975-37.714-19.785-41.438-20.4-5.054-.82-18.875-.678-27.47-.557A156.107,156.107,0,0,0,391.6,488.741Zm54.55.911c-14.792,0-36.9-1.128-53.3-2.094a153.263,153.263,0,0,1,1.255-18.379c2.914-.046,6.329-.076,9.749-.076,8.287,0,13.806.223,16.4.642,3.263.536,33.08,13.067,39.895,19.168a47.22,47.22,0,0,1-8.135.668c-1.624.051-3.415.071-5.352.071Z" transform="translate(-283.953 -465.196)" fill="#d9d9d9"/>
              <path id="Path_3518" data-name="Path 3518" d="M290.773,484.941c1.118.39,23.367,2.206,48.505,3.764a157.015,157.015,0,0,1,1.381-20.615c-1.74.02-3.126.046-3.951.046a102.94,102.94,0,0,0-23.17,3.3C305.839,473.635,288.092,484,290.773,484.941Zm1.831-1c3.374-2.848,15.055-9.516,21.288-11.3a101.507,101.507,0,0,1,22.816-3.248c.587,0,1.452-.015,2.535-.03a154.4,154.4,0,0,0-1.214,18C316.376,486.019,297.856,484.537,292.6,483.945Z" transform="translate(-234 -465.317)" fill="#d9d9d9"/>
              <path id="Path_3519" data-name="Path 3519" d="M496.34,495.353c0,1.573.2,3.582.359,5.11.395,3.7,3.653.212,4.361.718.946.683-2.155,1.8-2.636,2.545a84.737,84.737,0,0,0,9.47.5c4.639-.121,5.327-.784,5.211-1.538a63.21,63.21,0,0,0-9.157-6.9c-.749-.43-1.427-.809-2.1-1.128-.015-.025-.025-.025-.04-.025a8.246,8.246,0,0,0-2.98-.845C497.954,493.714,496.34,494.038,496.34,495.353Z" transform="translate(-335.707 -478.011)" fill="#fff"/>
              <path id="Path_3520" data-name="Path 3520" d="M648.82,533.376c1.042,3.966,2.292,7.528,6.693,8.57,3.293.683,6.855.465,10.335.364-.617-4.533-1.841-6.025-4.133-9.182C657.425,533.1,653.054,533.047,648.82,533.376Z" transform="translate(-411.048 -497.442)" fill="#efefef"/>
              <path id="Path_3521" data-name="Path 3521" d="M179.477,544.96a5.516,5.516,0,0,0,.268,1,1.148,1.148,0,0,0,.319.5.159.159,0,0,0,.1.025,5.067,5.067,0,0,1,1.958,1.143c.3.2.617.45.992.719.223.147.425.324.668.476.177.116.374.268.6.395a12.811,12.811,0,0,0,1.093.718c.076.056.172.1.253.152.718.445,1.538.89,2.454,1.361a22.332,22.332,0,0,0,4.968,1.614c.4.071.825.177,1.219.248.2.051.395.076.622.126,1.958.4,3.946.718,5.388.946.572.071,1.062.142,1.437.2.2.02.344.046.47.046a23.26,23.26,0,1,1,45.384.03v.025h117v-.025a22.17,22.17,0,0,1-.6-5.135,23.266,23.266,0,1,1,45.96,5.135v.025h11.4c2.8,0,3-.025,5.737-.157.7-.051,1.543-.091,2.631-.142.354-.025.749-.025,1.169-.051.45-.03.87-.076,1.245-.127a6.909,6.909,0,0,0,2.206-.739c.1-.076.2-.126.3-.207a2.741,2.741,0,0,0,.764-.845,3.6,3.6,0,0,0,.3-.7,4.087,4.087,0,0,0-.081-2.13c-.02-.071-.046-.147-.071-.228a.682.682,0,0,0-.051-.218c-.046-.157-.127-.3-.172-.425a3.126,3.126,0,0,0-.3-.617,1.505,1.505,0,0,0-.1-.152v-.025a1.642,1.642,0,0,1-.223-.425c-.1-.2-.2-.395-.293-.642a5.047,5.047,0,0,1-.253-.688,3.262,3.262,0,0,1-.152-.951c0-1.811-.025-3.445-.025-4.917-.025-.491-.025-.966-.025-1.437a4.2,4.2,0,0,1-.02-.491c0-.3,0-.572-.025-.845V537.4c0-.4-.025-.749-.025-1.123-.03-.4-.051-.794-.051-1.164-.03-.349-.046-.718-.076-1.072s-.025-.668-.071-.986c-.03-.3-.051-.622-.076-.9-.051-.5-.1-.916-.147-1.371v-.02c-1.513.051-3.035.127-4.543.127a34.179,34.179,0,0,1-4.543-.273c-.4-.071-.794-.147-1.2-.228a7.452,7.452,0,0,1-3.769-2.11c-1.513-1.644-2.256-3.951-2.9-6.435v-.02l-231-12.076c-.324,1-.8,2.489-1.27,4.153-.121.364-.248.769-.344,1.164-.147.521-.3,1.042-.45,1.568-.076.268-.126.541-.2.794-.2.789-.42,1.563-.572,2.276-.02.177-.071.344-.1.521a11.785,11.785,0,0,0-.268,1.447c-.025.116-.056.268-.076.415a8.019,8.019,0,0,0-.076,1,5.042,5.042,0,0,1-.172,1.361c-.056.1-.076.217-.132.324v.02a6.708,6.708,0,0,1-.941,1.361c-.02.056-.076.1-.121.172a7.971,7.971,0,0,0-.45.7c-.046.1-.1.172-.147.278a8.084,8.084,0,0,0-.44.946c-.025.091-.076.192-.1.319a8.777,8.777,0,0,0-.324,1.042C178.5,533.016,178.733,541.485,179.477,544.96Z" transform="translate(-178.817 -485.902)" fill="#cdcdcd" opacity="0.56"/>
              <path id="Path_3522" data-name="Path 3522" d="M251.655,588.76a18.87,18.87,0,1,0-18.875-18.87A18.889,18.889,0,0,0,251.655,588.76Z" transform="translate(-205.48 -506.294)" fill="#4c4c4c"/>
              <g id="Group_1926" data-name="Group 1926" transform="translate(31.069 48.5)">
                <path id="Path_3523" data-name="Path 3523" d="M240.96,573.917A14.737,14.737,0,1,0,255.7,559.17,14.732,14.732,0,0,0,240.96,573.917Z" transform="translate(-240.591 -558.821)" fill="#878787"/>
                <g id="Group_1925" data-name="Group 1925">
                  <path id="Path_3524" data-name="Path 3524" d="M240.23,573.576a15.043,15.043,0,0,0,4.507,10.73l.056.051,1.1,1,.035.03c.329.258.678.506,1.017.734l1.391.835a15,15,0,0,0,13.978.015,11.107,11.107,0,0,0,1.376-.82c.364-.238.708-.486,1.047-.754l1.179-1.062a15.019,15.019,0,0,0,4.518-10.745,13.658,13.658,0,0,0-.223-2.55,8.917,8.917,0,0,0-.349-1.558,9.017,9.017,0,0,0-.395-1.219c-.192-.5-.41-.992-.648-1.467a15.123,15.123,0,0,0-11.271-8.15,14.97,14.97,0,0,0-1.578-.142c-.212-.02-.41-.02-.627-.02-.233,0-.45,0-.678.02a14.662,14.662,0,0,0-1.568.142,15.086,15.086,0,0,0-11.231,8.155,10.905,10.905,0,0,0-.668,1.472c-.142.39-.288.8-.395,1.219a14.8,14.8,0,0,0-.354,1.543A14.6,14.6,0,0,0,240.23,573.576Zm2.17-4.922,8.661,2.813,1.614.516a.091.091,0,0,1-.03.051,3.079,3.079,0,0,0-.374,1.093c0,.03-.015.051-.015.071l-1.594-.516L242,569.873c0-.03.01-.041.01-.071.1-.359.228-.734.359-1.093C242.39,568.684,242.39,568.664,242.4,568.654Zm10.7,1.786-1.047-.329-2.6-.845-6.389-2.084a13.863,13.863,0,0,1,10.032-7.275v10.533Zm2.879.137h-.035a3.428,3.428,0,0,0-1.229-.01.053.053,0,0,0-.03.015h-.015V559.755a.53.53,0,0,1,.152-.015,3.694,3.694,0,0,1,.41-.015h.192a3.47,3.47,0,0,1,.516.03h.035v10.821Zm.728,2.985a1.363,1.363,0,1,1-1.361-1.356A1.359,1.359,0,0,1,256.707,573.561Zm10.912-6.39-6.44,2.094-2.57.845-1.047.329V559.907A13.859,13.859,0,0,1,267.619,567.171Zm1.052,2.691-8.7,2.813-1.634.541v-.035a2.942,2.942,0,0,0-.4-1.169c0-.015-.01-.015-.01-.02l1.669-.531,8.681-2.823a.581.581,0,0,0,.035.1,9.729,9.729,0,0,1,.359,1.088C268.671,569.842,268.671,569.842,268.671,569.863Zm-7.5,7.907-1.583-2.185-.637-.9,1.012-.339,2.57-.825,6.465-2.11a12.162,12.162,0,0,1,.177,2.16,13.694,13.694,0,0,1-4.007,9.718Zm-3.617-.076-.971-1.356a.116.116,0,0,0,.086-.04,2.518,2.518,0,0,0,.89-.673c.015,0,.04-.025.056-.056l.992,1.351,5.4,7.447a.134.134,0,0,0-.025.03c-.314.233-.617.476-.976.713-.015,0-.015.015-.03.03Zm-8.458,8.221,4-5.5,1.568-2.185.658-.9.653.88,1.578,2.2,4.022,5.514a13.669,13.669,0,0,1-12.48-.01Zm-2.423-1.558,5.383-7.437.956-1.326c.03.025.051.051.076.071a2.607,2.607,0,0,0,.87.627c.04.025.051.04.086.066l-.941,1.32-5.413,7.421-.051-.035a8.591,8.591,0,0,1-.9-.648Zm-5.2-10.781a13.393,13.393,0,0,1,.182-2.145l6.425,2.094,2.575.825,1.027.339-.627.9-1.609,2.185-3.976,5.509A13.748,13.748,0,0,1,241.48,573.576Z" transform="translate(-240.23 -558.48)" fill="#fafafa"/>
                </g>
              </g>
              <path id="Path_3525" data-name="Path 3525" d="M572.485,588.76a18.87,18.87,0,1,0-18.875-18.87A18.9,18.9,0,0,0,572.485,588.76Z" transform="translate(-364.004 -506.294)" fill="#4c4c4c"/>
              <g id="Group_1928" data-name="Group 1928" transform="translate(193.375 48.5)">
                <path id="Path_3526" data-name="Path 3526" d="M561.77,573.917a14.742,14.742,0,1,0,14.747-14.747A14.744,14.744,0,0,0,561.77,573.917Z" transform="translate(-561.411 -558.821)" fill="#878787"/>
                <g id="Group_1927" data-name="Group 1927">
                  <path id="Path_3527" data-name="Path 3527" d="M561.06,573.576a15.022,15.022,0,0,0,4.508,10.73l.045.051,1.108,1,.035.03c.329.258.678.506,1.017.734l1.4.835a14.99,14.99,0,0,0,13.973.015,11.558,11.558,0,0,0,1.381-.82c.364-.238.7-.486,1.042-.754l1.184-1.062a15,15,0,0,0,4.523-10.745,14.575,14.575,0,0,0-.228-2.55,8.495,8.495,0,0,0-.349-1.558,9.789,9.789,0,0,0-.39-1.219c-.2-.5-.415-.992-.658-1.467a15.114,15.114,0,0,0-11.261-8.15,15.312,15.312,0,0,0-1.583-.142c-.212-.02-.415-.02-.627-.02-.233,0-.45,0-.673.02a14.319,14.319,0,0,0-1.568.142,15.112,15.112,0,0,0-11.246,8.155,10.8,10.8,0,0,0-.658,1.472,11.825,11.825,0,0,0-.39,1.219,12.578,12.578,0,0,0-.354,1.543A14.118,14.118,0,0,0,561.06,573.576Zm2.17-4.922,8.661,2.813,1.614.516c0,.015-.02.035-.04.051a3.283,3.283,0,0,0-.369,1.093c0,.03-.015.051-.015.071l-1.594-.516-8.656-2.808c0-.03.015-.041.015-.071a11.45,11.45,0,0,1,.359-1.093C563.215,568.684,563.215,568.664,563.23,568.654Zm10.7,1.786-1.047-.329-2.6-.845-6.389-2.084a13.826,13.826,0,0,1,10.032-7.275v10.533Zm2.874.137h-.035a2.457,2.457,0,0,0-.638-.061,2.53,2.53,0,0,0-.592.051.034.034,0,0,0-.025.015h-.01V559.755a.48.48,0,0,1,.147-.015,3.694,3.694,0,0,1,.415-.015h.187a3.505,3.505,0,0,1,.516.03h.035Zm.734,2.985a1.366,1.366,0,1,1-1.366-1.356A1.364,1.364,0,0,1,577.537,573.561Zm10.907-6.39L582,569.266l-2.575.845-1.042.329V559.907A13.85,13.85,0,0,1,588.444,567.171Zm1.057,2.691-8.706,2.813-1.634.541v-.035a2.792,2.792,0,0,0-.4-1.169c0-.015-.005-.015-.005-.02l1.669-.531,8.671-2.823a.421.421,0,0,1,.04.1,10.965,10.965,0,0,1,.364,1.088ZM582,577.77l-1.583-2.185-.642-.9,1.017-.339,2.575-.825,6.47-2.11a12.657,12.657,0,0,1,.172,2.16,13.672,13.672,0,0,1-4.007,9.718Zm-3.617-.076-.981-1.356a.1.1,0,0,0,.086-.04,2.582,2.582,0,0,0,.9-.673.136.136,0,0,0,.051-.056l.992,1.351,5.393,7.447a.054.054,0,0,1-.02.03c-.319.233-.622.476-.982.713-.015,0-.015.015-.025.03Zm-8.469,8.221,4.012-5.5,1.568-2.185.648-.9.658.88,1.583,2.2,4.022,5.514a13.69,13.69,0,0,1-12.49-.01Zm-2.418-1.558,5.388-7.437.956-1.326a.344.344,0,0,0,.076.071,2.589,2.589,0,0,0,.865.627c.035.025.051.04.091.066l-.941,1.32-5.418,7.421-.051-.035a9.335,9.335,0,0,1-.911-.648Zm-5.185-10.781a13.375,13.375,0,0,1,.177-2.145l6.425,2.094,2.575.825,1.027.339-.622.9-1.609,2.185-3.977,5.509A13.7,13.7,0,0,1,562.315,573.576Z" transform="translate(-561.06 -558.48)" fill="#fafafa"/>
                </g>
              </g>
              <g id="Group_1929" data-name="Group 1929" transform="translate(109.599 3.901)" opacity="0.18">
                <path id="Path_3528" data-name="Path 3528" d="M395.46,475.541a130.827,130.827,0,0,1,14.362.794,147.872,147.872,0,0,1,34.638,8.307c.658.217,1.356.465,2.1.754-.04-.562-.061-1.113-.061-1.634,0-1.164,1.255-1.548,2.16-1.578-10.963-5.428-24.364-10.867-26.483-11.221-2.6-.42-8.12-.642-16.406-.642-3.415,0-6.835.035-9.744.076C395.814,472.161,395.622,473.881,395.46,475.541Z" transform="translate(-395.46 -470.32)" fill="#fff"/>
              </g>
              <g id="Group_1930" data-name="Group 1930" transform="translate(88.088 4.053)" opacity="0.18">
                <path id="Path_3529" data-name="Path 3529" d="M352.94,472.107c5.646.415,11.064,2.8,16.684,2.8.142-1.4.293-2.823.465-4.29-1.078.015-1.948.02-2.535.02A99.986,99.986,0,0,0,352.94,472.107Z" transform="translate(-352.94 -470.62)" fill="#fff"/>
              </g>
            </g>
            <g id="Group_1932" data-name="Group 1932" transform="translate(150.693)">
              <path id="Path_3530" data-name="Path 3530" d="M559.737,536.98l-83.047.476V568h83.047Z" transform="translate(-476.69 -485.786)" fill="#707070"/>
              <path id="Path_3531" data-name="Path 3531" d="M510.878,490.981c-3.015-1.27-21.323-10.963-34.188-16.831v2.919c10.771,4.69,24.141,11.246,27.187,14.893.283.319.187.6-.253.825a2.847,2.847,0,0,1-.283.157,7.392,7.392,0,0,1-1.366.344,57.322,57.322,0,0,1-7.922.607c-1.619.061-3.425.061-5.388.061-3.546,0-7.6-.061-11.975-.157v43.218h35.1v-.056a22.786,22.786,0,0,1-.6-5.135,23.258,23.258,0,0,1,46.517,0,20.925,20.925,0,0,1-.607,5.135v.03h.03s-.03,0-.03.025H568.51c2.125,0,2.757,0,4.083-.1.6,0,1.331-.061,2.413-.121.536-.035,1.138-.061,1.872-.1.349-.03.759-.03,1.169-.066a9.065,9.065,0,0,0,2.378-.415c.121-.03.218-.066.314-.091a1.945,1.945,0,0,0,.379-.2,2.14,2.14,0,0,0,.668-.374,2.526,2.526,0,0,0,.759-.825,2.772,2.772,0,0,0,.283-.693,3.975,3.975,0,0,0-.061-2.13.769.769,0,0,0-.061-.253.4.4,0,0,0-.066-.187,1.888,1.888,0,0,0-.157-.44c-.091-.192-.157-.354-.223-.476a.552.552,0,0,1-.1-.127V530.4s-.025-.03-.1-.126v-.03a3.255,3.255,0,0,0-.223-.41c-.061-.192-.192-.4-.283-.632a6.463,6.463,0,0,1-.258-.7,3.85,3.85,0,0,1-.152-.946c0-1.8,0-3.45-.035-4.907,0-.511-.025-.987-.025-1.462v-.476a7.727,7.727,0,0,0-.03-.855v-.132c0-.374-.035-.759-.035-1.108-.03-.41-.03-.789-.061-1.174a9.663,9.663,0,0,0-.066-1.042c0-.349-.035-.7-.061-1.017a7.463,7.463,0,0,1-.066-.885c-.061-.506-.091-.946-.157-1.4-.632-4.533-1.836-6.015-4.118-9.157-.379-.506-.764-1.047-1.2-1.68-.283-.41.1-.157-.384-.379l-.187-.127-10.679-.6-.481-.03-.663-.035h-.03l-47.058-2.661-3.01-.192v-6.683h-.035A16.639,16.639,0,0,1,510.878,490.981Z" transform="translate(-476.69 -454.742)" fill="#fff"/>
              <path id="Path_3532" data-name="Path 3532" d="M476.69,479.92v16.73c4.371.1,8.428.157,11.974.157,1.963,0,3.774,0,5.388-.061a56.519,56.519,0,0,0,7.922-.607,7.231,7.231,0,0,0,1.366-.374,2.216,2.216,0,0,0,.283-.126c.44-.228.536-.506.253-.825C500.831,491.166,487.465,484.61,476.69,479.92Z" transform="translate(-476.69 -457.593)" fill="#9d9d9d"/>
              <path id="Path_3533" data-name="Path 3533" d="M488.761,486.891c5.863,2.919,11.028,5.8,13.376,7.922a45.2,45.2,0,0,1-8.114.663c-1.619.066-3.425.1-5.357.1h-.5c-3.491,0-7.356-.066-11.474-.187v1.265c4.371.1,8.428.157,11.974.157,1.963,0,3.774,0,5.388-.061a56.519,56.519,0,0,0,7.922-.607,7.231,7.231,0,0,0,1.366-.374,2.216,2.216,0,0,0,.283-.126c.44-.228.536-.506.253-.825-3.045-3.642-16.416-10.2-27.187-14.893v1.366C480.621,483,484.83,484.923,488.761,486.891Z" transform="translate(-476.69 -457.593)" fill="#d9d9d9"/>
              <path id="Path_3534" data-name="Path 3534" d="M496.26,495.268c0,1.563.2,3.572.359,5.094.395,3.7,3.647.213,4.356.718.946.688-2.16,1.8-2.636,2.545a82.057,82.057,0,0,0,9.46.491c4.644-.116,5.332-.779,5.211-1.538a64.075,64.075,0,0,0-9.152-6.89c-.744-.425-1.427-.809-2.1-1.123-.01-.03-.02-.03-.035-.03a8.272,8.272,0,0,0-2.97-.835C497.884,493.624,496.26,493.948,496.26,495.268Z" transform="translate(-486.36 -464.396)" fill="#fff"/>
              <path id="Path_3535" data-name="Path 3535" d="M648.62,533.251c1.042,3.966,2.3,7.528,6.688,8.57,3.283.683,6.85.47,10.325.364-.617-4.533-1.852-6.02-4.133-9.172C657.21,532.978,652.844,532.922,648.62,533.251Z" transform="translate(-561.642 -483.813)" fill="#efefef"/>
              <path id="Path_3536" data-name="Path 3536" d="M563.673,529.043,476.7,524.51v37.36h35.1v-.03a22.783,22.783,0,0,1-.6-5.135,23.258,23.258,0,0,1,46.517,0,20.931,20.931,0,0,1-.607,5.135v.03H568.52c2.125,0,2.757,0,4.082-.066.6-.025,1.33-.061,2.413-.121.536-.035,1.138-.06,1.872-.1.349-.03.759-.03,1.169-.066a9.07,9.07,0,0,0,2.378-.415,2.088,2.088,0,0,0,.693-.288,2.139,2.139,0,0,0,.668-.374,3.7,3.7,0,0,0,.759-.825,2.781,2.781,0,0,0,.283-.693,3.977,3.977,0,0,0-.061-2.13.768.768,0,0,0-.061-.253.4.4,0,0,0-.066-.187,1.877,1.877,0,0,0-.157-.44c-.091-.192-.157-.354-.223-.476a1.009,1.009,0,0,0-.1-.126v-.035s-.025-.03-.1-.126v-.03a3.228,3.228,0,0,0-.222-.41c-.061-.192-.192-.4-.283-.632a6.508,6.508,0,0,1-.258-.7,3.852,3.852,0,0,1-.152-.946c0-1.8,0-3.45-.035-4.907,0-.511-.025-.987-.025-1.462v-.475a7.712,7.712,0,0,0-.03-.855V544.6c0-.374-.035-.759-.035-1.108,0-.41-.03-.789-.03-1.174-.025-.349-.061-.728-.061-1.042-.03-.349-.066-.7-.1-1.017a7.426,7.426,0,0,1-.066-.885c-.061-.506-.091-.946-.157-1.4a44.08,44.08,0,0,1-10.265-.349C565.95,536.586,564.72,533,563.673,529.043Z" transform="translate(-476.695 -479.625)" fill="#cdcdcd" opacity="0.56"/>
              <path id="Path_3537" data-name="Path 3537" d="M572.33,588.584a18.857,18.857,0,1,0-18.86-18.86A18.882,18.882,0,0,0,572.33,588.584Z" transform="translate(-514.628 -492.65)" fill="#4c4c4c"/>
              <path id="Path_3538" data-name="Path 3538" d="M561.65,573.757a14.724,14.724,0,1,0,14.721-14.727A14.725,14.725,0,0,0,561.65,573.757Z" transform="translate(-518.669 -496.682)" fill="#878787"/>
              <path id="Path_3539" data-name="Path 3539" d="M560.91,573.391a15.071,15.071,0,0,0,4.5,10.725l.056.056,1.1.986.03.02a12.4,12.4,0,0,0,1.022.739l1.4.83a14.978,14.978,0,0,0,13.958.01,10.812,10.812,0,0,0,1.386-.815c.364-.233.7-.486,1.037-.749l1.179-1.072a15.11,15.11,0,0,0,4.518-10.735,14.191,14.191,0,0,0-.223-2.55,9.05,9.05,0,0,0-.359-1.558,9.977,9.977,0,0,0-.385-1.219,15.8,15.8,0,0,0-.652-1.467,14.771,14.771,0,0,0-12.84-8.276,5.107,5.107,0,0,0-.622-.025,5.931,5.931,0,0,0-.673.025,13.49,13.49,0,0,0-1.573.132,15.122,15.122,0,0,0-11.231,8.16,11.186,11.186,0,0,0-.668,1.467c-.137.395-.283.809-.385,1.219a12.348,12.348,0,0,0-.354,1.553A14.176,14.176,0,0,0,560.91,573.391Zm12.1,5.14-4.639,6.379-.041-.045a7.488,7.488,0,0,1-.916-.648l-.066-.045,4.073-5.641,1.305-1.791.956-1.325a.337.337,0,0,1,.071.076,2.731,2.731,0,0,0,.865.627,1.074,1.074,0,0,1,.1.061l-.946,1.32Zm4.239-2.383a.135.135,0,0,0,.091-.035,2.551,2.551,0,0,0,.89-.673.125.125,0,0,0,.051-.061l.992,1.356,1.305,1.791,4.093,5.651c-.015.01-.015.01-.02.025-.319.233-.617.476-.987.713-.015,0-.015.01-.025.025l-4.654-6.415-.754-1.027Zm1.761-3.111V573a3,3,0,0,0-.4-1.164c0-.01-.02-.01-.02-.025l1.67-.526,8.676-2.823a.224.224,0,0,0,.046.1c.137.349.253.754.359,1.088v.025L580.63,572.5Zm-2.99,1.715a1.366,1.366,0,0,1-1.366-1.376,1.363,1.363,0,0,1,2.727,0A1.374,1.374,0,0,1,576.016,574.752Zm-4.674-2.256-8.661-2.8c0-.03,0-.046,0-.066.106-.359.233-.739.369-1.108.01-.01.01-.035.02-.046l8.656,2.808,1.619.511a.043.043,0,0,1-.035.051,2.94,2.94,0,0,0-.369,1.1c0,.02-.01.051-.01.071Zm-7.6-5.489a13.892,13.892,0,0,1,10.027-7.27v10.528l-1.042-.339-2.6-.84ZM575.9,559.55h.192a4.011,4.011,0,0,1,.511.025h.03v10.811H576.6a2.918,2.918,0,0,0-.632-.061,3.259,3.259,0,0,0-.592.051.038.038,0,0,0-.025.01h-.01V559.575a.357.357,0,0,1,.147-.02C575.631,559.55,575.768,559.55,575.9,559.55Zm12.369,7.442-6.435,2.094-2.575.84-1.037.339V559.737A13.833,13.833,0,0,1,588.274,566.991Zm1.573,6.4a13.765,13.765,0,0,1-4,9.713l-3.314-4.573-.693-.951-1.578-2.185-.637-.885,1.012-.339,2.575-.825,6.46-2.11A11.652,11.652,0,0,1,589.847,573.391Zm-13.831,13.841a13.539,13.539,0,0,1-6.248-1.5l4-5.509,1.2-1.685.369-.5.648-.89.653.88.384.511,1.2,1.685,4.012,5.519A13.539,13.539,0,0,1,576.016,587.232Zm-9.855-4.148a13.57,13.57,0,0,1-3.005-4.553,13.709,13.709,0,0,1-.992-5.14,13.432,13.432,0,0,1,.182-2.145l6.42,2.094,2.58.825,1.027.339-.633.885-1.6,2.185-.688.951Z" transform="translate(-518.304 -496.316)" fill="#fafafa"/>
              <path id="Path_3540" data-name="Path 3540" d="M488.761,488.225c-3.931-1.963-8.14-3.9-12.071-5.605v5.413c2.469.764,5.069,1.649,7.856,2.636.663.217,1.361.475,2.089.754-.035-.567-.066-1.1-.066-1.614C486.575,488.635,487.845,488.256,488.761,488.225Z" transform="translate(-476.69 -458.927)" fill="#fff" opacity="0.18"/>
              <path id="Path_3541" data-name="Path 3541" d="M548.02,472.6c.01,0,.035.015.051.015v6.673l3.01.177,36.2-33.106,1.017-.936,10.528-9.632C590.444,435.494,558.679,465.711,548.02,472.6Z" transform="translate(-511.935 -435.786)" fill="#9d9d9d"/>
              <path id="Path_3542" data-name="Path 3542" d="M547.99,508.565l.061.132v-.132c-.015,0-.041-.015-.051-.015A.01.01,0,0,1,547.99,508.565Z" transform="translate(-511.92 -471.739)" fill="#898989"/>
              <path id="Path_3543" data-name="Path 3543" d="M625.62,455.756l10.831,35.782h.046l.668.035.471.03.126-.04L626.637,454.82Z" transform="translate(-550.277 -445.191)" fill="#bbb"/>
            </g>
          </g>
        </g>
      </g>
    </g>
  </g>
</svg>
