<svg xmlns="http://www.w3.org/2000/svg" xmlns:xlink="http://www.w3.org/1999/xlink" width="458" height="458" viewBox="0 0 458 458">
  <defs>
    <linearGradient id="linear-gradient" x1="0.865" y1="0.178" x2="0.152" y2="0.822" gradientUnits="objectBoundingBox">
      <stop offset="0" stop-color="#fdb819"/>
      <stop offset="1" stop-color="#fff"/>
    </linearGradient>
  </defs>
  <g id="Group_2051" data-name="Group 2051" transform="translate(-1018 -2656)">
    <circle id="Ellipse_8" data-name="Ellipse 8" cx="229" cy="229" r="229" transform="translate(1018 3114) rotate(-90)" fill="url(#linear-gradient)"/>
    <g id="Dismental_your_salvage_without_throwing_things_away" data-name="Dismental your salvage without throwing things away" transform="translate(1046.632 2702.574)">
      <g id="Group_1934" data-name="Group 1934" transform="translate(10.368 67.426)">
        <g id="Group_1915" data-name="Group 1915" transform="translate(332.608 53.761)">
          <path id="Path_3413" data-name="Path 3413" d="M753.4,294.894v39.447a1.51,1.51,0,0,1-1.178,1.474,1.442,1.442,0,0,1-.332.041H734.339a1.514,1.514,0,0,1-1.509-1.514V294.895a1.51,1.51,0,0,1,1.509-1.514h17.551a1.784,1.784,0,0,1,.332.036A1.515,1.515,0,0,1,753.4,294.894Z" transform="translate(-705.432 -286.46)" fill="#949494"/>
          <g id="Group_1913" data-name="Group 1913" transform="translate(29.014 6.92)" opacity="0.85">
            <path id="Path_3414" data-name="Path 3414" d="M764.376,293.425v.7l-5.716,2.019v-2.759h5.385A1.433,1.433,0,0,1,764.376,293.425Z" transform="translate(-747.105 -293.384)" fill="#303030" opacity="0.41"/>
            <path id="Path_3415" data-name="Path 3415" d="M764.381,301.243l-5.711,2.014v-4.028l5.711-2.009Z" transform="translate(-747.11 -295.262)" fill="#303030" opacity="0.41"/>
            <path id="Path_3416" data-name="Path 3416" d="M764.381,311.518l-5.711,2.009V309.5l5.711-2.014Z" transform="translate(-747.11 -300.295)" fill="#303030" opacity="0.41"/>
            <path id="Path_3417" data-name="Path 3417" d="M764.381,321.788,758.67,323.8v-4.028l5.711-2.009Z" transform="translate(-747.11 -305.328)" fill="#303030" opacity="0.41"/>
            <path id="Path_3418" data-name="Path 3418" d="M764.381,332.058l-5.711,2.009v-4.023l5.711-2.014Z" transform="translate(-747.11 -310.361)" fill="#303030" opacity="0.41"/>
            <path id="Path_3419" data-name="Path 3419" d="M764.381,342.323l-5.711,2.014v-4.023l5.711-2.014Z" transform="translate(-747.11 -315.394)" fill="#303030" opacity="0.41"/>
            <path id="Path_3420" data-name="Path 3420" d="M764.381,352.6l-5.711,2.014v-4.028l5.711-2.014Z" transform="translate(-747.11 -320.428)" fill="#303030" opacity="0.41"/>
            <path id="Path_3421" data-name="Path 3421" d="M764.381,362.868l-5.711,2.009v-4.023l5.711-2.014Z" transform="translate(-747.11 -325.461)" fill="#303030" opacity="0.41"/>
            <path id="Path_3422" data-name="Path 3422" d="M764.376,369.11v3.819a1.437,1.437,0,0,1-.331.041H758.66v-1.841Z" transform="translate(-747.105 -330.494)" fill="#303030" opacity="0.41"/>
            <rect id="Rectangle_203" data-name="Rectangle 203" width="1.321" height="42.471" transform="translate(9.107)" fill="#303030" opacity="0.41"/>
            <path id="Path_3423" data-name="Path 3423" d="M741.716,293.38v2.759L736,294.119v-.739Z" transform="translate(-736 -293.38)" fill="#303030" opacity="0.41"/>
            <path id="Path_3424" data-name="Path 3424" d="M736,301.243l5.711,2.014v-4.028L736,297.22Z" transform="translate(-736 -295.262)" fill="#303030" opacity="0.41"/>
            <path id="Path_3425" data-name="Path 3425" d="M736,311.518l5.711,2.009V309.5L736,307.49Z" transform="translate(-736 -300.295)" fill="#303030" opacity="0.41"/>
            <path id="Path_3426" data-name="Path 3426" d="M736,321.788l5.711,2.009v-4.028L736,317.76Z" transform="translate(-736 -305.328)" fill="#303030" opacity="0.41"/>
            <path id="Path_3427" data-name="Path 3427" d="M736,332.058l5.711,2.009v-4.023L736,328.03Z" transform="translate(-736 -310.361)" fill="#303030" opacity="0.41"/>
            <path id="Path_3428" data-name="Path 3428" d="M736,342.323l5.711,2.014v-4.023L736,338.3Z" transform="translate(-736 -315.394)" fill="#303030" opacity="0.41"/>
            <path id="Path_3429" data-name="Path 3429" d="M736,352.6l5.711,2.014v-4.028L736,348.57Z" transform="translate(-736 -320.428)" fill="#303030" opacity="0.41"/>
            <path id="Path_3430" data-name="Path 3430" d="M736,362.868l5.711,2.009v-4.023L736,358.84Z" transform="translate(-736 -325.461)" fill="#303030" opacity="0.41"/>
            <path id="Path_3431" data-name="Path 3431" d="M736,372.97v-3.86l5.716,2.019v1.841Z" transform="translate(-736 -330.494)" fill="#303030" opacity="0.41"/>
            <rect id="Rectangle_204" data-name="Rectangle 204" width="1.321" height="42.471" transform="translate(6.843)" fill="#303030" opacity="0.41"/>
          </g>
          <rect id="Rectangle_205" data-name="Rectangle 205" width="2.295" height="25.312" transform="translate(25.098 15.502)" fill="#c9c9c9"/>
          <rect id="Rectangle_206" data-name="Rectangle 206" width="25.664" height="6.685" transform="translate(0 24.813)" fill="#c9c9c9"/>
          <path id="Path_3432" data-name="Path 3432" d="M705.656,303.654a2.371,2.371,0,0,1-2.213,2.5h0a2.371,2.371,0,0,1-2.213-2.5V282.309a2.367,2.367,0,0,1,2.213-2.5h0a2.367,2.367,0,0,1,2.213,2.5Z" transform="translate(-689.945 -279.81)" fill="#c9c9c9"/>
          <g id="Group_1914" data-name="Group 1914" transform="translate(8.577 1.759)">
            <path id="Path_3433" data-name="Path 3433" d="M705.445,321.033a.923.923,0,0,1-.923.923h-7.679a.923.923,0,0,1-.923-.923h0a.923.923,0,0,1,.923-.923h7.679a.929.929,0,0,1,.923.923Z" transform="translate(-695.92 -301.319)" fill="#fdb819"/>
            <path id="Path_3434" data-name="Path 3434" d="M705.526,318.7a.925.925,0,0,1-1.183.556l-7.22-2.6a.927.927,0,0,1-.556-1.183h0a.918.918,0,0,1,1.178-.556l7.226,2.6a.927.927,0,0,1,.556,1.183Z" transform="translate(-696.21 -298.748)" fill="#fdb819"/>
            <path id="Path_3435" data-name="Path 3435" d="M705.445,315.773a.923.923,0,0,1-.923.923h-7.679a.923.923,0,0,1-.923-.923h0a.923.923,0,0,1,.923-.923h7.679a.923.923,0,0,1,.923.923Z" transform="translate(-695.92 -298.742)" fill="#fdb819"/>
            <path id="Path_3436" data-name="Path 3436" d="M705.526,313.436a.925.925,0,0,1-1.183.556l-7.22-2.606a.925.925,0,0,1-.556-1.183h0a.918.918,0,0,1,1.178-.556l7.226,2.6a.935.935,0,0,1,.556,1.188Z" transform="translate(-696.21 -296.165)" fill="#fdb819"/>
            <path id="Path_3437" data-name="Path 3437" d="M705.445,310.508a.923.923,0,0,1-.923.923h-7.679a.923.923,0,0,1-.923-.923h0a.918.918,0,0,1,.923-.918h7.679a.922.922,0,0,1,.923.918Z" transform="translate(-695.92 -296.164)" fill="#fdb819"/>
            <path id="Path_3438" data-name="Path 3438" d="M705.526,308.176a.918.918,0,0,1-1.183.551l-7.22-2.6a.925.925,0,0,1-.556-1.183h0a.918.918,0,0,1,1.178-.556l7.226,2.6a.933.933,0,0,1,.556,1.188Z" transform="translate(-696.21 -293.587)" fill="#fdb819"/>
            <path id="Path_3439" data-name="Path 3439" d="M705.445,305.243a.923.923,0,0,1-.923.923h-7.679a.923.923,0,0,1-.923-.923h0a.923.923,0,0,1,.923-.923h7.679a.923.923,0,0,1,.923.923Z" transform="translate(-695.92 -293.581)" fill="#fdb819"/>
            <path id="Path_3440" data-name="Path 3440" d="M705.526,302.916a.918.918,0,0,1-1.183.551l-7.22-2.6a.923.923,0,0,1-.556-1.183h0a.918.918,0,0,1,1.178-.556l7.226,2.6a.931.931,0,0,1,.556,1.188Z" transform="translate(-696.21 -291.009)" fill="#fdb819"/>
            <path id="Path_3441" data-name="Path 3441" d="M705.445,299.978a.923.923,0,0,1-.923.923h-7.679a.923.923,0,0,1-.923-.923h0a.927.927,0,0,1,.923-.928h7.679a.924.924,0,0,1,.923.928Z" transform="translate(-695.92 -290.998)" fill="#fdb819"/>
            <path id="Path_3442" data-name="Path 3442" d="M705.526,297.646a.929.929,0,0,1-1.183.556l-7.22-2.606a.925.925,0,0,1-.556-1.183h0a.917.917,0,0,1,1.178-.556l7.226,2.6a.933.933,0,0,1,.556,1.188Z" transform="translate(-696.21 -288.426)" fill="#fdb819"/>
            <path id="Path_3443" data-name="Path 3443" d="M705.445,294.713a.927.927,0,0,1-.923.928h-7.679a.927.927,0,0,1-.923-.928h0a.923.923,0,0,1,.923-.923h7.679a.923.923,0,0,1,.923.923Z" transform="translate(-695.92 -288.421)" fill="#fdb819"/>
            <path id="Path_3444" data-name="Path 3444" d="M705.526,292.378a.925.925,0,0,1-1.183.556l-7.22-2.606a.922.922,0,0,1-.556-1.178h0a.924.924,0,0,1,1.178-.561l7.226,2.606a.925.925,0,0,1,.556,1.183Z" transform="translate(-696.21 -285.846)" fill="#fdb819"/>
            <path id="Path_3445" data-name="Path 3445" d="M705.445,289.443a.927.927,0,0,1-.923.928h-7.679a.924.924,0,0,1-.923-.928h0a.923.923,0,0,1,.923-.923h7.679a.929.929,0,0,1,.923.923Z" transform="translate(-695.92 -285.838)" fill="#fdb819"/>
            <path id="Path_3446" data-name="Path 3446" d="M705.526,287.121a.925.925,0,0,1-1.183.556l-7.22-2.6a.929.929,0,0,1-.556-1.183h0a.918.918,0,0,1,1.178-.556l7.226,2.6a.923.923,0,0,1,.556,1.183Z" transform="translate(-696.21 -283.271)" fill="#fdb819"/>
            <path id="Path_3447" data-name="Path 3447" d="M705.445,284.183a.923.923,0,0,1-.923.923h-7.679a.923.923,0,0,1-.923-.923h0a.923.923,0,0,1,.923-.923h7.679a.923.923,0,0,1,.923.923Z" transform="translate(-695.92 -283.26)" fill="#fdb819"/>
          </g>
        </g>
        <g id="Group_1916" data-name="Group 1916" transform="translate(285.578 22.309)">
          <rect id="Rectangle_207" data-name="Rectangle 207" width="42.18" height="28.729" transform="translate(2.111 8.48)" fill="#fbfbfb"/>
          <rect id="Rectangle_208" data-name="Rectangle 208" width="45.923" height="3.233" transform="translate(0 5.247)" fill="#001327"/>
          <path id="Path_3448" data-name="Path 3448" d="M602.875,220.583v2.8H597.97v-2.8a2.453,2.453,0,0,1,4.905,0Z" transform="translate(-592.31 -218.13)" fill="#9b9b9b"/>
          <path id="Path_3449" data-name="Path 3449" d="M660.865,220.583v2.8H655.96v-2.8a2.45,2.45,0,0,1,2.453-2.453,2.422,2.422,0,0,1,1.734.719A2.393,2.393,0,0,1,660.865,220.583Z" transform="translate(-620.73 -218.13)" fill="#c9c9c9"/>
          <path id="Path_3450" data-name="Path 3450" d="M607.755,252.225v2.254h-3.1v3.1h-2.249v-3.1H599.3v-2.254h3.106v-3.1h2.249v3.1Z" transform="translate(-592.962 -233.323)" fill="#001327"/>
          <rect id="Rectangle_209" data-name="Rectangle 209" width="8.454" height="2.249" transform="translate(31.686 18.903)" fill="#001327"/>
          <path id="Path_3451" data-name="Path 3451" d="M632.516,246.11l-5.986,6.9h2.881L626.53,258.7l6.481-7.445-2.708.066Z" transform="translate(-606.307 -231.842)" fill="#fdb819"/>
          <rect id="Rectangle_210" data-name="Rectangle 210" width="42.18" height="2.392" transform="translate(2.111 8.48)" fill="#aeaeae" opacity="0.42"/>
        </g>
        <path id="Path_3452" data-name="Path 3452" d="M429.841,207H407.134l.342-.235-3.88-5.635a0,0,0,0,0-.005-.005h4.64v5.762h20.616V201.13h4.65a0,0,0,0,1-.005.005l-3.88,5.635.342.235Z" transform="translate(-211.47 -187.49)" fill="#9e9e9e" opacity="0.7"/>
        <g id="Group_1917" data-name="Group 1917" transform="translate(154.809)">
          <path id="Path_3453" data-name="Path 3453" d="M429.4,218.928l-20.514,52.481H377.924l-11.193-28.642-7.521-19.229-1.8-4.61,11.2-11.2h49.585Z" transform="translate(-343.647 -190.724)" fill="#d8d8d8"/>
          <rect id="Rectangle_211" data-name="Rectangle 211" width="27.556" height="1.55" transform="translate(40.776 63.774) rotate(-22.135)" fill="#7b7b7b"/>
          <rect id="Rectangle_212" data-name="Rectangle 212" width="1.555" height="29.626" transform="translate(35.111 28.043) rotate(-77.679)" fill="#7b7b7b"/>
          <rect id="Rectangle_213" data-name="Rectangle 213" width="1.555" height="27.531" transform="translate(26.155 34.824) rotate(-16.775)" fill="#7b7b7b"/>
          <path id="Path_3454" data-name="Path 3454" d="M451.678,249.649a12.039,12.039,0,1,1-12.039-12.039A12.039,12.039,0,0,1,451.678,249.649Z" transform="translate(-378.046 -205.368)" fill="#fdb819"/>
          <path id="Path_3455" data-name="Path 3455" d="M396.682,233.191a7.761,7.761,0,1,1-7.761-7.761A7.76,7.76,0,0,1,396.682,233.191Z" transform="translate(-355.286 -199.399)" fill="#fdb819"/>
          <path id="Path_3456" data-name="Path 3456" d="M409.046,284.573a6.333,6.333,0,1,1-6.333-6.333A6.336,6.336,0,0,1,409.046,284.573Z" transform="translate(-362.746 -225.28)" fill="#fdb819"/>
          <path id="Path_3457" data-name="Path 3457" d="M451.357,257.456a3.914,3.914,0,1,1-3.911-3.916A3.913,3.913,0,0,1,451.357,257.456Z" transform="translate(-385.853 -213.175)" fill="#001327" opacity="0.37"/>
          <path id="Path_3458" data-name="Path 3458" d="M396.472,238.376a2.366,2.366,0,1,1-2.366-2.366A2.368,2.368,0,0,1,396.472,238.376Z" transform="translate(-360.471 -204.584)" fill="#aeaeae" opacity="0.37"/>
          <path id="Path_3459" data-name="Path 3459" d="M408.876,288.783a1.953,1.953,0,1,1-1.953-1.953A1.95,1.95,0,0,1,408.876,288.783Z" transform="translate(-366.955 -229.49)" fill="#aeaeae" opacity="0.37"/>
          <rect id="Rectangle_214" data-name="Rectangle 214" width="40.12" height="11.126" transform="translate(29.688)" fill="#c6c6c6"/>
          <rect id="Rectangle_215" data-name="Rectangle 215" width="1.198" height="9.189" transform="translate(30.606 1.035)" fill="#fbfbfb" opacity="0.66"/>
          <rect id="Rectangle_216" data-name="Rectangle 216" width="1.198" height="9.189" transform="translate(32.788 1.035)" fill="#fbfbfb" opacity="0.66"/>
          <rect id="Rectangle_217" data-name="Rectangle 217" width="1.198" height="9.189" transform="translate(34.976 1.035)" fill="#fbfbfb" opacity="0.66"/>
          <rect id="Rectangle_218" data-name="Rectangle 218" width="1.198" height="9.189" transform="translate(37.163 1.035)" fill="#fbfbfb" opacity="0.66"/>
          <rect id="Rectangle_219" data-name="Rectangle 219" width="1.198" height="9.189" transform="translate(39.346 1.035)" fill="#fbfbfb" opacity="0.66"/>
          <rect id="Rectangle_220" data-name="Rectangle 220" width="1.198" height="9.189" transform="translate(41.533 1.035)" fill="#fbfbfb" opacity="0.66"/>
          <rect id="Rectangle_221" data-name="Rectangle 221" width="1.198" height="9.189" transform="translate(43.716 1.035)" fill="#fbfbfb" opacity="0.66"/>
          <rect id="Rectangle_222" data-name="Rectangle 222" width="1.198" height="9.189" transform="translate(45.898 1.035)" fill="#fbfbfb" opacity="0.66"/>
          <rect id="Rectangle_223" data-name="Rectangle 223" width="1.198" height="9.189" transform="translate(48.091 1.035)" fill="#fbfbfb" opacity="0.66"/>
          <rect id="Rectangle_224" data-name="Rectangle 224" width="1.198" height="9.189" transform="translate(50.273 1.035)" fill="#fbfbfb" opacity="0.66"/>
          <rect id="Rectangle_225" data-name="Rectangle 225" width="1.198" height="9.189" transform="translate(52.461 1.035)" fill="#fbfbfb" opacity="0.66"/>
          <rect id="Rectangle_226" data-name="Rectangle 226" width="1.198" height="9.189" transform="translate(54.643 1.035)" fill="#fbfbfb" opacity="0.66"/>
          <rect id="Rectangle_227" data-name="Rectangle 227" width="1.198" height="9.189" transform="translate(56.831 1.035)" fill="#fbfbfb" opacity="0.66"/>
          <rect id="Rectangle_228" data-name="Rectangle 228" width="1.198" height="9.189" transform="translate(59.018 1.035)" fill="#fbfbfb" opacity="0.66"/>
          <rect id="Rectangle_229" data-name="Rectangle 229" width="1.198" height="9.189" transform="translate(61.201 1.035)" fill="#fbfbfb" opacity="0.66"/>
          <rect id="Rectangle_230" data-name="Rectangle 230" width="1.198" height="9.189" transform="translate(63.388 1.035)" fill="#fbfbfb" opacity="0.66"/>
          <rect id="Rectangle_231" data-name="Rectangle 231" width="1.198" height="9.189" transform="translate(65.571 1.035)" fill="#fbfbfb" opacity="0.66"/>
          <rect id="Rectangle_232" data-name="Rectangle 232" width="1.198" height="9.189" transform="translate(67.758 1.035)" fill="#fbfbfb" opacity="0.66"/>
          <rect id="Rectangle_233" data-name="Rectangle 233" width="20.616" height="5.762" transform="translate(39.442 11.126)" fill="#7b7b7b"/>
          <path id="Path_3460" data-name="Path 3460" d="M369.107,199.264l-.342.235-22.783,15.808-9.352,6.5-1.147.79-3.962-5.747a6.217,6.217,0,0,1,1.586-8.653l23.466-16.164a6.231,6.231,0,0,1,8.653,1.6Z" transform="translate(-330.42 -182.493)" fill="#001327"/>
          <path id="Path_3461" data-name="Path 3461" d="M359.473,257.959h-8.419c-1.836,0-2.519-2.035-2.519-2.035l-5.935-10.7,9.352-6.5Z" transform="translate(-336.389 -205.917)" fill="#7b7b7b"/>
          <path id="Path_3462" data-name="Path 3462" d="M449.7,199.264l.342.235,22.783,15.808,9.352,6.5,1.147.79,3.962-5.747a6.217,6.217,0,0,0-1.586-8.653l-23.466-16.164a6.231,6.231,0,0,0-8.653,1.6Z" transform="translate(-388.877 -182.493)" fill="#001327"/>
          <path id="Path_3463" data-name="Path 3463" d="M480.31,257.959h8.419c1.836,0,2.519-2.035,2.519-2.035l5.93-10.7-9.352-6.5Z" transform="translate(-403.878 -205.917)" fill="#7b7b7b"/>
          <rect id="Rectangle_234" data-name="Rectangle 234" width="20.616" height="2.881" transform="translate(39.442 11.126)" fill="#aeaeae" opacity="0.18"/>
          <path id="Path_3464" data-name="Path 3464" d="M471.977,223.537l-7.516,19.229-11.2,28.642L465.1,224.522,448.2,207.73h.994Z" transform="translate(-388.142 -190.724)" fill="#aeaeae" opacity="0.25"/>
        </g>
        <g id="Group_1918" data-name="Group 1918" transform="translate(0 156.599)">
          <rect id="Rectangle_235" data-name="Rectangle 235" width="25.72" height="35.128" transform="translate(0 21.752) rotate(-57.75)" fill="#fdb819"/>
          <path id="Path_3465" data-name="Path 3465" d="M115.78,529.235l11.162,7.042-3.039,4.814-9.255-5.839-10.071,9.9a2.844,2.844,0,0,1-3.513.382l-9.214-5.818,3.039-4.819,7.307,4.61,10.061-9.9A2.865,2.865,0,0,1,115.78,529.235Z" transform="translate(-58.692 -504.67)" fill="#7b7b7b"/>
          <rect id="Rectangle_236" data-name="Rectangle 236" width="7.43" height="4.039" transform="matrix(0.534, -0.846, 0.846, 0.534, 3.815, 8.125)" fill="#949494"/>
          <rect id="Rectangle_237" data-name="Rectangle 237" width="5.696" height="3.054" transform="translate(33.146 35.053) rotate(-57.75)" fill="#b7b7b7" opacity="0.5"/>
        </g>
        <g id="Group_1919" data-name="Group 1919" transform="translate(325.516 101.421)">
          <rect id="Rectangle_238" data-name="Rectangle 238" width="12.529" height="4.86" transform="matrix(0.844, -0.537, 0.537, 0.844, 33.56, 63.196)" fill="#fff"/>
          <rect id="Rectangle_239" data-name="Rectangle 239" width="18.372" height="3.911" transform="translate(17.144 42.903) rotate(-32.474)" fill="#001327"/>
          <path id="Path_3466" data-name="Path 3466" d="M689.786,438.959l2.31,3.631a.911.911,0,0,0,1.249.28l17.475-11.121a.907.907,0,0,0,.28-1.249l-2.31-3.631a.9.9,0,0,0-1.249-.275l-17.475,11.121A.9.9,0,0,0,689.786,438.959Z" transform="translate(-677.177 -399.336)" fill="#b0b0b0"/>
          <rect id="Rectangle_240" data-name="Rectangle 240" width="22.523" height="4.304" transform="matrix(0.844, -0.537, 0.537, 0.844, 12.61, 39.62)" fill="#b0b0b0"/>
          <path id="Path_3467" data-name="Path 3467" d="M702.064,442.426a.9.9,0,0,0,1.249.275l7.307-4.645a.9.9,0,0,0,.275-1.249l-1.336-2.1a.907.907,0,0,0-1.249-.281l-7.3,4.65a.906.906,0,0,0-.275,1.249Z" transform="translate(-682.541 -403.176)" fill="#e1e1e1"/>
          <path id="Path_3468" data-name="Path 3468" d="M692.088,451.061a.916.916,0,0,0,1.27.265l3.513-2.239a.918.918,0,0,0,.3-1.265l-1.336-2.1a.923.923,0,0,0-1.275-.265l-3.513,2.233a.918.918,0,0,0-.3,1.265Z" transform="translate(-677.648 -408.578)" fill="#c8c8c8"/>
          <path id="Path_3469" data-name="Path 3469" d="M719.383,433.7a.917.917,0,0,0,1.27.265l3.513-2.233a.918.918,0,0,0,.3-1.265l-1.336-2.1a.915.915,0,0,0-1.27-.265l-3.513,2.233a.919.919,0,0,0-.3,1.265Z" transform="translate(-691.028 -400.07)" fill="#fff"/>
          <path id="Path_3470" data-name="Path 3470" d="M709.23,457.932a2.684,2.684,0,0,1,.994,3.284,1.118,1.118,0,0,1,1.183,1.856,1.118,1.118,0,0,1,1.183,1.856,1.118,1.118,0,0,1,1.183,1.856,1.015,1.015,0,0,0,1.367.428,1.125,1.125,0,0,0,1.188,1.866,2.649,2.649,0,0,1,.989,3.279,1.028,1.028,0,0,0,1.372.433l11.137-7.088a2.667,2.667,0,0,1-.994-3.284,1.119,1.119,0,0,1-1.188-1.856,1.118,1.118,0,0,1-1.183-1.856,1.115,1.115,0,0,1-1.183-1.851,1.035,1.035,0,0,0-1.372-.439A1.018,1.018,0,0,0,724.1,455a1.036,1.036,0,0,0-1.377-.439,2.659,2.659,0,0,1-.989-3.274,1.035,1.035,0,0,0-1.372-.439,2.654,2.654,0,0,1-.984-3.279,1.026,1.026,0,0,0-1.372-.439l-11.137,7.088a2.679,2.679,0,0,1,1,3.284A1.008,1.008,0,0,0,709.23,457.932Z" transform="translate(-685.429 -409.411)" fill="#fdb819"/>
          <path id="Path_3471" data-name="Path 3471" d="M686.9,424.738l3.727,5.859,13.385-8.521-3.733-5.859a3.187,3.187,0,0,0-4.406-.979l-8,5.084A3.205,3.205,0,0,0,686.9,424.738Z" transform="translate(-675.586 -393.596)" fill="#fff"/>
          <path id="Path_3472" data-name="Path 3472" d="M678.395,405.182a3.453,3.453,0,0,1,1.193,4.742,1.543,1.543,0,0,0,2.131.484l8.7-5.543a3.466,3.466,0,0,1-1.188-4.752,1.544,1.544,0,1,1-1.657-2.606,1.553,1.553,0,0,1-1.667-2.621,1.54,1.54,0,0,0-2.137-.464l-8.709,5.543a3.469,3.469,0,0,1,1.193,4.747A1.55,1.55,0,0,0,678.395,405.182Z" transform="translate(-669.682 -383.519)" fill="#fff"/>
          <path id="Path_3473" data-name="Path 3473" d="M668.844,387.555l3.666,5.762,7.98-5.079-3.671-5.762a3.01,3.01,0,0,0-3.6-1.193,2.148,2.148,0,0,0-.566.275l-2.886,1.836a2.2,2.2,0,0,0-.49.4A2.993,2.993,0,0,0,668.844,387.555Z" transform="translate(-666.75 -377.105)" fill="#fff"/>
          <rect id="Rectangle_241" data-name="Rectangle 241" width="5.548" height="1.586" transform="translate(39.103 65.454) rotate(-32.479)" fill="#fafafa"/>
          <rect id="Rectangle_242" data-name="Rectangle 242" width="2.677" height="1.173" transform="matrix(0.844, -0.536, 0.536, 0.844, 41.157, 65.979)" fill="#7b7b7b"/>
          <path id="Path_3474" data-name="Path 3474" d="M665.334,376.21l2.386,3.748a2.352,2.352,0,0,1,.49-.4l2.886-1.836a2.417,2.417,0,0,1,.566-.275l-2.386-3.753a.9.9,0,0,0-1.249-.275l-2.417,1.535A.914.914,0,0,0,665.334,376.21Z" transform="translate(-665.193 -373.277)" fill="#001327"/>
          <path id="Path_3475" data-name="Path 3475" d="M738.12,503.5a5.155,5.155,0,0,0,7.113,1.581l-.484-.765a4.248,4.248,0,0,1-5.864-1.3Z" transform="translate(-700.933 -436.861)" fill="#7b7b7b"/>
          <path id="Path_3476" data-name="Path 3476" d="M709.22,457.905a1.031,1.031,0,0,0-.189,1.428,1.018,1.018,0,0,0,1.367.423,1.121,1.121,0,0,0,1.188,1.861,2.664,2.664,0,0,1,.989,3.279,1.017,1.017,0,0,0,1.367.423,1.031,1.031,0,0,0-.189,1.428,1.018,1.018,0,0,0,1.367.423,2.67,2.67,0,0,1,1,3.289,1.031,1.031,0,0,0,1.372.433,1.02,1.02,0,0,0-.194,1.423,1.04,1.04,0,0,0,1.377.433l.281-.178,2.611,4.1,1.484-.948c-3.743-5.752-8.026-11.31-9.051-18.372-.637-4.727,2.728-6.807,6.547-7.97a1.117,1.117,0,0,1-1.183-1.856,1.024,1.024,0,0,0-1.377-.433l-11.132,7.083a2.666,2.666,0,0,1,.994,3.284A1.012,1.012,0,0,0,709.22,457.905Z" transform="translate(-685.419 -409.39)" fill="#aeaeae" opacity="0.28"/>
          <path id="Path_3477" data-name="Path 3477" d="M678.056,412.193l3.727,5.859,13.391-8.521-2.361-3.707a25.38,25.38,0,0,1-5.782,2.422c-4.212,1.137-7.807-3.054-10.122-6.211-2.81-3.779-4.936-9.362-8.444-12.9a2.983,2.983,0,0,0,.372,2.371l3.672,5.762-.372.235a3.469,3.469,0,0,1,1.193,4.747,1.546,1.546,0,0,1,1.657,2.611,1.548,1.548,0,0,1,1.662,2.611,1.536,1.536,0,0,0,2.131.479l.255-.163A3.2,3.2,0,0,0,678.056,412.193Z" transform="translate(-666.747 -381.051)" fill="#aeaeae" opacity="0.21"/>
        </g>
        <g id="Group_1920" data-name="Group 1920" transform="translate(16.422 36.199)">
          <path id="Path_3478" data-name="Path 3478" d="M80.171,245.37a21.141,21.141,0,1,0,21.141,21.141A21.143,21.143,0,0,0,80.171,245.37Zm0,26.026a4.893,4.893,0,1,1,4.9-4.89A4.889,4.889,0,0,1,80.171,271.4Z" transform="translate(-59.03 -245.37)" fill="#001327"/>
          <path id="Path_3479" data-name="Path 3479" d="M88.566,262.48A12.417,12.417,0,1,0,100.983,274.9,12.41,12.41,0,0,0,88.566,262.48Zm0,17.3a4.893,4.893,0,1,1,4.9-4.89A4.889,4.889,0,0,1,88.566,279.782Z" transform="translate(-67.425 -253.755)" fill="#c9c9c9"/>
          <path id="Path_3480" data-name="Path 3480" d="M134.423,269.647H122.414a12.883,12.883,0,0,0-4.834-11.672l8.49-8.5A28.459,28.459,0,0,1,134.423,269.647Z" transform="translate(-87.724 -247.384)" fill="#fdb819"/>
          <path id="Path_3481" data-name="Path 3481" d="M100.512,270.056a1.606,1.606,0,1,1-1.606-1.606A1.606,1.606,0,0,1,100.512,270.056Z" transform="translate(-77.785 -256.681)" fill="#aeaeae" opacity="0.37"/>
          <path id="Path_3482" data-name="Path 3482" d="M86.052,280.726a1.606,1.606,0,1,1-1.606-1.606A1.606,1.606,0,0,1,86.052,280.726Z" transform="translate(-70.699 -261.91)" fill="#aeaeae" opacity="0.37"/>
          <path id="Path_3483" data-name="Path 3483" d="M91.522,297.776a1.606,1.606,0,1,1-1.606-1.606A1.609,1.609,0,0,1,91.522,297.776Z" transform="translate(-73.38 -270.266)" fill="#aeaeae" opacity="0.37"/>
          <path id="Path_3484" data-name="Path 3484" d="M109.548,297.776a1.609,1.609,0,1,1-1.606-1.606A1.606,1.606,0,0,1,109.548,297.776Z" transform="translate(-82.211 -270.266)" fill="#aeaeae" opacity="0.37"/>
          <path id="Path_3485" data-name="Path 3485" d="M115.058,280.726a1.609,1.609,0,1,1-1.611-1.606A1.607,1.607,0,0,1,115.058,280.726Z" transform="translate(-84.911 -261.91)" fill="#aeaeae" opacity="0.37"/>
          <path id="Path_3486" data-name="Path 3486" d="M106.444,277.777A21.136,21.136,0,0,1,69.5,290.658l11.585-11.585a4.889,4.889,0,1,0,6.665-6.665l6.3-6.3a12.9,12.9,0,0,1,4.834,11.667Z" transform="translate(-64.161 -255.534)" fill="#d59a13" opacity="0.2"/>
        </g>
        <g id="Group_1921" data-name="Group 1921" transform="translate(248.67 81.74)">
          <path id="Path_3487" data-name="Path 3487" d="M554.416,354.618a19.938,19.938,0,1,1-19.938-19.938A19.934,19.934,0,0,1,554.416,354.618Z" transform="translate(-514.515 -334.68)" fill="#001327"/>
          <path id="Path_3488" data-name="Path 3488" d="M554.139,370.3a3.965,3.965,0,0,1-3.967,3.967H532.977a3.965,3.965,0,0,1-3.967-3.967V353.107a3.965,3.965,0,0,1,3.967-3.967h17.194a3.965,3.965,0,0,1,3.967,3.967Z" transform="translate(-521.606 -341.767)" fill="#fafafa"/>
          <path id="Path_3489" data-name="Path 3489" d="M554.031,357.351a2.863,2.863,0,0,1-2.019,2.738v5.084h-7.195v3.4a2.871,2.871,0,1,1-1.7,0v-3.4h-5.492v3.4a2.871,2.871,0,1,1-1.7,0v-8.48a2.871,2.871,0,1,1,1.7,0v3.386h5.492v-3.386a2.871,2.871,0,1,1,1.7,0v3.386h5.492v-3.386a2.869,2.869,0,1,1,3.722-2.738Z" transform="translate(-524.002 -344.384)" fill="#fdb819"/>
          <path id="Path_3490" data-name="Path 3490" d="M539.654,359.735a.9.9,0,0,1-.005.122.2.2,0,0,1-.02.077.1.1,0,0,1-.031.041.058.058,0,0,1-.041.015h-1.81a.046.046,0,0,1-.036-.015.093.093,0,0,1-.031-.041.271.271,0,0,1-.02-.077.79.79,0,0,1-.01-.122.825.825,0,0,1,.005-.122.273.273,0,0,1,.02-.082.18.18,0,0,1,.031-.046.058.058,0,0,1,.041-.015h.612v-2.137l-.53.291a.385.385,0,0,1-.1.036.051.051,0,0,1-.056-.015.133.133,0,0,1-.031-.076,1.243,1.243,0,0,1-.005-.153v-.1a.128.128,0,0,1,.015-.066.1.1,0,0,1,.026-.046.145.145,0,0,1,.051-.036l.7-.459a.1.1,0,0,0,.031-.02.44.44,0,0,1,.051-.01.359.359,0,0,1,.082-.005h.128a1.373,1.373,0,0,1,.158.005c.041.005.071.005.092.01a.063.063,0,0,1,.041.026.073.073,0,0,1,.01.036v2.718h.535a.058.058,0,0,1,.041.015.1.1,0,0,1,.031.046.264.264,0,0,1,.02.082A1.048,1.048,0,0,0,539.654,359.735Z" transform="translate(-525.835 -345.457)" fill="#fff"/>
          <path id="Path_3491" data-name="Path 3491" d="M553.673,359.016a1.006,1.006,0,0,1-.092.439.885.885,0,0,1-.26.321,1.192,1.192,0,0,1-.4.2,1.814,1.814,0,0,1-.51.066,1.559,1.559,0,0,1-.316-.025,2.53,2.53,0,0,1-.26-.056c-.076-.025-.138-.051-.189-.071a.832.832,0,0,1-.1-.056.275.275,0,0,1-.036-.046.171.171,0,0,1-.02-.061c-.005-.026-.01-.051-.015-.087s-.005-.076-.005-.127a.434.434,0,0,1,.02-.168.069.069,0,0,1,.061-.046.2.2,0,0,1,.087.036c.041.02.1.046.158.071a1.664,1.664,0,0,0,.224.071,1.045,1.045,0,0,0,.3.036.727.727,0,0,0,.245-.036.518.518,0,0,0,.184-.092.424.424,0,0,0,.112-.143.463.463,0,0,0,.036-.189.445.445,0,0,0-.046-.2.434.434,0,0,0-.133-.158.621.621,0,0,0-.219-.1,1.148,1.148,0,0,0-.316-.036h-.286a.183.183,0,0,1-.056-.01.061.061,0,0,1-.036-.036.271.271,0,0,1-.02-.076.94.94,0,0,1-.005-.128.825.825,0,0,1,.005-.122.2.2,0,0,1,.02-.071.119.119,0,0,1,.036-.036.15.15,0,0,1,.051-.01h.285a.823.823,0,0,0,.26-.036.684.684,0,0,0,.194-.1.386.386,0,0,0,.117-.153.514.514,0,0,0,.041-.2.415.415,0,0,0-.031-.158.364.364,0,0,0-.082-.128.356.356,0,0,0-.143-.087.635.635,0,0,0-.2-.031.8.8,0,0,0-.25.041,1.614,1.614,0,0,0-.209.087c-.061.031-.112.061-.158.087a.229.229,0,0,1-.1.041.075.075,0,0,1-.036-.01.066.066,0,0,1-.026-.036c-.005-.02-.01-.041-.015-.071a.913.913,0,0,1-.005-.127v-.1a.262.262,0,0,1,.01-.071.151.151,0,0,1,.02-.051c.01-.015.02-.025.036-.046a.612.612,0,0,1,.1-.071,1.232,1.232,0,0,1,.2-.092,1.784,1.784,0,0,1,.275-.077,1.753,1.753,0,0,1,.337-.031,1.517,1.517,0,0,1,.423.056.861.861,0,0,1,.311.163.683.683,0,0,1,.189.26.932.932,0,0,1,.066.347.989.989,0,0,1-.036.281.693.693,0,0,1-.112.229.741.741,0,0,1-.184.173.889.889,0,0,1-.255.107v.01a.848.848,0,0,1,.311.087.892.892,0,0,1,.235.168.769.769,0,0,1,.148.23A.405.405,0,0,1,553.673,359.016Z" transform="translate(-532.613 -345.447)" fill="#fff"/>
          <path id="Path_3492" data-name="Path 3492" d="M567.877,358.943a1.158,1.158,0,0,1-.092.474.948.948,0,0,1-.26.352,1.162,1.162,0,0,1-.408.219,1.7,1.7,0,0,1-.525.077,1.775,1.775,0,0,1-.291-.02,1.468,1.468,0,0,1-.245-.051c-.071-.02-.132-.041-.178-.056a.341.341,0,0,1-.092-.051.106.106,0,0,1-.031-.041c-.005-.015-.01-.036-.015-.056s-.005-.046-.01-.082V359.6a.911.911,0,0,1,.005-.122.751.751,0,0,1,.015-.082.063.063,0,0,1,.025-.041.043.043,0,0,1,.036-.01.19.19,0,0,1,.077.031c.036.02.082.041.138.066a1.272,1.272,0,0,0,.209.066,1.206,1.206,0,0,0,.291.031,1.121,1.121,0,0,0,.27-.031.507.507,0,0,0,.2-.1.465.465,0,0,0,.127-.168.582.582,0,0,0,.046-.245.6.6,0,0,0-.036-.219.418.418,0,0,0-.117-.163.569.569,0,0,0-.209-.1,1.411,1.411,0,0,0-.316-.031,2.208,2.208,0,0,0-.27.015,1.855,1.855,0,0,1-.23.015.13.13,0,0,1-.107-.036.228.228,0,0,1-.031-.138v-1.428a.233.233,0,0,1,.041-.148.155.155,0,0,1,.128-.046h1.555a.082.082,0,0,1,.046.015.1.1,0,0,1,.036.051.309.309,0,0,1,.02.087,1.007,1.007,0,0,1,.005.133.729.729,0,0,1-.026.219.084.084,0,0,1-.077.066h-1.168v.7l.179-.015h.184a1.673,1.673,0,0,1,.474.061.9.9,0,0,1,.347.184.708.708,0,0,1,.214.3A1.47,1.47,0,0,1,567.877,358.943Z" transform="translate(-539.602 -345.481)" fill="#fff"/>
          <path id="Path_3493" data-name="Path 3493" d="M539.533,387.034a.962.962,0,0,1-.005.127.317.317,0,0,1-.02.087.117.117,0,0,1-.031.046.082.082,0,0,1-.046.015h-1.892a.518.518,0,0,1-.1-.01.113.113,0,0,1-.066-.041.17.17,0,0,1-.036-.087,1.029,1.029,0,0,1-.01-.143.584.584,0,0,1,.01-.143.555.555,0,0,1,.025-.107.81.81,0,0,1,.051-.092,1.206,1.206,0,0,1,.082-.1l.571-.607a3.359,3.359,0,0,0,.275-.321,1.783,1.783,0,0,0,.163-.265.981.981,0,0,0,.082-.219.863.863,0,0,0,.02-.194.541.541,0,0,0-.025-.158.429.429,0,0,0-.077-.133.354.354,0,0,0-.133-.087.494.494,0,0,0-.184-.031.828.828,0,0,0-.265.041,1.524,1.524,0,0,0-.2.087c-.056.031-.107.061-.148.087a.216.216,0,0,1-.092.041.058.058,0,0,1-.041-.015.1.1,0,0,1-.025-.051c-.005-.026-.01-.056-.015-.1a1.224,1.224,0,0,1-.005-.148.517.517,0,0,1,.005-.1c.005-.026.005-.051.01-.066a.152.152,0,0,1,.02-.051.375.375,0,0,1,.046-.051.581.581,0,0,1,.117-.076,1.682,1.682,0,0,1,.209-.092,1.774,1.774,0,0,1,.275-.077,1.569,1.569,0,0,1,.311-.031,1.34,1.34,0,0,1,.449.066.827.827,0,0,1,.316.178.685.685,0,0,1,.189.275.923.923,0,0,1,.061.342,1.622,1.622,0,0,1-.031.316,1.125,1.125,0,0,1-.128.331,2.758,2.758,0,0,1-.27.4,6.149,6.149,0,0,1-.464.5l-.382.393h1.3a.083.083,0,0,1,.046.015.111.111,0,0,1,.036.046.8.8,0,0,1,.026.082A.763.763,0,0,0,539.533,387.034Z" transform="translate(-525.684 -358.841)" fill="#fff"/>
          <path id="Path_3494" data-name="Path 3494" d="M553.687,386.4a.591.591,0,0,1-.026.194c-.015.046-.041.066-.071.066H553.3v.591a.071.071,0,0,1-.015.046.125.125,0,0,1-.051.031.407.407,0,0,1-.1.02,1.416,1.416,0,0,1-.158.005c-.061,0-.112-.005-.153-.005a.357.357,0,0,1-.1-.02.229.229,0,0,1-.051-.031.063.063,0,0,1-.015-.046v-.591H551.4a.193.193,0,0,1-.061-.01.073.073,0,0,1-.046-.041.289.289,0,0,1-.025-.092,1.231,1.231,0,0,1-.01-.158,1.18,1.18,0,0,1,.005-.143.34.34,0,0,1,.015-.107.481.481,0,0,1,.026-.092.7.7,0,0,1,.041-.092l1.02-1.8a.094.094,0,0,1,.041-.036.292.292,0,0,1,.087-.025.512.512,0,0,1,.138-.015c.056-.005.122-.005.2-.005s.158.005.219.005a.855.855,0,0,1,.148.02.243.243,0,0,1,.082.036.061.061,0,0,1,.026.046v1.978h.291c.026,0,.051.02.071.061A1.479,1.479,0,0,1,553.687,386.4Zm-1.035-1.785h0l-.872,1.509h.872Z" transform="translate(-532.51 -358.87)" fill="#fff"/>
          <path id="Path_3495" data-name="Path 3495" d="M568.346,387.013a.187.187,0,0,1-.01.056.1.1,0,0,1-.056.036.612.612,0,0,1-.133.02c-.056.005-.138.005-.235.005-.082,0-.148,0-.2-.005a.558.558,0,0,1-.117-.02.118.118,0,0,1-.061-.041A.348.348,0,0,1,567.5,387l-.347-.857q-.061-.145-.122-.26a.774.774,0,0,0-.133-.189.463.463,0,0,0-.168-.112.578.578,0,0,0-.219-.041h-.245v1.463a.066.066,0,0,1-.021.051.165.165,0,0,1-.066.041c-.031.01-.071.015-.117.026a1.768,1.768,0,0,1-.377,0,.567.567,0,0,1-.122-.026.117.117,0,0,1-.061-.041.1.1,0,0,1-.015-.051v-3.493a.214.214,0,0,1,.229-.245h.994c.1,0,.184.005.25.005l.179.015a1.671,1.671,0,0,1,.418.112,1.068,1.068,0,0,1,.316.209.883.883,0,0,1,.2.306,1.265,1.265,0,0,1,.015.76.9.9,0,0,1-.143.28,1.072,1.072,0,0,1-.234.219,1.2,1.2,0,0,1-.316.148.786.786,0,0,1,.163.1.94.94,0,0,1,.143.143,1.421,1.421,0,0,1,.127.194c.041.076.077.153.117.245l.321.755c.031.076.051.127.061.163A.383.383,0,0,1,568.346,387.013Zm-1-2.611a.581.581,0,0,0-.087-.321.47.47,0,0,0-.28-.184c-.041-.01-.087-.015-.133-.026s-.122-.01-.209-.01h-.352v1.091h.4a.836.836,0,0,0,.291-.041.633.633,0,0,0,.209-.112.449.449,0,0,0,.122-.173A.606.606,0,0,0,567.341,384.4Z" transform="translate(-539.484 -358.493)" fill="#fdb819"/>
          <path id="Path_3496" data-name="Path 3496" d="M551.556,367.4a19.938,19.938,0,1,1-27.332-27.337A19.93,19.93,0,0,0,551.556,367.4Z" transform="translate(-514.49 -337.317)" fill="#aeaeae" opacity="0.33"/>
        </g>
        <g id="Group_1922" data-name="Group 1922" transform="translate(105.005 90.771)">
          <path id="Path_3497" data-name="Path 3497" d="M233.408,426.787h32.257a.659.659,0,0,0,.658-.658V422.84H232.75v3.289A.663.663,0,0,0,233.408,426.787Z" transform="translate(-232.75 -386.916)" fill="#303030"/>
          <path id="Path_3498" data-name="Path 3498" d="M232.76,353.048v3.289h33.573v-3.289a.659.659,0,0,0-.658-.658H233.418A.653.653,0,0,0,232.76,353.048Z" transform="translate(-232.755 -352.39)" fill="#303030"/>
          <path id="Path_3499" data-name="Path 3499" d="M267.34,363.74v27.276l2.84,1.035V362.7Z" transform="translate(-249.702 -357.443)" fill="#303030"/>
          <path id="Path_3500" data-name="Path 3500" d="M275.86,363.74v27.276l2.84,1.035V362.7Z" transform="translate(-253.877 -357.443)" fill="#303030"/>
          <path id="Path_3501" data-name="Path 3501" d="M284.39,363.74v27.276l2.835,1.035V362.7Z" transform="translate(-258.058 -357.443)" fill="#303030"/>
          <path id="Path_3502" data-name="Path 3502" d="M292.91,363.74v27.276l2.84,1.035V362.7Z" transform="translate(-262.233 -357.443)" fill="#303030"/>
          <path id="Path_3503" data-name="Path 3503" d="M258.43,362.7v29.351l2.84-1.035V363.74Z" transform="translate(-245.335 -357.443)" fill="#303030"/>
          <path id="Path_3504" data-name="Path 3504" d="M249.91,362.7v29.351l2.84-1.035V363.74Z" transform="translate(-241.16 -357.443)" fill="#303030"/>
          <path id="Path_3505" data-name="Path 3505" d="M241.39,362.7v29.351l2.84-1.035V363.74Z" transform="translate(-236.984 -357.443)" fill="#303030"/>
          <path id="Path_3506" data-name="Path 3506" d="M232.87,362.7v29.351l2.84-1.035V363.74Z" transform="translate(-232.809 -357.443)" fill="#303030"/>
          <path id="Path_3507" data-name="Path 3507" d="M244.028,437.1H265.46a.659.659,0,0,0,.658-.658V433.15H243.37v3.289A.656.656,0,0,0,244.028,437.1Z" transform="translate(-237.955 -391.969)" fill="#303030"/>
        </g>
        <g id="Group_1923" data-name="Group 1923" transform="translate(29.935 95.135)">
          <path id="Path_3508" data-name="Path 3508" d="M121.306,389.625l-.112-.133-.026-.025-15.114-17.607-.418-.484a1.635,1.635,0,0,0-1.1-.377l-5.114.1-.025-1.244L91.44,370l.026,1.244-4.263.082a1.7,1.7,0,0,0-1.673,1.739l.846,43.618a1.707,1.707,0,0,0,1.739,1.672l32.4-.627a1.7,1.7,0,0,0,1.673-1.739l-.49-25.328A1.681,1.681,0,0,0,121.306,389.625ZM116.252,412.3l-24.655.479-.352-18.005,24.655-.479ZM107.6,389.558l-1.234-12.248,9.755,11.754.541.653Z" transform="translate(-85.529 -365.311)" fill="#001327"/>
          <path id="Path_3509" data-name="Path 3509" d="M125.378,373.314l-.418-.484A1.589,1.589,0,0,1,125.378,373.314Z" transform="translate(-104.853 -366.772)" fill="#001327"/>
          <rect id="Rectangle_243" data-name="Rectangle 243" width="9.311" height="3.661" transform="translate(5.146 0.181) rotate(-1.112)" fill="#001327"/>
          <path id="Path_3510" data-name="Path 3510" d="M121.378,429.656l-.071-.1-3.58-6.114-3.539,6.583a4.007,4.007,0,0,0-.479,2.029,4.182,4.182,0,0,0,8.363-.158A4.267,4.267,0,0,0,121.378,429.656Zm-4.273,5.252c-.28.4-.862.061-1.2-.122-.413-.214-1.219-.846-1.163-1.412.1-.8.908-.275,1.367.092C116.712,434,117.227,434.74,117.105,434.908Z" transform="translate(-99.339 -391.575)" fill="#001327"/>
        </g>
        <g id="Group_1924" data-name="Group 1924" transform="translate(68.405 10.68)">
          <path id="Path_3511" data-name="Path 3511" d="M185.259,195.327a24.673,24.673,0,1,0,25.062,24.287A24.69,24.69,0,0,0,185.259,195.327ZM200.3,234.438l-1.55,1.448c-.418.331-.918.719-1.453,1.076a13.833,13.833,0,0,1-1.887,1.147,20.332,20.332,0,0,1-9.383,2.483h-.051a20.077,20.077,0,0,1-9.586-2.218l-1.887-1.081a15.682,15.682,0,0,1-1.351-.943l-.015-.01-.173-.117-1.448-1.275-.1-.092a20.447,20.447,0,0,1-6.374-14.538,19.032,19.032,0,0,1,.265-3.478,15.438,15.438,0,0,1,.428-2.142c.117-.444.28-.918.423-1.367l.087-.255a13.041,13.041,0,0,1,.9-2.08,20.469,20.469,0,0,1,15.14-11.32,14.523,14.523,0,0,1,2.1-.219,6.441,6.441,0,0,1,.714-.051l.219-.01a6.337,6.337,0,0,1,.938.036,18.58,18.58,0,0,1,2.086.148,20.647,20.647,0,0,1,15.537,10.882,16.42,16.42,0,0,1,.908,2,10.759,10.759,0,0,1,.571,1.642,13.069,13.069,0,0,1,.52,2.147,21.366,21.366,0,0,1,.357,3.411A20.372,20.372,0,0,1,200.3,234.438Z" transform="translate(-160.974 -195.324)" fill="#303030"/>
          <path id="Path_3512" data-name="Path 3512" d="M209.78,221.106a11.848,11.848,0,0,0-.5-2.035,9.575,9.575,0,0,0-.54-1.576,18.242,18.242,0,0,0-.862-1.9A19.816,19.816,0,0,0,193,205.161a19.111,19.111,0,0,0-2.075-.148,6.394,6.394,0,0,0-.826-.025,6.9,6.9,0,0,0-.877.061,15.089,15.089,0,0,0-2.05.209,19.687,19.687,0,0,0-14.528,10.892,12.3,12.3,0,0,0-.841,1.938c-.168.515-.357,1.056-.5,1.586a15.78,15.78,0,0,0-.413,2.045,18.444,18.444,0,0,0-.25,3.325,19.659,19.659,0,0,0,6.114,13.936l.071.066,1.448,1.275.061.025a13.073,13.073,0,0,0,1.341.948l1.846,1.066a19.569,19.569,0,0,0,18.255-.265A13.053,13.053,0,0,0,201.57,241c.469-.316.918-.658,1.346-1l1.525-1.418a19.666,19.666,0,0,0,5.7-14.15A21.535,21.535,0,0,0,209.78,221.106Zm-2.55-2.952a11.843,11.843,0,0,1,.495,1.423.055.055,0,0,0,.01.036l-11,3.763a6.141,6.141,0,0,0-.551-1.565l11-3.779C207.2,218.077,207.2,218.1,207.23,218.154Zm-.923-2.04-12.218,3.274-1.081-12.549A18.156,18.156,0,0,1,206.307,216.114Zm-10.647,7.037a.946.946,0,1,1-.964-.923A.945.945,0,0,1,195.66,223.151ZM194.1,228.3a.946.946,0,1,1-.964-.923A.938.938,0,0,1,194.1,228.3Zm-4.87-21.621a.7.7,0,0,1,.194-.031c.178-.01.347-.015.535-.02l.255-.005a5.587,5.587,0,0,1,.673.02h.036l.184,11.631a5.367,5.367,0,0,0-.862-.041,5.877,5.877,0,0,0-.852.076Zm1.035,12.432a.944.944,0,1,1-.928.969A.936.936,0,0,1,190.27,219.112Zm.056,3a2.621,2.621,0,1,1-2.565,2.677A2.626,2.626,0,0,1,190.326,222.111Zm-2.59,5.364a.944.944,0,1,1-.928.969A.942.942,0,0,1,187.736,227.475Zm-1.7-3.2a.941.941,0,1,1,.928-.954A.941.941,0,0,1,186.038,224.278Zm1.147-17.363-.668,12.585v.01h-.01l-12.294-2.881A18.115,18.115,0,0,1,187.185,206.915Zm-14.3,13.166a15,15,0,0,1,.449-1.458c.01-.01.015-.051.031-.071l11.126,3.437a6.588,6.588,0,0,0-.525,1.6l-11.111-3.432A.179.179,0,0,0,172.887,220.081Zm4.793,17.526A17.978,17.978,0,0,1,172.265,225a19.335,19.335,0,0,1,.194-2.8l.117.041,11.621,4.508Zm2.932,2.351-.051-.051a9.343,9.343,0,0,1-1.209-.846l-.076-.056,6.675-9.52a5.784,5.784,0,0,0,1.377.979Zm10.056,2.881a17.746,17.746,0,0,1-8.2-1.846l7.955-9.76,8.358,9.52A17.719,17.719,0,0,1,190.668,242.839Zm11.223-4.13c-.413.316-.8.637-1.27.954-.01,0-.015.015-.025.036l-7-9.306a6.231,6.231,0,0,0,1.351-1.03l6.971,9.316A.2.2,0,0,0,201.891,238.708Zm1.55-1.474-6.807-10.708,11.575-4.9a15.9,15.9,0,0,1,.27,2.82A17.869,17.869,0,0,1,203.441,237.235Z" transform="translate(-165.709 -200.059)" fill="#303030"/>
        </g>
        <g id="Group_1933" data-name="Group 1933" transform="translate(77.503 133.296)">
          <g id="Group_1931" data-name="Group 1931" transform="translate(0 13.678)">
            <path id="Path_3513" data-name="Path 3513" d="M428.452,537.11,207.27,538.385l9.158,30.019H428.452Z" transform="translate(-192.761 -499.121)" fill="#707070"/>
            <path id="Path_3514" data-name="Path 3514" d="M179.481,522.138a5.554,5.554,0,0,0,.27,1,1.157,1.157,0,0,0,.321.5.2.2,0,0,0,.1.046,5.416,5.416,0,0,1,1.973,1.132c.3.2.622.454,1,.724.224.148.428.326.673.479.178.117.377.27.6.4a12.908,12.908,0,0,0,1.1.724c.076.056.173.1.255.153.724.449,1.55.9,2.473,1.372a22.513,22.513,0,0,0,5.007,1.627c.4.071.831.179,1.229.25.2.051.4.076.627.128,1.973.408,3.977.724,5.431.954.576.092,1.071.143,1.448.2.2.02.347.046.474.071v-.031a23.445,23.445,0,1,1,45.745.031v.046H366.142c0-.02-.025-.02-.025-.02h.025V531.9a22.351,22.351,0,0,1-.6-5.176,23.451,23.451,0,1,1,46.326,5.176v.046h11.488c2.825,0,3.024-.02,5.783-.179.7-.02,1.555-.071,2.652-.143.357-.025.755-.025,1.178-.051.454-.031.877-.076,1.254-.127a6,6,0,0,0,2.223-.744c.1-.077.2-.128.306-.209a2.761,2.761,0,0,0,.77-.852,3.627,3.627,0,0,0,.306-.7,4.121,4.121,0,0,0-.082-2.147c-.02-.071-.046-.148-.071-.23a.685.685,0,0,0-.051-.219c-.046-.158-.127-.306-.173-.428a3.15,3.15,0,0,0-.3-.622,1.509,1.509,0,0,0-.1-.153v-.026a1.648,1.648,0,0,1-.224-.428c-.1-.2-.2-.4-.3-.648a5.1,5.1,0,0,1-.255-.693,3.288,3.288,0,0,1-.153-.959c0-1.826-.026-3.473-.026-4.956-.026-.495-.026-.974-.026-1.448a4.239,4.239,0,0,1-.02-.495c0-.306,0-.576-.026-.852v-.122c0-.4-.025-.755-.025-1.132-.031-.4-.051-.8-.051-1.173-.031-.352-.046-.724-.076-1.081s-.026-.673-.071-.994c-.031-.3-.051-.627-.077-.9-.051-.5-.1-.923-.148-1.382v-.02a14.976,14.976,0,0,0-1.479-5.232,1.828,1.828,0,0,0-.316-.566c-.107-.184-.229-.377-.331-.556-.347-.576-.75-1.132-1.178-1.749-.27-.357-.546-.729-.821-1.132-.377-.525-.78-1.081-1.229-1.7-4.849-6.96-57.111-8.057-64.969-11.387-4.008-1.678-35.016-18.168-44.572-21.121-4.905-1.53-6.287-1.856-28.306-1.759-1.1,0-2.2,0-3.279.051-.826,0-1.627.02-2.432.051-42.971,1.351-70.726,15.67-78.007,18.4-7.583,2.85-22.146,3.33-22.625,4.38-.051.153-.194.551-.4,1.147-.326,1-.806,2.509-1.28,4.186-.122.367-.25.775-.347,1.173-.148.525-.3,1.05-.454,1.581-.076.27-.127.546-.2.8-.2.8-.423,1.576-.576,2.295-.02.178-.071.347-.1.525a11.86,11.86,0,0,0-.27,1.458c-.026.117-.056.27-.077.418a8.081,8.081,0,0,0-.076,1.01,5.083,5.083,0,0,1-.173,1.372c-.056.1-.077.219-.133.326v.02a6.765,6.765,0,0,1-.948,1.372c-.02.056-.076.1-.122.173a8.021,8.021,0,0,0-.454.7c-.046.1-.1.173-.148.281a8.118,8.118,0,0,0-.444.954c-.026.092-.077.194-.1.321a8.859,8.859,0,0,0-.326,1.05C178.5,510.1,178.731,518.634,179.481,522.138ZM286.324,465.4a154.674,154.674,0,0,0-1.377,20.769v.02c-7.934-.474-15.568-.994-22.35-1.5l-2.029-.153c-1.973-.127-3.875-.275-5.681-.423-6.037-.479-10.963-.877-14.293-1.2-.653-.051-1.254-.1-1.775-.179-.275-.02-.53-.046-.755-.071-.449-.056-.852-.076-1.147-.127-.479-.071-.775-.117-.877-.148-2.7-.943,15.19-11.387,22.946-13.615.479-.148.974-.275,1.479-.4a107.9,107.9,0,0,1,14.441-2.453,73.533,73.533,0,0,1,7.435-.474C283.168,465.455,284.565,465.424,286.324,465.4Zm71.827,21.768a1.539,1.539,0,0,1-.525.306c-1.377.556-4.681.852-9.362.979-1.652.046-3.483.071-5.431.071-5.38,0-11.815-.128-18.872-.377-2.279-.077-4.6-.178-6.986-.27h-.02c-4.758-.2-9.688-.433-14.67-.714-1.244-.071-2.5-.148-3.753-.194-3.748-.2-7.511-.4-11.208-.632v-.02a157.371,157.371,0,0,1,1.4-20.948c8.663-.122,22.6-.27,27.684.556,2.254.377,14.767,5.426,25.629,10.734,1.708.852,3.386,1.678,4.961,2.5a.02.02,0,0,1,.02.02c2.1,1.1,4.054,2.2,5.752,3.233a29.868,29.868,0,0,1,4.86,3.5,6.087,6.087,0,0,1,.546.571C358.4,486.775,358.371,486.979,358.151,487.172Z" transform="translate(-178.816 -462.609)" fill="#303030"/>
            <path id="Path_3515" data-name="Path 3515" d="M391.6,488.907c20.025,1.2,41.482,2.213,55.5,2.188,1.963,0,3.784-.025,5.431-.076,4.686-.128,8-.423,9.362-.974.673-.265.887-.581.561-.979-5.063-6.022-38.014-19.943-41.767-20.565-5.089-.826-19.02-.683-27.684-.561A154.849,154.849,0,0,0,391.6,488.907Z" transform="translate(-283.096 -465.175)" fill="#9d9d9d"/>
            <path id="Path_3516" data-name="Path 3516" d="M290.766,485.075c1.127.393,23.553,2.223,48.891,3.794a158.257,158.257,0,0,1,1.392-20.779c-1.754.02-3.151.046-3.982.046a103.836,103.836,0,0,0-23.359,3.325C305.957,473.679,288.069,484.127,290.766,485.075Z" transform="translate(-233.546 -465.295)" fill="#9d9d9d"/>
            <path id="Path_3517" data-name="Path 3517" d="M391.6,488.907c20.03,1.2,41.477,2.213,55.5,2.188,1.968,0,3.789-.025,5.431-.076,4.686-.128,8-.423,9.362-.974.673-.265.887-.581.561-.979-5.063-6.022-38.014-19.943-41.767-20.565-5.094-.826-19.025-.683-27.689-.561A157.344,157.344,0,0,0,391.6,488.907Zm54.985.918c-14.91,0-37.2-1.137-53.72-2.111a154.482,154.482,0,0,1,1.265-18.525c2.937-.046,6.379-.076,9.826-.076,8.352,0,13.916.224,16.532.648,3.289.541,33.344,13.171,40.212,19.321a47.594,47.594,0,0,1-8.2.673c-1.637.051-3.442.071-5.395.071Z" transform="translate(-283.096 -465.175)" fill="#d9d9d9"/>
            <path id="Path_3518" data-name="Path 3518" d="M290.775,485.075c1.127.393,23.553,2.223,48.891,3.794a158.263,158.263,0,0,1,1.392-20.779c-1.754.02-3.151.046-3.982.046a103.759,103.759,0,0,0-23.354,3.325C305.961,473.679,288.073,484.127,290.775,485.075Zm1.846-1c3.4-2.871,15.175-9.592,21.457-11.392a102.315,102.315,0,0,1,23-3.274c.591,0,1.463-.015,2.555-.031a155.619,155.619,0,0,0-1.224,18.148C316.582,486.161,297.914,484.667,292.621,484.071Z" transform="translate(-233.55 -465.295)" fill="#d9d9d9"/>
            <path id="Path_3519" data-name="Path 3519" d="M496.34,495.366c0,1.586.2,3.61.362,5.15.4,3.733,3.682.214,4.4.724.954.688-2.172,1.815-2.657,2.565a85.407,85.407,0,0,0,9.546.5c4.676-.122,5.369-.79,5.252-1.55a63.713,63.713,0,0,0-9.229-6.95c-.755-.433-1.438-.816-2.121-1.137-.015-.026-.025-.026-.041-.026a8.313,8.313,0,0,0-3-.852C497.967,493.713,496.34,494.04,496.34,495.366Z" transform="translate(-334.428 -477.885)" fill="#fff"/>
            <path id="Path_3520" data-name="Path 3520" d="M648.82,533.378c1.05,4,2.31,7.588,6.746,8.638,3.32.688,6.909.469,10.418.367-.622-4.569-1.856-6.073-4.166-9.255C657.494,533.1,653.088,533.047,648.82,533.378Z" transform="translate(-409.156 -497.158)" fill="#efefef"/>
            <path id="Path_3522" data-name="Path 3522" d="M251.805,589.06a19.02,19.02,0,1,0-19.025-19.02A19.04,19.04,0,0,0,251.805,589.06Z" transform="translate(-205.263 -505.938)" fill="#4c4c4c"/>
            <g id="Group_1926" data-name="Group 1926" transform="translate(31.316 48.886)">
              <path id="Path_3523" data-name="Path 3523" d="M240.96,574.034a14.854,14.854,0,1,0,14.854-14.864A14.849,14.849,0,0,0,240.96,574.034Z" transform="translate(-240.588 -558.818)" fill="#878787"/>
              <g id="Group_1925" data-name="Group 1925">
                <path id="Path_3524" data-name="Path 3524" d="M240.23,573.7a15.162,15.162,0,0,0,4.543,10.815l.056.051,1.112,1,.036.031c.331.26.683.51,1.025.739l1.4.841a15.12,15.12,0,0,0,14.089.015,11.2,11.2,0,0,0,1.387-.826c.367-.24.714-.49,1.056-.76l1.188-1.071a15.138,15.138,0,0,0,4.554-10.831,13.768,13.768,0,0,0-.224-2.57,8.987,8.987,0,0,0-.352-1.571,9.081,9.081,0,0,0-.4-1.229c-.194-.5-.413-1-.653-1.479A15.08,15.08,0,0,0,256.1,558.5c-.214-.02-.413-.02-.632-.02-.235,0-.454,0-.683.02a14.783,14.783,0,0,0-1.581.143,15.206,15.206,0,0,0-11.32,8.22,10.987,10.987,0,0,0-.673,1.484c-.143.393-.291.811-.4,1.229a14.921,14.921,0,0,0-.357,1.555A14.719,14.719,0,0,0,240.23,573.7Zm2.188-4.962,8.73,2.835,1.627.52a.091.091,0,0,1-.031.051,3.1,3.1,0,0,0-.377,1.1c0,.031-.015.051-.015.071l-1.606-.52-8.73-2.83c0-.031.01-.041.01-.071.1-.362.229-.739.362-1.1C242.407,568.765,242.407,568.745,242.418,568.734Zm10.785,1.8-1.056-.331-2.621-.852-6.44-2.1a13.973,13.973,0,0,1,10.112-7.333v10.616Zm2.9.138h-.036a3.457,3.457,0,0,0-1.239-.01.054.054,0,0,0-.031.015h-.015V559.765a.537.537,0,0,1,.153-.015,3.723,3.723,0,0,1,.413-.015h.194a3.5,3.5,0,0,1,.52.031h.036v10.907Zm.734,3.008a1.374,1.374,0,1,1-1.372-1.367A1.37,1.37,0,0,1,256.838,573.681Zm11-6.44-6.491,2.111-2.59.852-1.056.331V559.918A13.969,13.969,0,0,1,267.837,567.24Zm1.061,2.713-8.771,2.835-1.647.546V573.3a2.966,2.966,0,0,0-.4-1.178c0-.015-.01-.015-.01-.02l1.683-.535,8.75-2.845a.584.584,0,0,0,.036.1,9.81,9.81,0,0,1,.362,1.1C268.9,569.933,268.9,569.933,268.9,569.953Zm-7.557,7.97-1.6-2.2-.642-.9,1.02-.342,2.59-.831,6.517-2.126a12.259,12.259,0,0,1,.178,2.177,13.8,13.8,0,0,1-4.039,9.8Zm-3.646-.076-.979-1.367a.116.116,0,0,0,.087-.041,2.537,2.537,0,0,0,.9-.678c.015,0,.041-.025.056-.056l1,1.362,5.441,7.506a.135.135,0,0,0-.025.031c-.316.235-.622.479-.984.719-.015,0-.015.015-.031.031Zm-8.526,8.286,4.033-5.548,1.581-2.2.663-.9.658.887,1.591,2.218,4.054,5.558a13.778,13.778,0,0,1-12.58-.01Zm-2.443-1.571,5.426-7.5.964-1.336c.031.025.051.051.076.071a2.627,2.627,0,0,0,.877.632c.041.025.051.041.087.066l-.948,1.331-5.456,7.48-.051-.036a8.667,8.667,0,0,1-.908-.653ZM241.489,573.7a13.5,13.5,0,0,1,.184-2.162l6.476,2.111,2.6.831,1.035.342-.632.9-1.622,2.2-4.008,5.553A13.857,13.857,0,0,1,241.489,573.7Z" transform="translate(-240.23 -558.48)" fill="#fafafa"/>
              </g>
            </g>
            <path id="Path_3525" data-name="Path 3525" d="M572.635,589.06a19.02,19.02,0,1,0-19.025-19.02A19.046,19.046,0,0,0,572.635,589.06Z" transform="translate(-362.495 -505.938)" fill="#4c4c4c"/>
            <g id="Group_1928" data-name="Group 1928" transform="translate(194.914 48.886)">
              <path id="Path_3526" data-name="Path 3526" d="M561.77,574.034a14.859,14.859,0,1,0,14.864-14.864A14.861,14.861,0,0,0,561.77,574.034Z" transform="translate(-561.408 -558.818)" fill="#878787"/>
              <g id="Group_1927" data-name="Group 1927">
                <path id="Path_3527" data-name="Path 3527" d="M561.06,573.7a15.142,15.142,0,0,0,4.543,10.815l.046.051,1.117,1,.036.031c.331.26.683.51,1.025.739l1.407.841a15.11,15.11,0,0,0,14.084.015,11.653,11.653,0,0,0,1.392-.826c.367-.24.709-.49,1.05-.76l1.193-1.071a15.122,15.122,0,0,0,4.559-10.831,14.692,14.692,0,0,0-.229-2.57,8.56,8.56,0,0,0-.352-1.571,9.846,9.846,0,0,0-.393-1.229c-.2-.5-.418-1-.663-1.479a15.235,15.235,0,0,0-11.351-8.215,15.439,15.439,0,0,0-1.6-.143c-.214-.02-.418-.02-.632-.02-.235,0-.454,0-.678.02a14.437,14.437,0,0,0-1.581.143,15.232,15.232,0,0,0-11.335,8.22,10.885,10.885,0,0,0-.663,1.484,11.923,11.923,0,0,0-.393,1.229,12.691,12.691,0,0,0-.357,1.555A14.23,14.23,0,0,0,561.06,573.7Zm2.188-4.962,8.73,2.835,1.627.52c0,.015-.02.036-.041.051a3.309,3.309,0,0,0-.372,1.1c0,.031-.015.051-.015.071l-1.606-.52-8.725-2.83c0-.031.015-.041.015-.071a11.552,11.552,0,0,1,.362-1.1C563.232,568.765,563.232,568.745,563.247,568.734Zm10.785,1.8-1.056-.331-2.621-.852-6.44-2.1a13.936,13.936,0,0,1,10.112-7.333v10.616Zm2.9.138h-.036a2.473,2.473,0,0,0-.643-.061,2.55,2.55,0,0,0-.6.051.035.035,0,0,0-.025.015h-.01V559.765a.486.486,0,0,1,.148-.015,3.724,3.724,0,0,1,.418-.015h.189a3.538,3.538,0,0,1,.52.031h.036Zm.739,3.008a1.377,1.377,0,1,1-1.377-1.367A1.374,1.374,0,0,1,577.668,573.681Zm10.994-6.44-6.491,2.111-2.6.852-1.05.331V559.918A13.96,13.96,0,0,1,588.662,567.24Zm1.066,2.713-8.776,2.835-1.647.546V573.3a2.814,2.814,0,0,0-.4-1.178c0-.015-.005-.015-.005-.02l1.683-.535,8.74-2.845a.424.424,0,0,1,.041.1,11.04,11.04,0,0,1,.367,1.1Zm-7.557,7.97-1.6-2.2-.648-.9,1.025-.342,2.6-.831,6.522-2.126a12.756,12.756,0,0,1,.173,2.177,13.781,13.781,0,0,1-4.038,9.8Zm-3.646-.076-.989-1.367a.1.1,0,0,0,.087-.041,2.6,2.6,0,0,0,.9-.678.137.137,0,0,0,.051-.056l1,1.362,5.436,7.506a.055.055,0,0,1-.02.031c-.321.235-.627.479-.989.719-.015,0-.015.015-.025.031Zm-8.536,8.286,4.044-5.548,1.581-2.2.653-.9.663.887,1.6,2.218,4.054,5.558a13.8,13.8,0,0,1-12.59-.01Zm-2.437-1.571,5.431-7.5.964-1.336a.348.348,0,0,0,.076.071,2.608,2.608,0,0,0,.872.632c.036.025.051.041.092.066l-.948,1.331-5.461,7.48-.051-.036a9.413,9.413,0,0,1-.918-.653ZM562.324,573.7a13.482,13.482,0,0,1,.179-2.162l6.476,2.111,2.6.831,1.035.342-.627.9-1.621,2.2-4.008,5.553A13.814,13.814,0,0,1,562.324,573.7Z" transform="translate(-561.06 -558.48)" fill="#fafafa"/>
              </g>
            </g>
            <g id="Group_1929" data-name="Group 1929" transform="translate(110.471 3.932)" opacity="0.18">
              <path id="Path_3528" data-name="Path 3528" d="M395.46,475.582a131.872,131.872,0,0,1,14.477.8,149.05,149.05,0,0,1,34.914,8.373c.663.219,1.367.469,2.116.76-.041-.566-.061-1.122-.061-1.647,0-1.173,1.265-1.56,2.177-1.591-11.05-5.471-24.558-10.953-26.694-11.31-2.621-.423-8.184-.648-16.537-.648-3.442,0-6.889.036-9.821.076C395.817,472.176,395.623,473.91,395.46,475.582Z" transform="translate(-395.46 -470.32)" fill="#fff"/>
            </g>
            <g id="Group_1930" data-name="Group 1930" transform="translate(88.789 4.085)" opacity="0.18">
              <path id="Path_3529" data-name="Path 3529" d="M352.94,472.119c5.691.418,11.152,2.825,16.817,2.825.143-1.407.3-2.845.469-4.324-1.086.015-1.963.02-2.555.02A100.783,100.783,0,0,0,352.94,472.119Z" transform="translate(-352.94 -470.62)" fill="#fff"/>
            </g>
          </g>
          <g id="Group_1932" data-name="Group 1932" transform="translate(151.892)">
            <path id="Path_3530" data-name="Path 3530" d="M560.4,536.98l-83.708.479v30.789H560.4Z" transform="translate(-476.69 -485.379)" fill="#707070"/>
            <path id="Path_3531" data-name="Path 3531" d="M511.15,491.115c-3.039-1.28-21.493-11.05-34.46-16.965v2.942c10.856,4.727,24.333,11.336,27.4,15.012.285.321.189.607-.255.831a2.876,2.876,0,0,1-.286.158,7.444,7.444,0,0,1-1.377.347,57.769,57.769,0,0,1-7.985.612c-1.632.061-3.452.061-5.431.061-3.575,0-7.664-.061-12.07-.158v43.562h35.383v-.056a22.966,22.966,0,0,1-.607-5.176,23.443,23.443,0,0,1,46.887,0,21.092,21.092,0,0,1-.612,5.176v.031h.031s-.031,0-.031.025h11.5c2.142,0,2.779,0,4.115-.1.607,0,1.341-.061,2.432-.122.54-.036,1.147-.061,1.887-.1.352-.031.765-.031,1.178-.066a9.139,9.139,0,0,0,2.4-.418c.122-.031.219-.066.316-.092a1.96,1.96,0,0,0,.382-.2,2.157,2.157,0,0,0,.673-.377,2.547,2.547,0,0,0,.765-.831,2.8,2.8,0,0,0,.286-.7,4.007,4.007,0,0,0-.061-2.147.774.774,0,0,0-.061-.255.4.4,0,0,0-.066-.189,1.9,1.9,0,0,0-.158-.444c-.092-.194-.158-.357-.224-.479a.554.554,0,0,1-.1-.128v-.036s-.025-.031-.1-.128v-.031a3.274,3.274,0,0,0-.224-.413c-.061-.194-.194-.408-.286-.637a6.527,6.527,0,0,1-.26-.7,3.883,3.883,0,0,1-.153-.953c0-1.815,0-3.478-.036-4.946,0-.515-.026-.994-.026-1.474v-.479a7.786,7.786,0,0,0-.031-.862v-.133c0-.377-.036-.765-.036-1.117-.031-.413-.031-.8-.061-1.183a9.75,9.75,0,0,0-.066-1.05c0-.352-.036-.7-.061-1.025a7.516,7.516,0,0,1-.066-.892c-.061-.51-.092-.954-.158-1.407-.637-4.569-1.851-6.063-4.151-9.229-.383-.51-.77-1.056-1.214-1.693-.286-.413.1-.158-.388-.382l-.189-.128-10.764-.607-.484-.031-.668-.036h-.031l-47.433-2.682-3.034-.194v-6.736h-.036A16.777,16.777,0,0,1,511.15,491.115Z" transform="translate(-476.69 -454.587)" fill="#303030"/>
            <path id="Path_3532" data-name="Path 3532" d="M476.69,479.92v16.863c4.406.1,8.5.158,12.07.158,1.979,0,3.8,0,5.431-.061a56.971,56.971,0,0,0,7.985-.612,7.292,7.292,0,0,0,1.377-.377,2.234,2.234,0,0,0,.286-.127c.444-.229.54-.51.255-.831C501.023,491.255,487.551,484.647,476.69,479.92Z" transform="translate(-476.69 -457.415)" fill="#9d9d9d"/>
            <path id="Path_3533" data-name="Path 3533" d="M488.857,486.947c5.91,2.942,11.116,5.844,13.482,7.985a45.561,45.561,0,0,1-8.179.668c-1.632.066-3.452.1-5.4.1h-.5c-3.518,0-7.414-.066-11.565-.189v1.275c4.406.1,8.5.158,12.07.158,1.979,0,3.8,0,5.431-.061a56.971,56.971,0,0,0,7.985-.612,7.292,7.292,0,0,0,1.377-.377,2.234,2.234,0,0,0,.286-.127c.444-.229.54-.51.255-.831-3.07-3.671-16.547-10.285-27.4-15.012V481.3C480.652,483.02,484.895,484.963,488.857,486.947Z" transform="translate(-476.69 -457.415)" fill="#d9d9d9"/>
            <path id="Path_3534" data-name="Path 3534" d="M496.26,495.281c0,1.576.2,3.6.362,5.135.4,3.728,3.676.214,4.39.724.954.693-2.177,1.815-2.657,2.565a82.712,82.712,0,0,0,9.535.495c4.681-.117,5.375-.785,5.252-1.55a64.58,64.58,0,0,0-9.224-6.945c-.75-.428-1.438-.816-2.121-1.132-.01-.031-.02-.031-.036-.031a8.337,8.337,0,0,0-2.993-.841C497.9,493.623,496.26,493.95,496.26,495.281Z" transform="translate(-486.281 -464.163)" fill="#303030"/>
            <path id="Path_3535" data-name="Path 3535" d="M648.62,533.253c1.051,4,2.315,7.588,6.741,8.638,3.309.688,6.9.474,10.407.367-.622-4.569-1.866-6.068-4.166-9.245C657.278,532.978,652.878,532.922,648.62,533.253Z" transform="translate(-560.95 -483.422)" fill="#efefef"/>
            <path id="Path_3536" data-name="Path 3536" d="M564.365,529.079,476.7,524.51v37.657h35.383v-.031a22.964,22.964,0,0,1-.607-5.176,23.443,23.443,0,0,1,46.887,0,21.1,21.1,0,0,1-.612,5.176v.031h11.5c2.142,0,2.779,0,4.115-.066.607-.025,1.341-.061,2.432-.122.541-.036,1.147-.061,1.887-.1.352-.031.765-.031,1.178-.066a9.145,9.145,0,0,0,2.4-.418,2.105,2.105,0,0,0,.7-.291,2.155,2.155,0,0,0,.673-.377,3.729,3.729,0,0,0,.765-.831,2.8,2.8,0,0,0,.286-.7,4.008,4.008,0,0,0-.061-2.147.773.773,0,0,0-.061-.255.4.4,0,0,0-.066-.189,1.891,1.891,0,0,0-.158-.444c-.092-.194-.158-.357-.224-.479a1.024,1.024,0,0,0-.1-.127v-.036s-.025-.031-.1-.127v-.031a3.256,3.256,0,0,0-.224-.413c-.061-.194-.194-.408-.286-.637a6.565,6.565,0,0,1-.26-.7,3.882,3.882,0,0,1-.153-.953c0-1.815,0-3.478-.036-4.946,0-.515-.026-.994-.026-1.474v-.479a7.773,7.773,0,0,0-.031-.862v-.133c0-.377-.036-.765-.036-1.117,0-.413-.031-.8-.031-1.183-.026-.352-.061-.734-.061-1.05-.031-.352-.066-.7-.1-1.025a7.493,7.493,0,0,1-.066-.892c-.061-.51-.092-.954-.158-1.407a44.433,44.433,0,0,1-10.346-.352C566.66,536.682,565.421,533.071,564.365,529.079Z" transform="translate(-476.695 -479.268)" fill="#303030" opacity="0.56"/>
            <path id="Path_3537" data-name="Path 3537" d="M572.48,588.884a19.007,19.007,0,1,0-19.01-19.01A19.032,19.032,0,0,0,572.48,588.884Z" transform="translate(-514.318 -492.186)" fill="#4c4c4c"/>
            <path id="Path_3538" data-name="Path 3538" d="M561.65,573.874a14.841,14.841,0,1,0,14.839-14.844A14.842,14.842,0,0,0,561.65,573.874Z" transform="translate(-518.327 -496.185)" fill="#878787"/>
            <path id="Path_3539" data-name="Path 3539" d="M560.91,573.511a15.192,15.192,0,0,0,4.538,10.81l.056.056,1.112.994.031.02a12.484,12.484,0,0,0,1.03.745l1.407.836a15.1,15.1,0,0,0,14.069.01,10.9,10.9,0,0,0,1.4-.821c.367-.234.7-.489,1.045-.755l1.188-1.081a15.23,15.23,0,0,0,4.554-10.82,14.309,14.309,0,0,0-.224-2.57,9.127,9.127,0,0,0-.362-1.57,10.068,10.068,0,0,0-.388-1.229,15.927,15.927,0,0,0-.658-1.479,14.888,14.888,0,0,0-12.942-8.342,5.138,5.138,0,0,0-.627-.025,5.967,5.967,0,0,0-.678.025,13.6,13.6,0,0,0-1.586.133,15.243,15.243,0,0,0-11.32,8.225,11.289,11.289,0,0,0-.673,1.479c-.138.4-.286.816-.388,1.229a12.451,12.451,0,0,0-.357,1.565A14.288,14.288,0,0,0,560.91,573.511Zm12.192,5.181-4.676,6.43-.041-.046a7.538,7.538,0,0,1-.923-.653l-.066-.046,4.1-5.686,1.316-1.805.964-1.336a.336.336,0,0,1,.071.077,2.755,2.755,0,0,0,.872.632,1.077,1.077,0,0,1,.1.061l-.954,1.331Zm4.273-2.4a.137.137,0,0,0,.092-.036,2.571,2.571,0,0,0,.9-.678.125.125,0,0,0,.051-.061l1,1.367,1.316,1.8,4.125,5.7c-.015.01-.015.01-.02.026-.321.235-.622.479-.994.719-.015,0-.015.01-.025.026l-4.691-6.466-.76-1.035Zm1.775-3.136v-.041a3.024,3.024,0,0,0-.4-1.173c0-.01-.02-.01-.02-.026l1.683-.53,8.745-2.845a.227.227,0,0,0,.046.1c.138.352.255.76.362,1.1v.026l-8.776,2.845Zm-3.014,1.729a1.377,1.377,0,0,1-1.377-1.387,1.374,1.374,0,0,1,2.748,0A1.385,1.385,0,0,1,576.136,574.883Zm-4.712-2.274-8.73-2.825c0-.031.005-.046.005-.066.107-.362.235-.745.372-1.117.01-.01.01-.036.02-.046l8.725,2.83,1.632.515a.043.043,0,0,1-.036.051,2.961,2.961,0,0,0-.372,1.106c0,.02-.01.051-.01.071Zm-7.659-5.533a14,14,0,0,1,10.107-7.328V570.36l-1.05-.342-2.616-.846Zm12.258-7.516h.194a4.046,4.046,0,0,1,.515.025h.031v10.9h-.036a2.941,2.941,0,0,0-.637-.061,3.288,3.288,0,0,0-.6.051.039.039,0,0,0-.025.01h-.01v-10.9a.359.359,0,0,1,.148-.02C575.749,559.56,575.886,559.56,576.024,559.56Zm12.467,7.5-6.486,2.111-2.6.846-1.045.342V559.748A13.943,13.943,0,0,1,588.491,567.061Zm1.586,6.45a13.875,13.875,0,0,1-4.033,9.791l-3.34-4.61-.7-.959-1.591-2.2-.642-.892,1.02-.342,2.6-.831,6.512-2.126A11.745,11.745,0,0,1,590.077,573.511Zm-13.941,13.951a13.646,13.646,0,0,1-6.3-1.514l4.033-5.553,1.214-1.7.372-.5.653-.9.658.887.388.515,1.214,1.7,4.044,5.563A13.648,13.648,0,0,1,576.136,587.462Zm-9.933-4.181a13.679,13.679,0,0,1-3.029-4.589,13.82,13.82,0,0,1-1-5.181,13.541,13.541,0,0,1,.184-2.162l6.471,2.111,2.6.831,1.035.342-.638.892-1.616,2.2-.694.959Z" transform="translate(-517.964 -495.823)" fill="#fafafa"/>
            <path id="Path_3540" data-name="Path 3540" d="M488.857,488.27c-3.962-1.978-8.2-3.926-12.167-5.65v5.456c2.488.77,5.109,1.662,7.919,2.657.668.219,1.372.479,2.106.76-.036-.571-.066-1.112-.066-1.627C486.654,488.683,487.934,488.3,488.857,488.27Z" transform="translate(-476.69 -458.738)" fill="#fff" opacity="0.18"/>
            <path id="Path_3541" data-name="Path 3541" d="M548.02,472.89c.01,0,.036.015.051.015v6.726l3.034.178L587.59,446.44l1.025-.943,10.611-9.709C590.782,435.492,558.764,465.95,548.02,472.89Z" transform="translate(-511.647 -435.786)" fill="#9d9d9d"/>
            <path id="Path_3542" data-name="Path 3542" d="M547.99,508.565l.061.133v-.133c-.015,0-.041-.015-.051-.015A.011.011,0,0,1,547.99,508.565Z" transform="translate(-511.633 -471.446)" fill="#898989"/>
            <path id="Path_3543" data-name="Path 3543" d="M625.62,455.763l10.917,36.067h.046l.673.036.474.031.127-.041L626.645,454.82Z" transform="translate(-549.678 -445.114)" fill="#bbb"/>
          </g>
        </g>
      </g>
    </g>
  </g>
</svg>
