<svg xmlns="http://www.w3.org/2000/svg" xmlns:xlink="http://www.w3.org/1999/xlink" width="458" height="458" viewBox="0 0 458 458">
  <defs>
    <linearGradient id="linear-gradient" x1="0.865" y1="0.178" x2="0.152" y2="0.822" gradientUnits="objectBoundingBox">
      <stop offset="0" stop-color="#fdb819"/>
      <stop offset="1" stop-color="#fff"/>
    </linearGradient>
    <linearGradient id="linear-gradient-2" x1="-30.738" y1="-2.34" x2="-29.738" y2="-2.34" gradientUnits="objectBoundingBox">
      <stop offset="0" stop-color="#eaeaea"/>
      <stop offset="0.996" stop-color="#eaeaea"/>
    </linearGradient>
    <linearGradient id="linear-gradient-3" x1="-31.091" y1="-3.913" x2="-30.08" y2="-3.913" gradientUnits="objectBoundingBox">
      <stop offset="0" stop-color="#e6e6e6"/>
      <stop offset="0.996" stop-color="#e1e1e1"/>
    </linearGradient>
    <linearGradient id="linear-gradient-4" x1="0.078" y1="0.762" x2="0.912" y2="-0.212" gradientUnits="objectBoundingBox">
      <stop offset="0" stop-color="#fff"/>
      <stop offset="1" stop-color="#fff"/>
    </linearGradient>
    <linearGradient id="linear-gradient-5" y1="0.249" x2="1" y2="0.249" gradientUnits="objectBoundingBox">
      <stop offset="0" stop-color="#f6f6f6"/>
      <stop offset="1" stop-color="#f8f8f8"/>
    </linearGradient>
    <linearGradient id="linear-gradient-6" x1="0" y1="-1.163" x2="1" y2="-1.163" xlink:href="#linear-gradient-4"/>
    <linearGradient id="linear-gradient-7" x1="0" y1="-4.074" x2="1" y2="-4.074" xlink:href="#linear-gradient-5"/>
    <linearGradient id="linear-gradient-8" x1="0.132" y1="-1.647" x2="0.969" y2="-1.118" xlink:href="#linear-gradient-4"/>
    <linearGradient id="linear-gradient-9" x1="0" y1="-2.769" x2="1" y2="-2.769" xlink:href="#linear-gradient-5"/>
    <linearGradient id="linear-gradient-10" x1="-27.876" y1="0.496" x2="-26.876" y2="0.496" xlink:href="#linear-gradient-2"/>
    <linearGradient id="linear-gradient-11" x1="-28.199" y1="0.084" x2="-27.188" y2="0.084" xlink:href="#linear-gradient-3"/>
    <linearGradient id="linear-gradient-12" x1="-39.302" y1="2.534" x2="-38.302" y2="2.534" xlink:href="#linear-gradient-2"/>
    <linearGradient id="linear-gradient-13" x1="-39.752" y1="2.958" x2="-38.741" y2="2.958" xlink:href="#linear-gradient-3"/>
    <linearGradient id="linear-gradient-14" x1="-66.993" y1="-6.088" x2="-65.993" y2="-6.088" xlink:href="#linear-gradient-2"/>
    <linearGradient id="linear-gradient-15" x1="-67.754" y1="-9.194" x2="-66.743" y2="-9.194" xlink:href="#linear-gradient-3"/>
  </defs>
  <g id="Group_2043" data-name="Group 2043" transform="translate(-393 -1786)">
    <circle id="Ellipse_8" data-name="Ellipse 8" cx="229" cy="229" r="229" transform="translate(393 2244) rotate(-90)" fill="url(#linear-gradient)"/>
    <g id="Group_2027" data-name="Group 2027" transform="translate(-0.544 -0.603)">
      <g id="Be_Eco-Friendly_and_reuse_for_better_environment" data-name="Be Eco-Friendly and reuse for better environment" transform="translate(481.744 1846.581)">
        <g id="Group_1172" data-name="Group 1172" transform="translate(-17.201 10.022)">
          <g id="Group_1151" data-name="Group 1151" transform="translate(0 236.743)" opacity="0.8">
            <path id="Path_2129" data-name="Path 2129" d="M67.162,723.482a16.56,16.56,0,0,1,5.171.824A14.42,14.42,0,0,1,93.5,706.283a20.77,20.77,0,0,1,39.664,3.69,24.135,24.135,0,1,1,8.3,46.8h-74.3a16.646,16.646,0,0,1,0-33.292Z" transform="translate(-50.52 -693.22)" fill="url(#linear-gradient-2)"/>
            <path id="Path_2130" data-name="Path 2130" d="M134.545,777.71a24.124,24.124,0,0,0,20.95-36.1,24.13,24.13,0,0,1-11.971,45.083h-74.3A16.649,16.649,0,0,1,53.85,776.44a16.563,16.563,0,0,0,6.388,1.275h74.307Z" transform="translate(-52.579 -723.144)" fill="url(#linear-gradient-3)"/>
          </g>
          <g id="Group_1158" data-name="Group 1158" transform="translate(95.546)">
            <g id="Group_1153" data-name="Group 1153" transform="translate(34.756)">
              <g id="Group_1152" data-name="Group 1152">
                <path id="Path_2131" data-name="Path 2131" d="M483.159,72.84c-35.463,47.407,0,64.011,0,64.011S518.622,120.247,483.159,72.84Z" transform="translate(-467.398 -72.84)" fill="#7c7c7c"/>
                <path id="Path_2132" data-name="Path 2132" d="M501.94,135.882c-.969,1.1-1.908,2.21-2.862,3.316s-1.885,2.229-2.812,3.354a43.619,43.619,0,0,0-2.767,3.393c-.412.6-.817,1.214-1.187,1.847-.156.263-.313.534-.462.805.034-1.229.065-2.461.092-3.69.061-2.9.008-5.808-.05-8.716.321-.267.622-.55.916-.84.446-.443.878-.9,1.282-1.366a32.272,32.272,0,0,0,2.179-3.034q1.076-1.528,2.129-3.072c.691-1.038,1.4-2.065,2.08-3.11l-.1-.076c-.836.927-1.649,1.874-2.473,2.809s-1.622,1.889-2.423,2.847a32.775,32.775,0,0,0-2.374,2.881c-.351.515-.679,1.046-.992,1.591-.084.145-.164.294-.244.439-.019-1.049-.042-2.1-.053-3.144l-.187-12.788-.248-12.788h-.122l-.248,12.788-.1,6.907-.183-.355a14.583,14.583,0,0,0-.794-1.332,10.319,10.319,0,0,0-.943-1.214c-.347-.382-.7-.756-1.03-1.149q-1-1.173-2.022-2.324c-.691-.763-1.366-1.534-2.072-2.286l-.1.076c.546.874,1.118,1.725,1.679,2.587s1.145,1.706,1.729,2.549c.29.424.565.859.843,1.29a10.41,10.41,0,0,0,.931,1.221,14.807,14.807,0,0,0,1.084,1.107,10.606,10.606,0,0,0,.859.725l-.073,4.976c-.046,3.61-.168,7.216-.149,10.826-.114-.2-.229-.4-.347-.6-.374-.633-.779-1.24-1.187-1.847-.817-1.21-1.835-2.267-2.767-3.393s-1.866-2.244-2.812-3.354-1.9-2.221-2.862-3.316l-.1.076c.809,1.217,1.649,2.412,2.469,3.618s1.671,2.393,2.519,3.58,1.607,2.442,2.568,3.541c.477.553.962,1.1,1.481,1.622.336.343.683.683,1.046,1.007,0,.34.008.683.015,1.023.042,2.129.092,4.263.183,6.392s.206,4.263.374,6.392h.122q.252-3.194.374-6.392c.027-.618.042-1.233.065-1.851.412-.363.8-.74,1.179-1.13.515-.523,1-1.069,1.481-1.622.962-1.1,1.721-2.355,2.568-3.541s1.687-2.381,2.519-3.579,1.66-2.4,2.469-3.618Z" transform="translate(-475.562 -93.68)" fill="#5e5e5e"/>
              </g>
            </g>
            <g id="Group_1155" data-name="Group 1155" transform="translate(54.388 59.615)">
              <g id="Group_1154" data-name="Group 1154">
                <path id="Path_2133" data-name="Path 2133" d="M565.409,229.06c-58.6,8.445-45.263,45.263-45.263,45.263S556.964,287.656,565.409,229.06Z" transform="translate(-518.842 -229.06)" fill="#7c7c7c"/>
                <path id="Path_2134" data-name="Path 2134" d="M545.129,281.07c-1.458.092-2.912.214-4.369.321s-2.908.244-4.362.382a43.7,43.7,0,0,0-4.354.443c-.717.137-1.435.282-2.145.466-.3.076-.6.156-.9.244q1.345-1.265,2.675-2.545c2.1-2.011,4.114-4.1,6.125-6.2.416.034.828.05,1.24.053.63,0,1.252-.015,1.874-.061a32.847,32.847,0,0,0,3.686-.607q1.843-.321,3.679-.668c1.221-.244,2.45-.469,3.667-.729l-.015-.122c-1.248.061-2.488.16-3.732.237s-2.484.187-3.724.3a32.669,32.669,0,0,0-3.717.359c-.611.114-1.221.259-1.828.424l-.485.137c.725-.756,1.454-1.511,2.187-2.259l8.91-9.174,8.865-9.212-.088-.088-9.216,8.869-4.953,4.812c.042-.126.084-.252.122-.382a14.892,14.892,0,0,0,.382-1.5,10.233,10.233,0,0,0,.191-1.526c.023-.515.042-1.027.084-1.542.08-1.023.153-2.049.214-3.072s.118-2.053.153-3.083l-.122-.015c-.229,1-.427,2.011-.645,3.019q-.3,1.511-.58,3.026c-.092.5-.206,1.007-.317,1.511a10.267,10.267,0,0,0-.206,1.523,14.956,14.956,0,0,0-.015,1.549c.015.37.042.744.1,1.122l-3.572,3.469c-2.584,2.519-5.22,4.984-7.758,7.548.061-.221.122-.443.179-.668.183-.71.328-1.427.466-2.145a43.7,43.7,0,0,0,.443-4.354q.206-2.181.382-4.362c.107-1.458.229-2.912.32-4.369l-.122-.015c-.286,1.435-.538,2.87-.813,4.3q-.389,2.152-.748,4.312a43.587,43.587,0,0,0-.687,4.32c-.054.729-.1,1.458-.1,2.194-.008.481,0,.965.027,1.45-.237.244-.477.488-.714.733-1.477,1.538-2.946,3.08-4.392,4.652s-2.87,3.16-4.259,4.785l.088.088q2.438-2.084,4.785-4.255c.454-.416.9-.843,1.351-1.263.546.038,1.091.042,1.633.038.737,0,1.465-.05,2.194-.1,1.458-.1,2.881-.447,4.32-.687s2.877-.488,4.312-.748,2.874-.523,4.3-.813Z" transform="translate(-520.894 -243.722)" fill="#5e5e5e"/>
              </g>
            </g>
            <g id="Group_1157" data-name="Group 1157" transform="translate(0 59.615)">
              <g id="Group_1156" data-name="Group 1156">
                <path id="Path_2135" data-name="Path 2135" d="M376.32,229.06c58.6,8.445,45.263,45.263,45.263,45.263S384.765,287.656,376.32,229.06Z" transform="translate(-376.32 -229.06)" fill="#7c7c7c"/>
                <path id="Path_2136" data-name="Path 2136" d="M413.32,281.07c1.458.092,2.912.214,4.369.321s2.908.244,4.362.382a43.7,43.7,0,0,1,4.354.443c.717.137,1.435.282,2.145.466.3.076.6.156.9.244q-1.345-1.265-2.675-2.545c-2.1-2.011-4.114-4.1-6.125-6.2-.416.034-.828.05-1.24.053-.63,0-1.252-.015-1.874-.061a32.848,32.848,0,0,1-3.686-.607q-1.843-.321-3.679-.668c-1.221-.244-2.45-.469-3.667-.729l.015-.122c1.248.061,2.488.16,3.732.237s2.484.187,3.725.3a32.671,32.671,0,0,1,3.717.359c.611.114,1.221.259,1.828.424l.485.137c-.725-.756-1.454-1.511-2.187-2.259L408.9,262.07l-8.865-9.212.088-.088,9.216,8.869,4.953,4.812c-.042-.126-.084-.252-.122-.382a14.875,14.875,0,0,1-.382-1.5,10.245,10.245,0,0,1-.191-1.526c-.027-.515-.042-1.027-.084-1.542-.08-1.023-.153-2.049-.214-3.072s-.118-2.053-.153-3.083l.122-.015c.229,1,.427,2.011.645,3.019q.3,1.511.58,3.026c.092.5.206,1.007.317,1.511a10.267,10.267,0,0,1,.206,1.523,14.973,14.973,0,0,1,.015,1.549c-.015.37-.042.744-.1,1.122l3.572,3.469c2.583,2.519,5.22,4.984,7.758,7.548-.061-.221-.122-.443-.179-.668-.183-.71-.328-1.427-.466-2.145a43.709,43.709,0,0,1-.443-4.354q-.206-2.181-.382-4.362c-.107-1.458-.229-2.912-.321-4.369l.122-.015c.286,1.435.542,2.87.813,4.3s.511,2.874.748,4.312a43.65,43.65,0,0,1,.687,4.32c.053.729.1,1.458.1,2.194.008.481,0,.965-.027,1.45.237.244.477.488.714.733,1.477,1.538,2.95,3.08,4.392,4.652s2.87,3.16,4.259,4.785l-.088.088q-2.438-2.084-4.785-4.255c-.454-.416-.9-.843-1.351-1.263-.546.038-1.091.042-1.633.038-.737,0-1.465-.05-2.194-.1-1.458-.1-2.881-.447-4.32-.687s-2.877-.488-4.312-.748-2.874-.523-4.3-.813Z" transform="translate(-390.988 -243.722)" fill="#5e5e5e"/>
              </g>
            </g>
            <path id="Path_2137" data-name="Path 2137" d="M507.276,290.044l-.34-18.634-.172-9.315-.2-9.315h-.355l-.2,9.315-.172,9.315-.343,18.634-.534,16.379h2.851Z" transform="translate(-455.87 -184.113)" fill="#656565"/>
          </g>
          <g id="Group_1167" data-name="Group 1167" transform="translate(49.131 120.001)">
            <circle id="Ellipse_98" data-name="Ellipse 98" cx="98.776" cy="98.776" r="98.776" transform="translate(0 0.008)" fill="#7c7c7c"/>
            <g id="Group_1159" data-name="Group 1159" transform="translate(114.021 114.189)">
              <path id="Path_2138" data-name="Path 2138" d="M608.492,688.961c-4.82-.473-9.784-.744-14.41.691-2.53.786-5.251,2.622-5.178,5.274.042,1.538,1.053,2.919,1.152,4.453.145,2.267-1.786,4.236-3.938,4.969s-4.492.534-6.762.45a64.131,64.131,0,0,0-22.87,3.331c-3.091,1.046-6.613,3.049-6.606,6.312a5.485,5.485,0,0,0,2.8,4.446,12.617,12.617,0,0,0,5.236,1.5,20.116,20.116,0,0,1,5.533.988,5.084,5.084,0,0,1,3.393,4.121c.126,2.614-2.584,4.545-5.167,4.972s-5.251-.107-7.838.282-5.335,2.232-5.312,4.85c.027,2.984,3.5,4.709,6.48,4.877,4.312.244,8.521-1.259,12.818-1.687s9.3.634,11.414,4.4c.946,1.687,1.4,3.946,3.186,4.679,2.084.855,4.163-1.015,6.159-2.057,3.114-1.626,6.712-1.244,10.28-.817a98.6,98.6,0,0,0,32-58.466,19.6,19.6,0,0,1-7.9,2.874C618.181,690.094,613.312,689.434,608.492,688.961Z" transform="translate(-548.53 -686.53)" fill="#727272"/>
            </g>
            <g id="Group_1160" data-name="Group 1160" transform="translate(0 98.78)">
              <path id="Path_2139" data-name="Path 2139" d="M335.972,738.049c-1.816-3.209-7.518-2.824-8.7-6.316-.885-2.61,1.568-5.091,3.862-6.621s5-3.446,4.869-6.2c-.134-2.935-3.488-4.625-6.415-4.854-3.534-.275-7.033.645-10.494,1.4s-7.09,1.366-10.521.477-6.613-3.648-6.915-7.182c-.214-2.526,1.027-4.98.965-7.514-.1-4.087-3.637-7.418-7.518-8.708s-8.075-1.008-12.162-.9-8.369-.015-11.948-1.984-6.155-6.35-4.785-10.2c.748-2.1,2.477-3.671,3.774-5.48s2.164-4.327.988-6.22c-1.713-2.771-6.667-2.511-7.67-5.614-.5-1.561.351-3.263,1.523-4.411,2.133-2.087,5.377-3.217,5.842-6.533a3.339,3.339,0,0,0-2.381-4.045c-2.061-.744-4.556-.473-6.7-.767-.508-.069-1.007-.153-1.507-.237H249.74a98.793,98.793,0,0,0,85.084,97.833C336.262,742.167,337.06,739.969,335.972,738.049Z" transform="translate(-249.74 -646.15)" fill="#727272"/>
            </g>
            <path id="Path_2140" data-name="Path 2140" d="M503.1,516.584a15.585,15.585,0,0,0-4.8,4.347,7.5,7.5,0,0,0-1.145,6.209c.82,2.664,3.538,4.98,2.793,7.663-.538,1.946-2.656,2.927-4.537,3.66q-6.045,2.353-12.093,4.709a19.213,19.213,0,0,0-5.354,2.763,6.507,6.507,0,0,0-2.61,5.213c.195,3.122,3.4,5.293,6.5,5.728s6.224-.351,9.35-.515a9.854,9.854,0,0,1,5.438.973,4.629,4.629,0,0,1,2.454,4.64c-.351,1.782-1.946,2.984-3.232,4.263s-2.389,3.24-1.511,4.831c.981,1.775,3.549,1.652,5.514,1.156,5.434-1.366,11.17-3.705,16.417-1.736,3.915,1.469,6.628,5.064,10.261,7.132,4.255,2.419,9.51,2.561,14.264,1.412s9.132-3.48,13.433-5.823c3.343-1.82,6.789-3.755,9.029-6.835s2.915-7.644.527-10.609c-2.038-2.53-5.537-3.179-8.563-4.366s-6.152-3.9-5.461-7.071c.569-2.6,3.347-3.946,5.629-5.316a12.257,12.257,0,0,0,4.656-4.43,6.12,6.12,0,0,0,0-6.19c-1.553-2.32-4.7-2.824-7.487-3.019s-5.9-.447-7.747-2.538c-1.332-1.5-1.805-3.526-3.251-4.969a21.18,21.18,0,0,0-4.9-3.114,25.03,25.03,0,0,0-7.93-2.687C519.908,510.467,510.784,511.719,503.1,516.584Z" transform="translate(-389.253 -464.048)" fill="#727272"/>
            <g id="Group_1161" data-name="Group 1161" transform="translate(114.31 25.99)">
              <path id="Path_2141" data-name="Path 2141" d="M642.92,734.369c.137.172-.05-.069-.088-.111a1.12,1.12,0,0,0-.584-.321c-.015,0-.034,0-.05,0a.454.454,0,0,0-.214-.153,3.05,3.05,0,0,1-.454-.275,2.532,2.532,0,0,1-.4-.225.755.755,0,0,0-1.172.153,1.443,1.443,0,0,0,.469,1.851,3.1,3.1,0,0,0,.817.431,1.025,1.025,0,0,1,.446.282.885.885,0,0,0,1.374-.176,1.183,1.183,0,0,0,.031-1.213A2.294,2.294,0,0,0,642.92,734.369Z" transform="translate(-605.253 -627.112)" fill="#595959"/>
              <path id="Path_2142" data-name="Path 2142" d="M657.213,742a.8.8,0,0,0-1.229-.344.652.652,0,0,0-.122.046.878.878,0,0,0-.183,1.362,1.293,1.293,0,0,0,.313.489,1.418,1.418,0,0,0,1.786.122.9.9,0,0,0,.183-1.423A.83.83,0,0,0,657.213,742Z" transform="translate(-614.929 -632.32)" fill="#595959"/>
              <path id="Path_2143" data-name="Path 2143" d="M667.043,754.6a1.062,1.062,0,0,1-.267-.531.5.5,0,0,0-.553-.362.512.512,0,0,0-.439.5,3.186,3.186,0,0,0,.034.633,1.641,1.641,0,0,0,.053.271c.012.046.053.29.057.126a.738.738,0,1,0,1.114-.633Z" transform="translate(-621.325 -639.866)" fill="#595959"/>
              <path id="Path_2144" data-name="Path 2144" d="M624.032,727.594a.5.5,0,0,0-.366.366.56.56,0,0,0,.385.675.662.662,0,0,0,.7-.214.586.586,0,0,0,0-.737A.525.525,0,0,0,624.032,727.594Z" transform="translate(-595.273 -623.661)" fill="#595959"/>
              <path id="Path_2145" data-name="Path 2145" d="M569.585,521.151a11.64,11.64,0,0,1,1.645.4c.156.084.344.187.549.3a1.664,1.664,0,0,1,.626,1.2c.1.881-.08,1.622.717,2.236,1.038.8,3.389.683,3.648-.87a2.15,2.15,0,0,0-.294-1.454.506.506,0,0,0,.042-.279c-.24-2.08-2.481-2.164-3.812-3.335a3.261,3.261,0,0,1-.927-1.565,2.471,2.471,0,0,0-.481-1,3.723,3.723,0,0,0-2.435-.874c-1.362-.042-3.705.714-3.877,2.335C564.788,520.139,568.23,520.857,569.585,521.151Z" transform="translate(-558.99 -492.818)" fill="#595959"/>
              <path id="Path_2146" data-name="Path 2146" d="M555.564,511.39a1.089,1.089,0,0,0,.633-.248.917.917,0,0,0,.408.034.891.891,0,0,0,.668-.435.967.967,0,0,0,0-.923,1.5,1.5,0,0,0-1.324-.828,1.277,1.277,0,0,0-1.233.973,1.355,1.355,0,0,0,.027.74A.959.959,0,0,0,555.564,511.39Z" transform="translate(-552.621 -488.542)" fill="#595959"/>
              <path id="Path_2147" data-name="Path 2147" d="M558.6,497.744a.757.757,0,0,0,.244-.053.919.919,0,0,0,.107.011.752.752,0,0,0,.714-.939,1.05,1.05,0,0,0-1.034-.805c-.321.015-.695.286-.653.653a4.943,4.943,0,0,1,.019.534A.609.609,0,0,0,558.6,497.744Z" transform="translate(-554.657 -480.482)" fill="#595959"/>
              <path id="Path_2148" data-name="Path 2148" d="M563.672,539.91a1.163,1.163,0,0,0,.416-.389.64.64,0,0,0-.164-.824.649.649,0,0,0-.84.05.861.861,0,0,0-.233.34.623.623,0,0,0,.1.729A.6.6,0,0,0,563.672,539.91Z" transform="translate(-557.63 -506.831)" fill="#595959"/>
              <path id="Path_2149" data-name="Path 2149" d="M576.08,544.613a.7.7,0,0,0,0-1.393A.7.7,0,0,0,576.08,544.613Z" transform="translate(-565.439 -509.709)" fill="#595959"/>
              <path id="Path_2150" data-name="Path 2150" d="M562.69,636.39a.773.773,0,0,0,0,1.546A.773.773,0,0,0,562.69,636.39Z" transform="translate(-557.113 -567.325)" fill="#595959"/>
              <path id="Path_2151" data-name="Path 2151" d="M559.253,646.82a.669.669,0,0,0-.653-1.118c-.057.012-.115.019-.172.031a.639.639,0,0,0-.469.618.65.65,0,0,0,.469.618c.057.011.114.019.172.031A.708.708,0,0,0,559.253,646.82Z" transform="translate(-554.65 -573.072)" fill="#595959"/>
              <path id="Path_2152" data-name="Path 2152" d="M560.239,656a.525.525,0,0,0,0,1.05A.525.525,0,0,0,560.239,656Z" transform="translate(-555.746 -579.451)" fill="#595959"/>
              <path id="Path_2153" data-name="Path 2153" d="M632.173,519.693a98.311,98.311,0,0,0-21.256-53.166l-5.129-1.66a9.787,9.787,0,0,0-3.6-.676,15.863,15.863,0,0,0-5.27-2.381c-1.961-.488-3.675-.485-5.236-1.931a14.071,14.071,0,0,0-4.217-3.042,18.466,18.466,0,0,0-4.839-1.133c-1.706-.21-3.664-.592-5.3.08a11.71,11.71,0,0,0-2,1.274,7.476,7.476,0,0,1-2.335.805,4.461,4.461,0,0,0-2.789,2.458c-.511,1.053-.767,2.2-1.206,3.278-.744,1.832-2.061,2.37-3.927,2.709-3.247.588-6.14,1.92-7.739,4.992-.515.992-1.393,2.809-.466,3.809a1.866,1.866,0,0,0,1.645.446c1.164-.1,2.29-.317,3.465-.324.5,0,1,.008,1.492.042.908.065.771.343,1.091,1.046a2.7,2.7,0,0,0,1.183,1.233c1.072.591,3.053.37,3.663,1.546.385.74.3,1.5.931,2.148a4.02,4.02,0,0,0,1.981,1.049,12.491,12.491,0,0,0,2.748.153,5.285,5.285,0,0,1,1.641.172c.767.263,1.809,1.244,1.145,2.168a4.28,4.28,0,0,0-.958.649c-.027.023-.046.046-.069.069a17.891,17.891,0,0,0-4.171,2.309,42.6,42.6,0,0,0-4.1,2.98c-1.465,1.24-2.618,2.751-4,4.079a7.284,7.284,0,0,1-4.873,2.091,51.1,51.1,0,0,0-5.186.24c-2.687.443-5.266,2.129-5.2,5.121a3.843,3.843,0,0,0,1.149,2.736,3.435,3.435,0,0,0,1.462.74c.206.057.832.076.981.237.435.466-.2,1.637-.351,2.114-.324,1.015-.645,2.034-.969,3.049a16.338,16.338,0,0,0-.931,3.1c-.118,1.172.7,1.786,1.756,2.023.87.195,1.576.042,1.931,1.015.237.645.244,1.164.775,1.66a3.391,3.391,0,0,0,2.694.7,3.081,3.081,0,0,0,.382,2.946,3.9,3.9,0,0,0,.328,1.469c.538,1.29,1.9,2.538,1.313,3.8-.347.74-1.217,1.038-1.95,1.408s-1.469,1.122-1.2,1.9c.374,1.08,2.1.8,2.893,1.622.82.847.206,2.263-.553,3.164s-1.706,1.935-1.423,3.08a2.485,2.485,0,0,0,2.37,1.6c1.019.061,2.026-.229,3.045-.267a6.469,6.469,0,0,1,6.427,6.545c-.061,1.1-.321,2.454.565,3.118a2.145,2.145,0,0,0,2.282-.115,14.547,14.547,0,0,1,2.068-1.248,2.9,2.9,0,0,1,3.335,4.431l.744.538a1.492,1.492,0,0,0,.34,1.481,5.345,5.345,0,0,0,1.461.874,3.186,3.186,0,0,1,1.225,1.923,4.1,4.1,0,0,0,2.488,2.423c1.6.737,3.183,1.523,4.808,2.19a5.4,5.4,0,0,0,3.564.42q2.061.87,4.125,1.736c.939.4,2.275.668,2.759-.229.187.4.37.805.557,1.21l6.354.137c1.759.038,3.629.046,5.121-.885s2.286-3.179,1.118-4.492c-.42-.469-1.034-.771-1.32-1.328-.469-.916.153-1.988.752-2.824l.3-.412a3.479,3.479,0,0,0,2.454-.607.466.466,0,0,0,.653.309,1.575,1.575,0,0,0,.805-1.007,2.446,2.446,0,0,0,2.122-.6,2.187,2.187,0,0,0,.687-1.813c-.069-.847-.55-1.156.168-1.778a2.7,2.7,0,0,0,.958-1.381,5.628,5.628,0,0,1,.145-1.038,2.576,2.576,0,0,1,.542-.675,6.879,6.879,0,0,0,2.1-2.011.991.991,0,0,0-.1-1.11,1.186,1.186,0,0,0,.13-1.53,1.587,1.587,0,0,0-2.24-.263,1.056,1.056,0,0,0-.34.336,3.221,3.221,0,0,1-2.584-1.492c-.977-1.809.653-3.862,2.045-5.377a8.351,8.351,0,0,0,2.194-3.522,3.63,3.63,0,0,0-.576-3.015,5.021,5.021,0,0,0,1.889-4.037,3.968,3.968,0,0,0-.221-1.1c-.111-.324-.546-.859-.531-1.187a1.658,1.658,0,0,1,.347-.824q2.318.023,4.637.042a5.611,5.611,0,0,0,2.557-.378,1.922,1.922,0,0,0,1.126-2.118A3.183,3.183,0,0,0,632.173,519.693Z" transform="translate(-549.286 -455.405)" fill="#595959"/>
            </g>
            <g id="Group_1162" data-name="Group 1162" transform="translate(0.011)">
              <path id="Path_2154" data-name="Path 2154" d="M257.8,491.514c2.717-2.736,5.152-6.327,8.956-6.953,2.08-.344,4.205.305,6.3.126s4.419-1.778,4.087-3.858c-.233-1.443-1.607-2.374-2.408-3.591-1.778-2.7-.4-6.556,2.129-8.567s5.854-2.648,9.036-3.221q11.248-2.026,22.492-4.049c2.832-.511,5.755-1.057,8.14-2.667s4.095-4.591,3.32-7.365c-.756-2.713-3.56-4.419-4.541-7.06-1.118-3.007.5-6.484,3-8.5s5.7-2.9,8.8-3.732q12.914-3.474,25.827-6.953c2.648-.714,5.377-1.465,7.537-3.156s3.621-4.587,2.816-7.209c-1.057-3.431-5.11-4.713-8.514-5.85s-7.285-3.568-6.9-7.136c.343-3.179,3.992-5.125,4.629-8.258.488-2.416-.946-4.6-2.942-6.209-.34,0-.675-.008-1.015-.008a98.777,98.777,0,0,0-98.776,98.776q0,4.391.378,8.685C252.724,495.132,255.8,493.525,257.8,491.514Z" transform="translate(-249.77 -387.3)" fill="#727272"/>
            </g>
            <g id="Group_1163" data-name="Group 1163" transform="translate(14.208 38.369)">
              <path id="Path_2155" data-name="Path 2155" d="M388.044,584.348c-.847-.271-1.851-.924-1.622-1.786-.828.6-2.015.057-2.74-.672s-1.332-1.66-2.3-1.988c-.9-.3-1.366.05-2.106.641a.991.991,0,0,1-1.328-.756,2.173,2.173,0,0,1,.508-1.652,7.834,7.834,0,0,0,1-1.465c.66-1.572-.729-3.484-2.419-3.709-.038-.347-.08-.7-.118-1.046a3.53,3.53,0,0,1-3.331-.527,14.1,14.1,0,0,1-1.13-1.11,13.422,13.422,0,0,0-2.362-1.714q-1.11-.687-2.221-1.37a32.775,32.775,0,0,0-6.014-3.164c.317.53-.427,1.145-1.042,1.061a13.644,13.644,0,0,1-1.721-.679,3.854,3.854,0,0,0-2.74.626,1.546,1.546,0,0,0-.458-.549,2.1,2.1,0,0,0-2.179-.057,2.463,2.463,0,0,0-1.473,2.908c-.717.458-1.557.954-2.023.851-.447-.1-1.061-1.168-1.656-1.389a2.838,2.838,0,0,0-2.324.115q-2.593-.441-5.186-.885a3.163,3.163,0,0,1,.038-3.091,5.629,5.629,0,0,0,.775-3.1,4.7,4.7,0,0,0-2.011-2.561l-2.584.263c-.011-.408-.023-.817-.031-1.225a.76.76,0,0,1-1.053-.351,2.2,2.2,0,0,1-.118-1.24c.1-1.072.21-2.145.313-3.221a2.922,2.922,0,0,0-.134-1.572,1.014,1.014,0,0,0-1.317-.542c-.019-.3-.042-.6-.061-.9a1.948,1.948,0,0,0-2.229.309,5.675,5.675,0,0,0-1.317,2c-.382.809-.763,1.614-1.145,2.423-.832-.027-1.668-.057-2.5-.084a1.423,1.423,0,0,0-1.332-1.866c-1.355-1.156-1.591-2.16-2.751-3.514a4.541,4.541,0,0,1-1.221-2.2,4.9,4.9,0,0,1,1.084-3.156,5.438,5.438,0,0,1,2.324-2.374c1.183-.466,2.507-.05,3.778.027s2.839-.492,2.961-1.755c.156.935,1.526,1.038,2.347.565s1.5-1.278,2.438-1.408a2.759,2.759,0,0,1,2.213.916c.588.58,1.023,1.3,1.572,1.916a6.741,6.741,0,0,0,.645.633.406.406,0,0,0,.069.225c.5.752.233,1.679.469,2.511a2.022,2.022,0,0,0,1.443,1.477,1.592,1.592,0,0,0,1.713-.66,2.933,2.933,0,0,0,.229-1.1,10.184,10.184,0,0,0,1.061-1.008c.862-.374,1.725-.752,2.587-1.126.733-1.557,1.973-2.545,2.7-4.1.225-.481.45-.958.675-1.439.187-.393.37-.79.557-1.183.385-.82.771-1.645,1.16-2.465.691-1.473,1.381-2.946,1.946-4.469a6.242,6.242,0,0,0,2.32-3.7c.286-1.538-.183-3.087.046-4.617.248-1.637,1.282-3,1.213-4.713-.061-1.588-.958-2.885-1.248-4.4-.309-1.622.343-3.259-.156-4.877a3.542,3.542,0,0,0-3.019-2.587c-.847-.126-1.229-.088-1.549-.885a16.044,16.044,0,0,1-.469-1.74,4.579,4.579,0,0,0-1.836-2.87,4.529,4.529,0,0,0-2.461-.5c-.614.011-2.026.305-2.19-.55a1.223,1.223,0,0,0-2.213-.29c-1.214,2.427-4.091,1.645-5.778.221a1.219,1.219,0,0,0-2.049.847c-.118,1.088-.229,2.484-1.137,3.24-.946.782-1.713.076-2.213-.74-.977-1.591-1.2-3.549-1.95-5.243-.763-1.729-2.183-2.3-3.984-2.416a11.2,11.2,0,0,1-6.167-2.049,1.032,1.032,0,0,0-1.507.614c.076-.366-.633-1.175-.885-1.469a2.765,2.765,0,0,0-1.305-.912,3.3,3.3,0,0,0-3.244,1.214c-.9,1.027-1.076,2.576-2.11,3.484-.981.862-2.492.912-3.721,1.061a11.3,11.3,0,0,0-3.419.79,13.934,13.934,0,0,0-3.251,2.454,9.549,9.549,0,0,1-3.549,1.885,3.33,3.33,0,0,0-2.358,2.316c-.366,1.332.217,2.82-.717,3.973a55.58,55.58,0,0,1-3.946,3.931c-1.21,1.21-2.519,2.377-3.644,3.667a2.712,2.712,0,0,0-.717,2.843,3.934,3.934,0,0,0,1.549,1.668c.748.523,2.068.962,1.637,2.038-.4,1.015-1.259,1.7-1.049,2.9a2.5,2.5,0,0,0,2.29,1.935c.695.1,1.366-.134,2.049-.073.981.088,1.2.74,1.851,1.347a3.048,3.048,0,0,0,1.694.805c.862.137,1.546-.027,1.988.878.6,1.214.6,2.519,1.446,3.641a2.755,2.755,0,0,0,.233.275,12.91,12.91,0,0,0,.908,6.285,3.889,3.889,0,0,0,1.515,1.714,2.106,2.106,0,0,0,2.2-.046,1.868,1.868,0,0,0,.233,2.389,7.851,7.851,0,0,0,2.187,1.431A11.542,11.542,0,0,1,313.5,550.5a9.541,9.541,0,0,0,.748,2.885,2.116,2.116,0,0,0,2.484,1.137c.1.195.21.389.313.588a5.892,5.892,0,0,0,2.5,2.629,12.168,12.168,0,0,0,3.557.889q2.427.349,4.85.7a10.864,10.864,0,0,1,7.056,3.194,5.368,5.368,0,0,1,1.74,2.011,9.718,9.718,0,0,0,.729,2.267,3.292,3.292,0,0,0,1.958,1.046,29.528,29.528,0,0,0,8.075.881c.336.74.672,1.484,1.007,2.225,1.2,2.66-.744,5.671-2.98,7.548a8.747,8.747,0,0,0-2.2,2.068,5.269,5.269,0,0,0-.481,2.824,7.994,7.994,0,0,1-.214,2.877,2.32,2.32,0,0,1-2.118,1.683q.372,1.58.744,3.164c-.416.462.176,1.3.668,1.687a7.875,7.875,0,0,1,1.5,1.091,3.828,3.828,0,0,1,.37,2.6c-.042.9.172,1.984,1.011,2.293.859.317,2.019-.347,2.648.317.332.351.313.908.561,1.324a1.153,1.153,0,0,0,2.145-.565,3.151,3.151,0,0,0,2.477.718c.473-.069.725.156.965.569a3.345,3.345,0,0,1,.347,1.381c.1.954.2,1.9.3,2.858a2.454,2.454,0,0,1-.13,1.4c-.626,1.183-2.847.9-3.179,2.2-.248.973.87,1.725,1.194,2.675.454,1.336-.733,2.629-1.816,3.53s-2.309,2.133-1.935,3.5a1.8,1.8,0,0,0,1.526,1.194,4.522,4.522,0,0,0,2.061-.305q2.232-.693,4.461-1.389c1.072-.336,2.328-.87,2.5-1.98.912,0,1.6-.836,1.988-1.66a6.168,6.168,0,0,1,1.4-2.32c1.523-1.221,3.858-.057,5.7-.7,1.29-.45,2.1-1.69,3.08-2.645s2.58-1.652,3.663-.82q1.082-.979,2.16-1.958c-.63-.885.466-2.225,1.267-2.957s1.832-1.286,2.309-2.263a14.554,14.554,0,0,0,.576-2.48,7.862,7.862,0,0,1,2.393-3.274q2.816-2.7,5.633-5.4c-.538.168-1.015-.519-.9-1.068a2.834,2.834,0,0,1,.988-1.332,1.968,1.968,0,0,0,.786-1.431C389.941,585.027,388.895,584.619,388.044,584.348Z" transform="translate(-286.971 -487.845)" fill="#595959"/>
              <path id="Path_2156" data-name="Path 2156" d="M436.577,648.372a1.314,1.314,0,0,0,1.191-1.217c-.019-.836-.985-1.305-1.817-1.408a3.987,3.987,0,0,1-2.374-.66,2.264,2.264,0,0,0-1.267-1.175c-1.37-.721-3.824-2.706-5.434-2.652-.763.027-1.839.786-1.763,1.652.065.771,1.206,1.4,1.694.569-.107.748-.214,1.5-.317,2.248a6.505,6.505,0,0,1,6.964.82c.477.4.893.874,1.389,1.248A2.461,2.461,0,0,0,436.577,648.372Z" transform="translate(-372.395 -582.714)" fill="#595959"/>
              <path id="Path_2157" data-name="Path 2157" d="M461.07,660.269a4.917,4.917,0,0,0,2.961.805c1.221.076,2.438.156,3.66.233.45.027,1.042-.046,1.126-.488.061-.309-.191-.584-.439-.779C466.672,658.708,462.329,657.865,461.07,660.269Z" transform="translate(-394.632 -593.528)" fill="#595959"/>
              <path id="Path_2158" data-name="Path 2158" d="M466.12,649.23h0a.014.014,0,0,0,.011,0Z" transform="translate(-397.755 -587.644)" fill="#595959"/>
              <path id="Path_2159" data-name="Path 2159" d="M464.538,649.409a4.159,4.159,0,0,0-.637-.355l.63.351a1.179,1.179,0,0,1-.637-.355,1.4,1.4,0,0,0-.5-.111.815.815,0,0,0-.878.729c.015.515.633.755,1.137.866.523.118,1.046.233,1.565.351.355.08.786.134,1.019-.145a.709.709,0,0,0-.244-.977,2.436,2.436,0,0,0-1.084-.286A3.255,3.255,0,0,1,464.538,649.409Z" transform="translate(-395.528 -587.464)" fill="#595959"/>
              <path id="Path_2160" data-name="Path 2160" d="M444.93,662.655a.912.912,0,0,0-.633.977,3.146,3.146,0,0,0,1.137.992,1.093,1.093,0,0,0,1.355-.336,1.065,1.065,0,0,0-.313-1.275,2.482,2.482,0,0,0-1.32-.473l.126.1A.9.9,0,0,0,444.93,662.655Z" transform="translate(-384.255 -595.875)" fill="#595959"/>
              <path id="Path_2161" data-name="Path 2161" d="M410.224,730.568a2.772,2.772,0,0,0-1.336-.37l.336-.038a1.144,1.144,0,1,0-.866,2.118,2.312,2.312,0,0,0,1.175.019,1.429,1.429,0,0,0,1.068-.511A.966.966,0,0,0,410.224,730.568Z" transform="translate(-361.584 -637.637)" fill="#595959"/>
              <path id="Path_2162" data-name="Path 2162" d="M398.1,730.406a.642.642,0,0,0-.687.176.749.749,0,0,0,.187,1.049.928.928,0,0,0,1.107-.114,1.236,1.236,0,0,0,.347-1.1Z" transform="translate(-355.18 -637.822)" fill="#595959"/>
              <path id="Path_2163" data-name="Path 2163" d="M402.171,723.487c-.5-.149-1.187-.191-1.381.29-.172.423.275.889.733.92a2.193,2.193,0,0,0,1.263-.469l-.374.4a.392.392,0,0,0,.633-.1.631.631,0,0,0-.183-.7A1.656,1.656,0,0,0,402.171,723.487Z" transform="translate(-357.332 -633.501)" fill="#595959"/>
              <path id="Path_2164" data-name="Path 2164" d="M501.445,690.5a1.3,1.3,0,0,0-.244,0l.122.046a.422.422,0,0,0-.172.145.783.783,0,0,0,.233.962,2.569,2.569,0,0,0,.981.424,1.89,1.89,0,0,1,.943.492,2.091,2.091,0,0,0-1.45-1.981A.511.511,0,0,0,501.445,690.5Z" transform="translate(-419.365 -613.159)" fill="#595959"/>
              <path id="Path_2165" data-name="Path 2165" d="M498.109,682.208l-.034.023c.488-.126.977-.252,1.462-.382a1.552,1.552,0,0,0-1.24-1c-.557-.019-1.084.653-.775,1.118A.614.614,0,0,0,498.109,682.208Z" transform="translate(-417.117 -607.197)" fill="#595959"/>
              <path id="Path_2166" data-name="Path 2166" d="M453.963,638.687a.5.5,0,1,0-.5-.5A.511.511,0,0,0,453.963,638.687Z" transform="translate(-389.926 -580.501)" fill="#595959"/>
              <path id="Path_2167" data-name="Path 2167" d="M456.4,644.806a.707.707,0,0,0-.664-.508.642.642,0,0,0-.63.767.579.579,0,0,0,.08.217c0,.008,0,.011.023.034,0,.008.008.011.011.019a.521.521,0,0,0,.046.042.674.674,0,0,0,.683.217A.651.651,0,0,0,456.4,644.806Z" transform="translate(-390.94 -584.593)" fill="#595959"/>
              <path id="Path_2168" data-name="Path 2168" d="M448.775,644.351a.518.518,0,0,0,.324-.294.572.572,0,0,0-.366-1.007.593.593,0,0,0-.492.282.783.783,0,0,0-.034.786A.5.5,0,0,0,448.775,644.351Z" transform="translate(-386.623 -583.822)" fill="#595959"/>
              <path id="Path_2169" data-name="Path 2169" d="M489.758,665.88l.137-.069a.435.435,0,1,0-.6-.6l-.069.137A.39.39,0,0,0,489.758,665.88Z" transform="translate(-412.021 -597.398)" fill="#595959"/>
              <path id="Path_2170" data-name="Path 2170" d="M486.687,672.115a.348.348,0,0,0,0-.695A.348.348,0,0,0,486.687,672.115Z" transform="translate(-410.267 -601.366)" fill="#595959"/>
              <path id="Path_2171" data-name="Path 2171" d="M479.663,669.492a.311.311,0,0,0,0-.622A.311.311,0,0,0,479.663,669.492Z" transform="translate(-405.944 -599.789)" fill="#595959"/>
              <path id="Path_2172" data-name="Path 2172" d="M493.556,669.682a.481.481,0,0,0,0-.962A.481.481,0,0,0,493.556,669.682Z" transform="translate(-414.434 -599.696)" fill="#595959"/>
              <path id="Path_2173" data-name="Path 2173" d="M500.855,669.947a.529.529,0,0,0,0-1.057A.529.529,0,0,0,500.855,669.947Z" transform="translate(-418.92 -599.801)" fill="#595959"/>
            </g>
            <g id="Group_1164" data-name="Group 1164" transform="translate(22.855 22.858)" opacity="0.15">
              <path id="Path_2174" data-name="Path 2174" d="M448.742,447.2A98.778,98.778,0,0,1,309.63,586.308,98.777,98.777,0,1,0,448.742,447.2Z" transform="translate(-309.63 -447.2)" fill="#4c4c4c"/>
            </g>
            <g id="Group_1165" data-name="Group 1165" transform="translate(0.008 0.008)" opacity="0.05">
              <path id="Path_2175" data-name="Path 2175" d="M353.4,392.186a98.422,98.422,0,0,1,67.369,26.541,98.775,98.775,0,1,0-139.6,139.6A98.775,98.775,0,0,1,353.4,392.186Z" transform="translate(-249.76 -387.32)" fill="#4c4c4c"/>
            </g>
            <g id="Group_1166" data-name="Group 1166" transform="translate(12.311 12.311)" opacity="0.3">
              <path id="Path_2176" data-name="Path 2176" d="M416.239,419.56A98.794,98.794,0,0,1,282,553.8,98.785,98.785,0,1,0,416.239,419.56Z" transform="translate(-282 -419.56)" fill="#7c7c7c"/>
            </g>
          </g>
          <g id="Group_1168" data-name="Group 1168" transform="translate(88.798 164.347)">
            <path id="Path_2177" data-name="Path 2177" d="M593.693,690.449a4.118,4.118,0,0,0-.424-1.145c-.214-.4-.843-1.534-1.679-3.034Z" transform="translate(-502.507 -616.527)" fill="none"/>
            <path id="Path_2178" data-name="Path 2178" d="M498.411,537.011l7.93,2.3c2.816.817,7.426,2.152,10.25,2.973l7.93,2.3a4.973,4.973,0,0,0,6.3-3.7l1.828-8.021c.645-2.851,1.706-7.518,2.354-10.372l1.828-8.021c.653-2.851-1.194-3.789-4.1-2.087l-4.976,2.923c-1.824-3.1-3.648-6.174-4.35-7.3-1.6-2.561-4.682-4.518-10.731-4.484-4.492.023-16.421.092-23.965.137l10.006,17.508a3.15,3.15,0,0,1,.618.878c.477.962,2.294,4.27,4.1,7.541l-4.869,2.858C495.663,534.13,495.594,536.194,498.411,537.011Z" transform="translate(-438.887 -503.509)" fill="url(#linear-gradient-4)"/>
            <path id="Path_2179" data-name="Path 2179" d="M425.508,509.691c-2.572,3.889-9.09,14.242-9.09,14.242a4.814,4.814,0,0,0,1.656,6.743l15.982,9.346a5.121,5.121,0,0,0,6.911-1.736s9.014-14.761,9.849-16.127c.859-1.42,1.893-1.63,2.728-.79L443.539,503.86c-2.61.015-4.7.027-5.774.034C433.606,503.917,428.847,504.639,425.508,509.691Z" transform="translate(-393.719 -503.726)" fill="url(#linear-gradient-5)"/>
            <path id="Path_2180" data-name="Path 2180" d="M361.664,628.318c1.8,3.48,6.785,12.44,10.437,19l11.326-18.451c1.336-2.271,3.809-6.48,5.873-9.968l5.8,3.209c2.942,1.63,4.762.645,4.045-2.19l-2.03-7.976c-.717-2.832-1.9-7.472-2.618-10.307l-2.022-7.976a4.98,4.98,0,0,0-6.4-3.542l-7.869,2.5c-2.8.889-7.373,2.339-10.17,3.225l-7.869,2.5c-2.8.885-2.679,2.946.263,4.575l4.274,2.37c-2.183,4.209-4.755,9.178-5.4,10.6C358.138,618.461,358.863,622.9,361.664,628.318Z" transform="translate(-358.149 -556.919)" fill="url(#linear-gradient-6)"/>
            <path id="Path_2181" data-name="Path 2181" d="M406.046,692.06,394.72,710.511c2.034,3.656,3.66,6.571,4.087,7.38,1.194,2.263,2.908,6.7,13.719,6.636s15.715-.092,15.715-.092a5,5,0,0,0,4.969-5.01l-.1-18.481a5.008,5.008,0,0,0-5.03-4.953s-18.4.107-21.466.122c-1.939.012-2.183-1.267-1.5-2.458C405.2,693.5,405.546,692.915,406.046,692.06Z" transform="translate(-380.764 -620.107)" fill="url(#linear-gradient-7)"/>
            <path id="Path_2182" data-name="Path 2182" d="M580.478,640.4l9.365,18.634c3.278-6.014,8.842-16.463,11.116-20.981,3.041-6.045,3.9-11.28,2.5-14.036s-8.338-16.154-8.338-16.154a4.586,4.586,0,0,0-6.552-1.817l-15.879,9.731a5.254,5.254,0,0,0-1.828,6.96s4.823,8.644,7.51,13.478c.836,1.5,1.465,2.641,1.679,3.034A3.971,3.971,0,0,1,580.478,640.4Z" transform="translate(-489.292 -566.481)" fill="url(#linear-gradient-8)"/>
            <path id="Path_2183" data-name="Path 2183" d="M544.927,708.153c.37-.626,1.217-2.152,2.316-4.179l-9.365-18.634c.2,1.084-.351,1.82-1.7,1.828-.924.008-5.484.031-9.685.057l-.054-5.778c-.031-3.354-1.79-4.446-3.908-2.419l-5.961,5.694c-2.122,2.023-5.591,5.331-7.709,7.357l-5.961,5.694a4.948,4.948,0,0,0,.061,7.289l6.068,5.587c2.156,1.984,5.678,5.232,7.838,7.216l6.064,5.587c2.156,1.984,3.9.866,3.866-2.492l-.054-5.491c2.374-.015,5-.031,7.415-.042C540.9,715.38,543.454,710.626,544.927,708.153Z" transform="translate(-446.693 -611.418)" fill="url(#linear-gradient-9)"/>
          </g>
          <g id="Group_1169" data-name="Group 1169" transform="translate(170.932 138.44)" opacity="0.8">
            <path id="Path_2184" data-name="Path 2184" d="M688.99,473.716a20.861,20.861,0,0,1,6.51,1.038,18.155,18.155,0,0,1,26.652-22.69,26.145,26.145,0,0,1,49.93,4.644,30.38,30.38,0,1,1,10.445,58.909H688.99a20.95,20.95,0,0,1,0-41.9Z" transform="translate(-668.04 -435.62)" fill="url(#linear-gradient-10)"/>
            <path id="Path_2185" data-name="Path 2185" d="M773.817,541.982A30.371,30.371,0,0,0,800.19,496.54a30.374,30.374,0,0,1-15.066,56.749H691.588a20.954,20.954,0,0,1-19.348-12.91,20.9,20.9,0,0,0,8.044,1.6Z" transform="translate(-670.637 -473.292)" fill="url(#linear-gradient-11)"/>
          </g>
          <g id="Group_1170" data-name="Group 1170" transform="translate(42.553 101.565)" opacity="0.8">
            <path id="Path_2186" data-name="Path 2186" d="M175.272,363.066a13.192,13.192,0,0,1,4.114.656,11.476,11.476,0,0,1,16.848-14.341,16.526,16.526,0,0,1,31.559,2.938,19.205,19.205,0,1,1,6.6,37.241H175.272a13.248,13.248,0,0,1,0-26.5Z" transform="translate(-162.03 -338.99)" fill="url(#linear-gradient-12)"/>
            <path id="Path_2187" data-name="Path 2187" d="M228.886,406.208a19.2,19.2,0,0,0,16.672-28.728,19.2,19.2,0,0,1-9.525,35.871H176.911a13.252,13.252,0,0,1-12.231-8.159,13.173,13.173,0,0,0,5.083,1.011h59.123Z" transform="translate(-163.669 -362.792)" fill="url(#linear-gradient-13)"/>
          </g>
          <g id="Group_1171" data-name="Group 1171" transform="translate(186.613 269.195)" opacity="0.8">
            <path id="Path_2188" data-name="Path 2188" d="M671.271,793.761a8.572,8.572,0,0,1,2.648.42,7.387,7.387,0,0,1,10.845-9.231,10.637,10.637,0,0,1,20.313,1.889,12.359,12.359,0,1,1,4.251,23.965H671.275a8.521,8.521,0,1,1,0-17.043Z" transform="translate(-662.75 -778.26)" fill="url(#linear-gradient-14)"/>
            <path id="Path_2189" data-name="Path 2189" d="M705.778,821.539a12.356,12.356,0,0,0,10.727-18.489,12.36,12.36,0,0,1-6.129,23.091H672.323a8.523,8.523,0,0,1-7.873-5.251,8.492,8.492,0,0,0,3.27.652h38.058Z" transform="translate(-663.801 -793.59)" fill="url(#linear-gradient-15)"/>
          </g>
        </g>
      </g>
    </g>
  </g>
</svg>
