<svg xmlns="http://www.w3.org/2000/svg" xmlns:xlink="http://www.w3.org/1999/xlink" width="458" height="458" viewBox="0 0 458 458">
  <defs>
    <linearGradient id="linear-gradient" x1="0.865" y1="0.178" x2="0.152" y2="0.822" gradientUnits="objectBoundingBox">
      <stop offset="0" stop-color="#fdb819"/>
      <stop offset="1" stop-color="#fff"/>
    </linearGradient>
    <linearGradient id="linear-gradient-2" x1="-30.738" y1="-2.34" x2="-29.738" y2="-2.34" gradientUnits="objectBoundingBox">
      <stop offset="0" stop-color="#eaeaea"/>
      <stop offset="0.996" stop-color="#eaeaea"/>
    </linearGradient>
    <linearGradient id="linear-gradient-3" x1="-31.091" y1="-3.913" x2="-30.08" y2="-3.913" gradientUnits="objectBoundingBox">
      <stop offset="0" stop-color="#e6e6e6"/>
      <stop offset="0.996" stop-color="#e1e1e1"/>
    </linearGradient>
    <linearGradient id="linear-gradient-4" x1="-27.876" y1="0.496" x2="-26.876" y2="0.496" xlink:href="#linear-gradient-2"/>
    <linearGradient id="linear-gradient-5" x1="-28.199" y1="0.084" x2="-27.188" y2="0.084" xlink:href="#linear-gradient-3"/>
    <linearGradient id="linear-gradient-6" x1="-39.302" y1="2.534" x2="-38.302" y2="2.534" xlink:href="#linear-gradient-2"/>
    <linearGradient id="linear-gradient-7" x1="-39.752" y1="2.958" x2="-38.741" y2="2.958" xlink:href="#linear-gradient-3"/>
    <linearGradient id="linear-gradient-8" x1="-66.993" y1="-6.088" x2="-65.993" y2="-6.088" xlink:href="#linear-gradient-2"/>
    <linearGradient id="linear-gradient-9" x1="-67.754" y1="-9.194" x2="-66.743" y2="-9.194" xlink:href="#linear-gradient-3"/>
  </defs>
  <g id="Group_2042" data-name="Group 2042" transform="translate(-1029 -1786)">
    <circle id="Ellipse_8" data-name="Ellipse 8" cx="229" cy="229" r="229" transform="translate(1029 2244) rotate(-90)" fill="url(#linear-gradient)"/>
    <g id="Group_2026" data-name="Group 2026" transform="translate(-9.294 -0.167)">
      <g id="Be_Eco-Friendly_and_reuse_for_better_environment" data-name="Be Eco-Friendly and reuse for better environment" transform="translate(1091.495 1813.146)">
        <g id="Group_1172" data-name="Group 1172" transform="translate(15.799 41.022)">
          <g id="Group_1151" data-name="Group 1151" transform="translate(0 239.705)" opacity="0.8">
            <path id="Path_2129" data-name="Path 2129" d="M67.37,723.86a16.766,16.766,0,0,1,5.236.835,14.6,14.6,0,0,1,21.433-18.249,21.03,21.03,0,0,1,40.161,3.736,24.437,24.437,0,1,1,8.4,47.386H67.37a16.854,16.854,0,0,1,0-33.708Z" transform="translate(-50.52 -693.22)" fill="url(#linear-gradient-2)"/>
            <path id="Path_2130" data-name="Path 2130" d="M135.555,778.162a24.426,24.426,0,0,0,21.213-36.552,24.432,24.432,0,0,1-12.121,45.648H69.414A16.857,16.857,0,0,1,53.85,776.875a16.772,16.772,0,0,0,6.468,1.291h75.237Z" transform="translate(-52.563 -722.913)" fill="url(#linear-gradient-3)"/>
          </g>
          <g id="Group_1158" data-name="Group 1158" transform="translate(96.741)">
            <g id="Group_1153" data-name="Group 1153" transform="translate(35.191)">
              <g id="Group_1152" data-name="Group 1152">
                <path id="Path_2131" data-name="Path 2131" d="M483.356,72.84c-35.907,48,0,64.812,0,64.812S519.263,120.841,483.356,72.84Z" transform="translate(-467.398 -72.84)" fill="#001327"/>
                <path id="Path_2132" data-name="Path 2132" d="M502.207,136.249c-.981,1.109-1.932,2.237-2.9,3.358s-1.909,2.256-2.848,3.4a44.164,44.164,0,0,0-2.8,3.435c-.417.611-.827,1.229-1.2,1.87-.158.267-.317.541-.468.815.035-1.244.066-2.492.093-3.736.062-2.94.008-5.881-.05-8.825.325-.27.63-.556.927-.85.452-.448.889-.908,1.3-1.383a32.677,32.677,0,0,0,2.206-3.072q1.09-1.547,2.156-3.11c.7-1.051,1.418-2.09,2.106-3.149l-.1-.077c-.846.939-1.669,1.9-2.5,2.844s-1.642,1.913-2.453,2.882a33.2,33.2,0,0,0-2.4,2.917c-.355.522-.688,1.059-1,1.611-.085.147-.166.3-.247.444-.019-1.063-.042-2.121-.054-3.184l-.189-12.948-.251-12.948H491.4l-.251,12.948-.1,6.994-.185-.359a14.766,14.766,0,0,0-.8-1.348,10.448,10.448,0,0,0-.954-1.229c-.352-.386-.707-.765-1.043-1.163q-1.008-1.188-2.048-2.353c-.7-.773-1.383-1.553-2.1-2.314l-.1.077c.553.885,1.132,1.746,1.7,2.62s1.159,1.727,1.75,2.581c.294.429.572.869.854,1.306a10.54,10.54,0,0,0,.943,1.236,15,15,0,0,0,1.1,1.121,10.755,10.755,0,0,0,.869.734l-.073,5.038c-.046,3.655-.17,7.307-.151,10.962-.116-.2-.232-.406-.352-.607-.379-.641-.788-1.256-1.2-1.87-.827-1.225-1.858-2.3-2.8-3.435s-1.889-2.272-2.848-3.4-1.92-2.249-2.9-3.358l-.1.077c.819,1.233,1.669,2.442,2.5,3.663s1.692,2.423,2.55,3.624,1.627,2.473,2.6,3.586c.483.56.974,1.113,1.5,1.642.34.348.692.692,1.059,1.02,0,.344.008.692.015,1.036.043,2.156.093,4.316.185,6.472s.209,4.316.379,6.472h.124q.255-3.234.379-6.472c.027-.626.042-1.248.066-1.874.417-.367.811-.75,1.194-1.144.522-.529,1.012-1.082,1.5-1.642.974-1.113,1.742-2.384,2.6-3.586s1.708-2.411,2.55-3.624,1.681-2.43,2.5-3.663Z" transform="translate(-475.499 -93.519)" fill="#5e5e5e"/>
              </g>
            </g>
            <g id="Group_1155" data-name="Group 1155" transform="translate(55.068 60.361)">
              <g id="Group_1154" data-name="Group 1154">
                <path id="Path_2133" data-name="Path 2133" d="M565.992,229.06c-59.329,8.551-45.829,45.829-45.829,45.829S557.441,288.389,565.992,229.06Z" transform="translate(-518.842 -229.06)" fill="#001327"/>
                <path id="Path_2134" data-name="Path 2134" d="M545.416,281.424c-1.476.093-2.948.216-4.424.325s-2.944.247-4.416.386a44.246,44.246,0,0,0-4.409.448c-.726.139-1.453.286-2.172.471-.3.077-.607.158-.908.247q1.362-1.281,2.709-2.577c2.125-2.036,4.165-4.154,6.2-6.275.421.035.838.05,1.256.054.638,0,1.267-.016,1.9-.062a33.252,33.252,0,0,0,3.732-.614q1.866-.325,3.725-.676c1.236-.247,2.481-.475,3.713-.738l-.015-.124c-1.263.062-2.519.162-3.779.24s-2.515.189-3.771.3a33.07,33.07,0,0,0-3.763.363c-.618.116-1.236.263-1.851.429l-.491.139c.734-.765,1.472-1.53,2.214-2.287l9.022-9.289,8.976-9.327-.089-.089-9.331,8.98-5.015,4.872c.042-.127.085-.255.124-.386a15.1,15.1,0,0,0,.386-1.518,10.366,10.366,0,0,0,.193-1.546c.023-.522.043-1.039.085-1.561.081-1.035.155-2.075.216-3.11s.12-2.079.155-3.122l-.124-.015c-.232,1.016-.433,2.036-.653,3.056q-.307,1.53-.587,3.064c-.093.51-.209,1.02-.321,1.53a10.4,10.4,0,0,0-.209,1.542,15.143,15.143,0,0,0-.015,1.569c.015.375.043.753.1,1.136l-3.617,3.512c-2.616,2.55-5.286,5.046-7.855,7.643.062-.224.124-.448.182-.676.186-.719.332-1.445.471-2.171a44.26,44.26,0,0,0,.448-4.409q.209-2.208.386-4.416c.108-1.476.232-2.948.325-4.424l-.124-.016c-.29,1.453-.545,2.906-.823,4.358q-.394,2.179-.757,4.366a44.15,44.15,0,0,0-.7,4.374c-.054.738-.1,1.476-.1,2.222-.008.487,0,.978.027,1.468-.24.247-.483.495-.723.742-1.5,1.557-2.983,3.118-4.447,4.71s-2.906,3.2-4.312,4.845l.089.089q2.469-2.11,4.845-4.308c.46-.421.912-.854,1.368-1.279.552.039,1.105.043,1.654.039.746,0,1.484-.05,2.222-.1,1.476-.1,2.917-.452,4.374-.7s2.913-.495,4.366-.757,2.909-.529,4.358-.823Z" transform="translate(-520.878 -243.609)" fill="#5e5e5e"/>
              </g>
            </g>
            <g id="Group_1157" data-name="Group 1157" transform="translate(0 60.361)">
              <g id="Group_1156" data-name="Group 1156">
                <path id="Path_2135" data-name="Path 2135" d="M376.32,229.06c59.329,8.551,45.829,45.829,45.829,45.829S384.871,288.389,376.32,229.06Z" transform="translate(-376.32 -229.06)" fill="#001327"/>
                <path id="Path_2136" data-name="Path 2136" d="M413.486,281.424c1.476.093,2.948.216,4.424.325s2.944.247,4.416.386a44.248,44.248,0,0,1,4.409.448c.726.139,1.453.286,2.171.471.3.077.607.158.908.247q-1.362-1.281-2.709-2.577c-2.125-2.036-4.165-4.154-6.2-6.275-.421.035-.838.05-1.256.054-.638,0-1.267-.016-1.9-.062a33.253,33.253,0,0,1-3.732-.614q-1.866-.325-3.725-.676c-1.236-.247-2.481-.475-3.713-.738l.015-.124c1.264.062,2.519.162,3.779.24s2.515.189,3.771.3a33.071,33.071,0,0,1,3.763.363c.618.116,1.236.263,1.851.429l.491.139c-.734-.765-1.472-1.53-2.214-2.287l-9.022-9.289-8.976-9.327.089-.089,9.331,8.98,5.015,4.872c-.043-.127-.085-.255-.124-.386a15.07,15.07,0,0,1-.386-1.518,10.367,10.367,0,0,1-.193-1.546c-.027-.522-.042-1.039-.085-1.561-.081-1.035-.155-2.075-.216-3.11s-.12-2.079-.155-3.122l.124-.015c.232,1.016.433,2.036.653,3.056q.307,1.53.587,3.064c.093.51.209,1.02.321,1.53a10.41,10.41,0,0,1,.209,1.542,15.177,15.177,0,0,1,.015,1.569c-.015.375-.042.753-.1,1.136l3.617,3.512c2.616,2.55,5.286,5.046,7.855,7.643-.062-.224-.124-.448-.182-.676-.185-.719-.332-1.445-.471-2.171a44.242,44.242,0,0,1-.448-4.409q-.209-2.208-.386-4.416c-.108-1.476-.232-2.948-.325-4.424l.124-.016c.29,1.453.549,2.906.823,4.358s.518,2.909.757,4.366a44.2,44.2,0,0,1,.7,4.374c.054.738.1,1.476.1,2.222.008.487,0,.978-.027,1.468.24.247.483.495.723.742,1.5,1.557,2.987,3.118,4.447,4.71s2.906,3.2,4.312,4.845l-.089.089q-2.469-2.11-4.845-4.308c-.46-.421-.912-.854-1.368-1.279-.553.039-1.105.043-1.654.039-.746,0-1.484-.05-2.222-.1-1.476-.1-2.917-.452-4.374-.7s-2.913-.495-4.366-.757-2.909-.529-4.358-.823Z" transform="translate(-390.875 -243.609)" fill="#5e5e5e"/>
              </g>
            </g>
            <path id="Path_2137" data-name="Path 2137" d="M507.305,290.51l-.344-18.867-.174-9.432-.2-9.432h-.359l-.2,9.432-.174,9.432L505.5,290.51l-.541,16.584h2.886Z" transform="translate(-455.256 -183.254)" fill="#05101c"/>
          </g>
          <g id="Group_1167" data-name="Group 1167" transform="translate(49.746 121.502)">
            <circle id="Ellipse_98" data-name="Ellipse 98" cx="100.012" cy="100.012" r="100.012" transform="translate(0 0.008)" fill="#7c7c7c"/>
            <g id="Group_1159" data-name="Group 1159" transform="translate(115.448 115.618)">
              <path id="Path_2138" data-name="Path 2138" d="M609.242,688.991c-4.88-.479-9.907-.753-14.59.7-2.562.8-5.317,2.654-5.243,5.34.043,1.557,1.066,2.956,1.167,4.509.147,2.3-1.808,4.289-3.987,5.031s-4.548.541-6.847.456a64.932,64.932,0,0,0-23.156,3.373c-3.13,1.059-6.7,3.087-6.688,6.391a5.554,5.554,0,0,0,2.84,4.5,12.776,12.776,0,0,0,5.3,1.518,20.367,20.367,0,0,1,5.6,1,5.147,5.147,0,0,1,3.435,4.173c.128,2.647-2.616,4.6-5.232,5.035s-5.316-.108-7.936.286-5.4,2.26-5.379,4.911c.027,3.022,3.543,4.768,6.561,4.938,4.366.247,8.628-1.275,12.979-1.708s9.412.641,11.557,4.455c.958,1.708,1.414,4,3.226,4.737,2.11.866,4.216-1.028,6.236-2.083,3.153-1.646,6.8-1.26,10.409-.827a99.829,99.829,0,0,0,32.4-59.2,19.848,19.848,0,0,1-8,2.91C619.053,690.139,614.122,689.471,609.242,688.991Z" transform="translate(-548.53 -686.53)" fill="#727272"/>
            </g>
            <g id="Group_1160" data-name="Group 1160" transform="translate(0 100.016)">
              <path id="Path_2139" data-name="Path 2139" d="M337.051,739.2c-1.839-3.249-7.612-2.859-8.81-6.395-.9-2.643,1.588-5.154,3.91-6.7s5.058-3.489,4.93-6.275c-.135-2.971-3.532-4.683-6.5-4.915-3.578-.278-7.121.653-10.626,1.422s-7.179,1.383-10.653.483-6.7-3.694-7-7.272c-.216-2.558,1.039-5.042.978-7.608-.1-4.138-3.682-7.511-7.612-8.817s-8.176-1.02-12.314-.908-8.473-.016-12.1-2.009-6.232-6.429-4.845-10.328c.757-2.125,2.508-3.717,3.821-5.549s2.191-4.382,1-6.3c-1.735-2.805-6.75-2.542-7.766-5.684-.51-1.58.355-3.3,1.542-4.466,2.16-2.114,5.444-3.257,5.916-6.615a3.381,3.381,0,0,0-2.411-4.1c-2.086-.753-4.613-.479-6.789-.777-.514-.07-1.02-.155-1.526-.24H249.74a100.029,100.029,0,0,0,86.148,99.057C337.345,743.368,338.152,741.143,337.051,739.2Z" transform="translate(-249.74 -646.15)" fill="#727272"/>
            </g>
            <path id="Path_2140" data-name="Path 2140" d="M503.445,516.649a15.78,15.78,0,0,0-4.857,4.4,7.6,7.6,0,0,0-1.159,6.286c.831,2.7,3.582,5.042,2.828,7.759-.545,1.971-2.689,2.964-4.594,3.705q-6.12,2.382-12.245,4.768a19.454,19.454,0,0,0-5.421,2.8,6.588,6.588,0,0,0-2.643,5.278c.2,3.161,3.443,5.359,6.58,5.8s6.3-.355,9.466-.522a9.977,9.977,0,0,1,5.506.985,4.687,4.687,0,0,1,2.484,4.7c-.355,1.8-1.971,3.022-3.273,4.316s-2.419,3.28-1.53,4.892c.993,1.8,3.593,1.673,5.583,1.171,5.5-1.383,11.309-3.752,16.622-1.758,3.964,1.488,6.711,5.127,10.39,7.221,4.308,2.45,9.629,2.593,14.443,1.43s9.246-3.524,13.6-5.9c3.385-1.843,6.874-3.8,9.142-6.92s2.952-7.739.533-10.741c-2.063-2.562-5.607-3.219-8.67-4.42s-6.229-3.945-5.529-7.16c.576-2.635,3.389-4,5.7-5.382a12.411,12.411,0,0,0,4.714-4.486,6.2,6.2,0,0,0,0-6.267c-1.573-2.349-4.76-2.859-7.581-3.056s-5.97-.452-7.844-2.57c-1.348-1.522-1.828-3.57-3.292-5.031a21.443,21.443,0,0,0-4.961-3.153,25.344,25.344,0,0,0-8.029-2.72C520.466,510.455,511.227,511.723,503.445,516.649Z" transform="translate(-388.175 -463.455)" fill="#727272"/>
            <g id="Group_1161" data-name="Group 1161" transform="translate(115.74 26.315)">
              <path id="Path_2141" data-name="Path 2141" d="M642.959,734.385c.139.174-.05-.07-.089-.112a1.134,1.134,0,0,0-.591-.325c-.015,0-.035,0-.05,0a.46.46,0,0,0-.216-.154,3.094,3.094,0,0,1-.46-.278,2.573,2.573,0,0,1-.4-.228.765.765,0,0,0-1.186.155,1.461,1.461,0,0,0,.475,1.874,3.139,3.139,0,0,0,.827.437,1.038,1.038,0,0,1,.452.286.9.9,0,0,0,1.391-.178,1.2,1.2,0,0,0,.031-1.229A2.346,2.346,0,0,0,642.959,734.385Z" transform="translate(-604.821 -625.786)" fill="#595959"/>
              <path id="Path_2142" data-name="Path 2142" d="M657.235,742.01a.811.811,0,0,0-1.244-.348.658.658,0,0,0-.124.046.889.889,0,0,0-.185,1.379,1.309,1.309,0,0,0,.317.495,1.435,1.435,0,0,0,1.808.124.915.915,0,0,0,.186-1.441A.841.841,0,0,0,657.235,742.01Z" transform="translate(-614.422 -630.954)" fill="#595959"/>
              <path id="Path_2143" data-name="Path 2143" d="M667.059,754.607a1.075,1.075,0,0,1-.271-.537.509.509,0,0,0-.56-.367.518.518,0,0,0-.444.5,3.229,3.229,0,0,0,.035.641,1.653,1.653,0,0,0,.054.274c.012.046.054.294.058.128a.747.747,0,1,0,1.128-.641Z" transform="translate(-620.769 -638.442)" fill="#595959"/>
              <path id="Path_2144" data-name="Path 2144" d="M624.037,727.6a.509.509,0,0,0-.371.371.567.567,0,0,0,.39.684.67.67,0,0,0,.707-.216.593.593,0,0,0,0-.746A.531.531,0,0,0,624.037,727.6Z" transform="translate(-594.918 -622.361)" fill="#595959"/>
              <path id="Path_2145" data-name="Path 2145" d="M569.643,521.216a11.785,11.785,0,0,1,1.665.4c.158.085.348.189.556.305a1.685,1.685,0,0,1,.634,1.217c.1.893-.081,1.642.726,2.264,1.051.811,3.431.692,3.694-.881a2.177,2.177,0,0,0-.3-1.472.513.513,0,0,0,.042-.282c-.243-2.106-2.511-2.191-3.86-3.377a3.3,3.3,0,0,1-.939-1.584,2.5,2.5,0,0,0-.487-1.016,3.769,3.769,0,0,0-2.465-.885c-1.379-.043-3.752.723-3.926,2.365C564.786,520.192,568.271,520.919,569.643,521.216Z" transform="translate(-558.915 -492.529)" fill="#595959"/>
              <path id="Path_2146" data-name="Path 2146" d="M555.575,511.42a1.1,1.1,0,0,0,.641-.251.929.929,0,0,0,.413.035.9.9,0,0,0,.676-.44.979.979,0,0,0,0-.935,1.515,1.515,0,0,0-1.341-.838,1.293,1.293,0,0,0-1.248.985,1.372,1.372,0,0,0,.027.75A.971.971,0,0,0,555.575,511.42Z" transform="translate(-552.595 -488.286)" fill="#595959"/>
              <path id="Path_2147" data-name="Path 2147" d="M558.6,497.767a.769.769,0,0,0,.247-.054.918.918,0,0,0,.108.012.761.761,0,0,0,.723-.951,1.063,1.063,0,0,0-1.047-.815c-.325.016-.7.29-.661.661a5.019,5.019,0,0,1,.019.541A.616.616,0,0,0,558.6,497.767Z" transform="translate(-554.616 -480.289)" fill="#595959"/>
              <path id="Path_2148" data-name="Path 2148" d="M563.683,539.927a1.177,1.177,0,0,0,.421-.394.648.648,0,0,0-.166-.835.657.657,0,0,0-.85.05.872.872,0,0,0-.236.344.63.63,0,0,0,.1.738A.607.607,0,0,0,563.683,539.927Z" transform="translate(-557.566 -506.433)" fill="#595959"/>
              <path id="Path_2149" data-name="Path 2149" d="M576.089,544.63a.706.706,0,0,0,0-1.41A.706.706,0,0,0,576.089,544.63Z" transform="translate(-565.315 -509.29)" fill="#595959"/>
              <path id="Path_2150" data-name="Path 2150" d="M562.7,636.39a.783.783,0,0,0,0,1.565A.783.783,0,0,0,562.7,636.39Z" transform="translate(-557.052 -566.46)" fill="#595959"/>
              <path id="Path_2151" data-name="Path 2151" d="M559.269,646.834a.678.678,0,0,0-.661-1.132c-.058.012-.116.019-.174.031a.647.647,0,0,0-.475.626.658.658,0,0,0,.475.626c.058.011.116.019.174.031A.717.717,0,0,0,559.269,646.834Z" transform="translate(-554.608 -572.163)" fill="#595959"/>
              <path id="Path_2152" data-name="Path 2152" d="M560.245,656a.532.532,0,0,0,0,1.063A.532.532,0,0,0,560.245,656Z" transform="translate(-555.696 -578.493)" fill="#595959"/>
              <path id="Path_2153" data-name="Path 2153" d="M633.21,520.5a99.541,99.541,0,0,0-21.521-53.831l-5.193-1.681a9.907,9.907,0,0,0-3.648-.684,16.06,16.06,0,0,0-5.336-2.411c-1.986-.495-3.721-.491-5.3-1.955a14.247,14.247,0,0,0-4.269-3.08,18.694,18.694,0,0,0-4.9-1.148c-1.727-.213-3.709-.6-5.371.081a11.858,11.858,0,0,0-2.029,1.29,7.567,7.567,0,0,1-2.365.815,4.517,4.517,0,0,0-2.824,2.488c-.518,1.066-.777,2.226-1.221,3.319-.753,1.855-2.086,2.4-3.976,2.743-3.288.6-6.217,1.943-7.836,5.054-.522,1-1.41,2.844-.472,3.856a1.889,1.889,0,0,0,1.665.452c1.178-.1,2.318-.321,3.508-.328.5,0,1.008.008,1.511.043.92.066.781.348,1.105,1.059a2.733,2.733,0,0,0,1.2,1.248c1.086.6,3.091.375,3.709,1.565.39.75.305,1.515.943,2.175a4.07,4.07,0,0,0,2.005,1.063,12.649,12.649,0,0,0,2.782.154,5.349,5.349,0,0,1,1.661.174c.777.267,1.832,1.26,1.159,2.195a4.337,4.337,0,0,0-.97.657c-.027.023-.046.046-.07.07a18.117,18.117,0,0,0-4.223,2.338,43.125,43.125,0,0,0-4.154,3.018c-1.484,1.256-2.651,2.786-4.045,4.13a7.376,7.376,0,0,1-4.934,2.117,51.753,51.753,0,0,0-5.251.244c-2.72.448-5.332,2.156-5.263,5.185a3.891,3.891,0,0,0,1.163,2.77,3.476,3.476,0,0,0,1.48.75c.209.058.842.077.993.24.441.471-.2,1.658-.355,2.141-.328,1.028-.653,2.059-.981,3.087a16.544,16.544,0,0,0-.943,3.137c-.12,1.186.711,1.808,1.777,2.048.881.2,1.6.042,1.955,1.028.239.653.247,1.179.784,1.681a3.434,3.434,0,0,0,2.728.707,3.119,3.119,0,0,0,.386,2.983,3.95,3.95,0,0,0,.332,1.488c.545,1.306,1.928,2.569,1.329,3.852-.352.75-1.233,1.051-1.974,1.426s-1.487,1.136-1.217,1.92c.379,1.094,2.125.811,2.929,1.642.831.858.209,2.291-.56,3.2s-1.727,1.959-1.441,3.118a2.516,2.516,0,0,0,2.4,1.619c1.032.062,2.052-.232,3.083-.271a6.55,6.55,0,0,1,6.507,6.626c-.062,1.117-.325,2.484.572,3.157a2.173,2.173,0,0,0,2.311-.116,14.72,14.72,0,0,1,2.094-1.263,2.937,2.937,0,0,1,3.377,4.486l.754.545a1.511,1.511,0,0,0,.344,1.5,5.414,5.414,0,0,0,1.48.885,3.226,3.226,0,0,1,1.24,1.947,4.156,4.156,0,0,0,2.519,2.454c1.615.746,3.223,1.542,4.868,2.218a5.471,5.471,0,0,0,3.609.425q2.086.881,4.177,1.758c.951.4,2.3.676,2.794-.232.189.41.375.815.564,1.225l6.433.139c1.781.039,3.675.046,5.185-.9s2.314-3.219,1.132-4.548c-.425-.475-1.047-.781-1.337-1.345-.475-.927.154-2.013.761-2.859l.3-.417a3.522,3.522,0,0,0,2.484-.614.472.472,0,0,0,.661.313,1.594,1.594,0,0,0,.815-1.02,2.476,2.476,0,0,0,2.148-.611,2.214,2.214,0,0,0,.7-1.835c-.07-.858-.556-1.171.17-1.8a2.735,2.735,0,0,0,.97-1.4,5.694,5.694,0,0,1,.147-1.051,2.61,2.61,0,0,1,.549-.684,6.963,6.963,0,0,0,2.121-2.036,1,1,0,0,0-.1-1.124,1.2,1.2,0,0,0,.131-1.549,1.607,1.607,0,0,0-2.268-.267,1.07,1.07,0,0,0-.344.34,3.261,3.261,0,0,1-2.616-1.511c-.989-1.832.661-3.91,2.071-5.444a8.457,8.457,0,0,0,2.222-3.566,3.676,3.676,0,0,0-.583-3.052,5.084,5.084,0,0,0,1.913-4.088,4.014,4.014,0,0,0-.224-1.109c-.112-.328-.552-.869-.537-1.2a1.68,1.68,0,0,1,.352-.835q2.347.023,4.695.042a5.682,5.682,0,0,0,2.589-.383,1.946,1.946,0,0,0,1.14-2.144A3.22,3.22,0,0,0,633.21,520.5Z" transform="translate(-549.286 -455.405)" fill="#001327"/>
            </g>
            <g id="Group_1162" data-name="Group 1162" transform="translate(0.012)">
              <path id="Path_2154" data-name="Path 2154" d="M257.9,492.818c2.751-2.77,5.216-6.406,9.068-7.04,2.106-.348,4.258.309,6.383.128s4.474-1.8,4.138-3.906c-.236-1.461-1.627-2.4-2.438-3.636-1.8-2.732-.406-6.638,2.156-8.674s5.927-2.682,9.15-3.261q11.389-2.052,22.773-4.1c2.867-.518,5.827-1.07,8.242-2.7s4.146-4.648,3.362-7.457c-.765-2.747-3.6-4.474-4.6-7.148-1.132-3.045.506-6.565,3.033-8.6s5.769-2.937,8.906-3.779q13.075-3.518,26.15-7.04c2.682-.723,5.444-1.484,7.631-3.2s3.667-4.644,2.852-7.3c-1.07-3.474-5.174-4.772-8.62-5.923s-7.376-3.613-6.99-7.225c.348-3.219,4.042-5.189,4.687-8.361.495-2.446-.958-4.656-2.979-6.287-.344,0-.684-.008-1.028-.008A100.013,100.013,0,0,0,249.77,487.312q0,4.445.383,8.794C252.761,496.481,255.879,494.854,257.9,492.818Z" transform="translate(-249.77 -387.3)" fill="#001327"/>
            </g>
            <g id="Group_1163" data-name="Group 1163" transform="translate(14.386 38.849)">
              <path id="Path_2155" data-name="Path 2155" d="M389.309,585.556c-.858-.275-1.874-.935-1.642-1.808-.838.61-2.04.058-2.774-.68s-1.348-1.681-2.334-2.013c-.912-.305-1.383.05-2.133.649a1,1,0,0,1-1.345-.765,2.2,2.2,0,0,1,.514-1.673,7.928,7.928,0,0,0,1.012-1.484c.668-1.592-.738-3.528-2.45-3.756-.039-.352-.081-.707-.12-1.059a3.574,3.574,0,0,1-3.373-.533,14.268,14.268,0,0,1-1.144-1.124,13.593,13.593,0,0,0-2.392-1.735q-1.124-.7-2.249-1.387a33.193,33.193,0,0,0-6.089-3.2c.321.537-.433,1.159-1.055,1.074a13.826,13.826,0,0,1-1.743-.688,3.9,3.9,0,0,0-2.774.634,1.565,1.565,0,0,0-.464-.556,2.124,2.124,0,0,0-2.206-.058,2.493,2.493,0,0,0-1.491,2.944c-.726.464-1.576.966-2.048.862-.452-.1-1.074-1.182-1.677-1.406a2.874,2.874,0,0,0-2.353.116q-2.625-.446-5.251-.9a3.2,3.2,0,0,1,.039-3.13,5.7,5.7,0,0,0,.784-3.137,4.762,4.762,0,0,0-2.036-2.593l-2.616.267c-.012-.413-.023-.827-.031-1.24a.769.769,0,0,1-1.066-.355,2.229,2.229,0,0,1-.12-1.256c.1-1.086.212-2.172.317-3.261a2.959,2.959,0,0,0-.135-1.592,1.027,1.027,0,0,0-1.333-.549c-.019-.305-.042-.607-.062-.912a1.972,1.972,0,0,0-2.256.313,5.746,5.746,0,0,0-1.333,2.021c-.386.819-.773,1.634-1.159,2.453-.842-.027-1.689-.058-2.531-.085a1.441,1.441,0,0,0-1.348-1.89c-1.372-1.171-1.611-2.187-2.786-3.558a4.6,4.6,0,0,1-1.236-2.226,4.964,4.964,0,0,1,1.1-3.2,5.506,5.506,0,0,1,2.353-2.4c1.2-.471,2.539-.05,3.825.027s2.875-.5,3-1.777c.158.947,1.546,1.051,2.376.572s1.519-1.294,2.469-1.426a2.793,2.793,0,0,1,2.241.927c.6.587,1.035,1.314,1.592,1.94a6.835,6.835,0,0,0,.653.641.411.411,0,0,0,.07.228c.5.761.236,1.7.475,2.542a2.047,2.047,0,0,0,1.461,1.5,1.612,1.612,0,0,0,1.735-.668,2.971,2.971,0,0,0,.232-1.117,10.291,10.291,0,0,0,1.074-1.02c.873-.379,1.746-.761,2.62-1.14.742-1.577,2-2.577,2.736-4.154.228-.487.456-.97.684-1.457.189-.4.375-.8.564-1.2.39-.831.78-1.665,1.175-2.5.7-1.491,1.4-2.983,1.971-4.525a6.32,6.32,0,0,0,2.349-3.744c.29-1.557-.185-3.126.046-4.675.251-1.658,1.3-3.033,1.229-4.772-.062-1.607-.97-2.921-1.263-4.459-.313-1.642.348-3.3-.158-4.938a3.586,3.586,0,0,0-3.056-2.62c-.858-.128-1.244-.089-1.569-.9a16.242,16.242,0,0,1-.475-1.762,4.637,4.637,0,0,0-1.858-2.906,4.586,4.586,0,0,0-2.492-.51c-.622.012-2.052.309-2.218-.556a1.239,1.239,0,0,0-2.241-.294c-1.229,2.457-4.142,1.665-5.85.224a1.234,1.234,0,0,0-2.075.858c-.12,1.1-.232,2.515-1.151,3.28-.958.792-1.735.077-2.241-.75-.989-1.611-1.217-3.593-1.974-5.309-.773-1.75-2.21-2.326-4.034-2.446a11.345,11.345,0,0,1-6.244-2.075,1.045,1.045,0,0,0-1.526.622c.077-.371-.641-1.19-.9-1.488a2.8,2.8,0,0,0-1.321-.923,3.339,3.339,0,0,0-3.284,1.229c-.912,1.039-1.09,2.608-2.137,3.528-.993.873-2.523.923-3.767,1.074a11.438,11.438,0,0,0-3.462.8,14.109,14.109,0,0,0-3.292,2.484,9.67,9.67,0,0,1-3.593,1.909,3.372,3.372,0,0,0-2.388,2.345c-.371,1.349.22,2.855-.726,4.022a56.281,56.281,0,0,1-4,3.98c-1.225,1.225-2.55,2.407-3.69,3.713a2.746,2.746,0,0,0-.726,2.879,3.983,3.983,0,0,0,1.569,1.688c.757.529,2.094.974,1.658,2.063-.41,1.028-1.275,1.719-1.063,2.937a2.534,2.534,0,0,0,2.318,1.959c.7.1,1.383-.135,2.075-.073.993.089,1.217.75,1.874,1.364a3.087,3.087,0,0,0,1.716.815c.873.139,1.565-.027,2.013.889.6,1.229.61,2.55,1.464,3.686a2.793,2.793,0,0,0,.236.278,13.071,13.071,0,0,0,.92,6.364,3.938,3.938,0,0,0,1.534,1.735,2.132,2.132,0,0,0,2.229-.047,1.892,1.892,0,0,0,.236,2.419,7.951,7.951,0,0,0,2.214,1.449,11.686,11.686,0,0,1,5.707,7.855,9.659,9.659,0,0,0,.757,2.921,2.143,2.143,0,0,0,2.515,1.151c.1.2.212.394.317.6a5.965,5.965,0,0,0,2.531,2.662,12.321,12.321,0,0,0,3.6.9q2.457.354,4.911.711a11,11,0,0,1,7.144,3.234,5.434,5.434,0,0,1,1.762,2.036,9.841,9.841,0,0,0,.738,2.3,3.334,3.334,0,0,0,1.982,1.059,29.9,29.9,0,0,0,8.176.892c.34.75.68,1.5,1.02,2.253,1.217,2.693-.753,5.742-3.018,7.643a8.857,8.857,0,0,0-2.226,2.094,5.335,5.335,0,0,0-.487,2.859,8.1,8.1,0,0,1-.216,2.913,2.349,2.349,0,0,1-2.144,1.7q.377,1.6.753,3.2c-.421.468.178,1.318.676,1.708a7.967,7.967,0,0,1,1.518,1.1,3.876,3.876,0,0,1,.375,2.635c-.043.908.174,2.009,1.024,2.322.869.321,2.044-.351,2.682.321.336.355.317.92.568,1.341a1.167,1.167,0,0,0,2.171-.572,3.191,3.191,0,0,0,2.508.726c.479-.069.734.158.978.576a3.386,3.386,0,0,1,.352,1.4c.1.966.2,1.928.3,2.894a2.485,2.485,0,0,1-.131,1.418c-.634,1.2-2.882.916-3.219,2.226-.251.985.881,1.746,1.209,2.709.46,1.352-.742,2.662-1.839,3.574s-2.338,2.16-1.959,3.539a1.824,1.824,0,0,0,1.546,1.209,4.579,4.579,0,0,0,2.086-.309q2.26-.7,4.517-1.406c1.086-.34,2.357-.881,2.531-2.005.923,0,1.615-.846,2.013-1.681a6.244,6.244,0,0,1,1.414-2.349c1.542-1.236,3.906-.058,5.773-.711,1.306-.456,2.125-1.712,3.118-2.678s2.612-1.673,3.709-.831q1.1-.991,2.187-1.982c-.638-.9.471-2.253,1.283-2.995s1.855-1.3,2.338-2.291a14.745,14.745,0,0,0,.583-2.512,7.962,7.962,0,0,1,2.423-3.315q2.852-2.736,5.7-5.467c-.545.17-1.028-.526-.908-1.082a2.869,2.869,0,0,1,1-1.349,1.992,1.992,0,0,0,.8-1.449C391.229,586.243,390.17,585.83,389.309,585.556Z" transform="translate(-286.971 -487.845)" fill="#001327"/>
              <path id="Path_2156" data-name="Path 2156" d="M436.721,648.461a1.331,1.331,0,0,0,1.206-1.233c-.019-.846-1-1.321-1.839-1.426a4.037,4.037,0,0,1-2.4-.668,2.292,2.292,0,0,0-1.283-1.19c-1.387-.73-3.872-2.74-5.5-2.685-.773.027-1.862.8-1.785,1.673.066.781,1.221,1.418,1.716.576-.108.757-.216,1.519-.321,2.276a6.587,6.587,0,0,1,7.052.831c.483.406.9.885,1.406,1.263A2.492,2.492,0,0,0,436.721,648.461Z" transform="translate(-371.735 -581.981)" fill="#001327"/>
              <path id="Path_2157" data-name="Path 2157" d="M461.07,660.288a4.979,4.979,0,0,0,3,.815c1.236.077,2.469.158,3.705.236.456.027,1.055-.046,1.14-.495.062-.313-.193-.591-.444-.788C466.742,658.708,462.345,657.854,461.07,660.288Z" transform="translate(-393.801 -592.712)" fill="#001327"/>
              <path id="Path_2158" data-name="Path 2158" d="M466.12,649.23h0a.014.014,0,0,0,.012,0Z" transform="translate(-396.9 -586.873)" fill="#001327"/>
              <path id="Path_2159" data-name="Path 2159" d="M464.563,649.415a4.214,4.214,0,0,0-.645-.359l.637.355a1.194,1.194,0,0,1-.645-.359,1.417,1.417,0,0,0-.5-.112.825.825,0,0,0-.889.738c.015.522.641.765,1.151.877.529.12,1.059.236,1.584.355.359.081.8.135,1.032-.147a.717.717,0,0,0-.247-.989,2.467,2.467,0,0,0-1.1-.29A3.259,3.259,0,0,1,464.563,649.415Z" transform="translate(-394.69 -586.695)" fill="#001327"/>
              <path id="Path_2160" data-name="Path 2160" d="M444.938,662.656a.923.923,0,0,0-.641.989,3.186,3.186,0,0,0,1.151,1,1.107,1.107,0,0,0,1.372-.34,1.078,1.078,0,0,0-.317-1.291,2.514,2.514,0,0,0-1.337-.479l.127.1A.919.919,0,0,0,444.938,662.656Z" transform="translate(-383.504 -595.041)" fill="#001327"/>
              <path id="Path_2161" data-name="Path 2161" d="M410.256,730.574a2.807,2.807,0,0,0-1.352-.375l.34-.039a1.159,1.159,0,1,0-.877,2.144,2.34,2.34,0,0,0,1.19.019,1.448,1.448,0,0,0,1.082-.518A.978.978,0,0,0,410.256,730.574Z" transform="translate(-361.008 -636.48)" fill="#001327"/>
              <path id="Path_2162" data-name="Path 2162" d="M398.109,730.406a.649.649,0,0,0-.7.178.758.758,0,0,0,.189,1.063.94.94,0,0,0,1.12-.116,1.252,1.252,0,0,0,.352-1.113Z" transform="translate(-354.653 -636.664)" fill="#001327"/>
              <path id="Path_2163" data-name="Path 2163" d="M402.188,723.488c-.5-.151-1.2-.193-1.4.294-.174.429.278.9.742.931a2.22,2.22,0,0,0,1.279-.475l-.379.4a.4.4,0,0,0,.641-.1.639.639,0,0,0-.185-.707A1.675,1.675,0,0,0,402.188,723.488Z" transform="translate(-356.789 -632.377)" fill="#001327"/>
              <path id="Path_2164" data-name="Path 2164" d="M501.449,690.5a1.324,1.324,0,0,0-.247,0l.124.046a.427.427,0,0,0-.174.147.793.793,0,0,0,.236.974,2.6,2.6,0,0,0,.993.429,1.914,1.914,0,0,1,.954.5,2.117,2.117,0,0,0-1.468-2.005A.518.518,0,0,0,501.449,690.5Z" transform="translate(-418.343 -612.191)" fill="#001327"/>
              <path id="Path_2165" data-name="Path 2165" d="M498.118,682.225l-.035.023c.495-.127.989-.255,1.48-.386a1.571,1.571,0,0,0-1.256-1.012c-.564-.019-1.1.661-.784,1.132A.622.622,0,0,0,498.118,682.225Z" transform="translate(-416.112 -606.275)" fill="#001327"/>
              <path id="Path_2166" data-name="Path 2166" d="M453.969,638.7a.51.51,0,1,0-.51-.51A.517.517,0,0,0,453.969,638.7Z" transform="translate(-389.131 -579.786)" fill="#001327"/>
              <path id="Path_2167" data-name="Path 2167" d="M456.421,644.812a.715.715,0,0,0-.672-.514.65.65,0,0,0-.638.777.586.586,0,0,0,.081.22c0,.008,0,.012.023.035,0,.008.008.012.012.019a.517.517,0,0,0,.046.043.682.682,0,0,0,.692.22A.659.659,0,0,0,456.421,644.812Z" transform="translate(-390.137 -583.846)" fill="#001327"/>
              <path id="Path_2168" data-name="Path 2168" d="M448.783,644.368a.526.526,0,0,0,.328-.3.579.579,0,0,0-.371-1.02.6.6,0,0,0-.5.286.793.793,0,0,0-.035.8A.5.5,0,0,0,448.783,644.368Z" transform="translate(-385.853 -583.081)" fill="#001327"/>
              <path id="Path_2169" data-name="Path 2169" d="M489.765,665.891l.139-.069a.441.441,0,1,0-.6-.6l-.07.139A.394.394,0,0,0,489.765,665.891Z" transform="translate(-411.055 -596.552)" fill="#001327"/>
              <path id="Path_2170" data-name="Path 2170" d="M486.692,672.123a.352.352,0,0,0,0-.7A.352.352,0,0,0,486.692,672.123Z" transform="translate(-409.315 -600.489)" fill="#001327"/>
              <path id="Path_2171" data-name="Path 2171" d="M479.667,669.5a.315.315,0,0,0,0-.63A.315.315,0,0,0,479.667,669.5Z" transform="translate(-405.026 -598.925)" fill="#001327"/>
              <path id="Path_2172" data-name="Path 2172" d="M493.562,669.694a.487.487,0,0,0,0-.974A.487.487,0,0,0,493.562,669.694Z" transform="translate(-413.45 -598.833)" fill="#001327"/>
              <path id="Path_2173" data-name="Path 2173" d="M500.861,669.96a.535.535,0,0,0,0-1.07A.535.535,0,0,0,500.861,669.96Z" transform="translate(-417.901 -598.937)" fill="#001327"/>
            </g>
            <g id="Group_1164" data-name="Group 1164" transform="translate(23.141 23.144)" opacity="0.15">
              <path id="Path_2174" data-name="Path 2174" d="M450.483,447.2A100.014,100.014,0,0,1,309.63,588.049,100.013,100.013,0,1,0,450.483,447.2Z" transform="translate(-309.63 -447.2)" fill="#4c4c4c"/>
            </g>
            <g id="Group_1165" data-name="Group 1165" transform="translate(0.008 0.008)" opacity="0.05">
              <path id="Path_2175" data-name="Path 2175" d="M354.7,392.246a99.653,99.653,0,0,1,68.212,26.873A100.011,100.011,0,1,0,281.559,560.47,100.011,100.011,0,0,1,354.7,392.246Z" transform="translate(-249.76 -387.32)" fill="#4c4c4c"/>
            </g>
            <g id="Group_1166" data-name="Group 1166" transform="translate(12.465 12.465)" opacity="0.3">
              <path id="Path_2176" data-name="Path 2176" d="M417.918,419.56A100.03,100.03,0,0,1,282,555.478,100.021,100.021,0,1,0,417.918,419.56Z" transform="translate(-282 -419.56)" fill="#7c7c7c"/>
            </g>
          </g>
          <g id="Group_1168" data-name="Group 1168" transform="translate(89.909 166.404)">
            <path id="Path_2177" data-name="Path 2177" d="M593.719,690.5a4.171,4.171,0,0,0-.429-1.159c-.216-.4-.854-1.553-1.7-3.072Z" transform="translate(-501.392 -615.654)" fill="none"/>
            <path id="Path_2178" data-name="Path 2178" d="M498.532,537.43l8.029,2.326c2.852.827,7.519,2.179,10.378,3.01l8.029,2.326a5.035,5.035,0,0,0,6.379-3.748l1.851-8.122c.653-2.886,1.727-7.612,2.384-10.5l1.851-8.122c.661-2.886-1.209-3.837-4.15-2.113l-5.039,2.96c-1.847-3.137-3.694-6.252-4.4-7.4-1.623-2.593-4.741-4.575-10.865-4.54-4.548.023-16.626.093-24.265.139l10.131,17.727a3.188,3.188,0,0,1,.626.889c.483.974,2.322,4.324,4.15,7.635l-4.93,2.894C495.75,534.513,495.68,536.6,498.532,537.43Z" transform="translate(-438.263 -503.509)" fill="#fdb819"/>
            <path id="Path_2179" data-name="Path 2179" d="M425.631,509.764c-2.6,3.937-9.2,14.42-9.2,14.42a4.875,4.875,0,0,0,1.677,6.827l16.182,9.463a5.185,5.185,0,0,0,7-1.758s9.126-14.945,9.973-16.329c.869-1.437,1.916-1.65,2.763-.8L443.888,503.86c-2.643.015-4.76.027-5.846.035C433.83,503.918,429.012,504.648,425.631,509.764Z" transform="translate(-393.445 -503.724)" fill="#d59a13"/>
            <path id="Path_2180" data-name="Path 2180" d="M361.708,628.8c1.824,3.524,6.87,12.6,10.568,19.242l11.468-18.682c1.352-2.3,3.856-6.561,5.946-10.092l5.873,3.249c2.979,1.65,4.822.653,4.1-2.218l-2.056-8.075c-.726-2.867-1.92-7.565-2.651-10.436l-2.048-8.075a5.043,5.043,0,0,0-6.476-3.586l-7.967,2.527c-2.832.9-7.465,2.368-10.3,3.265l-7.967,2.527c-2.832.9-2.712,2.983.267,4.633l4.328,2.4c-2.21,4.262-4.814,9.292-5.471,10.734C358.138,618.819,358.872,623.317,361.708,628.8Z" transform="translate(-358.149 -556.506)" fill="#fdb819"/>
            <path id="Path_2181" data-name="Path 2181" d="M406.188,692.06,394.72,710.742c2.059,3.7,3.705,6.653,4.138,7.473,1.209,2.291,2.944,6.781,13.891,6.719s15.911-.093,15.911-.093a5.065,5.065,0,0,0,5.031-5.073l-.1-18.713a5.071,5.071,0,0,0-5.092-5.015s-18.628.108-21.734.124c-1.963.012-2.21-1.283-1.522-2.488C405.33,693.517,405.682,692.926,406.188,692.06Z" transform="translate(-380.59 -619.207)" fill="#d59a13"/>
            <path id="Path_2182" data-name="Path 2182" d="M580.607,640.841l9.482,18.867c3.319-6.089,8.953-16.669,11.255-21.243,3.079-6.12,3.953-11.422,2.531-14.211s-8.443-16.356-8.443-16.356a4.644,4.644,0,0,0-6.634-1.839l-16.077,9.853a5.32,5.32,0,0,0-1.851,7.048s4.884,8.752,7.6,13.647c.846,1.519,1.484,2.674,1.7,3.072A4.021,4.021,0,0,1,580.607,640.841Z" transform="translate(-488.28 -565.995)" fill="#fdb819"/>
            <path id="Path_2183" data-name="Path 2183" d="M545.473,708.53c.375-.634,1.233-2.179,2.345-4.231l-9.482-18.867c.2,1.1-.355,1.843-1.719,1.851-.935.008-5.552.031-9.807.058l-.054-5.85c-.031-3.4-1.812-4.5-3.956-2.45l-6.035,5.765c-2.148,2.048-5.66,5.4-7.8,7.45l-6.035,5.765a5.01,5.01,0,0,0,.062,7.38l6.143,5.657c2.183,2.009,5.749,5.3,7.936,7.306l6.14,5.657c2.183,2.009,3.945.877,3.914-2.523l-.054-5.56c2.4-.016,5.058-.031,7.507-.042C541.4,715.848,543.981,711.034,545.473,708.53Z" transform="translate(-446.009 -610.585)" fill="#d59a13"/>
          </g>
          <g id="Group_1169" data-name="Group 1169" transform="translate(173.071 140.172)" opacity="0.8">
            <path id="Path_2184" data-name="Path 2184" d="M689.253,474.193a21.124,21.124,0,0,1,6.592,1.051,18.382,18.382,0,0,1,26.985-22.974,26.472,26.472,0,0,1,50.554,4.7,30.76,30.76,0,1,1,10.576,59.646H689.253a21.212,21.212,0,0,1,0-42.425Z" transform="translate(-668.04 -435.62)" fill="url(#linear-gradient-4)"/>
            <path id="Path_2185" data-name="Path 2185" d="M775.088,542.551a30.751,30.751,0,0,0,26.7-46.011A30.754,30.754,0,0,1,786.536,554H691.83a21.216,21.216,0,0,1-19.59-13.071,21.159,21.159,0,0,0,8.145,1.623Z" transform="translate(-670.617 -473.001)" fill="url(#linear-gradient-5)"/>
          </g>
          <g id="Group_1170" data-name="Group 1170" transform="translate(43.086 102.836)" opacity="0.8">
            <path id="Path_2186" data-name="Path 2186" d="M175.438,363.367a13.358,13.358,0,0,1,4.165.665,11.62,11.62,0,0,1,17.059-14.52,16.733,16.733,0,0,1,31.954,2.975,19.446,19.446,0,1,1,6.684,37.707H175.438a13.413,13.413,0,0,1,0-26.827Z" transform="translate(-162.03 -338.99)" fill="url(#linear-gradient-6)"/>
            <path id="Path_2187" data-name="Path 2187" d="M229.689,406.567A19.441,19.441,0,0,0,246.57,377.48a19.44,19.44,0,0,1-9.644,36.32H177.064a13.418,13.418,0,0,1-12.384-8.261,13.338,13.338,0,0,0,5.147,1.024h59.863Z" transform="translate(-163.656 -362.608)" fill="url(#linear-gradient-7)"/>
          </g>
          <g id="Group_1171" data-name="Group 1171" transform="translate(188.948 272.563)" opacity="0.8">
            <path id="Path_2188" data-name="Path 2188" d="M671.378,793.955a8.678,8.678,0,0,1,2.682.425,7.48,7.48,0,0,1,10.981-9.347,10.77,10.77,0,0,1,20.567,1.912,12.514,12.514,0,1,1,4.3,24.265h-38.53a8.628,8.628,0,1,1,0-17.256Z" transform="translate(-662.75 -778.26)" fill="url(#linear-gradient-8)"/>
            <path id="Path_2189" data-name="Path 2189" d="M706.3,821.77a12.511,12.511,0,0,0,10.861-18.72,12.514,12.514,0,0,1-6.205,23.38h-38.53a8.63,8.63,0,0,1-7.971-5.317,8.6,8.6,0,0,0,3.311.661H706.3Z" transform="translate(-663.793 -793.472)" fill="url(#linear-gradient-9)"/>
          </g>
        </g>
      </g>
    </g>
  </g>
</svg>
