<svg xmlns="http://www.w3.org/2000/svg" xmlns:xlink="http://www.w3.org/1999/xlink" width="458" height="458" viewBox="0 0 458 458">
  <defs>
    <linearGradient id="linear-gradient" x1="0.865" y1="0.178" x2="0.152" y2="0.822" gradientUnits="objectBoundingBox">
      <stop offset="0" stop-color="#fdb819"/>
      <stop offset="1" stop-color="#fff"/>
    </linearGradient>
  </defs>
  <g id="Group_2036" data-name="Group 2036" transform="translate(-1027 -2585)">
    <circle id="Ellipse_8" data-name="Ellipse 8" cx="229" cy="229" r="229" transform="translate(1027 3043) rotate(-90)" fill="url(#linear-gradient)"/>
    <g id="Group_2012" data-name="Group 2012" transform="translate(-34.917 2.585)">
      <g id="Earn_Money_001" data-name="Earn Money 001" transform="translate(1156.917 2624.415)">
        <g id="Group_891" data-name="Group 891" transform="translate(0 0)">
          <path id="Path_1664" data-name="Path 1664" d="M297.278,456.058l-30.97,7.507L254.933,493.33l-16.707-27.136L206.4,464.576,227.043,440.3l-8.294-30.767,29.469,12.133,26.7-17.4-2.431,31.77Z" transform="translate(-188.119 -261.734)" fill="#e8f4f6"/>
          <path id="Path_1665" data-name="Path 1665" d="M408.871,168.388,364,179.263l-16.479,43.124-24.206-39.31-46.107-2.345,29.907-35.17L295.1,100.985l42.69,17.575,38.681-25.2-3.522,46.03Z" transform="translate(-230.194 -76.99)" fill="#e8f4f6"/>
          <g id="Group_890" data-name="Group 890" transform="translate(14.252 181.943)">
            <g id="Group_854" data-name="Group 854" transform="translate(0 168.089)">
              <path id="Path_1666" data-name="Path 1666" d="M264.319,920.052v9.021a.576.576,0,0,1-.012.118c-.381,2.991-15.42,5.389-33.912,5.389s-33.531-2.4-33.912-5.389a.579.579,0,0,1-.012-.118v-9.021c0-2.459,15.189-4.452,33.925-4.452S264.319,917.589,264.319,920.052Z" transform="translate(-196.47 -915.6)" fill="#ffbd28"/>
              <path id="Path_1667" data-name="Path 1667" d="M323.112,933.878v5.361a.6.6,0,0,1-.373.58,63.165,63.165,0,0,1-10.729,2.682,61.789,61.789,0,0,1-13.18.661.575.575,0,0,1-.5-.588l-.146-5.84a.573.573,0,0,1,.532-.621,98.2,98.2,0,0,0,23.755-2.824A.553.553,0,0,1,323.112,933.878Z" transform="translate(-256.906 -926.103)" fill="#f69300"/>
              <path id="Path_1668" data-name="Path 1668" d="M196.47,948.79a.578.578,0,0,0,.012.117h-.012Z" transform="translate(-196.47 -935.322)" fill="#ffbd28"/>
              <path id="Path_1669" data-name="Path 1669" d="M363.652,948.79v.117h-.012A.549.549,0,0,0,363.652,948.79Z" transform="translate(-295.803 -935.322)" fill="#ffbd28"/>
              <ellipse id="Ellipse_57" data-name="Ellipse 57" cx="33.925" cy="4.452" rx="33.925" ry="4.452" fill="#f69300"/>
              <path id="Path_1670" data-name="Path 1670" d="M264.342,927.14c-.925,2.354-15.737,4.216-33.876,4.216s-32.951-1.867-33.876-4.216Z" transform="translate(-196.541 -922.457)" fill="#ffa900"/>
              <path id="Path_1671" data-name="Path 1671" d="M218.56,943.964a1.143,1.143,0,0,1-1.031,1.209,27.5,27.5,0,0,1-8.015-.982,27.961,27.961,0,0,1-4.265-1.558,1.22,1.22,0,0,1-.67-1.124V938.12a1.116,1.116,0,0,1,1.234-1.193c2.483.458,5.093.856,7.812,1.173q2.015.231,3.948.389a1.156,1.156,0,0,1,.986,1.205Z" transform="translate(-201.289 -928.263)" fill="#ffdfab"/>
            </g>
            <g id="Group_855" data-name="Group 855" transform="translate(1.643 158.249)">
              <path id="Path_1672" data-name="Path 1672" d="M268.369,895.8v9.021a.58.58,0,0,1-.012.118c-.381,2.991-15.42,5.389-33.912,5.389s-33.531-2.4-33.912-5.389a.58.58,0,0,1-.012-.118V895.8c0-2.459,15.189-4.452,33.925-4.452S268.369,893.343,268.369,895.8Z" transform="translate(-200.52 -891.35)" fill="#ffbd28"/>
              <path id="Path_1673" data-name="Path 1673" d="M327.162,909.636V915a.6.6,0,0,1-.373.58,63.14,63.14,0,0,1-10.729,2.682,61.78,61.78,0,0,1-13.18.661.575.575,0,0,1-.5-.588l-.146-5.84a.573.573,0,0,1,.532-.621,98.2,98.2,0,0,0,23.755-2.824A.549.549,0,0,1,327.162,909.636Z" transform="translate(-260.956 -901.857)" fill="#f69300"/>
              <path id="Path_1674" data-name="Path 1674" d="M200.53,924.55a.58.58,0,0,0,.012.118h-.012Z" transform="translate(-200.526 -911.078)" fill="#ffbd28"/>
              <path id="Path_1675" data-name="Path 1675" d="M367.7,924.55v.118h-.012A.611.611,0,0,0,367.7,924.55Z" transform="translate(-299.853 -911.078)" fill="#ffbd28"/>
              <ellipse id="Ellipse_58" data-name="Ellipse 58" cx="33.925" cy="4.452" rx="33.925" ry="4.452" transform="translate(0)" fill="#f69300"/>
              <path id="Path_1676" data-name="Path 1676" d="M268.392,902.9c-.925,2.353-15.737,4.216-33.876,4.216s-32.951-1.867-33.876-4.216Z" transform="translate(-200.591 -898.213)" fill="#ffa900"/>
              <path id="Path_1677" data-name="Path 1677" d="M222.61,919.724a1.143,1.143,0,0,1-1.031,1.209,27.5,27.5,0,0,1-8.014-.982,27.961,27.961,0,0,1-4.265-1.558,1.22,1.22,0,0,1-.67-1.124V913.88a1.116,1.116,0,0,1,1.234-1.193c2.483.458,5.093.856,7.812,1.173q2.015.232,3.948.39a1.156,1.156,0,0,1,.986,1.205Z" transform="translate(-205.339 -904.019)" fill="#ffdfab"/>
            </g>
            <g id="Group_856" data-name="Group 856" transform="translate(43.595 169.639)">
              <path id="Path_1678" data-name="Path 1678" d="M371.749,923.872v9.021a.579.579,0,0,1-.012.118c-.381,2.991-15.42,5.389-33.912,5.389s-33.531-2.4-33.912-5.389a.581.581,0,0,1-.012-.118v-9.021c0-2.459,15.189-4.452,33.925-4.452S371.749,921.413,371.749,923.872Z" transform="translate(-303.9 -919.42)" fill="#ffbd28"/>
              <path id="Path_1679" data-name="Path 1679" d="M430.542,937.707v5.361a.6.6,0,0,1-.373.58,63.133,63.133,0,0,1-10.729,2.682,61.782,61.782,0,0,1-13.18.661.575.575,0,0,1-.5-.588l-.146-5.839a.573.573,0,0,1,.532-.621,98.209,98.209,0,0,0,23.755-2.824A.549.549,0,0,1,430.542,937.707Z" transform="translate(-364.336 -929.927)" fill="#f69300"/>
              <path id="Path_1680" data-name="Path 1680" d="M303.91,952.61a.584.584,0,0,0,.012.118h-.012Z" transform="translate(-303.906 -939.142)" fill="#ffbd28"/>
              <path id="Path_1681" data-name="Path 1681" d="M471.082,952.61v.118h-.012A.552.552,0,0,0,471.082,952.61Z" transform="translate(-403.233 -939.142)" fill="#ffbd28"/>
              <ellipse id="Ellipse_59" data-name="Ellipse 59" cx="33.925" cy="4.452" rx="33.925" ry="4.452" fill="#f69300"/>
              <path id="Path_1682" data-name="Path 1682" d="M371.772,930.96c-.925,2.354-15.737,4.216-33.876,4.216s-32.951-1.867-33.876-4.216Z" transform="translate(-303.971 -926.277)" fill="#ffa900"/>
              <path id="Path_1683" data-name="Path 1683" d="M325.99,947.784a1.143,1.143,0,0,1-1.031,1.209,27.5,27.5,0,0,1-8.014-.982,27.975,27.975,0,0,1-4.265-1.558,1.221,1.221,0,0,1-.67-1.124V941.94a1.116,1.116,0,0,1,1.234-1.193c2.483.458,5.093.856,7.812,1.173q2.015.231,3.948.39a1.156,1.156,0,0,1,.986,1.205Z" transform="translate(-308.719 -932.083)" fill="#ffdfab"/>
            </g>
            <g id="Group_857" data-name="Group 857" transform="translate(40.718 157.924)">
              <path id="Path_1684" data-name="Path 1684" d="M364.659,895v9.021a.585.585,0,0,1-.012.118c-.381,2.991-15.42,5.389-33.913,5.389s-33.531-2.4-33.912-5.389a.577.577,0,0,1-.012-.118V895c0-2.459,15.189-4.452,33.925-4.452S364.659,892.543,364.659,895Z" transform="translate(-296.81 -890.55)" fill="#ffbd28"/>
              <path id="Path_1685" data-name="Path 1685" d="M423.452,908.836V914.2a.6.6,0,0,1-.373.58,63.13,63.13,0,0,1-10.729,2.682,61.782,61.782,0,0,1-13.18.661.575.575,0,0,1-.5-.589l-.146-5.839a.573.573,0,0,1,.532-.621,98.216,98.216,0,0,0,23.755-2.824A.551.551,0,0,1,423.452,908.836Z" transform="translate(-357.246 -901.057)" fill="#f69300"/>
              <path id="Path_1686" data-name="Path 1686" d="M296.81,923.75a.575.575,0,0,0,.012.118h-.012Z" transform="translate(-296.81 -910.278)" fill="#ffbd28"/>
              <path id="Path_1687" data-name="Path 1687" d="M463.992,923.75v.118h-.012A.608.608,0,0,0,463.992,923.75Z" transform="translate(-396.143 -910.278)" fill="#ffbd28"/>
              <ellipse id="Ellipse_60" data-name="Ellipse 60" cx="33.925" cy="4.452" rx="33.925" ry="4.452" fill="#f69300"/>
              <path id="Path_1688" data-name="Path 1688" d="M364.682,902.1c-.925,2.354-15.737,4.216-33.876,4.216s-32.951-1.867-33.876-4.216Z" transform="translate(-296.881 -897.413)" fill="#ffa900"/>
              <path id="Path_1689" data-name="Path 1689" d="M318.9,918.924a1.143,1.143,0,0,1-1.031,1.209,27.506,27.506,0,0,1-8.015-.982,27.989,27.989,0,0,1-4.265-1.558,1.221,1.221,0,0,1-.67-1.124V913.08a1.116,1.116,0,0,1,1.234-1.193c2.483.459,5.093.856,7.812,1.173q2.015.231,3.948.39a1.155,1.155,0,0,1,.986,1.205Z" transform="translate(-301.629 -903.219)" fill="#ffdfab"/>
            </g>
            <g id="Group_858" data-name="Group 858" transform="translate(42.361 148.083)">
              <path id="Path_1690" data-name="Path 1690" d="M368.709,870.752v9.021a.578.578,0,0,1-.012.118c-.381,2.991-15.42,5.389-33.912,5.389s-33.531-2.4-33.912-5.389a.58.58,0,0,1-.012-.118v-9.021c0-2.459,15.189-4.452,33.925-4.452S368.709,868.293,368.709,870.752Z" transform="translate(-300.86 -866.3)" fill="#ffbd28"/>
              <path id="Path_1691" data-name="Path 1691" d="M427.5,884.588v5.36a.6.6,0,0,1-.373.58,63.143,63.143,0,0,1-10.729,2.682,61.781,61.781,0,0,1-13.18.661.575.575,0,0,1-.5-.588l-.146-5.839a.573.573,0,0,1,.532-.621A98.216,98.216,0,0,0,426.857,884,.551.551,0,0,1,427.5,884.588Z" transform="translate(-361.296 -876.809)" fill="#f69300"/>
              <path id="Path_1692" data-name="Path 1692" d="M300.87,899.5a.59.59,0,0,0,.012.118h-.012Z" transform="translate(-300.866 -886.028)" fill="#ffbd28"/>
              <path id="Path_1693" data-name="Path 1693" d="M468.042,899.5v.118h-.012A.581.581,0,0,0,468.042,899.5Z" transform="translate(-400.193 -886.028)" fill="#ffbd28"/>
              <ellipse id="Ellipse_61" data-name="Ellipse 61" cx="33.925" cy="4.452" rx="33.925" ry="4.452" transform="translate(0)" fill="#f69300"/>
              <path id="Path_1694" data-name="Path 1694" d="M368.732,877.85c-.925,2.354-15.737,4.216-33.876,4.216s-32.951-1.867-33.876-4.216Z" transform="translate(-300.931 -873.163)" fill="#ffa900"/>
              <path id="Path_1695" data-name="Path 1695" d="M322.95,894.674a1.143,1.143,0,0,1-1.031,1.209,27.5,27.5,0,0,1-8.014-.982,27.975,27.975,0,0,1-4.265-1.558,1.221,1.221,0,0,1-.67-1.124V888.83a1.116,1.116,0,0,1,1.234-1.193c2.484.459,5.093.856,7.812,1.173q2.015.231,3.948.39a1.155,1.155,0,0,1,.986,1.205Z" transform="translate(-305.679 -878.969)" fill="#ffdfab"/>
            </g>
            <g id="Group_859" data-name="Group 859" transform="translate(43.595 135.719)">
              <path id="Path_1696" data-name="Path 1696" d="M371.749,840.282V849.3a.578.578,0,0,1-.012.118c-.381,2.991-15.42,5.389-33.912,5.389s-33.531-2.4-33.912-5.389a.58.58,0,0,1-.012-.118v-9.021c0-2.459,15.189-4.452,33.925-4.452S371.749,837.823,371.749,840.282Z" transform="translate(-303.9 -835.83)" fill="#ffbd28"/>
              <path id="Path_1697" data-name="Path 1697" d="M430.542,854.116v5.361a.6.6,0,0,1-.373.58,63.128,63.128,0,0,1-10.729,2.682,61.766,61.766,0,0,1-13.18.661.575.575,0,0,1-.5-.588l-.146-5.839a.573.573,0,0,1,.532-.621,98.217,98.217,0,0,0,23.755-2.824A.549.549,0,0,1,430.542,854.116Z" transform="translate(-364.336 -846.337)" fill="#f69300"/>
              <path id="Path_1698" data-name="Path 1698" d="M303.91,869.03a.583.583,0,0,0,.012.118h-.012Z" transform="translate(-303.906 -855.558)" fill="#ffbd28"/>
              <path id="Path_1699" data-name="Path 1699" d="M471.082,869.03v.118h-.012A.612.612,0,0,0,471.082,869.03Z" transform="translate(-403.233 -855.558)" fill="#ffbd28"/>
              <ellipse id="Ellipse_62" data-name="Ellipse 62" cx="33.925" cy="4.452" rx="33.925" ry="4.452" fill="#f69300"/>
              <path id="Path_1700" data-name="Path 1700" d="M371.772,847.38c-.925,2.354-15.737,4.216-33.876,4.216s-32.951-1.867-33.876-4.216Z" transform="translate(-303.971 -842.693)" fill="#ffa900"/>
              <path id="Path_1701" data-name="Path 1701" d="M325.99,864.194a1.143,1.143,0,0,1-1.031,1.209,27.5,27.5,0,0,1-8.014-.982,27.988,27.988,0,0,1-4.265-1.558,1.221,1.221,0,0,1-.67-1.124V858.35a1.116,1.116,0,0,1,1.234-1.193c2.483.458,5.093.856,7.812,1.173q2.015.231,3.948.39a1.155,1.155,0,0,1,.986,1.205Z" transform="translate(-308.719 -848.494)" fill="#ffdfab"/>
            </g>
            <g id="Group_860" data-name="Group 860" transform="translate(43.595 124.003)">
              <path id="Path_1702" data-name="Path 1702" d="M371.749,811.412v9.021a.576.576,0,0,1-.012.118c-.381,2.991-15.42,5.389-33.912,5.389s-33.531-2.4-33.912-5.389a.58.58,0,0,1-.012-.118v-9.021c0-2.459,15.189-4.452,33.925-4.452S371.749,808.953,371.749,811.412Z" transform="translate(-303.9 -806.96)" fill="#ffbd28"/>
              <path id="Path_1703" data-name="Path 1703" d="M430.542,825.246v5.36a.6.6,0,0,1-.373.58,63.145,63.145,0,0,1-10.729,2.682,61.79,61.79,0,0,1-13.18.661.575.575,0,0,1-.5-.589l-.146-5.839a.573.573,0,0,1,.532-.621,98.217,98.217,0,0,0,23.755-2.824A.549.549,0,0,1,430.542,825.246Z" transform="translate(-364.336 -817.467)" fill="#f69300"/>
              <path id="Path_1704" data-name="Path 1704" d="M303.91,840.16a.581.581,0,0,0,.012.118h-.012Z" transform="translate(-303.906 -826.688)" fill="#ffbd28"/>
              <path id="Path_1705" data-name="Path 1705" d="M471.082,840.16v.118h-.012A.579.579,0,0,0,471.082,840.16Z" transform="translate(-403.233 -826.688)" fill="#ffbd28"/>
              <ellipse id="Ellipse_63" data-name="Ellipse 63" cx="33.925" cy="4.452" rx="33.925" ry="4.452" fill="#f69300"/>
              <path id="Path_1706" data-name="Path 1706" d="M371.772,818.51c-.925,2.354-15.737,4.216-33.876,4.216s-32.951-1.867-33.876-4.216Z" transform="translate(-303.971 -813.823)" fill="#ffa900"/>
              <path id="Path_1707" data-name="Path 1707" d="M325.99,835.334a1.143,1.143,0,0,1-1.031,1.209,27.5,27.5,0,0,1-8.014-.982A27.969,27.969,0,0,1,312.68,834a1.22,1.22,0,0,1-.67-1.124V829.49a1.116,1.116,0,0,1,1.234-1.193c2.483.459,5.093.856,7.812,1.173q2.015.231,3.948.389a1.156,1.156,0,0,1,.986,1.205Z" transform="translate(-308.719 -819.629)" fill="#ffdfab"/>
            </g>
            <g id="Group_861" data-name="Group 861" transform="translate(65.325 77.268)">
              <path id="Path_1708" data-name="Path 1708" d="M425.3,696.242v9.021a.574.574,0,0,1-.012.118c-.381,2.991-15.42,5.389-33.912,5.389s-33.531-2.4-33.912-5.389a.579.579,0,0,1-.012-.118v-9.021c0-2.459,15.189-4.451,33.925-4.451S425.3,693.783,425.3,696.242Z" transform="translate(-357.45 -691.79)" fill="#ffbd28"/>
              <path id="Path_1709" data-name="Path 1709" d="M484.092,710.078v5.361a.6.6,0,0,1-.373.58,63.14,63.14,0,0,1-10.729,2.682,61.769,61.769,0,0,1-13.18.661.575.575,0,0,1-.5-.588l-.146-5.839a.573.573,0,0,1,.532-.621,98.21,98.21,0,0,0,23.755-2.824A.551.551,0,0,1,484.092,710.078Z" transform="translate(-417.886 -702.299)" fill="#f69300"/>
              <path id="Path_1710" data-name="Path 1710" d="M357.45,724.99a.579.579,0,0,0,.012.118h-.012Z" transform="translate(-357.45 -711.518)" fill="#ffbd28"/>
              <path id="Path_1711" data-name="Path 1711" d="M524.632,724.99v.118h-.012A.575.575,0,0,0,524.632,724.99Z" transform="translate(-456.783 -711.518)" fill="#ffbd28"/>
              <ellipse id="Ellipse_64" data-name="Ellipse 64" cx="33.925" cy="4.452" rx="33.925" ry="4.452" transform="translate(0)" fill="#f69300"/>
              <path id="Path_1712" data-name="Path 1712" d="M425.322,703.34c-.925,2.354-15.737,4.216-33.876,4.216S358.5,705.69,357.57,703.34Z" transform="translate(-357.521 -698.653)" fill="#ffa900"/>
              <path id="Path_1713" data-name="Path 1713" d="M379.54,720.164a1.143,1.143,0,0,1-1.031,1.209,27.506,27.506,0,0,1-8.015-.982,27.974,27.974,0,0,1-4.265-1.558,1.22,1.22,0,0,1-.67-1.124V714.32a1.116,1.116,0,0,1,1.234-1.193c2.483.459,5.093.856,7.812,1.173q2.015.231,3.948.39a1.155,1.155,0,0,1,.986,1.205Z" transform="translate(-362.269 -704.459)" fill="#ffdfab"/>
            </g>
            <g id="Group_862" data-name="Group 862" transform="translate(62.448 65.556)">
              <path id="Path_1714" data-name="Path 1714" d="M418.209,667.382V676.4a.576.576,0,0,1-.012.118c-.381,2.991-15.42,5.389-33.912,5.389s-33.531-2.4-33.912-5.389a.576.576,0,0,1-.012-.118v-9.021c0-2.459,15.189-4.452,33.925-4.452S418.209,664.923,418.209,667.382Z" transform="translate(-350.36 -662.93)" fill="#ffbd28"/>
              <path id="Path_1715" data-name="Path 1715" d="M476.992,681.216v5.361a.6.6,0,0,1-.373.58,63.145,63.145,0,0,1-10.729,2.682,61.77,61.77,0,0,1-13.18.661.575.575,0,0,1-.5-.588l-.146-5.839a.573.573,0,0,1,.532-.621,98.2,98.2,0,0,0,23.755-2.824A.549.549,0,0,1,476.992,681.216Z" transform="translate(-410.79 -673.437)" fill="#f69300"/>
              <path id="Path_1716" data-name="Path 1716" d="M350.36,696.12a.578.578,0,0,0,.012.118h-.012Z" transform="translate(-350.36 -682.652)" fill="#ffbd28"/>
              <path id="Path_1717" data-name="Path 1717" d="M517.542,696.12v.118h-.012A.549.549,0,0,0,517.542,696.12Z" transform="translate(-449.693 -682.652)" fill="#ffbd28"/>
              <ellipse id="Ellipse_65" data-name="Ellipse 65" cx="33.925" cy="4.452" rx="33.925" ry="4.452" transform="translate(0)" fill="#f69300"/>
              <path id="Path_1718" data-name="Path 1718" d="M418.232,674.47c-.925,2.354-15.737,4.216-33.876,4.216s-32.951-1.867-33.876-4.216Z" transform="translate(-350.431 -669.787)" fill="#ffa900"/>
              <path id="Path_1719" data-name="Path 1719" d="M372.45,691.294a1.143,1.143,0,0,1-1.031,1.209,27.5,27.5,0,0,1-8.014-.982,27.97,27.97,0,0,1-4.265-1.558,1.221,1.221,0,0,1-.67-1.124V685.45a1.116,1.116,0,0,1,1.234-1.193c2.484.459,5.093.856,7.812,1.173q2.015.231,3.948.39a1.155,1.155,0,0,1,.986,1.205Z" transform="translate(-355.179 -675.593)" fill="#ffdfab"/>
            </g>
            <g id="Group_863" data-name="Group 863" transform="translate(64.091 55.716)">
              <path id="Path_1720" data-name="Path 1720" d="M422.259,643.132v9.021a.58.58,0,0,1-.012.118c-.381,2.991-15.42,5.389-33.912,5.389s-33.531-2.4-33.912-5.389a.583.583,0,0,1-.012-.118v-9.021c0-2.459,15.189-4.452,33.925-4.452S422.259,640.673,422.259,643.132Z" transform="translate(-354.41 -638.68)" fill="#ffbd28"/>
              <path id="Path_1721" data-name="Path 1721" d="M481.052,656.966v5.361a.6.6,0,0,1-.373.58,63.126,63.126,0,0,1-10.729,2.682,61.782,61.782,0,0,1-13.18.661.575.575,0,0,1-.5-.588l-.146-5.84a.573.573,0,0,1,.532-.621,98.208,98.208,0,0,0,23.755-2.824A.549.549,0,0,1,481.052,656.966Z" transform="translate(-414.846 -649.187)" fill="#f69300"/>
              <path id="Path_1722" data-name="Path 1722" d="M354.41,671.88a.578.578,0,0,0,.012.118h-.012Z" transform="translate(-354.41 -658.408)" fill="#ffbd28"/>
              <path id="Path_1723" data-name="Path 1723" d="M521.592,671.88V672h-.012A.614.614,0,0,0,521.592,671.88Z" transform="translate(-453.743 -658.408)" fill="#ffbd28"/>
              <ellipse id="Ellipse_66" data-name="Ellipse 66" cx="33.925" cy="4.452" rx="33.925" ry="4.452" transform="translate(0)" fill="#f69300"/>
              <path id="Path_1724" data-name="Path 1724" d="M422.282,650.23c-.925,2.354-15.737,4.216-33.876,4.216s-32.951-1.867-33.876-4.216Z" transform="translate(-354.481 -645.543)" fill="#ffa900"/>
              <path id="Path_1725" data-name="Path 1725" d="M376.5,667.054a1.143,1.143,0,0,1-1.031,1.209,27.506,27.506,0,0,1-8.015-.982,27.945,27.945,0,0,1-4.265-1.558,1.22,1.22,0,0,1-.67-1.124V661.21a1.116,1.116,0,0,1,1.234-1.193c2.483.459,5.093.856,7.812,1.173q2.015.231,3.948.39a1.155,1.155,0,0,1,.986,1.205Z" transform="translate(-359.229 -651.349)" fill="#ffdfab"/>
            </g>
            <g id="Group_864" data-name="Group 864" transform="translate(43.595 112.292)">
              <path id="Path_1726" data-name="Path 1726" d="M371.749,782.552v9.021a.576.576,0,0,1-.012.118c-.381,2.991-15.42,5.389-33.912,5.389s-33.531-2.4-33.912-5.389a.579.579,0,0,1-.012-.118v-9.021c0-2.459,15.189-4.452,33.925-4.452S371.749,780.088,371.749,782.552Z" transform="translate(-303.9 -778.1)" fill="#ffbd28"/>
              <path id="Path_1727" data-name="Path 1727" d="M430.542,796.378v5.36a.6.6,0,0,1-.373.58A63.156,63.156,0,0,1,419.439,805a61.8,61.8,0,0,1-13.18.661.575.575,0,0,1-.5-.589l-.146-5.839a.573.573,0,0,1,.532-.621A98.208,98.208,0,0,0,429.9,795.79.551.551,0,0,1,430.542,796.378Z" transform="translate(-364.336 -788.603)" fill="#f69300"/>
              <path id="Path_1728" data-name="Path 1728" d="M303.91,811.29a.581.581,0,0,0,.012.118h-.012Z" transform="translate(-303.906 -797.822)" fill="#ffbd28"/>
              <path id="Path_1729" data-name="Path 1729" d="M471.082,811.29v.118h-.012A.55.55,0,0,0,471.082,811.29Z" transform="translate(-403.233 -797.822)" fill="#ffbd28"/>
              <ellipse id="Ellipse_67" data-name="Ellipse 67" cx="33.925" cy="4.452" rx="33.925" ry="4.452" fill="#f69300"/>
              <path id="Path_1730" data-name="Path 1730" d="M371.772,789.64c-.925,2.354-15.737,4.216-33.876,4.216s-32.951-1.867-33.876-4.216Z" transform="translate(-303.971 -784.957)" fill="#ffa900"/>
              <path id="Path_1731" data-name="Path 1731" d="M325.99,806.464a1.143,1.143,0,0,1-1.031,1.209,27.5,27.5,0,0,1-8.014-.982,27.982,27.982,0,0,1-4.265-1.558,1.22,1.22,0,0,1-.67-1.124V800.62a1.116,1.116,0,0,1,1.234-1.193c2.483.459,5.093.856,7.812,1.173q2.015.231,3.948.39a1.155,1.155,0,0,1,.986,1.205Z" transform="translate(-308.719 -790.763)" fill="#ffdfab"/>
            </g>
            <g id="Group_865" data-name="Group 865" transform="translate(40.718 100.577)">
              <path id="Path_1732" data-name="Path 1732" d="M364.659,753.682V762.7a.584.584,0,0,1-.012.118c-.381,2.991-15.42,5.389-33.913,5.389s-33.531-2.4-33.912-5.389a.578.578,0,0,1-.012-.118v-9.021c0-2.459,15.189-4.452,33.925-4.452S364.659,751.223,364.659,753.682Z" transform="translate(-296.81 -749.23)" fill="#ffbd28"/>
              <path id="Path_1733" data-name="Path 1733" d="M423.452,767.516v5.36a.6.6,0,0,1-.373.58,63.153,63.153,0,0,1-10.729,2.682,61.782,61.782,0,0,1-13.18.661.575.575,0,0,1-.5-.589l-.146-5.839a.573.573,0,0,1,.532-.621,98.216,98.216,0,0,0,23.755-2.824A.551.551,0,0,1,423.452,767.516Z" transform="translate(-357.246 -759.737)" fill="#f69300"/>
              <path id="Path_1734" data-name="Path 1734" d="M296.81,782.43a.578.578,0,0,0,.012.118h-.012Z" transform="translate(-296.81 -768.958)" fill="#ffbd28"/>
              <path id="Path_1735" data-name="Path 1735" d="M463.992,782.43v.118h-.012A.611.611,0,0,0,463.992,782.43Z" transform="translate(-396.143 -768.958)" fill="#ffbd28"/>
              <ellipse id="Ellipse_68" data-name="Ellipse 68" cx="33.925" cy="4.452" rx="33.925" ry="4.452" fill="#f69300"/>
              <path id="Path_1736" data-name="Path 1736" d="M364.682,760.78c-.925,2.354-15.737,4.216-33.876,4.216s-32.951-1.867-33.876-4.216Z" transform="translate(-296.881 -756.093)" fill="#ffa900"/>
              <path id="Path_1737" data-name="Path 1737" d="M318.9,777.6a1.143,1.143,0,0,1-1.031,1.209,27.5,27.5,0,0,1-8.015-.982,27.976,27.976,0,0,1-4.265-1.558,1.22,1.22,0,0,1-.67-1.124V771.76a1.116,1.116,0,0,1,1.234-1.193c2.483.459,5.093.856,7.812,1.173q2.015.231,3.948.389a1.156,1.156,0,0,1,.986,1.205Z" transform="translate(-301.629 -761.899)" fill="#ffdfab"/>
            </g>
            <g id="Group_866" data-name="Group 866" transform="translate(42.361 90.736)">
              <path id="Path_1738" data-name="Path 1738" d="M368.709,729.432v9.021a.578.578,0,0,1-.012.118c-.381,2.991-15.42,5.389-33.912,5.389s-33.531-2.4-33.912-5.389a.581.581,0,0,1-.012-.118v-9.021c0-2.459,15.189-4.452,33.925-4.452S368.709,726.973,368.709,729.432Z" transform="translate(-300.86 -724.98)" fill="#ffbd28"/>
              <path id="Path_1739" data-name="Path 1739" d="M427.5,743.266v5.361a.6.6,0,0,1-.373.58A63.144,63.144,0,0,1,416.4,751.89a61.79,61.79,0,0,1-13.18.661.575.575,0,0,1-.5-.588l-.146-5.839a.573.573,0,0,1,.532-.621,98.212,98.212,0,0,0,23.755-2.824A.549.549,0,0,1,427.5,743.266Z" transform="translate(-361.296 -735.487)" fill="#f69300"/>
              <path id="Path_1740" data-name="Path 1740" d="M300.87,758.18a.589.589,0,0,0,.012.118h-.012Z" transform="translate(-300.866 -744.708)" fill="#ffbd28"/>
              <path id="Path_1741" data-name="Path 1741" d="M468.042,758.18v.118h-.012A.58.58,0,0,0,468.042,758.18Z" transform="translate(-400.193 -744.708)" fill="#ffbd28"/>
              <ellipse id="Ellipse_69" data-name="Ellipse 69" cx="33.925" cy="4.452" rx="33.925" ry="4.452" transform="translate(0)" fill="#f69300"/>
              <path id="Path_1742" data-name="Path 1742" d="M368.732,736.53c-.925,2.354-15.737,4.216-33.876,4.216s-32.951-1.867-33.876-4.216Z" transform="translate(-300.931 -731.843)" fill="#ffa900"/>
              <path id="Path_1743" data-name="Path 1743" d="M322.95,753.354a1.143,1.143,0,0,1-1.031,1.209,27.5,27.5,0,0,1-8.014-.982,27.975,27.975,0,0,1-4.265-1.558,1.22,1.22,0,0,1-.67-1.124V747.51a1.116,1.116,0,0,1,1.234-1.193c2.484.459,5.093.856,7.812,1.173q2.015.231,3.948.39a1.156,1.156,0,0,1,.986,1.205Z" transform="translate(-305.679 -737.649)" fill="#ffdfab"/>
            </g>
            <g id="Group_867" data-name="Group 867" transform="translate(91.933 170.357)">
              <path id="Path_1744" data-name="Path 1744" d="M490.869,925.642v9.021a.58.58,0,0,1-.012.118c-.381,2.991-15.42,5.389-33.912,5.389s-33.531-2.4-33.912-5.389a.584.584,0,0,1-.012-.118v-9.021c0-2.459,15.189-4.452,33.925-4.452S490.869,923.183,490.869,925.642Z" transform="translate(-423.02 -921.19)" fill="#ffbd28"/>
              <path id="Path_1745" data-name="Path 1745" d="M549.652,939.476v5.36a.6.6,0,0,1-.373.58,63.157,63.157,0,0,1-10.729,2.682,61.79,61.79,0,0,1-13.18.661.575.575,0,0,1-.5-.589l-.146-5.839a.573.573,0,0,1,.531-.621,98.223,98.223,0,0,0,23.755-2.824A.547.547,0,0,1,549.652,939.476Z" transform="translate(-483.45 -931.697)" fill="#f69300"/>
              <path id="Path_1746" data-name="Path 1746" d="M423.02,954.38a.576.576,0,0,0,.012.118h-.012Z" transform="translate(-423.02 -940.912)" fill="#ffbd28"/>
              <path id="Path_1747" data-name="Path 1747" d="M590.2,954.38v.118h-.012A.553.553,0,0,0,590.2,954.38Z" transform="translate(-522.353 -940.912)" fill="#ffbd28"/>
              <ellipse id="Ellipse_70" data-name="Ellipse 70" cx="33.925" cy="4.452" rx="33.925" ry="4.452" transform="translate(0)" fill="#f69300"/>
              <path id="Path_1748" data-name="Path 1748" d="M490.882,932.73c-.925,2.354-15.737,4.216-33.876,4.216s-32.951-1.867-33.876-4.216Z" transform="translate(-423.085 -928.047)" fill="#ffa900"/>
              <path id="Path_1749" data-name="Path 1749" d="M445.11,949.554a1.143,1.143,0,0,1-1.031,1.209,27.51,27.51,0,0,1-8.015-.982,27.976,27.976,0,0,1-4.265-1.558,1.221,1.221,0,0,1-.67-1.124V943.71a1.116,1.116,0,0,1,1.234-1.193c2.484.459,5.093.856,7.812,1.173q2.015.231,3.948.39a1.155,1.155,0,0,1,.986,1.205Z" transform="translate(-427.839 -933.853)" fill="#ffdfab"/>
            </g>
            <g id="Group_868" data-name="Group 868" transform="translate(89.052 158.642)">
              <path id="Path_1750" data-name="Path 1750" d="M483.769,896.772v9.021a.575.575,0,0,1-.012.118c-.381,2.991-15.42,5.389-33.912,5.389s-33.531-2.4-33.912-5.389a.581.581,0,0,1-.012-.118v-9.021c0-2.459,15.189-4.452,33.925-4.452S483.769,894.312,483.769,896.772Z" transform="translate(-415.92 -892.32)" fill="#ffbd28"/>
              <path id="Path_1751" data-name="Path 1751" d="M542.562,910.607v5.361a.6.6,0,0,1-.373.58,63.12,63.12,0,0,1-10.729,2.682,61.782,61.782,0,0,1-13.18.661.575.575,0,0,1-.5-.588l-.146-5.839a.573.573,0,0,1,.532-.621,98.207,98.207,0,0,0,23.755-2.824A.549.549,0,0,1,542.562,910.607Z" transform="translate(-476.356 -902.827)" fill="#f69300"/>
              <path id="Path_1752" data-name="Path 1752" d="M415.93,925.52a.579.579,0,0,0,.012.118h-.012Z" transform="translate(-415.926 -912.048)" fill="#ffbd28"/>
              <path id="Path_1753" data-name="Path 1753" d="M583.1,925.52v.118h-.012A.615.615,0,0,0,583.1,925.52Z" transform="translate(-515.253 -912.048)" fill="#ffbd28"/>
              <ellipse id="Ellipse_71" data-name="Ellipse 71" cx="33.925" cy="4.452" rx="33.925" ry="4.452" transform="translate(0)" fill="#f69300"/>
              <path id="Path_1754" data-name="Path 1754" d="M483.792,903.87c-.925,2.354-15.737,4.216-33.876,4.216s-32.951-1.867-33.876-4.216Z" transform="translate(-415.991 -899.183)" fill="#ffa900"/>
              <path id="Path_1755" data-name="Path 1755" d="M438.02,920.694a1.143,1.143,0,0,1-1.031,1.209,27.5,27.5,0,0,1-8.014-.982,27.988,27.988,0,0,1-4.265-1.558,1.221,1.221,0,0,1-.67-1.124V914.85a1.116,1.116,0,0,1,1.234-1.193c2.483.459,5.093.856,7.812,1.173q2.015.231,3.948.39a1.155,1.155,0,0,1,.986,1.205Z" transform="translate(-420.745 -904.99)" fill="#ffdfab"/>
            </g>
            <g id="Group_869" data-name="Group 869" transform="translate(90.7 148.802)">
              <path id="Path_1756" data-name="Path 1756" d="M487.829,872.522v9.021a.58.58,0,0,1-.012.118c-.381,2.991-15.42,5.389-33.912,5.389s-33.531-2.4-33.912-5.389a.58.58,0,0,1-.012-.118v-9.021c0-2.459,15.189-4.451,33.925-4.451S487.829,870.063,487.829,872.522Z" transform="translate(-419.98 -868.07)" fill="#ffbd28"/>
              <path id="Path_1757" data-name="Path 1757" d="M546.612,886.358v5.361a.6.6,0,0,1-.373.58,63.122,63.122,0,0,1-10.729,2.682,61.782,61.782,0,0,1-13.18.661.575.575,0,0,1-.5-.588l-.146-5.839a.573.573,0,0,1,.531-.621,98.21,98.21,0,0,0,23.755-2.824A.551.551,0,0,1,546.612,886.358Z" transform="translate(-480.41 -878.579)" fill="#f69300"/>
              <path id="Path_1758" data-name="Path 1758" d="M419.98,901.27a.576.576,0,0,0,.012.118h-.012Z" transform="translate(-419.98 -887.798)" fill="#ffbd28"/>
              <path id="Path_1759" data-name="Path 1759" d="M587.162,901.27v.118h-.012A.587.587,0,0,0,587.162,901.27Z" transform="translate(-519.313 -887.798)" fill="#ffbd28"/>
              <ellipse id="Ellipse_72" data-name="Ellipse 72" cx="33.925" cy="4.452" rx="33.925" ry="4.452" transform="translate(0)" fill="#f69300"/>
              <path id="Path_1760" data-name="Path 1760" d="M487.842,879.62c-.925,2.354-15.737,4.216-33.876,4.216s-32.951-1.867-33.876-4.216Z" transform="translate(-420.045 -874.933)" fill="#ffa900"/>
              <path id="Path_1761" data-name="Path 1761" d="M442.07,896.444a1.143,1.143,0,0,1-1.031,1.209,27.506,27.506,0,0,1-8.015-.982,27.977,27.977,0,0,1-4.265-1.558,1.221,1.221,0,0,1-.67-1.124V890.6a1.116,1.116,0,0,1,1.234-1.193c2.484.459,5.093.856,7.812,1.173q2.015.231,3.948.39a1.155,1.155,0,0,1,.986,1.205Z" transform="translate(-424.799 -880.739)" fill="#ffdfab"/>
            </g>
            <g id="Group_870" data-name="Group 870" transform="translate(91.933 136.437)">
              <path id="Path_1762" data-name="Path 1762" d="M490.869,842.052v9.021a.579.579,0,0,1-.012.118c-.381,2.991-15.42,5.389-33.912,5.389s-33.531-2.4-33.912-5.389a.583.583,0,0,1-.012-.118v-9.021c0-2.459,15.189-4.451,33.925-4.451S490.869,839.593,490.869,842.052Z" transform="translate(-423.02 -837.6)" fill="#ffbd28"/>
              <path id="Path_1763" data-name="Path 1763" d="M549.652,855.886v5.361a.6.6,0,0,1-.373.58,63.157,63.157,0,0,1-10.729,2.682,61.786,61.786,0,0,1-13.18.662.575.575,0,0,1-.5-.589l-.146-5.839a.573.573,0,0,1,.531-.621,98.2,98.2,0,0,0,23.755-2.824A.549.549,0,0,1,549.652,855.886Z" transform="translate(-483.45 -848.107)" fill="#f69300"/>
              <path id="Path_1764" data-name="Path 1764" d="M423.02,870.79a.577.577,0,0,0,.012.118h-.012Z" transform="translate(-423.02 -857.322)" fill="#ffbd28"/>
              <path id="Path_1765" data-name="Path 1765" d="M590.2,870.79v.118h-.012A.553.553,0,0,0,590.2,870.79Z" transform="translate(-522.353 -857.322)" fill="#ffbd28"/>
              <ellipse id="Ellipse_73" data-name="Ellipse 73" cx="33.925" cy="4.452" rx="33.925" ry="4.452" transform="translate(0)" fill="#f69300"/>
              <path id="Path_1766" data-name="Path 1766" d="M490.882,849.15c-.925,2.354-15.737,4.216-33.876,4.216s-32.951-1.867-33.876-4.216Z" transform="translate(-423.085 -844.463)" fill="#ffa900"/>
              <path id="Path_1767" data-name="Path 1767" d="M445.11,865.964a1.143,1.143,0,0,1-1.031,1.209,27.506,27.506,0,0,1-8.015-.982,27.976,27.976,0,0,1-4.265-1.558,1.221,1.221,0,0,1-.67-1.124V860.12a1.116,1.116,0,0,1,1.234-1.193c2.484.458,5.093.856,7.812,1.173q2.015.231,3.948.39a1.155,1.155,0,0,1,.986,1.205Z" transform="translate(-427.839 -850.263)" fill="#ffdfab"/>
            </g>
            <g id="Group_871" data-name="Group 871" transform="translate(91.933 124.722)">
              <path id="Path_1768" data-name="Path 1768" d="M490.869,813.182V822.2a.579.579,0,0,1-.012.118c-.381,2.991-15.42,5.389-33.912,5.389s-33.531-2.4-33.912-5.389a.583.583,0,0,1-.012-.118v-9.021c0-2.459,15.189-4.452,33.925-4.452S490.869,810.723,490.869,813.182Z" transform="translate(-423.02 -808.73)" fill="#ffbd28"/>
              <path id="Path_1769" data-name="Path 1769" d="M549.652,827.016v5.361a.6.6,0,0,1-.373.58,63.133,63.133,0,0,1-10.729,2.682,61.781,61.781,0,0,1-13.18.661.575.575,0,0,1-.5-.588l-.146-5.839a.573.573,0,0,1,.531-.621,98.223,98.223,0,0,0,23.755-2.824A.549.549,0,0,1,549.652,827.016Z" transform="translate(-483.45 -819.237)" fill="#f69300"/>
              <path id="Path_1770" data-name="Path 1770" d="M423.02,841.93a.578.578,0,0,0,.012.118h-.012Z" transform="translate(-423.02 -828.458)" fill="#ffbd28"/>
              <path id="Path_1771" data-name="Path 1771" d="M590.2,841.93v.118h-.012A.584.584,0,0,0,590.2,841.93Z" transform="translate(-522.353 -828.458)" fill="#ffbd28"/>
              <ellipse id="Ellipse_74" data-name="Ellipse 74" cx="33.925" cy="4.452" rx="33.925" ry="4.452" transform="translate(0)" fill="#f69300"/>
              <path id="Path_1772" data-name="Path 1772" d="M490.882,820.28c-.925,2.354-15.737,4.216-33.876,4.216s-32.951-1.867-33.876-4.216Z" transform="translate(-423.085 -815.593)" fill="#ffa900"/>
              <path id="Path_1773" data-name="Path 1773" d="M445.11,837.1a1.143,1.143,0,0,1-1.031,1.209,27.5,27.5,0,0,1-8.015-.982,27.963,27.963,0,0,1-4.265-1.558,1.221,1.221,0,0,1-.67-1.124V831.26a1.116,1.116,0,0,1,1.234-1.193c2.484.459,5.093.856,7.812,1.173q2.015.232,3.948.39a1.156,1.156,0,0,1,.986,1.205Z" transform="translate(-427.839 -821.399)" fill="#ffdfab"/>
            </g>
            <g id="Group_872" data-name="Group 872" transform="translate(91.933 113.01)">
              <path id="Path_1774" data-name="Path 1774" d="M490.869,784.322v9.021a.579.579,0,0,1-.012.118c-.381,2.991-15.42,5.389-33.912,5.389s-33.531-2.4-33.912-5.389a.583.583,0,0,1-.012-.118v-9.021c0-2.459,15.189-4.452,33.925-4.452S490.869,781.859,490.869,784.322Z" transform="translate(-423.02 -779.87)" fill="#ffbd28"/>
              <path id="Path_1775" data-name="Path 1775" d="M549.652,798.148v5.36a.6.6,0,0,1-.373.58,63.162,63.162,0,0,1-10.729,2.682,61.78,61.78,0,0,1-13.18.661.575.575,0,0,1-.5-.588L524.72,801a.573.573,0,0,1,.531-.621,98.212,98.212,0,0,0,23.755-2.824A.551.551,0,0,1,549.652,798.148Z" transform="translate(-483.45 -790.373)" fill="#f69300"/>
              <path id="Path_1776" data-name="Path 1776" d="M423.02,813.06a.576.576,0,0,0,.012.118h-.012Z" transform="translate(-423.02 -799.592)" fill="#ffbd28"/>
              <path id="Path_1777" data-name="Path 1777" d="M590.2,813.06v.118h-.012A.555.555,0,0,0,590.2,813.06Z" transform="translate(-522.353 -799.592)" fill="#ffbd28"/>
              <ellipse id="Ellipse_75" data-name="Ellipse 75" cx="33.925" cy="4.452" rx="33.925" ry="4.452" transform="translate(0)" fill="#f69300"/>
              <path id="Path_1778" data-name="Path 1778" d="M490.882,791.41c-.925,2.354-15.737,4.216-33.876,4.216s-32.951-1.867-33.876-4.216Z" transform="translate(-423.085 -786.727)" fill="#ffa900"/>
              <path id="Path_1779" data-name="Path 1779" d="M445.11,808.234a1.143,1.143,0,0,1-1.031,1.209,27.5,27.5,0,0,1-8.015-.982A27.983,27.983,0,0,1,431.8,806.9a1.221,1.221,0,0,1-.67-1.124V802.39a1.116,1.116,0,0,1,1.234-1.193c2.484.459,5.093.856,7.812,1.173q2.015.231,3.948.39a1.155,1.155,0,0,1,.986,1.205Z" transform="translate(-427.839 -792.533)" fill="#ffdfab"/>
            </g>
            <g id="Group_873" data-name="Group 873" transform="translate(89.052 101.295)">
              <path id="Path_1780" data-name="Path 1780" d="M483.769,755.452v9.021a.575.575,0,0,1-.012.118c-.381,2.991-15.42,5.389-33.912,5.389s-33.531-2.4-33.912-5.389a.579.579,0,0,1-.012-.118v-9.021c0-2.459,15.189-4.452,33.925-4.452S483.769,752.993,483.769,755.452Z" transform="translate(-415.92 -751)" fill="#ffbd28"/>
              <path id="Path_1781" data-name="Path 1781" d="M542.562,769.286v5.36a.6.6,0,0,1-.373.58,63.154,63.154,0,0,1-10.729,2.682,61.781,61.781,0,0,1-13.18.661.575.575,0,0,1-.5-.588l-.146-5.839a.573.573,0,0,1,.532-.621,98.212,98.212,0,0,0,23.755-2.824A.549.549,0,0,1,542.562,769.286Z" transform="translate(-476.356 -761.507)" fill="#f69300"/>
              <path id="Path_1782" data-name="Path 1782" d="M415.93,784.2a.58.58,0,0,0,.012.118h-.012Z" transform="translate(-415.926 -770.728)" fill="#ffbd28"/>
              <path id="Path_1783" data-name="Path 1783" d="M583.1,784.2v.118h-.012A.617.617,0,0,0,583.1,784.2Z" transform="translate(-515.253 -770.728)" fill="#ffbd28"/>
              <ellipse id="Ellipse_76" data-name="Ellipse 76" cx="33.925" cy="4.452" rx="33.925" ry="4.452" transform="translate(0)" fill="#f69300"/>
              <path id="Path_1784" data-name="Path 1784" d="M483.792,762.55c-.925,2.354-15.737,4.216-33.876,4.216s-32.951-1.867-33.876-4.216Z" transform="translate(-415.991 -757.863)" fill="#ffa900"/>
              <path id="Path_1785" data-name="Path 1785" d="M438.02,779.374a1.143,1.143,0,0,1-1.031,1.209,27.5,27.5,0,0,1-8.014-.982,27.962,27.962,0,0,1-4.265-1.558,1.22,1.22,0,0,1-.67-1.124V773.53a1.116,1.116,0,0,1,1.234-1.193c2.483.459,5.093.856,7.812,1.173q2.015.231,3.948.39a1.156,1.156,0,0,1,.986,1.205Z" transform="translate(-420.745 -763.669)" fill="#ffdfab"/>
            </g>
            <g id="Group_874" data-name="Group 874" transform="translate(90.7 91.454)">
              <path id="Path_1786" data-name="Path 1786" d="M487.829,731.2v9.021a.579.579,0,0,1-.012.118c-.381,2.991-15.42,5.389-33.912,5.389s-33.531-2.4-33.912-5.389a.579.579,0,0,1-.012-.118V731.2c0-2.459,15.189-4.452,33.925-4.452S487.829,728.743,487.829,731.2Z" transform="translate(-419.98 -726.75)" fill="#ffbd28"/>
              <path id="Path_1787" data-name="Path 1787" d="M546.612,745.036V750.4a.6.6,0,0,1-.373.58,63.156,63.156,0,0,1-10.729,2.682,61.781,61.781,0,0,1-13.18.661.575.575,0,0,1-.5-.588l-.146-5.839a.573.573,0,0,1,.531-.621,98.217,98.217,0,0,0,23.755-2.824A.549.549,0,0,1,546.612,745.036Z" transform="translate(-480.41 -737.257)" fill="#f69300"/>
              <path id="Path_1788" data-name="Path 1788" d="M419.98,759.95a.578.578,0,0,0,.012.118h-.012Z" transform="translate(-419.98 -746.478)" fill="#ffbd28"/>
              <path id="Path_1789" data-name="Path 1789" d="M587.162,759.95v.118h-.012A.589.589,0,0,0,587.162,759.95Z" transform="translate(-519.313 -746.478)" fill="#ffbd28"/>
              <ellipse id="Ellipse_77" data-name="Ellipse 77" cx="33.925" cy="4.452" rx="33.925" ry="4.452" transform="translate(0)" fill="#f69300"/>
              <path id="Path_1790" data-name="Path 1790" d="M487.842,738.3c-.925,2.354-15.737,4.216-33.876,4.216s-32.951-1.867-33.876-4.216Z" transform="translate(-420.045 -733.613)" fill="#ffa900"/>
              <path id="Path_1791" data-name="Path 1791" d="M442.07,755.124a1.143,1.143,0,0,1-1.031,1.209,27.506,27.506,0,0,1-8.015-.982,27.97,27.97,0,0,1-4.265-1.558,1.221,1.221,0,0,1-.67-1.124V749.28a1.116,1.116,0,0,1,1.234-1.193c2.484.459,5.093.856,7.812,1.173q2.015.231,3.948.39a1.155,1.155,0,0,1,.986,1.205Z" transform="translate(-424.799 -739.419)" fill="#ffdfab"/>
            </g>
            <g id="Group_875" data-name="Group 875" transform="translate(99.408 78.899)">
              <path id="Path_1792" data-name="Path 1792" d="M509.289,700.262v9.021a.574.574,0,0,1-.012.118c-.381,2.991-15.42,5.389-33.912,5.389s-33.531-2.4-33.912-5.389a.578.578,0,0,1-.012-.118v-9.021c0-2.459,15.189-4.452,33.925-4.452S509.289,697.8,509.289,700.262Z" transform="translate(-441.44 -695.81)" fill="#ffbd28"/>
              <path id="Path_1793" data-name="Path 1793" d="M568.082,714.1v5.361a.6.6,0,0,1-.373.58,63.143,63.143,0,0,1-10.729,2.682,61.786,61.786,0,0,1-13.18.661.575.575,0,0,1-.5-.588l-.146-5.839a.573.573,0,0,1,.532-.621,98.213,98.213,0,0,0,23.755-2.824A.549.549,0,0,1,568.082,714.1Z" transform="translate(-501.876 -706.317)" fill="#f69300"/>
              <path id="Path_1794" data-name="Path 1794" d="M441.45,729.01a.577.577,0,0,0,.012.118h-.012Z" transform="translate(-441.446 -715.538)" fill="#ffbd28"/>
              <path id="Path_1795" data-name="Path 1795" d="M608.622,729.01v.118h-.012A.6.6,0,0,0,608.622,729.01Z" transform="translate(-540.773 -715.538)" fill="#ffbd28"/>
              <ellipse id="Ellipse_78" data-name="Ellipse 78" cx="33.925" cy="4.452" rx="33.925" ry="4.452" transform="translate(0)" fill="#f69300"/>
              <path id="Path_1796" data-name="Path 1796" d="M509.312,707.36c-.925,2.354-15.737,4.216-33.876,4.216s-32.951-1.867-33.876-4.216Z" transform="translate(-441.511 -702.673)" fill="#ffa900"/>
              <path id="Path_1797" data-name="Path 1797" d="M463.54,724.184a1.143,1.143,0,0,1-1.031,1.209,27.5,27.5,0,0,1-8.015-.982,27.968,27.968,0,0,1-4.265-1.558,1.221,1.221,0,0,1-.67-1.124V718.34a1.116,1.116,0,0,1,1.234-1.193c2.483.459,5.093.856,7.812,1.173q2.015.231,3.948.39a1.155,1.155,0,0,1,.986,1.205Z" transform="translate(-446.265 -708.479)" fill="#ffdfab"/>
            </g>
            <g id="Group_876" data-name="Group 876" transform="translate(96.531 67.184)">
              <path id="Path_1798" data-name="Path 1798" d="M502.2,671.392v9.021a.584.584,0,0,1-.012.118c-.381,2.991-15.42,5.389-33.912,5.389s-33.531-2.4-33.912-5.389a.579.579,0,0,1-.012-.118v-9.021c0-2.459,15.189-4.452,33.925-4.452S502.2,668.933,502.2,671.392Z" transform="translate(-434.35 -666.94)" fill="#ffbd28"/>
              <path id="Path_1799" data-name="Path 1799" d="M560.992,685.228v5.361a.6.6,0,0,1-.373.58,63.121,63.121,0,0,1-10.729,2.682,61.774,61.774,0,0,1-13.18.661.575.575,0,0,1-.5-.588l-.146-5.839a.573.573,0,0,1,.532-.621,98.207,98.207,0,0,0,23.755-2.824A.552.552,0,0,1,560.992,685.228Z" transform="translate(-494.786 -677.449)" fill="#f69300"/>
              <path id="Path_1800" data-name="Path 1800" d="M434.35,700.14a.579.579,0,0,0,.012.118h-.012Z" transform="translate(-434.35 -686.668)" fill="#ffbd28"/>
              <path id="Path_1801" data-name="Path 1801" d="M601.532,700.14v.118h-.012A.575.575,0,0,0,601.532,700.14Z" transform="translate(-533.683 -686.668)" fill="#ffbd28"/>
              <ellipse id="Ellipse_79" data-name="Ellipse 79" cx="33.925" cy="4.452" rx="33.925" ry="4.452" transform="translate(0)" fill="#f69300"/>
              <path id="Path_1802" data-name="Path 1802" d="M502.222,678.49c-.925,2.354-15.737,4.216-33.876,4.216S435.4,680.84,434.47,678.49Z" transform="translate(-434.421 -673.803)" fill="#ffa900"/>
              <path id="Path_1803" data-name="Path 1803" d="M456.44,695.314a1.143,1.143,0,0,1-1.031,1.209,27.506,27.506,0,0,1-8.015-.982,27.985,27.985,0,0,1-4.265-1.558,1.221,1.221,0,0,1-.67-1.124V689.47a1.116,1.116,0,0,1,1.234-1.193c2.483.458,5.093.856,7.812,1.173q2.015.231,3.948.39a1.155,1.155,0,0,1,.986,1.205Z" transform="translate(-439.169 -679.609)" fill="#ffdfab"/>
            </g>
            <g id="Group_877" data-name="Group 877" transform="translate(98.174 57.347)">
              <path id="Path_1804" data-name="Path 1804" d="M506.249,647.152v9.021a.576.576,0,0,1-.012.118c-.381,2.991-15.42,5.389-33.912,5.389s-33.531-2.4-33.912-5.389a.581.581,0,0,1-.012-.118v-9.021c0-2.459,15.189-4.452,33.925-4.452S506.249,644.692,506.249,647.152Z" transform="translate(-438.4 -642.7)" fill="#ffbd28"/>
              <path id="Path_1805" data-name="Path 1805" d="M565.042,660.986v5.361a.6.6,0,0,1-.373.58,63.14,63.14,0,0,1-10.729,2.682,61.781,61.781,0,0,1-13.18.661.575.575,0,0,1-.5-.588l-.146-5.839a.573.573,0,0,1,.532-.621A98.2,98.2,0,0,0,564.4,660.4.547.547,0,0,1,565.042,660.986Z" transform="translate(-498.836 -653.207)" fill="#f69300"/>
              <path id="Path_1806" data-name="Path 1806" d="M438.41,675.89a.579.579,0,0,0,.012.118h-.012Z" transform="translate(-438.406 -662.422)" fill="#ffbd28"/>
              <path id="Path_1807" data-name="Path 1807" d="M605.582,675.89v.118h-.012A.551.551,0,0,0,605.582,675.89Z" transform="translate(-537.733 -662.422)" fill="#ffbd28"/>
              <ellipse id="Ellipse_80" data-name="Ellipse 80" cx="33.925" cy="4.452" rx="33.925" ry="4.452" transform="translate(0)" fill="#f69300"/>
              <path id="Path_1808" data-name="Path 1808" d="M506.272,654.24c-.925,2.354-15.737,4.216-33.876,4.216s-32.951-1.867-33.876-4.216Z" transform="translate(-438.471 -649.557)" fill="#ffa900"/>
              <path id="Path_1809" data-name="Path 1809" d="M460.5,671.07a1.143,1.143,0,0,1-1.031,1.209,27.5,27.5,0,0,1-8.015-.982,27.964,27.964,0,0,1-4.265-1.558,1.221,1.221,0,0,1-.67-1.124V665.23a1.116,1.116,0,0,1,1.234-1.193c2.484.458,5.093.856,7.812,1.173q2.015.231,3.948.39a1.155,1.155,0,0,1,.986,1.205Z" transform="translate(-443.225 -655.369)" fill="#ffdfab"/>
            </g>
            <g id="Group_878" data-name="Group 878" transform="translate(99.408 44.979)">
              <path id="Path_1810" data-name="Path 1810" d="M509.289,616.672v9.021a.576.576,0,0,1-.012.118c-.381,2.991-15.42,5.389-33.912,5.389s-33.531-2.4-33.912-5.389a.58.58,0,0,1-.012-.118v-9.021c0-2.459,15.189-4.452,33.925-4.452S509.289,614.213,509.289,616.672Z" transform="translate(-441.44 -612.22)" fill="#ffbd28"/>
              <path id="Path_1811" data-name="Path 1811" d="M568.082,630.506v5.36a.6.6,0,0,1-.373.58,63.137,63.137,0,0,1-10.729,2.682,61.782,61.782,0,0,1-13.18.661.575.575,0,0,1-.5-.589l-.146-5.839a.573.573,0,0,1,.532-.621,98.2,98.2,0,0,0,23.755-2.824A.549.549,0,0,1,568.082,630.506Z" transform="translate(-501.876 -622.727)" fill="#f69300"/>
              <path id="Path_1812" data-name="Path 1812" d="M441.45,645.42a.574.574,0,0,0,.012.118h-.012Z" transform="translate(-441.446 -631.948)" fill="#ffbd28"/>
              <path id="Path_1813" data-name="Path 1813" d="M608.622,645.42v.118h-.012A.6.6,0,0,0,608.622,645.42Z" transform="translate(-540.773 -631.948)" fill="#ffbd28"/>
              <path id="Path_1814" data-name="Path 1814" d="M509.289,616.672c0,2.459-15.189,4.452-33.925,4.452s-33.925-1.992-33.925-4.452,15.189-4.452,33.925-4.452S509.289,614.213,509.289,616.672Z" transform="translate(-441.44 -612.22)" fill="#f69300"/>
              <path id="Path_1815" data-name="Path 1815" d="M509.312,623.77c-.925,2.354-15.737,4.216-33.876,4.216s-32.951-1.867-33.876-4.216Z" transform="translate(-441.511 -619.083)" fill="#ffa900"/>
              <path id="Path_1816" data-name="Path 1816" d="M463.54,640.594a1.143,1.143,0,0,1-1.031,1.209,27.506,27.506,0,0,1-8.015-.982,27.974,27.974,0,0,1-4.265-1.558,1.221,1.221,0,0,1-.67-1.124V634.75a1.116,1.116,0,0,1,1.234-1.193c2.483.459,5.093.856,7.812,1.173q2.015.231,3.948.39a1.155,1.155,0,0,1,.986,1.205Z" transform="translate(-446.265 -624.889)" fill="#ffdfab"/>
            </g>
            <g id="Group_879" data-name="Group 879" transform="translate(99.408 33.267)">
              <path id="Path_1817" data-name="Path 1817" d="M509.289,587.812v9.021a.575.575,0,0,1-.012.118c-.381,2.991-15.42,5.389-33.912,5.389s-33.531-2.4-33.912-5.389a.582.582,0,0,1-.012-.118v-9.021c0-2.459,15.189-4.452,33.925-4.452S509.289,585.348,509.289,587.812Z" transform="translate(-441.44 -583.36)" fill="#ffbd28"/>
              <path id="Path_1818" data-name="Path 1818" d="M568.082,601.638V607a.6.6,0,0,1-.373.58,63.125,63.125,0,0,1-10.729,2.682,61.778,61.778,0,0,1-13.18.661.575.575,0,0,1-.5-.588l-.146-5.839a.573.573,0,0,1,.532-.621,98.222,98.222,0,0,0,23.755-2.824A.551.551,0,0,1,568.082,601.638Z" transform="translate(-501.876 -593.863)" fill="#f69300"/>
              <path id="Path_1819" data-name="Path 1819" d="M441.45,616.55a.575.575,0,0,0,.012.118h-.012Z" transform="translate(-441.446 -603.082)" fill="#ffbd28"/>
              <path id="Path_1820" data-name="Path 1820" d="M608.622,616.55v.118h-.012A.567.567,0,0,0,608.622,616.55Z" transform="translate(-540.773 -603.082)" fill="#ffbd28"/>
              <ellipse id="Ellipse_81" data-name="Ellipse 81" cx="33.925" cy="4.452" rx="33.925" ry="4.452" transform="translate(0)" fill="#f69300"/>
              <path id="Path_1821" data-name="Path 1821" d="M509.312,594.9c-.925,2.354-15.737,4.216-33.876,4.216s-32.951-1.867-33.876-4.216Z" transform="translate(-441.511 -590.217)" fill="#ffa900"/>
              <path id="Path_1822" data-name="Path 1822" d="M463.54,611.724a1.143,1.143,0,0,1-1.031,1.209,27.5,27.5,0,0,1-8.015-.982,27.98,27.98,0,0,1-4.265-1.558,1.221,1.221,0,0,1-.67-1.124V605.88a1.116,1.116,0,0,1,1.234-1.193c2.483.459,5.093.856,7.812,1.173q2.015.231,3.948.39a1.155,1.155,0,0,1,.986,1.205Z" transform="translate(-446.265 -596.023)" fill="#ffdfab"/>
            </g>
            <g id="Group_880" data-name="Group 880" transform="translate(99.408 21.552)">
              <path id="Path_1823" data-name="Path 1823" d="M509.289,558.942v9.021a.575.575,0,0,1-.012.118c-.381,2.991-15.42,5.389-33.912,5.389s-33.531-2.4-33.912-5.389a.58.58,0,0,1-.012-.118v-9.021c0-2.459,15.189-4.452,33.925-4.452S509.289,556.482,509.289,558.942Z" transform="translate(-441.44 -554.49)" fill="#ffbd28"/>
              <path id="Path_1824" data-name="Path 1824" d="M568.082,572.776v5.361a.6.6,0,0,1-.373.58,63.136,63.136,0,0,1-10.729,2.682,61.782,61.782,0,0,1-13.18.661.575.575,0,0,1-.5-.588l-.146-5.839a.573.573,0,0,1,.532-.621,98.217,98.217,0,0,0,23.755-2.824A.549.549,0,0,1,568.082,572.776Z" transform="translate(-501.876 -564.997)" fill="#f69300"/>
              <path id="Path_1825" data-name="Path 1825" d="M441.45,587.69a.574.574,0,0,0,.012.118h-.012Z" transform="translate(-441.446 -574.218)" fill="#ffbd28"/>
              <path id="Path_1826" data-name="Path 1826" d="M608.622,587.69v.118h-.012A.6.6,0,0,0,608.622,587.69Z" transform="translate(-540.773 -574.218)" fill="#ffbd28"/>
              <ellipse id="Ellipse_82" data-name="Ellipse 82" cx="33.925" cy="4.452" rx="33.925" ry="4.452" transform="translate(0)" fill="#f69300"/>
              <path id="Path_1827" data-name="Path 1827" d="M509.312,566.04c-.925,2.354-15.737,4.216-33.876,4.216s-32.951-1.867-33.876-4.216Z" transform="translate(-441.511 -561.353)" fill="#ffa900"/>
              <path id="Path_1828" data-name="Path 1828" d="M463.54,582.864a1.143,1.143,0,0,1-1.031,1.209,27.505,27.505,0,0,1-8.015-.982,27.987,27.987,0,0,1-4.265-1.558,1.221,1.221,0,0,1-.67-1.124V577.02a1.116,1.116,0,0,1,1.234-1.193c2.483.459,5.093.856,7.812,1.173q2.015.231,3.948.39a1.156,1.156,0,0,1,.986,1.205Z" transform="translate(-446.265 -567.159)" fill="#ffdfab"/>
            </g>
            <g id="Group_881" data-name="Group 881" transform="translate(96.531 9.837)">
              <path id="Path_1829" data-name="Path 1829" d="M502.2,530.072v9.021a.583.583,0,0,1-.012.118c-.381,2.991-15.42,5.389-33.912,5.389s-33.531-2.4-33.912-5.389a.578.578,0,0,1-.012-.118v-9.021c0-2.459,15.189-4.452,33.925-4.452S502.2,527.613,502.2,530.072Z" transform="translate(-434.35 -525.62)" fill="#ffbd28"/>
              <path id="Path_1830" data-name="Path 1830" d="M560.992,543.908v5.361a.6.6,0,0,1-.373.58,63.132,63.132,0,0,1-10.729,2.682,61.781,61.781,0,0,1-13.18.661.575.575,0,0,1-.5-.588l-.146-5.839a.573.573,0,0,1,.532-.621,98.21,98.21,0,0,0,23.755-2.824A.552.552,0,0,1,560.992,543.908Z" transform="translate(-494.786 -536.129)" fill="#f69300"/>
              <path id="Path_1831" data-name="Path 1831" d="M434.35,558.82a.58.58,0,0,0,.012.118h-.012Z" transform="translate(-434.35 -545.348)" fill="#ffbd28"/>
              <path id="Path_1832" data-name="Path 1832" d="M601.532,558.82v.118h-.012A.577.577,0,0,0,601.532,558.82Z" transform="translate(-533.683 -545.348)" fill="#ffbd28"/>
              <ellipse id="Ellipse_83" data-name="Ellipse 83" cx="33.925" cy="4.452" rx="33.925" ry="4.452" transform="translate(0)" fill="#f69300"/>
              <path id="Path_1833" data-name="Path 1833" d="M502.222,537.17c-.925,2.354-15.737,4.216-33.876,4.216S435.4,539.52,434.47,537.17Z" transform="translate(-434.421 -532.483)" fill="#ffa900"/>
              <path id="Path_1834" data-name="Path 1834" d="M456.44,553.994a1.143,1.143,0,0,1-1.031,1.209,27.506,27.506,0,0,1-8.015-.982,27.992,27.992,0,0,1-4.265-1.558,1.22,1.22,0,0,1-.67-1.124V548.15a1.116,1.116,0,0,1,1.234-1.193c2.483.459,5.093.856,7.812,1.173q2.015.231,3.948.39a1.156,1.156,0,0,1,.986,1.205Z" transform="translate(-439.169 -538.289)" fill="#ffdfab"/>
            </g>
            <g id="Group_882" data-name="Group 882" transform="translate(98.174)">
              <path id="Path_1835" data-name="Path 1835" d="M506.249,505.832v9.021a.574.574,0,0,1-.012.118c-.381,2.991-15.42,5.389-33.912,5.389s-33.531-2.4-33.912-5.389a.578.578,0,0,1-.012-.118v-9.021c0-2.459,15.189-4.452,33.925-4.452S506.249,503.368,506.249,505.832Z" transform="translate(-438.4 -501.38)" fill="#ffbd28"/>
              <path id="Path_1836" data-name="Path 1836" d="M565.042,519.658v5.361a.6.6,0,0,1-.373.58,63.14,63.14,0,0,1-10.729,2.682,61.785,61.785,0,0,1-13.18.661.575.575,0,0,1-.5-.588l-.146-5.839a.573.573,0,0,1,.532-.621A98.211,98.211,0,0,0,564.4,519.07.551.551,0,0,1,565.042,519.658Z" transform="translate(-498.836 -511.883)" fill="#f69300"/>
              <path id="Path_1837" data-name="Path 1837" d="M438.41,534.57a.578.578,0,0,0,.012.118h-.012Z" transform="translate(-438.406 -521.102)" fill="#ffbd28"/>
              <path id="Path_1838" data-name="Path 1838" d="M605.582,534.57v.118h-.012A.55.55,0,0,0,605.582,534.57Z" transform="translate(-537.733 -521.102)" fill="#ffbd28"/>
              <ellipse id="Ellipse_84" data-name="Ellipse 84" cx="33.925" cy="4.452" rx="33.925" ry="4.452" transform="translate(0 0)" fill="#f69300"/>
              <path id="Path_1839" data-name="Path 1839" d="M506.272,512.92c-.925,2.354-15.737,4.216-33.876,4.216s-32.951-1.867-33.876-4.216Z" transform="translate(-438.471 -508.237)" fill="#ffa900"/>
              <path id="Path_1840" data-name="Path 1840" d="M460.5,529.744a1.143,1.143,0,0,1-1.031,1.209,27.5,27.5,0,0,1-8.015-.982,27.964,27.964,0,0,1-4.265-1.558,1.221,1.221,0,0,1-.67-1.124V523.9a1.116,1.116,0,0,1,1.234-1.193c2.484.459,5.093.856,7.812,1.173q2.015.231,3.948.39a1.156,1.156,0,0,1,.986,1.205Z" transform="translate(-443.225 -514.043)" fill="#ffdfab"/>
            </g>
            <g id="Group_883" data-name="Group 883" transform="translate(154.779 173.437)">
              <path id="Path_1841" data-name="Path 1841" d="M645.739,933.232v9.021a.583.583,0,0,1-.012.118c-.381,2.991-15.42,5.389-33.913,5.389s-33.531-2.4-33.912-5.389a.575.575,0,0,1-.012-.118v-9.021c0-2.459,15.189-4.452,33.925-4.452S645.739,930.768,645.739,933.232Z" transform="translate(-577.89 -928.78)" fill="#ffbd28"/>
              <path id="Path_1842" data-name="Path 1842" d="M704.522,947.058v5.36a.6.6,0,0,1-.373.58,63.14,63.14,0,0,1-10.729,2.682,61.781,61.781,0,0,1-13.18.661.575.575,0,0,1-.5-.588l-.146-5.839a.573.573,0,0,1,.532-.621,98.214,98.214,0,0,0,23.755-2.824A.551.551,0,0,1,704.522,947.058Z" transform="translate(-638.32 -939.283)" fill="#f69300"/>
              <path id="Path_1843" data-name="Path 1843" d="M577.89,961.97a.575.575,0,0,0,.012.118h-.012Z" transform="translate(-577.89 -948.502)" fill="#ffbd28"/>
              <path id="Path_1844" data-name="Path 1844" d="M745.072,961.97v.118h-.012A.575.575,0,0,0,745.072,961.97Z" transform="translate(-677.223 -948.502)" fill="#ffbd28"/>
              <ellipse id="Ellipse_85" data-name="Ellipse 85" cx="33.925" cy="4.452" rx="33.925" ry="4.452" transform="translate(0)" fill="#f69300"/>
              <path id="Path_1845" data-name="Path 1845" d="M645.752,940.32c-.925,2.354-15.737,4.216-33.876,4.216S578.925,942.67,578,940.32Z" transform="translate(-577.956 -935.637)" fill="#ffa900"/>
              <path id="Path_1846" data-name="Path 1846" d="M599.98,957.144a1.143,1.143,0,0,1-1.031,1.209,27.5,27.5,0,0,1-8.015-.982,27.974,27.974,0,0,1-4.265-1.558,1.221,1.221,0,0,1-.67-1.124V951.3a1.116,1.116,0,0,1,1.234-1.193c2.483.459,5.093.856,7.812,1.173q2.015.231,3.948.39a1.155,1.155,0,0,1,.986,1.205v4.269Z" transform="translate(-582.709 -941.443)" fill="#ffdfab"/>
            </g>
            <g id="Group_884" data-name="Group 884" transform="translate(151.898 161.722)">
              <path id="Path_1847" data-name="Path 1847" d="M638.639,904.362v9.021a.581.581,0,0,1-.012.118c-.381,2.991-15.42,5.389-33.912,5.389s-33.531-2.4-33.912-5.389a.573.573,0,0,1-.012-.118v-9.021c0-2.459,15.189-4.452,33.925-4.452S638.639,901.9,638.639,904.362Z" transform="translate(-570.79 -899.91)" fill="#ffbd28"/>
              <path id="Path_1848" data-name="Path 1848" d="M697.432,918.2v5.361a.6.6,0,0,1-.373.58,63.121,63.121,0,0,1-10.729,2.682,61.774,61.774,0,0,1-13.18.661.575.575,0,0,1-.5-.588l-.146-5.839a.573.573,0,0,1,.532-.621,98.215,98.215,0,0,0,23.755-2.824A.549.549,0,0,1,697.432,918.2Z" transform="translate(-631.226 -910.417)" fill="#f69300"/>
              <path id="Path_1849" data-name="Path 1849" d="M570.8,933.11a.579.579,0,0,0,.012.118H570.8Z" transform="translate(-570.796 -919.638)" fill="#ffbd28"/>
              <path id="Path_1850" data-name="Path 1850" d="M737.972,933.11v.118h-.012A.606.606,0,0,0,737.972,933.11Z" transform="translate(-670.123 -919.638)" fill="#ffbd28"/>
              <path id="Path_1851" data-name="Path 1851" d="M638.639,904.362c0,2.459-15.189,4.452-33.925,4.452s-33.925-1.993-33.925-4.452,15.189-4.452,33.925-4.452S638.639,901.9,638.639,904.362Z" transform="translate(-570.79 -899.91)" fill="#f69300"/>
              <path id="Path_1852" data-name="Path 1852" d="M638.662,911.46c-.925,2.354-15.737,4.216-33.876,4.216s-32.951-1.867-33.876-4.216Z" transform="translate(-570.861 -906.773)" fill="#ffa900"/>
              <path id="Path_1853" data-name="Path 1853" d="M592.89,928.284a1.143,1.143,0,0,1-1.031,1.209,27.5,27.5,0,0,1-8.014-.982,27.96,27.96,0,0,1-4.265-1.558,1.221,1.221,0,0,1-.67-1.124V922.44a1.116,1.116,0,0,1,1.234-1.193c2.483.458,5.093.856,7.812,1.173q2.015.232,3.948.39a1.155,1.155,0,0,1,.986,1.205Z" transform="translate(-575.615 -912.58)" fill="#ffdfab"/>
            </g>
            <g id="Group_885" data-name="Group 885" transform="translate(153.545 151.882)">
              <path id="Path_1854" data-name="Path 1854" d="M642.7,880.112v9.021a.587.587,0,0,1-.012.118c-.382,2.991-15.42,5.389-33.912,5.389s-33.531-2.4-33.913-5.389a.574.574,0,0,1-.012-.118v-9.021c0-2.459,15.189-4.452,33.924-4.452S642.7,877.653,642.7,880.112Z" transform="translate(-574.85 -875.66)" fill="#ffbd28"/>
              <path id="Path_1855" data-name="Path 1855" d="M701.482,893.946v5.361a.6.6,0,0,1-.373.58,63.12,63.12,0,0,1-10.729,2.682,61.774,61.774,0,0,1-13.18.661.575.575,0,0,1-.5-.588l-.146-5.839a.573.573,0,0,1,.532-.621,98.231,98.231,0,0,0,23.755-2.824A.549.549,0,0,1,701.482,893.946Z" transform="translate(-635.28 -886.167)" fill="#f69300"/>
              <path id="Path_1856" data-name="Path 1856" d="M574.85,908.86a.579.579,0,0,0,.012.118h-.012Z" transform="translate(-574.85 -895.388)" fill="#ffbd28"/>
              <path id="Path_1857" data-name="Path 1857" d="M742.032,908.86v.118h-.012A.61.61,0,0,0,742.032,908.86Z" transform="translate(-674.183 -895.388)" fill="#ffbd28"/>
              <ellipse id="Ellipse_86" data-name="Ellipse 86" cx="33.925" cy="4.452" rx="33.925" ry="4.452" transform="translate(0)" fill="#f69300"/>
              <path id="Path_1858" data-name="Path 1858" d="M642.712,887.21c-.925,2.354-15.737,4.216-33.876,4.216s-32.951-1.867-33.876-4.216Z" transform="translate(-574.915 -882.523)" fill="#ffa900"/>
              <path id="Path_1859" data-name="Path 1859" d="M596.94,904.034a1.143,1.143,0,0,1-1.031,1.209,27.5,27.5,0,0,1-8.015-.982,27.971,27.971,0,0,1-4.265-1.558,1.22,1.22,0,0,1-.67-1.124V898.19A1.116,1.116,0,0,1,584.194,897c2.484.458,5.093.856,7.812,1.173q2.015.231,3.948.39a1.155,1.155,0,0,1,.986,1.205Z" transform="translate(-579.669 -888.329)" fill="#ffdfab"/>
            </g>
            <g id="Group_886" data-name="Group 886" transform="translate(154.779 139.517)">
              <path id="Path_1860" data-name="Path 1860" d="M645.739,849.642v9.021a.583.583,0,0,1-.012.118c-.381,2.991-15.42,5.389-33.913,5.389s-33.531-2.4-33.912-5.389a.575.575,0,0,1-.012-.118v-9.021c0-2.459,15.189-4.452,33.925-4.452S645.739,847.179,645.739,849.642Z" transform="translate(-577.89 -845.19)" fill="#ffbd28"/>
              <path id="Path_1861" data-name="Path 1861" d="M704.522,863.468v5.361a.6.6,0,0,1-.373.58,63.134,63.134,0,0,1-10.729,2.682,61.782,61.782,0,0,1-13.18.661.575.575,0,0,1-.5-.589l-.146-5.839a.573.573,0,0,1,.532-.621,98.2,98.2,0,0,0,23.755-2.824A.551.551,0,0,1,704.522,863.468Z" transform="translate(-638.32 -855.693)" fill="#f69300"/>
              <path id="Path_1862" data-name="Path 1862" d="M577.89,878.38a.575.575,0,0,0,.012.118h-.012Z" transform="translate(-577.89 -864.912)" fill="#ffbd28"/>
              <path id="Path_1863" data-name="Path 1863" d="M745.072,878.38v.118h-.012A.546.546,0,0,0,745.072,878.38Z" transform="translate(-677.223 -864.912)" fill="#ffbd28"/>
              <ellipse id="Ellipse_87" data-name="Ellipse 87" cx="33.925" cy="4.452" rx="33.925" ry="4.452" transform="translate(0)" fill="#f69300"/>
              <path id="Path_1864" data-name="Path 1864" d="M645.752,856.73c-.925,2.354-15.737,4.216-33.876,4.216S578.925,859.08,578,856.73Z" transform="translate(-577.956 -852.047)" fill="#ffa900"/>
              <path id="Path_1865" data-name="Path 1865" d="M599.98,873.554a1.143,1.143,0,0,1-1.031,1.209,27.508,27.508,0,0,1-8.015-.982,27.987,27.987,0,0,1-4.265-1.558A1.221,1.221,0,0,1,586,871.1V867.71a1.116,1.116,0,0,1,1.234-1.193c2.483.459,5.093.856,7.812,1.173q2.015.231,3.948.39a1.155,1.155,0,0,1,.986,1.205v4.269Z" transform="translate(-582.709 -857.854)" fill="#ffdfab"/>
            </g>
            <g id="Group_887" data-name="Group 887" transform="translate(154.779 127.802)">
              <path id="Path_1866" data-name="Path 1866" d="M645.739,820.772v9.021a.584.584,0,0,1-.012.118c-.381,2.991-15.42,5.389-33.913,5.389s-33.531-2.4-33.912-5.389a.576.576,0,0,1-.012-.118v-9.021c0-2.459,15.189-4.452,33.925-4.452S645.739,818.313,645.739,820.772Z" transform="translate(-577.89 -816.32)" fill="#ffbd28"/>
              <path id="Path_1867" data-name="Path 1867" d="M704.522,834.606v5.361a.6.6,0,0,1-.373.58,63.14,63.14,0,0,1-10.729,2.682,61.774,61.774,0,0,1-13.18.661.575.575,0,0,1-.5-.588l-.146-5.839a.573.573,0,0,1,.532-.621,98.2,98.2,0,0,0,23.755-2.824A.549.549,0,0,1,704.522,834.606Z" transform="translate(-638.32 -826.827)" fill="#f69300"/>
              <path id="Path_1868" data-name="Path 1868" d="M577.89,849.52a.575.575,0,0,0,.012.118h-.012Z" transform="translate(-577.89 -836.048)" fill="#ffbd28"/>
              <path id="Path_1869" data-name="Path 1869" d="M745.072,849.52v.118h-.012A.605.605,0,0,0,745.072,849.52Z" transform="translate(-677.223 -836.048)" fill="#ffbd28"/>
              <ellipse id="Ellipse_88" data-name="Ellipse 88" cx="33.925" cy="4.452" rx="33.925" ry="4.452" transform="translate(0)" fill="#f69300"/>
              <path id="Path_1870" data-name="Path 1870" d="M645.752,827.87c-.925,2.354-15.737,4.216-33.876,4.216S578.925,830.22,578,827.87Z" transform="translate(-577.956 -823.183)" fill="#ffa900"/>
              <path id="Path_1871" data-name="Path 1871" d="M599.98,844.694a1.143,1.143,0,0,1-1.031,1.209,27.493,27.493,0,0,1-8.015-.982,27.974,27.974,0,0,1-4.265-1.558,1.22,1.22,0,0,1-.67-1.124V838.85a1.116,1.116,0,0,1,1.234-1.193c2.483.458,5.093.856,7.812,1.173q2.015.231,3.948.39a1.155,1.155,0,0,1,.986,1.205v4.269Z" transform="translate(-582.709 -828.989)" fill="#ffdfab"/>
            </g>
            <g id="Group_888" data-name="Group 888" transform="translate(154.779 116.086)">
              <path id="Path_1872" data-name="Path 1872" d="M645.739,791.9v9.021a.583.583,0,0,1-.012.118c-.381,2.991-15.42,5.389-33.913,5.389s-33.531-2.4-33.912-5.389a.576.576,0,0,1-.012-.118V791.9c0-2.459,15.189-4.452,33.925-4.452S645.739,789.443,645.739,791.9Z" transform="translate(-577.89 -787.45)" fill="#ffbd28"/>
              <path id="Path_1873" data-name="Path 1873" d="M704.522,805.738V811.1a.6.6,0,0,1-.373.58,63.134,63.134,0,0,1-10.729,2.682,61.785,61.785,0,0,1-13.18.661.575.575,0,0,1-.5-.589l-.146-5.839a.573.573,0,0,1,.532-.621,98.209,98.209,0,0,0,23.755-2.824A.551.551,0,0,1,704.522,805.738Z" transform="translate(-638.32 -797.959)" fill="#f69300"/>
              <path id="Path_1874" data-name="Path 1874" d="M577.89,820.65a.575.575,0,0,0,.012.118h-.012Z" transform="translate(-577.89 -807.178)" fill="#ffbd28"/>
              <path id="Path_1875" data-name="Path 1875" d="M745.072,820.65v.118h-.012A.575.575,0,0,0,745.072,820.65Z" transform="translate(-677.223 -807.178)" fill="#ffbd28"/>
              <ellipse id="Ellipse_89" data-name="Ellipse 89" cx="33.925" cy="4.452" rx="33.925" ry="4.452" transform="translate(0)" fill="#f69300"/>
              <path id="Path_1876" data-name="Path 1876" d="M645.752,799c-.925,2.354-15.737,4.216-33.876,4.216S578.925,801.35,578,799Z" transform="translate(-577.956 -794.313)" fill="#ffa900"/>
              <path id="Path_1877" data-name="Path 1877" d="M599.98,815.824a1.143,1.143,0,0,1-1.031,1.209,27.507,27.507,0,0,1-8.015-.982,27.987,27.987,0,0,1-4.265-1.558,1.221,1.221,0,0,1-.67-1.124V809.98a1.116,1.116,0,0,1,1.234-1.193c2.483.459,5.093.856,7.812,1.173q2.015.231,3.948.389a1.155,1.155,0,0,1,.986,1.205v4.269Z" transform="translate(-582.709 -800.119)" fill="#ffdfab"/>
            </g>
            <g id="Group_889" data-name="Group 889" transform="translate(151.898 104.375)">
              <path id="Path_1878" data-name="Path 1878" d="M638.639,763.042v9.021a.579.579,0,0,1-.012.118c-.381,2.991-15.42,5.389-33.912,5.389s-33.531-2.4-33.912-5.389a.572.572,0,0,1-.012-.118v-9.021c0-2.459,15.189-4.452,33.925-4.452S638.639,760.583,638.639,763.042Z" transform="translate(-570.79 -758.59)" fill="#ffbd28"/>
              <path id="Path_1879" data-name="Path 1879" d="M697.432,776.876v5.361a.6.6,0,0,1-.373.58,63.156,63.156,0,0,1-10.729,2.682,61.8,61.8,0,0,1-13.18.661.575.575,0,0,1-.5-.589l-.146-5.839a.573.573,0,0,1,.532-.621,98.215,98.215,0,0,0,23.755-2.824A.549.549,0,0,1,697.432,776.876Z" transform="translate(-631.226 -769.097)" fill="#f69300"/>
              <path id="Path_1880" data-name="Path 1880" d="M570.8,791.79a.578.578,0,0,0,.012.118H570.8Z" transform="translate(-570.796 -778.318)" fill="#ffbd28"/>
              <path id="Path_1881" data-name="Path 1881" d="M737.972,791.79v.118h-.012A.6.6,0,0,0,737.972,791.79Z" transform="translate(-670.123 -778.318)" fill="#ffbd28"/>
              <ellipse id="Ellipse_90" data-name="Ellipse 90" cx="33.925" cy="4.452" rx="33.925" ry="4.452" transform="translate(0)" fill="#f69300"/>
              <path id="Path_1882" data-name="Path 1882" d="M638.662,770.14c-.925,2.354-15.737,4.216-33.876,4.216s-32.951-1.867-33.876-4.216Z" transform="translate(-570.861 -765.453)" fill="#ffa900"/>
              <path id="Path_1883" data-name="Path 1883" d="M592.89,786.954a1.143,1.143,0,0,1-1.031,1.209,27.5,27.5,0,0,1-8.014-.982,27.967,27.967,0,0,1-4.265-1.558,1.221,1.221,0,0,1-.67-1.124V781.11a1.116,1.116,0,0,1,1.234-1.193c2.483.459,5.093.856,7.812,1.173q2.015.231,3.948.39a1.155,1.155,0,0,1,.986,1.205Z" transform="translate(-575.615 -771.253)" fill="#ffdfab"/>
            </g>
          </g>
          <path id="Path_1884" data-name="Path 1884" d="M249.529,176.36a77,77,0,0,1,21.2,14.661,105.585,105.585,0,0,1,16.061,19.965A165.734,165.734,0,0,1,298.5,233.663c3.364,7.808,6.3,15.773,9.167,23.759-3.092-7.9-6.261-15.777-9.841-23.459a164.667,164.667,0,0,0-12.275-22.173,103.759,103.759,0,0,0-16.333-19.145,74.382,74.382,0,0,0-20.874-13.574Z" transform="translate(-213.04 -126.309)" fill="#ffbd28"/>
          <path id="Path_1885" data-name="Path 1885" d="M727.105,93.668a47.157,47.157,0,0,0-9.211,12.835,65.816,65.816,0,0,0-5.263,15.157,105.386,105.386,0,0,0-2.159,16.065c-.349,5.413-.406,10.855-.41,16.289-.243-5.43-.434-10.871-.333-16.321a106.091,106.091,0,0,1,1.445-16.321,67.737,67.737,0,0,1,4.707-15.814,49.751,49.751,0,0,1,9.106-13.968Z" transform="translate(-487.182 -75.938)" fill="#ffbd28"/>
          <path id="Path_1886" data-name="Path 1886" d="M200.2,116.39l-13.241,3.21-4.861,12.726-7.142-11.6-13.6-.69,8.822-10.38L166.625,96.5l12.6,5.186,11.411-7.438L189.6,107.836Z" transform="translate(-161.35 -77.519)" fill="#ffbd28"/>
          <path id="Path_1887" data-name="Path 1887" d="M754.7,65.458l-2.435-3.693-4.419-.085,2.755-3.457-1.282-4.228,4.139,1.554,3.624-2.528-.2,4.415,3.526,2.67-4.265,1.173Z" transform="translate(-509.85 -53.02)" fill="#ffbd28"/>
        </g>
      </g>
      <g id="Group_893" data-name="Group 893" transform="translate(1323.71 2707.797)">
        <path id="Path_1587" data-name="Path 1587" d="M675.254,571.04l-13.145,4.492-1.5-8.969h-3.994l-7.988-50.932v-2.617l-15.993-54.185-.478-1.628-.02,6.891-.146,47.044-1.669,3.828,5.825,51.824-2.832,3.091.069,4.869L620,573.373l-4.164-6.81,2.386-2.046.818-.7.126-.109-1.414-1.843-.749-.972-.036-.223-8.337-51.188v0l-.186-1.11-.79-4.869-.194-1.183-.113-.7L596.2,447.4l9.649-17.516.5-5.773.15-1.746,1.807-20.968-2.123-4.039,1-3.48-4.869-51.787s13.959-4.452,19.975-8.847a.279.279,0,0,1,.036-.024q.419-.31.778-.608a4.6,4.6,0,0,0,1.888-2.726c.057-.6.093-1.288.126-2.025.231-5.509-.126-13.988-.126-13.988l20.384,5.821s.166,9.483.166,10.654a2.172,2.172,0,0,0,.381,1.053,13.252,13.252,0,0,0,3.33,3.415c.284.215.575.413.867.6a.324.324,0,0,1,.057.036c.2.122.5.28.887.47,4.533,2.212,20.688,8.483,20.688,8.483l-9.985,50-2,1.786,2.9,27.927.259,2.536,4.659,12.554,2.5,68.279,3.18,50.681.065,1,.146,2.333.065,1,.207,3.273-2,.8.045.057.847,1.094Z" transform="translate(-585.4 -291.241)" fill="#f1f4f5"/>
        <path id="Path_1588" data-name="Path 1588" d="M640.2,530.63a103.459,103.459,0,0,1-2.815,15.564,26.761,26.761,0,0,1-5.927,10.281l-5.708-1.543Z" transform="translate(-602.98 -420.193)" fill="#303030"/>
        <path id="Path_1589" data-name="Path 1589" d="M728.9,538.54s-.332,1.252,2.1,7.62,6.364,13.891,6.364,13.891l3.492-2.285Z" transform="translate(-664.334 -424.898)" fill="#303030"/>
        <path id="Path_1590" data-name="Path 1590" d="M675.278,732.932l-13.141,4.492-1.5-8.973h-3.994l-7.988-50.933V674.9l-15.993-54.181-.478-1.628-.02,6.887-.146,47.048-1.665,3.828,5.825,51.824-2.832,3.091.069,4.865-13.376-1.373-4.164-6.81,2.386-2.046.818-.7.126-.109-1.414-1.843-.749-.972-.036-.227-8.333-51.188v0l-.186-1.11-.79-4.869L607.5,664.2l-.113-.7L596.24,609.289l9.649-17.52.5-5.768h56.32l.263,2.536,4.654,12.554.2,5.448.053,1.56.081,2.147.053,1.519,2.107,57.6,3.18,50.677.065,1,.146,2.329.065,1,.206,3.273-2,.8.045.057.847,1.094Z" transform="translate(-585.424 -453.133)" fill="#001327"/>
        <path id="Path_1591" data-name="Path 1591" d="M778.616,952.822v4.241h-19.1V949.95s6.883-5.671,9.362-5.368a7.919,7.919,0,0,1,3.087,1.823c.356.284.713.587,1.073.907.211.178.413.369.62.555.308.28.62.567.92.855C776.745,950.777,778.616,952.822,778.616,952.822Z" transform="translate(-682.56 -666.449)" fill="#303030"/>
        <path id="Path_1592" data-name="Path 1592" d="M659.966,949.95v7.113h-19.1v-4.241s2.273-2.479,4.707-4.723c.389-.36.782-.713,1.175-1.049.45-.385.9-.75,1.316-1.074a14.176,14.176,0,0,1,1.163-.814h0a3.822,3.822,0,0,1,1.369-.579C653.083,944.279,659.966,949.95,659.966,949.95Z" transform="translate(-611.975 -666.449)" fill="#303030"/>
        <path id="Path_1593" data-name="Path 1593" d="M688.237,331.388l-5.12,5.266-15.681-8.807c.231-5.509-.126-13.988-.126-13.988l20.384,5.821s.166,9.483.166,10.654A2.12,2.12,0,0,0,688.237,331.388Z" transform="translate(-627.704 -291.235)" fill="#e1e1e1"/>
        <path id="Path_1594" data-name="Path 1594" d="M655.257,274.768s-2.37-1.454-3.536-.332-.79,5.157,2.2,7.28a4.967,4.967,0,0,0,5.493.5l.332,8.572,16.641,5.035,7.988-7.28-2.289-6.4-.389-14.2a4.1,4.1,0,0,0-.555-1.944c-1.159-1.985-4.12-6.437-7.875-7.4a16.806,16.806,0,0,0-13.145,1.872c-3.869,2.289-5.076,5.659-5.116,6.324S655.257,274.768,655.257,274.768Z" transform="translate(-618.065 -258.009)" fill="#e1e1e1"/>
        <path id="Path_1595" data-name="Path 1595" d="M678.058,590.843s-3.69.689-8.677,1.41c-.879.126-1.8.255-2.747.373-3.293.429-6.915.822-10.318,1.033H656.3c-.567.036-1.134.061-1.689.085-3.241.134-7.239.008-11.359-.243-3.091-.19-6.251-.454-9.2-.737q-1.343-.128-2.621-.259c-6.409-.66-11.266-1.317-11.266-1.317l.45-5.177h56.32Z" transform="translate(-599.66 -453.139)" fill="#303030"/>
        <path id="Path_1596" data-name="Path 1596" d="M594.764,614.106l-5.914-4.168,12.027-6.927Z" transform="translate(-581.028 -463.252)" fill="#f1f4f5"/>
        <path id="Path_1597" data-name="Path 1597" d="M784.854,622.754l-3.994-.6,1.786-1.649Z" transform="translate(-695.256 -473.663)" fill="#355f74"/>
        <path id="Path_1598" data-name="Path 1598" d="M763.07,597.94l3.942,13.984,5.23-5Z" transform="translate(-684.672 -460.236)" fill="#f1f4f5"/>
        <path id="Path_1599" data-name="Path 1599" d="M782.857,446.221l.749,1.3-9.325,37.641-11.2-11.387,6.688-26.149v0l.308-1.2.049-.207-1.872-1.373,1.244-.94,1.543-1.163-.749-.421-2.625-1.466.839-4.079L764,424.479l3.464-17.358a.38.38,0,0,0,.024-.113l3.549-17.788.2.782,4.241,16.819.263,1.037,1.357,5.38.243.964L782.6,435.02l-.3.369-.207.251,1.547,1.4,1.823,1.653Z" transform="translate(-684.678 -336.067)" fill="#001327"/>
        <path id="Path_1600" data-name="Path 1600" d="M585.849,448.274l3.54,24.156-12.525,8.211-7.324-39.229,1.333-2.062-1.333-1.738,4.079-7.352s2.175-11.638,4.322-22.863c.061-.32.126-.644.186-.964.3-1.584.6-3.152.9-4.667.065-.324.126-.652.186-.972.215-1.082.413-2.131.616-3.139.073-.389.15-.77.219-1.142,1.013-5.177,1.786-9.021,1.981-9.6.51-1.511,2.807-2.686,3.889-3.16.344-.154.563-.235.563-.235l2.358,25.075c0,.057.008.105.016.158l1.26,13.38L586.023,437l.421,1-.514.567-.668.729-.45.494-.113.126,2.617,2.123.458.373Z" transform="translate(-569.54 -332.676)" fill="#001327"/>
        <path id="Path_1601" data-name="Path 1601" d="M690.214,586v7.652H690.2c-.567.036-1.134.061-1.689.085-3.241.134-7.239.008-11.359-.243V586Z" transform="translate(-633.558 -453.133)" fill="#d7dfe3"/>
        <path id="Path_1602" data-name="Path 1602" d="M737.617,586v6.247c-.879.126-1.8.255-2.747.373V586Z" transform="translate(-667.896 -453.133)" fill="#303030"/>
        <path id="Path_1603" data-name="Path 1603" d="M648,586v6.494c.847.089,1.726.174,2.621.259V586Z" transform="translate(-616.216 -453.133)" fill="#303030"/>
        <path id="Path_1604" data-name="Path 1604" d="M694.719,370.13l-5.732,5.991,2.868,2.5-5.035,71.134,7.988,10.107,7.361-9.718L694.8,378.7l3.164-2.414Z" transform="translate(-639.311 -324.71)" fill="#fdb819"/>
        <path id="Path_1605" data-name="Path 1605" d="M696.011,314.3l-.458.478-.348.365-.369.381-.344.365-3.354,3.5-.4.409-.766.8-.409.429-.539.559-4.942-1.41-.478-.142-2.175-.62-.486-.142-.94-.263-.49-.142-1.637-.47-.393-.113-2.321-.66-.486-.138-2.192-.624-.5-.146-.6-.17-.105-2.759-.036-.83-.089-2.406-.024-.672-.073-1.9-.085-1.422-.041-.644-.065-1.1-.028-.567-.174-2.917,1.252,2.143.255.434.32.543.259.446,1.207,2.062.316.535.328.563.279.478.458.782.393.231.433.255,1.892,1.11.433.255,1.195.7.433.255.944.551.454.263,1.572.924.433.255.79.458.47.275.041.024,3.058-1.807.109.085.47.361.83.64.608.47h0l.328.255,1.4-2.8.251-.49v0l.34-.685.255-.5.664-1.329.259-.518.32-.636.867,2.422a.042.042,0,0,0,.008.02l.567,1.608Z" transform="translate(-629.697 -283.775)" fill="#666"/>
        <path id="Path_1606" data-name="Path 1606" d="M689.97,317.29l13.1.956-4.9,2.313Z" transform="translate(-641.185 -293.276)" fill="#fff"/>
        <path id="Path_1607" data-name="Path 1607" d="M687.28,314.49l.312-1.523,8.3-1.936v3.123Z" transform="translate(-639.584 -289.551)" fill="#303030"/>
        <path id="Path_1608" data-name="Path 1608" d="M712.35,315.254l.142-2.374,4.614,2.71v.972Z" transform="translate(-654.498 -290.652)" fill="#303030"/>
        <path id="Path_1609" data-name="Path 1609" d="M692.674,278.82a6.874,6.874,0,0,0-4.5,1.786c-.96.859.454,2.269,1.414,1.414a4.719,4.719,0,0,1,3.091-1.2A1,1,0,0,0,692.674,278.82Z" transform="translate(-639.923 -270.389)" fill="#303030"/>
        <path id="Path_1610" data-name="Path 1610" d="M717.816,284.035a4.108,4.108,0,0,0-3.613.28,1,1,0,0,0-.357,1.365,1.016,1.016,0,0,0,1.365.357,2.107,2.107,0,0,1,1.6-.28,1.024,1.024,0,0,0,1.365-.357A.992.992,0,0,0,717.816,284.035Z" transform="translate(-655.31 -273.311)" fill="#303030"/>
        <path id="Path_1611" data-name="Path 1611" d="M711.912,299.851c-.466-.446-1.171.259-.7.7a2.036,2.036,0,0,1,.693,1.786,1.267,1.267,0,0,1-1.746.964c-.612-.207-.871.758-.267.964a2.273,2.273,0,0,0,2.8-1.13A2.894,2.894,0,0,0,711.912,299.851Z" transform="translate(-652.829 -282.817)" fill="#303030"/>
        <path id="Path_1612" data-name="Path 1612" d="M672.419,307.059a.084.084,0,0,0-.024.016c-.421.308-.839.616-1.276.9l-.028-.567c.194-.13.385-.263.575-.4.17-.122.34-.251.5-.373Z" transform="translate(-629.953 -286.934)" fill="#cecece"/>
        <path id="Path_1613" data-name="Path 1613" d="M673.129,309.482c-.579.567-1.175,1.126-1.778,1.669l-.041-.644c.531-.474,1.049-.96,1.556-1.466Z" transform="translate(-630.084 -288.368)" fill="#cecece"/>
        <path id="Path_1614" data-name="Path 1614" d="M674.949,315.761c-1.057,1-2.1,2.034-3.115,3.071l-.024-.672q1.373-1.391,2.8-2.755a.2.2,0,0,1,.028-.174Z" transform="translate(-630.381 -292.05)" fill="#cecece"/>
        <path id="Path_1615" data-name="Path 1615" d="M675.718,318.4q-1.768,2.649-3.6,5.262l-.036-.83c1.138-1.629,2.26-3.261,3.354-4.914Z" transform="translate(-630.542 -293.65)" fill="#cecece"/>
        <path id="Path_1616" data-name="Path 1616" d="M678.1,321.865a67.577,67.577,0,0,1-3.678,7.069l-.5-.146a64.936,64.936,0,0,0,3.747-7.178Z" transform="translate(-631.636 -295.845)" fill="#cecece"/>
        <path id="Path_1617" data-name="Path 1617" d="M684.376,325.241q-1.738,3.2-3.33,6.469l-.486-.138q1.616-3.324,3.378-6.583Z" transform="translate(-635.587 -297.856)" fill="#cecece"/>
        <path id="Path_1618" data-name="Path 1618" d="M690.133,327.591c-.567,1.551-1.13,3.107-1.677,4.663-.19.543-.381,1.09-.563,1.628l-.393-.113c.134-.49.251-.984.32-1.183.215-.616.429-1.227.648-1.843.405-1.138.818-2.273,1.232-3.4Z" transform="translate(-639.715 -299.254)" fill="#cecece"/>
        <path id="Path_1619" data-name="Path 1619" d="M694.511,329.577q-.638,3.069-1.511,6.084l-.49-.142q.9-3.069,1.547-6.21Z" transform="translate(-642.696 -300.426)" fill="#cecece"/>
        <path id="Path_1620" data-name="Path 1620" d="M698.615,332.5q-.972,2.68-2.1,5.311l-.486-.142c.77-1.786,1.483-3.6,2.147-5.428Z" transform="translate(-644.79 -302.169)" fill="#cecece"/>
        <path id="Path_1621" data-name="Path 1621" d="M703.074,339.607s0,0,0,.008l-.478-.142c.251-1.819.531-3.646.709-5.473l.47.275C703.6,336.058,703.325,337.832,703.074,339.607Z" transform="translate(-648.698 -303.216)" fill="#cecece"/>
        <path id="Path_1622" data-name="Path 1622" d="M715.415,337.954l-.409.429c-.413-1.7-.794-3.4-1.11-5.129q-.255-1.379-.466-2.755l.47.361c.077.636.336,1.479.389,1.791.113.628.235,1.264.361,1.892Q715.008,336.25,715.415,337.954Z" transform="translate(-655.141 -301.134)" fill="#cecece"/>
        <path id="Path_1623" data-name="Path 1623" d="M718.487,338.216l-.4.409c-.555-1.867-1.045-3.755-1.446-5.655l.608.47h0Q717.786,335.84,718.487,338.216Z" transform="translate(-657.051 -302.604)" fill="#cecece"/>
        <path id="Path_1624" data-name="Path 1624" d="M725.63,330.584l-.344.365c-.952-1.276-1.908-2.552-2.856-3.828l.251-.49Q724.152,328.6,725.63,330.584Z" transform="translate(-660.495 -298.832)" fill="#cecece"/>
        <path id="Path_1625" data-name="Path 1625" d="M727.21,328.089l-.348.365q-1.483-2.133-2.982-4.262l.255-.5Q725.679,325.884,727.21,328.089Z" transform="translate(-661.358 -297.083)" fill="#cecece"/>
        <path id="Path_1626" data-name="Path 1626" d="M728.185,322.535a34.281,34.281,0,0,1-2.025-2.9l.259-.519c.381.608.774,1.2,1.187,1.786a.043.043,0,0,0,.008.02Z" transform="translate(-662.714 -294.364)" fill="#cecece"/>
        <path id="Path_1627" data-name="Path 1627" d="M689.156,346.281l1.867-3.318-.948.988L672.43,338.92Z" transform="translate(-630.75 -306.143)" fill="#303030"/>
        <path id="Path_1628" data-name="Path 1628" d="M697.962,293.133c-.223,1-.988,1.677-1.7,1.515s-1.114-1.1-.891-2.1.988-1.677,1.7-1.515A1.656,1.656,0,0,1,697.962,293.133Z" transform="translate(-644.36 -277.642)" fill="#303030"/>
        <path id="Path_1629" data-name="Path 1629" d="M720.581,294.8c-.211.94-.887,1.592-1.507,1.45s-.948-1.017-.737-1.957.887-1.592,1.507-1.45S720.791,293.858,720.581,294.8Z" transform="translate(-658.022 -278.719)" fill="#303030"/>
        <path id="Path_1630" data-name="Path 1630" d="M653.834,303.651s-.749-1.308.219-1.718,3.026,1.406,3.026,1.406Z" transform="translate(-619.522 -284.105)" fill="#303030"/>
        <path id="Path_1631" data-name="Path 1631" d="M661.09,306.949s-.749-.061-.251.843a1.259,1.259,0,0,0,1.406.656Z" transform="translate(-623.753 -287.123)" fill="#303030"/>
        <path id="Path_1632" data-name="Path 1632" d="M689.457,363.43q-2.807,3.968-5.623,7.932a.5.5,0,0,1-.859,0q-2.127-3.038-4.258-6.089-2.765,2.771-5.53,5.538a.5.5,0,0,1-.7,0c-2.2-2.143-4.464-4.209-6.85-6.137-1.616-1.312-3.411-2.491-4.914-3.946q.419-.31.778-.608c2.512,2.5,5.724,4.472,8.337,6.834.907.822,1.811,1.649,2.69,2.508.539.523,1.689-1.094,1.936-1.341q1.987-1.987,3.97-3.974a.505.505,0,0,1,.782.105l4.193,6q2.583-3.646,5.157-7.288C688.769,363.081,689.069,363.243,689.457,363.43Z" transform="translate(-623.783 -318.755)" fill="#355f74"/>
        <path id="Path_1633" data-name="Path 1633" d="M633.418,404.508c0,.644,0,1.284,0,1.908-.008,1.061-.024,2.1-.045,3.1-.356,18.29-2.706,27.263-5.931,34.1-3.5,7.438-12.525,14.113-12.525,14.113l.6-6.923,1.653-19.181v0l.113-1.325v0l.041-.454L615.2,425.8l.5-1.742.308-1.078.19-.66-1.24-13.174-1.26-13.38c0-.057-.008-.105-.016-.158l-2.358-25.075s.146-.045.405-.134A125.177,125.177,0,0,0,626,364.753c.563-.275,1.114-.555,1.641-.834a30.619,30.619,0,0,0,3.65-2.228c.121,1.41.263,3.123.421,5.092.036.421.065.855.1,1.3C632.535,377.448,633.418,391.606,633.418,404.508Z" transform="translate(-594.395 -319.689)" fill="#001327"/>
        <path id="Path_1634" data-name="Path 1634" d="M749.676,375.137l-3.549,17.788a.373.373,0,0,1-.024.113L742.64,410.4l-2.471,12.359-.243,1.232v0l-.231,1.138-2,1.786.069.668.113,1.118,3.435,29.248S727.064,441.418,727.169,431c.041-3.958.057-12.335.057-21.9v-2.325c0-11.869-.024-25.1-.041-33.837v-1.264c0-2.564-.008-4.667-.008-6.137.284.215.575.413.867.6a40.505,40.505,0,0,0,4.144,1.94c.6.259,1.252.535,1.932.818,5.42,2.26,12.7,5.112,14.9,5.971C749.441,375.048,749.676,375.137,749.676,375.137Z" transform="translate(-663.314 -321.98)" fill="#001327"/>
        <path id="Path_1635" data-name="Path 1635" d="M779.575,413.841q-5.22,1.094-10.435,2.175a.505.505,0,0,1-.174,0,23.509,23.509,0,0,1-2.135,5.526q1.543-7.377,2.86-14.79a.38.38,0,0,0,.024-.113q1.61-8.993,2.9-18.043c.421.166.652.255.652.255l.2.782q-1.6,11.132-3.69,22.179,4.035-2.576,7.932-5.363l.263,1.037q-4.138,2.959-8.45,5.675c-.114.608-.235,1.219-.357,1.827l10.164-2.123Z" transform="translate(-686.906 -335.698)" fill="#303030"/>
        <path id="Path_1636" data-name="Path 1636" d="M600.128,407.85a.455.455,0,0,1-.085-.142,27.368,27.368,0,0,0-3.455-.016c-1.248-.049-2.5-.109-3.743-.219-.859-.073-1.714-.158-2.564-.263.061-.32.126-.644.186-.964,1.414.158,2.832.284,4.253.361a46.707,46.707,0,0,1,5.315.069c-.057-.729-.109-1.462-.17-2.192a.465.465,0,0,1-.28-.154c-.47-.551-.964-1.069-1.475-1.576a.5.5,0,0,1-.458-.279c-2.1-.32-4.193-.62-6.3-.9.065-.324.126-.652.186-.972,1.681.223,3.37.466,5.052.713-1.458-1.313-2.982-2.552-4.44-3.852.073-.389.15-.77.219-1.142,1.94,1.778,4.027,3.415,5.935,5.246h0a.437.437,0,0,1,.328.328c.381.373.749.749,1.11,1.142q-.753-9.74-1.507-19.473c.344-.154.563-.235.563-.235s.146-.045.405-.134q.93,11.934,1.851,23.872a.54.54,0,0,1,.073.409l-.032.146.061.778c0,.057.008.105.016.158q.383,4.964.77,9.929C601.991,418.561,600.415,411.625,600.128,407.85Z" transform="translate(-581.878 -332.486)" fill="#303030"/>
        <path id="Path_1637" data-name="Path 1637" d="M648.486,409.678c-.008,1.061-.024,2.1-.045,3.1-3.609-11.152-7.113-22.361-11.318-33.307a.483.483,0,0,1,.13-.49q1.319-1.161,2.621-2.35a.439.439,0,0,1-.142-.219s0-.016,0-.02a13.981,13.981,0,0,0-2.815-1.292.5.5,0,0,1-.178-.685c1.167-1.616,2.305-3.261,3.366-4.95.113-.174.51-.749.984-1.454.563-.275,1.114-.555,1.641-.834-.174.239-.324.446-.421.6q-2.06,3.421-4.379,6.668c.47.186,1.013.373,1.507.6a3.456,3.456,0,0,1,1.227.847q3.1-2.844,6.084-5.821a.42.42,0,0,1,.045-.041c.036.421.065.855.1,1.3-2.67,2.657-5.408,5.246-8.236,7.737-.98.859,1.389,5.355,1.758,6.388q.96,2.7,1.888,5.408C644.431,397.125,646.457,403.4,648.486,409.678Z" transform="translate(-609.472 -322.955)" fill="#303030"/>
        <path id="Path_1638" data-name="Path 1638" d="M738.731,386.731c0,1.479-1.167,3.269-1.726,4.6-3.054,7.263-6.384,14.4-9.755,21.527v-2.325c2.649-5.606,5.278-11.229,7.717-16.929.859-2.017,1.778-4.035,2.532-6.1.66-1.782-2.131-3.759-3.3-4.829q-3.385-3.123-6.988-5.987v-1.264q3.062,2.394,5.959,4.979a.191.191,0,0,1,.028-.049l3.075-3.46q-2.03-2.522-4.063-5.056c.6.259,1.252.535,1.932.818l3.135,3.905a.515.515,0,0,1,0,.709q-1.683,1.9-3.37,3.788c.992.9,1.977,1.811,2.941,2.747C737.665,384.6,738.731,385.471,738.731,386.731Z" transform="translate(-663.339 -325.728)" fill="#303030"/>
        <path id="Path_1639" data-name="Path 1639" d="M629.669,536.083a.5.5,0,0,1-.616.348c-.036-.008-.065-.02-.1-.028a.494.494,0,0,1-.348-.579,6.558,6.558,0,0,1-.729-.964c-.207-.255-.413-.514-.624-.77-.49-.579-.988-1.154-1.511-1.7,0,0,0,0,0,0l.113-1.325c.62.628,1.211,1.276,1.782,1.948C628.227,533.705,629.84,535.074,629.669,536.083Z" transform="translate(-602.974 -420.449)" fill="#303030"/>
        <path id="Path_1640" data-name="Path 1640" d="M628.152,519.366a.531.531,0,0,1-.51-.421q-2.838-2.358-5.521-4.877l.308-1.078q3.056,2.911,6.319,5.586C629.189,518.941,628.614,519.678,628.152,519.366Z" transform="translate(-600.82 -409.699)" fill="#303030"/>
        <path id="Path_1641" data-name="Path 1641" d="M749.01,506.78l-.243,1.232v0c-1.993.948-4.12,1.669-6.129,2.487-.6.243-.855-.725-.271-.964C744.562,508.651,746.892,507.874,749.01,506.78Z" transform="translate(-672.16 -406.004)" fill="#303030"/>
        <path id="Path_1642" data-name="Path 1642" d="M747.923,519.828c-1.025.685-2.021,1.4-2.994,2.151-.5.389-1.211-.308-.7-.7,1.163-.9,2.362-1.758,3.585-2.564Z" transform="translate(-673.358 -413.101)" fill="#303030"/>
        <path id="Path_1643" data-name="Path 1643" d="M786.921,512.375q-4.053,2.03-8,4.241l1.543-1.163-.749-.421q2.9-1.592,5.85-3.087a.492.492,0,0,1,.47-.47c.215-.008.425-.02.64-.036A.5.5,0,0,1,786.921,512.375Z" transform="translate(-694.102 -408.776)" fill="#303030"/>
        <path id="Path_1644" data-name="Path 1644" d="M785.96,524.44a46.636,46.636,0,0,1-6.38,3.071l.308-1.2a48.24,48.24,0,0,0,4.813-2.325.414.414,0,0,1,.348-.361c.174-.036.348-.069.523-.105A.5.5,0,0,1,785.96,524.44Z" transform="translate(-694.494 -415.96)" fill="#303030"/>
        <path id="Path_1645" data-name="Path 1645" d="M804.137,502.164c-2.062-.907-4.152-1.742-6.287-2.5-.6-.211-.34-1.179.263-.964q2.364.839,4.679,1.807l-.207.251Z" transform="translate(-705.161 -401.182)" fill="#303030"/>
        <path id="Path_1646" data-name="Path 1646" d="M593.689,521.3a.548.548,0,0,1-.13-.044c-1.637-.818-4.314-1.807-5.615-3.285-2.317.79-4.659,1.466-7.045,2.034-.624.15-.887-.814-.263-.964,2.382-.563,4.723-1.244,7.041-2.034a.551.551,0,0,1,.134-.122l.126-.065a.513.513,0,0,1,.685.174c.024.029.044.061.069.089a.414.414,0,0,1,.069.308,8.531,8.531,0,0,0,2.431,1.657l-.113.126Z" transform="translate(-575.929 -411.936)" fill="#303030"/>
        <path id="Path_1647" data-name="Path 1647" d="M597.6,512.967l-.668.729a12.616,12.616,0,0,1-2.54-3.97,36.167,36.167,0,0,1-4.731-.154c-.636-.065-.644-1.061,0-1a35.938,35.938,0,0,0,5.116.146.5.5,0,0,1,.486.369A10.146,10.146,0,0,0,597.6,512.967Z" transform="translate(-581.227 -407.071)" fill="#303030"/>
        <path id="Path_1648" data-name="Path 1648" d="M621.8,594.428c-.032,0-.061,0-.093.008a.509.509,0,0,0-.5.5v.073a.444.444,0,0,0,.134.336,2.178,2.178,0,0,0-.924,1.223q-.462.838-.928,1.677-1.161,2.1-2.317,4.189-2.315,4.187-4.63,8.377c-.312.563.551,1.065.863.5q2.546-4.606,5.1-9.212,1.161-2.1,2.317-4.189c.5-.907,1.369-1.932,1.479-2.982A.5.5,0,0,0,621.8,594.428Z" transform="translate(-595.082 -458.146)" fill="#303030"/>
        <path id="Path_1649" data-name="Path 1649" d="M755.659,619.093q-6.016-6.745-11.748-13.733c-.405-.494.3-1.207.709-.709q5.372,6.544,10.982,12.878Z" transform="translate(-673.203 -464.128)" fill="#303030"/>
        <path id="Path_1650" data-name="Path 1650" d="M758.933,633.932q-4.715-5.037-9.71-9.823c-.47-.446.239-1.146.7-.7q4.582,4.405,8.953,9.009Z" transform="translate(-676.343 -475.301)" fill="#303030"/>
        <path id="Path_1651" data-name="Path 1651" d="M688.89,619.113q-6.1.249-12.21.494c0-.9,0-1.8.008-2.706l2.021-.308c1.487-.231,4.164-1.142,5.8-.685a.53.53,0,0,0,.3.28c.041.016.081.028.122.045a.491.491,0,0,0,.563-.231c.024-.044.057-.093.081-.138a.5.5,0,0,0-.178-.685c-1.2-.567-2.755-.166-4.014,0-1.568.211-3.123.466-4.683.709,0-2.386.016-4.776.02-7.162a.5.5,0,0,0-1,0q-.006,3.664-.024,7.324c-.057,0-.109.016-.166.024-1.6.243-3.208.494-4.817.737q-.158-3.233-.308-6.469c-.028-.64-1.029-.644-1,0,.105,2.208.211,4.419.316,6.623q-3.9.6-7.8,1.2c-.636.093-.365,1.057.263.964l7.583-1.167.089,1.953a26.671,26.671,0,0,0-5.7,1.009c-.608.19-.348,1.155.271.964a25.734,25.734,0,0,1,5.481-.984l.385,8.13-.126.089a.534.534,0,0,0,.174.944c.138,2.9.275,5.817.413,8.722a.478.478,0,0,0,.271.425l.02-6.891.478,1.629c-.069-1.479-.142-2.961-.211-4.44q1.926-1.4,3.8-2.876c1.349-1.069,1.56-1.649,1.564-3.391,0-.883,0-1.762.008-2.645q6.1-.249,12.209-.494C689.534,620.085,689.534,619.089,688.89,619.113Zm-18.136-1.3c.709-.109,1.418-.219,2.123-.324.94-.146,1.876-.288,2.815-.434,0,.774,0,1.548-.008,2.321,0,.081,0,.174,0,.271-.061,0-.122,0-.178.008-1.547.061-3.1.1-4.655.194C670.819,619.174,670.791,618.493,670.754,617.813Zm4.355,7.551a47.625,47.625,0,0,1-3.852,2.985q-.17-3.761-.352-7.518c1.612-.1,3.229-.134,4.837-.19C675.826,622.3,675.931,624.634,675.109,625.364Z" transform="translate(-624.286 -466.368)" fill="#303030"/>
        <path id="Path_1652" data-name="Path 1652" d="M751.857,776.936a1.513,1.513,0,0,0-.863.454c.045-.138.085-.283.13-.425a.5.5,0,0,0-.081-.6c-1.033-1-2.281-1.722-2.41-2.945q4.515-.158,9.017.069l-.065-1q-4.411-.218-8.827-.069s0-.008,0-.016a7.313,7.313,0,0,0,.328-2.256q4.181,0,8.345.008l-.065-1c-2.767-.008-5.529-.016-8.3-.008-.028-.689-.089-1.373-.122-2.021l-.75-14.527c-.231-4.492-.421-8.989-.745-13.478-.348-4.808-1.689-9.771-.818-14.575a18.069,18.069,0,0,1,1.037-3.087l2.536-2.305c.478-.433-.231-1.138-.7-.7l-1.317,1.2c.008-.061.024-.122.028-.178a14.842,14.842,0,0,0,.073-2.844c.774-.818,1.556-1.629,2.366-2.414.458-.45-.243-1.159-.709-.705q-.893.875-1.758,1.778c-.057-.587-.121-1.179-.178-1.77q-.717-7.419-1.487-14.834-1.537-14.833-3.245-29.649c-.069-.636-1.073-.64-1,0q1.537,13.331,2.937,26.683.674,6.423,1.313,12.854c.251,2.52.713,5.116.766,7.677a84.14,84.14,0,0,0-9.678,12.521c-.255.4.276,1,.685.685,2.7-2.086,5.282-4.314,7.818-6.583a22.9,22.9,0,0,0-.369,9.686c.563,4.411.879,8.831,1.11,13.275q.346,6.781.693,13.563l.348,6.777c.049.993.134,2,.15,2.994-1.325,0-2.649,0-3.974,0a.5.5,0,0,0,0,1c1.317,0,2.637,0,3.954,0a9.043,9.043,0,0,1-.393,2.313c-.271.008-.539.02-.814.037-.64.028-.644,1.029,0,1,.134-.008.271-.016.405-.02,0,.016-.016.036-.02.049a.506.506,0,0,0,.073.6l2.443,2.35c.393.385.049,1.337-.089,1.953-.794.535-1.616,1.025-2.451,1.5-.446.255,4.853-1.981,5.453-1.957,1.426.061,2.73.567,4.108.737l-.847-1.094A34.025,34.025,0,0,0,751.857,776.936Zm-11.638-50.292a83.249,83.249,0,0,1,7.065-8.916,14.518,14.518,0,0,1-.523,3.221C744.614,722.885,742.451,724.8,740.219,726.644Z" transform="translate(-669.493 -502.241)" fill="#303030"/>
        <path id="Path_1653" data-name="Path 1653" d="M646.231,770.943a65.958,65.958,0,0,0-9.763-3.16c-.32-.085-.644-.178-.972-.275a13.31,13.31,0,0,0,1.252,1.734.5.5,0,0,1-.1.782c-.13.065-.243.13-.348.194.235.113.47.231.7.344,1.576.758,4.44,2.84,6.194,2.625a.5.5,0,0,1,.486.628l-.036.093a.506.506,0,0,1-.616.348.432.432,0,0,0-.065-.024.3.3,0,0,1-.061-.036c-1.993.028-4.679-1.94-6.409-2.775-.336-.166-.668-.336-1.009-.494-.263.478-.105,1.061.1,2.127.122.628-.843.9-.964.263l-.514-2.678a.6.6,0,0,1,.045-.369c-1.094-.539-2.187-1.078-3.273-1.628l.818-.7c1.146.575,2.3,1.146,3.464,1.714.15-.081.3-.154.454-.235a15.25,15.25,0,0,1-1.5-2.341c-1.211-.381-2.463-.778-3.711-1.09l-.75-.972-.036-.223c1.317.271,2.637.664,3.929,1.069-2.232-5.392-1.6-11.8-2.192-17.553-.555-5.351-1.612-10.618-2.4-15.936-.689-4.671-.774-9.289-1.118-13.984a14.517,14.517,0,0,0-.494-2.767c-.782-.251-1.543-.49-2.236-.733-1.272-.446-2.544-.879-3.828-1.288v0l-.186-1.11q2.99.96,5.935,2.042c-.373-1.183-.8-2.346-1.142-3.654-.061-.235-.113-.474-.166-.713-.725-.34-1.446-.681-2.171-1.017-1.082-.51-2.167-1.013-3.245-1.523l-.194-1.183c.134.061.263.121.393.178q2.218,1.039,4.432,2.082l.567.263c-.235-1.547-.324-3.119-.478-4.683-.531-5.416-1.159-10.816-1.932-16.2q-2.194-15.331-5.627-30.443c-.142-.624.818-.9.964-.263,2.212,9.751,4.067,19.582,5.493,29.483.689,4.837,1.308,9.678,1.811,14.539.271,2.613.215,5.505.822,8.065l8.13,3.816c.514.243.15,1.094-.385.915-.211-.069-.425-.146-.64-.215a.515.515,0,0,1-.251-.194q-3.245-1.525-6.49-3.046a42.439,42.439,0,0,1,1.479,4.3c2.443.883,5.3,1.661,7.32,3.269.5.4-.207,1.1-.7.7a21.173,21.173,0,0,0-6.449-2.99c.62,4.428.385,8.937.968,13.384.66,5.011,1.633,9.973,2.341,14.976.6,4.282.668,8.551.964,12.854a24.727,24.727,0,0,0,1.961,9.017c.648.2,1.288.389,1.912.559a68.082,68.082,0,0,1,10.006,3.261C647.325,770.34,646.814,771.2,646.231,770.943Z" transform="translate(-598.045 -495.378)" fill="#303030"/>
        <path id="Path_1654" data-name="Path 1654" d="M587.61,611.215l2.961.45L600.135,603Z" transform="translate(-580.29 -463.246)" fill="#303030"/>
        <path id="Path_1655" data-name="Path 1655" d="M763.07,597.94l9.637,9.8-2.431,1Z" transform="translate(-684.672 -460.236)" fill="#303030"/>
        <rect id="Rectangle_96" data-name="Rectangle 96" width="19.096" height="0.997" transform="translate(28.895 287.994)" fill="#e1e1e1"/>
        <rect id="Rectangle_97" data-name="Rectangle 97" width="19.096" height="0.997" transform="translate(76.96 287.496)" fill="#e1e1e1"/>
        <path id="Path_1656" data-name="Path 1656" d="M783.6,950.017a11.263,11.263,0,0,0-5.586,1.547c-.543.344-1.049-.519-.5-.859a11.248,11.248,0,0,1,5.015-1.6C782.886,949.393,783.247,949.7,783.6,950.017Z" transform="translate(-693.125 -669.149)" fill="#e1e1e1"/>
        <path id="Path_1657" data-name="Path 1657" d="M788.712,953.565a22.76,22.76,0,0,0-4.829,1.3c-.6.235-.859-.733-.271-.964a23.287,23.287,0,0,1,4.177-1.187C788.1,952.99,788.413,953.281,788.712,953.565Z" transform="translate(-696.695 -671.291)" fill="#e1e1e1"/>
        <path id="Path_1658" data-name="Path 1658" d="M657,952.468a8.241,8.241,0,0,0-4.509-.729c.389-.36.782-.713,1.175-1.049a9.387,9.387,0,0,1,3.832.919C658.084,951.881,657.578,952.744,657,952.468Z" transform="translate(-618.887 -670.089)" fill="#e1e1e1"/>
        <path id="Path_1659" data-name="Path 1659" d="M661.19,947.642a6.46,6.46,0,0,0-2.54-.8,14.166,14.166,0,0,1,1.163-.814h0a7.828,7.828,0,0,1,1.876.749A.5.5,0,0,1,661.19,947.642Z" transform="translate(-622.552 -667.317)" fill="#e1e1e1"/>
        <path id="Path_1660" data-name="Path 1660" d="M768.092,455.2l1.009,18.335-3.751-10.245,1.876-8.839Z" transform="translate(-686.029 -374.873)" fill="#303030"/>
        <path id="Path_1661" data-name="Path 1661" d="M616.064,457.82l-1.337-14.32-1.547,24.792Z" transform="translate(-595.502 -368.359)" fill="#303030"/>
        <path id="Path_1662" data-name="Path 1662" d="M674.7,655.215l17.763-3.285-12.088,11.529-1.515-5.145-.024,8.381Z" transform="translate(-632.1 -492.355)" fill="#303030"/>
        <path id="Path_1663" data-name="Path 1663" d="M745.35,930.606l7.677-4.8h4.432l-7.8,6.668-.312-1.872Z" transform="translate(-674.13 -655.288)" fill="#303030"/>
      </g>
    </g>
  </g>
</svg>
