<svg xmlns="http://www.w3.org/2000/svg" xmlns:xlink="http://www.w3.org/1999/xlink" width="458" height="458" viewBox="0 0 458 458">
  <defs>
    <linearGradient id="linear-gradient" x1="0.865" y1="0.178" x2="0.152" y2="0.822" gradientUnits="objectBoundingBox">
      <stop offset="0" stop-color="#fdb819"/>
      <stop offset="1" stop-color="#fff"/>
    </linearGradient>
  </defs>
  <g id="Group_2040" data-name="Group 2040" transform="translate(-393 -1035)">
    <circle id="Ellipse_8" data-name="Ellipse 8" cx="229" cy="229" r="229" transform="translate(393 1493) rotate(-90)" fill="url(#linear-gradient)"/>
    <g id="Fast_Delivery_both_domestically_and_internationally" data-name="Fast Delivery both domestically and internationally" transform="translate(421.89 1063.89)">
      <g id="Group_1149" data-name="Group 1149" transform="translate(37.11 38.11)">
        <g id="Group_1038" data-name="Group 1038" transform="translate(104.678)">
          <path id="Path_1956" data-name="Path 1956" d="M443.146,938.72l-1.716.685.261-1.83,1.72-.685Z" transform="translate(-400.251 -637.833)" fill="#4c4c4c"/>
          <g id="Group_1029" data-name="Group 1029" transform="translate(13.67 193.063)">
            <g id="Group_1022" data-name="Group 1022" transform="translate(0 0)">
              <g id="Group_1021" data-name="Group 1021">
                <g id="Group_985" data-name="Group 985" transform="translate(8.739)">
                  <g id="Group_984" data-name="Group 984">
                    <path id="Path_1957" data-name="Path 1957" d="M486.544,674.023l-7.527-5.925-24.18-19.028-26.578,10.606-4.39,1.757-.446.192-4.04,1.613L390.46,674.782l22.1,17.4,2.213,1.749.39.313,3.58,2.817,3.565,2.817,23.812,18.748,28.75-11.5,4.217-1.69.449-.188,4.242-1.694L510.451,692.9l.033-.03Z" transform="translate(-390.46 -649.07)" fill="#e4e4e4"/>
                  </g>
                </g>
                <g id="Group_986" data-name="Group 986" transform="translate(0 25.723)">
                  <path id="Path_1958" data-name="Path 1958" d="M431.15,762.74l-8.721,60.428-23.819-18.616-.1-.081-4.206-3.281-1.414-1.1-1.838-1.432-2.224-1.738-22.1-17.286,8.761-60.712L399.8,738.059l1.841,1.451,1.41,1.116,4.3,3.377Z" transform="translate(-366.73 -718.92)" fill="#979797"/>
                </g>
                <g id="Group_988" data-name="Group 988" transform="translate(55.7 43.827)">
                  <g id="Group_987" data-name="Group 987">
                    <path id="Path_1959" data-name="Path 1959" d="M564.319,778.738l-2.305.928-1.672.67-.335.14-.435.173L555.41,782.3,526.7,793.792l-8.717,60.432,28.7-11.387,4.927-1.948,1.672-.674,2.3-.91,26.71-10.588,8.75-60.638Z" transform="translate(-517.98 -768.08)" fill="#b9b9b9"/>
                  </g>
                </g>
                <g id="Group_1005" data-name="Group 1005" transform="translate(59.03 105.578)">
                  <g id="Group_999" data-name="Group 999" transform="translate(2.467 3.052)">
                    <g id="Group_993" data-name="Group 993" transform="translate(0 1.757)">
                      <g id="Group_990" data-name="Group 990" transform="translate(0.781 0.42)">
                        <g id="Group_989" data-name="Group 989">
                          <path id="Path_1960" data-name="Path 1960" d="M536.282,957.031l-.442.184,1.02-7.078.442-.177Z" transform="translate(-535.84 -949.96)" fill="#4c4c4c"/>
                        </g>
                      </g>
                      <g id="Group_992" data-name="Group 992">
                        <g id="Group_991" data-name="Group 991">
                          <path id="Path_1961" data-name="Path 1961" d="M537.31,950.168l-.361.446-1.234-1.108L534,951.8l-.276-.2,2.1-2.784Z" transform="translate(-533.72 -948.82)" fill="#4c4c4c"/>
                        </g>
                      </g>
                    </g>
                    <g id="Group_998" data-name="Group 998" transform="translate(4.397)">
                      <g id="Group_995" data-name="Group 995" transform="translate(0.788 0.42)">
                        <g id="Group_994" data-name="Group 994">
                          <path id="Path_1962" data-name="Path 1962" d="M548.242,952.257l-.442.18,1.02-7.074.442-.173Z" transform="translate(-547.8 -945.19)" fill="#4c4c4c"/>
                        </g>
                      </g>
                      <g id="Group_997" data-name="Group 997">
                        <g id="Group_996" data-name="Group 996">
                          <path id="Path_1963" data-name="Path 1963" d="M549.265,945.391l-.372.453-1.223-1.108-1.727,2.287-.284-.188,2.11-2.784Z" transform="translate(-545.66 -944.05)" fill="#4c4c4c"/>
                        </g>
                      </g>
                    </g>
                  </g>
                  <g id="Group_1001" data-name="Group 1001" transform="translate(1.341 9.619)">
                    <g id="Group_1000" data-name="Group 1000">
                      <path id="Path_1964" data-name="Path 1964" d="M539.073,962.364l-8.223,3.292c-.122.048-.2-.018-.184-.151a.463.463,0,0,1,.247-.324l8.227-3.281c.118-.052.2.015.18.147A.452.452,0,0,1,539.073,962.364Z" transform="translate(-530.663 -961.883)" fill="#4c4c4c"/>
                    </g>
                  </g>
                  <g id="Group_1004" data-name="Group 1004">
                    <g id="Group_1003" data-name="Group 1003">
                      <g id="Group_1002" data-name="Group 1002">
                        <path id="Path_1965" data-name="Path 1965" d="M536.43,947.77l-8.08,3.23c-.854.342-1.44-.118-1.311-1.028l1.241-8.606a3.173,3.173,0,0,1,1.786-2.261l8.08-3.233c.847-.335,1.429.122,1.3,1.027l-1.241,8.614A3.164,3.164,0,0,1,536.43,947.77ZM530,939.576a2.285,2.285,0,0,0-1.274,1.617l-1.241,8.606c-.1.652.328.98.935.737l8.08-3.237a2.228,2.228,0,0,0,1.259-1.613l1.252-8.607c.1-.652-.328-.983-.928-.736Z" transform="translate(-527.022 -935.762)" fill="#4c4c4c"/>
                      </g>
                    </g>
                  </g>
                </g>
                <g id="Group_1015" data-name="Group 1015" transform="translate(73.019 99.653)">
                  <g id="Group_1008" data-name="Group 1008">
                    <g id="Group_1007" data-name="Group 1007">
                      <g id="Group_1006" data-name="Group 1006">
                        <path id="Path_1966" data-name="Path 1966" d="M574.681,932.015l-8.312,3.326c-.877.35-1.473-.125-1.34-1.053l1.278-8.857a3.276,3.276,0,0,1,1.827-2.327l8.312-3.318c.873-.346,1.466.125,1.333,1.049L576.5,929.7A3.261,3.261,0,0,1,574.681,932.015Zm-6.614-8.426a2.3,2.3,0,0,0-1.3,1.657l-1.278,8.86c-.1.659.324,1,.958.755l8.312-3.326a2.371,2.371,0,0,0,1.307-1.661l1.278-8.86c.1-.663-.339-1.009-.957-.755Z" transform="translate(-565.01 -919.671)" fill="#4c4c4c"/>
                      </g>
                    </g>
                  </g>
                  <g id="Group_1014" data-name="Group 1014" transform="translate(4.304 3.31)">
                    <g id="Group_1010" data-name="Group 1010" transform="translate(1.354 1.441)">
                      <g id="Group_1009" data-name="Group 1009">
                        <path id="Path_1967" data-name="Path 1967" d="M580.578,939.418c-.129.044-.221-.022-.2-.158l.913-6.338a.475.475,0,0,1,.272-.332c.122-.052.206.018.188.147l-.913,6.349A.49.49,0,0,1,580.578,939.418Z" transform="translate(-580.374 -932.573)" fill="#4c4c4c"/>
                      </g>
                    </g>
                    <g id="Group_1012" data-name="Group 1012" transform="translate(0.324 7.37)">
                      <g id="Group_1011" data-name="Group 1011">
                        <path id="Path_1968" data-name="Path 1968" d="M579.831,949.169l-2.055.825c-.122.055-.214-.015-.2-.147a.471.471,0,0,1,.269-.331l2.055-.825c.129-.052.214.018.2.151A.457.457,0,0,1,579.831,949.169Z" transform="translate(-577.576 -948.674)" fill="#4c4c4c"/>
                      </g>
                    </g>
                    <g id="Group_1013" data-name="Group 1013">
                      <path id="Path_1969" data-name="Path 1969" d="M581.511,928.66l-.427,2.964a2.768,2.768,0,0,1-1.565,1.989l-1.661.659c-.751.309-1.259-.1-1.145-.9l.427-2.965.821-.328-.457,3.174c-.022.129.066.2.188.147a.486.486,0,0,0,.269-.335l.457-3.174Z" transform="translate(-576.697 -928.66)" fill="#4c4c4c"/>
                    </g>
                  </g>
                </g>
                <g id="Group_1017" data-name="Group 1017" transform="translate(10.352 0.917)">
                  <g id="Group_1016" data-name="Group 1016">
                    <path id="Path_1970" data-name="Path 1970" d="M457.463,651.56,394.84,676.606l54.223,42.406,62.586-24.8Z" transform="translate(-394.84 -651.56)" fill="#d6d6d6"/>
                  </g>
                </g>
                <g id="Group_1018" data-name="Group 1018" transform="translate(64.251 44.435)">
                  <path id="Path_1971" data-name="Path 1971" d="M605.609,769.73l-.07.468L541.2,795.921l.066-.475Z" transform="translate(-541.2 -769.73)" fill="#979797"/>
                </g>
                <g id="Group_1019" data-name="Group 1019" transform="translate(41.706 12.37)">
                  <path id="Path_1972" data-name="Path 1972" d="M536.085,726.48l-.438.184-55.667-43.82.438-.184Z" transform="translate(-479.98 -682.66)" fill="#979797"/>
                </g>
                <g id="Group_1020" data-name="Group 1020" transform="translate(97.177 56.234)">
                  <path id="Path_1973" data-name="Path 1973" d="M631.155,801.77l-.144.976-.4-.059.107-.748Z" transform="translate(-630.61 -801.77)" fill="#979797"/>
                </g>
              </g>
              <path id="Path_1974" data-name="Path 1974" d="M613.577,796.91l-8.743,60.609-8.9,3.535,8.739-60.583Z" transform="translate(-511.524 -742.466)" fill="#8b8b8b"/>
              <path id="Path_1975" data-name="Path 1975" d="M533.408,721.756l-4.246,1.69-.446.192-4.217,1.69-55.49-43.9,4.04-1.613.446-.191,4.39-1.757Z" transform="translate(-431.344 -667.264)" fill="#bdbdbd"/>
              <path id="Path_1976" data-name="Path 1976" d="M449.069,776.724l-8.746,60.59-.1-.081-7.457-5.815,8.746-60.638Z" transform="translate(-408.45 -725.959)" fill="#8b8b8b"/>
              <path id="Path_1977" data-name="Path 1977" d="M528.251,706.672l-64.236,25.863-3.557-2.828-.383-.309-3.2-2.5-.4-.313,53.98-21.705,4.066-1.635,6.2-2.49,2.928,2.3,1.911,1.517Z" transform="translate(-423.428 -681.718)" fill="#bdbdbd"/>
            </g>
            <g id="Group_1028" data-name="Group 1028" transform="translate(103.556 52.176)">
              <g id="Group_1023" data-name="Group 1023">
                <path id="Path_1978" data-name="Path 1978" d="M666.52,805.5l-18.59,7.432,2.129-14.753,18.59-7.428Z" transform="translate(-647.93 -790.75)" fill="#e4e4e4"/>
              </g>
              <path id="Path_1979" data-name="Path 1979" d="M672.195,799.286l-15.055,6.021.239-1.654,15.051-6.014Z" transform="translate(-653.748 -795.103)" fill="#4c4c4c"/>
              <g id="Group_1024" data-name="Group 1024" transform="translate(2.965 6.43)">
                <path id="Path_1980" data-name="Path 1980" d="M671.031,808.932l-15.051,6.017.107-.729,15.051-6.01Z" transform="translate(-655.98 -808.21)" fill="#b7b7b7"/>
              </g>
              <g id="Group_1025" data-name="Group 1025" transform="translate(2.685 8.363)">
                <path id="Path_1981" data-name="Path 1981" d="M670.275,814.189,655.22,820.21l.107-.729,15.051-6.021Z" transform="translate(-655.22 -813.46)" fill="#b7b7b7"/>
              </g>
              <g id="Group_1026" data-name="Group 1026" transform="translate(2.386 10.448)">
                <path id="Path_1982" data-name="Path 1982" d="M669.461,819.849l-15.051,6.018.1-.729,15.055-6.017Z" transform="translate(-654.41 -819.12)" fill="#b7b7b7"/>
              </g>
              <g id="Group_1027" data-name="Group 1027" transform="translate(2.106 12.388)">
                <path id="Path_1983" data-name="Path 1983" d="M668.7,825.119l-15.051,6.017.1-.729L668.8,824.39Z" transform="translate(-653.65 -824.39)" fill="#b7b7b7"/>
              </g>
            </g>
          </g>
          <g id="Group_1030" data-name="Group 1030" transform="translate(84.104 214.393)">
            <path id="Path_1984" data-name="Path 1984" d="M589.69,708.507l-15.1.309-16.568.35-.029-1.55,20.663-.435,9.126-.191Z" transform="translate(-557.99 -706.99)" fill="#4c4c4c"/>
          </g>
          <path id="Path_1985" data-name="Path 1985" d="M551.944,704.21l1.922,4.81-3.591,1.433-1.926-4.806Z" transform="translate(-467.796 -490.841)" fill="#a2a2a2"/>
          <path id="Path_1986" data-name="Path 1986" d="M555.142,697.378a3.771,3.771,0,0,0-.225.862,6.58,6.58,0,0,0,.029,1.8l.007.018a1,1,0,0,1,.574.254,3.252,3.252,0,0,1,1.1,2.7,1.171,1.171,0,0,1-.247.6,5.926,5.926,0,0,0,1.215,1.326,3.789,3.789,0,0,0,.759.468,2.143,2.143,0,0,0,1.738.147,2,2,0,0,0,.884-.74,3.469,3.469,0,0,0,.5-1.429,8,8,0,0,0-2.685-6.717,3.358,3.358,0,0,0-1.344-.67,1.938,1.938,0,0,0-1.145.07A2.177,2.177,0,0,0,555.142,697.378Z" transform="translate(-471.914 -485.618)" fill="#a2a2a2"/>
          <path id="Path_1987" data-name="Path 1987" d="M550.9,697.241l2.894-1.156a1.909,1.909,0,0,1,1.145-.07l3.524,8.816a1.985,1.985,0,0,1-.884.74l-2.895,1.153-1.134-2.836a.591.591,0,0,0,.317-.262,1.2,1.2,0,0,0,.247-.6,3.247,3.247,0,0,0-1.1-2.7.992.992,0,0,0-.574-.254l-.007-.018a.831.831,0,0,0-.409.029Z" transform="translate(-469.407 -485.628)" fill="#a2a2a2"/>
          <path id="Path_1988" data-name="Path 1988" d="M550.913,699.829a2.763,2.763,0,0,0-.755-.453,2.055,2.055,0,0,0-1.727-.14,2.526,2.526,0,0,0-1.385,2.162,7.314,7.314,0,0,0,.482,3.535,9.572,9.572,0,0,0,.692,1.422,6.7,6.7,0,0,0,1.5,1.742,2.544,2.544,0,0,0,2.493.611,2.147,2.147,0,0,0,1.164-1.311,3.135,3.135,0,0,0,.217-.851A8,8,0,0,0,550.913,699.829Zm.733,5.178a1.232,1.232,0,0,1-.247.611.616.616,0,0,1-.32.25,1.047,1.047,0,0,1-1-.254,1.591,1.591,0,0,1-.317-.313,3.338,3.338,0,0,1-.692-1.421,2.581,2.581,0,0,1-.066-.954,1.074,1.074,0,0,1,.564-.862.632.632,0,0,1,.4-.018l.011.015a.935.935,0,0,1,.578.254,2.311,2.311,0,0,1,.317.313l.191-.125.888,1.274-.368.261A2.57,2.57,0,0,1,551.646,705.007Z" transform="translate(-466.938 -487.616)" fill="#d6d6d6"/>
          <g id="Group_1031" data-name="Group 1031" transform="translate(39.765 239.376)">
            <path id="Path_1989" data-name="Path 1989" d="M447.813,775.946,439,837.026l-1.414-1.134L446.4,774.83Z" transform="translate(-437.59 -774.83)" fill="#4c4c4c"/>
          </g>
          <g id="Group_1032" data-name="Group 1032" transform="translate(48.582 214.887)">
            <path id="Path_1990" data-name="Path 1990" d="M558.609,709.6l-.368.261a3.369,3.369,0,0,0-.711-1.41l.191-.125Z" transform="translate(-522.177 -708.33)" fill="#d6d6d6"/>
            <path id="Path_1991" data-name="Path 1991" d="M497.594,710.087l-1.819,1.267-1.539,1.053-31.3,21.753-1.41-1.131,32.013-22.041,1.539-1.057,1.8-1.252A3.373,3.373,0,0,1,497.594,710.087Z" transform="translate(-461.53 -708.551)" fill="#4c4c4c"/>
          </g>
          <g id="Group_1033" data-name="Group 1033" transform="translate(84.292 118.63)">
            <path id="Path_1992" data-name="Path 1992" d="M558.7,711.25a2.025,2.025,0,0,1,.169.589l-.015-.015-.35-.416Z" transform="translate(-558.5 -613.918)" fill="#4c4c4c"/>
            <path id="Path_1993" data-name="Path 1993" d="M677.845,446.95,569.38,541c.192.309.379.633.541.958l107.691-93.384Z" transform="translate(-565.373 -446.95)" fill="#4c4c4c"/>
          </g>
          <g id="Group_1034" data-name="Group 1034" transform="translate(6.15 89.813)">
            <path id="Path_1994" data-name="Path 1994" d="M424.021,495.674l-77.711-126.4.928-.578,77.567,126.609Z" transform="translate(-346.31 -368.7)" fill="#4c4c4c"/>
          </g>
          <g id="Group_1035" data-name="Group 1035" transform="translate(61.18 131.081)">
            <path id="Path_1995" data-name="Path 1995" d="M518.281,566.23,495.74,481.036l1.057-.276L519.206,566.1Z" transform="translate(-495.74 -480.76)" fill="#4c4c4c"/>
          </g>
          <g id="Group_1036" data-name="Group 1036" transform="translate(84.182 139.562)">
            <path id="Path_1996" data-name="Path 1996" d="M558.506,711.054a2.027,2.027,0,0,1,.169.589l-.015-.015-.46-.306.261-.383A.2.2,0,0,1,558.506,711.054Z" transform="translate(-558.2 -634.654)" fill="#4c4c4c"/>
            <path id="Path_1997" data-name="Path 1997" d="M615.527,504.39,567.52,576.581a6.372,6.372,0,0,0-.74-.88l47.841-71.911Z" transform="translate(-563.62 -503.79)" fill="#4c4c4c"/>
          </g>
          <g id="Group_1037" data-name="Group 1037">
            <path id="Path_1998" data-name="Path 1998" d="M524.207,166.575c-35.747-32.949-100.076-42.229-143.678-20.73s-49.97,65.632-14.222,98.577,100.072,42.229,143.678,20.73S559.951,199.523,524.207,166.575Z" transform="translate(-338.171 -130.782)" fill="#515151"/>
            <path id="Path_1999" data-name="Path 1999" d="M554.261,205.761c-.56-16-8.511-32.558-24.228-47.053a114.947,114.947,0,0,0-23.746-16.671,144.047,144.047,0,0,0-33.147-12.606q-7.623-1.884-15.43-3.009c-.586-.085-1.164-.169-1.753-.228-4.375-.593-8.787-.994-13.191-1.2-4.128-.191-8.271-.228-12.374-.077-.092,0-.2.011-.287.011q-6.761.238-13.394,1.094c-.007-.015-.007-.015-.026,0a119.462,119.462,0,0,0-37.364,10.945,91.873,91.873,0,0,0-11.173,6.5c24.394-9.571,53.608-10.934,80.9-5.078.523-.107,1.061-.2,1.62-.261a2.778,2.778,0,0,1,.3-.022,13.142,13.142,0,0,1,1.709-.1c.508-.007,1.027-.007,1.558.026.284.015.582.029.862.059.615.077,1.226.166,1.841.28.368.066.718.144,1.086.225.339.088.678.177,1.005.276a.1.1,0,0,1,.085.026c.291.081.578.162.862.269a.608.608,0,0,1,.214.07c.261.092.519.192.762.295a1.279,1.279,0,0,1,.225.085,15.335,15.335,0,0,1,3.5,2.029,9.769,9.769,0,0,1,1.554,1.5c2.022,2.442,1.893,5.134-.228,7.111a9.345,9.345,0,0,1-2.814,1.694,17.461,17.461,0,0,1-7.741.994,20.587,20.587,0,0,1-3.09-.46,19.089,19.089,0,0,1-4.728-1.672,13.766,13.766,0,0,1-2.283-1.436,12.6,12.6,0,0,1-1.145-1.027c-6.1-.166-19.326-.232-30.592,2.235a116.649,116.649,0,0,0-28.165,9.873c-26.541,13.092-39.935,34.182-39.143,56.341a81.044,81.044,0,0,0,18.111,23.576c1.8,1.672,3.672,3.266,5.616,4.813a126.155,126.155,0,0,0,34.212,19.146c32.75,12.433,71.649,13.545,102.716,1.366,2.777-1.086,5.506-2.28,8.142-3.583C541.659,249.014,555.053,227.92,554.261,205.761Z" transform="translate(-340.134 -124.823)" fill="#ebebeb"/>
            <path id="Path_2000" data-name="Path 2000" d="M416.853,153.5a91.878,91.878,0,0,0-11.173,6.5c3.41-1.337,6.92-2.5,10.5-3.517A74.739,74.739,0,0,1,422.359,151C420.5,151.792,418.654,152.609,416.853,153.5Z" transform="translate(-377.666 -141.358)" fill="#ebebeb"/>
            <path id="Path_2001" data-name="Path 2001" d="M398.457,193.079c3.649,1.83,8.2,6.4,13.681,4.581,4.2-2,8.216-2.725,10.23-7.649,1.451,8.028,1.793,23.724,13.655,22.829,2.556.368,7.122-4.187,8.952-7.833,1.62,15.88,20.037,23.749,35.733,23.407,8.032-1.451,18.619-2.526,22.28-9.822,3.473-6.017,9.321-10.389,10.241-16.774-.368,2.556.357,6.57,3.093,5.66,2.556.368.737-5.108,2.383-7.479,11.667,9.5,33.917,17.931,42.7,2.25,3.661-7.3,6.411-17.327,1.134-25.911-2.184-2.92-2.909-6.938-5.1-9.862,2.368,1.646,4.2-2,4.382-3.278a13.81,13.81,0,0,0,1.4-1.016c-1.145-1.171-2.324-2.335-3.568-3.484a114.949,114.949,0,0,0-23.746-16.671,144.046,144.046,0,0,0-33.147-12.606q-7.623-1.884-15.43-3.009c-.586-.085-1.164-.169-1.753-.228-4.375-.593-8.787-.994-13.191-1.2-4.128-.191-8.271-.228-12.374-.077-.092,0-.2.011-.287.011q-6.761.238-13.394,1.094c-.007-.015-.007-.015-.026,0a122.7,122.7,0,0,0-31.858,8.448,73.432,73.432,0,0,0-6.179,5.476c22.03-6.275,46.924-6.6,70.4-1.565.523-.107,1.061-.2,1.62-.261a2.774,2.774,0,0,1,.3-.022,13.139,13.139,0,0,1,1.709-.1c.508-.007,1.027-.007,1.558.026.284.015.582.029.862.059.615.077,1.226.166,1.841.28.368.066.718.144,1.086.225.339.088.678.177,1.005.276a.1.1,0,0,1,.085.026c.291.081.578.162.862.269a.608.608,0,0,1,.214.07c.261.092.519.191.762.295a1.276,1.276,0,0,1,.225.085,15.336,15.336,0,0,1,3.5,2.029,9.772,9.772,0,0,1,1.554,1.5c2.022,2.442,1.893,5.134-.228,7.111a9.345,9.345,0,0,1-2.814,1.694,17.461,17.461,0,0,1-7.741.994,20.587,20.587,0,0,1-3.09-.46,19.087,19.087,0,0,1-4.728-1.672,13.764,13.764,0,0,1-2.283-1.436,12.609,12.609,0,0,1-1.145-1.027c-6.1-.166-19.326-.232-30.592,2.235a116.648,116.648,0,0,0-28.165,9.873,90.868,90.868,0,0,0-12.193,7.211l.545.077C395.021,171.727,387.884,185.036,398.457,193.079Z" transform="translate(-369.754 -124.817)" fill="#f4f4f4"/>
            <path id="Path_2002" data-name="Path 2002" d="M433.685,165.582A162.318,162.318,0,0,0,411.64,166.9a111.031,111.031,0,0,0-36.716,10.794c-26.541,13.092-39.934,34.182-39.143,56.341-13.07-26.445-5.2-54.893,21.842-73.325,24.394-9.571,53.608-10.934,80.9-5.078a14.781,14.781,0,0,0-2.206.674C431.482,158.235,430.47,162.2,433.685,165.582Z" transform="translate(-329.609 -142.071)" fill="#5c5c5c"/>
            <path id="Path_2003" data-name="Path 2003" d="M664.127,177.872a162.745,162.745,0,0,1,20.777,7.494,110.974,110.974,0,0,1,32.16,20.733c21.757,20.059,28.643,44.077,21.617,65.109,20.011-21.676,20.5-51.185-.225-76.507-20.689-16.075-48.327-25.642-76.157-27.741a14.69,14.69,0,0,1,1.93,1.271C668.314,171.453,668.163,175.537,664.127,177.872Z" transform="translate(-539.782 -151.44)" fill="#5c5c5c"/>
            <path id="Path_2004" data-name="Path 2004" d="M445,308.865a126.157,126.157,0,0,1-34.212-19.146c-.015-10.926,2.243-24.136,9.214-38.929,12.86-27.3,44.737-50.544,68.387-55.449a18.886,18.886,0,0,0,4.729,1.672C475.251,209.456,440.906,292.889,445,308.865Z" transform="translate(-380.894 -169.369)" fill="#5c5c5c"/>
            <path id="Path_2005" data-name="Path 2005" d="M657.155,321.509a126.365,126.365,0,0,0,38.229-8.695c3.1-10.473,4.67-23.786,2.165-39.942-4.614-29.818-28.625-61.132-49.922-72.522a19.1,19.1,0,0,1-5.008.269C656.246,217.6,665.6,307.345,657.155,321.509Z" transform="translate(-527.35 -172.534)" fill="#5c5c5c"/>
            <path id="Path_2006" data-name="Path 2006" d="M696.377,149.923C679.971,145,661,144.388,651.42,147.54c-.052-.022-.1-.041-.147-.059a1.4,1.4,0,0,0-.225-.085c-.243-.114-.5-.2-.762-.295a.585.585,0,0,0-.214-.07c-.173-.066-.361-.129-.549-.184a2.1,2.1,0,0,0-.317-.085.107.107,0,0,0-.085-.026,9.85,9.85,0,0,0-1.005-.276c-.313-.085-.63-.158-.946-.217.32-1.948,7.833-6.574,16.06-8.934A144.7,144.7,0,0,1,696.377,149.923Z" transform="translate(-530.224 -132.709)" fill="#5c5c5c"/>
            <path id="Path_2007" data-name="Path 2007" d="M575.082,138.013c-.53-.037-1.049-.033-1.558-.026a14.484,14.484,0,0,0-1.709.1c-6.887-4.515-20.836-11.457-34.256-12.075q6.623-.862,13.394-1.094c.088,0,.2-.011.287-.011,4.1-.151,8.245-.114,12.374.077C567.78,128.254,574.283,134.172,575.082,138.013Z" transform="translate(-460.979 -124.817)" fill="#5c5c5c"/>
            <path id="Path_2008" data-name="Path 2008" d="M470.312,156.3a15.229,15.229,0,0,1,2.206-.674c-27.288-5.855-56.5-4.489-80.9,5.078-1.841,1.256-3.579,2.559-5.244,3.9-4.393,7.281-4.592,15.183,4.327,20.722a11.049,11.049,0,0,0,3.329,1.547,89.169,89.169,0,0,1,14.889-9.192,110.919,110.919,0,0,1,36.716-10.794,162.883,162.883,0,0,1,22.044-1.315C464.468,162.2,465.481,158.237,470.312,156.3Z" transform="translate(-363.608 -142.072)" fill="#696969"/>
            <path id="Path_2009" data-name="Path 2009" d="M746.958,211.56a54.244,54.244,0,0,0-2.206-7.969,77.746,77.746,0,0,0-6.3-8.89c-20.689-16.075-48.327-25.642-76.157-27.741a14.691,14.691,0,0,1,1.93,1.27c4.088,3.222,3.937,7.31-.1,9.645a162.744,162.744,0,0,1,20.777,7.494,110.975,110.975,0,0,1,32.16,20.733,82.528,82.528,0,0,1,17.279,21.952C743.75,228.869,748.118,220.078,746.958,211.56Z" transform="translate(-539.776 -151.44)" fill="#696969"/>
            <path id="Path_2010" data-name="Path 2010" d="M516.715,197.012a19.084,19.084,0,0,1-4.729-1.672c-20.947,4.342-48.338,23.079-63.26,46.272-1.561,2.438.346,8.809,1.407,11.129a16.812,16.812,0,0,0,8.779,8.746c4.331,1.7,9.03.829,13.169-.994,2.965-1.307,10.716-5.019,12.039-8.168C494.472,227.674,507.689,203.295,516.715,197.012Z" transform="translate(-404.486 -169.369)" fill="#696969"/>
            <path id="Path_2011" data-name="Path 2011" d="M647.628,200.35a19.1,19.1,0,0,1-5.008.269c7.45,9.291,13.626,40.34,16.31,68.887,4.758,6.161,10.93,11.3,19.334,9.788,10.853-2.2,14.351-10.672,15.8-20.387C685.519,233.777,665.607,209.965,647.628,200.35Z" transform="translate(-527.35 -172.534)" fill="#696969"/>
            <path id="Path_2012" data-name="Path 2012" d="M663.23,137.33c-8.227,2.357-15.736,6.986-16.06,8.934.32.059.633.133.946.217a8.255,8.255,0,0,1,1.005.276.1.1,0,0,1,.085.026,2.649,2.649,0,0,1,.317.085c.188.055.372.118.549.184a.609.609,0,0,1,.214.07c.261.092.519.18.762.295a1.274,1.274,0,0,1,.225.085c.052.018.1.04.147.059,9.582-3.156,28.551-2.541,44.958,2.383A144.024,144.024,0,0,0,663.23,137.33Z" transform="translate(-530.224 -132.722)" fill="#696969"/>
            <path id="Path_2013" data-name="Path 2013" d="M575.082,138.013c-.53-.037-1.049-.033-1.558-.026a14.484,14.484,0,0,0-1.709.1c-6.887-4.515-20.836-11.457-34.256-12.075q6.623-.862,13.394-1.094c.088,0,.2-.011.287-.011,4.1-.151,8.245-.114,12.374.077C567.78,128.254,574.283,134.172,575.082,138.013Z" transform="translate(-460.979 -124.817)" fill="#696969"/>
          </g>
        </g>
        <g id="Group_1093" data-name="Group 1093" transform="translate(0 90.522)" opacity="0.7">
          <path id="Path_2014" data-name="Path 2014" d="M128.308,735.774l-.718.39.022-.818.718-.386Z" transform="translate(-97.308 -600.788)" fill="#4c4c4c"/>
          <g id="Group_1084" data-name="Group 1084" transform="translate(17.094 85.491)">
            <g id="Group_1077" data-name="Group 1077">
              <g id="Group_1076" data-name="Group 1076">
                <g id="Group_1040" data-name="Group 1040" transform="translate(0.703)">
                  <g id="Group_1039" data-name="Group 1039">
                    <path id="Path_2015" data-name="Path 2015" d="M135.749,612.072l-3.6-2.21-11.575-7.093-11.1,6.014-1.834.994-.184.107-1.687.917L93.69,617.346l10.577,6.489,1.061.652.188.118,1.712,1.05,1.709,1.053,11.4,6.986,12.005-6.515,1.76-.958.188-.107,1.771-.958,11.136-6.043.015-.011Z" transform="translate(-93.69 -602.77)" fill="#e4e4e4"/>
                  </g>
                </g>
                <g id="Group_1041" data-name="Group 1041" transform="translate(0 14.58)">
                  <path id="Path_2016" data-name="Path 2016" d="M119.135,658.7l-.711,26.924-11.39-6.934-.048-.026-2.011-1.223-.678-.412-.88-.53-1.061-.648L91.78,669.413l.714-27.053,11.633,7.137.884.538.674.42,2.059,1.256Z" transform="translate(-91.78 -642.36)" fill="#979797"/>
                </g>
                <g id="Group_1043" data-name="Group 1043" transform="translate(26.648 16.336)">
                  <g id="Group_1042" data-name="Group 1042">
                    <path id="Path_2017" data-name="Path 2017" d="M180.553,653.177l-.961.523-.7.379-.14.081-.18.1-1.738.939-11.987,6.514-.711,26.924,11.987-6.463,2.059-1.109.7-.383.961-.516L191,674.149l.714-27.02Z" transform="translate(-164.14 -647.13)" fill="#b9b9b9"/>
                  </g>
                </g>
                <g id="Group_1060" data-name="Group 1060" transform="translate(27.59 46.38)">
                  <g id="Group_1054" data-name="Group 1054" transform="translate(0.729 1.476)">
                    <g id="Group_1048" data-name="Group 1048" transform="translate(0 0.998)">
                      <g id="Group_1045" data-name="Group 1045" transform="translate(0.593 0.173)">
                        <g id="Group_1044" data-name="Group 1044">
                          <path id="Path_2018" data-name="Path 2018" d="M170.474,739.052l-.184.1.085-3.152.184-.1Z" transform="translate(-170.29 -735.9)" fill="#4c4c4c"/>
                        </g>
                      </g>
                      <g id="Group_1047" data-name="Group 1047">
                        <g id="Group_1046" data-name="Group 1046">
                          <path id="Path_2019" data-name="Path 2019" d="M170.179,735.942l-.133.217-.6-.427-.633,1.094-.133-.07.773-1.326Z" transform="translate(-168.68 -735.43)" fill="#4c4c4c"/>
                        </g>
                      </g>
                    </g>
                    <g id="Group_1053" data-name="Group 1053" transform="translate(1.834)">
                      <g id="Group_1050" data-name="Group 1050" transform="translate(0.6 0.173)">
                        <g id="Group_1049" data-name="Group 1049">
                          <path id="Path_2020" data-name="Path 2020" d="M175.474,736.342l-.184.1.081-3.152.184-.1Z" transform="translate(-175.29 -733.19)" fill="#4c4c4c"/>
                        </g>
                      </g>
                      <g id="Group_1052" data-name="Group 1052">
                        <g id="Group_1051" data-name="Group 1051">
                          <path id="Path_2021" data-name="Path 2021" d="M175.17,733.228l-.144.217-.593-.42-.637,1.09-.136-.066.784-1.33Z" transform="translate(-173.66 -732.72)" fill="#4c4c4c"/>
                        </g>
                      </g>
                    </g>
                  </g>
                  <g id="Group_1056" data-name="Group 1056" transform="translate(0.527 4.304)">
                    <g id="Group_1055" data-name="Group 1055">
                      <path id="Path_2022" data-name="Path 2022" d="M171.654,740.621l-3.436,1.863c-.052.026-.088,0-.088-.055a.2.2,0,0,1,.092-.155l3.436-1.86c.048-.033.088-.007.088.055A.213.213,0,0,1,171.654,740.621Z" transform="translate(-168.13 -740.401)" fill="#4c4c4c"/>
                    </g>
                  </g>
                  <g id="Group_1059" data-name="Group 1059">
                    <g id="Group_1058" data-name="Group 1058">
                      <g id="Group_1057" data-name="Group 1057">
                        <path id="Path_2023" data-name="Path 2023" d="M170.7,734.088l-3.373,1.834c-.357.2-.637.022-.626-.379l.1-3.837a1.407,1.407,0,0,1,.667-1.083l3.373-1.834c.354-.188.633-.018.622.387l-.1,3.837A1.409,1.409,0,0,1,170.7,734.088Zm-3.241-3.255a1,1,0,0,0-.475.773l-.1,3.834c-.007.291.2.416.446.276l3.373-1.83a.986.986,0,0,0,.468-.773l.107-3.834c.007-.291-.2-.412-.446-.276Z" transform="translate(-166.699 -728.712)" fill="#4c4c4c"/>
                      </g>
                    </g>
                  </g>
                </g>
                <g id="Group_1070" data-name="Group 1070" transform="translate(33.434 43.04)">
                  <g id="Group_1063" data-name="Group 1063">
                    <g id="Group_1062" data-name="Group 1062">
                      <g id="Group_1061" data-name="Group 1061">
                        <path id="Path_2024" data-name="Path 2024" d="M186.679,725.177l-3.469,1.882c-.365.2-.652.022-.641-.39l.1-3.948a1.438,1.438,0,0,1,.681-1.112l3.469-1.886c.365-.2.648-.022.637.394l-.1,3.944A1.441,1.441,0,0,1,186.679,725.177Zm-3.333-3.351a1.014,1.014,0,0,0-.486.792l-.1,3.948c-.007.294.2.423.457.28l3.469-1.882a1.04,1.04,0,0,0,.486-.8l.1-3.948c.007-.295-.2-.424-.457-.28Z" transform="translate(-182.569 -719.642)" fill="#4c4c4c"/>
                      </g>
                    </g>
                  </g>
                  <g id="Group_1069" data-name="Group 1069" transform="translate(1.547 1.605)">
                    <g id="Group_1065" data-name="Group 1065" transform="translate(0.759 0.747)">
                      <g id="Group_1064" data-name="Group 1064">
                        <path id="Path_2025" data-name="Path 2025" d="M188.925,729.082c-.055.026-.1,0-.1-.059l.074-2.825a.2.2,0,0,1,.1-.158c.052-.03.092,0,.092.055l-.077,2.828A.222.222,0,0,1,188.925,729.082Z" transform="translate(-188.829 -726.028)" fill="#4c4c4c"/>
                      </g>
                    </g>
                    <g id="Group_1067" data-name="Group 1067" transform="translate(0.328 3.341)">
                      <g id="Group_1066" data-name="Group 1066">
                        <path id="Path_2026" data-name="Path 2026" d="M188.614,733.3l-.858.468a.059.059,0,0,1-.1-.055.232.232,0,0,1,.1-.162l.858-.464c.052-.026.092,0,.092.055A.191.191,0,0,1,188.614,733.3Z" transform="translate(-187.66 -733.071)" fill="#4c4c4c"/>
                      </g>
                    </g>
                    <g id="Group_1068" data-name="Group 1068">
                      <path id="Path_2027" data-name="Path 2027" d="M188.626,724l-.033,1.318a1.218,1.218,0,0,1-.582.954l-.692.376c-.313.173-.556.022-.549-.335l.033-1.322.342-.188-.037,1.414c0,.055.041.085.092.055a.208.208,0,0,0,.1-.162l.037-1.414Z" transform="translate(-186.77 -724)" fill="#4c4c4c"/>
                    </g>
                  </g>
                </g>
                <g id="Group_1072" data-name="Group 1072" transform="translate(1.425 0.409)">
                  <g id="Group_1071" data-name="Group 1071">
                    <path id="Path_2028" data-name="Path 2028" d="M121.8,603.88l-26.147,14.2,25.937,15.787,26.143-14.079Z" transform="translate(-95.65 -603.88)" fill="#d6d6d6"/>
                  </g>
                </g>
                <g id="Group_1073" data-name="Group 1073" transform="translate(27.336 16.609)">
                  <path id="Path_2029" data-name="Path 2029" d="M192.882,647.87l-.007.21L166.01,662.656l.007-.21Z" transform="translate(-166.01 -647.87)" fill="#979797"/>
                </g>
                <g id="Group_1074" data-name="Group 1074" transform="translate(14.473 7.015)">
                  <path id="Path_2030" data-name="Path 2030" d="M157.9,638.149l-.18.1L131.08,621.919l.18-.1Z" transform="translate(-131.08 -621.82)" fill="#979797"/>
                </g>
                <g id="Group_1075" data-name="Group 1075" transform="translate(41.069 23.37)">
                  <path id="Path_2031" data-name="Path 2031" d="M203.492,666.23l-.011.435-.18,0,.011-.335Z" transform="translate(-203.3 -666.23)" fill="#979797"/>
                </g>
              </g>
              <path id="Path_2032" data-name="Path 2032" d="M201.124,663.5l-.714,27-3.719,2.007.711-26.994Z" transform="translate(-158.055 -641.135)" fill="#8b8b8b"/>
              <path id="Path_2033" data-name="Path 2033" d="M156.79,635.469l-1.775.958-.184.11-1.764.958L126.5,621.118l1.687-.917.184-.107,1.834-.994Z" transform="translate(-113.714 -613.086)" fill="#bdbdbd"/>
              <path id="Path_2034" data-name="Path 2034" d="M127.7,663.9l-.711,27-.048-.029-3.568-2.165.714-27.016Z" transform="translate(-111.737 -639.992)" fill="#8b8b8b"/>
              <path id="Path_2035" data-name="Path 2035" d="M155.719,624.24l-26.813,14.635-1.705-1.057-.18-.114-1.532-.935-.188-.114,22.53-12.289,1.7-.924,2.589-1.41,1.4.858.917.563Z" transform="translate(-112.956 -614.937)" fill="#bdbdbd"/>
            </g>
            <g id="Group_1083" data-name="Group 1083" transform="translate(44.751 20.225)">
              <g id="Group_1078" data-name="Group 1078">
                <path id="Path_2036" data-name="Path 2036" d="M221.059,664.263l-7.759,4.209.169-6.57,7.767-4.213Z" transform="translate(-213.3 -657.69)" fill="#e4e4e4"/>
              </g>
              <path id="Path_2037" data-name="Path 2037" d="M221.946,661.733l-6.286,3.414.018-.74L221.965,661Z" transform="translate(-214.791 -659.781)" fill="#4c4c4c"/>
              <g id="Group_1079" data-name="Group 1079" transform="translate(0.836 2.95)">
                <path id="Path_2038" data-name="Path 2038" d="M221.853,666.024l-6.283,3.41.007-.324,6.283-3.41Z" transform="translate(-215.57 -665.7)" fill="#b7b7b7"/>
              </g>
              <g id="Group_1080" data-name="Group 1080" transform="translate(0.81 3.815)">
                <path id="Path_2039" data-name="Path 2039" d="M221.786,668.374l-6.286,3.41.011-.324,6.283-3.41Z" transform="translate(-215.5 -668.05)" fill="#b7b7b7"/>
              </g>
              <g id="Group_1081" data-name="Group 1081" transform="translate(0.788 4.743)">
                <path id="Path_2040" data-name="Path 2040" d="M221.723,670.894l-6.283,3.41.007-.324,6.286-3.41Z" transform="translate(-215.44 -670.57)" fill="#b7b7b7"/>
              </g>
              <g id="Group_1082" data-name="Group 1082" transform="translate(0.762 5.609)">
                <path id="Path_2041" data-name="Path 2041" d="M221.656,673.244l-6.286,3.41.011-.324,6.283-3.41Z" transform="translate(-215.37 -672.92)" fill="#b7b7b7"/>
              </g>
            </g>
          </g>
          <g id="Group_1085" data-name="Group 1085" transform="translate(44.636 93.442)">
            <path id="Path_2042" data-name="Path 2042" d="M180.505,624.923l-6.6.913-7.24,1.009-.092-.678,9.03-1.256,3.988-.552Z" transform="translate(-166.57 -624.36)" fill="#4c4c4c"/>
          </g>
          <rect id="Rectangle_109" data-name="Rectangle 109" width="1.705" height="2.283" transform="matrix(0.879, -0.477, 0.477, 0.879, 43.057, 95.343)" fill="#a2a2a2"/>
          <path id="Path_2043" data-name="Path 2043" d="M164.975,624.256a1.745,1.745,0,0,0-.055.387,2.819,2.819,0,0,0,.107.788l0,.007a.46.46,0,0,1,.265.081,1.435,1.435,0,0,1,.619,1.127.5.5,0,0,1-.077.276,2.547,2.547,0,0,0,.6.519,1.927,1.927,0,0,0,.357.166.942.942,0,0,0,.766-.026.891.891,0,0,0,.35-.368,1.547,1.547,0,0,0,.147-.652,3.53,3.53,0,0,0-1.521-2.806,1.492,1.492,0,0,0-.622-.225.831.831,0,0,0-.5.092A.95.95,0,0,0,164.975,624.256Z" transform="translate(-120.891 -530.391)" fill="#a2a2a2"/>
          <path id="Path_2044" data-name="Path 2044" d="M162.99,624.279l1.208-.656a.868.868,0,0,1,.5-.092l2,3.679a.848.848,0,0,1-.35.368l-1.208.656-.641-1.186a.26.26,0,0,0,.125-.133.492.492,0,0,0,.077-.276,1.446,1.446,0,0,0-.619-1.127.412.412,0,0,0-.265-.081l0-.007a.307.307,0,0,0-.177.037Z" transform="translate(-119.672 -530.392)" fill="#a2a2a2"/>
          <path id="Path_2045" data-name="Path 2045" d="M163.258,625.547a1.125,1.125,0,0,0-.354-.158.906.906,0,0,0-.762.026,1.114,1.114,0,0,0-.493,1.02,3.2,3.2,0,0,0,.39,1.521,4.572,4.572,0,0,0,.376.589,3.029,3.029,0,0,0,.744.689,1.121,1.121,0,0,0,1.123.14.937.937,0,0,0,.442-.637,1.4,1.4,0,0,0,.052-.383A3.517,3.517,0,0,0,163.258,625.547Zm.589,2.232a.538.538,0,0,1-.074.28.274.274,0,0,1-.129.129.46.46,0,0,1-.449-.059.524.524,0,0,1-.155-.122,1.473,1.473,0,0,1-.376-.586,1.131,1.131,0,0,1-.077-.413.467.467,0,0,1,.2-.409.3.3,0,0,1,.173-.03l.007.007a.434.434,0,0,1,.269.085.771.771,0,0,1,.155.122l.077-.066.457.512-.147.136A1.441,1.441,0,0,1,163.847,627.779Z" transform="translate(-118.824 -531.524)" fill="#d6d6d6"/>
          <g id="Group_1086" data-name="Group 1086" transform="translate(29.604 107.745)">
            <path id="Path_2046" data-name="Path 2046" d="M127.146,663.62l-.718,27.211-.678-.424.722-27.207Z" transform="translate(-125.75 -663.2)" fill="#4c4c4c"/>
          </g>
          <g id="Group_1087" data-name="Group 1087" transform="translate(30.326 95.187)">
            <path id="Path_2047" data-name="Path 2047" d="M166.894,629.612l-.147.136a1.482,1.482,0,0,0-.387-.582l.077-.066Z" transform="translate(-152.127 -629.1)" fill="#d6d6d6"/>
            <path id="Path_2048" data-name="Path 2048" d="M142.33,629.856l-.733.644-.619.541-12.591,11.14-.678-.424L140.6,630.452l.619-.541.725-.641A1.557,1.557,0,0,1,142.33,629.856Z" transform="translate(-127.71 -629.207)" fill="#4c4c4c"/>
          </g>
          <g id="Group_1088" data-name="Group 1088" transform="translate(44.776 47.221)">
            <path id="Path_2049" data-name="Path 2049" d="M167.027,630.33a.818.818,0,0,1,.1.25l-.007-.007-.173-.162Z" transform="translate(-166.95 -581.911)" fill="#4c4c4c"/>
            <path id="Path_2050" data-name="Path 2050" d="M213.918,498.85,171.24,545.638c.1.125.2.258.287.39L213.9,499.572Z" transform="translate(-169.66 -498.85)" fill="#4c4c4c"/>
          </g>
          <g id="Group_1089" data-name="Group 1089" transform="translate(4.072 44.356)">
            <path id="Path_2051" data-name="Path 2051" d="M96.969,542.748l-40.55-51.38.376-.3,40.5,51.48Z" transform="translate(-56.42 -491.07)" fill="#4c4c4c"/>
          </g>
          <g id="Group_1090" data-name="Group 1090" transform="translate(30.289 59.598)">
            <path id="Path_2052" data-name="Path 2052" d="M141.869,568.8,127.61,532.637l.449-.177L142.267,568.7Z" transform="translate(-127.61 -532.46)" fill="#4c4c4c"/>
          </g>
          <g id="Group_1091" data-name="Group 1091" transform="translate(44.732 59.558)">
            <path id="Path_2053" data-name="Path 2053" d="M166.952,630.254a.818.818,0,0,1,.1.25l-.007-.007-.217-.107.1-.18A.1.1,0,0,1,166.952,630.254Z" transform="translate(-166.83 -594.172)" fill="#4c4c4c"/>
            <path id="Path_2054" data-name="Path 2054" d="M187.618,532.567l-17.319,34.1a2.988,2.988,0,0,0-.368-.35l17.261-33.965Z" transform="translate(-168.788 -532.35)" fill="#4c4c4c"/>
          </g>
          <g id="Group_1092" data-name="Group 1092">
            <path id="Path_2055" data-name="Path 2055" d="M129.225,384.7c-17.356-12.6-46.018-13.353-64.015-1.69s-18.516,31.324-1.16,43.919,46.018,13.353,64.015,1.69S146.581,397.3,129.225,384.7Z" transform="translate(-49.154 -373.222)" fill="#515151"/>
            <path id="Path_2056" data-name="Path 2056" d="M146.741,400.441c-1.072-6.982-5.4-13.828-13.036-19.371a50.913,50.913,0,0,0-11.262-6.084,63.855,63.855,0,0,0-15.169-3.819q-3.441-.431-6.916-.523c-.261-.007-.519-.015-.781-.011-1.944-.033-3.9.018-5.841.155-1.819.129-3.635.328-5.425.6-.041,0-.085.015-.125.018-1.967.3-3.907.685-5.811,1.167,0,0,0,0-.011,0a52.676,52.676,0,0,0-15.806,6.717A40.7,40.7,0,0,0,62,382.716c10.194-5.45,22.924-7.549,35.18-6.389.225-.074.453-.144.7-.2A.769.769,0,0,1,98,376.1a6.033,6.033,0,0,1,.744-.133,6.851,6.851,0,0,1,.685-.066c.125-.007.254-.015.379-.018.273,0,.545.007.821.026.162.011.32.026.486.044s.306.04.453.066a.048.048,0,0,1,.041.007c.129.022.261.04.39.074a.277.277,0,0,1,.1.018c.118.026.239.059.35.088a1.06,1.06,0,0,1,.1.026,6.734,6.734,0,0,1,1.639.707,4.554,4.554,0,0,1,.759.578,2.134,2.134,0,0,1,.265,3.127,4.094,4.094,0,0,1-1.145.884,7.7,7.7,0,0,1-3.34.832,9.567,9.567,0,0,1-1.377-.04,8.232,8.232,0,0,1-2.158-.49,6.252,6.252,0,0,1-1.072-.512,5.412,5.412,0,0,1-.552-.39,60.974,60.974,0,0,0-13.291,2.552,51.551,51.551,0,0,0-11.832,5.774c-10.952,7.1-15.74,17.032-14.252,26.7a35.764,35.764,0,0,0,9.148,9.394q1.315.961,2.707,1.819A55.707,55.707,0,0,0,84.025,433.8c14.988,3.76,32.087,2.246,45.072-4.688,1.16-.619,2.294-1.281,3.384-1.989C143.445,420.036,148.229,410.107,146.741,400.441Z" transform="translate(-52.039 -370.624)" fill="#ebebeb"/>
            <path id="Path_2057" data-name="Path 2057" d="M76.963,391.817a40.7,40.7,0,0,0-4.563,3.421c1.425-.762,2.906-1.451,4.419-2.081a32.936,32.936,0,0,1,2.427-2.718C78.469,390.882,77.707,391.335,76.963,391.817Z" transform="translate(-62.443 -383.142)" fill="#ebebeb"/>
            <path id="Path_2058" data-name="Path 2058" d="M75.22,404.425c1.694.615,3.926,2.379,6.231,1.3,1.735-1.094,3.458-1.617,4.088-3.878,1.046,3.443,2,10.3,7.155,9.3,1.138.029,2.906-2.2,3.517-3.893,1.528,6.872,10,9.376,16.859,8.415,3.447-1.05,8.028-2.066,9.254-5.45,1.212-2.817,3.55-5.03,3.624-7.877-.029,1.138.493,2.861,1.646,2.324,1.138.029.059-2.276.659-3.4,5.6,3.565,15.784,6.109,18.822-1.212,1.23-3.384,1.919-7.921-.836-11.409-1.108-1.167-1.631-2.891-2.74-4.058,1.123.6,1.738-1.094,1.749-1.661.206-.169.39-.342.563-.516-.563-.457-1.138-.906-1.742-1.344a50.913,50.913,0,0,0-11.262-6.084,63.855,63.855,0,0,0-15.169-3.819q-3.441-.431-6.916-.523c-.261-.007-.519-.015-.781-.011-1.944-.033-3.9.018-5.841.155-1.819.129-3.635.328-5.425.6-.041,0-.085.015-.125.018-1.967.3-3.907.685-5.811,1.167,0,0,0,0-.011,0a54.082,54.082,0,0,0-13.523,5.34,32.333,32.333,0,0,0-2.427,2.718,65.236,65.236,0,0,1,30.761-4.309c.225-.074.453-.144.7-.2a.768.768,0,0,1,.133-.026,6.032,6.032,0,0,1,.744-.133,6.85,6.85,0,0,1,.685-.066c.125-.007.254-.015.379-.018.273,0,.545.007.821.026.162.011.32.026.486.044s.306.04.453.066a.048.048,0,0,1,.041.007c.129.022.261.04.39.074a.277.277,0,0,1,.1.018c.118.026.239.059.35.088a1.061,1.061,0,0,1,.1.026,6.734,6.734,0,0,1,1.639.707,4.552,4.552,0,0,1,.759.578,2.134,2.134,0,0,1,.265,3.127,4.094,4.094,0,0,1-1.145.884,7.7,7.7,0,0,1-3.34.832,9.567,9.567,0,0,1-1.377-.04,8.232,8.232,0,0,1-2.158-.49,6.251,6.251,0,0,1-1.072-.512,5.41,5.41,0,0,1-.552-.39,60.973,60.973,0,0,0-13.291,2.552,51.551,51.551,0,0,0-11.832,5.774,40.218,40.218,0,0,0-4.972,3.786c.081,0,.158,0,.243.007C72.62,395.244,70.174,401.446,75.22,404.425Z" transform="translate(-62.408 -370.624)" fill="#f4f4f4"/>
            <path id="Path_2059" data-name="Path 2059" d="M88.894,390.207a72.476,72.476,0,0,0-9.59,1.709,48.962,48.962,0,0,0-15.53,6.621c-10.952,7.1-15.74,17.032-14.252,26.7-7.085-10.915-5.1-23.782,5.8-33.247,10.194-5.45,22.924-7.549,35.18-6.389a6.472,6.472,0,0,0-.932.409C87.553,387.1,87.31,388.888,88.894,390.207Z" transform="translate(-45.362 -379.889)" fill="#5c5c5c"/>
            <path id="Path_2060" data-name="Path 2060" d="M185.753,391.135a71.539,71.539,0,0,1,9.486,2.213,48.9,48.9,0,0,1,15.158,7.428c10.565,7.671,14.819,17.839,12.823,27.414,7.653-10.525,6.349-23.48-4.036-33.508-9.892-5.977-22.494-8.746-34.794-8.234a6.763,6.763,0,0,1,.91.457C187.259,388.108,187.406,389.905,185.753,391.135Z" transform="translate(-133.191 -380.582)" fill="#5c5c5c"/>
            <path id="Path_2061" data-name="Path 2061" d="M104.4,453.059a55.794,55.794,0,0,1-15.975-6.629A39.982,39.982,0,0,1,90.461,428.9c4.228-12.62,17-24.449,27.108-27.811a8.537,8.537,0,0,0,2.158.49C112.542,407.951,101.785,446.269,104.4,453.059Z" transform="translate(-72.413 -389.87)" fill="#5c5c5c"/>
            <path id="Path_2062" data-name="Path 2062" d="M190.117,454.092a55.687,55.687,0,0,0,16.3-5.778,39.948,39.948,0,0,0-1.1-17.61c-3.554-12.827-15.684-25.311-25.6-29.2a8.241,8.241,0,0,1-2.18.376C184.372,408.615,193.089,447.452,190.117,454.092Z" transform="translate(-128.857 -390.129)" fill="#5c5c5c"/>
            <path id="Path_2063" data-name="Path 2063" d="M199.236,375.925c-7.439-1.311-15.784-.6-19.82,1.271-.022-.007-.044-.011-.066-.018a1.06,1.06,0,0,0-.1-.026c-.114-.037-.232-.063-.35-.088a.277.277,0,0,0-.1-.018c-.081-.018-.166-.037-.25-.052a.859.859,0,0,0-.14-.022.067.067,0,0,0-.041-.007,3.737,3.737,0,0,0-.453-.066c-.14-.022-.284-.037-.427-.048.041-.869,3.093-3.285,6.577-4.74A63.674,63.674,0,0,1,199.236,375.925Z" transform="translate(-128.832 -371.563)" fill="#5c5c5c"/>
            <path id="Path_2064" data-name="Path 2064" d="M144.8,376.189c-.236.011-.464.04-.685.066a6.977,6.977,0,0,0-.744.133c-3.248-1.624-9.718-3.944-15.629-3.528q2.856-.718,5.811-1.167c.04-.007.085-.015.125-.018,1.79-.276,3.605-.475,5.424-.6C141.1,372.285,144.249,374.546,144.8,376.189Z" transform="translate(-97.403 -370.906)" fill="#5c5c5c"/>
            <path id="Path_2065" data-name="Path 2065" d="M101.588,386a6.472,6.472,0,0,1,.932-.409c-12.256-1.16-24.987.939-35.18,6.389-.74.644-1.436,1.3-2.1,1.978-1.55,3.417-1.23,6.89,2.961,8.857a4.79,4.79,0,0,0,1.539.508,39.234,39.234,0,0,1,6.051-4.791,49.046,49.046,0,0,1,15.53-6.621,72.593,72.593,0,0,1,9.59-1.709C99.33,388.882,99.573,387.1,101.588,386Z" transform="translate(-57.382 -379.883)" fill="#696969"/>
            <path id="Path_2066" data-name="Path 2066" d="M223.779,401.641a23.762,23.762,0,0,0-1.377-3.377,34.709,34.709,0,0,0-3.219-3.572c-9.892-5.977-22.494-8.746-34.794-8.234a6.77,6.77,0,0,1,.91.457c1.955,1.2,2.1,3,.453,4.228a71.525,71.525,0,0,1,9.486,2.213,48.9,48.9,0,0,1,15.158,7.428,36.372,36.372,0,0,1,8.7,8.728C223.268,409.385,224.726,405.312,223.779,401.641Z" transform="translate(-133.191 -380.588)" fill="#696969"/>
            <path id="Path_2067" data-name="Path 2067" d="M126.43,401.58a8.235,8.235,0,0,1-2.158-.49c-8.952,2.979-19.989,12.6-25.337,23.525-.56,1.149.6,3.841,1.189,4.8a7.424,7.424,0,0,0,4.3,3.381,7.571,7.571,0,0,0,5.719-1.112c1.23-.725,4.438-2.747,4.854-4.194C118.262,416.156,122.8,404.795,126.43,401.58Z" transform="translate(-79.113 -389.87)" fill="#696969"/>
            <path id="Path_2068" data-name="Path 2068" d="M179.71,401.5a8.241,8.241,0,0,1-2.18.376c3.742,3.686,8.047,16.973,10.691,29.34,2.4,2.453,5.369,4.39,8.975,3.292,4.64-1.521,5.741-5.41,5.874-9.744C198.031,414.2,188.081,404.789,179.71,401.5Z" transform="translate(-128.857 -390.129)" fill="#696969"/>
            <path id="Path_2069" data-name="Path 2069" d="M184.067,372.11c-3.484,1.458-6.537,3.87-6.577,4.74a3.377,3.377,0,0,1,.427.048,4.484,4.484,0,0,1,.453.066.049.049,0,0,1,.041.007.852.852,0,0,1,.14.022c.085.011.169.033.25.052a.278.278,0,0,1,.1.018,3.482,3.482,0,0,1,.35.088,1.053,1.053,0,0,1,.1.026c.022.007.044.011.066.018,4.036-1.875,12.381-2.582,19.82-1.271A63.672,63.672,0,0,0,184.067,372.11Z" transform="translate(-128.832 -371.563)" fill="#696969"/>
            <path id="Path_2070" data-name="Path 2070" d="M144.8,376.189c-.236.011-.464.04-.685.066a6.977,6.977,0,0,0-.744.133c-3.248-1.624-9.718-3.944-15.629-3.528q2.856-.718,5.811-1.167c.04-.007.085-.015.125-.018,1.79-.276,3.605-.475,5.424-.6C141.1,372.285,144.249,374.546,144.8,376.189Z" transform="translate(-97.403 -370.906)" fill="#696969"/>
          </g>
        </g>
        <g id="Group_1148" data-name="Group 1148" transform="translate(258.929 158.756)" opacity="0.6">
          <path id="Path_2071" data-name="Path 2071" d="M791.553,808.8l-.523.236.055-.571.523-.232Z" transform="translate(-775.356 -715.31)" fill="#4c4c4c"/>
          <g id="Group_1139" data-name="Group 1139" transform="translate(6.913 59.692)">
            <g id="Group_1132" data-name="Group 1132">
              <g id="Group_1131" data-name="Group 1131">
                <g id="Group_1095" data-name="Group 1095" transform="translate(1.93)">
                  <g id="Group_1094" data-name="Group 1094">
                    <path id="Path_2072" data-name="Path 2072" d="M802.1,725.292l-2.4-1.731L792.009,718l-8.061,3.605-1.333.6-.133.063-1.226.549-8.776,3.926,7.038,5.089.7.508.125.092,1.142.825,1.134.829,7.579,5.48,8.721-3.907,1.278-.575.136-.063,1.289-.575,8.091-3.627.007-.007Z" transform="translate(-772.48 -718)" fill="#e4e4e4"/>
                  </g>
                </g>
                <g id="Group_1096" data-name="Group 1096" transform="translate(0 8.739)">
                  <path id="Path_2073" data-name="Path 2073" d="M786.894,754.538l-1.93,18.745-7.579-5.435-.029-.026-1.341-.961-.449-.32-.586-.416-.707-.512-7.034-5.049,1.933-18.833,7.737,5.594.586.424.449.328,1.37.987Z" transform="translate(-767.24 -741.73)" fill="#979797"/>
                </g>
                <g id="Group_1098" data-name="Group 1098" transform="translate(17.728 12.816)">
                  <g id="Group_1097" data-name="Group 1097">
                    <path id="Path_2074" data-name="Path 2074" d="M828.715,756.416l-.7.317-.508.228-.1.048-.129.059-1.263.564-8.709,3.907-1.926,18.745,8.706-3.874,1.5-.663.508-.228.7-.309,8.1-3.6,1.934-18.811Z" transform="translate(-815.38 -752.8)" fill="#b9b9b9"/>
                  </g>
                </g>
                <g id="Group_1115" data-name="Group 1115" transform="translate(18.627 32.576)">
                  <g id="Group_1109" data-name="Group 1109" transform="translate(0.673 0.984)">
                    <g id="Group_1103" data-name="Group 1103" transform="translate(0 0.593)">
                      <g id="Group_1100" data-name="Group 1100" transform="translate(0.302 0.129)">
                        <g id="Group_1099" data-name="Group 1099">
                          <path id="Path_2075" data-name="Path 2075" d="M820.6,813.285l-.133.063.225-2.2.136-.059Z" transform="translate(-820.47 -811.09)" fill="#4c4c4c"/>
                        </g>
                      </g>
                      <g id="Group_1102" data-name="Group 1102">
                        <g id="Group_1101" data-name="Group 1101">
                          <path id="Path_2076" data-name="Path 2076" d="M820.736,811.138l-.107.144-.39-.324-.5.725-.088-.055.611-.888Z" transform="translate(-819.65 -810.74)" fill="#4c4c4c"/>
                        </g>
                      </g>
                    </g>
                    <g id="Group_1108" data-name="Group 1108" transform="translate(1.333)">
                      <g id="Group_1105" data-name="Group 1105" transform="translate(0.302 0.125)">
                        <g id="Group_1104" data-name="Group 1104">
                          <path id="Path_2077" data-name="Path 2077" d="M824.223,811.661l-.133.063.225-2.191.136-.063Z" transform="translate(-824.09 -809.47)" fill="#4c4c4c"/>
                        </g>
                      </g>
                      <g id="Group_1107" data-name="Group 1107">
                        <g id="Group_1106" data-name="Group 1106">
                          <path id="Path_2078" data-name="Path 2078" d="M824.364,809.524l-.11.14-.39-.324-.5.725-.092-.052.619-.884Z" transform="translate(-823.27 -809.13)" fill="#4c4c4c"/>
                        </g>
                      </g>
                    </g>
                  </g>
                  <g id="Group_1111" data-name="Group 1111" transform="translate(0.397 2.999)">
                    <g id="Group_1110" data-name="Group 1110">
                      <path id="Path_2079" data-name="Path 2079" d="M821.451,814.748l-2.493,1.12c-.037.015-.063,0-.059-.044a.117.117,0,0,1,.074-.1l2.49-1.116c.037-.018.066,0,.059.041A.138.138,0,0,1,821.451,814.748Z" transform="translate(-818.899 -814.602)" fill="#4c4c4c"/>
                    </g>
                  </g>
                  <g id="Group_1114" data-name="Group 1114">
                    <g id="Group_1113" data-name="Group 1113">
                      <g id="Group_1112" data-name="Group 1112">
                        <path id="Path_2080" data-name="Path 2080" d="M820.69,810.2l-2.449,1.1c-.258.118-.446-.018-.416-.3l.273-2.67a.969.969,0,0,1,.519-.722l2.449-1.1c.258-.114.442.018.416.3l-.276,2.674A.967.967,0,0,1,820.69,810.2Zm-2.084-2.445a.687.687,0,0,0-.372.516l-.273,2.67c-.018.2.118.3.3.214l2.453-1.1a.7.7,0,0,0,.368-.516l.276-2.67c.022-.2-.114-.3-.3-.217Z" transform="translate(-817.822 -806.459)" fill="#4c4c4c"/>
                      </g>
                    </g>
                  </g>
                </g>
                <g id="Group_1125" data-name="Group 1125" transform="translate(22.87 30.575)">
                  <g id="Group_1118" data-name="Group 1118">
                    <g id="Group_1117" data-name="Group 1117">
                      <g id="Group_1116" data-name="Group 1116">
                        <path id="Path_2081" data-name="Path 2081" d="M832.295,804.861l-2.523,1.13c-.269.118-.457-.022-.427-.309l.284-2.744a1.006,1.006,0,0,1,.53-.74l2.523-1.131c.265-.118.453.018.42.309l-.284,2.747A.989.989,0,0,1,832.295,804.861Zm-2.147-2.515a.7.7,0,0,0-.379.527l-.28,2.751c-.022.2.11.3.3.217l2.523-1.13a.717.717,0,0,0,.383-.527l.28-2.751c.022-.206-.114-.306-.306-.221Z" transform="translate(-829.342 -801.025)" fill="#4c4c4c"/>
                      </g>
                    </g>
                  </g>
                  <g id="Group_1124" data-name="Group 1124" transform="translate(1.245 1.055)">
                    <g id="Group_1120" data-name="Group 1120" transform="translate(0.455 0.468)">
                      <g id="Group_1119" data-name="Group 1119">
                        <path id="Path_2082" data-name="Path 2082" d="M834.026,807.29c-.041.015-.07,0-.066-.048l.2-1.966a.158.158,0,0,1,.081-.107c.037-.018.066,0,.063.044l-.2,1.967A.142.142,0,0,1,834.026,807.29Z" transform="translate(-833.959 -805.162)" fill="#4c4c4c"/>
                      </g>
                    </g>
                    <g id="Group_1122" data-name="Group 1122" transform="translate(0.142 2.299)">
                      <g id="Group_1121" data-name="Group 1121">
                        <path id="Path_2083" data-name="Path 2083" d="M833.8,810.29l-.622.28a.043.043,0,0,1-.066-.044.148.148,0,0,1,.081-.107l.622-.28c.037-.018.066,0,.063.044A.144.144,0,0,1,833.8,810.29Z" transform="translate(-833.109 -810.132)" fill="#4c4c4c"/>
                      </g>
                    </g>
                    <g id="Group_1123" data-name="Group 1123">
                      <path id="Path_2084" data-name="Path 2084" d="M834.147,803.89l-.1.921a.849.849,0,0,1-.457.633l-.5.225c-.232.1-.39-.015-.365-.261l.092-.921.25-.11-.1.987c0,.037.022.059.063.044a.158.158,0,0,0,.081-.107l.1-.983Z" transform="translate(-832.723 -803.89)" fill="#4c4c4c"/>
                    </g>
                  </g>
                </g>
                <g id="Group_1127" data-name="Group 1127" transform="translate(2.431 0.276)">
                  <g id="Group_1126" data-name="Group 1126">
                    <path id="Path_2085" data-name="Path 2085" d="M792.835,718.75l-19,8.514,17.253,12.4,18.991-8.437Z" transform="translate(-773.84 -718.75)" fill="#d6d6d6"/>
                  </g>
                </g>
                <g id="Group_1128" data-name="Group 1128" transform="translate(19.61 12.996)">
                  <path id="Path_2086" data-name="Path 2086" d="M840.023,753.29l-.015.147-19.518,8.739.018-.147Z" transform="translate(-820.49 -753.29)" fill="#979797"/>
                </g>
                <g id="Group_1129" data-name="Group 1129" transform="translate(11.928 4.202)">
                  <path id="Path_2087" data-name="Path 2087" d="M817.48,742.218l-.129.063L799.63,729.469l.133-.059Z" transform="translate(-799.63 -729.41)" fill="#979797"/>
                </g>
                <g id="Group_1130" data-name="Group 1130" transform="translate(29.597 17.025)">
                  <path id="Path_2088" data-name="Path 2088" d="M847.768,764.23l-.037.306-.122-.015.022-.232Z" transform="translate(-847.61 -764.23)" fill="#979797"/>
                </g>
              </g>
              <path id="Path_2089" data-name="Path 2089" d="M843.643,762.58l-1.93,18.8-2.7,1.2,1.933-18.792Z" transform="translate(-812.58 -746.163)" fill="#8b8b8b"/>
              <path id="Path_2090" data-name="Path 2090" d="M816.675,740.61l-1.289.574-.136.066-1.278.575L796.31,728.992l1.223-.552.133-.062,1.333-.6Z" transform="translate(-785.605 -724.178)" fill="#bdbdbd"/>
              <path id="Path_2091" data-name="Path 2091" d="M792.592,758.628l-1.937,18.8-.033-.026-2.372-1.7,1.933-18.811Z" transform="translate(-780.513 -742.568)" fill="#8b8b8b"/>
              <path id="Path_2092" data-name="Path 2092" d="M815.372,734.821l-19.481,8.787-1.134-.825-.122-.092-1.016-.733-.129-.092,16.373-7.373,1.23-.556,1.882-.847.932.67.608.446Z" transform="translate(-783.823 -727.533)" fill="#bdbdbd"/>
            </g>
            <g id="Group_1138" data-name="Group 1138" transform="translate(31.781 15.438)">
              <g id="Group_1133" data-name="Group 1133">
                <path id="Path_2093" data-name="Path 2093" d="M859.174,764.5l-5.634,2.523.471-4.574,5.638-2.526Z" transform="translate(-853.54 -759.92)" fill="#e4e4e4"/>
              </g>
              <path id="Path_2094" data-name="Path 2094" d="M860.533,762.628l-4.563,2.047.055-.512,4.563-2.044Z" transform="translate(-855.075 -761.31)" fill="#4c4c4c"/>
              <g id="Group_1134" data-name="Group 1134" transform="translate(0.795 2.014)">
                <path id="Path_2095" data-name="Path 2095" d="M860.27,765.615l-4.57,2.047.029-.225,4.566-2.047Z" transform="translate(-855.7 -765.39)" fill="#b7b7b7"/>
              </g>
              <g id="Group_1135" data-name="Group 1135" transform="translate(0.737 2.615)">
                <path id="Path_2096" data-name="Path 2096" d="M860.107,767.252l-4.566,2.04.026-.225,4.563-2.047Z" transform="translate(-855.54 -767.02)" fill="#b7b7b7"/>
              </g>
              <g id="Group_1136" data-name="Group 1136" transform="translate(0.67 3.263)">
                <path id="Path_2097" data-name="Path 2097" d="M859.926,769.008l-4.567,2.044.022-.225,4.57-2.048Z" transform="translate(-855.36 -768.78)" fill="#b7b7b7"/>
              </g>
              <g id="Group_1137" data-name="Group 1137" transform="translate(0.611 3.867)">
                <path id="Path_2098" data-name="Path 2098" d="M859.759,770.644l-4.559,2.048.022-.228,4.559-2.044Z" transform="translate(-855.2 -770.42)" fill="#b7b7b7"/>
              </g>
            </g>
          </g>
          <g id="Group_1140" data-name="Group 1140" transform="translate(27.819 65.919)">
            <path id="Path_2099" data-name="Path 2099" d="M833.795,735.356l-4.651.287-5.1.317-.03-.479,6.364-.394,2.814-.177Z" transform="translate(-824.01 -734.91)" fill="#4c4c4c"/>
          </g>
          <path id="Path_2100" data-name="Path 2100" d="M822.12,735.08l.652,1.458-1.09.49-.652-1.462Z" transform="translate(-794.308 -669.098)" fill="#a2a2a2"/>
          <path id="Path_2101" data-name="Path 2101" d="M823.045,732.975a.933.933,0,0,0-.059.265,1.908,1.908,0,0,0,.033.556l0,.007a.279.279,0,0,1,.177.07,1.007,1.007,0,0,1,.372.817.347.347,0,0,1-.066.188,1.9,1.9,0,0,0,.39.4,1.339,1.339,0,0,0,.243.136.649.649,0,0,0,.534.022.6.6,0,0,0,.265-.236,1.061,1.061,0,0,0,.136-.449,2.474,2.474,0,0,0-.91-2.037,1.1,1.1,0,0,0-.423-.191.637.637,0,0,0-.354.037A.652.652,0,0,0,823.045,732.975Z" transform="translate(-795.539 -667.476)" fill="#a2a2a2"/>
          <path id="Path_2102" data-name="Path 2102" d="M821.7,732.943l.876-.394a.634.634,0,0,1,.354-.037l1.2,2.677a.6.6,0,0,1-.265.236l-.88.394-.383-.858a.187.187,0,0,0,.092-.085.345.345,0,0,0,.066-.188,1,1,0,0,0-.372-.818.293.293,0,0,0-.177-.07l0-.007a.2.2,0,0,0-.125.018Z" transform="translate(-794.732 -667.47)" fill="#a2a2a2"/>
          <path id="Path_2103" data-name="Path 2103" d="M821.775,733.775a.824.824,0,0,0-.236-.129.631.631,0,0,0-.538-.022.789.789,0,0,0-.4.681,2.25,2.25,0,0,0,.192,1.086,3.006,3.006,0,0,0,.232.431,2.063,2.063,0,0,0,.486.519.779.779,0,0,0,.773.155.65.65,0,0,0,.343-.416.851.851,0,0,0,.059-.269A2.46,2.46,0,0,0,821.775,733.775Zm.291,1.587a.32.32,0,0,1-.063.192.212.212,0,0,1-.1.081.318.318,0,0,1-.313-.063.363.363,0,0,1-.1-.1,1.115,1.115,0,0,1-.236-.431.822.822,0,0,1-.03-.295.326.326,0,0,1,.162-.276.238.238,0,0,1,.125-.007l0,0a.287.287,0,0,1,.18.074.471.471,0,0,1,.1.092l.055-.044.295.383-.11.088A.706.706,0,0,1,822.066,735.362Z" transform="translate(-794.034 -668.146)" fill="#d6d6d6"/>
          <g id="Group_1141" data-name="Group 1141" transform="translate(15.224 74.448)">
            <path id="Path_2104" data-name="Path 2104" d="M792.2,758.4l-1.944,18.947-.449-.335,1.944-18.94Z" transform="translate(-789.81 -758.07)" fill="#4c4c4c"/>
          </g>
          <g id="Group_1142" data-name="Group 1142" transform="translate(17.173 66.446)">
            <path id="Path_2105" data-name="Path 2105" d="M824.21,736.723l-.11.088a1.016,1.016,0,0,0-.239-.427l.055-.044Z" transform="translate(-813.269 -736.34)" fill="#d6d6d6"/>
            <path id="Path_2106" data-name="Path 2106" d="M805.931,736.894l-.545.412-.464.343-9.376,7.1-.446-.328,9.59-7.2.46-.342.541-.409A.979.979,0,0,1,805.931,736.894Z" transform="translate(-795.1 -736.422)" fill="#4c4c4c"/>
          </g>
          <g id="Group_1143" data-name="Group 1143" transform="translate(27.889 35.346)">
            <path id="Path_2107" data-name="Path 2107" d="M824.259,737.24a.589.589,0,0,1,.059.177l0,0-.114-.121Z" transform="translate(-824.2 -705.809)" fill="#4c4c4c"/>
            <path id="Path_2108" data-name="Path 2108" d="M859.7,651.89l-32.26,30.371a3.392,3.392,0,0,1,.181.287l32.032-30.153Z" transform="translate(-826.247 -651.89)" fill="#4c4c4c"/>
          </g>
          <g id="Group_1144" data-name="Group 1144" transform="translate(2.206 28.854)">
            <path id="Path_2109" data-name="Path 2109" d="M780.017,672.445l-25.557-38,.284-.188,25.513,38.064Z" transform="translate(-754.46 -634.26)" fill="#4c4c4c"/>
          </g>
          <g id="Group_1145" data-name="Group 1145" transform="translate(19.695 40.881)">
            <path id="Path_2110" data-name="Path 2110" d="M809.974,693.008l-8.024-25.988.32-.1,7.988,26.036Z" transform="translate(-801.95 -666.92)" fill="#4c4c4c"/>
          </g>
          <g id="Group_1146" data-name="Group 1146" transform="translate(27.856 42.575)">
            <path id="Path_2111" data-name="Path 2111" d="M824.2,737.177a.583.583,0,0,1,.059.177l0,0-.147-.088.077-.122A.085.085,0,0,1,824.2,737.177Z" transform="translate(-824.11 -712.974)" fill="#4c4c4c"/>
            <path id="Path_2112" data-name="Path 2112" d="M840.734,671.7l-13.9,22.865a2.021,2.021,0,0,0-.236-.261l13.847-22.781Z" transform="translate(-825.683 -671.52)" fill="#4c4c4c"/>
          </g>
          <g id="Group_1147" data-name="Group 1147">
            <path id="Path_2113" data-name="Path 2113" d="M808.106,567.682c-11.438-9.707-31.394-11.759-44.564-4.581s-14.583,20.87-3.145,30.581,31.391,11.759,44.567,4.581S819.545,577.393,808.106,567.682Z" transform="translate(-751.117 -557.746)" fill="#515151"/>
            <path id="Path_2114" data-name="Path 2114" d="M818.451,579.428c-.376-4.927-3.034-9.936-8.069-14.208a35.24,35.24,0,0,0-7.531-4.839,44.318,44.318,0,0,0-10.378-3.469q-2.381-.486-4.8-.733c-.177-.015-.357-.037-.541-.048-1.355-.129-2.721-.2-4.08-.2-1.274,0-2.552.037-3.819.133-.026,0-.059.007-.088.007-1.388.1-2.766.269-4.117.5h-.007a36.826,36.826,0,0,0-11.379,3.848,27.638,27.638,0,0,0-3.362,2.143c7.4-3.259,16.4-4.047,24.884-2.585.158-.037.32-.077.493-.1l.1-.011a4.184,4.184,0,0,1,.523-.051c.158-.007.32-.015.482-.011.088,0,.18,0,.269.007.192.015.379.033.571.063l.331.055c.11.022.214.048.317.074a.027.027,0,0,1,.026.007c.088.022.18.04.269.07a.258.258,0,0,1,.07.022c.077.022.158.052.236.081a.51.51,0,0,1,.07.022,4.76,4.76,0,0,1,1.1.578,2.826,2.826,0,0,1,.5.446,1.49,1.49,0,0,1,.018,2.195,3.019,3.019,0,0,1-.847.56,5.393,5.393,0,0,1-2.372.4,6.389,6.389,0,0,1-.958-.1,5.981,5.981,0,0,1-1.48-.457,4.276,4.276,0,0,1-.722-.412,3.908,3.908,0,0,1-.365-.306,42.7,42.7,0,0,0-9.405,1.075,36.1,36.1,0,0,0-8.558,3.4c-8.017,4.371-11.884,11.044-11.357,17.868a25,25,0,0,0,5.881,7.041c.578.49,1.171.961,1.79,1.41a39,39,0,0,0,10.794,5.476c10.252,3.421,22.261,3.274,31.689-.873.843-.372,1.672-.773,2.467-1.208C815.107,592.922,818.974,586.252,818.451,579.428Z" transform="translate(-752.229 -555.922)" fill="#ebebeb"/>
            <path id="Path_2115" data-name="Path 2115" d="M773.682,566.68a27.643,27.643,0,0,0-3.362,2.143c1.035-.457,2.1-.858,3.193-1.219a22.543,22.543,0,0,1,1.838-1.764C774.783,566.109,774.227,566.385,773.682,566.68Z" transform="translate(-762.273 -562.183)" fill="#ebebeb"/>
            <path id="Path_2116" data-name="Path 2116" d="M769.565,577.843c1.149.519,2.611,1.871,4.279,1.241,1.267-.67,2.5-.946,3.057-2.489.549,2.46.854,7.292,4.5,6.868.792.081,2.14-1.385,2.663-2.53.7,4.876,6.481,7.071,11.313,6.769,2.456-.549,5.712-1.016,6.747-3.311.991-1.9,2.74-3.322,2.943-5.3-.081.792.2,2.022,1.027,1.705.792.081.162-1.584.641-2.335,3.716,2.784,10.68,5.1,13.191.155,1.039-2.294,1.76-5.425.026-8.006-.714-.876-.987-2.106-1.7-2.976.755.475,1.27-.674,1.307-1.068a4.942,4.942,0,0,0,.424-.331c-.372-.346-.748-.692-1.149-1.031a35.237,35.237,0,0,0-7.531-4.839,44.319,44.319,0,0,0-10.378-3.469q-2.381-.486-4.8-.733c-.177-.015-.357-.037-.541-.048-1.355-.129-2.721-.2-4.08-.2-1.274,0-2.552.037-3.819.133-.026,0-.059.007-.088.007-1.388.1-2.766.269-4.117.5h-.007a37.777,37.777,0,0,0-9.715,3.012,22.551,22.551,0,0,0-1.838,1.764,45.747,45.747,0,0,1,21.691-1.37c.158-.037.32-.077.493-.1l.1-.011a4.186,4.186,0,0,1,.523-.052c.158-.007.32-.015.482-.011.088,0,.18,0,.269.007.191.015.379.033.571.063l.331.055c.11.022.214.048.317.074a.027.027,0,0,1,.026.007c.088.022.18.041.269.07a.261.261,0,0,1,.07.022c.077.022.158.052.236.081a.522.522,0,0,1,.07.022,4.751,4.751,0,0,1,1.1.578,2.822,2.822,0,0,1,.5.446,1.49,1.49,0,0,1,.018,2.195,3.023,3.023,0,0,1-.847.56,5.393,5.393,0,0,1-2.372.4,6.374,6.374,0,0,1-.958-.1,5.975,5.975,0,0,1-1.48-.457,4.272,4.272,0,0,1-.722-.413,3.89,3.89,0,0,1-.365-.306,42.7,42.7,0,0,0-9.405,1.075,36.1,36.1,0,0,0-8.558,3.4,28.067,28.067,0,0,0-3.668,2.375c.055.007.11.011.169.018C768.239,571.3,766.2,575.5,769.565,577.843Z" transform="translate(-760.682 -555.909)" fill="#f4f4f4"/>
            <path id="Path_2117" data-name="Path 2117" d="M780.029,568.843a50.825,50.825,0,0,0-6.78.685,34.315,34.315,0,0,0-11.188,3.793c-8.017,4.371-11.884,11.044-11.357,17.868-4.364-7.991-2.294-16.859,5.811-22.884,7.4-3.259,16.4-4.047,24.884-2.585a4.28,4.28,0,0,0-.674.236C779.256,566.608,778.995,567.842,780.029,568.843Z" transform="translate(-748.469 -561.662)" fill="#5c5c5c"/>
            <path id="Path_2118" data-name="Path 2118" d="M850.04,571.434a50.035,50.035,0,0,1,6.5,2.047,34.317,34.317,0,0,1,10.182,5.988c6.96,5.911,9.387,13.228,7.483,19.805,5.9-6.934,5.679-16.042-1.031-23.591-6.585-4.7-15.228-7.3-23.834-7.594a4.329,4.329,0,0,1,.611.368C851.255,569.4,851.259,570.664,850.04,571.434Z" transform="translate(-812.193 -563.604)" fill="#5c5c5c"/>
            <path id="Path_2119" data-name="Path 2119" d="M786.127,612.916a38.85,38.85,0,0,1-10.794-5.476,28.023,28.023,0,0,1,2.349-12.12c3.62-8.577,13.158-16.148,20.391-17.96a5.978,5.978,0,0,0,1.48.457C794.2,581.879,784.662,608.04,786.127,612.916Z" transform="translate(-765.427 -569.46)" fill="#5c5c5c"/>
            <path id="Path_2120" data-name="Path 2120" d="M849.706,615.709a38.943,38.943,0,0,0,11.678-3.163,27.807,27.807,0,0,0,.166-12.341c-1.8-9.14-9.6-18.49-16.307-21.735a5.576,5.576,0,0,1-1.543.147C848.115,583.681,852.133,611.238,849.706,615.709Z" transform="translate(-808.63 -570.162)" fill="#5c5c5c"/>
            <path id="Path_2121" data-name="Path 2121" d="M859.827,562.069c-5.119-1.311-10.974-1.259-13.891-.166-.018-.007-.033-.011-.044-.015a.307.307,0,0,0-.07-.022,1.97,1.97,0,0,0-.236-.081.5.5,0,0,0-.07-.022l-.169-.048a.968.968,0,0,0-.1-.022.027.027,0,0,0-.026-.007,3.047,3.047,0,0,0-.317-.074,2.445,2.445,0,0,0-.295-.055c.077-.6,2.335-2.125,4.843-2.957A44.359,44.359,0,0,1,859.827,562.069Z" transform="translate(-809.205 -557.609)" fill="#5c5c5c"/>
            <path id="Path_2122" data-name="Path 2122" d="M822.1,559.794c-.166,0-.324,0-.482.011a4.922,4.922,0,0,0-.523.052,23.4,23.4,0,0,0-10.716-3.292c1.352-.232,2.729-.4,4.117-.5a.768.768,0,0,1,.088-.007c1.267-.1,2.545-.136,3.819-.133C819.73,556.877,821.807,558.615,822.1,559.794Z" transform="translate(-787.58 -555.916)" fill="#5c5c5c"/>
            <path id="Path_2123" data-name="Path 2123" d="M790.466,565.946a4.277,4.277,0,0,1,.674-.236c-8.488-1.462-17.482-.674-24.884,2.585-.552.409-1.068.836-1.569,1.27-1.259,2.3-1.223,4.74,1.6,6.334a3.3,3.3,0,0,0,1.046.435,27.779,27.779,0,0,1,4.474-3.023,34.253,34.253,0,0,1,11.188-3.793,50.815,50.815,0,0,1,6.78-.685C788.739,567.835,789,566.6,790.466,565.946Z" transform="translate(-758.213 -561.656)" fill="#696969"/>
            <path id="Path_2124" data-name="Path 2124" d="M876.01,580.783a16.367,16.367,0,0,0-.781-2.427,23.681,23.681,0,0,0-2.055-2.663c-6.585-4.7-15.228-7.3-23.834-7.594a4.342,4.342,0,0,1,.611.368c1.3.939,1.307,2.2.088,2.976a50.047,50.047,0,0,1,6.5,2.048,34.315,34.315,0,0,1,10.183,5.988,25.336,25.336,0,0,1,5.6,6.551C875.244,586.16,876.474,583.4,876.01,580.783Z" transform="translate(-812.193 -563.611)" fill="#696969"/>
            <path id="Path_2125" data-name="Path 2125" d="M805.874,577.827a5.98,5.98,0,0,1-1.48-.457c-6.4,1.6-14.616,7.726-18.925,15.066-.453.77.214,2.71.571,3.414a5.213,5.213,0,0,0,2.821,2.585,5.274,5.274,0,0,0,4.047-.471c.9-.438,3.241-1.683,3.609-2.67C799.4,587.556,803.175,579.874,805.874,577.827Z" transform="translate(-771.747 -569.467)" fill="#696969"/>
            <path id="Path_2126" data-name="Path 2126" d="M845.243,578.47a5.576,5.576,0,0,1-1.543.147c2.416,2.773,4.71,12.267,5.9,21.035,1.547,1.841,3.51,3.351,6.087,2.773,3.318-.81,4.29-3.469,4.614-6.485C857.344,588.3,850.907,581.21,845.243,578.47Z" transform="translate(-808.63 -570.162)" fill="#696969"/>
            <path id="Path_2127" data-name="Path 2127" d="M849.443,558.6c-2.508.832-4.765,2.353-4.843,2.957a2.581,2.581,0,0,1,.295.055,2.327,2.327,0,0,1,.317.074.027.027,0,0,1,.026.007.321.321,0,0,1,.1.022l.169.048a.256.256,0,0,1,.07.022,1.979,1.979,0,0,1,.236.081.524.524,0,0,1,.07.022.208.208,0,0,1,.044.015c2.917-1.094,8.772-1.145,13.891.166A44.245,44.245,0,0,0,849.443,558.6Z" transform="translate(-809.198 -557.609)" fill="#696969"/>
            <path id="Path_2128" data-name="Path 2128" d="M822.1,559.794c-.166,0-.324,0-.482.011a4.922,4.922,0,0,0-.523.052,23.4,23.4,0,0,0-10.716-3.292c1.352-.232,2.729-.4,4.117-.5a.768.768,0,0,1,.088-.007c1.267-.1,2.545-.136,3.819-.133C819.73,556.877,821.807,558.615,822.1,559.794Z" transform="translate(-787.58 -555.916)" fill="#696969"/>
          </g>
        </g>
      </g>
    </g>
  </g>
</svg>
