<svg xmlns="http://www.w3.org/2000/svg" xmlns:xlink="http://www.w3.org/1999/xlink" width="458" height="458" viewBox="0 0 458 458">
  <defs>
    <linearGradient id="linear-gradient" x1="0.865" y1="0.178" x2="0.152" y2="0.822" gradientUnits="objectBoundingBox">
      <stop offset="0" stop-color="#fdb819"/>
      <stop offset="1" stop-color="#fff"/>
    </linearGradient>
  </defs>
  <g id="Group_2041" data-name="Group 2041" transform="translate(-1038 -1035)">
    <circle id="Ellipse_8" data-name="Ellipse 8" cx="229" cy="229" r="229" transform="translate(1038 1493) rotate(-90)" fill="url(#linear-gradient)"/>
    <g id="Group_2025" data-name="Group 2025" transform="translate(0.212 -1.75)">
      <g id="Fast_Delivery_both_domestically_and_internationally" data-name="Fast Delivery both domestically and internationally" transform="translate(1068.678 1077.64)">
        <g id="Group_1149" data-name="Group 1149" transform="translate(39.11 30.11)">
          <g id="Group_1038" data-name="Group 1038" transform="translate(102.663)">
            <path id="Path_1956" data-name="Path 1956" d="M443.113,938.685l-1.683.672.256-1.8,1.687-.672Z" transform="translate(-401.043 -643.591)" fill="#4c4c4c"/>
            <g id="Group_1029" data-name="Group 1029" transform="translate(13.407 189.346)">
              <g id="Group_1022" data-name="Group 1022" transform="translate(0 0)">
                <g id="Group_1021" data-name="Group 1021">
                  <g id="Group_985" data-name="Group 985" transform="translate(8.571)">
                    <g id="Group_984" data-name="Group 984">
                      <path id="Path_1957" data-name="Path 1957" d="M484.694,673.543l-7.382-5.811L453.6,649.07l-26.066,10.4-4.305,1.723-.437.188-3.962,1.582L390.46,674.287l21.67,17.069,2.171,1.716.383.307,3.511,2.763,3.5,2.763,23.353,18.387,28.2-11.276,4.135-1.658.441-.184,4.161-1.661,26.163-10.456.033-.029Z" transform="translate(-390.46 -649.07)" fill="#e4e4e4"/>
                    </g>
                  </g>
                  <g id="Group_986" data-name="Group 986" transform="translate(0 25.228)">
                    <path id="Path_1958" data-name="Path 1958" d="M429.91,761.9l-8.553,59.265L398,802.9l-.094-.079-4.125-3.218-1.387-1.08-1.8-1.4-2.182-1.7L366.73,778.463l8.592-59.543,23.837,18.77,1.806,1.423,1.383,1.094,4.219,3.312Z" transform="translate(-366.73 -718.92)" fill="#979797"/>
                  </g>
                  <g id="Group_988" data-name="Group 988" transform="translate(54.627 42.983)">
                    <g id="Group_987" data-name="Group 987">
                      <path id="Path_1959" data-name="Path 1959" d="M563.426,778.532l-2.261.91-1.64.657-.329.137-.426.17-4.081,1.622L526.529,793.3l-8.549,59.268L546.123,841.4l4.833-1.911,1.64-.661,2.257-.892,26.2-10.384,8.581-59.471Z" transform="translate(-517.98 -768.08)" fill="#b9b9b9"/>
                    </g>
                  </g>
                  <g id="Group_1005" data-name="Group 1005" transform="translate(57.893 103.545)">
                    <g id="Group_999" data-name="Group 999" transform="translate(2.419 2.994)">
                      <g id="Group_993" data-name="Group 993" transform="translate(0 1.723)">
                        <g id="Group_990" data-name="Group 990" transform="translate(0.766 0.412)">
                          <g id="Group_989" data-name="Group 989">
                            <path id="Path_1960" data-name="Path 1960" d="M536.273,956.895l-.433.18,1-6.942.433-.173Z" transform="translate(-535.84 -949.96)" fill="#4c4c4c"/>
                          </g>
                        </g>
                        <g id="Group_992" data-name="Group 992">
                          <g id="Group_991" data-name="Group 991">
                            <path id="Path_1961" data-name="Path 1961" d="M537.241,950.142l-.354.437-1.21-1.087-1.687,2.25-.271-.191,2.055-2.73Z" transform="translate(-533.72 -948.82)" fill="#4c4c4c"/>
                          </g>
                        </g>
                      </g>
                      <g id="Group_998" data-name="Group 998" transform="translate(4.312)">
                        <g id="Group_995" data-name="Group 995" transform="translate(0.773 0.412)">
                          <g id="Group_994" data-name="Group 994">
                            <path id="Path_1962" data-name="Path 1962" d="M548.233,952.121l-.433.177,1-6.938.433-.17Z" transform="translate(-547.8 -945.19)" fill="#4c4c4c"/>
                          </g>
                        </g>
                        <g id="Group_997" data-name="Group 997">
                          <g id="Group_996" data-name="Group 996">
                            <path id="Path_1963" data-name="Path 1963" d="M549.2,945.365l-.365.444-1.2-1.087-1.694,2.243-.278-.184,2.07-2.73Z" transform="translate(-545.66 -944.05)" fill="#4c4c4c"/>
                          </g>
                        </g>
                      </g>
                    </g>
                    <g id="Group_1001" data-name="Group 1001" transform="translate(1.315 9.434)">
                      <g id="Group_1000" data-name="Group 1000">
                        <path id="Path_1964" data-name="Path 1964" d="M538.911,962.355l-8.065,3.229c-.119.047-.2-.018-.181-.148a.454.454,0,0,1,.242-.318l8.069-3.218c.116-.051.195.014.177.145A.443.443,0,0,1,538.911,962.355Z" transform="translate(-530.663 -961.883)" fill="#4c4c4c"/>
                      </g>
                    </g>
                    <g id="Group_1004" data-name="Group 1004">
                      <g id="Group_1003" data-name="Group 1003">
                        <g id="Group_1002" data-name="Group 1002">
                          <path id="Path_1965" data-name="Path 1965" d="M536.249,947.539l-7.924,3.168c-.838.336-1.412-.116-1.286-1.008l1.217-8.44a3.112,3.112,0,0,1,1.752-2.218l7.924-3.171c.831-.329,1.4.119,1.271,1.008l-1.217,8.448A3.1,3.1,0,0,1,536.249,947.539Zm-6.306-8.036a2.241,2.241,0,0,0-1.25,1.586l-1.217,8.441c-.094.639.321.961.917.722l7.924-3.175a2.185,2.185,0,0,0,1.235-1.582l1.228-8.441c.094-.639-.321-.964-.91-.722Z" transform="translate(-527.022 -935.762)" fill="#4c4c4c"/>
                        </g>
                      </g>
                    </g>
                  </g>
                  <g id="Group_1015" data-name="Group 1015" transform="translate(71.613 97.734)">
                    <g id="Group_1008" data-name="Group 1008">
                      <g id="Group_1007" data-name="Group 1007">
                        <g id="Group_1006" data-name="Group 1006">
                          <path id="Path_1966" data-name="Path 1966" d="M574.494,931.777l-8.152,3.261c-.86.343-1.445-.123-1.315-1.033l1.253-8.686a3.213,3.213,0,0,1,1.792-2.283l8.152-3.254c.856-.339,1.438.123,1.307,1.029l-1.253,8.69A3.2,3.2,0,0,1,574.494,931.777Zm-6.487-8.264a2.258,2.258,0,0,0-1.279,1.625l-1.253,8.69c-.094.646.318.982.939.74l8.152-3.261a2.326,2.326,0,0,0,1.282-1.629l1.253-8.69c.094-.65-.332-.99-.939-.74Z" transform="translate(-565.01 -919.671)" fill="#4c4c4c"/>
                        </g>
                      </g>
                    </g>
                    <g id="Group_1014" data-name="Group 1014" transform="translate(4.221 3.246)">
                      <g id="Group_1010" data-name="Group 1010" transform="translate(1.328 1.413)">
                        <g id="Group_1009" data-name="Group 1009">
                          <path id="Path_1967" data-name="Path 1967" d="M580.575,939.286c-.126.043-.217-.022-.2-.155l.9-6.216a.465.465,0,0,1,.267-.325c.119-.051.2.018.184.145l-.9,6.227A.48.48,0,0,1,580.575,939.286Z" transform="translate(-580.374 -932.573)" fill="#4c4c4c"/>
                        </g>
                      </g>
                      <g id="Group_1012" data-name="Group 1012" transform="translate(0.318 7.228)">
                        <g id="Group_1011" data-name="Group 1011">
                          <path id="Path_1968" data-name="Path 1968" d="M579.788,949.16l-2.015.809c-.119.054-.21-.015-.2-.144a.461.461,0,0,1,.264-.325l2.015-.809c.126-.051.21.018.191.148A.448.448,0,0,1,579.788,949.16Z" transform="translate(-577.576 -948.674)" fill="#4c4c4c"/>
                        </g>
                      </g>
                      <g id="Group_1013" data-name="Group 1013">
                        <path id="Path_1969" data-name="Path 1969" d="M581.418,928.66,581,931.567a2.715,2.715,0,0,1-1.535,1.95l-1.629.647c-.737.3-1.235-.1-1.123-.881l.419-2.908.805-.321-.448,3.113c-.022.126.065.2.184.145a.477.477,0,0,0,.264-.329l.448-3.113Z" transform="translate(-576.697 -928.66)" fill="#4c4c4c"/>
                      </g>
                    </g>
                  </g>
                  <g id="Group_1017" data-name="Group 1017" transform="translate(10.153 0.899)">
                    <g id="Group_1016" data-name="Group 1016">
                      <path id="Path_1970" data-name="Path 1970" d="M456.257,651.56,394.84,676.123l53.179,41.589L509.4,693.395Z" transform="translate(-394.84 -651.56)" fill="#d6d6d6"/>
                    </g>
                  </g>
                  <g id="Group_1018" data-name="Group 1018" transform="translate(63.014 43.579)">
                    <path id="Path_1971" data-name="Path 1971" d="M604.369,769.73l-.069.459-63.1,25.228.065-.466Z" transform="translate(-541.2 -769.73)" fill="#979797"/>
                  </g>
                  <g id="Group_1019" data-name="Group 1019" transform="translate(40.903 12.132)">
                    <path id="Path_1972" data-name="Path 1972" d="M535,725.636l-.43.181L479.98,682.841l.43-.181Z" transform="translate(-479.98 -682.66)" fill="#979797"/>
                  </g>
                  <g id="Group_1020" data-name="Group 1020" transform="translate(95.306 55.151)">
                    <path id="Path_1973" data-name="Path 1973" d="M631.145,801.77l-.141.957-.394-.058.1-.733Z" transform="translate(-630.61 -801.77)" fill="#979797"/>
                  </g>
                </g>
                <path id="Path_1974" data-name="Path 1974" d="M613.237,796.91l-8.574,59.442-8.733,3.467L604.5,800.4Z" transform="translate(-513.149 -743.514)" fill="#05101c"/>
                <path id="Path_1975" data-name="Path 1975" d="M532.168,720.911,528,722.569l-.437.188-4.135,1.658L469.01,681.362l3.962-1.582.437-.188,4.305-1.723Z" transform="translate(-432.069 -667.468)" fill="#001327"/>
                <path id="Path_1976" data-name="Path 1976" d="M448.755,776.609l-8.578,59.424-.094-.079-7.314-5.7,8.578-59.471Z" transform="translate(-408.918 -726.822)" fill="#05101c"/>
                <path id="Path_1977" data-name="Path 1977" d="M526.869,706.558l-63,25.365-3.489-2.774-.376-.3-3.135-2.456-.39-.307L509.421,704.8l3.987-1.6,6.079-2.442L522.358,703l1.875,1.488Z" transform="translate(-424.065 -682.085)" fill="#001327"/>
              </g>
              <g id="Group_1028" data-name="Group 1028" transform="translate(101.562 51.171)">
                <g id="Group_1023" data-name="Group 1023">
                  <path id="Path_1978" data-name="Path 1978" d="M666.162,805.215,647.93,812.5l2.088-14.469,18.232-7.285Z" transform="translate(-647.93 -790.75)" fill="#e4e4e4"/>
                </g>
                <path id="Path_1979" data-name="Path 1979" d="M671.9,799.254,657.14,805.16l.235-1.622,14.761-5.9Z" transform="translate(-653.814 -795.151)" fill="#4c4c4c"/>
                <g id="Group_1024" data-name="Group 1024" transform="translate(2.907 6.306)">
                  <path id="Path_1980" data-name="Path 1980" d="M670.741,808.918l-14.761,5.9.1-.715,14.761-5.894Z" transform="translate(-655.98 -808.21)" fill="#b7b7b7"/>
                </g>
                <g id="Group_1025" data-name="Group 1025" transform="translate(2.633 8.202)">
                  <path id="Path_1981" data-name="Path 1981" d="M669.985,814.175,655.22,820.08l.1-.715,14.761-5.905Z" transform="translate(-655.22 -813.46)" fill="#b7b7b7"/>
                </g>
                <g id="Group_1026" data-name="Group 1026" transform="translate(2.34 10.246)">
                  <path id="Path_1982" data-name="Path 1982" d="M669.171,819.835l-14.761,5.9.1-.715,14.765-5.9Z" transform="translate(-654.41 -819.12)" fill="#b7b7b7"/>
                </g>
                <g id="Group_1027" data-name="Group 1027" transform="translate(2.066 12.15)">
                  <path id="Path_1983" data-name="Path 1983" d="M668.411,825.105l-14.761,5.9.1-.715,14.761-5.9Z" transform="translate(-653.65 -824.39)" fill="#b7b7b7"/>
                </g>
              </g>
            </g>
            <g id="Group_1030" data-name="Group 1030" transform="translate(82.485 210.265)">
              <path id="Path_1984" data-name="Path 1984" d="M589.08,708.478l-14.812.3-16.249.343-.029-1.521,20.265-.426,8.95-.188Z" transform="translate(-557.99 -706.99)" fill="#4c4c4c"/>
            </g>
            <path id="Path_1985" data-name="Path 1985" d="M551.875,704.21l1.885,4.717-3.521,1.4-1.889-4.713Z" transform="translate(-469.347 -494.949)" fill="#a2a2a2"/>
            <path id="Path_1986" data-name="Path 1986" d="M555.136,697.35a3.7,3.7,0,0,0-.22.845,6.455,6.455,0,0,0,.029,1.766l.007.018a.984.984,0,0,1,.563.249,3.19,3.19,0,0,1,1.076,2.647,1.149,1.149,0,0,1-.242.589,5.815,5.815,0,0,0,1.192,1.3,3.719,3.719,0,0,0,.744.459,2.1,2.1,0,0,0,1.7.144,1.966,1.966,0,0,0,.867-.726,3.4,3.4,0,0,0,.495-1.4,7.851,7.851,0,0,0-2.633-6.588A3.294,3.294,0,0,0,557.4,696a1.9,1.9,0,0,0-1.123.069A2.135,2.135,0,0,0,555.136,697.35Z" transform="translate(-473.511 -489.667)" fill="#a2a2a2"/>
            <path id="Path_1987" data-name="Path 1987" d="M550.9,697.216l2.839-1.134a1.873,1.873,0,0,1,1.123-.069l3.456,8.646a1.946,1.946,0,0,1-.867.726l-2.839,1.13-1.112-2.781a.58.58,0,0,0,.311-.257,1.181,1.181,0,0,0,.242-.589,3.185,3.185,0,0,0-1.076-2.647.973.973,0,0,0-.563-.249l-.007-.018a.814.814,0,0,0-.4.029Z" transform="translate(-470.976 -489.678)" fill="#a2a2a2"/>
            <path id="Path_1988" data-name="Path 1988" d="M550.838,699.815a2.709,2.709,0,0,0-.74-.444,2.016,2.016,0,0,0-1.694-.137,2.478,2.478,0,0,0-1.358,2.12,7.174,7.174,0,0,0,.473,3.467,9.389,9.389,0,0,0,.679,1.394,6.575,6.575,0,0,0,1.466,1.708,2.5,2.5,0,0,0,2.445.6,2.106,2.106,0,0,0,1.141-1.286,3.072,3.072,0,0,0,.213-.834A7.848,7.848,0,0,0,550.838,699.815Zm.719,5.078a1.208,1.208,0,0,1-.242.6.6.6,0,0,1-.314.246,1.027,1.027,0,0,1-.982-.249,1.557,1.557,0,0,1-.311-.307,3.274,3.274,0,0,1-.679-1.394,2.53,2.53,0,0,1-.065-.935,1.053,1.053,0,0,1,.553-.845.62.62,0,0,1,.39-.018l.011.014a.917.917,0,0,1,.567.249,2.265,2.265,0,0,1,.311.307l.188-.123.87,1.25-.361.256A2.52,2.52,0,0,1,551.557,704.893Z" transform="translate(-468.479 -491.688)" fill="#d6d6d6"/>
            <g id="Group_1031" data-name="Group 1031" transform="translate(39 234.767)">
              <path id="Path_1989" data-name="Path 1989" d="M447.616,775.924l-8.639,59.9-1.387-1.113,8.643-59.886Z" transform="translate(-437.59 -774.83)" fill="#4c4c4c"/>
            </g>
            <g id="Group_1032" data-name="Group 1032" transform="translate(47.646 210.749)">
              <path id="Path_1990" data-name="Path 1990" d="M558.588,709.58l-.361.256a3.3,3.3,0,0,0-.7-1.383l.188-.123Z" transform="translate(-522.857 -708.33)" fill="#d6d6d6"/>
              <path id="Path_1991" data-name="Path 1991" d="M496.9,710.06l-1.784,1.242-1.51,1.033L462.913,733.67l-1.383-1.109,31.4-21.616,1.51-1.037,1.766-1.228A3.309,3.309,0,0,1,496.9,710.06Z" transform="translate(-461.53 -708.553)" fill="#4c4c4c"/>
            </g>
            <g id="Group_1033" data-name="Group 1033" transform="translate(82.669 116.346)">
              <path id="Path_1992" data-name="Path 1992" d="M558.691,711.25a1.986,1.986,0,0,1,.166.578l-.014-.014-.343-.408Z" transform="translate(-558.5 -615.792)" fill="#4c4c4c"/>
              <path id="Path_1993" data-name="Path 1993" d="M675.756,446.95,569.38,539.194c.188.3.372.621.531.939l105.618-91.586Z" transform="translate(-565.45 -446.95)" fill="#4c4c4c"/>
            </g>
            <g id="Group_1034" data-name="Group 1034" transform="translate(6.032 88.084)">
              <path id="Path_1994" data-name="Path 1994" d="M422.525,493.229,346.31,369.267l.91-.567,76.074,124.171Z" transform="translate(-346.31 -368.7)" fill="#4c4c4c"/>
            </g>
            <g id="Group_1035" data-name="Group 1035" transform="translate(60.002 128.557)">
              <path id="Path_1995" data-name="Path 1995" d="M517.847,564.585,495.74,481.031l1.037-.271,21.977,83.7Z" transform="translate(-495.74 -480.76)" fill="#4c4c4c"/>
            </g>
            <g id="Group_1036" data-name="Group 1036" transform="translate(82.561 136.875)">
              <path id="Path_1996" data-name="Path 1996" d="M558.5,711.052a1.985,1.985,0,0,1,.166.578l-.014-.015-.451-.3.256-.376A.2.2,0,0,1,558.5,711.052Z" transform="translate(-558.2 -636.123)" fill="#4c4c4c"/>
              <path id="Path_1997" data-name="Path 1997" d="M614.588,504.379l-47.082,70.8a6.249,6.249,0,0,0-.726-.863L613.7,503.79Z" transform="translate(-563.681 -503.79)" fill="#4c4c4c"/>
            </g>
            <g id="Group_1037" data-name="Group 1037">
              <path id="Path_1998" data-name="Path 1998" d="M520.721,165.953c-35.059-32.314-98.149-41.416-140.912-20.33S330.8,209.991,365.861,242.3s98.145,41.416,140.912,20.33S555.777,198.267,520.721,165.953Z" transform="translate(-338.267 -130.849)" fill="#d59a13"/>
              <path id="Path_1999" data-name="Path 1999" d="M550.257,204.2c-.549-15.693-8.347-31.931-23.762-46.147a112.732,112.732,0,0,0-23.288-16.35A141.274,141.274,0,0,0,470.7,129.343q-7.476-1.847-15.133-2.951c-.574-.083-1.141-.166-1.719-.224-4.291-.581-8.618-.975-12.937-1.174-4.049-.188-8.112-.224-12.135-.076-.09,0-.2.011-.282.011q-6.631.233-13.136,1.073c-.007-.014-.007-.014-.025,0a117.162,117.162,0,0,0-36.645,10.734,90.105,90.105,0,0,0-10.958,6.371c23.924-9.387,52.576-10.723,79.339-4.981.513-.1,1.04-.2,1.589-.256a2.726,2.726,0,0,1,.3-.022,12.89,12.89,0,0,1,1.676-.1c.5-.007,1.008-.007,1.528.025.278.014.571.029.845.058.6.076,1.2.163,1.806.274.361.065.7.141,1.066.22.332.087.665.173.986.271a.1.1,0,0,1,.083.025c.285.079.567.159.845.264a.6.6,0,0,1,.21.069c.256.09.509.188.748.289a1.254,1.254,0,0,1,.22.083,15.041,15.041,0,0,1,3.435,1.99,9.58,9.58,0,0,1,1.524,1.474c1.983,2.395,1.856,5.035-.224,6.974a9.165,9.165,0,0,1-2.759,1.661,17.124,17.124,0,0,1-7.592.975,20.189,20.189,0,0,1-3.03-.451,18.721,18.721,0,0,1-4.637-1.64,13.5,13.5,0,0,1-2.239-1.409,12.359,12.359,0,0,1-1.123-1.008c-5.985-.163-18.954-.228-30,2.192a114.4,114.4,0,0,0-27.622,9.683c-26.03,12.84-39.166,33.524-38.389,55.256a79.484,79.484,0,0,0,17.762,23.122c1.77,1.64,3.6,3.2,5.508,4.721a123.726,123.726,0,0,0,33.553,18.777c32.119,12.193,70.27,13.284,100.738,1.34,2.723-1.065,5.4-2.236,7.986-3.514C537.9,246.623,551.033,225.935,550.257,204.2Z" transform="translate(-340.253 -124.823)" fill="#ebebeb"/>
              <path id="Path_2000" data-name="Path 2000" d="M416.638,153.449a90.108,90.108,0,0,0-10.958,6.371c3.344-1.311,6.786-2.449,10.3-3.449a73.3,73.3,0,0,1,6.06-5.371C420.21,151.777,418.4,152.578,416.638,153.449Z" transform="translate(-378.205 -141.543)" fill="#ebebeb"/>
              <path id="Path_2001" data-name="Path 2001" d="M398.355,191.765c3.579,1.8,8.043,6.274,13.418,4.493,4.117-1.965,8.058-2.673,10.033-7.5,1.423,7.874,1.759,23.267,13.392,22.389,2.507.361,6.985-4.107,8.78-7.682,1.589,15.574,19.651,23.292,35.045,22.956,7.877-1.423,18.261-2.478,21.851-9.632,3.406-5.9,9.141-10.189,10.044-16.451-.361,2.507.35,6.443,3.034,5.551,2.507.361.722-5.009,2.337-7.335,11.442,9.322,33.264,17.586,41.874,2.207,3.59-7.155,6.288-16.993,1.112-25.412-2.142-2.864-2.853-6.8-5-9.672,2.322,1.614,4.117-1.961,4.3-3.214a13.553,13.553,0,0,0,1.372-1c-1.123-1.149-2.279-2.29-3.5-3.417a112.736,112.736,0,0,0-23.289-16.35,141.275,141.275,0,0,0-32.509-12.363q-7.476-1.847-15.133-2.951c-.574-.083-1.141-.166-1.719-.224-4.291-.581-8.618-.975-12.937-1.174-4.049-.188-8.112-.224-12.135-.076-.09,0-.2.011-.282.011q-6.631.233-13.136,1.073c-.007-.014-.007-.014-.025,0a120.335,120.335,0,0,0-31.245,8.285,72,72,0,0,0-6.06,5.371c21.605-6.154,46.021-6.472,69.042-1.535.513-.1,1.04-.2,1.589-.256a2.721,2.721,0,0,1,.3-.022,12.884,12.884,0,0,1,1.676-.1c.5-.007,1.008-.007,1.528.025.278.014.571.029.845.058.6.076,1.2.163,1.806.275.361.065.7.141,1.065.22.332.087.665.173.986.271a.1.1,0,0,1,.083.025c.285.079.567.159.845.264a.6.6,0,0,1,.21.069c.256.09.509.188.748.289a1.25,1.25,0,0,1,.22.083,15.041,15.041,0,0,1,3.435,1.99,9.586,9.586,0,0,1,1.524,1.474c1.983,2.395,1.856,5.035-.224,6.974a9.166,9.166,0,0,1-2.759,1.661,17.125,17.125,0,0,1-7.592.975,20.194,20.194,0,0,1-3.03-.451,18.72,18.72,0,0,1-4.637-1.64,13.5,13.5,0,0,1-2.239-1.409,12.358,12.358,0,0,1-1.123-1.008c-5.985-.163-18.954-.228-30,2.192a114.4,114.4,0,0,0-27.622,9.683,89.12,89.12,0,0,0-11.958,7.072l.534.076C394.985,170.824,387.986,183.877,398.355,191.765Z" transform="translate(-370.205 -124.817)" fill="#f4f4f4"/>
              <path id="Path_2002" data-name="Path 2002" d="M431.681,165.323a159.2,159.2,0,0,0-21.62,1.289A108.894,108.894,0,0,0,374.052,177.2c-26.03,12.84-39.166,33.524-38.389,55.256-12.818-25.936-5.1-53.836,21.421-71.913,23.924-9.387,52.576-10.723,79.339-4.981a14.494,14.494,0,0,0-2.163.661C429.521,158.117,428.528,162,431.681,165.323Z" transform="translate(-329.609 -142.264)" fill="#d59a13"/>
              <path id="Path_2003" data-name="Path 2003" d="M664.091,177.662a159.6,159.6,0,0,1,20.377,7.35,108.838,108.838,0,0,1,31.541,20.334c21.338,19.673,28.092,43.229,21.2,63.855,19.626-21.259,20.107-50.2-.22-75.034C716.7,178.4,689.594,169.019,662.3,166.96a14.4,14.4,0,0,1,1.892,1.246C668.2,171.366,668.05,175.372,664.091,177.662Z" transform="translate(-542.141 -151.739)" fill="#d59a13"/>
              <path id="Path_2004" data-name="Path 2004" d="M444.343,306.679A123.728,123.728,0,0,1,410.79,287.9c-.014-10.716,2.2-23.671,9.037-38.18,12.612-26.77,43.875-49.571,67.07-54.382a18.522,18.522,0,0,0,4.638,1.64C474.01,209.184,440.327,291.011,444.343,306.679Z" transform="translate(-381.47 -169.869)" fill="#d59a13"/>
              <path id="Path_2005" data-name="Path 2005" d="M656.876,319.176a123.93,123.93,0,0,0,37.493-8.527c3.041-10.272,4.58-23.328,2.124-39.173-4.526-29.244-28.074-59.955-48.961-71.126a18.731,18.731,0,0,1-4.912.264C655.983,217.271,665.157,305.285,656.876,319.176Z" transform="translate(-529.569 -173.069)" fill="#d59a13"/>
              <path id="Path_2006" data-name="Path 2006" d="M695.43,149.68c-16.09-4.829-34.7-5.428-44.092-2.337-.051-.022-.094-.04-.144-.058a1.373,1.373,0,0,0-.22-.083c-.238-.112-.495-.2-.748-.289a.573.573,0,0,0-.209-.069c-.17-.065-.354-.126-.538-.181a2.053,2.053,0,0,0-.311-.083.1.1,0,0,0-.083-.025,9.66,9.66,0,0,0-.986-.271c-.307-.083-.618-.155-.928-.213.314-1.911,7.682-6.447,15.751-8.762A141.913,141.913,0,0,1,695.43,149.68Z" transform="translate(-532.476 -132.798)" fill="#5c5c5c"/>
              <path id="Path_2007" data-name="Path 2007" d="M574.36,137.759c-.52-.036-1.029-.032-1.528-.025a14.205,14.205,0,0,0-1.676.1c-6.754-4.428-20.435-11.236-33.6-11.843q6.5-.845,13.136-1.073c.087,0,.191-.011.282-.011,4.023-.148,8.087-.112,12.135.076C567.2,128.188,573.576,133.992,574.36,137.759Z" transform="translate(-462.454 -124.817)" fill="#5c5c5c"/>
              <path id="Path_2008" data-name="Path 2008" d="M468.639,156.223a14.937,14.937,0,0,1,2.163-.661c-26.763-5.743-55.415-4.4-79.339,4.981-1.806,1.232-3.511,2.51-5.143,3.828-4.309,7.14-4.5,14.891,4.244,20.323a10.836,10.836,0,0,0,3.265,1.517,87.452,87.452,0,0,1,14.6-9.015,108.783,108.783,0,0,1,36.009-10.586,159.748,159.748,0,0,1,21.62-1.289C462.907,162.005,463.9,158.119,468.639,156.223Z" transform="translate(-363.989 -142.266)" fill="#fdb819"/>
              <path id="Path_2009" data-name="Path 2009" d="M745.327,210.7a53.209,53.209,0,0,0-2.163-7.816,76.251,76.251,0,0,0-6.183-8.719c-20.291-15.765-47.4-25.148-74.691-27.207a14.4,14.4,0,0,1,1.893,1.246c4.009,3.16,3.861,7.169-.1,9.459a159.612,159.612,0,0,1,20.377,7.35A108.838,108.838,0,0,1,716,205.349a80.939,80.939,0,0,1,16.946,21.53C742.182,227.677,746.465,219.056,745.327,210.7Z" transform="translate(-542.135 -151.739)" fill="#fdb819"/>
              <path id="Path_2010" data-name="Path 2010" d="M515.394,196.98a18.718,18.718,0,0,1-4.637-1.64c-20.544,4.258-47.408,22.635-62.042,45.381-1.531,2.391.339,8.639,1.38,10.915a16.488,16.488,0,0,0,8.61,8.578c4.247,1.669,8.856.813,12.916-.975,2.907-1.282,10.51-4.923,11.807-8.011C493.58,227.051,506.542,203.141,515.394,196.98Z" transform="translate(-405.327 -169.869)" fill="#fdb819"/>
              <path id="Path_2011" data-name="Path 2011" d="M647.532,200.35a18.732,18.732,0,0,1-4.912.264c7.307,9.112,13.363,39.563,16,67.561,4.666,6.042,10.72,11.084,18.962,9.6,10.644-2.156,14.075-10.467,15.494-19.995C684.693,233.134,665.164,209.78,647.532,200.35Z" transform="translate(-529.569 -173.069)" fill="#fdb819"/>
              <path id="Path_2012" data-name="Path 2012" d="M662.921,137.33c-8.069,2.312-15.433,6.851-15.751,8.762.314.058.621.13.928.213a8.1,8.1,0,0,1,.986.271.1.1,0,0,1,.083.025,2.592,2.592,0,0,1,.311.083c.184.054.365.116.538.181a.6.6,0,0,1,.21.069c.256.09.509.177.748.289a1.249,1.249,0,0,1,.22.083c.051.018.094.04.144.058,9.4-3.1,28-2.492,44.092,2.337A141.251,141.251,0,0,0,662.921,137.33Z" transform="translate(-532.476 -132.811)" fill="#fdb819"/>
              <path id="Path_2013" data-name="Path 2013" d="M574.36,137.759c-.52-.036-1.029-.032-1.528-.025a14.205,14.205,0,0,0-1.676.1c-6.754-4.428-20.435-11.236-33.6-11.843q6.5-.845,13.136-1.073c.087,0,.191-.011.282-.011,4.023-.148,8.087-.112,12.135.076C567.2,128.188,573.576,133.992,574.36,137.759Z" transform="translate(-462.454 -124.817)" fill="#fdb819"/>
            </g>
          </g>
          <g id="Group_1093" data-name="Group 1093" transform="translate(0 88.779)" opacity="0.7">
            <path id="Path_2014" data-name="Path 2014" d="M128.294,735.758l-.7.383.022-.8.7-.379Z" transform="translate(-97.891 -603.372)" fill="#4c4c4c"/>
            <g id="Group_1084" data-name="Group 1084" transform="translate(16.765 83.845)">
              <g id="Group_1077" data-name="Group 1077">
                <g id="Group_1076" data-name="Group 1076">
                  <g id="Group_1040" data-name="Group 1040" transform="translate(0.69)">
                    <g id="Group_1039" data-name="Group 1039">
                      <path id="Path_2015" data-name="Path 2015" d="M134.94,611.893l-3.532-2.167-11.352-6.956-10.886,5.9-1.8.975-.181.1-1.654.9L93.69,617.065l10.373,6.364,1.04.639.184.116,1.679,1.029,1.676,1.033,11.178,6.851,11.774-6.389,1.726-.939.184-.1,1.737-.939,10.922-5.927.014-.011Z" transform="translate(-93.69 -602.77)" fill="#e4e4e4"/>
                    </g>
                  </g>
                  <g id="Group_1041" data-name="Group 1041" transform="translate(0 14.299)">
                    <path id="Path_2016" data-name="Path 2016" d="M118.608,658.382l-.7,26.405-11.171-6.8-.047-.025-1.972-1.2-.665-.4-.863-.52-1.04-.636-10.373-6.31.7-26.532,11.409,7,.867.527.661.412,2.019,1.232Z" transform="translate(-91.78 -642.36)" fill="#979797"/>
                  </g>
                  <g id="Group_1043" data-name="Group 1043" transform="translate(26.134 16.022)">
                    <g id="Group_1042" data-name="Group 1042">
                      <path id="Path_2017" data-name="Path 2017" d="M180.237,653.06l-.943.513-.683.372-.137.079-.177.094-1.7.921-11.756,6.389-.7,26.405L175.9,681.5l2.019-1.087.683-.376.943-.506,10.944-5.9.7-26.5Z" transform="translate(-164.14 -647.13)" fill="#b9b9b9"/>
                    </g>
                  </g>
                  <g id="Group_1060" data-name="Group 1060" transform="translate(27.059 45.487)">
                    <g id="Group_1054" data-name="Group 1054" transform="translate(0.715 1.447)">
                      <g id="Group_1048" data-name="Group 1048" transform="translate(0 0.979)">
                        <g id="Group_1045" data-name="Group 1045" transform="translate(0.581 0.17)">
                          <g id="Group_1044" data-name="Group 1044">
                            <path id="Path_2018" data-name="Path 2018" d="M170.471,738.992l-.181.1.083-3.092.181-.1Z" transform="translate(-170.29 -735.9)" fill="#4c4c4c"/>
                          </g>
                        </g>
                        <g id="Group_1047" data-name="Group 1047">
                          <g id="Group_1046" data-name="Group 1046">
                            <path id="Path_2019" data-name="Path 2019" d="M170.15,735.932l-.13.213-.589-.419-.621,1.073-.13-.069.758-1.3Z" transform="translate(-168.68 -735.43)" fill="#4c4c4c"/>
                          </g>
                        </g>
                      </g>
                      <g id="Group_1053" data-name="Group 1053" transform="translate(1.799)">
                        <g id="Group_1050" data-name="Group 1050" transform="translate(0.589 0.17)">
                          <g id="Group_1049" data-name="Group 1049">
                            <path id="Path_2020" data-name="Path 2020" d="M175.471,736.282l-.181.1.079-3.092.181-.1Z" transform="translate(-175.29 -733.19)" fill="#4c4c4c"/>
                          </g>
                        </g>
                        <g id="Group_1052" data-name="Group 1052">
                          <g id="Group_1051" data-name="Group 1051">
                            <path id="Path_2021" data-name="Path 2021" d="M175.141,733.218l-.141.213-.581-.412-.625,1.069-.134-.065.769-1.3Z" transform="translate(-173.66 -732.72)" fill="#4c4c4c"/>
                          </g>
                        </g>
                      </g>
                    </g>
                    <g id="Group_1056" data-name="Group 1056" transform="translate(0.517 4.221)">
                      <g id="Group_1055" data-name="Group 1055">
                        <path id="Path_2022" data-name="Path 2022" d="M171.586,740.617l-3.37,1.828c-.051.025-.087,0-.087-.054a.2.2,0,0,1,.09-.152l3.37-1.824c.047-.032.087-.007.087.054A.209.209,0,0,1,171.586,740.617Z" transform="translate(-168.13 -740.401)" fill="#4c4c4c"/>
                      </g>
                    </g>
                    <g id="Group_1059" data-name="Group 1059">
                      <g id="Group_1058" data-name="Group 1058">
                        <g id="Group_1057" data-name="Group 1057">
                          <path id="Path_2023" data-name="Path 2023" d="M170.622,733.985l-3.308,1.8c-.35.191-.625.022-.614-.372l.1-3.763a1.38,1.38,0,0,1,.654-1.062l3.308-1.8c.347-.184.621-.018.61.379l-.1,3.763A1.382,1.382,0,0,1,170.622,733.985Zm-3.178-3.193a.984.984,0,0,0-.466.758l-.1,3.76c-.007.285.191.408.437.271l3.308-1.8a.967.967,0,0,0,.459-.758l.1-3.76c.007-.285-.191-.4-.437-.271Z" transform="translate(-166.699 -728.712)" fill="#4c4c4c"/>
                        </g>
                      </g>
                    </g>
                  </g>
                  <g id="Group_1070" data-name="Group 1070" transform="translate(32.791 42.211)">
                    <g id="Group_1063" data-name="Group 1063">
                      <g id="Group_1062" data-name="Group 1062">
                        <g id="Group_1061" data-name="Group 1061">
                          <path id="Path_2024" data-name="Path 2024" d="M186.6,725.07l-3.4,1.846c-.358.2-.639.022-.628-.383l.1-3.872a1.411,1.411,0,0,1,.668-1.091l3.4-1.849c.358-.191.636-.022.625.386l-.1,3.868A1.413,1.413,0,0,1,186.6,725.07Zm-3.269-3.287a.994.994,0,0,0-.477.777l-.1,3.872c-.007.289.191.415.448.274l3.4-1.846a1.02,1.02,0,0,0,.477-.784l.1-3.872c.007-.289-.2-.415-.448-.275Z" transform="translate(-182.569 -719.642)" fill="#4c4c4c"/>
                        </g>
                      </g>
                    </g>
                    <g id="Group_1069" data-name="Group 1069" transform="translate(1.517 1.574)">
                      <g id="Group_1065" data-name="Group 1065" transform="translate(0.744 0.733)">
                        <g id="Group_1064" data-name="Group 1064">
                          <path id="Path_2025" data-name="Path 2025" d="M188.924,729.023c-.054.025-.1,0-.094-.058l.072-2.77a.193.193,0,0,1,.1-.155c.051-.029.09,0,.09.054l-.076,2.774A.218.218,0,0,1,188.924,729.023Z" transform="translate(-188.829 -726.028)" fill="#4c4c4c"/>
                        </g>
                      </g>
                      <g id="Group_1067" data-name="Group 1067" transform="translate(0.322 3.276)">
                        <g id="Group_1066" data-name="Group 1066">
                          <path id="Path_2026" data-name="Path 2026" d="M188.6,733.291l-.842.459a.058.058,0,0,1-.094-.054.228.228,0,0,1,.1-.159l.842-.455c.051-.025.09,0,.09.054A.187.187,0,0,1,188.6,733.291Z" transform="translate(-187.66 -733.071)" fill="#4c4c4c"/>
                        </g>
                      </g>
                      <g id="Group_1068" data-name="Group 1068">
                        <path id="Path_2027" data-name="Path 2027" d="M188.59,724l-.033,1.293a1.194,1.194,0,0,1-.571.936l-.679.368c-.307.17-.545.022-.538-.329l.033-1.3.336-.184-.036,1.387c0,.054.04.083.09.054a.2.2,0,0,0,.1-.159l.036-1.387Z" transform="translate(-186.77 -724)" fill="#4c4c4c"/>
                      </g>
                    </g>
                  </g>
                  <g id="Group_1072" data-name="Group 1072" transform="translate(1.398 0.401)">
                    <g id="Group_1071" data-name="Group 1071">
                      <path id="Path_2028" data-name="Path 2028" d="M121.293,603.88,95.65,617.8l25.437,15.483,25.64-13.808Z" transform="translate(-95.65 -603.88)" fill="#d6d6d6"/>
                    </g>
                  </g>
                  <g id="Group_1073" data-name="Group 1073" transform="translate(26.81 16.289)">
                    <path id="Path_2029" data-name="Path 2029" d="M192.365,647.87l-.007.206-26.348,14.3.007-.206Z" transform="translate(-166.01 -647.87)" fill="#979797"/>
                  </g>
                  <g id="Group_1074" data-name="Group 1074" transform="translate(14.194 6.88)">
                    <path id="Path_2030" data-name="Path 2030" d="M157.388,637.834l-.177.1L131.08,621.918l.177-.1Z" transform="translate(-131.08 -621.82)" fill="#979797"/>
                  </g>
                  <g id="Group_1075" data-name="Group 1075" transform="translate(40.278 22.92)">
                    <path id="Path_2031" data-name="Path 2031" d="M203.488,666.23l-.011.426-.177,0,.011-.329Z" transform="translate(-203.3 -666.23)" fill="#979797"/>
                  </g>
                </g>
                <path id="Path_2032" data-name="Path 2032" d="M201.039,663.5l-.7,26.485-3.648,1.968.7-26.474Z" transform="translate(-158.799 -641.566)" fill="#05101c"/>
                <path id="Path_2033" data-name="Path 2033" d="M156.206,635.154l-1.741.939-.181.108-1.73.939L126.5,621.079l1.654-.9.181-.1,1.8-.975Z" transform="translate(-113.96 -613.202)" fill="#001327"/>
                <path id="Path_2034" data-name="Path 2034" d="M127.614,663.861l-.7,26.478-.047-.029-3.5-2.124.7-26.5Z" transform="translate(-111.961 -640.41)" fill="#05101c"/>
                <path id="Path_2035" data-name="Path 2035" d="M155.133,624.2l-26.3,14.353-1.672-1.036-.177-.112-1.5-.917-.184-.112,22.1-12.052,1.665-.906,2.539-1.383,1.372.841.9.553Z" transform="translate(-113.193 -615.074)" fill="#001327"/>
              </g>
              <g id="Group_1083" data-name="Group 1083" transform="translate(43.89 19.836)">
                <g id="Group_1078" data-name="Group 1078">
                  <path id="Path_2036" data-name="Path 2036" d="M220.91,664.137l-7.61,4.128.166-6.443,7.617-4.132Z" transform="translate(-213.3 -657.69)" fill="#e4e4e4"/>
                </g>
                <path id="Path_2037" data-name="Path 2037" d="M221.825,661.719l-6.165,3.348.018-.726L221.843,661Z" transform="translate(-214.808 -659.804)" fill="#4c4c4c"/>
                <g id="Group_1079" data-name="Group 1079" transform="translate(0.82 2.893)">
                  <path id="Path_2038" data-name="Path 2038" d="M221.732,666.018l-6.162,3.344.007-.318,6.162-3.344Z" transform="translate(-215.57 -665.7)" fill="#b7b7b7"/>
                </g>
                <g id="Group_1080" data-name="Group 1080" transform="translate(0.795 3.742)">
                  <path id="Path_2039" data-name="Path 2039" d="M221.665,668.368l-6.165,3.344.011-.318,6.162-3.344Z" transform="translate(-215.5 -668.05)" fill="#b7b7b7"/>
                </g>
                <g id="Group_1081" data-name="Group 1081" transform="translate(0.773 4.652)">
                  <path id="Path_2040" data-name="Path 2040" d="M221.6,670.888l-6.162,3.344.007-.318,6.165-3.344Z" transform="translate(-215.44 -670.57)" fill="#b7b7b7"/>
                </g>
                <g id="Group_1082" data-name="Group 1082" transform="translate(0.748 5.501)">
                  <path id="Path_2041" data-name="Path 2041" d="M221.535,673.238l-6.165,3.344.011-.318,6.162-3.344Z" transform="translate(-215.37 -672.92)" fill="#b7b7b7"/>
                </g>
              </g>
            </g>
            <g id="Group_1085" data-name="Group 1085" transform="translate(43.777 91.643)">
              <path id="Path_2042" data-name="Path 2042" d="M180.237,624.913l-6.476.9-7.1.99-.09-.664,8.856-1.232,3.911-.542Z" transform="translate(-166.57 -624.36)" fill="#4c4c4c"/>
            </g>
            <rect id="Rectangle_109" data-name="Rectangle 109" width="1.672" height="2.239" transform="matrix(0.879, -0.477, 0.477, 0.879, 42.228, 93.507)" fill="#a2a2a2"/>
            <path id="Path_2043" data-name="Path 2043" d="M164.974,624.242a1.712,1.712,0,0,0-.054.379,2.765,2.765,0,0,0,.1.773l0,.007a.452.452,0,0,1,.26.079,1.408,1.408,0,0,1,.607,1.105.491.491,0,0,1-.076.271,2.5,2.5,0,0,0,.589.509,1.893,1.893,0,0,0,.35.163.924.924,0,0,0,.751-.025.874.874,0,0,0,.343-.361A1.517,1.517,0,0,0,168,626.5a3.462,3.462,0,0,0-1.492-2.752,1.464,1.464,0,0,0-.61-.22.815.815,0,0,0-.488.09A.931.931,0,0,0,164.974,624.242Z" transform="translate(-121.738 -532.184)" fill="#a2a2a2"/>
            <path id="Path_2044" data-name="Path 2044" d="M162.99,624.265l1.185-.643a.851.851,0,0,1,.488-.09l1.958,3.608a.831.831,0,0,1-.343.361l-1.185.643-.628-1.163a.255.255,0,0,0,.123-.13.482.482,0,0,0,.076-.271,1.418,1.418,0,0,0-.607-1.105.4.4,0,0,0-.26-.079l0-.007a.3.3,0,0,0-.173.036Z" transform="translate(-120.506 -532.185)" fill="#a2a2a2"/>
            <path id="Path_2045" data-name="Path 2045" d="M163.227,625.543a1.1,1.1,0,0,0-.347-.155.889.889,0,0,0-.748.025,1.093,1.093,0,0,0-.484,1,3.14,3.14,0,0,0,.383,1.492,4.487,4.487,0,0,0,.368.578,2.97,2.97,0,0,0,.73.675,1.1,1.1,0,0,0,1.1.137.919.919,0,0,0,.433-.625,1.368,1.368,0,0,0,.051-.376A3.45,3.45,0,0,0,163.227,625.543Zm.578,2.189a.528.528,0,0,1-.072.275.268.268,0,0,1-.126.126.451.451,0,0,1-.441-.058.513.513,0,0,1-.152-.119,1.445,1.445,0,0,1-.368-.574,1.11,1.11,0,0,1-.076-.4.458.458,0,0,1,.2-.4.294.294,0,0,1,.17-.029l.007.007a.425.425,0,0,1,.264.083.76.76,0,0,1,.152.119l.076-.065.448.5-.144.134A1.414,1.414,0,0,1,163.8,627.732Z" transform="translate(-119.648 -533.33)" fill="#d6d6d6"/>
            <g id="Group_1086" data-name="Group 1086" transform="translate(29.034 105.671)">
              <path id="Path_2046" data-name="Path 2046" d="M127.119,663.612l-.7,26.687-.665-.415.708-26.683Z" transform="translate(-125.75 -663.2)" fill="#4c4c4c"/>
            </g>
            <g id="Group_1087" data-name="Group 1087" transform="translate(29.742 93.355)">
              <path id="Path_2047" data-name="Path 2047" d="M166.884,629.6l-.144.134a1.454,1.454,0,0,0-.379-.571l.076-.065Z" transform="translate(-152.401 -629.1)" fill="#d6d6d6"/>
              <path id="Path_2048" data-name="Path 2048" d="M142.049,629.844l-.719.632-.607.531-12.348,10.926-.665-.415,12.645-11.088.607-.531.712-.628A1.527,1.527,0,0,1,142.049,629.844Z" transform="translate(-127.71 -629.208)" fill="#4c4c4c"/>
            </g>
            <g id="Group_1088" data-name="Group 1088" transform="translate(43.914 46.312)">
              <path id="Path_2049" data-name="Path 2049" d="M167.026,630.33a.8.8,0,0,1,.1.246l-.007-.007-.17-.159Z" transform="translate(-166.95 -582.843)" fill="#4c4c4c"/>
              <path id="Path_2050" data-name="Path 2050" d="M213.1,498.85,171.24,544.737c.1.123.2.253.282.383l41.56-45.562Z" transform="translate(-169.691 -498.85)" fill="#4c4c4c"/>
            </g>
            <g id="Group_1089" data-name="Group 1089" transform="translate(3.994 43.502)">
              <path id="Path_2051" data-name="Path 2051" d="M96.189,541.753,56.42,491.362l.368-.292,39.718,50.488Z" transform="translate(-56.42 -491.07)" fill="#4c4c4c"/>
            </g>
            <g id="Group_1090" data-name="Group 1090" transform="translate(29.706 58.451)">
              <path id="Path_2052" data-name="Path 2052" d="M141.595,568.1,127.61,532.633l.441-.173L141.985,568Z" transform="translate(-127.61 -532.46)" fill="#4c4c4c"/>
            </g>
            <g id="Group_1091" data-name="Group 1091" transform="translate(43.871 58.411)">
              <path id="Path_2053" data-name="Path 2053" d="M166.949,630.253a.8.8,0,0,1,.1.246l-.007-.007-.213-.1.094-.177A.1.1,0,0,1,166.949,630.253Z" transform="translate(-166.83 -594.866)" fill="#4c4c4c"/>
              <path id="Path_2054" data-name="Path 2054" d="M187.277,532.563,170.291,566a2.934,2.934,0,0,0-.361-.343l16.928-33.311Z" transform="translate(-168.81 -532.35)" fill="#4c4c4c"/>
            </g>
            <g id="Group_1092" data-name="Group 1092">
              <path id="Path_2055" data-name="Path 2055" d="M127.726,384.512c-17.022-12.356-45.132-13.1-62.783-1.658s-18.16,30.721-1.138,43.073,45.132,13.1,62.783,1.658S144.748,396.864,127.726,384.512Z" transform="translate(-49.197 -373.252)" fill="#d59a13"/>
              <path id="Path_2056" data-name="Path 2056" d="M144.992,399.866c-1.051-6.848-5.3-13.562-12.786-19a49.933,49.933,0,0,0-11.045-5.967,62.625,62.625,0,0,0-14.877-3.745q-3.375-.423-6.783-.513c-.256-.007-.509-.014-.766-.011-1.907-.033-3.825.018-5.728.152-1.784.126-3.565.321-5.32.592-.04,0-.083.014-.123.018-1.929.3-3.832.672-5.7,1.145,0,0,0,0-.011,0a51.662,51.662,0,0,0-15.5,6.588,39.917,39.917,0,0,0-4.475,3.355c10-5.345,22.483-7.4,34.5-6.266.22-.072.444-.141.683-.2a.753.753,0,0,1,.13-.025,5.924,5.924,0,0,1,.73-.13,6.728,6.728,0,0,1,.672-.065c.123-.007.249-.014.372-.018.267,0,.535.007.805.025.159.011.314.025.477.043s.3.04.444.065a.047.047,0,0,1,.04.007c.126.022.256.04.383.072a.272.272,0,0,1,.094.018c.116.025.235.058.343.087.036.007.065.014.1.025a6.6,6.6,0,0,1,1.607.693,4.466,4.466,0,0,1,.744.567,2.093,2.093,0,0,1,.26,3.066,4.015,4.015,0,0,1-1.123.867,7.554,7.554,0,0,1-3.276.816,9.383,9.383,0,0,1-1.351-.04,8.075,8.075,0,0,1-2.116-.48,6.131,6.131,0,0,1-1.051-.5,5.308,5.308,0,0,1-.542-.383,59.8,59.8,0,0,0-13.035,2.5,50.559,50.559,0,0,0-11.6,5.663c-10.741,6.963-15.437,16.7-13.977,26.185a35.075,35.075,0,0,0,8.972,9.214q1.289.943,2.655,1.784a54.634,54.634,0,0,0,15.668,6.5c14.7,3.688,31.469,2.2,44.2-4.6,1.138-.607,2.25-1.257,3.319-1.95C141.76,419.085,146.452,409.347,144.992,399.866Z" transform="translate(-52.114 -370.624)" fill="#ebebeb"/>
              <path id="Path_2057" data-name="Path 2057" d="M76.875,391.791a39.917,39.917,0,0,0-4.475,3.355c1.4-.748,2.85-1.423,4.334-2.041a32.3,32.3,0,0,1,2.38-2.665C78.352,390.873,77.6,391.318,76.875,391.791Z" transform="translate(-62.635 -383.283)" fill="#ebebeb"/>
              <path id="Path_2058" data-name="Path 2058" d="M75.164,403.774c1.661.6,3.85,2.333,6.111,1.279,1.7-1.073,3.391-1.586,4.009-3.8,1.026,3.377,1.965,10.1,7.018,9.12,1.116.029,2.85-2.16,3.449-3.818,1.5,6.74,9.809,9.2,16.535,8.253,3.381-1.029,7.874-2.026,9.076-5.345,1.188-2.763,3.482-4.934,3.554-7.725-.029,1.116.484,2.806,1.614,2.279,1.116.029.058-2.232.646-3.334,5.493,3.5,15.48,5.992,18.46-1.188,1.206-3.319,1.882-7.769-.82-11.189-1.087-1.145-1.6-2.835-2.687-3.98,1.1.589,1.7-1.073,1.716-1.629.2-.166.383-.336.553-.506-.553-.448-1.116-.889-1.708-1.318a49.932,49.932,0,0,0-11.045-5.967,62.625,62.625,0,0,0-14.877-3.745q-3.375-.423-6.783-.513c-.256-.007-.509-.014-.766-.011-1.907-.033-3.825.018-5.728.152-1.784.126-3.565.321-5.32.592-.04,0-.083.014-.123.018-1.929.3-3.832.672-5.7,1.145,0,0,0,0-.011,0a53.039,53.039,0,0,0-13.262,5.237,31.7,31.7,0,0,0-2.38,2.665,63.98,63.98,0,0,1,30.169-4.226c.22-.072.444-.141.683-.2a.752.752,0,0,1,.13-.025,5.925,5.925,0,0,1,.73-.13,6.728,6.728,0,0,1,.672-.065c.123-.007.249-.014.372-.018.267,0,.535.007.805.025.159.011.314.025.477.043s.3.04.444.065a.047.047,0,0,1,.04.007c.126.022.256.04.383.072a.272.272,0,0,1,.094.018c.116.025.235.058.343.087.036.007.065.014.1.025a6.6,6.6,0,0,1,1.607.693,4.465,4.465,0,0,1,.744.567,2.093,2.093,0,0,1,.26,3.066,4.014,4.014,0,0,1-1.123.867,7.554,7.554,0,0,1-3.276.816A9.383,9.383,0,0,1,109,382.1a8.075,8.075,0,0,1-2.116-.48,6.13,6.13,0,0,1-1.051-.5,5.305,5.305,0,0,1-.542-.383,59.8,59.8,0,0,0-13.035,2.5,50.559,50.559,0,0,0-11.6,5.663,39.446,39.446,0,0,0-4.876,3.713c.079,0,.155,0,.238.007C72.614,394.77,70.216,400.853,75.164,403.774Z" transform="translate(-62.6 -370.624)" fill="#f4f4f4"/>
              <path id="Path_2059" data-name="Path 2059" d="M88.056,390.112a71.087,71.087,0,0,0-9.4,1.676,48.019,48.019,0,0,0-15.231,6.494c-10.741,6.963-15.437,16.7-13.977,26.185-6.949-10.705-5-23.325,5.685-32.607,10-5.345,22.483-7.4,34.5-6.266a6.348,6.348,0,0,0-.914.4C86.741,387.067,86.5,388.819,88.056,390.112Z" transform="translate(-45.362 -379.993)" fill="#d59a13"/>
              <path id="Path_2060" data-name="Path 2060" d="M185.726,391.044a70.158,70.158,0,0,1,9.3,2.171A47.963,47.963,0,0,1,209.9,400.5c10.362,7.523,14.534,17.5,12.576,26.886,7.505-10.322,6.227-23.028-3.958-32.863-9.7-5.862-22.06-8.578-34.124-8.076a6.628,6.628,0,0,1,.892.448C187.2,388.075,187.348,389.837,185.726,391.044Z" transform="translate(-134.177 -380.694)" fill="#d59a13"/>
              <path id="Path_2061" data-name="Path 2061" d="M104.091,452.059a54.721,54.721,0,0,1-15.668-6.5,39.212,39.212,0,0,1,1.994-17.192c4.146-12.377,16.672-23.978,26.586-27.276a8.372,8.372,0,0,0,2.116.48C112.073,407.819,101.523,445.4,104.091,452.059Z" transform="translate(-72.716 -390.086)" fill="#d59a13"/>
              <path id="Path_2062" data-name="Path 2062" d="M189.875,453.079a54.615,54.615,0,0,0,15.986-5.667,39.179,39.179,0,0,0-1.084-17.271c-3.485-12.58-15.382-24.823-25.109-28.641a8.081,8.081,0,0,1-2.138.368C184.241,408.478,192.79,446.567,189.875,453.079Z" transform="translate(-129.795 -390.348)" fill="#d59a13"/>
              <path id="Path_2063" data-name="Path 2063" d="M198.817,375.852c-7.3-1.286-15.48-.592-19.438,1.246-.022-.007-.043-.011-.065-.018s-.065-.018-.1-.025c-.112-.036-.228-.061-.343-.087a.271.271,0,0,0-.094-.018c-.079-.018-.163-.036-.246-.051a.843.843,0,0,0-.137-.022.065.065,0,0,0-.04-.007,3.668,3.668,0,0,0-.444-.065c-.137-.022-.278-.036-.419-.047.04-.852,3.034-3.222,6.451-4.648A62.449,62.449,0,0,1,198.817,375.852Z" transform="translate(-129.769 -371.573)" fill="#5c5c5c"/>
              <path id="Path_2064" data-name="Path 2064" d="M144.47,376.09c-.231.011-.455.04-.672.065a6.833,6.833,0,0,0-.73.13c-3.186-1.593-9.531-3.868-15.328-3.46q2.8-.7,5.7-1.145c.04-.007.083-.014.123-.018,1.755-.271,3.536-.466,5.32-.592C140.84,372.262,143.931,374.479,144.47,376.09Z" transform="translate(-97.987 -370.909)" fill="#5c5c5c"/>
              <path id="Path_2065" data-name="Path 2065" d="M100.872,385.985a6.346,6.346,0,0,1,.914-.4c-12.02-1.138-24.506.921-34.5,6.266-.726.632-1.409,1.279-2.055,1.94-1.521,3.352-1.206,6.758,2.9,8.686a4.7,4.7,0,0,0,1.51.5,38.48,38.48,0,0,1,5.934-4.7,48.1,48.1,0,0,1,15.231-6.494,71.186,71.186,0,0,1,9.4-1.676C98.658,388.813,98.9,387.061,100.872,385.985Z" transform="translate(-57.517 -379.987)" fill="#fdb819"/>
              <path id="Path_2066" data-name="Path 2066" d="M223.021,401.347a23.3,23.3,0,0,0-1.351-3.312,34.043,34.043,0,0,0-3.157-3.5c-9.7-5.862-22.06-8.578-34.124-8.076a6.639,6.639,0,0,1,.892.448c1.918,1.177,2.062,2.94.444,4.146a70.149,70.149,0,0,1,9.3,2.171,47.961,47.961,0,0,1,14.866,7.285,35.672,35.672,0,0,1,8.535,8.56C222.519,408.943,223.949,404.948,223.021,401.347Z" transform="translate(-134.177 -380.7)" fill="#fdb819"/>
              <path id="Path_2067" data-name="Path 2067" d="M125.9,401.57a8.076,8.076,0,0,1-2.116-.48c-8.78,2.922-19.6,12.356-24.849,23.072-.549,1.127.592,3.767,1.167,4.71a7.281,7.281,0,0,0,4.215,3.316,7.425,7.425,0,0,0,5.609-1.091c1.206-.711,4.352-2.694,4.76-4.114C117.887,415.866,122.337,404.723,125.9,401.57Z" transform="translate(-79.492 -390.086)" fill="#fdb819"/>
              <path id="Path_2068" data-name="Path 2068" d="M179.668,401.5a8.081,8.081,0,0,1-2.138.368c3.67,3.615,7.892,16.646,10.485,28.775,2.355,2.405,5.266,4.305,8.8,3.229,4.551-1.492,5.631-5.306,5.761-9.557C197.637,413.953,187.878,404.725,179.668,401.5Z" transform="translate(-129.795 -390.348)" fill="#fdb819"/>
              <path id="Path_2069" data-name="Path 2069" d="M183.941,372.11c-3.417,1.43-6.411,3.8-6.451,4.648a3.309,3.309,0,0,1,.419.047,4.387,4.387,0,0,1,.444.065.048.048,0,0,1,.04.007.836.836,0,0,1,.137.022c.083.011.166.033.246.051a.272.272,0,0,1,.094.018,3.408,3.408,0,0,1,.343.087c.036.007.065.014.1.025s.043.011.065.018c3.958-1.838,12.143-2.532,19.438-1.246A62.446,62.446,0,0,0,183.941,372.11Z" transform="translate(-129.769 -371.573)" fill="#fdb819"/>
              <path id="Path_2070" data-name="Path 2070" d="M144.47,376.09c-.231.011-.455.04-.672.065a6.833,6.833,0,0,0-.73.13c-3.186-1.593-9.531-3.868-15.328-3.46q2.8-.7,5.7-1.145c.04-.007.083-.014.123-.018,1.755-.271,3.536-.466,5.32-.592C140.84,372.262,143.931,374.479,144.47,376.09Z" transform="translate(-97.987 -370.909)" fill="#fdb819"/>
            </g>
          </g>
          <g id="Group_1148" data-name="Group 1148" transform="translate(253.943 155.699)" opacity="0.6">
            <path id="Path_2071" data-name="Path 2071" d="M791.543,808.786l-.513.231.054-.56.513-.228Z" transform="translate(-775.658 -717.099)" fill="#4c4c4c"/>
            <g id="Group_1139" data-name="Group 1139" transform="translate(6.78 58.543)">
              <g id="Group_1132" data-name="Group 1132">
                <g id="Group_1131" data-name="Group 1131">
                  <g id="Group_1095" data-name="Group 1095" transform="translate(1.893)">
                    <g id="Group_1094" data-name="Group 1094">
                      <path id="Path_2072" data-name="Path 2072" d="M801.529,725.151l-2.351-1.7L791.633,718l-7.906,3.536-1.307.585-.13.061-1.2.538-8.607,3.85,6.9,4.991.69.5.123.09,1.12.809,1.112.813,7.433,5.374,8.553-3.832,1.253-.563.134-.061,1.264-.563L809,730.569l.007-.007Z" transform="translate(-772.48 -718)" fill="#e4e4e4"/>
                    </g>
                  </g>
                  <g id="Group_1096" data-name="Group 1096" transform="translate(0 8.571)">
                    <path id="Path_2073" data-name="Path 2073" d="M786.516,754.292l-1.892,18.384-7.433-5.331-.029-.025-1.315-.943-.441-.314-.574-.408-.693-.5-6.9-4.952,1.9-18.47,7.588,5.486.574.415.441.321,1.344.968Z" transform="translate(-767.24 -741.73)" fill="#979797"/>
                  </g>
                  <g id="Group_1098" data-name="Group 1098" transform="translate(17.387 12.569)">
                    <g id="Group_1097" data-name="Group 1097">
                      <path id="Path_2074" data-name="Path 2074" d="M828.458,756.347l-.686.311-.5.224-.1.047-.126.058-1.239.553-8.542,3.832-1.889,18.384,8.538-3.8,1.466-.65.5-.224.686-.3,7.946-3.529,1.9-18.449Z" transform="translate(-815.38 -752.8)" fill="#b9b9b9"/>
                    </g>
                  </g>
                  <g id="Group_1115" data-name="Group 1115" transform="translate(18.269 31.949)">
                    <g id="Group_1109" data-name="Group 1109" transform="translate(0.66 0.965)">
                      <g id="Group_1103" data-name="Group 1103" transform="translate(0 0.581)">
                        <g id="Group_1100" data-name="Group 1100" transform="translate(0.296 0.126)">
                          <g id="Group_1099" data-name="Group 1099">
                            <path id="Path_2075" data-name="Path 2075" d="M820.6,813.243l-.13.061.22-2.156.134-.058Z" transform="translate(-820.47 -811.09)" fill="#4c4c4c"/>
                          </g>
                        </g>
                        <g id="Group_1102" data-name="Group 1102">
                          <g id="Group_1101" data-name="Group 1101">
                            <path id="Path_2076" data-name="Path 2076" d="M820.715,811.13l-.1.141-.383-.318-.491.711-.087-.054.6-.87Z" transform="translate(-819.65 -810.74)" fill="#4c4c4c"/>
                          </g>
                        </g>
                      </g>
                      <g id="Group_1108" data-name="Group 1108" transform="translate(1.307)">
                        <g id="Group_1105" data-name="Group 1105" transform="translate(0.296 0.123)">
                          <g id="Group_1104" data-name="Group 1104">
                            <path id="Path_2077" data-name="Path 2077" d="M824.22,811.619l-.13.061.22-2.149.134-.062Z" transform="translate(-824.09 -809.47)" fill="#4c4c4c"/>
                          </g>
                        </g>
                        <g id="Group_1107" data-name="Group 1107">
                          <g id="Group_1106" data-name="Group 1106">
                            <path id="Path_2078" data-name="Path 2078" d="M824.343,809.516l-.108.137-.383-.318-.491.711-.09-.051.607-.867Z" transform="translate(-823.27 -809.13)" fill="#4c4c4c"/>
                          </g>
                        </g>
                      </g>
                    </g>
                    <g id="Group_1111" data-name="Group 1111" transform="translate(0.389 2.941)">
                      <g id="Group_1110" data-name="Group 1110">
                        <path id="Path_2079" data-name="Path 2079" d="M821.4,814.746l-2.445,1.1c-.036.015-.061,0-.058-.043a.115.115,0,0,1,.072-.1l2.442-1.094c.036-.018.065,0,.058.04A.135.135,0,0,1,821.4,814.746Z" transform="translate(-818.899 -814.602)" fill="#4c4c4c"/>
                      </g>
                    </g>
                    <g id="Group_1114" data-name="Group 1114">
                      <g id="Group_1113" data-name="Group 1113">
                        <g id="Group_1112" data-name="Group 1112">
                          <path id="Path_2080" data-name="Path 2080" d="M820.634,810.125l-2.4,1.076c-.253.116-.437-.018-.408-.3l.267-2.618a.95.95,0,0,1,.509-.708l2.4-1.08c.253-.112.433.018.408.3l-.271,2.622A.948.948,0,0,1,820.634,810.125Zm-2.044-2.4a.674.674,0,0,0-.365.506l-.267,2.619c-.018.2.116.293.292.209l2.405-1.076a.685.685,0,0,0,.361-.506l.271-2.619c.022-.2-.112-.292-.292-.213Z" transform="translate(-817.822 -806.459)" fill="#4c4c4c"/>
                        </g>
                      </g>
                    </g>
                  </g>
                  <g id="Group_1125" data-name="Group 1125" transform="translate(22.43 29.986)">
                    <g id="Group_1118" data-name="Group 1118">
                      <g id="Group_1117" data-name="Group 1117">
                        <g id="Group_1116" data-name="Group 1116">
                          <path id="Path_2081" data-name="Path 2081" d="M832.238,804.787l-2.474,1.109c-.264.116-.448-.022-.419-.3l.278-2.691a.987.987,0,0,1,.52-.726l2.474-1.109c.26-.116.444.018.412.3l-.278,2.694A.97.97,0,0,1,832.238,804.787Zm-2.106-2.467a.681.681,0,0,0-.372.516l-.275,2.7c-.022.2.108.3.3.213l2.474-1.109a.7.7,0,0,0,.376-.517l.274-2.7c.022-.2-.112-.3-.3-.217Z" transform="translate(-829.342 -801.025)" fill="#4c4c4c"/>
                        </g>
                      </g>
                    </g>
                    <g id="Group_1124" data-name="Group 1124" transform="translate(1.221 1.035)">
                      <g id="Group_1120" data-name="Group 1120" transform="translate(0.447 0.459)">
                        <g id="Group_1119" data-name="Group 1119">
                          <path id="Path_2082" data-name="Path 2082" d="M834.025,807.249c-.04.014-.069,0-.065-.047l.195-1.929a.155.155,0,0,1,.08-.1c.036-.018.065,0,.061.043l-.2,1.929A.14.14,0,0,1,834.025,807.249Z" transform="translate(-833.959 -805.162)" fill="#4c4c4c"/>
                        </g>
                      </g>
                      <g id="Group_1122" data-name="Group 1122" transform="translate(0.14 2.255)">
                        <g id="Group_1121" data-name="Group 1121">
                          <path id="Path_2083" data-name="Path 2083" d="M833.785,810.287l-.61.274a.042.042,0,0,1-.065-.043.145.145,0,0,1,.08-.1l.61-.274c.036-.018.065,0,.061.043A.141.141,0,0,1,833.785,810.287Z" transform="translate(-833.109 -810.132)" fill="#4c4c4c"/>
                        </g>
                      </g>
                      <g id="Group_1123" data-name="Group 1123">
                        <path id="Path_2084" data-name="Path 2084" d="M834.119,803.89l-.1.9a.833.833,0,0,1-.448.621l-.491.22c-.227.1-.383-.014-.358-.256l.09-.9.245-.108-.1.968c0,.036.022.058.061.043a.155.155,0,0,0,.079-.1l.1-.964Z" transform="translate(-832.723 -803.89)" fill="#4c4c4c"/>
                      </g>
                    </g>
                  </g>
                  <g id="Group_1127" data-name="Group 1127" transform="translate(2.384 0.271)">
                    <g id="Group_1126" data-name="Group 1126">
                      <path id="Path_2085" data-name="Path 2085" d="M792.469,718.75,773.84,727.1l16.921,12.157,18.626-8.275Z" transform="translate(-773.84 -718.75)" fill="#d6d6d6"/>
                    </g>
                  </g>
                  <g id="Group_1128" data-name="Group 1128" transform="translate(19.232 12.746)">
                    <path id="Path_2086" data-name="Path 2086" d="M839.647,753.29l-.015.144-19.142,8.571.018-.144Z" transform="translate(-820.49 -753.29)" fill="#979797"/>
                  </g>
                  <g id="Group_1129" data-name="Group 1129" transform="translate(11.698 4.121)">
                    <path id="Path_2087" data-name="Path 2087" d="M817.136,741.972l-.127.061-17.38-12.565.13-.058Z" transform="translate(-799.63 -729.41)" fill="#979797"/>
                  </g>
                  <g id="Group_1130" data-name="Group 1130" transform="translate(29.027 16.697)">
                    <path id="Path_2088" data-name="Path 2088" d="M847.765,764.23l-.036.3-.119-.014.022-.228Z" transform="translate(-847.61 -764.23)" fill="#979797"/>
                  </g>
                </g>
                <path id="Path_2089" data-name="Path 2089" d="M843.554,762.58l-1.893,18.442L839.01,782.2l1.9-18.431Z" transform="translate(-813.089 -746.479)" fill="#05101c"/>
                <path id="Path_2090" data-name="Path 2090" d="M816.283,740.363l-1.264.563-.134.065-1.253.564L796.31,728.968l1.2-.542.13-.061,1.307-.585Z" transform="translate(-785.811 -724.248)" fill="#001327"/>
                <path id="Path_2091" data-name="Path 2091" d="M792.508,758.595l-1.9,18.434-.033-.025-2.326-1.665,1.9-18.449Z" transform="translate(-780.662 -742.844)" fill="#05101c"/>
                <path id="Path_2092" data-name="Path 2092" d="M814.951,734.788l-19.106,8.617-1.112-.809-.119-.09-1-.719-.126-.09,16.058-7.231,1.206-.545,1.846-.831.914.657.6.437Z" transform="translate(-784.009 -727.64)" fill="#001327"/>
              </g>
              <g id="Group_1138" data-name="Group 1138" transform="translate(31.169 15.14)">
                <g id="Group_1133" data-name="Group 1133">
                  <path id="Path_2093" data-name="Path 2093" d="M859.066,764.409l-5.526,2.474L854,762.4l5.53-2.478Z" transform="translate(-853.54 -759.92)" fill="#e4e4e4"/>
                </g>
                <path id="Path_2094" data-name="Path 2094" d="M860.445,762.619l-4.475,2.008.054-.5,4.475-2Z" transform="translate(-855.092 -761.325)" fill="#4c4c4c"/>
                <g id="Group_1134" data-name="Group 1134" transform="translate(0.78 1.976)">
                  <path id="Path_2095" data-name="Path 2095" d="M860.182,765.61l-4.482,2.008.029-.22,4.478-2.008Z" transform="translate(-855.7 -765.39)" fill="#b7b7b7"/>
                </g>
                <g id="Group_1135" data-name="Group 1135" transform="translate(0.722 2.564)">
                  <path id="Path_2096" data-name="Path 2096" d="M860.019,767.247l-4.479,2,.025-.22,4.475-2.008Z" transform="translate(-855.54 -767.02)" fill="#b7b7b7"/>
                </g>
                <g id="Group_1136" data-name="Group 1136" transform="translate(0.657 3.2)">
                  <path id="Path_2097" data-name="Path 2097" d="M859.839,769l-4.479,2,.022-.22,4.482-2.008Z" transform="translate(-855.36 -768.78)" fill="#b7b7b7"/>
                </g>
                <g id="Group_1137" data-name="Group 1137" transform="translate(0.6 3.792)">
                  <path id="Path_2098" data-name="Path 2098" d="M859.671,770.64l-4.471,2.008.022-.224,4.471-2Z" transform="translate(-855.2 -770.42)" fill="#b7b7b7"/>
                </g>
              </g>
            </g>
            <g id="Group_1140" data-name="Group 1140" transform="translate(27.283 64.65)">
              <path id="Path_2099" data-name="Path 2099" d="M833.606,735.347l-4.562.282-5.006.311-.029-.469,6.241-.386,2.759-.173Z" transform="translate(-824.01 -734.91)" fill="#4c4c4c"/>
            </g>
            <path id="Path_2100" data-name="Path 2100" d="M822.1,735.08l.639,1.43-1.069.48-.639-1.434Z" transform="translate(-794.823 -670.368)" fill="#a2a2a2"/>
            <path id="Path_2101" data-name="Path 2101" d="M823.044,732.967a.916.916,0,0,0-.058.26,1.87,1.87,0,0,0,.032.545l0,.007a.273.273,0,0,1,.173.069.987.987,0,0,1,.365.8.34.34,0,0,1-.065.184,1.867,1.867,0,0,0,.383.39,1.311,1.311,0,0,0,.238.134.636.636,0,0,0,.524.022.591.591,0,0,0,.26-.231,1.04,1.04,0,0,0,.134-.441,2.426,2.426,0,0,0-.892-2,1.077,1.077,0,0,0-.415-.188.624.624,0,0,0-.347.036A.64.64,0,0,0,823.044,732.967Z" transform="translate(-796.068 -668.728)" fill="#a2a2a2"/>
            <path id="Path_2102" data-name="Path 2102" d="M821.7,732.935l.86-.386a.622.622,0,0,1,.347-.036l1.177,2.626a.591.591,0,0,1-.26.231l-.863.386-.376-.842a.183.183,0,0,0,.09-.083.338.338,0,0,0,.065-.184.977.977,0,0,0-.365-.8.288.288,0,0,0-.173-.069l0-.007a.194.194,0,0,0-.123.018Z" transform="translate(-795.251 -668.722)" fill="#a2a2a2"/>
            <path id="Path_2103" data-name="Path 2103" d="M821.753,733.771a.808.808,0,0,0-.231-.126.618.618,0,0,0-.527-.022.774.774,0,0,0-.39.668,2.207,2.207,0,0,0,.188,1.065,2.959,2.959,0,0,0,.227.423,2.025,2.025,0,0,0,.477.509.764.764,0,0,0,.758.152.638.638,0,0,0,.336-.408.835.835,0,0,0,.058-.264A2.413,2.413,0,0,0,821.753,733.771Zm.285,1.557a.313.313,0,0,1-.061.188.208.208,0,0,1-.1.079.312.312,0,0,1-.307-.061.356.356,0,0,1-.1-.094,1.094,1.094,0,0,1-.231-.423.807.807,0,0,1-.029-.289.32.32,0,0,1,.159-.271.233.233,0,0,1,.123-.007l0,0a.282.282,0,0,1,.177.072.463.463,0,0,1,.1.09l.054-.043.289.376-.108.087A.692.692,0,0,1,822.038,735.328Z" transform="translate(-794.545 -669.406)" fill="#d6d6d6"/>
            <g id="Group_1141" data-name="Group 1141" transform="translate(14.931 73.015)">
              <path id="Path_2104" data-name="Path 2104" d="M792.158,758.391l-1.907,18.582-.441-.329,1.907-18.575Z" transform="translate(-789.81 -758.07)" fill="#4c4c4c"/>
            </g>
            <g id="Group_1142" data-name="Group 1142" transform="translate(16.842 65.167)">
              <path id="Path_2105" data-name="Path 2105" d="M824.2,736.716l-.108.087a1,1,0,0,0-.235-.419l.054-.043Z" transform="translate(-813.473 -736.34)" fill="#d6d6d6"/>
              <path id="Path_2106" data-name="Path 2106" d="M805.722,736.885l-.535.4-.455.336-9.2,6.963-.437-.321,9.4-7.061.451-.336.531-.4A.961.961,0,0,1,805.722,736.885Z" transform="translate(-795.1 -736.423)" fill="#4c4c4c"/>
            </g>
            <g id="Group_1143" data-name="Group 1143" transform="translate(27.352 34.666)">
              <path id="Path_2107" data-name="Path 2107" d="M824.258,737.24a.576.576,0,0,1,.058.173l0,0-.112-.119Z" transform="translate(-824.2 -706.414)" fill="#4c4c4c"/>
              <path id="Path_2108" data-name="Path 2108" d="M859.079,651.89,827.44,681.676c.065.09.123.188.177.282l31.415-29.573Z" transform="translate(-826.27 -651.89)" fill="#4c4c4c"/>
            </g>
            <g id="Group_1144" data-name="Group 1144" transform="translate(2.164 28.298)">
              <path id="Path_2109" data-name="Path 2109" d="M779.525,671.71,754.46,634.444l.278-.184,25.022,37.331Z" transform="translate(-754.46 -634.26)" fill="#4c4c4c"/>
            </g>
            <g id="Group_1145" data-name="Group 1145" transform="translate(19.316 40.094)">
              <path id="Path_2110" data-name="Path 2110" d="M809.82,692.505l-7.87-25.488.314-.1,7.834,25.535Z" transform="translate(-801.95 -666.92)" fill="#4c4c4c"/>
            </g>
            <g id="Group_1146" data-name="Group 1146" transform="translate(27.32 41.755)">
              <path id="Path_2111" data-name="Path 2111" d="M824.2,737.176a.571.571,0,0,1,.058.173l0,0-.144-.087.076-.119A.084.084,0,0,1,824.2,737.176Z" transform="translate(-824.11 -713.44)" fill="#4c4c4c"/>
              <path id="Path_2112" data-name="Path 2112" d="M840.462,671.693l-13.631,22.425a1.972,1.972,0,0,0-.231-.256l13.58-22.342Z" transform="translate(-825.701 -671.52)" fill="#4c4c4c"/>
            </g>
            <g id="Group_1147" data-name="Group 1147">
              <path id="Path_2113" data-name="Path 2113" d="M807.039,567.512c-11.218-9.521-30.79-11.532-43.706-4.493s-14.3,20.468-3.084,29.992,30.786,11.532,43.709,4.493S818.257,577.036,807.039,567.512Z" transform="translate(-751.147 -557.767)" fill="#d59a13"/>
              <path id="Path_2114" data-name="Path 2114" d="M817.218,578.976c-.368-4.832-2.976-9.744-7.913-13.934a34.562,34.562,0,0,0-7.386-4.746,43.47,43.47,0,0,0-10.178-3.4q-2.335-.477-4.71-.719c-.173-.014-.35-.036-.531-.047-1.329-.126-2.669-.191-4-.2-1.25,0-2.5.036-3.745.13-.025,0-.058.007-.087.007-1.362.1-2.712.264-4.038.495h-.007a36.116,36.116,0,0,0-11.16,3.774,27.1,27.1,0,0,0-3.3,2.1c7.26-3.2,16.079-3.969,24.4-2.536.155-.036.314-.076.484-.1l.094-.011a4.105,4.105,0,0,1,.513-.05c.155-.007.314-.014.473-.011.087,0,.177,0,.264.007.188.014.372.033.56.061l.325.054c.108.022.209.047.311.072a.027.027,0,0,1,.025.007c.087.022.177.04.264.069a.249.249,0,0,1,.069.022c.076.022.155.051.231.079a.51.51,0,0,1,.069.022,4.669,4.669,0,0,1,1.083.567,2.775,2.775,0,0,1,.488.437,1.461,1.461,0,0,1,.018,2.153,2.962,2.962,0,0,1-.831.549,5.289,5.289,0,0,1-2.326.394,6.273,6.273,0,0,1-.939-.1,5.866,5.866,0,0,1-1.452-.448,4.2,4.2,0,0,1-.708-.4,3.822,3.822,0,0,1-.358-.3A41.877,41.877,0,0,0,774,564.027a35.413,35.413,0,0,0-8.394,3.337c-7.863,4.287-11.655,10.831-11.139,17.524a24.523,24.523,0,0,0,5.768,6.906c.567.48,1.148.943,1.755,1.383a38.251,38.251,0,0,0,10.586,5.371c10.055,3.355,21.833,3.211,31.079-.856.827-.365,1.64-.758,2.42-1.185C813.939,592.209,817.731,585.669,817.218,578.976Z" transform="translate(-752.271 -555.922)" fill="#ebebeb"/>
              <path id="Path_2115" data-name="Path 2115" d="M773.617,566.663a27.112,27.112,0,0,0-3.3,2.1c1.015-.448,2.059-.842,3.131-1.2a22.119,22.119,0,0,1,1.8-1.73C774.7,566.1,774.152,566.375,773.617,566.663Z" transform="translate(-762.428 -562.253)" fill="#ebebeb"/>
              <path id="Path_2116" data-name="Path 2116" d="M769.531,577.421c1.127.509,2.561,1.835,4.2,1.217,1.242-.657,2.449-.928,3-2.441.538,2.413.838,7.151,4.413,6.736.777.079,2.1-1.358,2.611-2.481.69,4.782,6.357,6.934,11.1,6.638,2.409-.538,5.6-1,6.617-3.247.972-1.864,2.687-3.258,2.886-5.2-.079.777.191,1.983,1.008,1.672.776.079.159-1.553.628-2.29,3.644,2.731,10.474,5,12.937.152,1.019-2.25,1.726-5.32.025-7.852-.7-.859-.968-2.066-1.665-2.918.74.466,1.246-.661,1.282-1.047a4.874,4.874,0,0,0,.415-.325c-.365-.339-.733-.679-1.127-1.011a34.558,34.558,0,0,0-7.386-4.746,43.467,43.467,0,0,0-10.178-3.4q-2.335-.477-4.71-.719c-.173-.015-.35-.036-.531-.047-1.329-.126-2.669-.191-4-.2-1.25,0-2.5.036-3.745.13-.025,0-.058.007-.087.007-1.362.1-2.712.264-4.038.495h-.007a37.05,37.05,0,0,0-9.528,2.954,22.127,22.127,0,0,0-1.8,1.73,44.866,44.866,0,0,1,21.273-1.344c.155-.036.314-.076.484-.1l.094-.011a4.094,4.094,0,0,1,.513-.051c.155-.007.314-.014.473-.011.087,0,.177,0,.264.007.188.014.372.033.56.061l.325.054c.108.022.209.047.311.072a.027.027,0,0,1,.025.007c.087.022.177.04.264.069a.257.257,0,0,1,.069.022c.076.022.155.051.231.079a.514.514,0,0,1,.069.022,4.659,4.659,0,0,1,1.083.567,2.765,2.765,0,0,1,.488.437,1.461,1.461,0,0,1,.018,2.153,2.965,2.965,0,0,1-.831.549,5.288,5.288,0,0,1-2.326.394,6.242,6.242,0,0,1-.939-.1,5.86,5.86,0,0,1-1.452-.448,4.193,4.193,0,0,1-.708-.4,3.831,3.831,0,0,1-.358-.3,41.873,41.873,0,0,0-9.224,1.055,35.406,35.406,0,0,0-8.394,3.337,27.522,27.522,0,0,0-3.6,2.33c.054.007.108.011.166.018C768.231,571.007,766.234,575.12,769.531,577.421Z" transform="translate(-760.819 -555.909)" fill="#f4f4f4"/>
              <path id="Path_2117" data-name="Path 2117" d="M779.422,568.77a49.857,49.857,0,0,0-6.649.672,33.654,33.654,0,0,0-10.972,3.72c-7.863,4.287-11.655,10.832-11.139,17.524-4.28-7.838-2.25-16.535,5.7-22.443,7.26-3.2,16.079-3.969,24.4-2.535a4.188,4.188,0,0,0-.661.231C778.663,566.577,778.407,567.787,779.422,568.77Z" transform="translate(-748.469 -561.727)" fill="#d59a13"/>
              <path id="Path_2118" data-name="Path 2118" d="M850.026,571.369a49.069,49.069,0,0,1,6.375,2.008,33.656,33.656,0,0,1,9.986,5.873c6.826,5.8,9.206,12.973,7.339,19.424,5.79-6.8,5.569-15.733-1.011-23.137-6.458-4.6-14.935-7.155-23.375-7.447a4.247,4.247,0,0,1,.6.361C851.218,569.376,851.222,570.615,850.026,571.369Z" transform="translate(-812.908 -563.691)" fill="#d59a13"/>
              <path id="Path_2119" data-name="Path 2119" d="M785.919,612.231a38.1,38.1,0,0,1-10.586-5.371,27.487,27.487,0,0,1,2.3-11.886c3.55-8.412,12.9-15.837,20-17.614a5.861,5.861,0,0,0,1.452.448C793.84,581.792,784.482,607.449,785.919,612.231Z" transform="translate(-765.617 -569.613)" fill="#d59a13"/>
              <path id="Path_2120" data-name="Path 2120" d="M849.591,614.992a38.193,38.193,0,0,0,11.453-3.1,27.271,27.271,0,0,0,.162-12.1c-1.766-8.964-9.412-18.134-15.993-21.316a5.466,5.466,0,0,1-1.513.144C848.03,583.581,851.971,610.607,849.591,614.992Z" transform="translate(-809.305 -570.322)" fill="#d59a13"/>
              <path id="Path_2121" data-name="Path 2121" d="M859.534,562c-5.02-1.286-10.763-1.235-13.624-.162-.018-.007-.032-.011-.043-.014a.3.3,0,0,0-.069-.022,1.93,1.93,0,0,0-.231-.079.483.483,0,0,0-.069-.022l-.166-.047a.932.932,0,0,0-.1-.022.027.027,0,0,0-.025-.007,2.98,2.98,0,0,0-.311-.072,2.4,2.4,0,0,0-.289-.054c.076-.592,2.29-2.084,4.749-2.9A43.5,43.5,0,0,1,859.534,562Z" transform="translate(-809.886 -557.628)" fill="#5c5c5c"/>
              <path id="Path_2122" data-name="Path 2122" d="M821.876,559.719c-.162,0-.318,0-.473.011a4.831,4.831,0,0,0-.513.051,22.945,22.945,0,0,0-10.51-3.229c1.326-.228,2.676-.39,4.038-.495a.752.752,0,0,1,.087-.007c1.242-.094,2.5-.134,3.745-.13C819.55,556.859,821.587,558.563,821.876,559.719Z" transform="translate(-788.019 -555.916)" fill="#5c5c5c"/>
              <path id="Path_2123" data-name="Path 2123" d="M789.955,565.928a4.2,4.2,0,0,1,.661-.231c-8.325-1.434-17.145-.661-24.4,2.535-.542.4-1.047.82-1.539,1.246-1.235,2.257-1.2,4.648,1.567,6.212a3.24,3.24,0,0,0,1.026.426,27.245,27.245,0,0,1,4.388-2.965,33.594,33.594,0,0,1,10.972-3.72,49.838,49.838,0,0,1,6.649-.672C788.261,567.781,788.517,566.571,789.955,565.928Z" transform="translate(-758.323 -561.72)" fill="#fdb819"/>
              <path id="Path_2124" data-name="Path 2124" d="M875.5,580.539a16.045,16.045,0,0,0-.766-2.38,23.23,23.23,0,0,0-2.015-2.611c-6.458-4.6-14.935-7.155-23.375-7.447a4.261,4.261,0,0,1,.6.361c1.279.921,1.282,2.16.087,2.918a49.071,49.071,0,0,1,6.375,2.008,33.655,33.655,0,0,1,9.987,5.873,24.85,24.85,0,0,1,5.493,6.425C874.745,585.812,875.951,583.1,875.5,580.539Z" transform="translate(-812.908 -563.697)" fill="#fdb819"/>
              <path id="Path_2125" data-name="Path 2125" d="M805.478,577.818a5.864,5.864,0,0,1-1.452-.448c-6.281,1.571-14.335,7.577-18.561,14.776-.444.755.21,2.658.56,3.348a5.113,5.113,0,0,0,2.767,2.535,5.173,5.173,0,0,0,3.969-.462c.885-.43,3.178-1.651,3.539-2.619C799.129,587.36,802.831,579.826,805.478,577.818Z" transform="translate(-772.008 -569.619)" fill="#fdb819"/>
              <path id="Path_2126" data-name="Path 2126" d="M845.213,578.47a5.466,5.466,0,0,1-1.513.144c2.369,2.72,4.619,12.031,5.786,20.63,1.517,1.806,3.442,3.287,5.97,2.72,3.254-.795,4.208-3.4,4.526-6.36C857.081,588.11,850.768,581.157,845.213,578.47Z" transform="translate(-809.305 -570.322)" fill="#fdb819"/>
              <path id="Path_2127" data-name="Path 2127" d="M849.349,558.6c-2.46.816-4.674,2.308-4.75,2.9a2.543,2.543,0,0,1,.289.054,2.277,2.277,0,0,1,.311.072.027.027,0,0,1,.025.007.315.315,0,0,1,.1.022l.166.047a.251.251,0,0,1,.069.022,1.936,1.936,0,0,1,.231.079.5.5,0,0,1,.069.022.2.2,0,0,1,.043.014c2.861-1.073,8.6-1.123,13.624.162A43.391,43.391,0,0,0,849.349,558.6Z" transform="translate(-809.88 -557.628)" fill="#fdb819"/>
              <path id="Path_2128" data-name="Path 2128" d="M821.876,559.719c-.162,0-.318,0-.473.011a4.831,4.831,0,0,0-.513.051,22.945,22.945,0,0,0-10.51-3.229c1.326-.228,2.676-.39,4.038-.495a.752.752,0,0,1,.087-.007c1.242-.094,2.5-.134,3.745-.13C819.55,556.859,821.587,558.563,821.876,559.719Z" transform="translate(-788.019 -555.916)" fill="#fdb819"/>
            </g>
          </g>
        </g>
      </g>
    </g>
  </g>
</svg>
