<svg xmlns="http://www.w3.org/2000/svg" xmlns:xlink="http://www.w3.org/1999/xlink" width="458" height="458" viewBox="0 0 458 458">
  <defs>
    <linearGradient id="linear-gradient" x1="0.865" y1="0.178" x2="0.152" y2="0.822" gradientUnits="objectBoundingBox">
      <stop offset="0" stop-color="#fdb819"/>
      <stop offset="1" stop-color="#fff"/>
    </linearGradient>
  </defs>
  <g id="Group_2045" data-name="Group 2045" transform="translate(-401 -348)">
    <circle id="Ellipse_8" data-name="Ellipse 8" cx="229" cy="229" r="229" transform="translate(401 806) rotate(-90)" fill="url(#linear-gradient)"/>
    <g id="Group_2008" data-name="Group 2008" transform="translate(8)">
      <g id="Group_2006" data-name="Group 2006" transform="translate(428 459)">
        <g id="Group_1760" data-name="Group 1760">
          <g id="Group_1728" data-name="Group 1728" transform="translate(87.329)">
            <path id="Path_2976" data-name="Path 2976" d="M558.49,184.59l106.658,31.667v36.57L558.49,232.869Z" transform="translate(-367.167 -184.59)" fill="#6d6d6d"/>
            <path id="Path_2977" data-name="Path 2977" d="M384.953,184.59,193.63,273.849l.267,43.586,191.056-84.566Z" transform="translate(-193.63 -184.59)" fill="#f6f6f6"/>
            <path id="Path_2978" data-name="Path 2978" d="M384.953,259.38,193.63,351.528,312.212,397.3l179.4-108.9Z" transform="translate(-193.63 -220.162)" fill="#e4e4e4"/>
            <path id="Path_2979" data-name="Path 2979" d="M471.988,474.95l-13.4-3.581a6.6,6.6,0,0,1-3.1-3.424c-1.8-7.719-3.162-11.678.089-19.848,4.866-12.228,15.312-19.549,23.34-16.355s10.587,15.695,5.726,27.918c-3.015,7.593-7.242,12.826-12.653,15.291" transform="translate(-317.282 -301.786)" fill="#555"/>
            <path id="Path_2980" data-name="Path 2980" d="M607.061,394.59l-13.4-3.576a6.591,6.591,0,0,1-3.1-3.429c-1.8-7.719-3.157-11.673.094-19.848,4.861-12.228,15.312-19.549,23.34-16.355s10.592,15.695,5.731,27.918c-3.026,7.6-7.252,12.826-12.664,15.291" transform="translate(-381.528 -263.564)" fill="#555"/>
            <path id="Path_2981" data-name="Path 2981" d="M682.826,348.365l-13.4-3.581a6.591,6.591,0,0,1-3.1-3.429c-1.8-7.719-3.157-11.673.094-19.848,4.861-12.223,15.312-19.549,23.34-16.355s10.592,15.694,5.732,27.918c-3.031,7.6-7.252,12.831-12.669,15.3" transform="translate(-417.566 -241.576)" fill="#555"/>
            <path id="Path_2982" data-name="Path 2982" d="M193.63,354.81v43.822l118.849,44.614-.267-42.674Z" transform="translate(-193.63 -265.551)" fill="#6d6d6d"/>
            <path id="Path_2983" data-name="Path 2983" d="M599.169,244.98,419.77,348.124l.268,42.883L599.169,281.55Z" transform="translate(-301.188 -213.313)" fill="#a7a7a7"/>
            <path id="Path_2984" data-name="Path 2984" d="M674.425,333.808s-4.85-26.712,15.946-37.776c0,0,19.811-12.978,23.293,13.382Z" transform="translate(-422.075 -236.075)" fill="#555"/>
            <path id="Path_2985" data-name="Path 2985" d="M713.03,330.279c-4.866,12.228-15.312,19.549-23.34,16.355s-10.592-15.695-5.731-27.918,15.312-19.549,23.34-16.355S717.891,318.056,713.03,330.279Z" transform="translate(-425.673 -240.249)" fill="#d4d4d4"/>
            <g id="Group_1701" data-name="Group 1701" transform="translate(263.936 72.849)">
              <path id="Path_2986" data-name="Path 2986" d="M713.449,338.5c-2.543,6.392-8.007,10.22-12.2,8.553s-5.537-8.2-2.994-14.593,8.007-10.22,12.2-8.553S715.987,332.107,713.449,338.5Z" transform="translate(-696.965 -323.516)" fill="#555"/>
              <path id="Path_2987" data-name="Path 2987" d="M714.324,337.415c-2.25,5.653-7.079,9.035-10.786,7.556s-4.892-7.252-2.648-12.9,7.079-9.035,10.786-7.556S716.569,331.762,714.324,337.415Z" transform="translate(-698.292 -323.826)" fill="#f8f8f8"/>
              <path id="Path_2988" data-name="Path 2988" d="M714.324,337.415c-2.25,5.653-7.079,9.035-10.786,7.556s-4.892-7.252-2.648-12.9,7.079-9.035,10.786-7.556S716.569,331.762,714.324,337.415Z" transform="translate(-698.292 -323.826)" fill="#f8f8f8"/>
              <path id="Path_2989" data-name="Path 2989" d="M714.595,339.2c-1.505,3.781-4.6,6.093-6.911,5.176s-2.973-4.73-1.473-8.511,4.6-6.1,6.916-5.176S716.1,335.416,714.595,339.2Z" transform="translate(-700.98 -326.83)" fill="#e8e8e8"/>
              <g id="Group_1689" data-name="Group 1689" transform="translate(8.539 1.586)">
                <path id="Path_2990" data-name="Path 2990" d="M714.786,327.311a.768.768,0,1,1-.766-.771A.768.768,0,0,1,714.786,327.311Z" transform="translate(-713.25 -326.54)" fill="#f8f8f8"/>
                <path id="Path_2991" data-name="Path 2991" d="M714.839,327.423a.448.448,0,0,0,.472.11.551.551,0,0,0,.058-.246.579.579,0,0,0-.561-.577A.526.526,0,0,0,714.839,327.423Z" transform="translate(-713.932 -326.621)" fill="#fff"/>
                <path id="Path_2992" data-name="Path 2992" d="M713.99,327.53a.83.83,0,0,1-.063-.97.769.769,0,1,0,.724,1.206A.672.672,0,0,1,713.99,327.53Z" transform="translate(-713.25 -326.55)" fill="#f6f6f6"/>
              </g>
              <g id="Group_1690" data-name="Group 1690" transform="translate(12.173 1.329)">
                <path id="Path_2993" data-name="Path 2993" d="M721.722,326.821a.771.771,0,1,1-.771-.771A.772.772,0,0,1,721.722,326.821Z" transform="translate(-720.18 -326.05)" fill="#f8f8f8"/>
                <path id="Path_2994" data-name="Path 2994" d="M721.769,326.928a.446.446,0,0,0,.472.11.551.551,0,0,0,.058-.246.58.58,0,0,0-.561-.582A.532.532,0,0,0,721.769,326.928Z" transform="translate(-720.862 -326.126)" fill="#fff"/>
                <path id="Path_2995" data-name="Path 2995" d="M720.92,327.035a.829.829,0,0,1-.063-.975.769.769,0,1,0,.724,1.206A.654.654,0,0,1,720.92,327.035Z" transform="translate(-720.18 -326.055)" fill="#f6f6f6"/>
              </g>
              <g id="Group_1691" data-name="Group 1691" transform="translate(14.627 4.297)">
                <path id="Path_2996" data-name="Path 2996" d="M726.406,332.481a.768.768,0,1,1-.766-.771A.771.771,0,0,1,726.406,332.481Z" transform="translate(-724.865 -331.71)" fill="#f8f8f8"/>
                <path id="Path_2997" data-name="Path 2997" d="M726.441,332.593a.448.448,0,0,0,.472.11.55.55,0,0,0,.058-.246.572.572,0,0,0-.561-.577A.531.531,0,0,0,726.441,332.593Z" transform="translate(-725.539 -331.791)" fill="#fff"/>
                <path id="Path_2998" data-name="Path 2998" d="M725.6,332.7a.829.829,0,0,1-.063-.975.771.771,0,0,0,.094,1.536.754.754,0,0,0,.624-.325A.646.646,0,0,1,725.6,332.7Z" transform="translate(-724.86 -331.715)" fill="#f6f6f6"/>
              </g>
              <g id="Group_1692" data-name="Group 1692" transform="translate(15.026 8.801)">
                <path id="Path_2999" data-name="Path 2999" d="M727.156,341.071a.768.768,0,1,1-.771-.771A.769.769,0,0,1,727.156,341.071Z" transform="translate(-725.62 -340.3)" fill="#f8f8f8"/>
                <path id="Path_3000" data-name="Path 3000" d="M727.2,341.178a.448.448,0,0,0,.472.11.552.552,0,0,0,.058-.247.58.58,0,0,0-.561-.582A.532.532,0,0,0,727.2,341.178Z" transform="translate(-726.297 -340.376)" fill="#fff"/>
                <path id="Path_3001" data-name="Path 3001" d="M726.354,341.29a.83.83,0,0,1-.058-.97.768.768,0,1,0,.719,1.206A.658.658,0,0,1,726.354,341.29Z" transform="translate(-725.62 -340.31)" fill="#f6f6f6"/>
              </g>
              <g id="Group_1693" data-name="Group 1693" transform="translate(13.857 12.451)">
                <path id="Path_3002" data-name="Path 3002" d="M724.932,348.031a.771.771,0,1,1-.771-.771A.772.772,0,0,1,724.932,348.031Z" transform="translate(-723.39 -347.26)" fill="#f8f8f8"/>
                <path id="Path_3003" data-name="Path 3003" d="M724.977,348.138a.446.446,0,0,0,.472.11A.63.63,0,0,0,725.5,348a.579.579,0,0,0-.556-.582A.527.527,0,0,0,724.977,348.138Z" transform="translate(-724.07 -347.336)" fill="#fff"/>
                <path id="Path_3004" data-name="Path 3004" d="M724.134,348.245a.838.838,0,0,1-.063-.975.769.769,0,1,0,.724,1.211A.651.651,0,0,1,724.134,348.245Z" transform="translate(-723.395 -347.265)" fill="#f6f6f6"/>
              </g>
              <g id="Group_1694" data-name="Group 1694" transform="translate(11.927 15.943)">
                <path id="Path_3005" data-name="Path 3005" d="M721.252,354.691a.771.771,0,1,1-.771-.771A.779.779,0,0,1,721.252,354.691Z" transform="translate(-719.71 -353.92)" fill="#f8f8f8"/>
                <path id="Path_3006" data-name="Path 3006" d="M721.294,354.808a.446.446,0,0,0,.472.11.549.549,0,0,0,.052-.247.58.58,0,0,0-.561-.582A.556.556,0,0,0,721.294,354.808Z" transform="translate(-720.392 -354.001)" fill="#fff"/>
                <path id="Path_3007" data-name="Path 3007" d="M720.454,354.915a.846.846,0,0,1-.063-.975.769.769,0,0,0,.1,1.531.753.753,0,0,0,.624-.325A.651.651,0,0,1,720.454,354.915Z" transform="translate(-719.715 -353.93)" fill="#f6f6f6"/>
              </g>
              <g id="Group_1695" data-name="Group 1695" transform="translate(8.539 18.445)">
                <path id="Path_3008" data-name="Path 3008" d="M714.786,359.461a.768.768,0,1,1-.766-.771A.768.768,0,0,1,714.786,359.461Z" transform="translate(-713.25 -358.69)" fill="#f8f8f8"/>
                <path id="Path_3009" data-name="Path 3009" d="M714.839,359.563a.448.448,0,0,0,.472.11.552.552,0,0,0,.058-.247.575.575,0,0,0-.561-.577A.525.525,0,0,0,714.839,359.563Z" transform="translate(-713.932 -358.766)" fill="#fff"/>
                <path id="Path_3010" data-name="Path 3010" d="M713.99,359.675a.838.838,0,0,1-.063-.975.771.771,0,1,0,.724,1.211A.672.672,0,0,1,713.99,359.675Z" transform="translate(-713.25 -358.695)" fill="#f6f6f6"/>
              </g>
              <g id="Group_1696" data-name="Group 1696" transform="translate(5.084 18.696)">
                <path id="Path_3011" data-name="Path 3011" d="M708.2,359.941a.771.771,0,1,1-.771-.771A.783.783,0,0,1,708.2,359.941Z" transform="translate(-706.66 -359.17)" fill="#f8f8f8"/>
                <path id="Path_3012" data-name="Path 3012" d="M708.248,360.058a.446.446,0,0,0,.472.11.626.626,0,0,0,.052-.247.583.583,0,0,0-.561-.582A.538.538,0,0,0,708.248,360.058Z" transform="translate(-707.341 -359.251)" fill="#fff"/>
                <path id="Path_3013" data-name="Path 3013" d="M707.4,360.165a.829.829,0,0,1-.063-.975.769.769,0,0,0,.1,1.531.746.746,0,0,0,.624-.325A.655.655,0,0,1,707.4,360.165Z" transform="translate(-706.665 -359.18)" fill="#f6f6f6"/>
              </g>
              <g id="Group_1697" data-name="Group 1697" transform="translate(2.588 16.2)">
                <path id="Path_3014" data-name="Path 3014" d="M703.442,355.181a.771.771,0,1,1-.771-.771A.772.772,0,0,1,703.442,355.181Z" transform="translate(-701.9 -354.41)" fill="#f8f8f8"/>
                <path id="Path_3015" data-name="Path 3015" d="M703.491,355.288a.446.446,0,0,0,.472.11.63.63,0,0,0,.058-.246.584.584,0,0,0-.561-.582A.537.537,0,0,0,703.491,355.288Z" transform="translate(-702.584 -354.486)" fill="#fff"/>
                <path id="Path_3016" data-name="Path 3016" d="M702.634,355.41a.822.822,0,0,1-.063-.97.769.769,0,1,0,.724,1.206A.68.68,0,0,1,702.634,355.41Z" transform="translate(-701.9 -354.424)" fill="#f6f6f6"/>
              </g>
              <g id="Group_1698" data-name="Group 1698" transform="translate(1.932 12.026)">
                <path id="Path_3017" data-name="Path 3017" d="M702.192,347.221a.771.771,0,1,1-.771-.771A.772.772,0,0,1,702.192,347.221Z" transform="translate(-700.65 -346.45)" fill="#f8f8f8"/>
                <path id="Path_3018" data-name="Path 3018" d="M702.231,347.328a.448.448,0,0,0,.472.11.631.631,0,0,0,.058-.247.584.584,0,0,0-.561-.582A.537.537,0,0,0,702.231,347.328Z" transform="translate(-701.329 -346.526)" fill="#fff"/>
                <path id="Path_3019" data-name="Path 3019" d="M701.384,347.45a.822.822,0,0,1-.063-.97.769.769,0,1,0,.724,1.206A.676.676,0,0,1,701.384,347.45Z" transform="translate(-700.65 -346.464)" fill="#f6f6f6"/>
              </g>
              <g id="Group_1699" data-name="Group 1699" transform="translate(3.044 7.863)">
                <path id="Path_3020" data-name="Path 3020" d="M704.312,339.281a.771.771,0,1,1-.771-.771A.769.769,0,0,1,704.312,339.281Z" transform="translate(-702.77 -338.51)" fill="#f8f8f8"/>
                <path id="Path_3021" data-name="Path 3021" d="M704.351,339.393a.448.448,0,0,0,.472.11.63.63,0,0,0,.052-.246.574.574,0,0,0-.556-.577A.531.531,0,0,0,704.351,339.393Z" transform="translate(-703.449 -338.591)" fill="#fff"/>
                <path id="Path_3022" data-name="Path 3022" d="M703.5,339.5a.839.839,0,0,1-.063-.97.769.769,0,0,0,.1,1.531.754.754,0,0,0,.624-.325A.652.652,0,0,1,703.5,339.5Z" transform="translate(-702.77 -338.52)" fill="#f6f6f6"/>
              </g>
              <g id="Group_1700" data-name="Group 1700" transform="translate(5.162 4.129)">
                <path id="Path_3023" data-name="Path 3023" d="M708.346,332.161a.768.768,0,1,1-.766-.771A.771.771,0,0,1,708.346,332.161Z" transform="translate(-706.81 -331.39)" fill="#f8f8f8"/>
                <path id="Path_3024" data-name="Path 3024" d="M708.381,332.268a.448.448,0,0,0,.472.11.55.55,0,0,0,.058-.246.58.58,0,0,0-.561-.582A.538.538,0,0,0,708.381,332.268Z" transform="translate(-707.484 -331.466)" fill="#fff"/>
                <path id="Path_3025" data-name="Path 3025" d="M707.544,332.375a.829.829,0,0,1-.063-.975.769.769,0,0,0,.1,1.531.754.754,0,0,0,.624-.325A.635.635,0,0,1,707.544,332.375Z" transform="translate(-706.81 -331.395)" fill="#f6f6f6"/>
              </g>
              <path id="Path_3026" data-name="Path 3026" d="M714.691,340.546c-1.075,2.706-3.293,4.363-4.95,3.7s-2.129-3.387-1.054-6.088,3.293-4.363,4.95-3.7S715.766,337.84,714.691,340.546Z" transform="translate(-702.266 -328.651)" fill="#fbfbfb"/>
            </g>
            <path id="Path_3027" data-name="Path 3027" d="M463.595,460.378s-4.85-26.712,15.941-37.776c0,0,19.811-12.978,23.3,13.382Z" transform="translate(-321.799 -296.275)" fill="#555"/>
            <path id="Path_3028" data-name="Path 3028" d="M502.191,456.859c-4.861,12.228-15.312,19.549-23.34,16.355s-10.592-15.694-5.726-27.918,15.312-19.549,23.34-16.355S507.047,444.636,502.191,456.859Z" transform="translate(-325.393 -300.454)" fill="#d4d4d4"/>
            <g id="Group_1714" data-name="Group 1714" transform="translate(153.377 139.224)">
              <path id="Path_3029" data-name="Path 3029" d="M502.609,465.079c-2.538,6.392-8,10.22-12.2,8.553s-5.537-8.2-2.994-14.593,8-10.22,12.2-8.553S505.152,458.687,502.609,465.079Z" transform="translate(-486.125 -450.096)" fill="#555"/>
              <path id="Path_3030" data-name="Path 3030" d="M503.481,463.995c-2.244,5.647-7.079,9.035-10.786,7.556s-4.9-7.252-2.648-12.9,7.079-9.035,10.786-7.556S505.725,458.342,503.481,463.995Z" transform="translate(-487.449 -450.406)" fill="#f8f8f8"/>
              <path id="Path_3031" data-name="Path 3031" d="M503.481,463.995c-2.244,5.647-7.079,9.035-10.786,7.556s-4.9-7.252-2.648-12.9,7.079-9.035,10.786-7.556S505.725,458.342,503.481,463.995Z" transform="translate(-487.449 -450.406)" fill="#f8f8f8"/>
              <path id="Path_3032" data-name="Path 3032" d="M503.761,465.777c-1.5,3.781-4.6,6.093-6.916,5.176s-2.973-4.73-1.468-8.511,4.6-6.1,6.916-5.176S505.261,462,503.761,465.777Z" transform="translate(-490.141 -453.41)" fill="#e8e8e8"/>
              <g id="Group_1702" data-name="Group 1702" transform="translate(8.545 1.581)">
                <path id="Path_3033" data-name="Path 3033" d="M503.962,453.881a.771.771,0,1,1-.771-.771A.772.772,0,0,1,503.962,453.881Z" transform="translate(-502.42 -453.11)" fill="#f8f8f8"/>
                <path id="Path_3034" data-name="Path 3034" d="M504,453.988a.448.448,0,0,0,.472.11.547.547,0,0,0,.053-.246.58.58,0,0,0-.561-.582A.543.543,0,0,0,504,453.988Z" transform="translate(-503.098 -453.186)" fill="#fff"/>
                <path id="Path_3035" data-name="Path 3035" d="M503.164,454.1a.839.839,0,0,1-.063-.97.769.769,0,0,0,.1,1.531.754.754,0,0,0,.624-.325A.649.649,0,0,1,503.164,454.1Z" transform="translate(-502.425 -453.12)" fill="#f6f6f6"/>
              </g>
              <g id="Group_1703" data-name="Group 1703" transform="translate(12.184 1.324)">
                <path id="Path_3036" data-name="Path 3036" d="M510.9,453.391a.768.768,0,1,1-.766-.771A.771.771,0,0,1,510.9,453.391Z" transform="translate(-509.36 -452.62)" fill="#f8f8f8"/>
                <path id="Path_3037" data-name="Path 3037" d="M510.932,453.5a.446.446,0,0,0,.472.11.55.55,0,0,0,.058-.247.583.583,0,0,0-.556-.582A.532.532,0,0,0,510.932,453.5Z" transform="translate(-510.035 -452.696)" fill="#fff"/>
                <path id="Path_3038" data-name="Path 3038" d="M510.094,453.605a.829.829,0,0,1-.063-.975.769.769,0,1,0,.724,1.206A.635.635,0,0,1,510.094,453.605Z" transform="translate(-509.36 -452.625)" fill="#f6f6f6"/>
              </g>
              <g id="Group_1704" data-name="Group 1704" transform="translate(14.633 4.297)">
                <path id="Path_3039" data-name="Path 3039" d="M515.576,459.061a.768.768,0,1,1-.771-.771A.772.772,0,0,1,515.576,459.061Z" transform="translate(-514.035 -458.29)" fill="#f8f8f8"/>
                <path id="Path_3040" data-name="Path 3040" d="M515.6,459.173a.446.446,0,0,0,.472.11.55.55,0,0,0,.058-.246.576.576,0,0,0-.561-.577A.543.543,0,0,0,515.6,459.173Z" transform="translate(-514.708 -458.371)" fill="#fff"/>
                <path id="Path_3041" data-name="Path 3041" d="M514.764,459.275a.83.83,0,0,1-.063-.975.769.769,0,1,0,.724,1.206A.642.642,0,0,1,514.764,459.275Z" transform="translate(-514.03 -458.295)" fill="#f6f6f6"/>
              </g>
              <g id="Group_1705" data-name="Group 1705" transform="translate(15.031 8.801)">
                <path id="Path_3042" data-name="Path 3042" d="M516.332,467.651a.771.771,0,1,1-.771-.771A.772.772,0,0,1,516.332,467.651Z" transform="translate(-514.79 -466.88)" fill="#f8f8f8"/>
                <path id="Path_3043" data-name="Path 3043" d="M516.368,467.763a.448.448,0,0,0,.472.11.547.547,0,0,0,.052-.247.572.572,0,0,0-.561-.577A.532.532,0,0,0,516.368,467.763Z" transform="translate(-515.467 -466.961)" fill="#fff"/>
                <path id="Path_3044" data-name="Path 3044" d="M515.524,467.87a.83.83,0,0,1-.063-.97.769.769,0,0,0,.1,1.531.753.753,0,0,0,.624-.325A.655.655,0,0,1,515.524,467.87Z" transform="translate(-514.79 -466.89)" fill="#f6f6f6"/>
              </g>
              <g id="Group_1706" data-name="Group 1706" transform="translate(13.862 12.451)">
                <path id="Path_3045" data-name="Path 3045" d="M514.1,474.611a.768.768,0,1,1-.766-.771A.771.771,0,0,1,514.1,474.611Z" transform="translate(-512.56 -473.84)" fill="#f8f8f8"/>
                <path id="Path_3046" data-name="Path 3046" d="M514.141,474.723a.448.448,0,0,0,.472.11.55.55,0,0,0,.058-.246.572.572,0,0,0-.561-.577A.531.531,0,0,0,514.141,474.723Z" transform="translate(-513.239 -473.921)" fill="#fff"/>
                <path id="Path_3047" data-name="Path 3047" d="M513.3,474.825a.829.829,0,0,1-.063-.975.769.769,0,1,0,.729,1.206A.65.65,0,0,1,513.3,474.825Z" transform="translate(-512.565 -473.845)" fill="#f6f6f6"/>
              </g>
              <g id="Group_1707" data-name="Group 1707" transform="translate(11.932 15.943)">
                <circle id="Ellipse_142" data-name="Ellipse 142" cx="0.771" cy="0.771" r="0.771" fill="#f8f8f8"/>
                <path id="Path_3048" data-name="Path 3048" d="M510.467,481.378a.446.446,0,0,0,.472.11.55.55,0,0,0,.058-.246.58.58,0,0,0-.561-.582A.527.527,0,0,0,510.467,481.378Z" transform="translate(-509.56 -480.576)" fill="#fff"/>
                <path id="Path_3049" data-name="Path 3049" d="M509.624,481.485a.83.83,0,0,1-.063-.975.769.769,0,1,0,.729,1.206A.643.643,0,0,1,509.624,481.485Z" transform="translate(-508.885 -480.505)" fill="#f6f6f6"/>
              </g>
              <g id="Group_1708" data-name="Group 1708" transform="translate(8.545 18.439)">
                <path id="Path_3050" data-name="Path 3050" d="M503.962,486.031a.771.771,0,1,1-.771-.771A.772.772,0,0,1,503.962,486.031Z" transform="translate(-502.42 -485.26)" fill="#f8f8f8"/>
                <path id="Path_3051" data-name="Path 3051" d="M504,486.138a.448.448,0,0,0,.472.11.548.548,0,0,0,.053-.246.58.58,0,0,0-.561-.582A.544.544,0,0,0,504,486.138Z" transform="translate(-503.098 -485.336)" fill="#fff"/>
                <path id="Path_3052" data-name="Path 3052" d="M503.164,486.245a.847.847,0,0,1-.063-.975.769.769,0,0,0,.1,1.531.754.754,0,0,0,.624-.325A.635.635,0,0,1,503.164,486.245Z" transform="translate(-502.425 -485.265)" fill="#f6f6f6"/>
              </g>
              <g id="Group_1709" data-name="Group 1709" transform="translate(5.089 18.696)">
                <path id="Path_3053" data-name="Path 3053" d="M497.372,486.521a.771.771,0,1,1-.771-.771A.772.772,0,0,1,497.372,486.521Z" transform="translate(-495.83 -485.75)" fill="#f8f8f8"/>
                <path id="Path_3054" data-name="Path 3054" d="M497.411,486.633a.448.448,0,0,0,.472.11.551.551,0,0,0,.058-.246.572.572,0,0,0-.561-.577A.531.531,0,0,0,497.411,486.633Z" transform="translate(-496.509 -485.831)" fill="#fff"/>
                <path id="Path_3055" data-name="Path 3055" d="M496.569,486.74a.822.822,0,0,1-.063-.97.768.768,0,0,0,.094,1.531.754.754,0,0,0,.624-.325A.644.644,0,0,1,496.569,486.74Z" transform="translate(-495.83 -485.76)" fill="#f6f6f6"/>
              </g>
              <g id="Group_1710" data-name="Group 1710" transform="translate(2.593 16.2)">
                <path id="Path_3056" data-name="Path 3056" d="M492.612,481.761a.771.771,0,1,1-.771-.771A.772.772,0,0,1,492.612,481.761Z" transform="translate(-491.07 -480.99)" fill="#f8f8f8"/>
                <path id="Path_3057" data-name="Path 3057" d="M492.651,481.868a.448.448,0,0,0,.472.11.55.55,0,0,0,.058-.246.583.583,0,0,0-.561-.582A.538.538,0,0,0,492.651,481.868Z" transform="translate(-491.749 -481.066)" fill="#fff"/>
                <path id="Path_3058" data-name="Path 3058" d="M491.814,481.975a.83.83,0,0,1-.063-.975.769.769,0,1,0,.729,1.206A.64.64,0,0,1,491.814,481.975Z" transform="translate(-491.075 -480.995)" fill="#f6f6f6"/>
              </g>
              <g id="Group_1711" data-name="Group 1711" transform="translate(1.932 12.026)">
                <path id="Path_3059" data-name="Path 3059" d="M491.362,473.8a.771.771,0,1,1-.771-.771A.772.772,0,0,1,491.362,473.8Z" transform="translate(-489.815 -473.03)" fill="#f8f8f8"/>
                <path id="Path_3060" data-name="Path 3060" d="M491.4,473.913a.448.448,0,0,0,.472.11.55.55,0,0,0,.058-.246.575.575,0,0,0-.561-.577A.531.531,0,0,0,491.4,473.913Z" transform="translate(-490.494 -473.111)" fill="#fff"/>
                <path id="Path_3061" data-name="Path 3061" d="M490.549,474.015a.838.838,0,0,1-.063-.975.769.769,0,1,0,.724,1.206A.635.635,0,0,1,490.549,474.015Z" transform="translate(-489.81 -473.035)" fill="#f6f6f6"/>
              </g>
              <g id="Group_1712" data-name="Group 1712" transform="translate(3.049 7.863)">
                <path id="Path_3062" data-name="Path 3062" d="M493.476,465.861a.768.768,0,1,1-.771-.771A.769.769,0,0,1,493.476,465.861Z" transform="translate(-491.94 -465.09)" fill="#f8f8f8"/>
                <path id="Path_3063" data-name="Path 3063" d="M493.52,465.968a.446.446,0,0,0,.472.11.548.548,0,0,0,.052-.246.58.58,0,0,0-.561-.582A.544.544,0,0,0,493.52,465.968Z" transform="translate(-492.618 -465.166)" fill="#fff"/>
                <path id="Path_3064" data-name="Path 3064" d="M492.674,466.08a.822.822,0,0,1-.063-.97.769.769,0,1,0,.724,1.211A.665.665,0,0,1,492.674,466.08Z" transform="translate(-491.94 -465.1)" fill="#f6f6f6"/>
              </g>
              <g id="Group_1713" data-name="Group 1713" transform="translate(5.157 4.129)">
                <path id="Path_3065" data-name="Path 3065" d="M497.5,458.741a.771.771,0,1,1-.771-.771A.772.772,0,0,1,497.5,458.741Z" transform="translate(-495.96 -457.97)" fill="#f8f8f8"/>
                <path id="Path_3066" data-name="Path 3066" d="M497.549,458.853a.455.455,0,0,0,.477.11.547.547,0,0,0,.053-.246.575.575,0,0,0-.561-.577A.526.526,0,0,0,497.549,458.853Z" transform="translate(-496.642 -458.051)" fill="#fff"/>
                <path id="Path_3067" data-name="Path 3067" d="M496.7,458.955a.847.847,0,0,1-.063-.975.771.771,0,0,0,.094,1.536.763.763,0,0,0,.629-.325A.676.676,0,0,1,496.7,458.955Z" transform="translate(-495.96 -457.975)" fill="#f6f6f6"/>
              </g>
              <path id="Path_3068" data-name="Path 3068" d="M503.853,467.116c-1.075,2.706-3.288,4.363-4.945,3.7s-2.134-3.387-1.059-6.088,3.293-4.363,4.95-3.7S504.933,464.411,503.853,467.116Z" transform="translate(-491.428 -455.226)" fill="#fbfbfb"/>
            </g>
            <path id="Path_3069" data-name="Path 3069" d="M598.655,380.018s-4.85-26.712,15.946-37.776c0,0,19.811-12.978,23.293,13.382Z" transform="translate(-386.037 -258.054)" fill="#555"/>
            <path id="Path_3070" data-name="Path 3070" d="M637.26,376.5c-4.866,12.228-15.312,19.549-23.34,16.355s-10.592-15.694-5.731-27.918,15.312-19.549,23.34-16.355S642.121,364.276,637.26,376.5Z" transform="translate(-389.634 -262.233)" fill="#d4d4d4"/>
            <g id="Group_1727" data-name="Group 1727" transform="translate(224.203 97.083)">
              <path id="Path_3071" data-name="Path 3071" d="M637.678,384.717c-2.543,6.392-8.007,10.22-12.2,8.547s-5.537-8.2-2.994-14.593,8.007-10.22,12.2-8.547S640.226,378.325,637.678,384.717Z" transform="translate(-621.193 -369.732)" fill="#555"/>
              <path id="Path_3072" data-name="Path 3072" d="M638.558,383.637c-2.244,5.653-7.074,9.035-10.781,7.561s-4.892-7.252-2.648-12.9,7.074-9.035,10.786-7.562S640.8,377.984,638.558,383.637Z" transform="translate(-622.524 -370.046)" fill="#f8f8f8"/>
              <path id="Path_3073" data-name="Path 3073" d="M638.558,383.637c-2.244,5.653-7.074,9.035-10.781,7.561s-4.892-7.252-2.648-12.9,7.074-9.035,10.786-7.562S640.8,377.984,638.558,383.637Z" transform="translate(-622.524 -370.046)" fill="#f8f8f8"/>
              <path id="Path_3074" data-name="Path 3074" d="M638.835,385.417c-1.5,3.781-4.6,6.093-6.911,5.176s-2.973-4.73-1.473-8.511,4.6-6.1,6.911-5.176S640.334,381.636,638.835,385.417Z" transform="translate(-625.213 -373.048)" fill="#e8e8e8"/>
              <g id="Group_1715" data-name="Group 1715" transform="translate(8.551 1.588)">
                <path id="Path_3075" data-name="Path 3075" d="M639.036,373.531a.772.772,0,0,1-.771.771.771.771,0,0,1,0-1.542A.772.772,0,0,1,639.036,373.531Z" transform="translate(-637.5 -372.76)" fill="#f8f8f8"/>
                <path id="Path_3076" data-name="Path 3076" d="M639.068,373.643a.448.448,0,0,0,.472.11.547.547,0,0,0,.052-.246.575.575,0,0,0-.561-.577A.532.532,0,0,0,639.068,373.643Z" transform="translate(-638.172 -372.841)" fill="#fff"/>
                <path id="Path_3077" data-name="Path 3077" d="M638.234,373.75a.822.822,0,0,1-.063-.97.769.769,0,0,0,.094,1.531.753.753,0,0,0,.624-.325A.664.664,0,0,1,638.234,373.75Z" transform="translate(-637.5 -372.77)" fill="#f6f6f6"/>
              </g>
              <g id="Group_1716" data-name="Group 1716" transform="translate(12.174 1.331)">
                <path id="Path_3078" data-name="Path 3078" d="M645.962,373.041a.771.771,0,1,1-.771-.771A.769.769,0,0,1,645.962,373.041Z" transform="translate(-644.415 -372.27)" fill="#f8f8f8"/>
                <path id="Path_3079" data-name="Path 3079" d="M646,373.148a.448.448,0,0,0,.472.11.547.547,0,0,0,.053-.246.58.58,0,0,0-.561-.582A.544.544,0,0,0,646,373.148Z" transform="translate(-645.093 -372.346)" fill="#fff"/>
                <path id="Path_3080" data-name="Path 3080" d="M645.149,373.26a.839.839,0,0,1-.063-.97.768.768,0,0,0,.094,1.531.753.753,0,0,0,.624-.325A.664.664,0,0,1,645.149,373.26Z" transform="translate(-644.41 -372.28)" fill="#f6f6f6"/>
              </g>
              <g id="Group_1717" data-name="Group 1717" transform="translate(14.623 4.299)">
                <path id="Path_3081" data-name="Path 3081" d="M650.632,378.7a.771.771,0,1,1-.771-.771A.769.769,0,0,1,650.632,378.7Z" transform="translate(-649.085 -377.93)" fill="#f8f8f8"/>
                <path id="Path_3082" data-name="Path 3082" d="M650.68,378.813a.446.446,0,0,0,.472.11.547.547,0,0,0,.052-.246.575.575,0,0,0-.561-.577A.537.537,0,0,0,650.68,378.813Z" transform="translate(-649.768 -378.011)" fill="#fff"/>
                <path id="Path_3083" data-name="Path 3083" d="M649.819,378.915a.829.829,0,0,1-.063-.975.768.768,0,0,0,.094,1.531.746.746,0,0,0,.624-.325A.643.643,0,0,1,649.819,378.915Z" transform="translate(-649.08 -377.935)" fill="#f6f6f6"/>
              </g>
              <g id="Group_1718" data-name="Group 1718" transform="translate(15.032 8.803)">
                <path id="Path_3084" data-name="Path 3084" d="M651.4,387.291a.771.771,0,1,1-.771-.771A.772.772,0,0,1,651.4,387.291Z" transform="translate(-649.86 -386.52)" fill="#f8f8f8"/>
                <path id="Path_3085" data-name="Path 3085" d="M651.441,387.4a.448.448,0,0,0,.472.11.55.55,0,0,0,.058-.246.58.58,0,0,0-.561-.582A.538.538,0,0,0,651.441,387.4Z" transform="translate(-650.539 -386.596)" fill="#fff"/>
                <path id="Path_3086" data-name="Path 3086" d="M650.594,387.505a.838.838,0,0,1-.063-.975.769.769,0,1,0,.729,1.206A.647.647,0,0,1,650.594,387.505Z" transform="translate(-649.86 -386.525)" fill="#f6f6f6"/>
              </g>
              <g id="Group_1719" data-name="Group 1719" transform="translate(13.863 12.453)">
                <path id="Path_3087" data-name="Path 3087" d="M649.172,394.251a.771.771,0,1,1-.771-.771A.772.772,0,0,1,649.172,394.251Z" transform="translate(-647.63 -393.48)" fill="#f8f8f8"/>
                <path id="Path_3088" data-name="Path 3088" d="M649.211,394.363a.446.446,0,0,0,.472.11.549.549,0,0,0,.058-.246.572.572,0,0,0-.561-.577A.531.531,0,0,0,649.211,394.363Z" transform="translate(-648.309 -393.561)" fill="#fff"/>
                <path id="Path_3089" data-name="Path 3089" d="M648.364,394.47a.83.83,0,0,1-.063-.97.769.769,0,0,0,.1,1.531.753.753,0,0,0,.624-.325A.655.655,0,0,1,648.364,394.47Z" transform="translate(-647.63 -393.49)" fill="#f6f6f6"/>
              </g>
              <g id="Group_1720" data-name="Group 1720" transform="translate(11.928 15.951)">
                <path id="Path_3090" data-name="Path 3090" d="M645.5,400.921a.768.768,0,1,1-.766-.771A.768.768,0,0,1,645.5,400.921Z" transform="translate(-643.95 -400.15)" fill="#f8f8f8"/>
                <path id="Path_3091" data-name="Path 3091" d="M645.529,401.033a.448.448,0,0,0,.472.11.552.552,0,0,0,.058-.246.579.579,0,0,0-.561-.577A.526.526,0,0,0,645.529,401.033Z" transform="translate(-644.622 -400.231)" fill="#fff"/>
                <path id="Path_3092" data-name="Path 3092" d="M644.679,401.135a.847.847,0,0,1-.063-.975.771.771,0,1,0,.724,1.211A.676.676,0,0,1,644.679,401.135Z" transform="translate(-643.94 -400.155)" fill="#f6f6f6"/>
              </g>
              <g id="Group_1721" data-name="Group 1721" transform="translate(8.551 18.441)">
                <path id="Path_3093" data-name="Path 3093" d="M639.036,405.671a.768.768,0,1,1-.771-.771A.772.772,0,0,1,639.036,405.671Z" transform="translate(-637.5 -404.9)" fill="#f8f8f8"/>
                <path id="Path_3094" data-name="Path 3094" d="M639.068,405.788a.448.448,0,0,0,.472.11.548.548,0,0,0,.052-.246.584.584,0,0,0-.561-.582A.538.538,0,0,0,639.068,405.788Z" transform="translate(-638.172 -404.981)" fill="#fff"/>
                <path id="Path_3095" data-name="Path 3095" d="M638.234,405.9a.829.829,0,0,1-.063-.975.772.772,0,0,0,.094,1.536.753.753,0,0,0,.624-.325A.664.664,0,0,1,638.234,405.9Z" transform="translate(-637.5 -404.91)" fill="#f6f6f6"/>
              </g>
              <g id="Group_1722" data-name="Group 1722" transform="translate(5.09 18.704)">
                <path id="Path_3096" data-name="Path 3096" d="M632.447,406.171a.768.768,0,1,1-.766-.771A.771.771,0,0,1,632.447,406.171Z" transform="translate(-630.905 -405.4)" fill="#f8f8f8"/>
                <path id="Path_3097" data-name="Path 3097" d="M632.481,406.278a.446.446,0,0,0,.472.11.629.629,0,0,0,.058-.246.584.584,0,0,0-.561-.582A.538.538,0,0,0,632.481,406.278Z" transform="translate(-631.579 -405.476)" fill="#fff"/>
                <path id="Path_3098" data-name="Path 3098" d="M631.634,406.385a.829.829,0,0,1-.063-.975.769.769,0,0,0,.1,1.531.753.753,0,0,0,.624-.325A.662.662,0,0,1,631.634,406.385Z" transform="translate(-630.9 -405.405)" fill="#f6f6f6"/>
              </g>
              <g id="Group_1723" data-name="Group 1723" transform="translate(2.594 16.202)">
                <path id="Path_3099" data-name="Path 3099" d="M627.682,401.4a.771.771,0,1,1-.771-.771A.772.772,0,0,1,627.682,401.4Z" transform="translate(-626.14 -400.63)" fill="#f8f8f8"/>
                <path id="Path_3100" data-name="Path 3100" d="M627.719,401.513a.448.448,0,0,0,.472.11.628.628,0,0,0,.052-.247.579.579,0,0,0-.561-.577A.531.531,0,0,0,627.719,401.513Z" transform="translate(-626.817 -400.711)" fill="#fff"/>
                <path id="Path_3101" data-name="Path 3101" d="M626.884,401.63a.822.822,0,0,1-.063-.97.769.769,0,0,0,.1,1.531.754.754,0,0,0,.624-.325A.669.669,0,0,1,626.884,401.63Z" transform="translate(-626.145 -400.644)" fill="#f6f6f6"/>
              </g>
              <g id="Group_1724" data-name="Group 1724" transform="translate(1.939 12.028)">
                <path id="Path_3102" data-name="Path 3102" d="M626.426,393.441a.768.768,0,1,1-.766-.771A.771.771,0,0,1,626.426,393.441Z" transform="translate(-624.89 -392.67)" fill="#f8f8f8"/>
                <path id="Path_3103" data-name="Path 3103" d="M626.468,393.548a.448.448,0,0,0,.472.11.626.626,0,0,0,.052-.246.583.583,0,0,0-.561-.582A.538.538,0,0,0,626.468,393.548Z" transform="translate(-625.566 -392.746)" fill="#fff"/>
                <path id="Path_3104" data-name="Path 3104" d="M625.624,393.665a.829.829,0,0,1-.063-.975.769.769,0,0,0,.1,1.531.761.761,0,0,0,.624-.325A.658.658,0,0,1,625.624,393.665Z" transform="translate(-624.89 -392.68)" fill="#f6f6f6"/>
              </g>
              <g id="Group_1725" data-name="Group 1725" transform="translate(3.04 7.865)">
                <path id="Path_3105" data-name="Path 3105" d="M628.532,385.5a.771.771,0,1,1-.771-.771A.769.769,0,0,1,628.532,385.5Z" transform="translate(-626.99 -384.73)" fill="#f8f8f8"/>
                <path id="Path_3106" data-name="Path 3106" d="M628.587,385.613a.448.448,0,0,0,.472.11.629.629,0,0,0,.052-.247.572.572,0,0,0-.561-.577A.525.525,0,0,0,628.587,385.613Z" transform="translate(-627.674 -384.811)" fill="#fff"/>
                <path id="Path_3107" data-name="Path 3107" d="M627.739,385.715a.846.846,0,0,1-.063-.975.771.771,0,0,0,.094,1.536.753.753,0,0,0,.624-.325A.64.64,0,0,1,627.739,385.715Z" transform="translate(-626.995 -384.735)" fill="#f6f6f6"/>
              </g>
              <g id="Group_1726" data-name="Group 1726" transform="translate(5.158 4.131)">
                <circle id="Ellipse_143" data-name="Ellipse 143" cx="0.771" cy="0.771" r="0.771" transform="translate(0.005)" fill="#f8f8f8"/>
                <path id="Path_3108" data-name="Path 3108" d="M632.622,378.488a.446.446,0,0,0,.472.11.55.55,0,0,0,.058-.246.579.579,0,0,0-.556-.582A.532.532,0,0,0,632.622,378.488Z" transform="translate(-631.714 -377.686)" fill="#fff"/>
                <path id="Path_3109" data-name="Path 3109" d="M631.764,378.6a.829.829,0,0,1-.063-.975.769.769,0,0,0,.1,1.531.753.753,0,0,0,.624-.325A.658.658,0,0,1,631.764,378.6Z" transform="translate(-631.03 -377.615)" fill="#f6f6f6"/>
              </g>
              <path id="Path_3110" data-name="Path 3110" d="M638.921,386.766c-1.075,2.706-3.293,4.363-4.95,3.7s-2.129-3.382-1.054-6.088,3.293-4.363,4.95-3.7S639.991,384.061,638.921,386.766Z" transform="translate(-626.495 -374.869)" fill="#fbfbfb"/>
            </g>
            <path id="Path_3111" data-name="Path 3111" d="M193.63,273.849,384.953,184.59l5.726,1.7L198.905,275.884Z" transform="translate(-193.63 -184.59)" fill="#e4e4e4"/>
            <path id="Path_3112" data-name="Path 3112" d="M395.464,187.83v1.536L204.9,277.891l-1.206-.467Z" transform="translate(-198.415 -186.131)" fill="#efefef"/>
            <path id="Path_3113" data-name="Path 3113" d="M558.49,184.59" transform="translate(-367.167 -184.59)" fill="#fff"/>
            <path id="Path_3114" data-name="Path 3114" d="M558.49,184.59l106.658,31.667-4.258,2.449L558.49,188.57Z" transform="translate(-367.167 -184.59)" fill="#e2e2e2"/>
          </g>
          <g id="Group_1759" data-name="Group 1759" transform="translate(0 17.976)">
            <g id="Group_1729" data-name="Group 1729" transform="translate(0 47.021)">
              <path id="Path_3115" data-name="Path 3115" d="M69.433,308.54l-21.269,5.952s-13.571,2.884-13.455,21.179H41.8s.383-11.568,10.4-13.566L66.581,319.9Z" transform="translate(-30.714 -308.54)" fill="#5e5e5e"/>
              <path id="Path_3116" data-name="Path 3116" d="M39.539,380.112,27.09,376.72V353.17l12.449,3.4Z" transform="translate(-27.09 -329.767)" fill="#d0d0d0"/>
              <path id="Path_3117" data-name="Path 3117" d="M50.83,358.965l1.321-.755v22.349L50.83,382.51Z" transform="translate(-38.381 -332.164)" fill="#4c4c4c"/>
              <path id="Path_3118" data-name="Path 3118" d="M27.09,352.732l1.757-.482,12.013,3.125-1.321.755Z" transform="translate(-27.09 -329.33)" fill="#d6d6d6"/>
            </g>
            <path id="Path_3119" data-name="Path 3119" d="M324.348,535.2l-13.4-3.581a6.6,6.6,0,0,1-3.1-3.424c-1.8-7.719-3.162-11.672.089-19.848,4.861-12.228,15.312-19.549,23.34-16.355s10.592,15.695,5.731,27.918c-3.02,7.6-7.247,12.821-12.658,15.291" transform="translate(-159.732 -348.418)" fill="#555"/>
            <path id="Path_3120" data-name="Path 3120" d="M334.517,288.99l-49.852,27.031s-13.518,4.064-14.719,25.93l-8.358,94.922s-1.668,10.813,17.609-.928l55.321-32.532Z" transform="translate(-138.606 -252.221)" fill="#d4d4d4"/>
            <path id="Path_3121" data-name="Path 3121" d="M92.11,535.88s67.744,32.359,92.736,23.219" transform="translate(-58.015 -369.648)" fill="#fff"/>
            <path id="Path_3122" data-name="Path 3122" d="M264.151,479.765l-2.564,29.119s-1.668,10.813,17.609-.928l55.321-32.532V440.39Z" transform="translate(-138.606 -324.231)" fill="#a7a7a7"/>
            <path id="Path_3123" data-name="Path 3123" d="M172.734,488.276l-.294,35.128c-24.934,8.773-92.678-23.581-92.678-23.581-13.665-5.716-11.924-19.648-11.924-19.648A154.73,154.73,0,0,1,66.15,460.08S124.812,491.38,172.734,488.276Z" transform="translate(-45.668 -333.596)" fill="#a7a7a7"/>
            <path id="Path_3124" data-name="Path 3124" d="M171.781,484.851l.031,17.577C137.948,508.673,66.67,473.75,66.67,473.75" transform="translate(-45.915 -340.098)" fill="none" stroke="#f2f2f2" stroke-linejoin="round" stroke-miterlimit="10" stroke-width="3.944"/>
            <path id="Path_3125" data-name="Path 3125" d="M162.111,218.87,104.65,249.824l98.168,36.669,57.073-30.917Z" transform="translate(-63.98 -218.87)" fill="#d4d4d4"/>
            <g id="Group_1730" data-name="Group 1730" transform="translate(134.377 50.403)">
              <path id="Path_3126" data-name="Path 3126" d="M330.938,314.99l-26.371,14.536c-.949.446-13.922,6.848-15.784,24.567L283.362,394.5a1.032,1.032,0,0,0,1.028,1.169,1.047,1.047,0,0,0,.514-.136l46.04-26.287V314.99Z" transform="translate(-283.352 -314.99)" fill="#d0d0d0"/>
            </g>
            <g id="Group_1734" data-name="Group 1734" transform="translate(138.55 55.243)">
              <g id="Group_1733" data-name="Group 1733">
                <g id="Group_1732" data-name="Group 1732">
                  <g id="Group_1731" data-name="Group 1731">
                    <path id="Path_3127" data-name="Path 3127" d="M331.8,324.22l-21.358,11.846-.063.026c-.509.236-12.407,5.988-14.1,22.139l-4.966,37L331.8,372.022Z" transform="translate(-291.31 -324.22)" fill="#c2c2c2"/>
                  </g>
                </g>
              </g>
            </g>
            <path id="Path_3128" data-name="Path 3128" d="M327.406,345.361a12.544,12.544,0,0,0-1.573.923,48.633,48.633,0,0,0-1.893,7.525,41.153,41.153,0,0,0-.53,9.926c.194,2.181.64,4.609,2.124,6.324,3.146,3.644,9.528,3.382,13.66,1.851a15.6,15.6,0,0,0,4.284-2.423,23.935,23.935,0,0,1,.818-3.414V336.1l-16.843,9.245Z" transform="translate(-167.975 -274.628)" fill="#fff"/>
            <path id="Path_3129" data-name="Path 3129" d="M325.94,385.092c-5.527,1.767-14.137,2.318-18.369-2.575a14.635,14.635,0,0,1-3.125-7.792,48.817,48.817,0,0,1,.309-13.2,66.757,66.757,0,0,1,2.575-11.017c-3.786,2.826-9.879,9.019-11.054,20.23l-4.966,37,40.277-23.1c.016-.572.063-1.463.2-2.58A19.949,19.949,0,0,1,325.94,385.092Z" transform="translate(-152.76 -281.481)" fill="#c2c2c2"/>
            <path id="Path_3130" data-name="Path 3130" d="M267.12,458.554c22.732-13.445,47.32-26.643,70.046-40.094" transform="translate(-141.254 -313.8)" fill="none" stroke="#f2f2f2" stroke-linejoin="round" stroke-miterlimit="10" stroke-width="3.944"/>
            <path id="Path_3131" data-name="Path 3131" d="M80.617,455.22s-1.966,6.67,3.8,10.152c0,0,46.092,19.2,68.436,22.559,0,0,5.946-1.264,3.849-7.567Z" transform="translate(-52.395 -331.284)" fill="#4c4c4c"/>
            <path id="Path_3132" data-name="Path 3132" d="M91.759,273.81c-13.471.252-17.31,17.913-17.31,17.913s-9.4,36.612-8.495,74.335c0,0,66.821,30.886,96.055,30.178,9.407.21,10.367-5.275,10.367-5.275C172.8,352.519,178,326.782,178,326.782c2.968-17.032,13.613-17.976,13.613-17.976S97.3,282.656,91.759,273.81Z" transform="translate(-45.546 -245.001)" fill="#b4b4b4"/>
            <path id="Path_3133" data-name="Path 3133" d="M167.366,397.048s-.325,6.156-9.722,4.746c-1.584-.236-64.288-14.525-91.823-32.065-1.017-31.772,8.553-65.321,8.553-65.321s1.961-5.92,6.885-3.561c28.112,13.455,83.507,26.061,83.507,26.061s8.668.8,7.126,13.172C171.892,340.074,168.42,359.581,167.366,397.048Z" transform="translate(-45.476 -257.596)" fill="#c2c2c2"/>
            <path id="Path_3134" data-name="Path 3134" d="M158.145,423.122a30.915,30.915,0,0,1-12.061,2.328c-9.932.163-44.4-9.454-53.638-13.188-7.441-3-14.5-7.278-19.3-13.87a64.282,64.282,0,0,1-6.161-11.442c-.068-.147-.136-.3-.2-.451a184.626,184.626,0,0,0-.97,24.226c27.54,17.54,90.245,31.83,91.823,32.065,9.4,1.411,9.722-4.746,9.722-4.746.236-8.353.593-15.81,1-22.365A30.56,30.56,0,0,1,158.145,423.122Z" transform="translate(-45.473 -298.599)" fill="#c2c2c2"/>
            <path id="Path_3135" data-name="Path 3135" d="M109.986,474.135a1.354,1.354,0,0,1-1.736.8l-6.424-2.365a1.35,1.35,0,0,1-.8-1.736h0a1.35,1.35,0,0,1,1.736-.8l6.429,2.365a1.361,1.361,0,0,1,.8,1.736Z" transform="translate(-62.215 -338.291)" fill="#fff"/>
            <path id="Path_3136" data-name="Path 3136" d="M187.7,500.893a1.345,1.345,0,0,1-1.7.876l-6.523-2.077a1.357,1.357,0,0,1-.881-1.7h0a1.355,1.355,0,0,1,1.7-.881l6.523,2.077a1.363,1.363,0,0,1,.881,1.7Z" transform="translate(-99.12 -351.179)" fill="#fff"/>
            <g id="Group_1737" data-name="Group 1737" transform="translate(20.817 138.781)">
              <path id="Path_3137" data-name="Path 3137" d="M68.111,494.154l13.4,5.569s3.277-9.292-14.363-16.193c0,0-1.259.367.949,10.362" transform="translate(-66.789 -483.53)" fill="#d0d0d0"/>
              <g id="Group_1735" data-name="Group 1735" transform="translate(2.906 4.515)">
                <path id="Path_3138" data-name="Path 3138" d="M78.7,495.323a3.186,3.186,0,1,1-3.188-3.183A3.187,3.187,0,0,1,78.7,495.323Z" transform="translate(-72.33 -492.14)" fill="#f8f8f8"/>
                <path id="Path_3139" data-name="Path 3139" d="M78.863,495.773a1.856,1.856,0,0,0,1.956.456,2.355,2.355,0,0,0,.231-1.017,2.4,2.4,0,0,0-2.318-2.4A2.21,2.21,0,0,0,78.863,495.773Z" transform="translate(-75.135 -492.459)" fill="#fff"/>
                <path id="Path_3140" data-name="Path 3140" d="M75.377,496.222a3.454,3.454,0,0,1-.262-4.032,3.185,3.185,0,1,0,2.994,5.008A2.732,2.732,0,0,1,75.377,496.222Z" transform="translate(-72.33 -492.164)" fill="#f6f6f6"/>
              </g>
              <g id="Group_1736" data-name="Group 1736" transform="translate(8.49 8.925)">
                <path id="Path_3141" data-name="Path 3141" d="M87.29,502.705a2.155,2.155,0,1,1-2.155-2.155A2.155,2.155,0,0,1,87.29,502.705Z" transform="translate(-82.98 -500.55)" fill="#f8f8f8"/>
                <path id="Path_3142" data-name="Path 3142" d="M87.4,503.013a1.256,1.256,0,0,0,1.327.309,1.667,1.667,0,0,0,.152-.687,1.626,1.626,0,0,0-1.568-1.625A1.5,1.5,0,0,0,87.4,503.013Z" transform="translate(-84.878 -500.769)" fill="#fff"/>
                <path id="Path_3143" data-name="Path 3143" d="M85.046,503.317a2.331,2.331,0,0,1-.173-2.727,2.153,2.153,0,1,0,2.029,3.382A1.844,1.844,0,0,1,85.046,503.317Z" transform="translate(-82.985 -500.569)" fill="#f6f6f6"/>
              </g>
              <path id="Path_3144" data-name="Path 3144" d="M71.755,489.508a1.668,1.668,0,1,1-1.668-1.668A1.668,1.668,0,0,1,71.755,489.508Z" transform="translate(-67.565 -485.58)" fill="#999"/>
            </g>
            <g id="Group_1740" data-name="Group 1740" transform="translate(102.547 169.171)">
              <path id="Path_3145" data-name="Path 3145" d="M243.635,542.887v9.858l-20.985-4.625S223.7,537.817,243.635,542.887Z" transform="translate(-222.65 -541.484)" fill="#d0d0d0"/>
              <g id="Group_1738" data-name="Group 1738" transform="translate(9.531 1.139)">
                <path id="Path_3146" data-name="Path 3146" d="M241.473,545.1a3.459,3.459,0,1,0,4.829-.8A3.463,3.463,0,0,0,241.473,545.1Z" transform="translate(-240.826 -543.656)" fill="#f8f8f8"/>
                <path id="Path_3147" data-name="Path 3147" d="M244.524,547.135a2.012,2.012,0,0,1-2.014-.834,2.553,2.553,0,0,1,.44-1.038,2.613,2.613,0,0,1,3.571-.65A2.4,2.4,0,0,1,244.524,547.135Z" transform="translate(-241.627 -543.903)" fill="#fff"/>
                <path id="Path_3148" data-name="Path 3148" d="M243.866,548.823a3.746,3.746,0,0,0,2.784-3.393,3.458,3.458,0,1,1-5.81,2.517A2.949,2.949,0,0,0,243.866,548.823Z" transform="translate(-240.833 -544.5)" fill="#f6f6f6"/>
              </g>
              <g id="Group_1739" data-name="Group 1739" transform="translate(4.483 2.362)">
                <path id="Path_3149" data-name="Path 3149" d="M231.653,546.965a2.341,2.341,0,1,0,3.267-.54A2.342,2.342,0,0,0,231.653,546.965Z" transform="translate(-231.208 -545.989)" fill="#f8f8f8"/>
                <path id="Path_3150" data-name="Path 3150" d="M233.713,548.341a1.355,1.355,0,0,1-1.363-.566,1.731,1.731,0,0,1,.3-.7,1.765,1.765,0,0,1,2.412-.44A1.63,1.63,0,0,1,233.713,548.341Z" transform="translate(-231.747 -546.154)" fill="#fff"/>
                <path id="Path_3151" data-name="Path 3151" d="M233.256,549.477a2.532,2.532,0,0,0,1.877-2.3,2.341,2.341,0,1,1-3.933,1.709A2.024,2.024,0,0,0,233.256,549.477Z" transform="translate(-231.2 -546.555)" fill="#f6f6f6"/>
              </g>
              <path id="Path_3152" data-name="Path 3152" d="M254.862,545.514a1.811,1.811,0,1,0,2.527-.414A1.812,1.812,0,0,0,254.862,545.514Z" transform="translate(-237.809 -543.041)" fill="#999"/>
            </g>
            <g id="Group_1741" data-name="Group 1741" transform="translate(38.72 149.871)">
              <path id="Path_3153" data-name="Path 3153" d="M103,507.994c16.25,7.645,42.695,15.59,49.328,17.54v14.819c-12.716-3.34-42.773-15.606-49.328-18.3V507.994m-2.071-3.314v18.752s41.195,17.126,53.465,19.528V523.982c0-.005-35.836-10.278-53.465-19.3Z" transform="translate(-100.93 -504.68)" fill="#f2f2f2"/>
            </g>
            <g id="Group_1742" data-name="Group 1742" transform="translate(41.504 155.099)">
              <path id="Path_3154" data-name="Path 3154" d="M106.24,514.65v1.8s30.6,12.858,47.9,16.733v-1.8C154.136,531.388,117.535,520.78,106.24,514.65Z" transform="translate(-106.24 -514.65)" fill="#f6f6f6"/>
              <path id="Path_3155" data-name="Path 3155" d="M106.24,520.64v1.8s31.053,12.742,47.9,16.733v-1.8S117.535,526.765,106.24,520.64Z" transform="translate(-106.24 -517.499)" fill="#f6f6f6"/>
              <path id="Path_3156" data-name="Path 3156" d="M106.24,526.61v1.8s30.6,12.858,47.9,16.733v-1.8C154.136,543.348,117.535,532.745,106.24,526.61Z" transform="translate(-106.24 -520.339)" fill="#f6f6f6"/>
              <path id="Path_3157" data-name="Path 3157" d="M106.24,532.6v1.8s31.677,12.727,47.9,16.733v-1.8C154.136,549.338,117.535,538.73,106.24,532.6Z" transform="translate(-106.24 -523.188)" fill="#f6f6f6"/>
            </g>
            <g id="Group_1743" data-name="Group 1743" transform="translate(105.494 77.534)">
              <path id="Path_3158" data-name="Path 3158" d="M270.613,366.73l-21.269,5.952s-13.566,2.884-13.455,21.174h7.095s.388-11.568,10.4-13.566l14.384-2.208Z" transform="translate(-231.894 -366.73)" fill="#d0d0d0"/>
              <path id="Path_3159" data-name="Path 3159" d="M240.719,438.3l-12.449-3.4V411.36l12.449,3.4Z" transform="translate(-228.27 -387.957)" fill="#d0d0d0"/>
              <path id="Path_3160" data-name="Path 3160" d="M252.01,417.155l1.316-.755v22.349L252.01,440.7Z" transform="translate(-239.561 -390.354)" fill="#4c4c4c"/>
              <path id="Path_3161" data-name="Path 3161" d="M228.27,410.922l1.757-.482,12.008,3.125-1.316.755Z" transform="translate(-228.27 -387.52)" fill="#d6d6d6"/>
            </g>
            <g id="Group_1744" data-name="Group 1744" transform="translate(125.897 120.166)">
              <path id="Path_3162" data-name="Path 3162" d="M267.18,491.869c22.024-14.835,45.61-27.1,68.6-40.309" transform="translate(-267.18 -449.709)" fill="none" stroke="#f2f2f2" stroke-linejoin="round" stroke-miterlimit="10" stroke-width="1.375"/>
              <line id="Line_19" data-name="Line 19" y2="47.77" transform="translate(41.53)" fill="none" stroke="#f2f2f2" stroke-linejoin="round" stroke-miterlimit="10" stroke-width="1.375"/>
            </g>
            <path id="Path_3163" data-name="Path 3163" d="M315.955,520.638s-4.85-26.712,15.941-37.776c0,0,19.811-12.978,23.293,13.382Z" transform="translate(-164.248 -342.912)" fill="#555"/>
            <path id="Path_3164" data-name="Path 3164" d="M354.553,517.1c-4.866,12.228-15.312,19.549-23.34,16.355s-10.587-15.695-5.726-27.918,15.312-19.549,23.34-16.355S359.419,504.881,354.553,517.1Z" transform="translate(-167.844 -347.081)" fill="#d4d4d4"/>
            <g id="Group_1757" data-name="Group 1757" transform="translate(163.288 152.837)">
              <path id="Path_3165" data-name="Path 3165" d="M354.969,525.325c-2.543,6.392-8.007,10.22-12.2,8.547s-5.537-8.2-2.994-14.593,8-10.22,12.2-8.553S357.512,518.932,354.969,525.325Z" transform="translate(-338.485 -510.335)" fill="#555"/>
              <path id="Path_3166" data-name="Path 3166" d="M355.842,524.247c-2.25,5.653-7.079,9.035-10.786,7.562s-4.9-7.252-2.648-12.9,7.079-9.035,10.786-7.562S358.092,518.594,355.842,524.247Z" transform="translate(-339.81 -510.653)" fill="#f8f8f8"/>
              <path id="Path_3167" data-name="Path 3167" d="M355.842,524.247c-2.25,5.653-7.079,9.035-10.786,7.562s-4.9-7.252-2.648-12.9,7.079-9.035,10.786-7.562S358.092,518.594,355.842,524.247Z" transform="translate(-339.81 -510.653)" fill="#f8f8f8"/>
              <path id="Path_3168" data-name="Path 3168" d="M356.122,526.027c-1.5,3.781-4.6,6.093-6.917,5.176s-2.973-4.73-1.468-8.511,4.6-6.1,6.916-5.176S357.622,522.246,356.122,526.027Z" transform="translate(-342.502 -513.655)" fill="#e8e8e8"/>
              <g id="Group_1745" data-name="Group 1745" transform="translate(8.545 1.591)">
                <path id="Path_3169" data-name="Path 3169" d="M356.322,514.141a.771.771,0,1,1-.771-.771A.769.769,0,0,1,356.322,514.141Z" transform="translate(-354.78 -513.37)" fill="#f8f8f8"/>
                <path id="Path_3170" data-name="Path 3170" d="M356.361,514.253a.446.446,0,0,0,.472.11.548.548,0,0,0,.058-.246.572.572,0,0,0-.561-.577A.531.531,0,0,0,356.361,514.253Z" transform="translate(-355.459 -513.451)" fill="#fff"/>
                <path id="Path_3171" data-name="Path 3171" d="M355.524,514.345a.829.829,0,0,1-.063-.975.769.769,0,0,0,.1,1.531.76.76,0,0,0,.624-.325A.635.635,0,0,1,355.524,514.345Z" transform="translate(-354.785 -513.37)" fill="#f6f6f6"/>
              </g>
              <g id="Group_1746" data-name="Group 1746" transform="translate(12.178 1.334)">
                <path id="Path_3172" data-name="Path 3172" d="M363.256,513.651a.768.768,0,1,1-.766-.771A.771.771,0,0,1,363.256,513.651Z" transform="translate(-361.715 -512.88)" fill="#f8f8f8"/>
                <path id="Path_3173" data-name="Path 3173" d="M363.291,513.758a.438.438,0,0,0,.472.11.549.549,0,0,0,.058-.247.58.58,0,0,0-.561-.582A.538.538,0,0,0,363.291,513.758Z" transform="translate(-362.389 -512.956)" fill="#fff"/>
                <path id="Path_3174" data-name="Path 3174" d="M362.449,513.86a.83.83,0,0,1-.063-.97.768.768,0,0,0,.094,1.531.753.753,0,0,0,.624-.325A.633.633,0,0,1,362.449,513.86Z" transform="translate(-361.71 -512.885)" fill="#f6f6f6"/>
              </g>
              <g id="Group_1747" data-name="Group 1747" transform="translate(14.633 4.302)">
                <path id="Path_3175" data-name="Path 3175" d="M367.932,519.311a.771.771,0,1,1-.771-.771A.772.772,0,0,1,367.932,519.311Z" transform="translate(-366.39 -518.54)" fill="#f8f8f8"/>
                <path id="Path_3176" data-name="Path 3176" d="M367.971,519.418a.448.448,0,0,0,.472.11.55.55,0,0,0,.058-.247.587.587,0,0,0-.561-.582A.538.538,0,0,0,367.971,519.418Z" transform="translate(-367.069 -518.616)" fill="#fff"/>
                <path id="Path_3177" data-name="Path 3177" d="M367.129,519.525a.83.83,0,0,1-.063-.975.768.768,0,0,0,.094,1.531.754.754,0,0,0,.624-.325A.63.63,0,0,1,367.129,519.525Z" transform="translate(-366.39 -518.545)" fill="#f6f6f6"/>
              </g>
              <g id="Group_1748" data-name="Group 1748" transform="translate(15.026 8.807)">
                <path id="Path_3178" data-name="Path 3178" d="M368.682,527.9a.771.771,0,1,1-.771-.771A.772.772,0,0,1,368.682,527.9Z" transform="translate(-367.14 -527.13)" fill="#f8f8f8"/>
                <path id="Path_3179" data-name="Path 3179" d="M368.728,528.008a.446.446,0,0,0,.472.11.547.547,0,0,0,.052-.247.58.58,0,0,0-.561-.582A.537.537,0,0,0,368.728,528.008Z" transform="translate(-367.821 -527.206)" fill="#fff"/>
                <path id="Path_3180" data-name="Path 3180" d="M367.884,528.125a.838.838,0,0,1-.063-.975.769.769,0,0,0,.1,1.531.754.754,0,0,0,.624-.325A.662.662,0,0,1,367.884,528.125Z" transform="translate(-367.145 -527.14)" fill="#f6f6f6"/>
              </g>
              <g id="Group_1749" data-name="Group 1749" transform="translate(13.862 12.456)">
                <path id="Path_3181" data-name="Path 3181" d="M366.462,534.861a.771.771,0,1,1-.771-.771A.772.772,0,0,1,366.462,534.861Z" transform="translate(-364.92 -534.09)" fill="#f8f8f8"/>
                <path id="Path_3182" data-name="Path 3182" d="M366.5,534.963a.448.448,0,0,0,.472.11.55.55,0,0,0,.058-.246.576.576,0,0,0-.566-.577A.536.536,0,0,0,366.5,534.963Z" transform="translate(-365.598 -534.166)" fill="#fff"/>
                <path id="Path_3183" data-name="Path 3183" d="M365.659,535.085a.838.838,0,0,1-.063-.975.769.769,0,1,0,.724,1.206A.655.655,0,0,1,365.659,535.085Z" transform="translate(-364.92 -534.099)" fill="#f6f6f6"/>
              </g>
              <g id="Group_1750" data-name="Group 1750" transform="translate(11.932 15.954)">
                <path id="Path_3184" data-name="Path 3184" d="M362.782,541.531a.771.771,0,1,1-.771-.771A.772.772,0,0,1,362.782,541.531Z" transform="translate(-361.24 -540.76)" fill="#f8f8f8"/>
                <path id="Path_3185" data-name="Path 3185" d="M362.829,541.638a.446.446,0,0,0,.472.11.55.55,0,0,0,.058-.247.583.583,0,0,0-.561-.582A.532.532,0,0,0,362.829,541.638Z" transform="translate(-361.922 -540.836)" fill="#fff"/>
                <path id="Path_3186" data-name="Path 3186" d="M361.984,541.745a.838.838,0,0,1-.063-.975.769.769,0,1,0,.724,1.206A.648.648,0,0,1,361.984,541.745Z" transform="translate(-361.245 -540.765)" fill="#f6f6f6"/>
              </g>
              <g id="Group_1751" data-name="Group 1751" transform="translate(8.545 18.445)">
                <path id="Path_3187" data-name="Path 3187" d="M356.322,546.281a.771.771,0,1,1-.771-.771A.769.769,0,0,1,356.322,546.281Z" transform="translate(-354.78 -545.51)" fill="#f8f8f8"/>
                <path id="Path_3188" data-name="Path 3188" d="M356.361,546.388a.436.436,0,0,0,.472.11.549.549,0,0,0,.058-.247.58.58,0,0,0-.561-.582A.537.537,0,0,0,356.361,546.388Z" transform="translate(-355.459 -545.586)" fill="#fff"/>
                <path id="Path_3189" data-name="Path 3189" d="M355.524,546.505a.829.829,0,0,1-.063-.975.771.771,0,0,0,.1,1.536.761.761,0,0,0,.624-.325A.659.659,0,0,1,355.524,546.505Z" transform="translate(-354.785 -545.52)" fill="#f6f6f6"/>
              </g>
              <g id="Group_1752" data-name="Group 1752" transform="translate(5.089 18.707)">
                <path id="Path_3190" data-name="Path 3190" d="M349.732,546.781a.771.771,0,1,1-.771-.771A.772.772,0,0,1,349.732,546.781Z" transform="translate(-348.19 -546.01)" fill="#f8f8f8"/>
                <path id="Path_3191" data-name="Path 3191" d="M349.772,546.888a.455.455,0,0,0,.477.11.629.629,0,0,0,.058-.246.584.584,0,0,0-.561-.582A.532.532,0,0,0,349.772,546.888Z" transform="translate(-348.87 -546.086)" fill="#fff"/>
                <path id="Path_3192" data-name="Path 3192" d="M348.924,547a.847.847,0,0,1-.063-.975.769.769,0,1,0,.729,1.206A.666.666,0,0,1,348.924,547Z" transform="translate(-348.19 -546.015)" fill="#f6f6f6"/>
              </g>
              <g id="Group_1753" data-name="Group 1753" transform="translate(2.588 16.211)">
                <path id="Path_3193" data-name="Path 3193" d="M344.976,542.021a.768.768,0,1,1-.766-.771A.768.768,0,0,1,344.976,542.021Z" transform="translate(-343.43 -541.25)" fill="#f8f8f8"/>
                <path id="Path_3194" data-name="Path 3194" d="M345.011,542.133a.455.455,0,0,0,.477.11.63.63,0,0,0,.058-.246.58.58,0,0,0-.566-.577A.531.531,0,0,0,345.011,542.133Z" transform="translate(-344.104 -541.331)" fill="#fff"/>
                <path id="Path_3195" data-name="Path 3195" d="M344.159,542.225a.847.847,0,0,1-.063-.975.769.769,0,1,0,.724,1.211A.645.645,0,0,1,344.159,542.225Z" transform="translate(-343.42 -541.25)" fill="#f6f6f6"/>
              </g>
              <g id="Group_1754" data-name="Group 1754" transform="translate(1.932 12.037)">
                <path id="Path_3196" data-name="Path 3196" d="M343.712,534.061a.771.771,0,1,1-.771-.771A.772.772,0,0,1,343.712,534.061Z" transform="translate(-342.17 -533.29)" fill="#f8f8f8"/>
                <path id="Path_3197" data-name="Path 3197" d="M343.753,534.173a.448.448,0,0,0,.472.11.63.63,0,0,0,.058-.247.572.572,0,0,0-.561-.577A.537.537,0,0,0,343.753,534.173Z" transform="translate(-342.851 -533.371)" fill="#fff"/>
                <path id="Path_3198" data-name="Path 3198" d="M342.914,534.275a.847.847,0,0,1-.063-.975.769.769,0,0,0,.1,1.531.753.753,0,0,0,.624-.325A.658.658,0,0,1,342.914,534.275Z" transform="translate(-342.175 -533.295)" fill="#f6f6f6"/>
              </g>
              <g id="Group_1755" data-name="Group 1755" transform="translate(3.044 7.868)">
                <path id="Path_3199" data-name="Path 3199" d="M345.832,526.111a.771.771,0,1,1-.771-.771A.772.772,0,0,1,345.832,526.111Z" transform="translate(-344.29 -525.34)" fill="#f8f8f8"/>
                <path id="Path_3200" data-name="Path 3200" d="M345.881,526.233a.446.446,0,0,0,.472.11.627.627,0,0,0,.052-.246.571.571,0,0,0-.556-.577A.531.531,0,0,0,345.881,526.233Z" transform="translate(-344.974 -525.426)" fill="#fff"/>
                <path id="Path_3201" data-name="Path 3201" d="M345.034,526.33a.822.822,0,0,1-.063-.97.771.771,0,1,0,.724,1.211A.662.662,0,0,1,345.034,526.33Z" transform="translate(-344.295 -525.35)" fill="#f6f6f6"/>
              </g>
              <g id="Group_1756" data-name="Group 1756" transform="translate(5.157 4.134)">
                <path id="Path_3202" data-name="Path 3202" d="M349.862,518.991a.771.771,0,1,1-.771-.771A.769.769,0,0,1,349.862,518.991Z" transform="translate(-348.32 -518.22)" fill="#f8f8f8"/>
                <path id="Path_3203" data-name="Path 3203" d="M349.909,519.089a.448.448,0,0,0,.472.11.548.548,0,0,0,.052-.246.583.583,0,0,0-.556-.582A.532.532,0,0,0,349.909,519.089Z" transform="translate(-349.002 -518.291)" fill="#fff"/>
                <path id="Path_3204" data-name="Path 3204" d="M349.064,519.205a.838.838,0,0,1-.063-.975.769.769,0,0,0,.1,1.531.753.753,0,0,0,.624-.325A.641.641,0,0,1,349.064,519.205Z" transform="translate(-348.325 -518.225)" fill="#f6f6f6"/>
              </g>
              <path id="Path_3205" data-name="Path 3205" d="M356.211,527.372c-1.075,2.706-3.288,4.363-4.95,3.7s-2.129-3.388-1.054-6.093,3.293-4.363,4.945-3.7S357.286,524.661,356.211,527.372Z" transform="translate(-343.786 -515.471)" fill="#fbfbfb"/>
            </g>
            <g id="Group_1758" data-name="Group 1758" transform="translate(34.976 42.931)">
              <path id="Path_3206" data-name="Path 3206" d="M94.6,301.06a5.854,5.854,0,0,0-.808-.32l51.488,95.31q2.4.7,4.667,1.306l-51.2-94.387C97.361,302.345,95.977,301.715,94.6,301.06Z" transform="translate(-93.79 -300.74)" fill="#c2c2c2"/>
              <path id="Path_3207" data-name="Path 3207" d="M94.6,301.06a5.854,5.854,0,0,0-.808-.32l51.488,95.31q2.4.7,4.667,1.306l-51.2-94.387C97.361,302.345,95.977,301.715,94.6,301.06Z" transform="translate(-93.79 -300.74)" fill="#fff"/>
              <path id="Path_3208" data-name="Path 3208" d="M111.49,308.51l50.948,93.6c1.012.257,1.987.493,2.931.718l-50.786-93.071C113.551,309.349,112.523,308.94,111.49,308.51Z" transform="translate(-102.209 -304.436)" fill="#c2c2c2"/>
              <path id="Path_3209" data-name="Path 3209" d="M111.49,308.51l50.948,93.6c1.012.257,1.987.493,2.931.718l-50.786-93.071C113.551,309.349,112.523,308.94,111.49,308.51Z" transform="translate(-102.209 -304.436)" fill="#fff"/>
              <path id="Path_3210" data-name="Path 3210" d="M171.95,329.56l26.617,84.293c1.033.225,2.008.43,2.9.614L175,330.635Q173.479,330.116,171.95,329.56Z" transform="translate(-130.965 -314.448)" fill="#c2c2c2"/>
            </g>
          </g>
          <path id="Path_3211" data-name="Path 3211" d="M660.89,222.316l-2.134,1.175-100.266-29.4V192.18Z" transform="translate(-279.838 -188.2)" fill="#d8d8d8"/>
          <path id="Path_3212" data-name="Path 3212" d="M594.051,244.98l-179.4,103.144-5.642-1.966L584.6,245.9Z" transform="translate(-208.741 -213.313)" fill="#e1e1e1"/>
        </g>
        <g id="Group_1763" data-name="Group 1763" transform="translate(196.74 20.975)">
          <path id="Path_3213" data-name="Path 3213" d="M410.261,338.98l-7.981,4.279,47.43,15.558,44.839-26-7.64-2.019Z" transform="translate(-402.28 -275.106)" fill="#efefef"/>
          <g id="Group_1762" data-name="Group 1762" transform="translate(7.981)">
            <g id="Group_1761" data-name="Group 1761">
              <path id="Path_3214" data-name="Path 3214" d="M417.5,303.57l40.476,13.062V269.087L417.5,256.35Z" transform="translate(-417.5 -239.696)" fill="#636363"/>
              <path id="Path_3215" data-name="Path 3215" d="M530.857,243.34l-36.177,19.6v47.545s32.06-19.921,36.177-21.274Z" transform="translate(-454.209 -233.508)" fill="#8b8b8b"/>
              <path id="Path_3216" data-name="Path 3216" d="M417.62,241.244l40.471,12.737,36.177-19.6-40.823-9.8Z" transform="translate(-417.557 -224.59)" fill="#797979"/>
              <path id="Path_3217" data-name="Path 3217" d="M442.94,264.32v47.487l9.035,2.915v-47.4Z" transform="translate(-429.6 -243.487)" fill="#e1e1e1"/>
            </g>
            <path id="Path_3218" data-name="Path 3218" d="M442.94,248.211l35.4-17.761,8.867,2.1L451.975,251.21Z" transform="translate(-429.6 -227.377)" fill="#f2f2f2"/>
          </g>
        </g>
        <g id="Group_1766" data-name="Group 1766" transform="translate(283.723 123.301)">
          <path id="Path_3219" data-name="Path 3219" d="M576.136,534.12l-7.976,4.274,47.424,15.558,44.839-25.993-7.635-2.019Z" transform="translate(-568.16 -470.246)" fill="#efefef"/>
          <g id="Group_1765" data-name="Group 1765" transform="translate(7.976 0)">
            <g id="Group_1764" data-name="Group 1764">
              <path id="Path_3220" data-name="Path 3220" d="M583.37,498.71l40.471,13.062v-47.55L583.37,451.49Z" transform="translate(-583.37 -434.836)" fill="#636363"/>
              <path id="Path_3221" data-name="Path 3221" d="M696.737,438.47l-36.177,19.6v47.545s32.06-19.921,36.177-21.274Z" transform="translate(-620.084 -428.643)" fill="#8b8b8b"/>
              <path id="Path_3222" data-name="Path 3222" d="M583.49,436.384l40.476,12.732,36.171-19.591-40.817-9.8Z" transform="translate(-583.427 -419.73)" fill="#797979"/>
              <path id="Path_3223" data-name="Path 3223" d="M608.8,459.46v47.487l9.045,2.916v-47.4Z" transform="translate(-595.465 -438.627)" fill="#e1e1e1"/>
            </g>
            <path id="Path_3224" data-name="Path 3224" d="M608.8,443.346l35.4-17.766,8.878,2.1-35.228,18.662Z" transform="translate(-595.465 -422.512)" fill="#f2f2f2"/>
          </g>
        </g>
        <g id="Group_1769" data-name="Group 1769" transform="translate(311.153 159.174)">
          <g id="Group_1768" data-name="Group 1768">
            <g id="Group_1767" data-name="Group 1767">
              <path id="Path_3225" data-name="Path 3225" d="M620.47,567.115l40.471,13.052v-47.54L620.47,519.89Z" transform="translate(-620.47 -503.241)" fill="#636363"/>
              <path id="Path_3226" data-name="Path 3226" d="M733.827,506.88l-36.177,19.6v47.545s32.06-19.921,36.177-21.274Z" transform="translate(-657.179 -497.053)" fill="#8b8b8b"/>
              <path id="Path_3227" data-name="Path 3227" d="M620.58,504.789l40.476,12.737,36.176-19.6-40.822-9.79Z" transform="translate(-620.522 -488.14)" fill="#797979"/>
              <path id="Path_3228" data-name="Path 3228" d="M645.91,527.85v47.5l9.035,2.91v-47.4Z" transform="translate(-632.57 -507.027)" fill="#e1e1e1"/>
            </g>
            <path id="Path_3229" data-name="Path 3229" d="M645.91,511.745l35.4-17.755,8.867,2.1L654.945,514.75Z" transform="translate(-632.57 -490.922)" fill="#f2f2f2"/>
          </g>
        </g>
      </g>
    </g>
  </g>
</svg>
