<svg xmlns="http://www.w3.org/2000/svg" xmlns:xlink="http://www.w3.org/1999/xlink" width="458" height="458" viewBox="0 0 458 458">
  <defs>
    <linearGradient id="linear-gradient" x1="0.865" y1="0.178" x2="0.152" y2="0.822" gradientUnits="objectBoundingBox">
      <stop offset="0" stop-color="#fdb819"/>
      <stop offset="1" stop-color="#fff"/>
    </linearGradient>
  </defs>
  <g id="Group_2044" data-name="Group 2044" transform="translate(-1057 -348)">
    <circle id="Ellipse_8" data-name="Ellipse 8" cx="229" cy="229" r="229" transform="translate(1057 806) rotate(-90)" fill="url(#linear-gradient)"/>
    <g id="OBJECTS" transform="translate(1093 459)">
      <g id="Group_1770" data-name="Group 1770">
        <g id="Group_1760" data-name="Group 1760">
          <g id="Group_1728" data-name="Group 1728" transform="translate(87.061)">
            <path id="Path_2976" data-name="Path 2976" d="M558.49,184.59l106.33,31.57v36.458l-106.33-19.9Z" transform="translate(-367.754 -184.59)" fill="#05101c"/>
            <path id="Path_2977" data-name="Path 2977" d="M384.366,184.59,193.63,273.575l.267,43.452,190.469-84.306Z" transform="translate(-193.63 -184.59)" fill="#f6f6f6"/>
            <path id="Path_2978" data-name="Path 2978" d="M384.366,259.38,193.63,351.245l118.218,45.627L490.7,288.31Z" transform="translate(-193.63 -220.282)" fill="#e4e4e4"/>
            <path id="Path_2979" data-name="Path 2979" d="M471.932,474.815l-13.362-3.57a6.574,6.574,0,0,1-3.09-3.414c-1.793-7.7-3.152-11.642.089-19.787,4.851-12.191,15.265-19.489,23.268-16.3s10.555,15.646,5.709,27.832c-3.006,7.57-7.219,12.787-12.614,15.244" transform="translate(-317.701 -302.182)" fill="#555"/>
            <path id="Path_2980" data-name="Path 2980" d="M607,394.455l-13.362-3.565a6.571,6.571,0,0,1-3.089-3.419c-1.793-7.7-3.147-11.637.094-19.787,4.846-12.191,15.265-19.489,23.268-16.3s10.56,15.646,5.714,27.832C616.613,386.786,612.4,392,607,394.455" transform="translate(-382.164 -263.831)" fill="#555"/>
            <path id="Path_2981" data-name="Path 2981" d="M682.77,348.23l-13.357-3.57a6.571,6.571,0,0,1-3.09-3.419c-1.793-7.7-3.147-11.637.094-19.787,4.846-12.186,15.265-19.489,23.268-16.3s10.56,15.646,5.714,27.832c-3.022,7.58-7.23,12.792-12.63,15.249" transform="translate(-418.324 -241.769)" fill="#555"/>
            <path id="Path_2982" data-name="Path 2982" d="M193.63,354.81V398.5l118.485,44.477-.267-42.543Z" transform="translate(-193.63 -265.825)" fill="#05101c"/>
            <path id="Path_2983" data-name="Path 2983" d="M598.618,244.98,419.77,347.808l.267,42.752L598.618,281.438Z" transform="translate(-301.552 -213.41)" fill="#001327"/>
            <path id="Path_2984" data-name="Path 2984" d="M674.423,333.683s-4.836-26.63,15.9-37.66c0,0,19.75-12.938,23.221,13.341Z" transform="translate(-422.848 -236.25)" fill="#555"/>
            <path id="Path_2985" data-name="Path 2985" d="M712.933,330.191c-4.851,12.191-15.265,19.489-23.268,16.305s-10.56-15.646-5.714-27.832,15.265-19.489,23.268-16.305S717.779,318.005,712.933,330.191Z" transform="translate(-426.458 -240.437)" fill="#d4d4d4"/>
            <g id="Group_1701" data-name="Group 1701" transform="translate(263.126 72.625)">
              <path id="Path_2986" data-name="Path 2986" d="M713.4,338.453c-2.535,6.372-7.983,10.189-12.165,8.526s-5.52-8.176-2.985-14.549,7.983-10.189,12.165-8.526S715.928,332.081,713.4,338.453Z" transform="translate(-696.965 -323.516)" fill="#555"/>
              <path id="Path_2987" data-name="Path 2987" d="M714.28,337.374c-2.243,5.635-7.057,9.007-10.753,7.533s-4.877-7.23-2.64-12.86,7.057-9.007,10.753-7.533S716.517,331.739,714.28,337.374Z" transform="translate(-698.296 -323.827)" fill="#f8f8f8"/>
              <path id="Path_2988" data-name="Path 2988" d="M714.28,337.374c-2.243,5.635-7.057,9.007-10.753,7.533s-4.877-7.23-2.64-12.86,7.057-9.007,10.753-7.533S716.517,331.739,714.28,337.374Z" transform="translate(-698.296 -323.827)" fill="#f8f8f8"/>
              <path id="Path_2989" data-name="Path 2989" d="M714.567,339.17c-1.5,3.769-4.585,6.075-6.89,5.16s-2.964-4.715-1.469-8.484,4.585-6.08,6.9-5.16S716.067,335.4,714.567,339.17Z" transform="translate(-700.993 -326.841)" fill="#e8e8e8"/>
              <g id="Group_1689" data-name="Group 1689" transform="translate(8.513 1.581)">
                <path id="Path_2990" data-name="Path 2990" d="M714.782,327.308a.766.766,0,1,1-.763-.768A.765.765,0,0,1,714.782,327.308Z" transform="translate(-713.25 -326.54)" fill="#f8f8f8"/>
                <path id="Path_2991" data-name="Path 2991" d="M714.839,327.421a.447.447,0,0,0,.471.11.549.549,0,0,0,.057-.246.577.577,0,0,0-.559-.575A.524.524,0,0,0,714.839,327.421Z" transform="translate(-713.934 -326.621)" fill="#fff"/>
                <path id="Path_2992" data-name="Path 2992" d="M713.987,327.527a.828.828,0,0,1-.063-.967.766.766,0,1,0,.721,1.2A.67.67,0,0,1,713.987,327.527Z" transform="translate(-713.25 -326.55)" fill="#f6f6f6"/>
              </g>
              <g id="Group_1690" data-name="Group 1690" transform="translate(12.136 1.325)">
                <path id="Path_2993" data-name="Path 2993" d="M721.717,326.818a.768.768,0,1,1-.768-.768A.77.77,0,0,1,721.717,326.818Z" transform="translate(-720.18 -326.05)" fill="#f8f8f8"/>
                <path id="Path_2994" data-name="Path 2994" d="M721.769,326.926a.444.444,0,0,0,.47.11.549.549,0,0,0,.057-.246.578.578,0,0,0-.559-.58A.53.53,0,0,0,721.769,326.926Z" transform="translate(-720.864 -326.126)" fill="#fff"/>
                <path id="Path_2995" data-name="Path 2995" d="M720.917,327.032a.827.827,0,0,1-.063-.972.766.766,0,1,0,.721,1.2A.653.653,0,0,1,720.917,327.032Z" transform="translate(-720.18 -326.055)" fill="#f6f6f6"/>
              </g>
              <g id="Group_1691" data-name="Group 1691" transform="translate(14.582 4.284)">
                <path id="Path_2996" data-name="Path 2996" d="M726.4,332.478a.766.766,0,1,1-.763-.768A.769.769,0,0,1,726.4,332.478Z" transform="translate(-724.865 -331.71)" fill="#f8f8f8"/>
                <path id="Path_2997" data-name="Path 2997" d="M726.44,332.591a.447.447,0,0,0,.471.11.549.549,0,0,0,.057-.246.57.57,0,0,0-.559-.575A.53.53,0,0,0,726.44,332.591Z" transform="translate(-725.541 -331.791)" fill="#fff"/>
                <path id="Path_2998" data-name="Path 2998" d="M725.6,332.692a.827.827,0,0,1-.063-.972.769.769,0,0,0,.094,1.532.751.751,0,0,0,.622-.324A.645.645,0,0,1,725.6,332.692Z" transform="translate(-724.86 -331.715)" fill="#f6f6f6"/>
              </g>
              <g id="Group_1692" data-name="Group 1692" transform="translate(14.98 8.774)">
                <path id="Path_2999" data-name="Path 2999" d="M727.152,341.069a.766.766,0,1,1-.768-.768A.766.766,0,0,1,727.152,341.069Z" transform="translate(-725.62 -340.3)" fill="#f8f8f8"/>
                <path id="Path_3000" data-name="Path 3000" d="M727.2,341.176a.447.447,0,0,0,.471.11.551.551,0,0,0,.057-.246.578.578,0,0,0-.559-.58A.53.53,0,0,0,727.2,341.176Z" transform="translate(-726.299 -340.376)" fill="#fff"/>
                <path id="Path_3001" data-name="Path 3001" d="M726.352,341.287a.827.827,0,0,1-.057-.967.766.766,0,1,0,.716,1.2A.656.656,0,0,1,726.352,341.287Z" transform="translate(-725.62 -340.31)" fill="#f6f6f6"/>
              </g>
              <g id="Group_1693" data-name="Group 1693" transform="translate(13.814 12.413)">
                <path id="Path_3002" data-name="Path 3002" d="M724.927,348.029a.768.768,0,1,1-.768-.768A.77.77,0,0,1,724.927,348.029Z" transform="translate(-723.39 -347.26)" fill="#f8f8f8"/>
                <path id="Path_3003" data-name="Path 3003" d="M724.977,348.136a.445.445,0,0,0,.471.11A.627.627,0,0,0,725.5,348a.577.577,0,0,0-.554-.58A.525.525,0,0,0,724.977,348.136Z" transform="translate(-724.072 -347.336)" fill="#fff"/>
                <path id="Path_3004" data-name="Path 3004" d="M724.132,348.242a.835.835,0,0,1-.063-.972.766.766,0,1,0,.721,1.208A.649.649,0,0,1,724.132,348.242Z" transform="translate(-723.395 -347.265)" fill="#f6f6f6"/>
              </g>
              <g id="Group_1694" data-name="Group 1694" transform="translate(11.89 15.894)">
                <path id="Path_3005" data-name="Path 3005" d="M721.247,354.689a.768.768,0,1,1-.768-.769A.777.777,0,0,1,721.247,354.689Z" transform="translate(-719.71 -353.92)" fill="#f8f8f8"/>
                <path id="Path_3006" data-name="Path 3006" d="M721.293,354.806a.445.445,0,0,0,.471.11.547.547,0,0,0,.052-.246.578.578,0,0,0-.559-.58A.554.554,0,0,0,721.293,354.806Z" transform="translate(-720.394 -354.001)" fill="#fff"/>
                <path id="Path_3007" data-name="Path 3007" d="M720.452,354.912a.844.844,0,0,1-.063-.972.766.766,0,0,0,.1,1.526.751.751,0,0,0,.622-.324A.649.649,0,0,1,720.452,354.912Z" transform="translate(-719.715 -353.93)" fill="#f6f6f6"/>
              </g>
              <g id="Group_1695" data-name="Group 1695" transform="translate(8.513 18.388)">
                <path id="Path_3008" data-name="Path 3008" d="M714.782,359.458a.766.766,0,1,1-.763-.768A.765.765,0,0,1,714.782,359.458Z" transform="translate(-713.25 -358.69)" fill="#f8f8f8"/>
                <path id="Path_3009" data-name="Path 3009" d="M714.839,359.561a.447.447,0,0,0,.471.11.549.549,0,0,0,.057-.246.574.574,0,0,0-.559-.575A.524.524,0,0,0,714.839,359.561Z" transform="translate(-713.934 -358.766)" fill="#fff"/>
                <path id="Path_3010" data-name="Path 3010" d="M713.987,359.672a.836.836,0,0,1-.063-.972.769.769,0,1,0,.721,1.208A.67.67,0,0,1,713.987,359.672Z" transform="translate(-713.25 -358.695)" fill="#f6f6f6"/>
              </g>
              <g id="Group_1696" data-name="Group 1696" transform="translate(5.068 18.639)">
                <path id="Path_3011" data-name="Path 3011" d="M708.2,359.939a.769.769,0,1,1-.769-.768A.78.78,0,0,1,708.2,359.939Z" transform="translate(-706.66 -359.17)" fill="#f8f8f8"/>
                <path id="Path_3012" data-name="Path 3012" d="M708.248,360.056a.445.445,0,0,0,.47.11.623.623,0,0,0,.052-.246.582.582,0,0,0-.559-.58A.536.536,0,0,0,708.248,360.056Z" transform="translate(-707.343 -359.251)" fill="#fff"/>
                <path id="Path_3013" data-name="Path 3013" d="M707.4,360.162a.827.827,0,0,1-.063-.972.766.766,0,0,0,.1,1.527.744.744,0,0,0,.622-.324A.653.653,0,0,1,707.4,360.162Z" transform="translate(-706.665 -359.18)" fill="#f6f6f6"/>
              </g>
              <g id="Group_1697" data-name="Group 1697" transform="translate(2.58 16.151)">
                <path id="Path_3014" data-name="Path 3014" d="M703.437,355.178a.768.768,0,1,1-.769-.768A.77.77,0,0,1,703.437,355.178Z" transform="translate(-701.9 -354.41)" fill="#f8f8f8"/>
                <path id="Path_3015" data-name="Path 3015" d="M703.49,355.286a.444.444,0,0,0,.47.11.628.628,0,0,0,.057-.246.582.582,0,0,0-.559-.58A.536.536,0,0,0,703.49,355.286Z" transform="translate(-702.586 -354.486)" fill="#fff"/>
                <path id="Path_3016" data-name="Path 3016" d="M702.632,355.407a.82.82,0,0,1-.063-.967.766.766,0,1,0,.721,1.2A.678.678,0,0,1,702.632,355.407Z" transform="translate(-701.9 -354.424)" fill="#f6f6f6"/>
              </g>
              <g id="Group_1698" data-name="Group 1698" transform="translate(1.926 11.989)">
                <path id="Path_3017" data-name="Path 3017" d="M702.187,347.218a.768.768,0,1,1-.768-.768A.77.77,0,0,1,702.187,347.218Z" transform="translate(-700.65 -346.45)" fill="#f8f8f8"/>
                <path id="Path_3018" data-name="Path 3018" d="M702.23,347.326a.447.447,0,0,0,.471.11.629.629,0,0,0,.057-.246.582.582,0,0,0-.559-.58A.536.536,0,0,0,702.23,347.326Z" transform="translate(-701.331 -346.526)" fill="#fff"/>
                <path id="Path_3019" data-name="Path 3019" d="M701.382,347.447a.819.819,0,0,1-.062-.967.766.766,0,1,0,.721,1.2A.674.674,0,0,1,701.382,347.447Z" transform="translate(-700.65 -346.464)" fill="#f6f6f6"/>
              </g>
              <g id="Group_1699" data-name="Group 1699" transform="translate(3.035 7.839)">
                <path id="Path_3020" data-name="Path 3020" d="M704.307,339.279a.768.768,0,1,1-.768-.769A.766.766,0,0,1,704.307,339.279Z" transform="translate(-702.77 -338.51)" fill="#f8f8f8"/>
                <path id="Path_3021" data-name="Path 3021" d="M704.35,339.391a.447.447,0,0,0,.471.11.627.627,0,0,0,.052-.246.573.573,0,0,0-.554-.575A.529.529,0,0,0,704.35,339.391Z" transform="translate(-703.451 -338.591)" fill="#fff"/>
                <path id="Path_3022" data-name="Path 3022" d="M703.5,339.5a.836.836,0,0,1-.063-.967.766.766,0,0,0,.1,1.526.751.751,0,0,0,.622-.324A.65.65,0,0,1,703.5,339.5Z" transform="translate(-702.77 -338.52)" fill="#f6f6f6"/>
              </g>
              <g id="Group_1700" data-name="Group 1700" transform="translate(5.147 4.117)">
                <path id="Path_3023" data-name="Path 3023" d="M708.342,332.158a.766.766,0,1,1-.763-.768A.769.769,0,0,1,708.342,332.158Z" transform="translate(-706.81 -331.39)" fill="#f8f8f8"/>
                <path id="Path_3024" data-name="Path 3024" d="M708.38,332.266a.447.447,0,0,0,.47.11.549.549,0,0,0,.057-.246.578.578,0,0,0-.559-.58A.536.536,0,0,0,708.38,332.266Z" transform="translate(-707.486 -331.466)" fill="#fff"/>
                <path id="Path_3025" data-name="Path 3025" d="M707.542,332.372a.827.827,0,0,1-.063-.972.766.766,0,0,0,.1,1.526.751.751,0,0,0,.622-.324A.633.633,0,0,1,707.542,332.372Z" transform="translate(-706.81 -331.395)" fill="#f6f6f6"/>
              </g>
              <path id="Path_3026" data-name="Path 3026" d="M714.671,340.527c-1.072,2.7-3.283,4.349-4.935,3.691s-2.122-3.377-1.051-6.069,3.283-4.349,4.935-3.691S715.743,337.83,714.671,340.527Z" transform="translate(-702.284 -328.669)" fill="#fbfbfb"/>
            </g>
            <path id="Path_3027" data-name="Path 3027" d="M463.593,460.253s-4.836-26.63,15.892-37.66c0,0,19.75-12.938,23.226,13.341Z" transform="translate(-322.232 -296.653)" fill="#555"/>
            <path id="Path_3028" data-name="Path 3028" d="M502.094,456.771c-4.846,12.191-15.265,19.489-23.268,16.3s-10.56-15.646-5.709-27.832,15.265-19.489,23.268-16.3S506.935,444.585,502.094,456.771Z" transform="translate(-325.839 -300.846)" fill="#d4d4d4"/>
            <g id="Group_1714" data-name="Group 1714" transform="translate(152.906 138.797)">
              <path id="Path_3029" data-name="Path 3029" d="M502.558,465.033c-2.53,6.372-7.977,10.189-12.165,8.526s-5.52-8.176-2.985-14.549,7.977-10.189,12.165-8.526S505.094,458.661,502.558,465.033Z" transform="translate(-486.125 -450.096)" fill="#555"/>
              <path id="Path_3030" data-name="Path 3030" d="M503.437,463.954c-2.237,5.63-7.057,9.007-10.753,7.533s-4.883-7.23-2.64-12.86,7.057-9.007,10.753-7.533S505.674,458.319,503.437,463.954Z" transform="translate(-487.453 -450.407)" fill="#f8f8f8"/>
              <path id="Path_3031" data-name="Path 3031" d="M503.437,463.954c-2.237,5.63-7.057,9.007-10.753,7.533s-4.883-7.23-2.64-12.86,7.057-9.007,10.753-7.533S505.674,458.319,503.437,463.954Z" transform="translate(-487.453 -450.407)" fill="#f8f8f8"/>
              <path id="Path_3032" data-name="Path 3032" d="M503.733,465.75c-1.5,3.769-4.585,6.075-6.9,5.16s-2.964-4.715-1.464-8.484,4.585-6.08,6.9-5.16S505.228,461.981,503.733,465.75Z" transform="translate(-490.154 -453.421)" fill="#e8e8e8"/>
              <g id="Group_1702" data-name="Group 1702" transform="translate(8.518 1.576)">
                <path id="Path_3033" data-name="Path 3033" d="M503.957,453.878a.768.768,0,1,1-.769-.768A.77.77,0,0,1,503.957,453.878Z" transform="translate(-502.42 -453.11)" fill="#f8f8f8"/>
                <path id="Path_3034" data-name="Path 3034" d="M504,453.986a.447.447,0,0,0,.47.11.545.545,0,0,0,.052-.246.578.578,0,0,0-.559-.58A.541.541,0,0,0,504,453.986Z" transform="translate(-503.101 -453.186)" fill="#fff"/>
                <path id="Path_3035" data-name="Path 3035" d="M503.162,454.1a.836.836,0,0,1-.063-.967.766.766,0,0,0,.1,1.526.751.751,0,0,0,.622-.324A.647.647,0,0,1,503.162,454.1Z" transform="translate(-502.425 -453.12)" fill="#f6f6f6"/>
              </g>
              <g id="Group_1703" data-name="Group 1703" transform="translate(12.146 1.32)">
                <path id="Path_3036" data-name="Path 3036" d="M510.892,453.388a.766.766,0,1,1-.763-.768A.769.769,0,0,1,510.892,453.388Z" transform="translate(-509.36 -452.62)" fill="#f8f8f8"/>
                <path id="Path_3037" data-name="Path 3037" d="M510.931,453.5a.445.445,0,0,0,.47.11.549.549,0,0,0,.057-.246.581.581,0,0,0-.554-.58A.53.53,0,0,0,510.931,453.5Z" transform="translate(-510.037 -452.696)" fill="#fff"/>
                <path id="Path_3038" data-name="Path 3038" d="M510.092,453.6a.827.827,0,0,1-.063-.972.766.766,0,1,0,.721,1.2A.633.633,0,0,1,510.092,453.6Z" transform="translate(-509.36 -452.625)" fill="#f6f6f6"/>
              </g>
              <g id="Group_1704" data-name="Group 1704" transform="translate(14.588 4.284)">
                <path id="Path_3039" data-name="Path 3039" d="M515.572,459.059a.766.766,0,1,1-.768-.768A.77.77,0,0,1,515.572,459.059Z" transform="translate(-514.035 -458.29)" fill="#f8f8f8"/>
                <path id="Path_3040" data-name="Path 3040" d="M515.6,459.171a.445.445,0,0,0,.47.11.549.549,0,0,0,.058-.246.574.574,0,0,0-.559-.575A.541.541,0,0,0,515.6,459.171Z" transform="translate(-514.71 -458.371)" fill="#fff"/>
                <path id="Path_3041" data-name="Path 3041" d="M514.762,459.272a.827.827,0,0,1-.063-.972.766.766,0,1,0,.721,1.2A.639.639,0,0,1,514.762,459.272Z" transform="translate(-514.03 -458.295)" fill="#f6f6f6"/>
              </g>
              <g id="Group_1705" data-name="Group 1705" transform="translate(14.985 8.774)">
                <path id="Path_3042" data-name="Path 3042" d="M516.327,467.648a.768.768,0,1,1-.768-.768A.77.77,0,0,1,516.327,467.648Z" transform="translate(-514.79 -466.88)" fill="#f8f8f8"/>
                <path id="Path_3043" data-name="Path 3043" d="M516.368,467.761a.447.447,0,0,0,.471.11.545.545,0,0,0,.052-.246.57.57,0,0,0-.559-.575A.53.53,0,0,0,516.368,467.761Z" transform="translate(-515.469 -466.961)" fill="#fff"/>
                <path id="Path_3044" data-name="Path 3044" d="M515.522,467.867a.828.828,0,0,1-.063-.967.766.766,0,0,0,.1,1.526.751.751,0,0,0,.622-.324A.653.653,0,0,1,515.522,467.867Z" transform="translate(-514.79 -466.89)" fill="#f6f6f6"/>
              </g>
              <g id="Group_1706" data-name="Group 1706" transform="translate(13.819 12.413)">
                <path id="Path_3045" data-name="Path 3045" d="M514.092,474.608a.766.766,0,1,1-.763-.768A.769.769,0,0,1,514.092,474.608Z" transform="translate(-512.56 -473.84)" fill="#f8f8f8"/>
                <path id="Path_3046" data-name="Path 3046" d="M514.141,474.721a.446.446,0,0,0,.47.11.549.549,0,0,0,.057-.246.57.57,0,0,0-.559-.575A.53.53,0,0,0,514.141,474.721Z" transform="translate(-513.241 -473.921)" fill="#fff"/>
                <path id="Path_3047" data-name="Path 3047" d="M513.3,474.822a.827.827,0,0,1-.063-.972.767.767,0,1,0,.727,1.2A.648.648,0,0,1,513.3,474.822Z" transform="translate(-512.565 -473.845)" fill="#f6f6f6"/>
              </g>
              <g id="Group_1707" data-name="Group 1707" transform="translate(11.895 15.894)">
                <circle id="Ellipse_142" data-name="Ellipse 142" cx="0.768" cy="0.768" r="0.768" fill="#f8f8f8"/>
                <path id="Path_3048" data-name="Path 3048" d="M510.467,481.376a.445.445,0,0,0,.471.11.549.549,0,0,0,.057-.246.578.578,0,0,0-.559-.58A.525.525,0,0,0,510.467,481.376Z" transform="translate(-509.562 -480.576)" fill="#fff"/>
                <path id="Path_3049" data-name="Path 3049" d="M509.622,481.482a.827.827,0,0,1-.063-.972.767.767,0,1,0,.727,1.2A.641.641,0,0,1,509.622,481.482Z" transform="translate(-508.885 -480.505)" fill="#f6f6f6"/>
              </g>
              <g id="Group_1708" data-name="Group 1708" transform="translate(8.518 18.383)">
                <path id="Path_3050" data-name="Path 3050" d="M503.957,486.028a.768.768,0,1,1-.769-.768A.77.77,0,0,1,503.957,486.028Z" transform="translate(-502.42 -485.26)" fill="#f8f8f8"/>
                <path id="Path_3051" data-name="Path 3051" d="M504,486.136a.447.447,0,0,0,.47.11.545.545,0,0,0,.052-.246.578.578,0,0,0-.559-.58A.542.542,0,0,0,504,486.136Z" transform="translate(-503.101 -485.336)" fill="#fff"/>
                <path id="Path_3052" data-name="Path 3052" d="M503.162,486.242a.844.844,0,0,1-.063-.972.766.766,0,0,0,.1,1.527.751.751,0,0,0,.622-.324A.633.633,0,0,1,503.162,486.242Z" transform="translate(-502.425 -485.265)" fill="#f6f6f6"/>
              </g>
              <g id="Group_1709" data-name="Group 1709" transform="translate(5.073 18.639)">
                <path id="Path_3053" data-name="Path 3053" d="M497.367,486.518a.768.768,0,1,1-.768-.768A.77.77,0,0,1,497.367,486.518Z" transform="translate(-495.83 -485.75)" fill="#f8f8f8"/>
                <path id="Path_3054" data-name="Path 3054" d="M497.41,486.631a.447.447,0,0,0,.471.11.549.549,0,0,0,.057-.246.57.57,0,0,0-.559-.575A.529.529,0,0,0,497.41,486.631Z" transform="translate(-496.511 -485.831)" fill="#fff"/>
                <path id="Path_3055" data-name="Path 3055" d="M496.567,486.737a.819.819,0,0,1-.063-.967.766.766,0,0,0,.094,1.527.752.752,0,0,0,.622-.324A.641.641,0,0,1,496.567,486.737Z" transform="translate(-495.83 -485.76)" fill="#f6f6f6"/>
              </g>
              <g id="Group_1710" data-name="Group 1710" transform="translate(2.585 16.151)">
                <path id="Path_3056" data-name="Path 3056" d="M492.607,481.758a.768.768,0,1,1-.768-.768A.77.77,0,0,1,492.607,481.758Z" transform="translate(-491.07 -480.99)" fill="#f8f8f8"/>
                <path id="Path_3057" data-name="Path 3057" d="M492.65,481.866a.447.447,0,0,0,.47.11.549.549,0,0,0,.058-.246.582.582,0,0,0-.559-.58A.536.536,0,0,0,492.65,481.866Z" transform="translate(-491.751 -481.066)" fill="#fff"/>
                <path id="Path_3058" data-name="Path 3058" d="M491.812,481.972a.827.827,0,0,1-.063-.972.767.767,0,1,0,.727,1.2A.639.639,0,0,1,491.812,481.972Z" transform="translate(-491.075 -480.995)" fill="#f6f6f6"/>
              </g>
              <g id="Group_1711" data-name="Group 1711" transform="translate(1.926 11.989)">
                <path id="Path_3059" data-name="Path 3059" d="M491.357,473.8a.768.768,0,1,1-.768-.768A.77.77,0,0,1,491.357,473.8Z" transform="translate(-489.815 -473.03)" fill="#f8f8f8"/>
                <path id="Path_3060" data-name="Path 3060" d="M491.4,473.911a.447.447,0,0,0,.471.11.548.548,0,0,0,.057-.246.574.574,0,0,0-.559-.575A.53.53,0,0,0,491.4,473.911Z" transform="translate(-490.496 -473.111)" fill="#fff"/>
                <path id="Path_3061" data-name="Path 3061" d="M490.547,474.012a.835.835,0,0,1-.063-.972.766.766,0,1,0,.721,1.2A.633.633,0,0,1,490.547,474.012Z" transform="translate(-489.81 -473.035)" fill="#f6f6f6"/>
              </g>
              <g id="Group_1712" data-name="Group 1712" transform="translate(3.04 7.839)">
                <path id="Path_3062" data-name="Path 3062" d="M493.472,465.858a.766.766,0,1,1-.768-.768A.766.766,0,0,1,493.472,465.858Z" transform="translate(-491.94 -465.09)" fill="#f8f8f8"/>
                <path id="Path_3063" data-name="Path 3063" d="M493.52,465.966a.445.445,0,0,0,.471.11.546.546,0,0,0,.052-.246.578.578,0,0,0-.559-.58A.542.542,0,0,0,493.52,465.966Z" transform="translate(-492.621 -465.166)" fill="#fff"/>
                <path id="Path_3064" data-name="Path 3064" d="M492.672,466.077a.819.819,0,0,1-.063-.967.766.766,0,1,0,.721,1.208A.663.663,0,0,1,492.672,466.077Z" transform="translate(-491.94 -465.1)" fill="#f6f6f6"/>
              </g>
              <g id="Group_1713" data-name="Group 1713" transform="translate(5.141 4.117)">
                <path id="Path_3065" data-name="Path 3065" d="M497.5,458.739a.768.768,0,1,1-.769-.768A.77.77,0,0,1,497.5,458.739Z" transform="translate(-495.96 -457.97)" fill="#f8f8f8"/>
                <path id="Path_3066" data-name="Path 3066" d="M497.549,458.851a.453.453,0,0,0,.476.11.546.546,0,0,0,.052-.246.574.574,0,0,0-.559-.575A.524.524,0,0,0,497.549,458.851Z" transform="translate(-496.644 -458.051)" fill="#fff"/>
                <path id="Path_3067" data-name="Path 3067" d="M496.7,458.952a.844.844,0,0,1-.063-.972.769.769,0,0,0,.094,1.532.76.76,0,0,0,.627-.324A.674.674,0,0,1,496.7,458.952Z" transform="translate(-495.96 -457.975)" fill="#f6f6f6"/>
              </g>
              <path id="Path_3068" data-name="Path 3068" d="M503.832,467.1c-1.072,2.7-3.278,4.349-4.93,3.691s-2.128-3.377-1.056-6.069,3.283-4.349,4.935-3.691S504.909,464.4,503.832,467.1Z" transform="translate(-491.446 -455.244)" fill="#fbfbfb"/>
            </g>
            <path id="Path_3069" data-name="Path 3069" d="M598.653,379.892s-4.836-26.63,15.9-37.66c0,0,19.75-12.938,23.221,13.341Z" transform="translate(-386.688 -258.303)" fill="#555"/>
            <path id="Path_3070" data-name="Path 3070" d="M637.163,376.411C632.312,388.6,621.9,395.9,613.895,392.716s-10.56-15.646-5.714-27.832,15.265-19.489,23.268-16.305S642.009,364.225,637.163,376.411Z" transform="translate(-390.298 -262.495)" fill="#d4d4d4"/>
            <g id="Group_1727" data-name="Group 1727" transform="translate(223.515 96.785)">
              <path id="Path_3071" data-name="Path 3071" d="M637.627,384.671c-2.535,6.372-7.983,10.189-12.165,8.521s-5.52-8.176-2.985-14.549,7.982-10.189,12.165-8.521S640.168,378.3,637.627,384.671Z" transform="translate(-621.193 -369.731)" fill="#555"/>
              <path id="Path_3072" data-name="Path 3072" d="M638.513,383.6c-2.237,5.635-7.052,9.007-10.748,7.538s-4.877-7.23-2.64-12.86,7.052-9.007,10.753-7.538S640.751,377.961,638.513,383.6Z" transform="translate(-622.529 -370.047)" fill="#f8f8f8"/>
              <path id="Path_3073" data-name="Path 3073" d="M638.513,383.6c-2.237,5.635-7.052,9.007-10.748,7.538s-4.877-7.23-2.64-12.86,7.052-9.007,10.753-7.538S640.751,377.961,638.513,383.6Z" transform="translate(-622.529 -370.047)" fill="#f8f8f8"/>
              <path id="Path_3074" data-name="Path 3074" d="M638.807,385.39c-1.5,3.769-4.585,6.074-6.89,5.16s-2.964-4.715-1.469-8.484,4.585-6.08,6.89-5.16S640.3,381.621,638.807,385.39Z" transform="translate(-625.227 -373.059)" fill="#e8e8e8"/>
              <g id="Group_1715" data-name="Group 1715" transform="translate(8.525 1.583)">
                <path id="Path_3075" data-name="Path 3075" d="M639.032,373.528a.766.766,0,1,1-.768-.768A.77.77,0,0,1,639.032,373.528Z" transform="translate(-637.5 -372.76)" fill="#f8f8f8"/>
                <path id="Path_3076" data-name="Path 3076" d="M639.068,373.641a.447.447,0,0,0,.471.11.546.546,0,0,0,.052-.246.574.574,0,0,0-.559-.575A.53.53,0,0,0,639.068,373.641Z" transform="translate(-638.174 -372.841)" fill="#fff"/>
                <path id="Path_3077" data-name="Path 3077" d="M638.232,373.747a.819.819,0,0,1-.063-.967.766.766,0,0,0,.094,1.527.751.751,0,0,0,.622-.324A.662.662,0,0,1,638.232,373.747Z" transform="translate(-637.5 -372.77)" fill="#f6f6f6"/>
              </g>
              <g id="Group_1716" data-name="Group 1716" transform="translate(12.137 1.327)">
                <path id="Path_3078" data-name="Path 3078" d="M645.957,373.039a.768.768,0,1,1-.768-.768A.766.766,0,0,1,645.957,373.039Z" transform="translate(-644.415 -372.27)" fill="#f8f8f8"/>
                <path id="Path_3079" data-name="Path 3079" d="M646,373.146a.447.447,0,0,0,.47.11.543.543,0,0,0,.052-.246.578.578,0,0,0-.559-.58A.542.542,0,0,0,646,373.146Z" transform="translate(-645.095 -372.346)" fill="#fff"/>
                <path id="Path_3080" data-name="Path 3080" d="M645.147,373.257a.836.836,0,0,1-.063-.967.766.766,0,0,0,.094,1.526.751.751,0,0,0,.622-.324A.662.662,0,0,1,645.147,373.257Z" transform="translate(-644.41 -372.28)" fill="#f6f6f6"/>
              </g>
              <g id="Group_1717" data-name="Group 1717" transform="translate(14.578 4.286)">
                <path id="Path_3081" data-name="Path 3081" d="M650.627,378.7a.768.768,0,1,1-.768-.768A.766.766,0,0,1,650.627,378.7Z" transform="translate(-649.085 -377.93)" fill="#f8f8f8"/>
                <path id="Path_3082" data-name="Path 3082" d="M650.68,378.811a.445.445,0,0,0,.471.11.546.546,0,0,0,.052-.246.574.574,0,0,0-.559-.575A.536.536,0,0,0,650.68,378.811Z" transform="translate(-649.77 -378.011)" fill="#fff"/>
                <path id="Path_3083" data-name="Path 3083" d="M649.817,378.912a.827.827,0,0,1-.063-.972.766.766,0,0,0,.094,1.527.744.744,0,0,0,.622-.324A.641.641,0,0,1,649.817,378.912Z" transform="translate(-649.08 -377.935)" fill="#f6f6f6"/>
              </g>
              <g id="Group_1718" data-name="Group 1718" transform="translate(14.986 8.776)">
                <path id="Path_3084" data-name="Path 3084" d="M651.4,387.288a.768.768,0,1,1-.768-.768A.77.77,0,0,1,651.4,387.288Z" transform="translate(-649.86 -386.52)" fill="#f8f8f8"/>
                <path id="Path_3085" data-name="Path 3085" d="M651.44,387.4a.447.447,0,0,0,.471.11.548.548,0,0,0,.057-.246.578.578,0,0,0-.559-.58A.536.536,0,0,0,651.44,387.4Z" transform="translate(-650.541 -386.596)" fill="#fff"/>
                <path id="Path_3086" data-name="Path 3086" d="M650.592,387.5a.835.835,0,0,1-.063-.972.767.767,0,1,0,.727,1.2A.645.645,0,0,1,650.592,387.5Z" transform="translate(-649.86 -386.525)" fill="#f6f6f6"/>
              </g>
              <g id="Group_1719" data-name="Group 1719" transform="translate(13.82 12.415)">
                <path id="Path_3087" data-name="Path 3087" d="M649.167,394.248a.768.768,0,1,1-.768-.768A.77.77,0,0,1,649.167,394.248Z" transform="translate(-647.63 -393.48)" fill="#f8f8f8"/>
                <path id="Path_3088" data-name="Path 3088" d="M649.21,394.361a.445.445,0,0,0,.471.11.548.548,0,0,0,.057-.246.57.57,0,0,0-.559-.575A.53.53,0,0,0,649.21,394.361Z" transform="translate(-648.311 -393.561)" fill="#fff"/>
                <path id="Path_3089" data-name="Path 3089" d="M648.362,394.467a.828.828,0,0,1-.063-.967.766.766,0,0,0,.1,1.526.751.751,0,0,0,.622-.324A.653.653,0,0,1,648.362,394.467Z" transform="translate(-647.63 -393.49)" fill="#f6f6f6"/>
              </g>
              <g id="Group_1720" data-name="Group 1720" transform="translate(11.891 15.902)">
                <path id="Path_3090" data-name="Path 3090" d="M645.492,400.918a.766.766,0,1,1-.763-.768A.765.765,0,0,1,645.492,400.918Z" transform="translate(-643.95 -400.15)" fill="#f8f8f8"/>
                <path id="Path_3091" data-name="Path 3091" d="M645.529,401.031a.446.446,0,0,0,.47.11.549.549,0,0,0,.057-.246.577.577,0,0,0-.559-.575A.524.524,0,0,0,645.529,401.031Z" transform="translate(-644.624 -400.231)" fill="#fff"/>
                <path id="Path_3092" data-name="Path 3092" d="M644.677,401.132a.844.844,0,0,1-.063-.972.769.769,0,1,0,.721,1.208A.674.674,0,0,1,644.677,401.132Z" transform="translate(-643.94 -400.155)" fill="#f6f6f6"/>
              </g>
              <g id="Group_1721" data-name="Group 1721" transform="translate(8.525 18.385)">
                <path id="Path_3093" data-name="Path 3093" d="M639.032,405.669a.766.766,0,1,1-.768-.768A.77.77,0,0,1,639.032,405.669Z" transform="translate(-637.5 -404.9)" fill="#f8f8f8"/>
                <path id="Path_3094" data-name="Path 3094" d="M639.068,405.786a.447.447,0,0,0,.471.11.546.546,0,0,0,.052-.246.582.582,0,0,0-.559-.58A.536.536,0,0,0,639.068,405.786Z" transform="translate(-638.174 -404.981)" fill="#fff"/>
                <path id="Path_3095" data-name="Path 3095" d="M638.232,405.892a.826.826,0,0,1-.063-.972.769.769,0,0,0,.094,1.532.751.751,0,0,0,.622-.324A.662.662,0,0,1,638.232,405.892Z" transform="translate(-637.5 -404.91)" fill="#f6f6f6"/>
              </g>
              <g id="Group_1722" data-name="Group 1722" transform="translate(5.075 18.646)">
                <path id="Path_3096" data-name="Path 3096" d="M632.442,406.168a.766.766,0,1,1-.763-.768A.769.769,0,0,1,632.442,406.168Z" transform="translate(-630.905 -405.4)" fill="#f8f8f8"/>
                <path id="Path_3097" data-name="Path 3097" d="M632.48,406.276a.445.445,0,0,0,.47.11.628.628,0,0,0,.057-.246.582.582,0,0,0-.559-.58A.536.536,0,0,0,632.48,406.276Z" transform="translate(-631.581 -405.476)" fill="#fff"/>
                <path id="Path_3098" data-name="Path 3098" d="M631.632,406.382a.827.827,0,0,1-.063-.972.766.766,0,0,0,.1,1.526.751.751,0,0,0,.622-.324A.66.66,0,0,1,631.632,406.382Z" transform="translate(-630.9 -405.405)" fill="#f6f6f6"/>
              </g>
              <g id="Group_1723" data-name="Group 1723" transform="translate(2.586 16.153)">
                <path id="Path_3099" data-name="Path 3099" d="M627.677,401.4a.768.768,0,1,1-.768-.769A.77.77,0,0,1,627.677,401.4Z" transform="translate(-626.14 -400.63)" fill="#f8f8f8"/>
                <path id="Path_3100" data-name="Path 3100" d="M627.718,401.511a.447.447,0,0,0,.47.11.624.624,0,0,0,.052-.246.577.577,0,0,0-.559-.575A.529.529,0,0,0,627.718,401.511Z" transform="translate(-626.819 -400.711)" fill="#fff"/>
                <path id="Path_3101" data-name="Path 3101" d="M626.882,401.627a.82.82,0,0,1-.063-.967.766.766,0,0,0,.1,1.526.751.751,0,0,0,.622-.324A.667.667,0,0,1,626.882,401.627Z" transform="translate(-626.145 -400.644)" fill="#f6f6f6"/>
              </g>
              <g id="Group_1724" data-name="Group 1724" transform="translate(1.933 11.991)">
                <path id="Path_3102" data-name="Path 3102" d="M626.422,393.438a.766.766,0,1,1-.763-.768A.769.769,0,0,1,626.422,393.438Z" transform="translate(-624.89 -392.67)" fill="#f8f8f8"/>
                <path id="Path_3103" data-name="Path 3103" d="M626.468,393.546a.447.447,0,0,0,.471.11.625.625,0,0,0,.052-.246.582.582,0,0,0-.559-.58A.536.536,0,0,0,626.468,393.546Z" transform="translate(-625.569 -392.746)" fill="#fff"/>
                <path id="Path_3104" data-name="Path 3104" d="M625.622,393.662a.827.827,0,0,1-.063-.972.766.766,0,0,0,.1,1.526.758.758,0,0,0,.622-.324A.656.656,0,0,1,625.622,393.662Z" transform="translate(-624.89 -392.68)" fill="#f6f6f6"/>
              </g>
              <g id="Group_1725" data-name="Group 1725" transform="translate(3.031 7.841)">
                <path id="Path_3105" data-name="Path 3105" d="M628.527,385.5a.768.768,0,1,1-.768-.768A.766.766,0,0,1,628.527,385.5Z" transform="translate(-626.99 -384.73)" fill="#f8f8f8"/>
                <path id="Path_3106" data-name="Path 3106" d="M628.586,385.611a.447.447,0,0,0,.471.11.626.626,0,0,0,.052-.246.57.57,0,0,0-.559-.575A.524.524,0,0,0,628.586,385.611Z" transform="translate(-627.677 -384.811)" fill="#fff"/>
                <path id="Path_3107" data-name="Path 3107" d="M627.737,385.712a.844.844,0,0,1-.063-.972.769.769,0,0,0,.094,1.532.751.751,0,0,0,.622-.324A.638.638,0,0,1,627.737,385.712Z" transform="translate(-626.995 -384.735)" fill="#f6f6f6"/>
              </g>
              <g id="Group_1726" data-name="Group 1726" transform="translate(5.142 4.119)">
                <circle id="Ellipse_143" data-name="Ellipse 143" cx="0.768" cy="0.768" r="0.768" transform="translate(0.005)" fill="#f8f8f8"/>
                <path id="Path_3108" data-name="Path 3108" d="M632.621,378.486a.445.445,0,0,0,.471.11.548.548,0,0,0,.057-.246.577.577,0,0,0-.554-.58A.53.53,0,0,0,632.621,378.486Z" transform="translate(-631.717 -377.686)" fill="#fff"/>
                <path id="Path_3109" data-name="Path 3109" d="M631.762,378.592a.827.827,0,0,1-.063-.972.766.766,0,0,0,.1,1.526.751.751,0,0,0,.622-.324A.656.656,0,0,1,631.762,378.592Z" transform="translate(-631.03 -377.615)" fill="#f6f6f6"/>
              </g>
              <path id="Path_3110" data-name="Path 3110" d="M638.9,386.747c-1.072,2.7-3.283,4.349-4.935,3.691s-2.123-3.372-1.051-6.069,3.283-4.349,4.935-3.691S639.968,384.05,638.9,386.747Z" transform="translate(-626.513 -374.886)" fill="#fbfbfb"/>
            </g>
            <path id="Path_3111" data-name="Path 3111" d="M193.63,273.575,384.366,184.59l5.709,1.694L198.889,275.6Z" transform="translate(-193.63 -184.59)" fill="#e4e4e4"/>
            <path id="Path_3112" data-name="Path 3112" d="M394.875,187.83v1.532L204.892,277.615l-1.2-.465Z" transform="translate(-198.431 -186.136)" fill="#efefef"/>
            <path id="Path_3113" data-name="Path 3113" d="M558.49,184.59" transform="translate(-367.754 -184.59)" fill="#fff"/>
            <path id="Path_3114" data-name="Path 3114" d="M558.49,184.59l106.33,31.57-4.245,2.441L558.49,188.558Z" transform="translate(-367.754 -184.59)" fill="#e2e2e2"/>
          </g>
          <g id="Group_1759" data-name="Group 1759" transform="translate(0 17.92)">
            <g id="Group_1729" data-name="Group 1729" transform="translate(0 46.876)">
              <path id="Path_3115" data-name="Path 3115" d="M69.327,308.54l-21.2,5.933s-13.529,2.875-13.414,21.114h7.068s.382-11.532,10.372-13.524l14.334-2.2Z" transform="translate(-30.726 -308.54)" fill="#001327"/>
              <path id="Path_3116" data-name="Path 3116" d="M39.5,380.03l-12.41-3.382V353.17l12.41,3.387Z" transform="translate(-27.09 -329.839)" fill="#001327"/>
              <path id="Path_3117" data-name="Path 3117" d="M50.83,358.963l1.317-.753v22.28l-1.317,1.945Z" transform="translate(-38.42 -332.244)" fill="#05101c"/>
              <path id="Path_3118" data-name="Path 3118" d="M27.09,352.731l1.751-.481,11.977,3.116-1.317.753Z" transform="translate(-27.09 -329.4)" fill="#05101c"/>
            </g>
            <path id="Path_3119" data-name="Path 3119" d="M324.292,535.065l-13.357-3.57a6.575,6.575,0,0,1-3.095-3.414c-1.793-7.7-3.152-11.637.089-19.787,4.846-12.191,15.265-19.489,23.268-16.305s10.56,15.646,5.714,27.832c-3.011,7.575-7.225,12.782-12.62,15.244" transform="translate(-160.18 -348.856)" fill="#555"/>
            <path id="Path_3120" data-name="Path 3120" d="M334.293,288.99l-49.7,26.948s-13.477,4.051-14.674,25.851l-8.333,94.631s-1.662,10.779,17.554-.925l55.152-32.432Z" transform="translate(-138.983 -252.334)" fill="#fdb819"/>
            <path id="Path_3121" data-name="Path 3121" d="M92.11,535.88s67.536,32.26,92.451,23.148" transform="translate(-58.12 -370.158)" fill="#fff"/>
            <path id="Path_3122" data-name="Path 3122" d="M264.143,479.644l-2.556,29.029s-1.662,10.779,17.554-.925l55.152-32.432V440.39Z" transform="translate(-138.983 -324.587)" fill="#001327"/>
            <path id="Path_3123" data-name="Path 3123" d="M172.407,488.189l-.293,35.02C147.257,531.955,79.721,499.7,79.721,499.7,66.1,494,67.833,480.112,67.833,480.112A154.256,154.256,0,0,1,66.15,460.08S124.632,491.284,172.407,488.189Z" transform="translate(-45.731 -333.984)" fill="#001327"/>
            <path id="Path_3124" data-name="Path 3124" d="M171.458,484.817l.031,17.523c-33.76,6.226-104.82-28.59-104.82-28.59" transform="translate(-45.979 -340.508)" fill="none" stroke="#d59a13" stroke-linejoin="round" stroke-miterlimit="10" stroke-width="3.944"/>
            <path id="Path_3125" data-name="Path 3125" d="M161.935,218.87,104.65,249.729l97.867,36.557,56.9-30.822Z" transform="translate(-64.104 -218.87)" fill="#fdb819"/>
            <g id="Group_1730" data-name="Group 1730" transform="translate(133.965 50.248)">
              <path id="Path_3126" data-name="Path 3126" d="M330.792,314.99,304.5,329.481c-.946.444-13.879,6.827-15.735,24.492l-5.405,40.284a1.029,1.029,0,0,0,1.025,1.166,1.044,1.044,0,0,0,.512-.136l45.9-26.206V314.99Z" transform="translate(-283.352 -314.99)" fill="#001327"/>
            </g>
            <g id="Group_1734" data-name="Group 1734" transform="translate(138.125 55.073)">
              <g id="Group_1733" data-name="Group 1733">
                <g id="Group_1732" data-name="Group 1732">
                  <g id="Group_1731" data-name="Group 1731">
                    <path id="Path_3127" data-name="Path 3127" d="M331.673,324.22,310.38,336.029l-.063.026c-.507.235-12.369,5.97-14.057,22.071l-4.951,36.886,40.363-23.138Z" transform="translate(-291.31 -324.22)" fill="#c2c2c2"/>
                  </g>
                </g>
              </g>
            </g>
            <path id="Path_3128" data-name="Path 3128" d="M327.393,345.332a12.5,12.5,0,0,0-1.568.92,48.483,48.483,0,0,0-1.887,7.5,41.026,41.026,0,0,0-.528,9.9c.193,2.175.638,4.6,2.117,6.3,3.137,3.633,9.5,3.372,13.618,1.845a15.553,15.553,0,0,0,4.271-2.415,23.871,23.871,0,0,1,.815-3.4V336.1l-16.791,9.216Z" transform="translate(-168.452 -274.816)" fill="#fff"/>
            <path id="Path_3129" data-name="Path 3129" d="M325.833,384.986c-5.51,1.762-14.094,2.311-18.312-2.567a14.59,14.59,0,0,1-3.116-7.768,48.667,48.667,0,0,1,.308-13.158,66.555,66.555,0,0,1,2.567-10.983c-3.774,2.818-9.849,8.992-11.02,20.168l-4.951,36.886,40.154-23.028c.016-.57.063-1.458.2-2.572A19.889,19.889,0,0,1,325.833,384.986Z" transform="translate(-153.185 -281.693)" fill="#c2c2c2"/>
            <path id="Path_3130" data-name="Path 3130" d="M267.12,458.431c22.662-13.4,47.174-26.562,69.831-39.971" transform="translate(-141.641 -314.121)" fill="none" stroke="#d59a13" stroke-linejoin="round" stroke-miterlimit="10" stroke-width="3.944"/>
            <path id="Path_3131" data-name="Path 3131" d="M80.616,455.22s-1.96,6.65,3.785,10.121c0,0,45.951,19.138,68.226,22.489,0,0,5.928-1.26,3.837-7.544Z" transform="translate(-52.48 -331.665)" fill="#4c4c4c"/>
            <path id="Path_3132" data-name="Path 3132" d="M91.68,273.81c-13.43.251-17.256,17.858-17.256,17.858s-9.368,36.5-8.469,74.107c0,0,66.616,30.791,95.76,30.085,9.378.209,10.335-5.259,10.335-5.259.418-38.324,5.6-63.981,5.6-63.981,2.959-16.979,13.571-17.92,13.571-17.92S97.205,282.629,91.68,273.81Z" transform="translate(-45.608 -245.089)" fill="#d59a13"/>
            <path id="Path_3133" data-name="Path 3133" d="M167.054,396.751s-.324,6.137-9.692,4.731c-1.579-.235-64.091-14.481-91.541-31.967-1.014-31.674,8.526-65.121,8.526-65.121s1.955-5.9,6.864-3.55c28.025,13.414,83.25,25.981,83.25,25.981s8.641.795,7.1,13.132C171.566,339.952,168.105,359.4,167.054,396.751Z" transform="translate(-45.538 -257.727)" fill="#c2c2c2"/>
            <path id="Path_3134" data-name="Path 3134" d="M157.861,423.01a30.819,30.819,0,0,1-12.024,2.321c-9.9.162-44.262-9.425-53.474-13.147-7.418-3-14.46-7.256-19.238-13.827a64.085,64.085,0,0,1-6.142-11.407c-.068-.146-.136-.3-.2-.45a184.058,184.058,0,0,0-.967,24.152c27.456,17.486,89.968,31.732,91.541,31.967,9.368,1.406,9.692-4.731,9.692-4.731.235-8.328.591-15.761,1-22.3A30.467,30.467,0,0,1,157.861,423.01Z" transform="translate(-45.535 -298.869)" fill="#c2c2c2"/>
            <path id="Path_3135" data-name="Path 3135" d="M109.958,474.122a1.35,1.35,0,0,1-1.73.8l-6.4-2.358a1.346,1.346,0,0,1-.8-1.73h0a1.346,1.346,0,0,1,1.73-.8l6.409,2.358a1.356,1.356,0,0,1,.795,1.73Z" transform="translate(-62.334 -338.695)" fill="#fff"/>
            <path id="Path_3136" data-name="Path 3136" d="M187.669,500.881a1.341,1.341,0,0,1-1.694.873l-6.5-2.07a1.353,1.353,0,0,1-.878-1.694h0a1.351,1.351,0,0,1,1.694-.878l6.5,2.07a1.358,1.358,0,0,1,.878,1.7Z" transform="translate(-99.364 -351.627)" fill="#fff"/>
            <g id="Group_1737" data-name="Group 1737" transform="translate(20.753 138.355)">
              <path id="Path_3137" data-name="Path 3137" d="M68.107,494.121l13.357,5.552s3.267-9.263-14.319-16.143c0,0-1.255.366.946,10.33" transform="translate(-66.789 -483.53)" fill="#d0d0d0"/>
              <g id="Group_1735" data-name="Group 1735" transform="translate(2.897 4.501)">
                <path id="Path_3138" data-name="Path 3138" d="M78.682,495.313A3.176,3.176,0,1,1,75.5,492.14,3.177,3.177,0,0,1,78.682,495.313Z" transform="translate(-72.33 -492.14)" fill="#f8f8f8"/>
                <path id="Path_3139" data-name="Path 3139" d="M78.861,495.764a1.851,1.851,0,0,0,1.95.455,2.347,2.347,0,0,0,.23-1.014,2.4,2.4,0,0,0-2.311-2.394A2.2,2.2,0,0,0,78.861,495.764Z" transform="translate(-75.144 -492.46)" fill="#fff"/>
                <path id="Path_3140" data-name="Path 3140" d="M75.367,496.21a3.444,3.444,0,0,1-.261-4.02,3.175,3.175,0,1,0,2.985,4.992A2.724,2.724,0,0,1,75.367,496.21Z" transform="translate(-72.33 -492.164)" fill="#f6f6f6"/>
              </g>
              <g id="Group_1736" data-name="Group 1736" transform="translate(8.464 8.897)">
                <path id="Path_3141" data-name="Path 3141" d="M87.277,502.7a2.149,2.149,0,1,1-2.149-2.149A2.149,2.149,0,0,1,87.277,502.7Z" transform="translate(-82.98 -500.55)" fill="#f8f8f8"/>
                <path id="Path_3142" data-name="Path 3142" d="M87.4,503.007a1.252,1.252,0,0,0,1.323.308,1.661,1.661,0,0,0,.152-.685,1.621,1.621,0,0,0-1.563-1.62A1.49,1.49,0,0,0,87.4,503.007Z" transform="translate(-84.884 -500.77)" fill="#fff"/>
                <path id="Path_3143" data-name="Path 3143" d="M85.039,503.308a2.324,2.324,0,0,1-.173-2.718,2.147,2.147,0,1,0,2.023,3.372A1.839,1.839,0,0,1,85.039,503.308Z" transform="translate(-82.985 -500.569)" fill="#f6f6f6"/>
              </g>
              <path id="Path_3144" data-name="Path 3144" d="M71.745,489.5a1.662,1.662,0,1,1-1.662-1.662A1.663,1.663,0,0,1,71.745,489.5Z" transform="translate(-67.567 -485.587)" fill="#999"/>
            </g>
            <g id="Group_1740" data-name="Group 1740" transform="translate(102.232 168.651)">
              <path id="Path_3145" data-name="Path 3145" d="M243.571,542.883v9.828L222.65,548.1S223.7,537.828,243.571,542.883Z" transform="translate(-222.65 -541.484)" fill="#d0d0d0"/>
              <g id="Group_1738" data-name="Group 1738" transform="translate(9.502 1.135)">
                <path id="Path_3146" data-name="Path 3146" d="M241.471,545.1a3.448,3.448,0,1,0,4.815-.795A3.453,3.453,0,0,0,241.471,545.1Z" transform="translate(-240.826 -543.656)" fill="#f8f8f8"/>
                <path id="Path_3147" data-name="Path 3147" d="M244.517,547.126a2.006,2.006,0,0,1-2.007-.831,2.546,2.546,0,0,1,.439-1.035,2.6,2.6,0,0,1,3.56-.648A2.4,2.4,0,0,1,244.517,547.126Z" transform="translate(-241.63 -543.904)" fill="#fff"/>
                <path id="Path_3148" data-name="Path 3148" d="M243.856,548.812a3.734,3.734,0,0,0,2.776-3.382,3.447,3.447,0,1,1-5.792,2.509A2.94,2.94,0,0,0,243.856,548.812Z" transform="translate(-240.833 -544.503)" fill="#f6f6f6"/>
              </g>
              <g id="Group_1739" data-name="Group 1739" transform="translate(4.47 2.355)">
                <path id="Path_3149" data-name="Path 3149" d="M231.652,546.962a2.334,2.334,0,1,0,3.257-.538A2.335,2.335,0,0,0,231.652,546.962Z" transform="translate(-231.208 -545.989)" fill="#f8f8f8"/>
                <path id="Path_3150" data-name="Path 3150" d="M233.709,548.335a1.35,1.35,0,0,1-1.359-.565,1.725,1.725,0,0,1,.3-.7,1.76,1.76,0,0,1,2.4-.439A1.625,1.625,0,0,1,233.709,548.335Z" transform="translate(-231.749 -546.154)" fill="#fff"/>
                <path id="Path_3151" data-name="Path 3151" d="M233.249,549.47a2.524,2.524,0,0,0,1.871-2.29,2.334,2.334,0,1,1-3.921,1.7A2.017,2.017,0,0,0,233.249,549.47Z" transform="translate(-231.2 -546.557)" fill="#f6f6f6"/>
              </g>
              <path id="Path_3152" data-name="Path 3152" d="M254.861,545.512a1.806,1.806,0,1,0,2.52-.413A1.806,1.806,0,0,0,254.861,545.512Z" transform="translate(-237.86 -543.047)" fill="#999"/>
            </g>
            <g id="Group_1741" data-name="Group 1741" transform="translate(38.601 149.411)">
              <path id="Path_3153" data-name="Path 3153" d="M102.995,507.984c16.2,7.622,42.563,15.542,49.176,17.487v14.773c-12.677-3.33-42.642-15.558-49.176-18.245V507.984m-2.065-3.3v18.694s41.068,17.074,53.3,19.468V523.923c0-.005-35.726-10.246-53.3-19.243Z" transform="translate(-100.93 -504.68)" fill="#f2f2f2"/>
            </g>
            <g id="Group_1742" data-name="Group 1742" transform="translate(41.377 154.623)">
              <path id="Path_3154" data-name="Path 3154" d="M106.24,514.65v1.8s30.509,12.818,47.749,16.681v-1.8C153.989,531.337,117.5,520.761,106.24,514.65Z" transform="translate(-106.24 -514.65)" fill="#f6f6f6"/>
              <path id="Path_3155" data-name="Path 3155" d="M106.24,520.64v1.8s30.958,12.7,47.749,16.681v-1.8S117.5,526.746,106.24,520.64Z" transform="translate(-106.24 -517.509)" fill="#f6f6f6"/>
              <path id="Path_3156" data-name="Path 3156" d="M106.24,526.61v1.8s30.509,12.818,47.749,16.681v-1.8C153.989,543.3,117.5,532.726,106.24,526.61Z" transform="translate(-106.24 -520.358)" fill="#f6f6f6"/>
              <path id="Path_3157" data-name="Path 3157" d="M106.24,532.6v1.793s31.58,12.687,47.749,16.681v-1.8C153.989,549.287,117.5,538.711,106.24,532.6Z" transform="translate(-106.24 -523.216)" fill="#f6f6f6"/>
            </g>
            <g id="Group_1743" data-name="Group 1743" transform="translate(105.17 77.296)">
              <path id="Path_3158" data-name="Path 3158" d="M270.507,366.73l-21.2,5.933s-13.524,2.875-13.414,21.109h7.073s.387-11.532,10.366-13.524l14.339-2.2Z" transform="translate(-231.906 -366.73)" fill="#001327"/>
              <path id="Path_3159" data-name="Path 3159" d="M240.68,438.22l-12.41-3.388V411.36l12.41,3.388Z" transform="translate(-228.27 -388.029)" fill="#001327"/>
              <path id="Path_3160" data-name="Path 3160" d="M252.01,417.153l1.312-.753v22.28l-1.312,1.945Z" transform="translate(-239.6 -390.434)" fill="#001327"/>
              <path id="Path_3161" data-name="Path 3161" d="M228.27,410.921l1.751-.481,11.971,3.116-1.312.753Z" transform="translate(-228.27 -387.59)" fill="#001327"/>
            </g>
            <g id="Group_1744" data-name="Group 1744" transform="translate(125.511 119.797)">
              <path id="Path_3162" data-name="Path 3162" d="M267.18,491.745c21.956-14.789,45.47-27.017,68.393-40.185" transform="translate(-267.18 -449.715)" fill="none" stroke="#f2f2f2" stroke-linejoin="round" stroke-miterlimit="10" stroke-width="1.375"/>
              <line id="Line_19" data-name="Line 19" y2="47.624" transform="translate(41.403)" fill="none" stroke="#f2f2f2" stroke-linejoin="round" stroke-miterlimit="10" stroke-width="1.375"/>
            </g>
            <path id="Path_3163" data-name="Path 3163" d="M315.953,520.512s-4.836-26.63,15.892-37.66c0,0,19.75-12.938,23.221,13.341Z" transform="translate(-164.712 -343.332)" fill="#555"/>
            <path id="Path_3164" data-name="Path 3164" d="M354.456,517.011c-4.851,12.191-15.265,19.489-23.268,16.3s-10.555-15.646-5.709-27.832,15.265-19.489,23.268-16.3S359.308,504.831,354.456,517.011Z" transform="translate(-168.321 -347.515)" fill="#d4d4d4"/>
            <g id="Group_1757" data-name="Group 1757" transform="translate(162.786 152.368)">
              <path id="Path_3165" data-name="Path 3165" d="M354.918,525.279c-2.535,6.372-7.983,10.189-12.165,8.521s-5.52-8.176-2.985-14.549,7.977-10.189,12.165-8.526S357.454,518.906,354.918,525.279Z" transform="translate(-338.485 -510.335)" fill="#555"/>
              <path id="Path_3166" data-name="Path 3166" d="M355.8,524.206c-2.243,5.635-7.057,9.007-10.753,7.538s-4.883-7.23-2.64-12.86,7.057-9.007,10.753-7.538S358.04,518.571,355.8,524.206Z" transform="translate(-339.814 -510.654)" fill="#f8f8f8"/>
              <path id="Path_3167" data-name="Path 3167" d="M355.8,524.206c-2.243,5.635-7.057,9.007-10.753,7.538s-4.883-7.23-2.64-12.86,7.057-9.007,10.753-7.538S358.04,518.571,355.8,524.206Z" transform="translate(-339.814 -510.654)" fill="#f8f8f8"/>
              <path id="Path_3168" data-name="Path 3168" d="M356.094,526c-1.5,3.769-4.585,6.075-6.9,5.16s-2.964-4.715-1.464-8.484,4.585-6.08,6.9-5.16S357.589,522.231,356.094,526Z" transform="translate(-342.516 -513.666)" fill="#e8e8e8"/>
              <g id="Group_1745" data-name="Group 1745" transform="translate(8.518 1.586)">
                <path id="Path_3169" data-name="Path 3169" d="M356.317,514.139a.768.768,0,1,1-.768-.768A.766.766,0,0,1,356.317,514.139Z" transform="translate(-354.78 -513.37)" fill="#f8f8f8"/>
                <path id="Path_3170" data-name="Path 3170" d="M356.36,514.251a.444.444,0,0,0,.47.11.548.548,0,0,0,.057-.246.57.57,0,0,0-.559-.575A.529.529,0,0,0,356.36,514.251Z" transform="translate(-355.461 -513.451)" fill="#fff"/>
                <path id="Path_3171" data-name="Path 3171" d="M355.522,514.342a.827.827,0,0,1-.063-.972.766.766,0,0,0,.1,1.526.758.758,0,0,0,.622-.324A.633.633,0,0,1,355.522,514.342Z" transform="translate(-354.785 -513.37)" fill="#f6f6f6"/>
              </g>
              <g id="Group_1746" data-name="Group 1746" transform="translate(12.141 1.33)">
                <path id="Path_3172" data-name="Path 3172" d="M363.252,513.649a.766.766,0,1,1-.763-.769A.769.769,0,0,1,363.252,513.649Z" transform="translate(-361.715 -512.88)" fill="#f8f8f8"/>
                <path id="Path_3173" data-name="Path 3173" d="M363.29,513.756a.436.436,0,0,0,.47.11.548.548,0,0,0,.057-.246.578.578,0,0,0-.559-.58A.536.536,0,0,0,363.29,513.756Z" transform="translate(-362.391 -512.956)" fill="#fff"/>
                <path id="Path_3174" data-name="Path 3174" d="M362.447,513.857a.828.828,0,0,1-.063-.967.766.766,0,0,0,.094,1.526.751.751,0,0,0,.622-.324A.632.632,0,0,1,362.447,513.857Z" transform="translate(-361.71 -512.885)" fill="#f6f6f6"/>
              </g>
              <g id="Group_1747" data-name="Group 1747" transform="translate(14.588 4.289)">
                <path id="Path_3175" data-name="Path 3175" d="M367.927,519.309a.768.768,0,1,1-.768-.768A.77.77,0,0,1,367.927,519.309Z" transform="translate(-366.39 -518.54)" fill="#f8f8f8"/>
                <path id="Path_3176" data-name="Path 3176" d="M367.97,519.416a.447.447,0,0,0,.471.11.549.549,0,0,0,.057-.246.585.585,0,0,0-.559-.58A.536.536,0,0,0,367.97,519.416Z" transform="translate(-367.071 -518.616)" fill="#fff"/>
                <path id="Path_3177" data-name="Path 3177" d="M367.127,519.522a.827.827,0,0,1-.063-.972.766.766,0,0,0,.094,1.526.751.751,0,0,0,.622-.324A.628.628,0,0,1,367.127,519.522Z" transform="translate(-366.39 -518.545)" fill="#f6f6f6"/>
              </g>
              <g id="Group_1748" data-name="Group 1748" transform="translate(14.98 8.78)">
                <path id="Path_3178" data-name="Path 3178" d="M368.677,527.9a.768.768,0,1,1-.768-.768A.77.77,0,0,1,368.677,527.9Z" transform="translate(-367.14 -527.13)" fill="#f8f8f8"/>
                <path id="Path_3179" data-name="Path 3179" d="M368.728,528.006a.445.445,0,0,0,.471.11.546.546,0,0,0,.052-.246.578.578,0,0,0-.559-.58A.536.536,0,0,0,368.728,528.006Z" transform="translate(-367.824 -527.206)" fill="#fff"/>
                <path id="Path_3180" data-name="Path 3180" d="M367.882,528.122a.835.835,0,0,1-.063-.972.766.766,0,0,0,.1,1.526.751.751,0,0,0,.622-.324A.66.66,0,0,1,367.882,528.122Z" transform="translate(-367.145 -527.14)" fill="#f6f6f6"/>
              </g>
              <g id="Group_1749" data-name="Group 1749" transform="translate(13.819 12.418)">
                <path id="Path_3181" data-name="Path 3181" d="M366.457,534.859a.768.768,0,1,1-.768-.769A.77.77,0,0,1,366.457,534.859Z" transform="translate(-364.92 -534.09)" fill="#f8f8f8"/>
                <path id="Path_3182" data-name="Path 3182" d="M366.5,534.961a.447.447,0,0,0,.471.11.549.549,0,0,0,.057-.246.575.575,0,0,0-.565-.575A.534.534,0,0,0,366.5,534.961Z" transform="translate(-365.601 -534.167)" fill="#fff"/>
                <path id="Path_3183" data-name="Path 3183" d="M365.657,535.082a.835.835,0,0,1-.063-.972.766.766,0,1,0,.721,1.2A.653.653,0,0,1,365.657,535.082Z" transform="translate(-364.92 -534.1)" fill="#f6f6f6"/>
              </g>
              <g id="Group_1750" data-name="Group 1750" transform="translate(11.895 15.905)">
                <path id="Path_3184" data-name="Path 3184" d="M362.777,541.529a.768.768,0,1,1-.768-.769A.77.77,0,0,1,362.777,541.529Z" transform="translate(-361.24 -540.76)" fill="#f8f8f8"/>
                <path id="Path_3185" data-name="Path 3185" d="M362.829,541.636a.445.445,0,0,0,.471.11.548.548,0,0,0,.058-.246.582.582,0,0,0-.559-.58A.53.53,0,0,0,362.829,541.636Z" transform="translate(-361.924 -540.836)" fill="#fff"/>
                <path id="Path_3186" data-name="Path 3186" d="M361.982,541.742a.835.835,0,0,1-.063-.972.766.766,0,1,0,.721,1.2A.646.646,0,0,1,361.982,541.742Z" transform="translate(-361.245 -540.765)" fill="#f6f6f6"/>
              </g>
              <g id="Group_1751" data-name="Group 1751" transform="translate(8.518 18.388)">
                <path id="Path_3187" data-name="Path 3187" d="M356.317,546.279a.768.768,0,1,1-.768-.768A.766.766,0,0,1,356.317,546.279Z" transform="translate(-354.78 -545.51)" fill="#f8f8f8"/>
                <path id="Path_3188" data-name="Path 3188" d="M356.36,546.386a.435.435,0,0,0,.47.11.549.549,0,0,0,.057-.246.578.578,0,0,0-.559-.58A.536.536,0,0,0,356.36,546.386Z" transform="translate(-355.461 -545.586)" fill="#fff"/>
                <path id="Path_3189" data-name="Path 3189" d="M355.522,546.5a.827.827,0,0,1-.063-.972.769.769,0,0,0,.1,1.532.758.758,0,0,0,.622-.324A.657.657,0,0,1,355.522,546.5Z" transform="translate(-354.785 -545.52)" fill="#f6f6f6"/>
              </g>
              <g id="Group_1752" data-name="Group 1752" transform="translate(5.073 18.649)">
                <path id="Path_3190" data-name="Path 3190" d="M349.727,546.779a.768.768,0,1,1-.768-.769A.77.77,0,0,1,349.727,546.779Z" transform="translate(-348.19 -546.01)" fill="#f8f8f8"/>
                <path id="Path_3191" data-name="Path 3191" d="M349.771,546.886a.453.453,0,0,0,.476.11.628.628,0,0,0,.058-.246.582.582,0,0,0-.559-.58A.53.53,0,0,0,349.771,546.886Z" transform="translate(-348.872 -546.086)" fill="#fff"/>
                <path id="Path_3192" data-name="Path 3192" d="M348.922,546.992a.844.844,0,0,1-.063-.972.767.767,0,1,0,.727,1.2A.665.665,0,0,1,348.922,546.992Z" transform="translate(-348.19 -546.015)" fill="#f6f6f6"/>
              </g>
              <g id="Group_1753" data-name="Group 1753" transform="translate(2.58 16.161)">
                <path id="Path_3193" data-name="Path 3193" d="M344.972,542.018a.766.766,0,1,1-.763-.768A.765.765,0,0,1,344.972,542.018Z" transform="translate(-343.43 -541.25)" fill="#f8f8f8"/>
                <path id="Path_3194" data-name="Path 3194" d="M345.01,542.131a.453.453,0,0,0,.476.11.627.627,0,0,0,.057-.246.578.578,0,0,0-.565-.575A.53.53,0,0,0,345.01,542.131Z" transform="translate(-344.106 -541.331)" fill="#fff"/>
                <path id="Path_3195" data-name="Path 3195" d="M344.157,542.222a.844.844,0,0,1-.063-.972.766.766,0,1,0,.721,1.208A.643.643,0,0,1,344.157,542.222Z" transform="translate(-343.42 -541.25)" fill="#f6f6f6"/>
              </g>
              <g id="Group_1754" data-name="Group 1754" transform="translate(1.926 12)">
                <path id="Path_3196" data-name="Path 3196" d="M343.707,534.059a.768.768,0,1,1-.768-.768A.77.77,0,0,1,343.707,534.059Z" transform="translate(-342.17 -533.29)" fill="#f8f8f8"/>
                <path id="Path_3197" data-name="Path 3197" d="M343.752,534.171a.447.447,0,0,0,.47.11.628.628,0,0,0,.057-.246.57.57,0,0,0-.559-.575A.535.535,0,0,0,343.752,534.171Z" transform="translate(-342.853 -533.371)" fill="#fff"/>
                <path id="Path_3198" data-name="Path 3198" d="M342.912,534.272a.844.844,0,0,1-.063-.972.766.766,0,0,0,.1,1.527.751.751,0,0,0,.622-.324A.656.656,0,0,1,342.912,534.272Z" transform="translate(-342.175 -533.295)" fill="#f6f6f6"/>
              </g>
              <g id="Group_1755" data-name="Group 1755" transform="translate(3.035 7.844)">
                <path id="Path_3199" data-name="Path 3199" d="M345.827,526.109a.768.768,0,1,1-.768-.769A.77.77,0,0,1,345.827,526.109Z" transform="translate(-344.29 -525.34)" fill="#f8f8f8"/>
                <path id="Path_3200" data-name="Path 3200" d="M345.88,526.231a.444.444,0,0,0,.47.11.625.625,0,0,0,.052-.246.569.569,0,0,0-.554-.575A.529.529,0,0,0,345.88,526.231Z" transform="translate(-344.976 -525.426)" fill="#fff"/>
                <path id="Path_3201" data-name="Path 3201" d="M345.032,526.327a.819.819,0,0,1-.063-.967.769.769,0,1,0,.721,1.208A.66.66,0,0,1,345.032,526.327Z" transform="translate(-344.295 -525.35)" fill="#f6f6f6"/>
              </g>
              <g id="Group_1756" data-name="Group 1756" transform="translate(5.141 4.122)">
                <path id="Path_3202" data-name="Path 3202" d="M349.857,518.988a.768.768,0,1,1-.768-.768A.766.766,0,0,1,349.857,518.988Z" transform="translate(-348.32 -518.22)" fill="#f8f8f8"/>
                <path id="Path_3203" data-name="Path 3203" d="M349.909,519.086a.447.447,0,0,0,.471.11.547.547,0,0,0,.052-.246.581.581,0,0,0-.554-.58A.53.53,0,0,0,349.909,519.086Z" transform="translate(-349.004 -518.292)" fill="#fff"/>
                <path id="Path_3204" data-name="Path 3204" d="M349.062,519.2a.835.835,0,0,1-.063-.972.766.766,0,0,0,.1,1.527.751.751,0,0,0,.622-.324A.639.639,0,0,1,349.062,519.2Z" transform="translate(-348.325 -518.225)" fill="#f6f6f6"/>
              </g>
              <path id="Path_3205" data-name="Path 3205" d="M356.191,527.352c-1.072,2.7-3.278,4.349-4.935,3.691s-2.122-3.377-1.051-6.075,3.283-4.349,4.93-3.691S357.263,524.65,356.191,527.352Z" transform="translate(-343.804 -515.489)" fill="#fbfbfb"/>
            </g>
            <g id="Group_1758" data-name="Group 1758" transform="translate(34.868 42.799)">
              <path id="Path_3206" data-name="Path 3206" d="M94.6,301.059a5.835,5.835,0,0,0-.805-.319l51.33,95.018q2.392.7,4.653,1.3l-51.043-94.1C97.35,302.34,95.97,301.712,94.6,301.059Z" transform="translate(-93.79 -300.74)" fill="#c2c2c2"/>
              <path id="Path_3207" data-name="Path 3207" d="M94.6,301.059a5.835,5.835,0,0,0-.805-.319l51.33,95.018q2.392.7,4.653,1.3l-51.043-94.1C97.35,302.34,95.97,301.712,94.6,301.059Z" transform="translate(-93.79 -300.74)" fill="#fff"/>
              <path id="Path_3208" data-name="Path 3208" d="M111.49,308.51l50.792,93.308c1.009.256,1.981.491,2.922.716l-50.63-92.786C113.544,309.346,112.52,308.939,111.49,308.51Z" transform="translate(-102.237 -304.448)" fill="#c2c2c2"/>
              <path id="Path_3209" data-name="Path 3209" d="M111.49,308.51l50.792,93.308c1.009.256,1.981.491,2.922.716l-50.63-92.786C113.544,309.346,112.52,308.939,111.49,308.51Z" transform="translate(-102.237 -304.448)" fill="#fff"/>
              <path id="Path_3210" data-name="Path 3210" d="M171.95,329.56l26.536,84.034c1.03.225,2,.429,2.891.612l-26.389-83.574Q173.474,330.114,171.95,329.56Z" transform="translate(-131.091 -314.494)" fill="#c2c2c2"/>
            </g>
          </g>
          <path id="Path_3211" data-name="Path 3211" d="M660.575,222.223l-2.128,1.171L558.49,194.088V192.18Z" transform="translate(-280.693 -188.212)" fill="#d8d8d8"/>
          <path id="Path_3212" data-name="Path 3212" d="M593.483,244.98,414.635,347.808l-5.625-1.96L584.063,245.9Z" transform="translate(-209.356 -213.41)" fill="#e1e1e1"/>
        </g>
        <g id="Group_1763" data-name="Group 1763" transform="translate(196.136 20.911)">
          <path id="Path_3213" data-name="Path 3213" d="M410.236,338.955l-7.956,4.266,47.284,15.51,44.7-25.919-7.617-2.013Z" transform="translate(-402.28 -275.277)" fill="#efefef"/>
          <g id="Group_1762" data-name="Group 1762" transform="translate(7.956)">
            <g id="Group_1761" data-name="Group 1761">
              <path id="Path_3214" data-name="Path 3214" d="M417.5,303.425l40.352,13.022v-47.4L417.5,256.35Z" transform="translate(-417.5 -239.747)" fill="#636363"/>
              <path id="Path_3215" data-name="Path 3215" d="M530.745,243.34,494.68,262.876v47.4s31.962-19.86,36.065-21.209Z" transform="translate(-454.333 -233.538)" fill="#8b8b8b"/>
              <path id="Path_3216" data-name="Path 3216" d="M417.62,241.193l40.347,12.7,36.066-19.536-40.7-9.765Z" transform="translate(-417.557 -224.59)" fill="#797979"/>
              <path id="Path_3217" data-name="Path 3217" d="M442.94,264.32v47.342l9.007,2.907V267.31Z" transform="translate(-429.641 -243.551)" fill="#fdb819"/>
            </g>
            <path id="Path_3218" data-name="Path 3218" d="M442.94,248.156l35.287-17.706,8.84,2.1-35.119,18.6Z" transform="translate(-429.641 -227.387)" fill="#fdb819"/>
          </g>
        </g>
        <g id="Group_1766" data-name="Group 1766" transform="translate(282.852 122.923)">
          <path id="Path_3219" data-name="Path 3219" d="M576.111,534.1l-7.951,4.261,47.279,15.51,44.7-25.914-7.611-2.013Z" transform="translate(-568.16 -470.417)" fill="#efefef"/>
          <g id="Group_1765" data-name="Group 1765" transform="translate(7.951 0)">
            <g id="Group_1764" data-name="Group 1764">
              <path id="Path_3220" data-name="Path 3220" d="M583.37,498.565l40.347,13.022v-47.4L583.37,451.49Z" transform="translate(-583.37 -434.887)" fill="#636363"/>
              <path id="Path_3221" data-name="Path 3221" d="M696.626,438.47,660.56,458.006v47.4s31.962-19.86,36.066-21.209Z" transform="translate(-620.208 -428.673)" fill="#8b8b8b"/>
              <path id="Path_3222" data-name="Path 3222" d="M583.49,436.333l40.352,12.693L659.9,429.5l-40.692-9.765Z" transform="translate(-583.427 -419.73)" fill="#797979"/>
              <path id="Path_3223" data-name="Path 3223" d="M608.8,459.46V506.8l9.018,2.907V462.45Z" transform="translate(-595.506 -438.691)" fill="#d59a13"/>
            </g>
            <path id="Path_3224" data-name="Path 3224" d="M608.8,443.291l35.287-17.711,8.85,2.1-35.119,18.605Z" transform="translate(-595.506 -422.522)" fill="#fdb819"/>
          </g>
        </g>
        <g id="Group_1769" data-name="Group 1769" transform="translate(310.198 158.685)">
          <g id="Group_1768" data-name="Group 1768">
            <g id="Group_1767" data-name="Group 1767">
              <path id="Path_3225" data-name="Path 3225" d="M620.47,566.97l40.347,13.012V532.588l-40.347-12.7Z" transform="translate(-620.47 -503.292)" fill="#636363"/>
              <path id="Path_3226" data-name="Path 3226" d="M733.716,506.88,697.65,526.416v47.4s31.962-19.86,36.066-21.209Z" transform="translate(-657.303 -497.083)" fill="#8b8b8b"/>
              <path id="Path_3227" data-name="Path 3227" d="M620.58,504.738l40.352,12.7L697,497.9l-40.7-9.76Z" transform="translate(-620.522 -488.14)" fill="#797979"/>
              <path id="Path_3228" data-name="Path 3228" d="M645.91,527.85V575.2l9.007,2.9V530.845Z" transform="translate(-632.611 -507.091)" fill="#fdb819"/>
            </g>
            <path id="Path_3229" data-name="Path 3229" d="M645.91,511.691l35.287-17.7,8.84,2.1-35.119,18.6Z" transform="translate(-632.611 -490.932)" fill="#fdb819"/>
          </g>
        </g>
      </g>
    </g>
  </g>
</svg>
