<svg xmlns="http://www.w3.org/2000/svg" xmlns:xlink="http://www.w3.org/1999/xlink" width="458" height="458" viewBox="0 0 458 458">
  <defs>
    <linearGradient id="linear-gradient" x1="0.865" y1="0.178" x2="0.152" y2="0.822" gradientUnits="objectBoundingBox">
      <stop offset="0" stop-color="#fdb819"/>
      <stop offset="1" stop-color="#fff"/>
    </linearGradient>
    <linearGradient id="linear-gradient-2" x1="0.286" y1="0.5" x2="1.577" y2="0.532" gradientUnits="objectBoundingBox">
      <stop offset="0" stop-color="#f1f1f1"/>
      <stop offset="1" stop-color="#d1d1d1"/>
    </linearGradient>
    <linearGradient id="linear-gradient-3" x1="0.442" y1="0.546" x2="0.349" y2="0.978" gradientUnits="objectBoundingBox">
      <stop offset="0" stop-color="#efefef"/>
      <stop offset="0.94" stop-color="#bbb"/>
      <stop offset="1" stop-color="#efefef"/>
    </linearGradient>
    <linearGradient id="linear-gradient-4" x1="0.991" y1="3.447" x2="1.492" y2="2.591" gradientUnits="objectBoundingBox">
      <stop offset="0.12" stop-color="#9b9b9b"/>
      <stop offset="0.18" stop-color="#c9c9c9"/>
      <stop offset="0.31" stop-color="#e2e2e2"/>
      <stop offset="0.39" stop-color="#c7c7c7"/>
      <stop offset="0.49" stop-color="#afafaf"/>
      <stop offset="0.58" stop-color="#a0a0a0"/>
      <stop offset="0.65" stop-color="#9b9b9b"/>
      <stop offset="0.66" stop-color="#a1a1a1"/>
      <stop offset="0.68" stop-color="#b2b2b2"/>
      <stop offset="0.71" stop-color="#bdbdbd"/>
      <stop offset="0.76" stop-color="#c4c4c4"/>
      <stop offset="0.88" stop-color="#c6c6c6"/>
      <stop offset="0.94" stop-color="#9b9b9b"/>
      <stop offset="0.96" stop-color="#b2b2b2"/>
      <stop offset="0.98" stop-color="#c1c1c1"/>
      <stop offset="1" stop-color="#c6c6c6"/>
    </linearGradient>
    <linearGradient id="linear-gradient-5" x1="1.133" y1="3.849" x2="1.447" y2="3.302" xlink:href="#linear-gradient-4"/>
    <linearGradient id="linear-gradient-6" x1="0.814" y1="3.578" x2="1.263" y2="2.561" xlink:href="#linear-gradient-4"/>
    <linearGradient id="linear-gradient-7" x1="0.861" y1="3.784" x2="1.26" y2="2.872" xlink:href="#linear-gradient-4"/>
    <linearGradient id="linear-gradient-8" x1="0.7" y1="3.261" x2="1.218" y2="2.174" xlink:href="#linear-gradient-4"/>
    <linearGradient id="linear-gradient-9" x1="0.708" y1="3.516" x2="1.221" y2="2.363" xlink:href="#linear-gradient-4"/>
    <linearGradient id="linear-gradient-10" x1="0.722" y1="3.311" x2="1.121" y2="2.309" xlink:href="#linear-gradient-4"/>
    <linearGradient id="linear-gradient-11" x1="0.699" y1="3.259" x2="1.144" y2="2.161" xlink:href="#linear-gradient-4"/>
    <linearGradient id="linear-gradient-12" x1="0.58" y1="2.969" x2="1.026" y2="2.127" xlink:href="#linear-gradient-4"/>
    <linearGradient id="linear-gradient-13" x1="0.616" y1="3.149" x2="0.997" y2="2.416" xlink:href="#linear-gradient-4"/>
    <linearGradient id="linear-gradient-14" x1="0.689" y1="3.249" x2="1.095" y2="2.522" xlink:href="#linear-gradient-4"/>
    <linearGradient id="linear-gradient-15" x1="0.596" y1="3.301" x2="1.096" y2="2.226" xlink:href="#linear-gradient-4"/>
    <linearGradient id="linear-gradient-16" x1="0.685" y1="3.464" x2="1.072" y2="2.729" xlink:href="#linear-gradient-4"/>
    <linearGradient id="linear-gradient-17" x1="1.177" y1="4.004" x2="1.649" y2="3.32" xlink:href="#linear-gradient-4"/>
    <linearGradient id="linear-gradient-18" x1="1.175" y1="4.075" x2="1.643" y2="3.387" xlink:href="#linear-gradient-4"/>
    <linearGradient id="linear-gradient-19" x1="1.175" y1="4.136" x2="1.64" y2="3.446" xlink:href="#linear-gradient-4"/>
    <linearGradient id="linear-gradient-20" x1="4.012" y1="23.117" x2="4.524" y2="21.957" xlink:href="#linear-gradient-4"/>
    <linearGradient id="linear-gradient-21" x1="1.177" y1="4.205" x2="1.635" y2="3.516" xlink:href="#linear-gradient-4"/>
    <linearGradient id="linear-gradient-22" x1="0.619" y1="2.453" x2="0.882" y2="2.086" xlink:href="#linear-gradient-4"/>
    <linearGradient id="linear-gradient-23" x1="0.563" y1="2.59" x2="0.98" y2="1.984" xlink:href="#linear-gradient-4"/>
    <linearGradient id="linear-gradient-24" x1="0.567" y1="2.656" x2="0.978" y2="2.048" xlink:href="#linear-gradient-4"/>
    <linearGradient id="linear-gradient-25" x1="0.566" y1="2.71" x2="0.967" y2="2.099" xlink:href="#linear-gradient-4"/>
    <linearGradient id="linear-gradient-26" x1="0.549" y1="2.633" x2="0.915" y2="2.068" xlink:href="#linear-gradient-4"/>
  </defs>
  <g id="Group_2049" data-name="Group 2049" transform="translate(-369 -1811)">
    <circle id="Ellipse_8" data-name="Ellipse 8" cx="229" cy="229" r="229" transform="translate(369 2269) rotate(-90)" fill="url(#linear-gradient)"/>
    <g id="Group_2004" data-name="Group 2004" transform="translate(-24 -95)">
      <g id="Maximize_your_salvage_earnings" data-name="Maximize your salvage earnings" transform="translate(401.963 1927.204)">
        <g id="Layer_1" data-name="Layer 1" transform="translate(23.037 99.796)">
          <path id="Path_3331" data-name="Path 3331" d="M427.781,470.24l-4.891,57.788a6.031,6.031,0,0,0,6.031,6.091h16.657a6.031,6.031,0,0,0,6-6.091l4.686-47.548a7.086,7.086,0,0,0-6.218-7.786Z" transform="translate(-212.203 -350.306)" fill="#828282"/>
          <path id="Path_3332" data-name="Path 3332" d="M450.029,572.33H419.115a2.889,2.889,0,0,1-2.865-2.907h0a2.889,2.889,0,0,1,2.865-2.913h30.914a2.883,2.883,0,0,1,2.865,2.913h0a2.883,2.883,0,0,1-2.865,2.907Z" transform="translate(-209.568 -388.516)" fill="#828282"/>
          <path id="Path_3333" data-name="Path 3333" d="M81.4,511.1v33.17a6.031,6.031,0,0,0,5.995,6.091h16.681a6.031,6.031,0,0,0,5.995-6.091v-30.4Z" transform="translate(-76.663 -366.524)" fill="#828282"/>
          <path id="Path_3334" data-name="Path 3334" d="M81.4,511.1v24.787l28.659.133V513.868Z" transform="translate(-76.663 -366.524)" fill="#828282" opacity="0.4"/>
          <path id="Path_3335" data-name="Path 3335" d="M456.723,385.828l-1.423,4.409s15.771,15.566,19.606,15.077c2.28-.271,6.592-2.292,9.734-4.294,2.159-1.393,3.775-2.768,3.787-3.576.036-1.978-13.377-14.161-15.023-13.956a57.365,57.365,0,0,0-6.315,2.075c-3.015,1.116-5.958,2.256-5.958,2.256Z" transform="translate(-225.067 -315.872)" fill="#d4d4d4"/>
          <path id="Path_3336" data-name="Path 3336" d="M76.864,340.089c1.122,3.377,2.883,7.153,4.27,8.709,2.611,2.913,24.552,1.592,24.552,1.592l1.773-4.282-4.62-1.417s-1.695-3.184-3.383-6.218a49.109,49.109,0,0,0-3.118-5.2c-1.116-1.248-19.118-.929-20.366.6C75.4,334.57,75.893,337.188,76.864,340.089Z" transform="translate(-74.413 -295.637)" fill="#d4d4d4"/>
          <path id="Path_3337" data-name="Path 3337" d="M318.144,436.252c-.289.513-.567.977-.82,1.369a19.075,19.075,0,0,1-1.7,2.213c-3.323,3.866-9.619,8.733-18.34,8.311L98.389,438.532c-8.733-.422-14.528-5.874-17.49-10.048a17.42,17.42,0,0,1-1.484-2.364c-2.159-4.077-4.825-14.125-5.753-19.3s3.932-50.213,4.776-51.745,12.424-6.157,12.424-6.157h0c.38-.82,6.634-14.577,15.24-30.185,8.039-14.661,18.093-30.914,27.139-39.545v-.03c11.079-10.542,72.461-7.183,72.624-7.177s60.164,2.533,71.261,13.775a3.182,3.182,0,0,1,.392.41c8.166,9.462,16.663,26.614,23.291,41.981,7.056,16.362,12.062,30.661,12.327,31.518v.03s-4.041,18.774-6.351,32.814c-.4,2.412-.754,4.728-1.013,6.755-.133.971-.247,1.876-.332,2.714C304.423,411.76,313.85,429.015,318.144,436.252Z" transform="translate(-73.545 -271.411)" fill="#d4d4d4"/>
          <path id="Path_3338" data-name="Path 3338" d="M172.54,279.061c32.76,10.2,112.175,17.031,143.885,6.592-11.1-11.23-71.086-13.762-71.261-13.769S183.625,268.531,172.54,279.061Z" transform="translate(-112.837 -271.374)" fill="#ddd"/>
          <path id="Path_3339" data-name="Path 3339" d="M308.458,441.261,305,464.9l-65.55,3.673-70.773-9.969,1.285-21.066Z" transform="translate(-111.305 -337.327)" fill="#838383"/>
          <path id="Path_3340" data-name="Path 3340" d="M432.351,528.677h0a36.239,36.239,0,0,1-1.435,4.155,12.023,12.023,0,0,1-2.871,4.571c-1.4,1.158-17.049,1.092-35.775.6l.718-4.294,1.466-9.01c3.456,1.58,10.687,2.834,12.062,2.635,2.666-.386,7.177-8.811,9.288-12.321,1.568-.042,3.064-.091,4.451-.157C424.765,517.64,432.1,523.87,432.351,528.677Z" transform="translate(-200.05 -368.016)" fill="#727272"/>
          <path id="Path_3341" data-name="Path 3341" d="M103.927,515.749a10.313,10.313,0,0,0,2.111,3.9c1.291,1.291,16.887,2.732,35.582,4.029l-1.568-22.917c-20.131-2.069-34.654-4.161-37.536-5.506C101.044,500.672,101.912,510.1,103.927,515.749Z" transform="translate(-84.751 -360.232)" fill="#727272"/>
          <path id="Path_3342" data-name="Path 3342" d="M300.757,534.265c-28.442-.9-60.562-2.587-60.641-2.587s-32.205-1.423-60.586-3.275c.072-1.556.151-3.245.247-4.994.289-6.176.675-13.1.935-17.4,16.639,1.55,36.017,3.015,55.43,4.041h.03l26.355,4.4s5.428-1.646,9.577-3.016a42.117,42.117,0,0,0,4.282-1.562c.663-.356,3.709.507,7.43,1.809h0c7.08,2.454,16.675,6.489,17.592,6.893-.145,3.619-.32,7.7-.483,11.459C300.884,531.478,300.818,532.932,300.757,534.265Z" transform="translate(-115.612 -364.503)" fill="#727272"/>
          <g id="Group_1909" data-name="Group 1909" transform="translate(19.151 155.547)" opacity="0.3">
            <path id="Path_3343" data-name="Path 3343" d="M430.926,544.69a12.2,12.2,0,0,1-2.877,4.571c-1.405,1.158-17.055,1.092-35.769.6l.706-4.312C409.305,545.836,422.778,545.649,430.926,544.69Z" transform="translate(-219.205 -535.402)" fill="#949494"/>
            <path id="Path_3344" data-name="Path 3344" d="M300.934,541.452c-.054,1.49-.121,2.925-.187,4.264-28.442-.9-60.55-2.581-60.635-2.581s-32.205-1.429-60.593-3.275c.078-1.556.157-3.257.247-5C215.217,537.393,263.892,540.487,300.934,541.452Z" transform="translate(-134.759 -531.501)" fill="#949494"/>
            <path id="Path_3345" data-name="Path 3345" d="M142.643,532.131l.35,5.084c-18.7-1.3-34.268-2.738-35.582-4.029a10.312,10.312,0,0,1-2.111-3.9C110.366,529.67,124.213,530.768,142.643,532.131Z" transform="translate(-105.3 -529.29)" fill="#949494"/>
          </g>
          <path id="Path_3346" data-name="Path 3346" d="M425.281,527.026c-.229,4.825,2.412,8.847,5.958,9.016s6.55-3.588,6.779-8.4-2.443-8.847-5.965-9.046S425.5,522.214,425.281,527.026Z" transform="translate(-213.147 -369.495)" fill="#949494"/>
          <path id="Path_3347" data-name="Path 3347" d="M427.2,528.142c-.187,3.938,2,7.237,4.873,7.382s5.362-2.943,5.549-6.875-2-7.237-4.879-7.382S427.384,524.21,427.2,528.142Z" transform="translate(-213.911 -370.557)" fill="#b4b4b4"/>
          <path id="Path_3348" data-name="Path 3348" d="M80.909,479.42a19.908,19.908,0,0,1-1.484-2.364c-2.153-4.083-4.825-14.124-5.741-19.3s3.926-50.237,4.776-51.806S90.872,399.8,90.872,399.8C84.021,418.116,79.166,462.684,80.909,479.42Z" transform="translate(-73.555 -322.347)" fill="#b7b7b7" opacity="0.3"/>
          <path id="Path_3349" data-name="Path 3349" d="M316.226,463.433c-.4,2.412-.754,4.728-1.013,6.755-9.692,8.377-24.467,14.872-28.948,16.229-5.989,1.809-39.8-5.428-41.613-5.555s-30.83,2.768-34.75,2.623h-.6l-.6-.03h0c-9.378-.6-72.727-4.584-85.193-8.859-13.455-4.62-21.349-11.356-26.222-24.286,10.265,6.447,50.159,14.287,112.561,17.3,11.591.561,26.813,4.728,32.965,4.789s26.494-3.908,37.343-4.505C296.421,467.01,308.573,465.4,316.226,463.433Z" transform="translate(-82.966 -342.395)" fill="#ddd"/>
          <path id="Path_3350" data-name="Path 3350" d="M125.569,512.628a8.642,8.642,0,1,1-2.19-6.26A8.594,8.594,0,0,1,125.569,512.628Z" transform="translate(-87.379 -363.505)" fill="#949494"/>
          <path id="Path_3351" data-name="Path 3351" d="M125.041,513.591a7.068,7.068,0,1,1-1.792-5.124A7.026,7.026,0,0,1,125.041,513.591Z" transform="translate(-88.413 -364.546)" fill="#b4b4b4"/>
          <path id="Path_3352" data-name="Path 3352" d="M324.553,390.706c-3.872,6.375-8.594,12.267-20.131,16.489-14.963,5.53-41.4,8.3-92.315,5.838-1.695-.085-3.347-.163-4.982-.259-41.957-2.249-66.219-6.556-80.917-12.122-15.258-5.808-20.21-13-23.949-20.716h0c.362-.82,6.634-14.577,15.24-30.185l9.2.446L214.58,360,303,358.718l9.2.446c7.056,16.362,12.062,30.661,12.327,31.518Z" transform="translate(-84.942 -302.482)" fill="#ddd"/>
          <g id="Group_1910" data-name="Group 1910" transform="translate(212.707 56.109)" opacity="0.3">
            <path id="Path_3353" data-name="Path 3353" d="M426.7,416.42c8.968-3.878,14.474-8.986,16.742-15.626,3.015-8.745.494-19.968-8.19-36.384l-1.031.561c8.516,16.1,11.019,27.031,8.112,35.432-2.177,6.3-7.442,11.187-16.09,14.926Z" transform="translate(-426.24 -364.41)" fill="#b7b7b7"/>
          </g>
          <g id="Group_1911" data-name="Group 1911" transform="translate(25.986 47.238)" opacity="0.3">
            <path id="Path_3354" data-name="Path 3354" d="M132.457,402.3c-8.564-4.728-13.539-10.343-15.2-17.176-2.189-8.992,1.375-19.9,11.561-35.426l.977.657c-9.987,15.2-13.5,25.842-11.4,34.5,1.58,6.489,6.363,11.857,14.625,16.41Z" transform="translate(-116.634 -349.7)" fill="#b7b7b7"/>
          </g>
          <path id="Path_3355" data-name="Path 3355" d="M161.886,285.16s52.577,4.125,67.8,4.867,67.92,1.671,67.92,1.671,13.352,15.325,23.032,42.379c-2.153,4.264-93.045.265-93.045.265s-90.856-4.764-92.592-9.215C147.158,299.128,161.886,285.16,161.886,285.16Z" transform="translate(-97.937 -276.846)" fill="#898989"/>
          <path id="Path_3356" data-name="Path 3356" d="M144.012,448.81c-1.393,1.279-29.974-4.222-40.727-8.2a12.155,12.155,0,0,1-3.757-1.894c-3.727-3.751-2.316-17.17-1.466-18.7.151-.265,1.55-.115,3.805.35,10.813,2.2,41.01,11.41,42.819,13.811C146.913,437.043,144.012,448.81,144.012,448.81Z" transform="translate(-82.886 -330.323)" fill="#ebebeb"/>
          <path id="Path_3357" data-name="Path 3357" d="M103.285,440.614a12.155,12.155,0,0,1-3.757-1.894c-3.727-3.751-2.316-17.17-1.466-18.7.151-.265,1.55-.115,3.805.35Z" transform="translate(-82.886 -330.323)" fill="#bbb"/>
          <path id="Path_3358" data-name="Path 3358" d="M359.144,298.92c2.672,3.323,13.051,17.013,21.144,38.676-8.534,1.55-45.606,1.019-81.417-.416l-6.031-39.9C307.477,297.919,351.69,298.758,359.144,298.92Z" transform="translate(-160.585 -281.656)" fill="#fff" opacity="0.2"/>
          <path id="Path_3359" data-name="Path 3359" d="M481.164,383.5a57.342,57.342,0,0,0-6.314,2.075l17.58,15.457c2.159-1.393,3.775-2.768,3.787-3.576C496.224,395.476,482.811,383.293,481.164,383.5Z" transform="translate(-232.827 -315.876)" fill="#ddd"/>
          <path id="Path_3360" data-name="Path 3360" d="M76.864,340.089l22.592-1.616a49.113,49.113,0,0,0-3.118-5.2c-1.116-1.248-19.118-.929-20.366.6C75.4,334.57,75.893,337.188,76.864,340.089Z" transform="translate(-74.413 -295.637)" fill="#ddd"/>
          <path id="Path_3361" data-name="Path 3361" d="M375.34,392.874c1.122-8.2.091-22.984.091-22.984l27.23,38.544-4.36,3.739S375.738,395.377,375.34,392.874Z" transform="translate(-193.33 -310.476)" fill="#b7b7b7" opacity="0.3"/>
          <path id="Path_3362" data-name="Path 3362" d="M420.64,406.24,433,364.41s4.053,11.893,4.222,13.871-4.933,26.488-5.928,26.687S420.64,406.24,420.64,406.24Z" transform="translate(-211.311 -308.301)" fill="#ddd" opacity="0.6"/>
          <path id="Path_3363" data-name="Path 3363" d="M374.842,412.577a11.253,11.253,0,0,0-1.405,1.248c-14.963,5.53-41.4,8.3-92.315,5.838-1.695-.085-3.347-.163-4.982-.259,23.689-3.92,58.035-27.573,59.827-27.935,1.984-.416,23.08,16.85,27.32,15.56s10.856-11.459,11.821-15.915,1.55-24.763,1.55-24.763,7.352,13.425,8.015,25.444A24.35,24.35,0,0,1,374.842,412.577Z" transform="translate(-153.957 -309.071)" fill="#727272"/>
          <path id="Path_3364" data-name="Path 3364" d="M428.956,461.148c-2.219.133-5.265-3.251-9.233-2.69-.458.066-1.116.2-1.936.386-1.152.259-2.629.6-4.258,1.037-6.2,1.574-14.764,3.811-17.653,3.685-.531,0-.88-.115-.977-.314a3.976,3.976,0,0,1-.271-.8c-.814-3.112-1.52-12.345.235-14.2s19.667-10.048,23.11-10.12,12.538,5.6,13.871,8.654S431.182,461,428.956,461.148Z" transform="translate(-200.647 -337.564)" fill="#aeaeae"/>
          <path id="Path_3365" data-name="Path 3365" d="M428.964,461.132c-2.219.133-5.265-3.251-9.233-2.69-.458.066-1.116.2-1.936.386l2.895-2.213L426.16,458l1.622-3.052-2.81-.513-1.122-2.3,3.842-.682-1.206-2.8,2.412-1.888-7.358-5.705-5.838-1.526-3.3,7.454s-7.418-1.857-7.786-1.876-6.6,4.059-6.6,4.059l-1.128,5.76,2.274,4.113,2.575-5.12,1.49,5.066,10.307.856.6.042s-13.913,5.458-15.15,5.639c-.489.078-1.761-.85-3.094-2-.41-.362-.838-.73-1.248-1.11-.814-3.112-1.52-12.345.235-14.2s19.667-10.047,23.11-10.12,12.538,5.6,13.871,8.654S431.189,460.987,428.964,461.132Z" transform="translate(-200.655 -337.549)" fill="#ebebeb"/>
          <g id="Group_1912" data-name="Group 1912" transform="translate(169.571 190.954)">
            <path id="Path_3366" data-name="Path 3366" d="M503.084,588c.911,3.016.235,7.84-3.733,8.89l-96.018,12.357a40.756,40.756,0,0,1-17.086-1.453h-.066l-29.22-8.938c-4.415-1.321-2.141-6.537,5.223-6.694Z" transform="translate(-354.715 -588)" fill="#fff"/>
            <path id="Path_3367" data-name="Path 3367" d="M503.341,588c.869,3.118.06,7.7-3.757,8.618l-95.765,12.17a41.143,41.143,0,0,1-17.055-1.423H386.7l-29.129-8.751c-4.149-1.206-1.622-6.115,5.717-6.163Z" transform="translate(-355.056 -588)" fill="#cecece"/>
            <path id="Path_3368" data-name="Path 3368" d="M503.587,588.06c.826,3.19-.121,7.509-3.787,8.347L404.294,608.36a41.654,41.654,0,0,1-17.013-1.405h-.066l-29.051-8.618c-3.89-1.152-1.1-5.687,6.206-5.627Z" transform="translate(-355.386 -588.024)" fill="#e7e7e7"/>
            <path id="Path_3369" data-name="Path 3369" d="M503.831,588.1c.778,3.263-.3,7.328-3.818,8.075l-95.282,11.766a42.165,42.165,0,0,1-16.965-1.381H387.7l-28.948-8.443c-3.618-1.061-.6-5.265,6.7-5.09Z" transform="translate(-355.709 -588.04)" fill="#dbdbdb"/>
            <path id="Path_3370" data-name="Path 3370" d="M504.058,588.14c.736,3.341-.482,7.147-3.848,7.84l-95,11.5a42.661,42.661,0,0,1-16.887-1.351h-.072l-28.924-8.317c-3.371-.977-.066-4.825,7.189-4.559Z" transform="translate(-356.02 -588.056)" fill="#d0d0d0"/>
            <path id="Path_3371" data-name="Path 3371" d="M504.23,588.19c.694,3.408-.657,6.96-3.872,7.539l-94.745,11.32a43.216,43.216,0,0,1-16.887-1.327h-.066l-28.822-8.142c-3.106-.886.452-4.415,7.683-4.023Z" transform="translate(-356.301 -588.075)" fill="#c4c4c4"/>
            <path id="Path_3372" data-name="Path 3372" d="M504.493,588.23c.645,3.486-.844,6.779-3.908,7.237l-94.492,11.145a43.788,43.788,0,0,1-16.826-1.309H389.2l-28.743-8c-2.847-.8.971-3.986,8.172-3.486Z" transform="translate(-356.618 -588.091)" fill="#b8b8b8"/>
            <path id="Path_3373" data-name="Path 3373" d="M504.7,588.28c.6,3.552-1.025,6.592-3.932,7L406.531,606.2a44.284,44.284,0,0,1-16.784-1.279h-.066l-28.665-7.84c-2.587-.712,1.49-3.564,8.666-2.949Z" transform="translate(-356.906 -588.111)" fill="#acacac"/>
            <path id="Path_3374" data-name="Path 3374" d="M504.9,588.32c.561,3.619-1.206,6.411-3.962,6.724l-93.98,10.693a44.911,44.911,0,0,1-16.742-1.255h-.066l-28.562-7.713c-2.328-.6,2-3.136,9.155-2.412Z" transform="translate(-357.19 -588.127)" fill="#a0a0a0"/>
          </g>
          <path id="Path_3375" data-name="Path 3375" d="M437.23,574.695,531.21,564a4.348,4.348,0,0,0,3.619-5.723l-11-32.308a5.494,5.494,0,0,0-4.36-3.661l-78.474-12.2Z" transform="translate(-217.895 -366.131)" fill="#d1d1d1"/>
          <path id="Path_3376" data-name="Path 3376" d="M369.415,519.883l-12.538,40.877a4.252,4.252,0,0,0,2.967,5.355l28.586,7.7,6.538-62.721-21.5,4.988a5.6,5.6,0,0,0-4.053,3.805Z" transform="translate(-185.928 -366.52)" fill="#ededed"/>
          <path id="Path_3377" data-name="Path 3377" d="M416.278,510.378l-.38.084-6.537,62.721h.066a44.911,44.911,0,0,0,16.742,1.255h0l3.763-64.585h0A35.892,35.892,0,0,0,416.278,510.378Z" transform="translate(-206.833 -365.862)" fill="url(#linear-gradient-2)"/>
          <path id="Path_3378" data-name="Path 3378" d="M523.778,590a4.348,4.348,0,0,1-3.619,5.723L426.168,606.4a44.913,44.913,0,0,1-16.742-1.255h-.066Z" transform="translate(-206.833 -397.84)" fill="#c1c1c1"/>
          <path id="Path_3380" data-name="Path 3380" d="M405.295,607.773a44.913,44.913,0,0,1-16.742-1.254h-.066l-28.562-7.713a4.252,4.252,0,0,1-2.967-5.355S401.435,606.664,405.295,607.773Z" transform="translate(-185.96 -399.209)" fill="#ededed"/>
          <path id="Path_3381" data-name="Path 3381" d="M500.247,525.69a5.494,5.494,0,0,0-4.36-3.661l-78.486-12.2a35.89,35.89,0,0,0-13.654.507l-.38.084-21.5,4.988a5.6,5.6,0,0,0-4.077,3.805s.772-.706,4.077-1.411l22.423-4.776a33.528,33.528,0,0,1,12.369-.29c6.531,1.152,79.765,11.857,79.765,11.857S499.433,524.973,500.247,525.69Z" transform="translate(-194.303 -365.849)" fill="#efefef"/>
          <path id="Path_3383" data-name="Path 3383" d="M566.867,539.476l10.669-45.165a8.709,8.709,0,0,1,6.556-6.5l47.777-10.856a3.347,3.347,0,0,1,3.92,2.238h0s-.139-4.222-4.692-7.961a1.851,1.851,0,0,1-.772,3.232l-46.637,10.572a10.856,10.856,0,0,1-10.62-3.516l-56.136-65.435a2.286,2.286,0,0,1,1.622-3.769,9.649,9.649,0,0,0-8.443,6.031,2.28,2.28,0,0,1,3.812-.561l57.637,67.148a10.573,10.573,0,0,1,2.262,9.3L563.568,537.66a2.81,2.81,0,0,1-4.409,1.6h0s4.378,5.374,10.451,3.619h0a2.81,2.81,0,0,1-2.744-3.4Z" transform="translate(-246.822 -327.317)" fill="url(#linear-gradient-3)"/>
          <path id="Path_3384" data-name="Path 3384" d="M551.571,541.609l-57.848-92.767a5.512,5.512,0,0,1-.356-5.15l9.921-22.242a2.28,2.28,0,0,1,3.812-.561l57.625,67.136a10.572,10.572,0,0,1,2.262,9.3l-10.253,43.423a2.816,2.816,0,0,1-5.162.862Z" transform="translate(-239.988 -330.403)" fill="#eee"/>
          <path id="Path_3385" data-name="Path 3385" d="M577.194,480.5l-56.136-65.435a2.286,2.286,0,0,1,1.622-3.769l34.943-1.6a10.813,10.813,0,0,1,7.364,2.461l70.236,58.059a1.851,1.851,0,0,1-.772,3.233l-46.637,10.572A10.856,10.856,0,0,1,577.194,480.5Z" transform="translate(-250.949 -326.27)" fill="#efefef"/>
          <path id="Path_3386" data-name="Path 3386" d="M673.231,522.317l4.608,36.861a5.265,5.265,0,0,1-3.685,5.687l-66.418,20.427a2.81,2.81,0,0,1-3.564-3.329L614.84,536.8a8.709,8.709,0,0,1,6.555-6.5l47.777-10.856a3.347,3.347,0,0,1,4.059,2.871Z" transform="translate(-284.126 -369.804)" fill="#d1d1d1"/>
          <path id="Path_3388" data-name="Path 3388" d="M493.367,459.22a5.512,5.512,0,0,0,.356,5.15l57.848,92.767a2.8,2.8,0,0,0,.718.76h0s4.379,5.373,10.452,3.618h0Z" transform="translate(-239.988 -345.932)" fill="#c1c1c1"/>
          <path id="Path_3389" data-name="Path 3389" d="M672.787,585.38,591.37,607.972h0s4.378,5.374,10.452,3.619h0a2.748,2.748,0,0,0,.844-.121l66.418-20.427A5.265,5.265,0,0,0,672.787,585.38Z" transform="translate(-279.075 -396.006)" fill="#c1c1c1"/>
          <path id="Path_3390" data-name="Path 3390" d="M557.251,427.712a.543.543,0,0,1,.314.187l1.254,1.339c.121.127.163.217.121.265a1.093,1.093,0,0,1-.47.163l.06.06,2.068-.356-.054-.06a2.411,2.411,0,0,1-.6.036.6.6,0,0,1-.332-.205l-.639-.675,1.055-.181a2.506,2.506,0,0,1,.645-.048,1.161,1.161,0,0,1,.446.205h.169l-.688-.712h-.169c.073.133.078.223,0,.277a1.412,1.412,0,0,1-.537.151l-1.055.181-.639-.675c-.044-.044-.056-.074-.036-.09a.368.368,0,0,1,.169-.054l.983-.169a3.9,3.9,0,0,1,.868-.078,1.2,1.2,0,0,1,.543.211l.181-.03-.434-.452-3.842.651.048.06A1.973,1.973,0,0,1,557.251,427.712Z" transform="translate(-265.286 -333.143)" fill="url(#linear-gradient-4)"/>
          <path id="Path_3391" data-name="Path 3391" d="M564.064,426.75a.639.639,0,0,1,.332.193l1.339,1.357c.115.121.151.2.1.247a1.4,1.4,0,0,1-.531.157l.054.06,2.2-.374-.06-.06a2.256,2.256,0,0,1-.651.042.6.6,0,0,1-.35-.2l-1.357-1.357c-.108-.109-.139-.187-.084-.235a1.628,1.628,0,0,1,.525-.151l-.06-.06-2.141.368.054.054A2.769,2.769,0,0,1,564.064,426.75Z" transform="translate(-267.961 -332.893)" fill="url(#linear-gradient-5)"/>
          <path id="Path_3392" data-name="Path 3392" d="M567.714,425.775a3.3,3.3,0,0,1,.482.078l1.363,1.339c.163.157.223.271.187.332s-.2.127-.5.187l.06.06,1.731-.3-.06-.06a1.812,1.812,0,0,1-.645,0,1.038,1.038,0,0,1-.446-.29l-1.206-1.206,4.976,1.128h.127l-1.7-1.6a.687.687,0,0,1-.175-.211.09.09,0,0,1,0-.133.452.452,0,0,1,.151-.078l.277-.072-.06-.054-1.689.284.054.06a1.986,1.986,0,0,1,.651,0,.976.976,0,0,1,.446.271l1.079,1.019-4.3-.971-1.236.211.06.054A1.885,1.885,0,0,1,567.714,425.775Z" transform="translate(-269.513 -332.31)" fill="url(#linear-gradient-6)"/>
          <path id="Path_3393" data-name="Path 3393" d="M576.579,424.422a.658.658,0,0,1,.338.187l1.453,1.339c.115.109.157.187.115.229a1.062,1.062,0,0,1-.452.157l.06.054,3.968-.675-.253-.567-.2.03a.446.446,0,0,1-.247.428,3.947,3.947,0,0,1-1.037.271l-.193.03a5.6,5.6,0,0,1-.675.09.345.345,0,0,1-.241-.09l-.826-.748,1.122-.187a2.327,2.327,0,0,1,.645-.054,1.368,1.368,0,0,1,.476.205l.169-.03-.778-.694h-.169c.078.115.1.205.054.259a1.254,1.254,0,0,1-.537.157l-1.116.193-.724-.663c-.048-.042-.06-.072-.042-.09a.344.344,0,0,1,.169-.048l.971-.169a3.884,3.884,0,0,1,.868-.078,1.374,1.374,0,0,1,.573.205l.181-.03-.495-.422-3.817.651.06.06a2.034,2.034,0,0,1,.579,0Z" transform="translate(-272.951 -331.838)" fill="url(#linear-gradient-7)"/>
          <path id="Path_3394" data-name="Path 3394" d="M561.554,434.087a1.051,1.051,0,0,1,.464-.169l-.072-.072-2.412.41.066.072a3.017,3.017,0,0,1,.76-.036.778.778,0,0,1,.416.265l.639.682c.06.066,0,.145-.217.241a3.67,3.67,0,0,1-.826.229,5.458,5.458,0,0,1-2.153-.03,2.719,2.719,0,0,1-1.5-.808,1.313,1.313,0,0,1-.235-.338.815.815,0,0,1-.078-.38.6.6,0,0,1,.139-.38,1.27,1.27,0,0,1,.47-.326,3.514,3.514,0,0,1,.868-.247,4.129,4.129,0,0,1,1.435,0,5.351,5.351,0,0,1,1.206.374l.211-.036-.875-.838-.211.036a.117.117,0,0,1-.066.121.6.6,0,0,1-.229.084l-.669.036a8.5,8.5,0,0,0-1.134.115,3.57,3.57,0,0,0-1.942.8.784.784,0,0,0,0,1.206,2.279,2.279,0,0,0,.748.543,4.107,4.107,0,0,0,.953.314,6.982,6.982,0,0,0,1.049.114,9.606,9.606,0,0,0,1.031,0,5.465,5.465,0,0,0,.9-.109,8.79,8.79,0,0,0,1.285-.332,3.089,3.089,0,0,0,.844-.38l-.8-.85C561.542,434.25,561.506,434.166,561.554,434.087Z" transform="translate(-264.771 -335.406)" fill="url(#linear-gradient-8)"/>
          <path id="Path_3395" data-name="Path 3395" d="M573.33,433.455c.32-.362.265-.754-.163-1.164a3.619,3.619,0,0,0-1.9-.868,7.135,7.135,0,0,0-2.581,0,3.094,3.094,0,0,0-1.809.766c-.32.356-.289.742.109,1.158a3.48,3.48,0,0,0,1.882.887,7.234,7.234,0,0,0,2.575.03A3.232,3.232,0,0,0,573.33,433.455Zm-3.118.682a3.566,3.566,0,0,1-.953-.229,3.962,3.962,0,0,1-.7-.356,2.576,2.576,0,0,1-.494-.392,2.25,2.25,0,0,1-.271-.344,1.075,1.075,0,0,1-.133-.368.567.567,0,0,1,.06-.362.815.815,0,0,1,.368-.308,2.673,2.673,0,0,1,.736-.223,5.527,5.527,0,0,1,.561-.06,4.979,4.979,0,0,1,.645.03,4.507,4.507,0,0,1,.7.145,3.308,3.308,0,0,1,.7.308,3.081,3.081,0,0,1,.657.495,1.661,1.661,0,0,1,.32.422.929.929,0,0,1,.1.458.566.566,0,0,1-.3.44,2.333,2.333,0,0,1-.886.3,4.069,4.069,0,0,1-1.11.048Z" transform="translate(-269.267 -334.852)" fill="url(#linear-gradient-9)"/>
          <path id="Path_3396" data-name="Path 3396" d="M583.166,431.69l-.078.1a.334.334,0,0,1-.12.1l-.187.1a1.453,1.453,0,0,1-.259.1l-.35.1-.446.091-.639.109a4.123,4.123,0,0,1-.706.084.447.447,0,0,1-.3-.115l-2.032-1.918c-.145-.139-.193-.241-.133-.3a1.489,1.489,0,0,1,.6-.205l-.078-.072-2.623.446.078.072a3.09,3.09,0,0,1,.748,0,.862.862,0,0,1,.434.253l1.888,1.809c.157.145.205.253.151.314a1.344,1.344,0,0,1-.6.2l.078.084,5.174-.917-.338-.8-.235.042v.151a.628.628,0,0,1,0,.084A.165.165,0,0,1,583.166,431.69Z" transform="translate(-272.903 -334.275)" fill="url(#linear-gradient-10)"/>
          <path id="Path_3397" data-name="Path 3397" d="M593.05,428.8a2.584,2.584,0,0,0-.519-.344,4.447,4.447,0,0,0-.772-.277,6.313,6.313,0,0,0-1.025-.187,8.973,8.973,0,0,0-1.3,0,13.034,13.034,0,0,0-1.6.175l-2.5.428.084.078a2.863,2.863,0,0,1,.766-.042.976.976,0,0,1,.446.253l1.99,1.779c.163.151.223.253.175.314a1.466,1.466,0,0,1-.6.205l.084.078,2.708-.465a8.048,8.048,0,0,0,1.387-.4,2.531,2.531,0,0,0,.79-.41.706.706,0,0,0,.277-.428.6.6,0,0,0-.078-.422,1.454,1.454,0,0,0-.308-.338Zm-2.635,1.888a1.736,1.736,0,0,1-.434,0,.466.466,0,0,1-.253-.115l-2.3-1.984c-.066-.06-.084-.109-.042-.139a.881.881,0,0,1,.35-.1,9.12,9.12,0,0,1,1.291-.139,7.244,7.244,0,0,1,1.068.042,4.417,4.417,0,0,1,.85.181,3.817,3.817,0,0,1,.651.265,2.71,2.71,0,0,1,.464.314C592.971,429.8,592.422,430.347,590.414,430.69Z" transform="translate(-276.677 -333.529)" fill="url(#linear-gradient-11)"/>
          <path id="Path_3398" data-name="Path 3398" d="M606.638,483.12c-.042-.084-.042-.145,0-.193a.384.384,0,0,1,.151-.109,2.015,2.015,0,0,0,.29-.084L607,482.65l-1.809.326.078.084a1.66,1.66,0,0,1,.712,0,1.392,1.392,0,0,1,.549.41l1.411,1.508-4.975-1.622-1.315.235.078.084a1.3,1.3,0,0,1,.422,0,3.053,3.053,0,0,1,.543.133l1.809,1.978c.211.235.308.4.277.489s-.193.169-.507.235l.078.09,1.845-.332-.078-.091a1.489,1.489,0,0,1-.712,0,1.6,1.6,0,0,1-.561-.434l-1.592-1.761,5.729,1.863h.133l-2.219-2.37a1.554,1.554,0,0,1-.259-.356Z" transform="translate(-283.155 -355.231)" fill="url(#linear-gradient-12)"/>
          <path id="Path_3399" data-name="Path 3399" d="M613.665,485.1l4.221-.766-.4-.826-.217.042a.567.567,0,0,1-.181.6,3.016,3.016,0,0,1-1.086.332l-.211.036a4.215,4.215,0,0,1-.724.091.41.41,0,0,1-.283-.139l-1.068-1.11,1.206-.217a2.142,2.142,0,0,1,.706-.036,1.706,1.706,0,0,1,.567.314h.181l-1.013-1.037h-.2c.115.175.151.3.115.374s-.223.139-.555.2l-1.206.211-.941-.977c-.06-.06-.078-.1-.066-.127a.327.327,0,0,1,.175-.066l1.037-.187a3.212,3.212,0,0,1,.941-.072,1.736,1.736,0,0,1,.682.32h.187l-.6-.6-4.071.73.078.084a1.812,1.812,0,0,1,.6,0,1.044,1.044,0,0,1,.416.284l1.888,1.984c.151.163.211.271.175.338s-.193.133-.471.193Z" transform="translate(-286.811 -354.759)" fill="url(#linear-gradient-13)"/>
          <path id="Path_3400" data-name="Path 3400" d="M619.641,481.4c-.145-.253-.175-.428-.1-.525a1.618,1.618,0,0,1,.76-.253l.41-.042,2.219,2.207c.193.187.277.32.241.38s-.2.133-.519.205l.09.085,2.286-.41-.091-.085a2.23,2.23,0,0,1-.706,0,1.043,1.043,0,0,1-.458-.3l-2.28-2.25.41-.078a3.014,3.014,0,0,1,.971-.054,2.378,2.378,0,0,1,.82.392h.187l-.808-.73-4.318.772.694.754Z" transform="translate(-289.946 -354.16)" fill="url(#linear-gradient-14)"/>
          <path id="Path_3401" data-name="Path 3401" d="M630.088,478.551a4.432,4.432,0,0,1,.76.338l4.01,2.093h.115l-.82-2.093,3.269,1.634h.121a14.4,14.4,0,0,1-.6-1.351c-.091-.265-.32-.76-.6-1.478-.054-.121-.06-.205-.03-.253a.765.765,0,0,1,.326-.163l-.09-.078-1.508.271.085.078a2.2,2.2,0,0,1,.476,0,.441.441,0,0,1,.253.1.917.917,0,0,1,.235.344l.663,1.64-2.672-1.351a4.339,4.339,0,0,1-.6-.314c-.1-.1.036-.181.428-.253l-.09-.078-2.032.362.084.084a1.63,1.63,0,0,1,.531,0,3.068,3.068,0,0,1,.657.265l.6.308.507,1.375-2.865-1.435a1.2,1.2,0,0,1-.3-.187c-.048-.048-.054-.084,0-.115a1.32,1.32,0,0,1,.356-.109l-.085-.084-1.87.338.085.078A1.538,1.538,0,0,1,630.088,478.551Z" transform="translate(-294.169 -353.068)" fill="url(#linear-gradient-15)"/>
          <path id="Path_3402" data-name="Path 3402" d="M642.577,477.276c-.169-.247-.217-.422-.145-.513a1.472,1.472,0,0,1,.748-.247l.41-.078,2.454,2.159c.211.187.308.308.277.374s-.193.133-.5.2l.091.084,2.274-.41-.1-.084a2.32,2.32,0,0,1-.712.03,1.207,1.207,0,0,1-.489-.289l-2.527-2.2.416-.072a3.042,3.042,0,0,1,.971-.06,2.924,2.924,0,0,1,.869.386l.181-.03-.88-.712-4.288.766.766.736Z" transform="translate(-299.024 -352.517)" fill="url(#linear-gradient-16)"/>
          <path id="Path_3403" data-name="Path 3403" d="M576.124,442.186a2.914,2.914,0,0,0-1.248-.054,1.116,1.116,0,0,0-.766.362c-.127.175-.1.362.09.567a1.4,1.4,0,0,0,.742.38,2.457,2.457,0,0,0,1.007,0,1.7,1.7,0,0,0,.808-.338.663.663,0,0,1-.139.724,2.027,2.027,0,0,1-.983.513l.079.06a6.237,6.237,0,0,0,.8-.235,2.274,2.274,0,0,0,.507-.278.8.8,0,0,0,.362-.6.772.772,0,0,0-.272-.6A2.056,2.056,0,0,0,576.124,442.186Zm.44.917a.766.766,0,0,1-.241.127,1.7,1.7,0,0,1-.265.066,1.538,1.538,0,0,1-1.357-.44.9.9,0,0,1-.139-.181.4.4,0,0,1-.048-.181.21.21,0,0,1,.1-.169.605.605,0,0,1,.289-.1,1.719,1.719,0,0,1,1.58.6l.115.115C576.643,442.994,576.636,443.048,576.564,443.1Z" transform="translate(-272.194 -339.132)" fill="url(#linear-gradient-17)"/>
          <path id="Path_3404" data-name="Path 3404" d="M581.459,441.266a2.943,2.943,0,0,0-1.255-.054,1.152,1.152,0,0,0-.76.362q-.181.266.109.561a1.467,1.467,0,0,0,.754.38,2.486,2.486,0,0,0,1.013,0,1.742,1.742,0,0,0,.8-.338.633.633,0,0,1-.121.718,1.978,1.978,0,0,1-.971.513l.078.06a6.855,6.855,0,0,0,.8-.235,1.976,1.976,0,0,0,.495-.277.778.778,0,0,0,.35-.573.8.8,0,0,0-.289-.6A2.173,2.173,0,0,0,581.459,441.266Zm.47.911a.841.841,0,0,1-.241.127,1.7,1.7,0,0,1-.265.066,1.58,1.58,0,0,1-1.375-.44.833.833,0,0,1-.139-.175.348.348,0,0,1-.054-.181.2.2,0,0,1,.084-.169.729.729,0,0,1,.3-.1,1.81,1.81,0,0,1,1.6.6l.121.115c.054.048.042.1-.024.157Z" transform="translate(-274.314 -338.767)" fill="url(#linear-gradient-18)"/>
          <path id="Path_3405" data-name="Path 3405" d="M586.784,440.346a2.98,2.98,0,0,0-1.26-.054,1.1,1.1,0,0,0-.748.362c-.121.175-.078.362.121.561a1.635,1.635,0,0,0,.766.38,2.63,2.63,0,0,0,1.019,0,1.719,1.719,0,0,0,.8-.338.6.6,0,0,1-.1.718,1.98,1.98,0,0,1-.959.507l.078.06a6.378,6.378,0,0,0,.79-.235,1.874,1.874,0,0,0,.494-.277.73.73,0,0,0,.332-.567.808.808,0,0,0-.308-.6A2.274,2.274,0,0,0,586.784,440.346Zm.495.911a.6.6,0,0,1-.235.121,1.716,1.716,0,0,1-.266.066,1.64,1.64,0,0,1-1.387-.434.8.8,0,0,1-.151-.181.375.375,0,0,1-.054-.175.181.181,0,0,1,.078-.163.725.725,0,0,1,.3-.109,1.852,1.852,0,0,1,1.622.6l.115.115a.09.09,0,0,1,0,.157Z" transform="translate(-276.431 -338.402)" fill="url(#linear-gradient-19)"/>
          <path id="Path_3406" data-name="Path 3406" d="M593.315,442.411a.913.913,0,0,0-.314,0,.308.308,0,0,0-.193.1.091.091,0,0,0,0,.139.512.512,0,0,0,.223.1.84.84,0,0,0,.3,0,.343.343,0,0,0,.211-.09.084.084,0,0,0,0-.133.476.476,0,0,0-.229-.109Z" transform="translate(-279.633 -339.255)" fill="url(#linear-gradient-20)"/>
          <path id="Path_3407" data-name="Path 3407" d="M594.75,438.956a3.112,3.112,0,0,0-1.279,0,1.073,1.073,0,0,0-.742.356c-.115.175-.066.362.145.555a1.678,1.678,0,0,0,.784.38,2.66,2.66,0,0,0,1.025,0,1.616,1.616,0,0,0,.784-.338.6.6,0,0,1-.066.712,1.9,1.9,0,0,1-.947.507l.084.054a5.468,5.468,0,0,0,.784-.229,1.811,1.811,0,0,0,.483-.277.7.7,0,0,0,.314-.567.869.869,0,0,0-.332-.6A2.52,2.52,0,0,0,594.75,438.956Zm.537.9a.6.6,0,0,1-.235.121,1.642,1.642,0,0,1-.259.066,1.609,1.609,0,0,1-.754-.054,1.675,1.675,0,0,1-.663-.374,1,1,0,0,1-.157-.175.44.44,0,0,1-.066-.181.181.181,0,0,1,.078-.163.6.6,0,0,1,.29-.1,1.93,1.93,0,0,1,1.652.6l.127.115a.1.1,0,0,1-.018.163Z" transform="translate(-279.591 -337.863)" fill="url(#linear-gradient-21)"/>
          <path id="Path_3408" data-name="Path 3408" d="M621.576,497.36a.844.844,0,0,1-.513-.289L617.252,493h-.1l-1.429.965.084.1a2.518,2.518,0,0,1,.663-.3.687.687,0,0,1,.6.253l2.871,3.1q.308.338.181.47a1.665,1.665,0,0,1-.754.277l.1.1,3.148-.6-.1-.1A3.325,3.325,0,0,1,621.576,497.36Z" transform="translate(-288.74 -359.34)" fill="url(#linear-gradient-22)"/>
          <path id="Path_3409" data-name="Path 3409" d="M628.093,491.763a4.385,4.385,0,0,0-2.412-.308,1.587,1.587,0,0,0-1.14.6,1.117,1.117,0,0,0,0,.947,3.539,3.539,0,0,0,.838,1.17,7.507,7.507,0,0,0,.6.6,7.33,7.33,0,0,0,.862.6,6.688,6.688,0,0,0,1.019.513,4.742,4.742,0,0,0,1.152.29,3.783,3.783,0,0,0,1.206,0c.772-.139,1.17-.476,1.206-1.007a2.554,2.554,0,0,0-1-1.809A6.671,6.671,0,0,0,628.093,491.763Zm1.966,4.185c-.983.181-2.183-.464-3.576-1.9s-1.6-2.243-.639-2.412a2.478,2.478,0,0,1,1.592.35,8.372,8.372,0,0,1,1.948,1.532c1.423,1.423,1.659,2.244.675,2.418Z" transform="translate(-292.199 -358.706)" fill="url(#linear-gradient-23)"/>
          <path id="Path_3410" data-name="Path 3410" d="M637.254,490.1a4.467,4.467,0,0,0-2.412-.308,1.544,1.544,0,0,0-1.128.6,1.092,1.092,0,0,0,.042.935,3.617,3.617,0,0,0,.826,1.17,7,7,0,0,0,.657.573,7.831,7.831,0,0,0,.886.6,6.642,6.642,0,0,0,1.043.507,4.911,4.911,0,0,0,1.164.289,3.988,3.988,0,0,0,1.206,0c.772-.139,1.158-.476,1.17-1a2.715,2.715,0,0,0-1.068-1.809A7.112,7.112,0,0,0,637.254,490.1Zm2.129,4.149c-.983.181-2.213-.458-3.661-1.882s-1.689-2.225-.73-2.412a2.575,2.575,0,0,1,1.61.344,9.051,9.051,0,0,1,2.014,1.52C640.1,493.255,640.366,494.063,639.383,494.244Z" transform="translate(-295.848 -358.045)" fill="url(#linear-gradient-24)"/>
          <path id="Path_3411" data-name="Path 3411" d="M646.395,488.451a4.608,4.608,0,0,0-2.413-.3,1.478,1.478,0,0,0-1.11.6,1.08,1.08,0,0,0,.072.929,3.7,3.7,0,0,0,.875,1.158,7.557,7.557,0,0,0,.682.573,9.132,9.132,0,0,0,.9.6,7.478,7.478,0,0,0,1.073.5,5.013,5.013,0,0,0,1.206.284,3.988,3.988,0,0,0,1.206,0q1.158-.211,1.14-1a2.841,2.841,0,0,0-1.134-1.809A7.514,7.514,0,0,0,646.395,488.451Zm2.286,4.113c-.977.181-2.231-.452-3.739-1.864s-1.809-2.207-.826-2.376a2.683,2.683,0,0,1,1.634.338,9.227,9.227,0,0,1,2.075,1.508C649.368,491.581,649.663,492.389,648.68,492.564Z" transform="translate(-299.488 -357.396)" fill="url(#linear-gradient-25)"/>
          <path id="Path_3412" data-name="Path 3412" d="M661.8,491.726a2.141,2.141,0,0,0-.965-.446,3.236,3.236,0,0,0-1.206,0l-1.5.223a2.013,2.013,0,0,1-1.079,0,.236.236,0,0,1-.048-.284.446.446,0,0,1,.247-.265h.229l.446-.054a1.206,1.206,0,0,0,.9-.513c.127-.253,0-.531-.332-.838a3.459,3.459,0,0,0-.844-.513l.923-.163-.3-.253-.85.151a3.292,3.292,0,0,1-.681.042h-.3a5.122,5.122,0,0,0-1,.06,1.207,1.207,0,0,0-.959.549c-.126.271,0,.561.308.862a2.57,2.57,0,0,0,.82.477,5.43,5.43,0,0,0,1.206.229,3.784,3.784,0,0,0-.289.651.271.271,0,0,0,.108.265.814.814,0,0,0,.332.163,6.514,6.514,0,0,0,.669.09,1.566,1.566,0,0,0-.344.6.44.44,0,0,0,.169.428,2.055,2.055,0,0,0,1.11.374,5.56,5.56,0,0,0,1.61-.054,2.611,2.611,0,0,0,1.809-.9.6.6,0,0,0-.193-.887Zm-5.2-1.206a3.676,3.676,0,0,1-1.206-.718h0c-.217-.193-.314-.356-.289-.495s.156-.223.416-.271a1.809,1.809,0,0,1,.736.03,2.886,2.886,0,0,1,.736.265c.223.121.41.229.561.332a3.2,3.2,0,0,1,.356.265c.211.187.3.344.277.483s-.169.223-.428.271a2.256,2.256,0,0,1-1.17-.187Zm4.963,1.978a3.227,3.227,0,0,1-1.345.47,4.86,4.86,0,0,1-1.357.078,1.447,1.447,0,0,1-.862-.284.4.4,0,0,1-.151-.241,1.336,1.336,0,0,1,.042-.446,14.952,14.952,0,0,0,1.93-.247,5.873,5.873,0,0,1,1.17-.121.978.978,0,0,1,.6.205c.235.169.223.368-.03.555Z" transform="translate(-304.108 -357.601)" fill="url(#linear-gradient-26)"/>
        </g>
      </g>
    </g>
  </g>
</svg>
