<svg xmlns="http://www.w3.org/2000/svg" xmlns:xlink="http://www.w3.org/1999/xlink" width="458" height="458" viewBox="0 0 458 458">
  <defs>
    <linearGradient id="linear-gradient" x1="0.865" y1="0.178" x2="0.152" y2="0.822" gradientUnits="objectBoundingBox">
      <stop offset="0" stop-color="#fdb819"/>
      <stop offset="1" stop-color="#fff"/>
    </linearGradient>
    <linearGradient id="linear-gradient-2" x1="0.188" y1="0.487" x2="0.882" y2="0.506" gradientUnits="objectBoundingBox">
      <stop offset="0" stop-color="#fdb819"/>
      <stop offset="1" stop-color="#d59a13"/>
    </linearGradient>
    <linearGradient id="linear-gradient-3" x1="-0.035" y1="-0.198" x2="1.399" y2="1.792" gradientUnits="objectBoundingBox">
      <stop offset="0" stop-color="#fdb819"/>
      <stop offset="0.263" stop-color="#fdb819"/>
      <stop offset="1" stop-color="#d59a13"/>
      <stop offset="1" stop-color="#c6c6c6"/>
    </linearGradient>
  </defs>
  <g id="Group_2048" data-name="Group 2048" transform="translate(-1038 -1920)">
    <circle id="Ellipse_8" data-name="Ellipse 8" cx="229" cy="229" r="229" transform="translate(1038 2378) rotate(-90)" fill="url(#linear-gradient)"/>
    <g id="Maximize_your_salvage_earnings" data-name="Maximize your salvage earnings" transform="translate(1044.963 1940.204)">
      <g id="Layer_1" data-name="Layer 1" transform="translate(23.037 99.796)">
        <path id="Path_3331" data-name="Path 3331" d="M427.841,470.24l-4.952,58.5A6.106,6.106,0,0,0,429,534.91h16.863a6.105,6.105,0,0,0,6.075-6.166l4.744-48.136a7.174,7.174,0,0,0-6.295-7.882Z" transform="translate(-209.597 -348.822)" fill="#828282"/>
        <path id="Path_3332" data-name="Path 3332" d="M450.447,572.4h-31.3a2.925,2.925,0,0,1-2.9-2.943h0a2.925,2.925,0,0,1,2.9-2.949h31.3a2.918,2.918,0,0,1,2.9,2.949h0a2.919,2.919,0,0,1-2.9,2.943Z" transform="translate(-207.011 -386.314)" fill="#828282"/>
        <path id="Path_3333" data-name="Path 3333" d="M81.4,511.1v33.58a6.105,6.105,0,0,0,6.069,6.166h16.888a6.105,6.105,0,0,0,6.069-6.166V513.9Z" transform="translate(-76.604 -364.735)" fill="#828282"/>
        <path id="Path_3334" data-name="Path 3334" d="M81.4,511.1v25.094l29.013.134V513.9Z" transform="translate(-76.604 -364.735)" fill="#828282" opacity="0.4"/>
        <path id="Path_3335" data-name="Path 3335" d="M456.741,385.857,455.3,390.32s15.966,15.758,19.849,15.264c2.308-.275,6.673-2.32,9.854-4.347,2.186-1.41,3.822-2.8,3.834-3.621.037-2-13.542-14.336-15.209-14.128a58.073,58.073,0,0,0-6.393,2.1c-3.053,1.13-6.032,2.283-6.032,2.283Z" transform="translate(-222.219 -315.036)" fill="#05101c"/>
        <path id="Path_3336" data-name="Path 3336" d="M76.878,340.182C78.014,343.6,79.8,347.423,81.2,349c2.644,2.949,24.856,1.612,24.856,1.612l1.8-4.335-4.677-1.435s-1.716-3.224-3.425-6.295a49.714,49.714,0,0,0-3.157-5.263c-1.13-1.264-19.354-.94-20.618.611C75.4,334.6,75.9,337.246,76.878,340.182Z" transform="translate(-74.396 -295.181)" fill="#05101c"/>
        <path id="Path_3337" data-name="Path 3337" d="M321.169,438.29c-.293.519-.574.989-.83,1.386a19.316,19.316,0,0,1-1.722,2.241c-3.364,3.914-9.738,8.841-18.567,8.413L98.7,440.6c-8.841-.427-14.708-5.947-17.706-10.172a17.633,17.633,0,0,1-1.5-2.393c-2.186-4.127-4.884-14.3-5.825-19.538s3.981-50.834,4.836-52.385,12.577-6.234,12.577-6.234h0c.385-.83,6.716-14.757,15.429-30.558,8.139-14.842,18.317-31.3,27.475-40.034v-.031c11.216-10.672,73.358-7.272,73.523-7.266s60.909,2.564,72.143,13.945a3.224,3.224,0,0,1,.4.415c8.267,9.58,16.87,26.944,23.579,42.5,7.143,16.564,12.211,31.04,12.48,31.907v.03s-4.091,19.006-6.429,33.22c-.4,2.442-.763,4.787-1.026,6.838-.134.983-.25,1.9-.336,2.748C307.279,413.5,316.822,430.964,321.169,438.29Z" transform="translate(-73.545 -271.411)" fill="#001327"/>
        <path id="Path_3338" data-name="Path 3338" d="M172.54,279.156c33.165,10.331,113.562,17.242,145.665,6.673-11.234-11.368-71.966-13.933-72.143-13.939S183.762,268.5,172.54,279.156Z" transform="translate(-112.099 -271.374)" fill="#001327"/>
        <path id="Path_3339" data-name="Path 3339" d="M310.187,441.307l-3.5,23.934-66.361,3.718L168.68,458.867l1.3-21.327Z" transform="translate(-110.595 -336.087)" fill="#838383"/>
        <path id="Path_3340" data-name="Path 3340" d="M432.847,528.848h0a36.69,36.69,0,0,1-1.453,4.207,12.17,12.17,0,0,1-2.906,4.628c-1.416,1.172-17.26,1.105-36.218.611l.726-4.347,1.484-9.122c3.5,1.6,10.819,2.87,12.211,2.668,2.7-.391,7.266-8.92,9.4-12.474,1.587-.043,3.1-.092,4.506-.159C425.166,517.675,432.6,523.982,432.847,528.848Z" transform="translate(-197.673 -366.199)" fill="#727272"/>
        <path id="Path_3341" data-name="Path 3341" d="M103.953,516a10.44,10.44,0,0,0,2.137,3.944c1.307,1.307,17.1,2.766,36.022,4.079l-1.587-23.2c-20.38-2.094-35.082-4.213-38-5.574C101.035,500.739,101.914,510.288,103.953,516Z" transform="translate(-84.541 -358.562)" fill="#727272"/>
        <path id="Path_3342" data-name="Path 3342" d="M302.257,534.614c-28.794-.91-61.312-2.619-61.391-2.619s-32.6-1.441-61.336-3.315c.073-1.575.153-3.285.25-5.055.293-6.252.684-13.261.946-17.614,16.845,1.569,36.462,3.053,56.116,4.091h.031l26.681,4.451s5.495-1.667,9.7-3.053a42.642,42.642,0,0,0,4.335-1.581c.672-.36,3.755.513,7.522,1.832h0c7.168,2.485,16.882,6.569,17.81,6.979-.147,3.663-.324,7.8-.488,11.6C302.385,531.793,302.318,533.265,302.257,534.614Z" transform="translate(-114.821 -362.753)" fill="#727272"/>
        <g id="Group_1909" data-name="Group 1909" transform="translate(19.388 157.471)" opacity="0.3">
          <path id="Path_3343" data-name="Path 3343" d="M431.4,544.69a12.35,12.35,0,0,1-2.912,4.628c-1.423,1.172-17.266,1.105-36.212.61l.714-4.365C409.516,545.85,423.156,545.661,431.4,544.69Z" transform="translate(-217.064 -535.288)" fill="#949494"/>
          <path id="Path_3344" data-name="Path 3344" d="M302.436,541.533c-.055,1.508-.122,2.961-.189,4.316-28.794-.91-61.3-2.613-61.385-2.613s-32.6-1.447-61.342-3.315c.079-1.575.159-3.3.25-5.062C215.658,537.424,264.936,540.556,302.436,541.533Z" transform="translate(-134.205 -531.459)" fill="#949494"/>
          <path id="Path_3345" data-name="Path 3345" d="M143.105,532.166l.354,5.147c-18.927-1.313-34.691-2.772-36.022-4.079a10.441,10.441,0,0,1-2.137-3.944C110.429,529.675,124.447,530.786,143.105,532.166Z" transform="translate(-105.3 -529.29)" fill="#949494"/>
        </g>
        <path id="Path_3346" data-name="Path 3346" d="M425.281,527.131c-.232,4.884,2.442,8.957,6.032,9.128s6.631-3.633,6.863-8.505-2.473-8.957-6.038-9.158S425.507,522.258,425.281,527.131Z" transform="translate(-210.523 -367.651)" fill="#949494"/>
        <path id="Path_3347" data-name="Path 3347" d="M427.2,528.227c-.189,3.987,2.021,7.327,4.933,7.473s5.428-2.979,5.617-6.96-2.027-7.327-4.939-7.473S427.386,524.246,427.2,528.227Z" transform="translate(-211.273 -368.693)" fill="#b4b4b4"/>
        <path id="Path_3348" data-name="Path 3348" d="M81,480.4a20.155,20.155,0,0,1-1.5-2.393c-2.18-4.133-4.884-14.3-5.812-19.538s3.975-50.859,4.836-52.446S91.086,399.8,91.086,399.8C84.151,418.342,79.236,463.462,81,480.4Z" transform="translate(-73.555 -321.389)" fill="#b7b7b7" opacity="0.3"/>
        <path id="Path_3349" data-name="Path 3349" d="M318.934,463.6c-.4,2.442-.763,4.787-1.026,6.838-9.812,8.48-24.77,15.056-29.306,16.43-6.063,1.832-40.3-5.495-42.128-5.623s-31.211,2.8-35.18,2.656h-.611l-.611-.031h0c-9.494-.611-73.626-4.64-86.246-8.969-13.621-4.677-21.613-11.5-26.547-24.587,10.392,6.527,50.779,14.464,113.953,17.517,11.735.568,27.145,4.787,33.373,4.848s26.821-3.956,37.805-4.561C298.884,467.216,311.186,465.586,318.934,463.6Z" transform="translate(-82.789 -341.06)" fill="#05101c"/>
        <path id="Path_3350" data-name="Path 3350" d="M125.782,512.741a8.749,8.749,0,1,1-2.217-6.337A8.7,8.7,0,0,1,125.782,512.741Z" transform="translate(-87.119 -361.773)" fill="#949494"/>
        <path id="Path_3351" data-name="Path 3351" d="M125.215,513.684A7.156,7.156,0,1,1,123.4,508.5,7.113,7.113,0,0,1,125.215,513.684Z" transform="translate(-88.133 -362.795)" fill="#b4b4b4"/>
        <path id="Path_3352" data-name="Path 3352" d="M327.3,391.213c-3.92,6.453-8.7,12.419-20.38,16.693-15.148,5.6-41.914,8.4-93.457,5.91-1.716-.086-3.389-.165-5.043-.263-42.476-2.277-67.038-6.637-81.918-12.272-15.447-5.88-20.46-13.157-24.245-20.972h0c.366-.83,6.716-14.757,15.429-30.558l9.317.452,88.963,9.928,89.513-1.3,9.317.452c7.143,16.564,12.211,31.04,12.48,31.907Z" transform="translate(-84.728 -301.897)" fill="#001327"/>
        <g id="Group_1910" data-name="Group 1910" transform="translate(215.338 56.803)" opacity="0.3">
          <path id="Path_3353" data-name="Path 3353" d="M426.7,417.064c9.079-3.926,14.653-9.1,16.949-15.819,3.053-8.853.5-20.215-8.291-36.835l-1.044.568c8.621,16.3,11.155,27.365,8.212,35.87-2.2,6.38-7.534,11.326-16.289,15.111Z" transform="translate(-426.24 -364.41)" fill="#b7b7b7"/>
        </g>
        <g id="Group_1911" data-name="Group 1911" transform="translate(26.308 47.822)" opacity="0.3">
          <path id="Path_3354" data-name="Path 3354" d="M132.652,402.952c-8.67-4.787-13.707-10.471-15.392-17.389-2.216-9.1,1.392-20.148,11.7-35.864l.989.666c-10.111,15.392-13.67,26.162-11.539,34.93,1.6,6.569,6.441,12,14.806,16.613Z" transform="translate(-116.634 -349.7)" fill="#b7b7b7"/>
        </g>
        <path id="Path_3355" data-name="Path 3355" d="M162.218,285.16s53.228,4.176,68.638,4.927,68.76,1.691,68.76,1.691,13.518,15.514,23.317,42.9c-2.18,4.317-94.2.269-94.2.269s-91.979-4.823-93.738-9.329C147.309,299.3,162.218,285.16,162.218,285.16Z" transform="translate(-97.479 -276.743)" fill="#898989"/>
        <path id="Path_3356" data-name="Path 3356" d="M144.592,449.167c-1.41,1.294-30.344-4.274-41.23-8.3a12.307,12.307,0,0,1-3.8-1.917c-3.773-3.8-2.345-17.382-1.484-18.927.153-.269,1.569-.116,3.853.354,10.947,2.229,41.517,11.552,43.349,13.982C147.529,437.255,144.592,449.167,144.592,449.167Z" transform="translate(-82.71 -329.215)" fill="#ebebeb"/>
        <path id="Path_3357" data-name="Path 3357" d="M103.362,440.87a12.307,12.307,0,0,1-3.8-1.917c-3.773-3.8-2.345-17.382-1.484-18.927.153-.269,1.569-.116,3.853.354Z" transform="translate(-82.71 -329.215)" fill="#bbb"/>
        <path id="Path_3358" data-name="Path 3358" d="M359.964,298.941c2.7,3.364,13.212,17.224,21.406,39.155-8.639,1.569-46.17,1.032-82.424-.421L292.84,297.28C307.658,297.927,352.418,298.776,359.964,298.941Z" transform="translate(-158.95 -281.463)" fill="#fff" opacity="0.2"/>
        <path id="Path_3359" data-name="Path 3359" d="M481.242,383.5a58.069,58.069,0,0,0-6.393,2.1l17.8,15.648c2.186-1.41,3.822-2.8,3.834-3.62C496.488,395.624,482.909,383.291,481.242,383.5Z" transform="translate(-229.833 -315.04)" fill="#001327"/>
        <path id="Path_3360" data-name="Path 3360" d="M76.878,340.182l22.871-1.636a49.716,49.716,0,0,0-3.157-5.263c-1.13-1.264-19.354-.94-20.618.611C75.4,334.6,75.9,337.246,76.878,340.182Z" transform="translate(-74.396 -295.181)" fill="#001327"/>
        <path id="Path_3361" data-name="Path 3361" d="M375.34,393.158c1.136-8.3.092-23.268.092-23.268L403,408.91l-4.414,3.785S375.743,395.692,375.34,393.158Z" transform="translate(-191.079 -309.741)" fill="#b7b7b7" opacity="0.3"/>
        <path id="Path_3362" data-name="Path 3362" d="M420.64,406.758l12.516-42.348s4.1,12.04,4.274,14.043-4.994,26.815-6,27.017S420.64,406.758,420.64,406.758Z" transform="translate(-208.721 -307.607)" fill="#ddd" opacity="0.6"/>
        <path id="Path_3363" data-name="Path 3363" d="M376.063,413.149a11.4,11.4,0,0,0-1.423,1.264c-15.148,5.6-41.914,8.4-93.457,5.91-1.716-.086-3.389-.165-5.043-.263,23.982-3.969,58.753-27.914,60.567-28.281,2.009-.421,23.366,17.059,27.658,15.752s10.99-11.6,11.967-16.112S377.9,366.35,377.9,366.35s7.443,13.591,8.114,25.759A24.651,24.651,0,0,1,376.063,413.149Z" transform="translate(-152.446 -308.362)" fill="#727272"/>
        <path id="Path_3364" data-name="Path 3364" d="M429.391,461.432c-2.247.134-5.33-3.291-9.348-2.723-.464.067-1.13.2-1.96.391-1.166.262-2.662.611-4.31,1.05-6.276,1.593-14.946,3.859-17.871,3.73-.537,0-.891-.116-.989-.318a4.03,4.03,0,0,1-.275-.806c-.824-3.15-1.539-12.5.238-14.372s19.91-10.172,23.4-10.245,12.693,5.666,14.043,8.762S431.644,461.286,429.391,461.432Z" transform="translate(-198.258 -336.32)" fill="#aeaeae"/>
        <path id="Path_3365" data-name="Path 3365" d="M429.4,461.416c-2.247.134-5.33-3.291-9.348-2.723-.464.067-1.129.2-1.96.391l2.931-2.241,5.538,1.4,1.642-3.089-2.845-.519-1.136-2.332,3.889-.69-1.221-2.839,2.442-1.911-7.449-5.776-5.91-1.545-3.34,7.546s-7.51-1.88-7.882-1.9-6.679,4.109-6.679,4.109l-1.142,5.831,2.3,4.164,2.607-5.184,1.508,5.129,10.434.867.61.043s-14.085,5.525-15.337,5.709c-.495.079-1.783-.861-3.132-2.021-.415-.366-.849-.739-1.264-1.123-.824-3.15-1.539-12.5.238-14.372s19.91-10.172,23.4-10.245,12.693,5.666,14.043,8.761S431.652,461.27,429.4,461.416Z" transform="translate(-198.266 -336.305)" fill="#ebebeb"/>
        <g id="Group_1912" data-name="Group 1912" transform="translate(171.668 193.316)">
          <path id="Path_3366" data-name="Path 3366" d="M504.919,588c.922,3.053.238,7.937-3.779,9l-97.206,12.51a41.263,41.263,0,0,1-17.3-1.471h-.067l-29.581-9.048c-4.469-1.337-2.167-6.618,5.287-6.777Z" transform="translate(-354.715 -588)" fill="#d59a13"/>
          <path id="Path_3367" data-name="Path 3367" d="M505.169,588c.879,3.157.061,7.791-3.8,8.725l-96.949,12.321a41.65,41.65,0,0,1-17.266-1.441h-.067l-29.49-8.859c-4.2-1.221-1.642-6.191,5.788-6.24Z" transform="translate(-355.049 -588)" fill="#d59a13"/>
          <path id="Path_3368" data-name="Path 3368" d="M505.407,588.06c.836,3.23-.122,7.6-3.834,8.45l-96.687,12.1a42.167,42.167,0,0,1-17.224-1.422H387.6l-29.41-8.725c-3.938-1.166-1.117-5.757,6.283-5.7Z" transform="translate(-355.374 -588.023)" fill="#d59a13"/>
          <path id="Path_3369" data-name="Path 3369" d="M505.645,588.1c.788,3.3-.305,7.418-3.865,8.175l-96.461,11.912a42.688,42.688,0,0,1-17.175-1.4h-.067l-29.306-8.548c-3.663-1.074-.611-5.33,6.783-5.153Z" transform="translate(-355.691 -588.039)" fill="#d59a13"/>
          <path id="Path_3370" data-name="Path 3370" d="M505.865,588.14c.745,3.382-.488,7.235-3.9,7.937L405.8,607.72a43.188,43.188,0,0,1-17.1-1.368h-.073l-29.282-8.42c-3.413-.989-.067-4.884,7.278-4.616Z" transform="translate(-355.996 -588.055)" fill="#d59a13"/>
          <path id="Path_3371" data-name="Path 3371" d="M506.03,588.19c.7,3.45-.665,7.046-3.92,7.632l-95.917,11.46a43.75,43.75,0,0,1-17.1-1.343h-.067L359.852,597.7c-3.144-.9.458-4.469,7.778-4.072Z" transform="translate(-356.271 -588.074)" fill="#d59a13"/>
          <path id="Path_3372" data-name="Path 3372" d="M506.286,588.23c.653,3.529-.855,6.863-3.956,7.326L406.669,606.84a44.333,44.333,0,0,1-17.034-1.325h-.067l-29.1-8.1c-2.882-.806.983-4.036,8.273-3.529Z" transform="translate(-356.582 -588.09)" fill="#d59a13"/>
          <path id="Path_3373" data-name="Path 3373" d="M506.483,588.28c.611,3.6-1.038,6.673-3.981,7.082l-95.4,11.063a44.832,44.832,0,0,1-16.992-1.294h-.067l-29.019-7.937c-2.619-.721,1.508-3.608,8.774-2.986Z" transform="translate(-356.864 -588.109)" fill="#d59a13"/>
          <path id="Path_3374" data-name="Path 3374" d="M506.676,588.32c.568,3.663-1.221,6.49-4.011,6.808l-95.142,10.825a45.467,45.467,0,0,1-16.949-1.27h-.067l-28.916-7.809c-2.357-.611,2.027-3.175,9.268-2.442Z" transform="translate(-357.144 -588.125)" fill="#d59a13"/>
        </g>
        <path id="Path_3375" data-name="Path 3375" d="M437.23,575.494l95.142-10.825a4.4,4.4,0,0,0,3.663-5.794L524.9,526.167a5.562,5.562,0,0,0-4.414-3.706L441.04,510.11Z" transform="translate(-215.182 -364.35)" fill="#d59a13"/>
        <path id="Path_3376" data-name="Path 3376" d="M369.572,519.992l-12.693,41.383a4.3,4.3,0,0,0,3,5.422l28.94,7.791,6.618-63.5-21.766,5.049a5.666,5.666,0,0,0-4.1,3.853Z" transform="translate(-183.816 -364.731)" fill="#fdb819"/>
        <path id="Path_3377" data-name="Path 3377" d="M416.363,510.39l-.385.085-6.618,63.5h.067a45.467,45.467,0,0,0,16.949,1.27h0l3.81-65.384h0A36.336,36.336,0,0,0,416.363,510.39Z" transform="translate(-204.328 -364.086)" fill="url(#linear-gradient-2)"/>
        <path id="Path_3378" data-name="Path 3378" d="M525.194,590a4.4,4.4,0,0,1-3.663,5.794l-95.154,10.813a45.474,45.474,0,0,1-16.949-1.27h-.067Z" transform="translate(-204.328 -395.463)" fill="#d59a13"/>
        <path id="Path_3380" data-name="Path 3380" d="M405.895,607.951a45.469,45.469,0,0,1-16.949-1.27h-.067l-28.916-7.809a4.3,4.3,0,0,1-3-5.422S401.987,606.827,405.895,607.951Z" transform="translate(-183.847 -396.806)" fill="#fdb819"/>
        <path id="Path_3381" data-name="Path 3381" d="M501.762,525.892a5.562,5.562,0,0,0-4.414-3.706l-79.457-12.351a36.334,36.334,0,0,0-13.823.513l-.385.085-21.766,5.049a5.665,5.665,0,0,0-4.127,3.853s.781-.714,4.127-1.429l22.7-4.835a33.943,33.943,0,0,1,12.522-.293c6.612,1.166,80.751,12,80.751,12S500.938,525.165,501.762,525.892Z" transform="translate(-192.033 -364.074)" fill="#fdb819"/>
        <path id="Path_3383" data-name="Path 3383" d="M567.569,541.048l10.8-45.724a8.816,8.816,0,0,1,6.637-6.576l48.368-10.99a3.388,3.388,0,0,1,3.968,2.265h0s-.141-4.274-4.75-8.059a1.874,1.874,0,0,1-.781,3.272L584.6,485.94a10.99,10.99,0,0,1-10.752-3.559l-56.83-66.245a2.314,2.314,0,0,1,1.642-3.816,9.769,9.769,0,0,0-8.548,6.105,2.308,2.308,0,0,1,3.859-.568l58.35,67.979a10.7,10.7,0,0,1,2.29,9.415l-10.379,43.96a2.845,2.845,0,0,1-4.463,1.618h0s4.432,5.44,10.581,3.663h0a2.845,2.845,0,0,1-2.778-3.444Z" transform="translate(-243.565 -326.265)" fill="#d59a13"/>
        <path id="Path_3384" data-name="Path 3384" d="M552.3,543.112,493.733,449.2a5.581,5.581,0,0,1-.36-5.214l10.044-22.517a2.308,2.308,0,0,1,3.859-.568l58.338,67.966a10.7,10.7,0,0,1,2.29,9.415l-10.38,43.96a2.851,2.851,0,0,1-5.226.873Z" transform="translate(-236.86 -329.293)" fill="#fdb819"/>
        <path id="Path_3385" data-name="Path 3385" d="M577.9,481.378l-56.83-66.245a2.314,2.314,0,0,1,1.642-3.816l35.375-1.624a10.947,10.947,0,0,1,7.455,2.491l71.1,58.778a1.874,1.874,0,0,1-.782,3.273l-47.214,10.7A10.99,10.99,0,0,1,577.9,481.378Z" transform="translate(-247.615 -325.238)" fill="url(#linear-gradient-3)"/>
        <path id="Path_3386" data-name="Path 3386" d="M674.086,522.353l4.665,37.317a5.33,5.33,0,0,1-3.731,5.758l-67.24,20.679a2.845,2.845,0,0,1-3.608-3.37l10.8-45.724a8.816,8.816,0,0,1,6.636-6.576l48.368-10.99a3.388,3.388,0,0,1,4.109,2.906Z" transform="translate(-280.168 -367.954)" fill="#fdb819"/>
        <path id="Path_3388" data-name="Path 3388" d="M493.373,459.22a5.581,5.581,0,0,0,.36,5.214L552.3,558.349a2.835,2.835,0,0,0,.727.769h0s4.433,5.44,10.581,3.663h0Z" transform="translate(-236.86 -344.53)" fill="#fdb819"/>
        <path id="Path_3389" data-name="Path 3389" d="M673.794,585.38,591.37,608.251h0s4.433,5.44,10.581,3.663h0a2.78,2.78,0,0,0,.855-.122l67.24-20.679A5.33,5.33,0,0,0,673.794,585.38Z" transform="translate(-275.212 -393.663)" fill="#fdb819"/>
        <path id="Path_3390" data-name="Path 3390" d="M557.259,427.72a.55.55,0,0,1,.317.189l1.27,1.355c.122.128.165.22.122.269a1.107,1.107,0,0,1-.476.165l.061.061,2.094-.36-.055-.061a2.443,2.443,0,0,1-.611.037.611.611,0,0,1-.336-.208l-.647-.684,1.069-.183a2.535,2.535,0,0,1,.653-.049,1.174,1.174,0,0,1,.452.208h.171l-.7-.72h-.171c.073.134.079.226,0,.281a1.428,1.428,0,0,1-.543.153l-1.068.183-.647-.684q-.067-.067-.037-.092a.373.373,0,0,1,.171-.055l1-.171a3.94,3.94,0,0,1,.879-.079,1.22,1.22,0,0,1,.55.214l.183-.031-.44-.458-3.889.659.049.061A2,2,0,0,1,557.259,427.72Z" transform="translate(-261.682 -331.982)" fill="#001327"/>
        <path id="Path_3391" data-name="Path 3391" d="M564.072,426.755a.647.647,0,0,1,.336.2l1.355,1.374c.116.122.153.2.1.25a1.412,1.412,0,0,1-.537.159l.055.061,2.222-.379-.061-.061a2.288,2.288,0,0,1-.659.043.611.611,0,0,1-.354-.2l-1.374-1.374c-.11-.11-.14-.189-.085-.238a1.649,1.649,0,0,1,.531-.153l-.061-.061-2.167.372.055.055A2.8,2.8,0,0,1,564.072,426.755Z" transform="translate(-264.307 -331.737)" fill="#001327"/>
        <path id="Path_3392" data-name="Path 3392" d="M567.72,425.785a3.347,3.347,0,0,1,.488.079l1.38,1.355c.165.159.226.275.189.336s-.2.128-.507.189l.061.061,1.752-.3-.061-.061a1.832,1.832,0,0,1-.653,0,1.05,1.05,0,0,1-.452-.293l-1.221-1.221,5.037,1.142h.128l-1.722-1.618a.694.694,0,0,1-.177-.214.091.091,0,0,1,0-.134.456.456,0,0,1,.153-.079l.281-.073-.061-.055-1.71.287.055.061a2.011,2.011,0,0,1,.659,0,.99.99,0,0,1,.452.275l1.093,1.032-4.353-.983-1.252.214.061.055A1.911,1.911,0,0,1,567.72,425.785Z" transform="translate(-265.83 -331.165)" fill="#001327"/>
        <path id="Path_3393" data-name="Path 3393" d="M576.587,424.43a.666.666,0,0,1,.342.189l1.471,1.355c.116.11.159.189.116.232a1.074,1.074,0,0,1-.458.159l.061.055,4.017-.684-.256-.574-.2.031a.451.451,0,0,1-.25.433,4,4,0,0,1-1.05.275l-.2.031a5.661,5.661,0,0,1-.684.092.348.348,0,0,1-.244-.092l-.836-.757,1.136-.189a2.357,2.357,0,0,1,.653-.055,1.384,1.384,0,0,1,.482.208l.171-.031-.788-.7H579.9c.079.116.1.208.055.263a1.27,1.27,0,0,1-.543.159l-1.13.2-.733-.672c-.049-.043-.061-.073-.043-.091a.349.349,0,0,1,.171-.049l.983-.171a3.937,3.937,0,0,1,.879-.079,1.393,1.393,0,0,1,.58.208l.183-.031-.5-.427-3.865.659.061.061a2.06,2.06,0,0,1,.586,0Z" transform="translate(-269.203 -330.701)" fill="#001327"/>
        <path id="Path_3394" data-name="Path 3394" d="M561.631,434.1a1.063,1.063,0,0,1,.47-.171l-.073-.073-2.442.415.067.073a3.054,3.054,0,0,1,.769-.036.786.786,0,0,1,.421.269l.647.69c.061.067,0,.147-.22.244a3.717,3.717,0,0,1-.836.232,5.525,5.525,0,0,1-2.18-.03,2.752,2.752,0,0,1-1.514-.818,1.328,1.328,0,0,1-.238-.342.823.823,0,0,1-.079-.385.611.611,0,0,1,.14-.385,1.288,1.288,0,0,1,.476-.33,3.559,3.559,0,0,1,.879-.25,4.184,4.184,0,0,1,1.453,0,5.417,5.417,0,0,1,1.221.379l.214-.037-.885-.849-.214.037a.118.118,0,0,1-.067.122.609.609,0,0,1-.232.085l-.678.037a8.592,8.592,0,0,0-1.148.116,3.614,3.614,0,0,0-1.966.806.794.794,0,0,0,0,1.221,2.307,2.307,0,0,0,.757.549,4.164,4.164,0,0,0,.965.318,7.082,7.082,0,0,0,1.062.116,9.731,9.731,0,0,0,1.044,0,5.531,5.531,0,0,0,.91-.11,8.906,8.906,0,0,0,1.3-.336,3.125,3.125,0,0,0,.855-.385l-.812-.861C561.619,434.269,561.582,434.184,561.631,434.1Z" transform="translate(-261.177 -334.202)" fill="#001327"/>
        <path id="Path_3395" data-name="Path 3395" d="M573.412,433.482c.324-.366.269-.763-.165-1.178a3.664,3.664,0,0,0-1.923-.879,7.221,7.221,0,0,0-2.613,0,3.132,3.132,0,0,0-1.832.775c-.324.36-.293.751.11,1.172a3.522,3.522,0,0,0,1.9.9,7.324,7.324,0,0,0,2.607.03A3.273,3.273,0,0,0,573.412,433.482Zm-3.156.69a3.606,3.606,0,0,1-.965-.232,4.019,4.019,0,0,1-.708-.36,2.606,2.606,0,0,1-.5-.4,2.272,2.272,0,0,1-.275-.348,1.088,1.088,0,0,1-.134-.372.574.574,0,0,1,.061-.366.826.826,0,0,1,.372-.311,2.7,2.7,0,0,1,.745-.226,5.579,5.579,0,0,1,.568-.061,5.053,5.053,0,0,1,.653.031,4.559,4.559,0,0,1,.708.147,3.343,3.343,0,0,1,.708.311,3.124,3.124,0,0,1,.666.5,1.687,1.687,0,0,1,.324.427.942.942,0,0,1,.1.464.573.573,0,0,1-.305.446,2.363,2.363,0,0,1-.9.3A4.123,4.123,0,0,1,570.256,434.171Z" transform="translate(-265.588 -333.659)" fill="#001327"/>
        <path id="Path_3396" data-name="Path 3396" d="M583.257,431.712l-.079.1a.339.339,0,0,1-.122.1l-.189.1a1.465,1.465,0,0,1-.262.1l-.354.1-.452.092-.647.11a4.169,4.169,0,0,1-.714.085.453.453,0,0,1-.3-.116l-2.057-1.942c-.146-.14-.2-.244-.134-.305a1.507,1.507,0,0,1,.611-.208l-.079-.073-2.656.452.079.073a3.128,3.128,0,0,1,.757,0,.872.872,0,0,1,.44.256l1.911,1.832c.159.147.208.256.153.318a1.362,1.362,0,0,1-.611.2l.079.085,5.239-.928-.342-.806-.238.043v.153a.624.624,0,0,1,0,.085A.166.166,0,0,1,583.257,431.712Z" transform="translate(-269.156 -333.092)" fill="#001327"/>
        <path id="Path_3397" data-name="Path 3397" d="M593.145,428.813a2.621,2.621,0,0,0-.525-.348,4.5,4.5,0,0,0-.782-.281,6.391,6.391,0,0,0-1.038-.189,9.064,9.064,0,0,0-1.319,0,13.19,13.19,0,0,0-1.618.177l-2.534.434.085.079a2.9,2.9,0,0,1,.776-.043.989.989,0,0,1,.452.256l2.015,1.8c.165.153.226.256.177.318a1.484,1.484,0,0,1-.611.208l.086.079,2.741-.47a8.151,8.151,0,0,0,1.4-.4,2.564,2.564,0,0,0,.8-.415.714.714,0,0,0,.281-.433.611.611,0,0,0-.079-.427,1.471,1.471,0,0,0-.311-.342Zm-2.668,1.911a1.754,1.754,0,0,1-.44,0,.472.472,0,0,1-.256-.116l-2.326-2.009c-.067-.061-.086-.11-.043-.14a.891.891,0,0,1,.354-.1,9.237,9.237,0,0,1,1.307-.141,7.327,7.327,0,0,1,1.081.043,4.465,4.465,0,0,1,.861.183,3.864,3.864,0,0,1,.659.269,2.741,2.741,0,0,1,.47.318C593.066,429.82,592.51,430.376,590.477,430.724Z" transform="translate(-272.86 -332.36)" fill="#001327"/>
        <path id="Path_3398" data-name="Path 3398" d="M606.7,483.126c-.043-.086-.043-.146,0-.2a.39.39,0,0,1,.153-.11,2.047,2.047,0,0,0,.293-.085l-.079-.086-1.832.33.079.085a1.679,1.679,0,0,1,.72,0,1.408,1.408,0,0,1,.555.415l1.429,1.526-5.037-1.642-1.331.238.079.086a1.316,1.316,0,0,1,.427,0,3.08,3.08,0,0,1,.549.134l1.832,2c.214.238.311.4.281.495s-.2.171-.513.238l.079.092,1.868-.336-.079-.092a1.508,1.508,0,0,1-.72,0,1.617,1.617,0,0,1-.568-.44L603.274,484l5.8,1.887h.134l-2.247-2.4a1.576,1.576,0,0,1-.263-.36Z" transform="translate(-279.216 -353.655)" fill="#001327"/>
        <path id="Path_3399" data-name="Path 3399" d="M613.7,485.148l4.274-.775-.4-.836-.22.043a.574.574,0,0,1-.183.611,3.054,3.054,0,0,1-1.1.336l-.214.037a4.264,4.264,0,0,1-.733.092.415.415,0,0,1-.287-.14l-1.081-1.123,1.221-.22a2.166,2.166,0,0,1,.714-.037,1.727,1.727,0,0,1,.574.317h.183l-1.026-1.05h-.2c.116.177.153.3.116.379s-.226.14-.562.2l-1.221.214-.952-.989c-.061-.061-.079-.1-.067-.128a.331.331,0,0,1,.177-.067l1.05-.189a3.25,3.25,0,0,1,.952-.073,1.758,1.758,0,0,1,.69.324h.189l-.611-.611-4.121.739.079.085a1.836,1.836,0,0,1,.611,0,1.057,1.057,0,0,1,.421.287l1.911,2.009c.153.165.214.275.177.342s-.2.134-.476.2Z" transform="translate(-282.802 -353.192)" fill="#001327"/>
        <path id="Path_3400" data-name="Path 3400" d="M619.652,481.421c-.147-.256-.177-.434-.1-.531a1.638,1.638,0,0,1,.769-.256l.415-.043,2.247,2.235c.2.189.281.324.244.385s-.207.134-.525.208l.092.085,2.314-.415-.092-.085a2.261,2.261,0,0,1-.714,0,1.056,1.056,0,0,1-.464-.3l-2.308-2.277.415-.079a3.054,3.054,0,0,1,.983-.055,2.407,2.407,0,0,1,.83.4h.189l-.818-.739-4.372.782.7.763Z" transform="translate(-285.879 -352.604)" fill="#001327"/>
        <path id="Path_3401" data-name="Path 3401" d="M630.1,478.568a4.5,4.5,0,0,1,.769.342l4.06,2.119h.116l-.83-2.119,3.309,1.655h.122a14.583,14.583,0,0,1-.61-1.368c-.092-.269-.324-.769-.611-1.5-.055-.122-.061-.208-.03-.256a.774.774,0,0,1,.33-.165l-.091-.079-1.527.275.086.079a2.23,2.23,0,0,1,.482,0,.447.447,0,0,1,.257.1.929.929,0,0,1,.238.348l.672,1.661-2.7-1.368a4.389,4.389,0,0,1-.61-.317c-.1-.1.037-.183.433-.257l-.091-.079-2.058.366.085.085a1.65,1.65,0,0,1,.537,0,3.105,3.105,0,0,1,.665.269l.611.311.513,1.392-2.9-1.453a1.222,1.222,0,0,1-.3-.189c-.049-.049-.055-.085,0-.116a1.332,1.332,0,0,1,.36-.11l-.086-.085-1.893.342.086.079A1.557,1.557,0,0,1,630.1,478.568Z" transform="translate(-290.023 -351.533)" fill="#001327"/>
        <path id="Path_3402" data-name="Path 3402" d="M642.589,477.294c-.171-.25-.22-.427-.146-.519a1.49,1.49,0,0,1,.757-.25l.415-.079,2.485,2.186c.214.189.311.311.281.379s-.2.134-.507.2l.092.085,2.3-.415-.1-.085a2.348,2.348,0,0,1-.72.031,1.224,1.224,0,0,1-.495-.293L644.4,476.3l.421-.073a3.08,3.08,0,0,1,.983-.061,2.96,2.96,0,0,1,.879.391l.183-.031-.891-.72-4.341.775.775.745Z" transform="translate(-294.786 -350.991)" fill="#001327"/>
        <path id="Path_3403" data-name="Path 3403" d="M576.15,442.187a2.948,2.948,0,0,0-1.264-.055,1.13,1.13,0,0,0-.775.366c-.128.177-.1.366.091.574a1.416,1.416,0,0,0,.751.385,2.487,2.487,0,0,0,1.02,0,1.722,1.722,0,0,0,.818-.342.672.672,0,0,1-.141.733,2.051,2.051,0,0,1-1,.519l.08.061a6.32,6.32,0,0,0,.806-.238,2.3,2.3,0,0,0,.513-.281.806.806,0,0,0,.366-.611.782.782,0,0,0-.275-.61A2.08,2.08,0,0,0,576.15,442.187Zm.446.928a.775.775,0,0,1-.244.128,1.732,1.732,0,0,1-.269.067,1.557,1.557,0,0,1-1.374-.446.91.91,0,0,1-.14-.183.407.407,0,0,1-.049-.183.213.213,0,0,1,.1-.171.613.613,0,0,1,.293-.1,1.74,1.74,0,0,1,1.6.611l.116.116C576.675,443.005,576.669,443.06,576.6,443.115Z" transform="translate(-268.46 -337.859)" fill="#001327"/>
        <path id="Path_3404" data-name="Path 3404" d="M581.484,441.267a2.978,2.978,0,0,0-1.27-.055,1.166,1.166,0,0,0-.769.366q-.183.269.11.568a1.484,1.484,0,0,0,.763.385,2.514,2.514,0,0,0,1.026,0,1.764,1.764,0,0,0,.812-.342.641.641,0,0,1-.122.727,2,2,0,0,1-.983.519l.079.061a6.924,6.924,0,0,0,.806-.238,2,2,0,0,0,.5-.281.787.787,0,0,0,.354-.58.806.806,0,0,0-.293-.611A2.2,2.2,0,0,0,581.484,441.267Zm.476.922a.852.852,0,0,1-.244.128,1.738,1.738,0,0,1-.269.067,1.6,1.6,0,0,1-1.392-.446.847.847,0,0,1-.14-.177.352.352,0,0,1-.055-.183.2.2,0,0,1,.086-.171.738.738,0,0,1,.3-.1,1.832,1.832,0,0,1,1.618.61l.122.116c.055.049.043.1-.025.159Z" transform="translate(-270.54 -337.5)" fill="#001327"/>
        <path id="Path_3405" data-name="Path 3405" d="M586.81,440.347a3.015,3.015,0,0,0-1.276-.055,1.117,1.117,0,0,0-.757.366c-.122.177-.079.366.122.568a1.655,1.655,0,0,0,.775.385,2.662,2.662,0,0,0,1.032,0,1.74,1.74,0,0,0,.806-.342.611.611,0,0,1-.1.727,2,2,0,0,1-.971.513l.079.061a6.439,6.439,0,0,0,.8-.238,1.9,1.9,0,0,0,.5-.281.739.739,0,0,0,.336-.574.818.818,0,0,0-.311-.611A2.3,2.3,0,0,0,586.81,440.347Zm.5.922a.61.61,0,0,1-.238.122,1.734,1.734,0,0,1-.269.067,1.583,1.583,0,0,1-.751-.055,1.565,1.565,0,0,1-.653-.385.813.813,0,0,1-.153-.183.378.378,0,0,1-.055-.177.183.183,0,0,1,.079-.165.732.732,0,0,1,.3-.11,1.875,1.875,0,0,1,1.642.611l.116.116a.092.092,0,0,1,0,.159Z" transform="translate(-272.617 -337.142)" fill="#001327"/>
        <path id="Path_3406" data-name="Path 3406" d="M593.322,442.411a.923.923,0,0,0-.318,0,.311.311,0,0,0-.2.1.092.092,0,0,0,0,.14.52.52,0,0,0,.226.1.854.854,0,0,0,.305,0,.348.348,0,0,0,.214-.092.085.085,0,0,0,0-.134.481.481,0,0,0-.232-.11Z" transform="translate(-275.76 -337.979)" fill="#001327"/>
        <path id="Path_3407" data-name="Path 3407" d="M594.776,438.957a3.152,3.152,0,0,0-1.294,0,1.086,1.086,0,0,0-.751.36c-.116.177-.067.366.146.562a1.7,1.7,0,0,0,.794.385,2.693,2.693,0,0,0,1.038,0,1.635,1.635,0,0,0,.794-.342.61.61,0,0,1-.067.72,1.923,1.923,0,0,1-.958.513l.085.055a5.531,5.531,0,0,0,.794-.232,1.83,1.83,0,0,0,.488-.281.708.708,0,0,0,.318-.574.879.879,0,0,0-.336-.611A2.553,2.553,0,0,0,594.776,438.957Zm.543.916a.609.609,0,0,1-.238.122,1.66,1.66,0,0,1-.263.067,1.63,1.63,0,0,1-.763-.055,1.7,1.7,0,0,1-.672-.379,1.011,1.011,0,0,1-.159-.177.448.448,0,0,1-.067-.183.183.183,0,0,1,.079-.165.611.611,0,0,1,.293-.1,1.954,1.954,0,0,1,1.673.611l.128.116a.1.1,0,0,1-.018.165Z" transform="translate(-275.718 -336.613)" fill="#001327"/>
        <path id="Path_3408" data-name="Path 3408" d="M621.648,497.414a.855.855,0,0,1-.519-.293L617.271,493h-.1l-1.447.977.085.1a2.548,2.548,0,0,1,.672-.3.7.7,0,0,1,.611.256l2.906,3.138q.311.342.183.476a1.686,1.686,0,0,1-.763.281l.1.1,3.187-.611-.1-.1A3.368,3.368,0,0,1,621.648,497.414Z" transform="translate(-284.695 -357.686)" fill="#001327"/>
        <path id="Path_3409" data-name="Path 3409" d="M628.138,491.768a4.439,4.439,0,0,0-2.442-.311,1.606,1.606,0,0,0-1.154.611,1.13,1.13,0,0,0,0,.958,3.584,3.584,0,0,0,.849,1.184,7.638,7.638,0,0,0,.611.611,7.433,7.433,0,0,0,.873.61,6.781,6.781,0,0,0,1.032.519,4.8,4.8,0,0,0,1.166.293,3.832,3.832,0,0,0,1.221,0c.781-.14,1.184-.482,1.221-1.02a2.585,2.585,0,0,0-1.007-1.832A6.754,6.754,0,0,0,628.138,491.768Zm1.99,4.237c-1,.183-2.21-.47-3.621-1.923s-1.624-2.271-.647-2.442a2.509,2.509,0,0,1,1.612.354,8.475,8.475,0,0,1,1.972,1.551c1.441,1.441,1.679,2.271.684,2.448Z" transform="translate(-288.089 -357.064)" fill="#001327"/>
        <path id="Path_3410" data-name="Path 3410" d="M637.3,490.1a4.525,4.525,0,0,0-2.442-.311,1.563,1.563,0,0,0-1.142.611,1.1,1.1,0,0,0,.043.946,3.665,3.665,0,0,0,.836,1.184,7.085,7.085,0,0,0,.665.58,7.909,7.909,0,0,0,.9.61,6.717,6.717,0,0,0,1.056.513,4.97,4.97,0,0,0,1.178.293,4.041,4.041,0,0,0,1.221,0c.781-.14,1.172-.482,1.184-1.014a2.747,2.747,0,0,0-1.081-1.832A7.2,7.2,0,0,0,637.3,490.1Zm2.155,4.2c-1,.183-2.241-.464-3.706-1.9s-1.71-2.253-.739-2.442a2.607,2.607,0,0,1,1.63.348,9.164,9.164,0,0,1,2.039,1.539C640.181,493.3,640.449,494.117,639.454,494.3Z" transform="translate(-291.669 -356.416)" fill="#001327"/>
        <path id="Path_3411" data-name="Path 3411" d="M646.439,488.455A4.666,4.666,0,0,0,644,488.15a1.5,1.5,0,0,0-1.123.611,1.093,1.093,0,0,0,.073.94,3.749,3.749,0,0,0,.885,1.172,7.681,7.681,0,0,0,.69.58,9.268,9.268,0,0,0,.916.611,7.581,7.581,0,0,0,1.087.507,5.076,5.076,0,0,0,1.221.287,4.036,4.036,0,0,0,1.221,0q1.172-.214,1.154-1.007a2.877,2.877,0,0,0-1.148-1.832A7.608,7.608,0,0,0,646.439,488.455Zm2.314,4.164c-.989.183-2.259-.458-3.785-1.887s-1.832-2.235-.836-2.406a2.717,2.717,0,0,1,1.655.342,9.343,9.343,0,0,1,2.1,1.526C649.449,491.624,649.748,492.442,648.753,492.619Z" transform="translate(-295.241 -355.779)" fill="#001327"/>
        <path id="Path_3412" data-name="Path 3412" d="M661.895,491.764a2.167,2.167,0,0,0-.977-.452,3.28,3.28,0,0,0-1.221,0l-1.52.226a2.037,2.037,0,0,1-1.093,0,.238.238,0,0,1-.049-.287.452.452,0,0,1,.25-.269h.232l.452-.055a1.221,1.221,0,0,0,.91-.519c.128-.256,0-.537-.336-.849a3.507,3.507,0,0,0-.855-.519l.934-.165-.3-.256-.861.153a3.325,3.325,0,0,1-.69.043h-.305a5.185,5.185,0,0,0-1.007.061,1.221,1.221,0,0,0-.971.556c-.128.275,0,.568.311.873a2.6,2.6,0,0,0,.83.482,5.5,5.5,0,0,0,1.221.232,3.821,3.821,0,0,0-.293.659.275.275,0,0,0,.11.269.827.827,0,0,0,.336.165,6.577,6.577,0,0,0,.678.092,1.584,1.584,0,0,0-.348.611.446.446,0,0,0,.171.434,2.081,2.081,0,0,0,1.123.379,5.629,5.629,0,0,0,1.63-.055,2.644,2.644,0,0,0,1.832-.91.611.611,0,0,0-.2-.9Zm-5.269-1.221a3.723,3.723,0,0,1-1.221-.727h0c-.22-.2-.317-.36-.293-.5s.159-.226.421-.275a1.833,1.833,0,0,1,.745.031,2.919,2.919,0,0,1,.745.269c.226.122.415.232.568.336a3.224,3.224,0,0,1,.36.269c.214.189.305.348.281.489s-.171.226-.433.275a2.284,2.284,0,0,1-1.185-.189Zm5.025,2a3.269,3.269,0,0,1-1.362.476,4.921,4.921,0,0,1-1.374.079,1.464,1.464,0,0,1-.873-.287.4.4,0,0,1-.153-.244,1.353,1.353,0,0,1,.043-.452,15.14,15.14,0,0,0,1.954-.25,5.948,5.948,0,0,1,1.185-.122.99.99,0,0,1,.61.208c.238.171.226.372-.031.562Z" transform="translate(-299.774 -355.98)" fill="#001327"/>
      </g>
    </g>
  </g>
</svg>
