<svg xmlns="http://www.w3.org/2000/svg" xmlns:xlink="http://www.w3.org/1999/xlink" width="458" height="458" viewBox="0 0 458 458">
  <defs>
    <linearGradient id="linear-gradient" x1="0.865" y1="0.178" x2="0.152" y2="0.822" gradientUnits="objectBoundingBox">
      <stop offset="0" stop-color="#fdb819"/>
      <stop offset="1" stop-color="#fff"/>
    </linearGradient>
  </defs>
  <g id="Group_2047" data-name="Group 2047" transform="translate(-419 -1109)">
    <circle id="Ellipse_8" data-name="Ellipse 8" cx="229" cy="229" r="229" transform="translate(419 1567) rotate(-90)" fill="url(#linear-gradient)"/>
    <g id="Group_2009" data-name="Group 2009" transform="translate(26.195 -23.859)">
      <g id="No_Buyers_Meetup" data-name="No Buyers Meetup" transform="translate(431.081 1183.857)">
        <g id="OBJECTS" transform="translate(15.724 37.002)">
          <g id="Group_1908" data-name="Group 1908">
            <g id="Group_1790" data-name="Group 1790" transform="translate(89.336 13.007)">
              <g id="Group_1776" data-name="Group 1776" transform="translate(3.489 249.32)">
                <g id="Group_1771" data-name="Group 1771" transform="translate(13.022 17.915)">
                  <path id="Path_3230" data-name="Path 3230" d="M250.748,653.11h-.1C250.689,653.2,250.748,653.11,250.748,653.11Z" transform="translate(-250.65 -653.11)" fill="#656565"/>
                </g>
                <g id="Group_1772" data-name="Group 1772" transform="translate(0.332 12.257)">
                  <path id="Path_3231" data-name="Path 3231" d="M272.227,641.62a45.183,45.183,0,0,1-12.267,3.516,41.3,41.3,0,0,1-5.766.419c-5.318,0-13.443-2.226-15.541-2.753-.108-.025-.236-.049-.379-.079-2.438-.443-10.41-.95-12.449-1.069-1.074.089-.941.167-.941.167l.325,5.456h12.365a6.687,6.687,0,0,1,.153-2.083c6.786.291,7.254,2.083,17.122,2.083a47.413,47.413,0,0,0,17.186-3.1C272.818,644.048,272.36,642.211,272.227,641.62Z" transform="translate(-224.879 -641.62)" fill="#999"/>
                </g>
                <g id="Group_1773" data-name="Group 1773" transform="translate(34.712 7.746)">
                  <path id="Path_3232" data-name="Path 3232" d="M294.875,637.109a9.993,9.993,0,0,1,.522,3.383,45.189,45.189,0,0,0,12.267-3.516c0-.01,0-.01-.01-.02-.133-.266-1.714-3.275-3.595-3.649-1.369-.276-6.082-.547-9.1-.847C294.762,633.942,294.526,636.316,294.875,637.109Z" transform="translate(-294.696 -632.46)" fill="#656565"/>
                </g>
                <g id="Group_1774" data-name="Group 1774" transform="translate(13.726 4.25)">
                  <path id="Path_3233" data-name="Path 3233" d="M266.1,631.141s-9.642-.921-10.883-.133a6.17,6.17,0,0,0-3.028,3.186c-.039.089-.074.182-.108.276.148.03.276.054.379.079,2.1.527,10.228,2.753,15.541,2.753a41.2,41.2,0,0,0,5.766-.419,10,10,0,0,0-.522-3.383c-.35-.793-.113-3.161.079-4.649a12.356,12.356,0,0,1-2.57-.4c-.364-.2-2.61-1.576-5.047-3.093a6.036,6.036,0,0,1,.98,2.108A28.619,28.619,0,0,1,266.1,631.141Z" transform="translate(-252.08 -625.36)" fill="#656565"/>
                </g>
                <g id="Group_1775" data-name="Group 1775">
                  <path id="Path_3234" data-name="Path 3234" d="M238.036,629.814a6.188,6.188,0,0,1,3.028-3.186c1.241-.788,10.883.133,10.883.133a28.554,28.554,0,0,0,.591-3.674,6.037,6.037,0,0,0-.98-2.108c-3.24-2.009-6.825-4.25-6.825-4.25s-5.771,4.654-8.263,4.85-10.819-3.019-10.819-3.019-1.507,5.51-1.443,6.756a22.843,22.843,0,0,0,.788,3.674l.483.03c2.044.123,10.011.63,12.449,1.069C237.962,630,238,629.908,238.036,629.814Z" transform="translate(-224.206 -616.73)" fill="#636363"/>
                </g>
              </g>
              <g id="Group_1779" data-name="Group 1779" transform="translate(0 133.872)">
                <g id="Group_1778" data-name="Group 1778">
                  <g id="Group_1777" data-name="Group 1777">
                    <path id="Path_3235" data-name="Path 3235" d="M220.385,502.094s.522.039,1.32.113c4.117.305,17.028,1.1,22.012-.566a4.473,4.473,0,0,0,1.507-.719c3.629-3.033-1.6-40.621-1.994-47.22a17.562,17.562,0,0,1,.094-2.31L254.2,386.78s-29.069-6.761-32.146-3.693c-3.043,3.068-4.929,28.891-4.929,30.068C217.125,415.435,222.709,414.179,220.385,502.094Z" transform="translate(-217.12 -382.288)" fill="#e6e6e6"/>
                  </g>
                </g>
              </g>
              <g id="Group_1782" data-name="Group 1782" transform="translate(2.231 32.91)">
                <g id="Group_1780" data-name="Group 1780">
                  <path id="Path_3236" data-name="Path 3236" d="M221.65,209.781c0-7.062,6.3-28.945,8.189-32s19.914,8.47,19.914,8.47,10.912,20.239,11.622,26.592c.522,4.7,8.539,45.708,12.675,66.74A9.837,9.837,0,0,1,263.916,291.3l-2.674-.128c.03-1.576.054-3.25.079-5.062.655-47.7-7.19-29.4-5.23-56.487S245.42,178.078,233,183.3s-.433,55.665-.433,55.665-2.615,9.9-2.615,18.525c0,5.781,1.369,22.115,2.27,32.279l-9.4-.453S221.65,216.838,221.65,209.781Z" transform="translate(-221.65 -177.262)" fill="#e6e6e6"/>
                </g>
                <g id="Group_1781" data-name="Group 1781" transform="translate(5.723 5.331)">
                  <path id="Path_3237" data-name="Path 3237" d="M238.472,244.463s-11.981-50.44.433-55.665,25.05,19.24,23.09,46.323,5.88,8.785,5.23,56.487c-.025,1.812-.049,3.486-.079,5.062l-29.019-1.4c-.9-10.164-2.27-26.5-2.27-32.279C235.857,254.361,238.472,244.463,238.472,244.463Z" transform="translate(-233.273 -188.087)" fill="#e6e6e6"/>
                </g>
              </g>
              <g id="Group_1789" data-name="Group 1789" transform="translate(8.496)">
                <g id="Group_1784" data-name="Group 1784" transform="translate(1.034 2.322)">
                  <g id="Group_1783" data-name="Group 1783">
                    <path id="Path_3238" data-name="Path 3238" d="M265.835,120.363c2.787,4.023,3.294,5.885,3.294,9.415s.941,4.708.941,4.708l2.822,5.176-3.531,1.177-.941,3.058h-2.59l1.413,1.413-.941,2.822s1.881,3.767-.473,3.294a50.483,50.483,0,0,0-8-.236l-2.117,3.058L238.3,143.892l2.118-4.235s-9.179-11.06.473-20.475S265.363,119.679,265.835,120.363Z" transform="translate(-236.473 -115.146)" fill="#d8d8d8"/>
                  </g>
                </g>
                <g id="Group_1786" data-name="Group 1786">
                  <g id="Group_1785" data-name="Group 1785">
                    <path id="Path_3239" data-name="Path 3239" d="M261.239,122.909s9.415,3.058,8.238,0-4.471-12.71-18.353-12.473-17.181,11.3-16.708,17.181a57.12,57.12,0,0,0,1.881,10.592l10.356,1.65.236-4.471s-3.767-1.881-1.881-7.293,6.589-2.354,6.589.941a10.413,10.413,0,0,0,1.177,5.176Z" transform="translate(-234.373 -110.431)" fill="#727272"/>
                  </g>
                </g>
                <g id="Group_1788" data-name="Group 1788" transform="translate(1.146 28.787)">
                  <g id="Group_1787" data-name="Group 1787">
                    <path id="Path_3240" data-name="Path 3240" d="M238.709,168.89l-2.009,6.791s15.275,3.314,17.486,5.683,7.106,8.844,7.106,8.844-.315-7.421-4.422-10.656S238.709,168.89,238.709,168.89Z" transform="translate(-236.7 -168.89)" fill="#eaeaea"/>
                  </g>
                </g>
              </g>
            </g>
            <g id="Group_1791" data-name="Group 1791" transform="translate(187.065 53.819)">
              <path id="Path_3241" data-name="Path 3241" d="M445.825,193.31s-5.525,7.441-7.259,10.366c-2.265,3.821-22.987,27.552-22.987,27.552l.566,5.663,6.638,4.008s22.435-18.821,23.568-25.617Z" transform="translate(-415.58 -193.31)" fill="#efefef"/>
            </g>
            <g id="Group_1834" data-name="Group 1834">
              <g id="Group_1792" data-name="Group 1792" transform="translate(22.51)">
                <path id="Path_3242" data-name="Path 3242" d="M91.951,84.93S102.405,81,108,89.47s3.092,22.046,2.462,25.9,3.452,4.673,2.827,6.771-2.388,6.195-16.2,5.555-15.349-4.55-15.659-6.589,2.832-3.294,2.6-6.279S77.985,94.518,91.951,84.93Z" transform="translate(-81.415 -84.018)" fill="#e2e2e2"/>
              </g>
              <g id="Group_1799" data-name="Group 1799" transform="translate(35.504 177.076)">
                <g id="Group_1793" data-name="Group 1793" transform="translate(1.658 0)">
                  <path id="Path_3243" data-name="Path 3243" d="M111.3,520.12c-.039.167-.074.384-.123.694-.271,1.881,11.149,7.062,11.149,7.062l-2.044-3.6s1.856-.394,3.674-.714l-2.964-3.447s0-2.413,1-11.887c.542-5.151,6.766-27.424,7.475-30.954s-.473-12.71.7-15.773c1.014-2.644.8-13.576.724-16.477-.01-.453-.02-.7-.02-.7l-15.064-.7c-1.65,12.71.473,21.185.473,21.185a74.758,74.758,0,0,0-4.471,18.594c-.877,10.08.7,24.479.7,27.306a24.779,24.779,0,0,1-1.054,8.238,11.479,11.479,0,0,0-.281,1.271A1.089,1.089,0,0,1,111.3,520.12Z" transform="translate(-111.17 -443.61)" fill="#e1e1e1"/>
                </g>
                <g id="Group_1794" data-name="Group 1794" transform="translate(1.548 76.51)">
                  <path id="Path_3244" data-name="Path 3244" d="M111.691,603.678a109.594,109.594,0,0,0,10.592,5.648c3.531,1.413,5.885-1.881,5.885-1.881l-4.333-5.028c-1.817.32-3.674.714-3.674.714l2.044,3.6s-11.42-5.181-11.149-7.062c.049-.31.084-.527.123-.694a1.094,1.094,0,0,0-.123.084A6.894,6.894,0,0,0,111.691,603.678Z" transform="translate(-110.946 -598.98)" fill="#8b8b8b"/>
                </g>
                <g id="Group_1798" data-name="Group 1798" transform="translate(0 76.5)">
                  <g id="Group_1795" data-name="Group 1795" transform="translate(11.896 13.094)">
                    <path id="Path_3245" data-name="Path 3245" d="M133.265,625.717c2.2-.236,14.281.158,14.281.158s-.02-.128-.059-.325c.182.236.32.492.217.64-.236.315-.236.394-2.748.552a115.59,115.59,0,0,1-12.163-.158,4.363,4.363,0,0,1-.832-.985A2.89,2.89,0,0,0,133.265,625.717Z" transform="translate(-131.96 -625.55)" fill="#4c4c4c"/>
                  </g>
                  <g id="Group_1796" data-name="Group 1796" transform="translate(0 8.362)">
                    <path id="Path_3246" data-name="Path 3246" d="M108.033,615.94a1.556,1.556,0,0,0,.34.507c1.014,1.015,5.968,1.162,8.081,1.916l-.079,1.379-8.568-.552A17.671,17.671,0,0,1,108.033,615.94Z" transform="translate(-107.803 -615.94)" fill="#4c4c4c"/>
                  </g>
                  <g id="Group_1797" data-name="Group 1797" transform="translate(0.011)">
                    <path id="Path_3247" data-name="Path 3247" d="M108.049,607.322a1.585,1.585,0,0,0,.34.507c1.009,1.009,5.968,1.157,8.081,1.911a3.318,3.318,0,0,1,.473.207c1.3.7,1.714,1.768,2.777,2.157a2.949,2.949,0,0,0,1.3.113c2.2-.236,14.286.158,14.286.158s-.02-.133-.059-.32c-.133-.67-.527-2.137-1.433-2.507,0,0-2.91-2.2-4.087-3.373s-3.211-3.767-4.077-4.087a12.482,12.482,0,0,0-3.388.31c-1.817.32-3.674.714-3.674.714l2.044,3.6s-11.42-5.18-11.149-7.062c.049-.31.084-.527.123-.694a1.107,1.107,0,0,0-.123.084,3.714,3.714,0,0,0-1.093,2.654C108.113,603.953,107.492,606.081,108.049,607.322Z" transform="translate(-107.825 -598.96)" fill="#797979"/>
                  </g>
                </g>
              </g>
              <g id="Group_1804" data-name="Group 1804" transform="translate(0 166.06)">
                <g id="Group_1800" data-name="Group 1800" transform="translate(3.854)">
                  <path id="Path_3248" data-name="Path 3248" d="M74.76,425.485s-5.023,13.182-5.806,18.673a39.984,39.984,0,0,1-3.137,11.3c-1.256,2.984-1.512,16.733-3.235,20.5s-8.435,21.421-8.12,24.243.217,1.822.059,3.235-1,2.236-.473,4.747c.359,1.719-.63,5.491-1.728,6.589s-8.79-.749-8.79-.749,3.939-7.746,3.467-9,.645-1.9.749-2.295c.542-2.034-1.118-21.889,2.058-41.31A99.914,99.914,0,0,1,53.256,447.6l7.219-26.365,13.808,4.077Z" transform="translate(-43.53 -421.24)" fill="#e1e1e1"/>
                </g>
                <g id="Group_1803" data-name="Group 1803" transform="translate(0 88.201)">
                  <g id="Group_1801" data-name="Group 1801" transform="translate(0 10.085)">
                    <path id="Path_3249" data-name="Path 3249" d="M35.987,620.83c1.62,1.97,5.372,2.713,6.943,2.551,1.709-.177,5.412-.236,6.042-1.334a2.2,2.2,0,0,0,.212-.616c.222.709.374,1.438.1,1.556-.552.236-4.865,1.65-6.825,1.413s-6.983-1.413-6.746-2.511C35.8,621.51,35.894,621.15,35.987,620.83Z" transform="translate(-35.704 -620.83)" fill="#575757"/>
                  </g>
                  <g id="Group_1802" data-name="Group 1802" transform="translate(0.064)">
                    <path id="Path_3250" data-name="Path 3250" d="M43,612.982c-1.571.163-5.323-.581-6.943-2.551-.01-.015-.03-.025-.039-.039-.931-1.162,2.039-5.9,2.039-5.9s5.333-3.511,7.219-3.984,2.354.157,4.235,1.881,0,4.393,0,4.393l-.315.862a11.709,11.709,0,0,1,.054,3.388,2.2,2.2,0,0,1-.212.616C48.413,612.75,44.71,612.809,43,612.982Z" transform="translate(-35.833 -600.351)" fill="#797979"/>
                  </g>
                </g>
              </g>
              <g id="Group_1805" data-name="Group 1805" transform="translate(11.974 104.606)">
                <path id="Path_3251" data-name="Path 3251" d="M97.849,298.746s9.652,4.471,10.829,13.182,0,67.557,0,67.557S92.831,381.136,85.1,380.9s-25.08-1.881-25.08-1.881l3.7-69.207S72.666,289.8,97.849,298.746Z" transform="translate(-60.02 -296.443)" fill="#797979"/>
              </g>
              <g id="Group_1806" data-name="Group 1806" transform="translate(11.122 42.488)">
                <path id="Path_3252" data-name="Path 3252" d="M73.59,170.3l-15.3,6.357,5.1,22.125s4.629,12.789,4,19.85-3.767,13.576-4.156,16.635-1.177,12.163-1.177,12.163l23.3-.7,1.8-35.623s-9.494-25.656-10.12-28.719S73.59,170.3,73.59,170.3Z" transform="translate(-58.29 -170.3)" fill="#727272"/>
              </g>
              <g id="Group_1807" data-name="Group 1807" transform="translate(36.237 42.488)">
                <path id="Path_3253" data-name="Path 3253" d="M122.866,170.3l15.3,6.357-5.1,22.125s-4.629,12.789-4,19.85,3.767,13.576,4.156,16.635,1.177,12.163,1.177,12.163l-23.3-.7-1.8-35.623s9.494-25.656,10.12-28.719S122.866,170.3,122.866,170.3Z" transform="translate(-109.29 -170.3)" fill="#727272"/>
              </g>
              <g id="Group_1808" data-name="Group 1808" transform="translate(37.448 82.898)">
                <path id="Path_3254" data-name="Path 3254" d="M111.75,253.537a1.177,1.177,0,1,0,1.177-1.177A1.177,1.177,0,0,0,111.75,253.537Z" transform="translate(-111.75 -252.36)" fill="#e1e1e1"/>
              </g>
              <g id="Group_1809" data-name="Group 1809" transform="translate(37.33 95.081)">
                <path id="Path_3255" data-name="Path 3255" d="M111.51,278.277a1.177,1.177,0,1,0,1.177-1.177A1.177,1.177,0,0,0,111.51,278.277Z" transform="translate(-111.51 -277.1)" fill="#e1e1e1"/>
              </g>
              <g id="Group_1821" data-name="Group 1821" transform="translate(23.443 27.346)">
                <g id="Group_1810" data-name="Group 1810" transform="translate(14.748 20.328)">
                  <path id="Path_3256" data-name="Path 3256" d="M113.26,181.017q3.9,0,7.805-.187c-1.5,6.5-5.176,19.712-7.564,28.182-.079-.281-.158-.566-.241-.852Z" transform="translate(-113.26 -180.83)" fill="#b4b4b4"/>
                </g>
                <g id="Group_1811" data-name="Group 1811" transform="translate(14.748)">
                  <path id="Path_3257" data-name="Path 3257" d="M121.065,159.883c-2.6.118-5.2.187-7.805.187V141.121l6.279-1.571s-.473,10.2,1.1,13.182a5.488,5.488,0,0,0,1.3,1.5,19.331,19.331,0,0,1-.276,2.812C121.548,157.716,121.341,158.691,121.065,159.883Z" transform="translate(-113.26 -139.55)" fill="#d4d4d4"/>
                </g>
                <g id="Group_1812" data-name="Group 1812" transform="translate(6.471)">
                  <path id="Path_3258" data-name="Path 3258" d="M97.4,159.907c-.315-1.344-.552-2.442-.67-3.171a18.634,18.634,0,0,1-.276-2.851,4.938,4.938,0,0,0,.906-1.152c1.571-2.984,1.1-13.182,1.1-13.182l6.279,1.571V160.07Q101.062,160.062,97.4,159.907Z" transform="translate(-96.45 -139.55)" fill="#d4d4d4"/>
                </g>
                <g id="Group_1813" data-name="Group 1813" transform="translate(7.416 20.357)">
                  <path id="Path_3259" data-name="Path 3259" d="M98.37,180.89q3.664.163,7.332.163V208.2C103.353,199.859,99.887,187.361,98.37,180.89Z" transform="translate(-98.37 -180.89)" fill="#b4b4b4"/>
                </g>
                <g id="Group_1814" data-name="Group 1814" transform="translate(14.748 47.663)">
                  <path id="Path_3260" data-name="Path 3260" d="M113.26,236.34c.084.291.163.576.241.852-.084.291-.163.571-.241.852Z" transform="translate(-113.26 -236.34)" fill="#e4e4e4"/>
                </g>
                <g id="Group_1815" data-name="Group 1815" transform="translate(0 10.781)">
                  <path id="Path_3261" data-name="Path 3261" d="M90.726,171.02c-.315-1.344-.552-2.442-.67-3.171A18.631,18.631,0,0,1,89.781,165c-.025-3.24,1.374-2.876,1.374-2.876s-1.571-1.413-1.881-.158-5.023,4.393-5.023,4.393l-.34,2.211-.305,1.994-.3,1.921,3.531.315-3.028,2.088-.5.345s4.235,12.4,7.613,19.146a42.507,42.507,0,0,0,6.224,8.888c.054-.2.113-.394.172-.606.227-.788.473-1.669.744-2.62v-1.7C95.71,189.989,92.243,177.491,90.726,171.02Z" transform="translate(-83.31 -161.444)" fill="gray"/>
                </g>
                <g id="Group_1816" data-name="Group 1816" transform="translate(12.789 52.592)">
                  <path id="Path_3262" data-name="Path 3262" d="M109.28,250.014s.4-1.4,1.049-3.664c.448.507.877.965,1.261,1.369C110.23,249.157,109.28,250.014,109.28,250.014Z" transform="translate(-109.28 -246.35)" fill="#e4e4e4"/>
                </g>
                <g id="Group_1817" data-name="Group 1817" transform="translate(14.99 11.092)">
                  <path id="Path_3263" data-name="Path 3263" d="M125.12,173.423l3.531-.315-.35-2.265-.276-1.8-.315-2.058s-4.708-3.137-5.023-4.393-1.881.158-1.881.158,1.408-.364,1.374,2.915a19.328,19.328,0,0,1-.276,2.812c-.108.665-.315,1.645-.591,2.832-1.5,6.5-5.176,19.712-7.564,28.182q.436,1.551.808,2.846c.143.5.276.965.394,1.394A42.615,42.615,0,0,0,121.043,195c3.373-6.746,7.613-19.146,7.613-19.146l-.911-.625Z" transform="translate(-113.75 -162.074)" fill="#797979"/>
                </g>
                <g id="Group_1818" data-name="Group 1818" transform="translate(13.828 51.361)">
                  <path id="Path_3264" data-name="Path 3264" d="M112.311,246l1.044-2.152c.143.5.276.965.394,1.394-.389.438-.753.837-1.1,1.206-.384-.4-.808-.862-1.261-1.369.054-.2.113-.394.172-.606Z" transform="translate(-111.39 -243.85)" fill="#e4e4e4"/>
                </g>
                <g id="Group_1819" data-name="Group 1819" transform="translate(14.753 48.515)">
                  <path id="Path_3265" data-name="Path 3265" d="M113.506,238.07q.436,1.551.808,2.846l-1.044,2.152v-4.146C113.344,238.641,113.423,238.361,113.506,238.07Z" transform="translate(-113.27 -238.07)" fill="#e4e4e4"/>
                </g>
                <g id="Group_1820" data-name="Group 1820" transform="translate(14.005 49.367)">
                  <path id="Path_3266" data-name="Path 3266" d="M112.494,243.946l-.744-1.527c.227-.788.473-1.669.744-2.62Z" transform="translate(-111.75 -239.8)" fill="#e4e4e4"/>
                </g>
              </g>
              <g id="Group_1826" data-name="Group 1826" transform="translate(4.223 48.139)">
                <g id="Group_1822" data-name="Group 1822" transform="translate(19.821 41.091)">
                  <path id="Path_3267" data-name="Path 3267" d="M84.786,271.912l3.363-2.674,5.978-1.719,3.235.158s-.315,1.5-1.231,1.7-2.423.483-2.423.483l-2.024,1.27,3.294-.163,2.27-1.4,1.3-1.817s.862-2.083,1.522-2.364a1.6,1.6,0,0,1,1.093-.123l-.488,1.413s.847.01.886.527a55.078,55.078,0,0,1-2.206,5.678l-.635.6a3.154,3.154,0,0,1-.522,1l-.458.68-3.989,2.226-9.228.2Z" transform="translate(-84.53 -265.22)" fill="#e2e2e2"/>
                </g>
                <g id="Group_1823" data-name="Group 1823" transform="translate(22.824 30.051)">
                  <path id="Path_3268" data-name="Path 3268" d="M109.293,254.49l-4.594-.453L98.3,251l-2.827-2.438s1.157-.872,2.1-.369,2.467,1.384,2.467,1.384l2.571.522-3.068-2.246-2.866-.6-2.241.394s-1.994.906-2.753.64a2.227,2.227,0,0,1-1.059-.694l1.266-.684s-.758-.616-.492-1.024,5.3-2.58,5.3-2.58l.916.02a2.785,2.785,0,0,1,1.049-.359l.808-.167,4.9,1.231,8.45,6.476Z" transform="translate(-90.63 -242.8)" fill="#e2e2e2"/>
                </g>
                <g id="Group_1824" data-name="Group 1824" transform="translate(40.262)">
                  <path id="Path_3269" data-name="Path 3269" d="M147.077,181.778c1.856-.153,2.708,6.983,2.827,13.222s2.117,22.618,3.649,27.562a7.549,7.549,0,0,1-5.161,9.607c-7.6,1.591-22.352-8.14-22.352-8.14l6.677-7.9,9.883,2.551-2.472-8.844S143.782,182.048,147.077,181.778Z" transform="translate(-126.04 -181.775)" fill="#797979"/>
                </g>
                <g id="Group_1825" data-name="Group 1825" transform="translate(0 0.532)">
                  <path id="Path_3270" data-name="Path 3270" d="M51.15,182.858c-1.852-.153-2.708,6.983-2.827,13.222s-2.117,21.091-3.649,26.035a7.861,7.861,0,0,0,4.732,9.839c5.087,1.714,17.693,3.314,17.693,3.314l-.675-7.638-10.8-9.4,2.472-7.318S54.444,183.128,51.15,182.858Z" transform="translate(-44.28 -182.855)" fill="#797979"/>
                </g>
              </g>
              <g id="Group_1831" data-name="Group 1831" transform="translate(25.123 1.675)">
                <g id="Group_1827" data-name="Group 1827" transform="translate(1.457)">
                  <path id="Path_3271" data-name="Path 3271" d="M89.68,99.032c0,6.412,2.2,20.81,11.144,20.805,10.839,0,12.084-14.394,12.084-20.805a11.614,11.614,0,0,0-23.228,0Z" transform="translate(-89.68 -87.42)" fill="#dfdfdf"/>
                </g>
                <g id="Group_1830" data-name="Group 1830" transform="translate(0 12.426)">
                  <g id="Group_1828" data-name="Group 1828" transform="translate(0 0)">
                    <path id="Path_3272" data-name="Path 3272" d="M90.966,116.389,88.3,123.544c-1.256.473-1.413-6.84-1.571-9.977S90.966,116.389,90.966,116.389Z" transform="translate(-86.722 -112.653)" fill="#dfdfdf"/>
                  </g>
                  <g id="Group_1829" data-name="Group 1829" transform="translate(21.893)">
                    <path id="Path_3273" data-name="Path 3273" d="M135.42,113.568c-.158,3.137-.315,10.449-1.571,9.977l-2.669-7.155S135.577,110.426,135.42,113.568Z" transform="translate(-131.18 -112.653)" fill="#dfdfdf"/>
                  </g>
                </g>
              </g>
              <g id="Group_1832" data-name="Group 1832" transform="translate(33.036 0.939)">
                <path id="Path_3274" data-name="Path 3274" d="M102.859,87.395s-.689,1.32,2.295,3.358,2.423-1.256,9.415,7.062c2.457,2.925,5.18,19.082,2.984,22.376s-2.31-.783-2.31-.783,1.211,6.53,4.506,6.121,7.283-1.315,5.491-15.517-9.031-23.337-16.245-23.962S102.859,87.395,102.859,87.395Z" transform="translate(-102.79 -85.925)" fill="#e2e2e2"/>
              </g>
              <g id="Group_1833" data-name="Group 1833" transform="translate(21.651 2.899)">
                <path id="Path_3275" data-name="Path 3275" d="M92.543,90.262a3.546,3.546,0,0,1,.561,4.082c-1.256,2.2-5.171,14.059-5.176,16.1s.31,14.438.31,14.438-6.352,5.491-8.076-1.728.832-36.815,11.907-32.89Z" transform="translate(-79.671 -89.906)" fill="#e2e2e2"/>
              </g>
            </g>
            <g id="Group_1863" data-name="Group 1863" transform="translate(196.732 10.335)">
              <g id="Group_1841" data-name="Group 1841" transform="translate(0 105.881)">
                <g id="Group_1839" data-name="Group 1839" transform="translate(0 72.506)">
                  <g id="Group_1835" data-name="Group 1835" transform="translate(22.92 69.192)">
                    <path id="Path_3276" data-name="Path 3276" d="M493.5,624.143c-1.413,1.133-7.288.039-10.139-.581a8.681,8.681,0,0,1-.625,1.339,8.921,8.921,0,0,0-.945,4.535,2.914,2.914,0,0,0,.945,1.891s5.1.926,7.746-.67,3.777-2.162,3.777-2.162,1.891-12.276,2.644-14.167a23.882,23.882,0,0,1,1.7-3.4,31.477,31.477,0,0,1-.576-3.161,21.4,21.4,0,0,1-1.408,2.876C494.443,614.418,495.389,622.632,493.5,624.143Z" transform="translate(-481.756 -607.77)" fill="#595959"/>
                  </g>
                  <g id="Group_1836" data-name="Group 1836" transform="translate(24.528 1.157)">
                    <path id="Path_3277" data-name="Path 3277" d="M508,492.631a99.07,99.07,0,0,0-3.777-13.788c-.187-1.133-.187-8.687-.187-8.687l-14.566-.547c-.133,2.319-.758,14.143.507,15.847,1.4,1.891,2.728,1.891,3.1,7.933s-1.325,37.4-1.325,37.4a130.6,130.6,0,0,0-4.53,14.542,65.327,65.327,0,0,1-2.206,8.105c2.851.62,8.726,1.714,10.139.581,1.891-1.512.945-9.726,3.117-13.5a22,22,0,0,0,1.408-2.876c-.074-.546-.138-1.138-.182-1.748C499.31,533.242,509.888,502.076,508,492.631Z" transform="translate(-485.02 -469.61)" fill="#a7a7a7"/>
                  </g>
                  <g id="Group_1837" data-name="Group 1837" transform="translate(2.452)">
                    <path id="Path_3278" data-name="Path 3278" d="M451.059,551.693c.379-2.078,1.133-6.234,3.59-9.066,1.906-2.2,3.693-4.062,4.486-7.342-.2-.591-.33-.97-.33-.97a16.064,16.064,0,0,1-3.59-5.333c-.945-2.787,2.832-25.075,2.832-29.044s-3.211-16.433-3.211-16.433l3.211-16.245H441.8s-2.078,13.6-1.512,15.108A31.986,31.986,0,0,1,442.367,492c0,3.516,3.57,46.259,3.59,46.466l-1.7,13.409a7.135,7.135,0,0,1-1.211,2.078h3.669S450.684,553.771,451.059,551.693Z" transform="translate(-440.191 -467.26)" fill="#a7a7a7"/>
                  </g>
                  <g id="Group_1838" data-name="Group 1838" transform="translate(0 68.025)">
                    <path id="Path_3279" data-name="Path 3279" d="M456.607,605.4c-.8,3.28-2.58,5.141-4.486,7.342-2.457,2.832-3.211,6.988-3.59,9.066s-4.343,2.265-4.343,2.265h-3.669a5.287,5.287,0,0,1-3.132,1.891c-3.211.566-2.078,3.211-1.512,3.4s11.523,0,11.523,0,3.211-9.253,4.722-10.957a44.653,44.653,0,0,1,3.211-3.211l-.945,13.409.945-.566,1.512-14.355s1.325.33,1.325-1.817A29.056,29.056,0,0,0,456.607,605.4Z" transform="translate(-435.211 -605.4)" fill="#595959"/>
                  </g>
                </g>
                <g id="Group_1840" data-name="Group 1840" transform="translate(2.457)">
                  <path id="Path_3280" data-name="Path 3280" d="M487.075,342.8a57.322,57.322,0,0,1-3.024-16.117l-2.014-6.658s-15.615,6.4-21.657,6.658a59.178,59.178,0,0,1-10.71-.5L448.3,351.107c-1.261,6.042-8.1,46.087-8.1,46.087s13.887,2.265,24.213,1.261,23.671-2.772,23.671-2.772S489.847,350.1,487.075,342.8Z" transform="translate(-440.2 -320.02)" fill="#e4e4e4"/>
                </g>
              </g>
              <g id="Group_1859" data-name="Group 1859" transform="translate(8.587 5.665)">
                <g id="Group_1858" data-name="Group 1858">
                  <g id="Group_1854" data-name="Group 1854">
                    <g id="Group_1842" data-name="Group 1842" transform="translate(17.225 18.299)">
                      <path id="Path_3281" data-name="Path 3281" d="M487.63,160.978s4.215,5.343,4.235,8.613a28.248,28.248,0,0,0,.891,6.431s.655,3.925,2.836,2.4,9.814-11.774,9.814-11.774l-5.343-12.976Z" transform="translate(-487.63 -153.67)" fill="#d8d8d8"/>
                    </g>
                    <g id="Group_1843" data-name="Group 1843" transform="translate(9.131)">
                      <path id="Path_3282" data-name="Path 3282" d="M496.965,130.7c-.108,2.186-1.591,3.014-2.049,3.954a3.115,3.115,0,0,1-1.886,1.261,8.9,8.9,0,0,0-2.437,3.1c-1.029,2.088-1.6,1.768-3.989,2.915-.064.03-.128.064-.2.089-2.634,1.093-10.775,1.861-12.109,1.157-1.364-.734-.108-2.708-.108-2.708a3.52,3.52,0,0,0-.684-2.078c-.685-.724.458-.625.458-.625s0-.414-.576-.734.345-1.551.345-1.551l.118-.941-1.138.207s-1.138-.305-1.482-.931,1.709-2.915,3.068-4.895-.226-2.285-.566-3.432,1.822-6.229,3.422-8.209,1.482.517,1.482.517l.793,1.561s.65.345,1.605.857c2.132,1.157,5.752,3.2,6.933,4.343,1.714,1.66,1.94,6.544,2.393,7.278s1.256-1.354,1.256-1.354,1.94-2.393,3.186-2.6S497.009,129.806,496.965,130.7Z" transform="translate(-471.192 -116.51)" fill="#dfdfdf"/>
                    </g>
                    <g id="Group_1844" data-name="Group 1844" transform="translate(9.979 36.839)">
                      <path id="Path_3283" data-name="Path 3283" d="M485.4,197.535l-1-6.215a29.366,29.366,0,0,0-4.89,6.569c-1.743,3.462-6.215,16.767-6.54,24.07s.98,7.958.98,7.958Z" transform="translate(-472.914 -191.32)" fill="#fafafa"/>
                    </g>
                    <g id="Group_1845" data-name="Group 1845" transform="translate(10.4 30.516)">
                      <path id="Path_3284" data-name="Path 3284" d="M495.644,178.48l5.235,4.033s-8.613,9.159-12.212,15.7-14.9,26.385-14.9,26.385l12.06-37.726Z" transform="translate(-473.77 -178.48)" fill="#fbfbfb"/>
                    </g>
                    <g id="Group_1846" data-name="Group 1846" transform="translate(22.301 27.458)">
                      <path id="Path_3285" data-name="Path 3285" d="M498.1,183.719s7.849-7.416,8.943-9.051,1.635-2.4,1.635-2.4l2.615,4.9L498.643,189.6S497.535,189.121,498.1,183.719Z" transform="translate(-497.938 -172.27)" fill="#fdfdfd"/>
                    </g>
                    <g id="Group_1847" data-name="Group 1847" transform="translate(18.86 33.353)">
                      <path id="Path_3286" data-name="Path 3286" d="M490.95,190.341l1.477,5.6,2.122-5.707-1.088-5.993Z" transform="translate(-490.95 -184.24)" fill="#fdfdfd"/>
                    </g>
                    <g id="Group_1850" data-name="Group 1850" transform="translate(9.277 31.279)">
                      <g id="Group_1848" data-name="Group 1848">
                        <path id="Path_3287" data-name="Path 3287" d="M488.158,215.027c.872-4.141,15.591-15.265,19.082-21.48a9.255,9.255,0,0,0,1.162-3.792l-10.322-9.726-3.349,4.171-19,35.194s-2.615,24.967-3.708,27.478-.438,19.3,1.31,21.042c.941.941,13.69,3.92,20.7,3.649-.483-9.391-1.837-27.99-5.22-32.983C484.234,231.819,487.287,219.169,488.158,215.027Z" transform="translate(-471.488 -180.03)" fill="#5c5c5c"/>
                      </g>
                      <g id="Group_1849" data-name="Group 1849" transform="translate(14.864 9.721)">
                        <path id="Path_3288" data-name="Path 3288" d="M515.8,247.615c-.655-2.836,6.761-14.394,6.761-14.394l2.728-31.979-1.566-1.472a9.23,9.23,0,0,1-1.162,3.792c-3.491,6.215-18.21,17.334-19.082,21.48s-3.925,16.792.655,23.553c3.383,4.993,4.742,23.588,5.22,32.983,5.973-.227,11.351-.6,11.351-.6s2.182-10.031,1.852-14.827S516.455,250.451,515.8,247.615Z" transform="translate(-501.674 -199.77)" fill="#575757"/>
                      </g>
                    </g>
                    <g id="Group_1851" data-name="Group 1851" transform="translate(13.517 29.97)">
                      <path id="Path_3289" data-name="Path 3289" d="M497.98,182.058l4.471-4.688,4.141,3.6-4.9,8.913-3.161.793.98,1.2L480.1,218.045s6.766-17.984,10.9-24.641S497.98,182.058,497.98,182.058Z" transform="translate(-480.1 -177.37)" fill="#f6f6f6"/>
                    </g>
                    <g id="Group_1852" data-name="Group 1852" transform="translate(0 35.524)">
                      <path id="Path_3290" data-name="Path 3290" d="M473.13,188.65s-6.3,14.62-6.958,20.072.217,15.482.217,17.772-.591,17.4-3.5,26.715c-3.27,10.469-5.988,19.954-5.988,19.954H452.65s2.836-22.352,6-29.984,2.073-7.17,2.182-12.089-3.161-12.661-2.4-15.93,3.876-10.139,4.23-12.646,1.989-11.557,1.989-11.557Z" transform="translate(-452.65 -188.65)" fill="#5c5c5c"/>
                    </g>
                    <g id="Group_1853" data-name="Group 1853" transform="translate(10.399 33.678)">
                      <path id="Path_3291" data-name="Path 3291" d="M484.41,184.9l-5.89,5.781,1.635.655-2.507,1.635s-4.471,10.578-3.816,14.064,3.27,17.555,3.27,17.555-.655-15.049.438-18.1S484.41,184.9,484.41,184.9Z" transform="translate(-473.767 -184.9)" fill="#f6f6f6"/>
                    </g>
                  </g>
                  <g id="Group_1855" data-name="Group 1855" transform="translate(35.948 131.515)">
                    <path id="Path_3292" data-name="Path 3292" d="M531.032,383.58l-5.382,8.105.108,5.525,1.2,2.763s1.453-1.6,1.379-2.763,0-4.215,0-4.215h1.349s-1.62,7.126-.286,7.126a2.882,2.882,0,0,0,2.083-.872s-.458,1.019.995.581,1.453-.729,1.453-.729.291.438,1.453.291,1.31-.729,1.31-.729,0,1.162.872.581,2.762-4.654,2.762-4.654l-1.019-10.7Z" transform="translate(-525.65 -383.58)" fill="#dbdbdb"/>
                  </g>
                  <g id="Group_1856" data-name="Group 1856" transform="translate(40.739 129.008)">
                    <path id="Path_3293" data-name="Path 3293" d="M535.961,378.49l-.581,2.905,10.031,1.748V379.8Z" transform="translate(-535.38 -378.49)" fill="#fff"/>
                  </g>
                  <g id="Group_1857" data-name="Group 1857" transform="translate(38.504 42.482)">
                    <path id="Path_3294" data-name="Path 3294" d="M533.657,251.092s-3.708-19.175-2.615-25.932,5.668-22.519,9.051-22.381,4.471,4.718,4.471,8.864.438,52.553.872,56.044-1.743,25.178-1.743,25.178l-11.341-2.5Z" transform="translate(-530.841 -202.778)" fill="#f6f6f6"/>
                  </g>
                </g>
              </g>
              <g id="Group_1860" data-name="Group 1860" transform="translate(19.794 2.13)">
                <path id="Path_3295" data-name="Path 3295" d="M485.46,112.881s-.753,3.191-3.462,3.644-4.944,5.161-5.171,6.8-3.743-6.53,1.221-11.346S487.5,109.809,485.46,112.881Z" transform="translate(-475.408 -109.332)" fill="#575757"/>
              </g>
              <g id="Group_1861" data-name="Group 1861" transform="translate(27.448)">
                <path id="Path_3296" data-name="Path 3296" d="M514.119,126.675s-9.834,7.48-9.031,10.794c.409,1.659-1.719-2.822-2.142-5.53.074-.03-1.2-2.964-1.2-2.964s2.748.773,3.2-.158,1.94-1.768,2.049-3.954c.044-.891-.911-3.014-2.167-2.807s-3.186,2.6-3.186,2.6-.793,2.078-1.256,1.354-.68-5.619-2.393-7.278c-1.182-1.147-4.8-3.186-6.934-4.343l-.108-5.471c0-.054.089-1.113,7.249-3.161,7.342-2.1,13.818.3,16.526,6.165S514.119,126.675,514.119,126.675Z" transform="translate(-490.95 -105.006)" fill="#575757"/>
              </g>
              <g id="Group_1862" data-name="Group 1862" transform="translate(26.97 4.24)">
                <path id="Path_3297" data-name="Path 3297" d="M490.9,115.844s-3.112,2.236,2.108,5.269,5.3,4.476,5.353,6.924a22.539,22.539,0,0,1-1.142,6.018s7.677-7.677,6.471-11.74S497.672,109.521,490.9,115.844Z" transform="translate(-489.98 -113.616)" fill="#616161"/>
              </g>
            </g>
            <g id="Group_1868" data-name="Group 1868" transform="translate(171.279 88.758)">
              <g id="Group_1864" data-name="Group 1864" transform="translate(0 2.093)">
                <path id="Path_3298" data-name="Path 3298" d="M383.585,275.02s1.413,7.007,3.964,7.076c.034,0,.064-.015.1-.015L385,268.51C382.95,268.579,383.654,274.385,383.585,275.02Z" transform="translate(-383.523 -268.51)" fill="#595959"/>
              </g>
              <g id="Group_1865" data-name="Group 1865" transform="translate(1.481 2.091)">
                <path id="Path_3299" data-name="Path 3299" d="M390.14,272.684c-.709-2.053-1.556-4.245-3.61-4.176l2.644,13.572C391.6,281.952,390.834,274.708,390.14,272.684Z" transform="translate(-386.53 -268.507)" fill="#efefef"/>
              </g>
              <g id="Group_1867" data-name="Group 1867" transform="translate(1.476)">
                <g id="Group_1866" data-name="Group 1866">
                  <path id="Path_3300" data-name="Path 3300" d="M404.922,264.31c-3.112-.423-18.4,2.044-18.4,2.044,2.054-.069,2.9,2.122,3.61,4.176.7,2.024,1.458,9.263-.965,9.4l.044.227s17.762-2.181,18.826-3.245,2.265-3.112,2.334-7.288S408.039,264.738,404.922,264.31Z" transform="translate(-386.52 -264.261)" fill="#efefef"/>
                </g>
              </g>
            </g>
            <g id="Group_1869" data-name="Group 1869" transform="translate(158.494 92.958)">
              <path id="Path_3301" data-name="Path 3301" d="M357.56,276.557l4.983-3.767H372.7s4.407,3.452,4.215,4.6-.832,1.147-.832,1.147a3.227,3.227,0,0,1,.064,1.66A3.522,3.522,0,0,1,375,281.221a1.478,1.478,0,0,1-.96,1.531,2.3,2.3,0,0,1-1.788,0,5.142,5.142,0,0,1-2.108,1.083c-1.083.192-3.639-1.024-3.639-1.024a3.79,3.79,0,0,1-3.2,1.339c-1.916-.256-5.432-2.492-5.432-2.492Z" transform="translate(-357.56 -272.79)" fill="#d8d8d8"/>
            </g>
            <g id="Group_1870" data-name="Group 1870" transform="translate(162.812 89.895)">
              <path id="Path_3302" data-name="Path 3302" d="M376.868,269.7l-4.279-3.132-4.471,2.3-1.788,3.452a1.2,1.2,0,0,0,2.108.512,11.174,11.174,0,0,0,2.3-3.132Z" transform="translate(-366.33 -266.57)" fill="#f1f1f1"/>
            </g>
            <g id="Group_1871" data-name="Group 1871" transform="translate(98.812 53.918)">
              <path id="Path_3303" data-name="Path 3303" d="M252.351,196.135s-5.752-4.023-9.775-2.108-11.5,14.374-.384,29.325,15.142,17.25,18.4,17.442,34.879,6.131,34.879,6.131,2.876-5.175,2.492-8.238a42.019,42.019,0,0,0-1.916-7.283l-24.912-3.068S261.55,204.181,252.351,196.135Z" transform="translate(-236.363 -193.51)" fill="#eaeaea"/>
            </g>
            <g id="Group_1907" data-name="Group 1907" transform="translate(266.874 4.05)">
              <g id="Group_1872" data-name="Group 1872" transform="translate(0 71.932)">
                <path id="Path_3304" data-name="Path 3304" d="M601.73,258.532l-6.106-2.925a31.966,31.966,0,0,1-4.959.32c-1.019-.192-6.869-3.5-6.869-3.5a55.667,55.667,0,0,1-4.831-3.55c-1.4-1.28-1.019-2.044.507-1.536a21.5,21.5,0,0,0,2.162.635s-3.56-2.162-3.944-3.053,2.418-.379,2.418-.379-2.359-2.034-2.452-2.669a1.48,1.48,0,0,1,2.452-.891,33.747,33.747,0,0,0,5.087,2.669s-3.181-2.546-2.162-3.3,7.5,3.816,7.5,3.816l6.229,1.906s-2.162-2.162-2.418-3.3-1.526-3.309-.507-4.2.635.635,1.783,2.669,5.594,4.324,5.594,4.324l2.418,5.466,5.978,13.483-3.688-4.324Z" transform="translate(-577.65 -238.316)" fill="#c8c8c8"/>
              </g>
              <g id="Group_1904" data-name="Group 1904" transform="translate(2.76)">
                <g id="Group_1902" data-name="Group 1902">
                  <g id="Group_1900" data-name="Group 1900" transform="translate(9.046)">
                    <g id="Group_1873" data-name="Group 1873" transform="translate(23.665 43.491)">
                      <path id="Path_3305" data-name="Path 3305" d="M649.68,271.3h29.674V180.56l-24.927,1.975Z" transform="translate(-649.68 -180.56)" fill="#ebebeb"/>
                    </g>
                    <g id="Group_1896" data-name="Group 1896" transform="translate(0 18.278)">
                      <g id="Group_1874" data-name="Group 1874" transform="translate(38.161 240.343)">
                        <path id="Path_3306" data-name="Path 3306" d="M692.937,617.43l1.753,1.1s.547,2.521-.33,3.181-.66,1.315-7.564,1.315-7.037-.33-7.244-.768-.867-1.975.01-3.068S692.937,617.43,692.937,617.43Z" transform="translate(-679.118 -617.43)" fill="#606060"/>
                      </g>
                      <g id="Group_1875" data-name="Group 1875" transform="translate(19.637 221.852)">
                        <path id="Path_3307" data-name="Path 3307" d="M649.394,579.88s3.506,8.48,2.925,11.4-7.81,3.733-8.293,3.038-2.526-12.685-2.526-12.685Z" transform="translate(-641.5 -579.88)" fill="#d4d4d4"/>
                      </g>
                      <g id="Group_1876" data-name="Group 1876" transform="translate(5.898 102.279)">
                        <path id="Path_3308" data-name="Path 3308" d="M627.048,337.06h18.816l6.328,29.039-.32.611-18.1,34.279s4.388,24.932,4.388,31.225-.586,29.32-.586,29.32a55.662,55.662,0,0,1-9.942,1.241c-3.9-.069-5.555,0-5.555,0l-8.48-59.353Z" transform="translate(-613.6 -337.06)" fill="#595959"/>
                      </g>
                      <g id="Group_1877" data-name="Group 1877" transform="translate(27.53 34.126)">
                        <path id="Path_3309" data-name="Path 3309" d="M668.826,198.66a57.2,57.2,0,0,1,.546,13.6c-.66,6.8-.66,32.013-.66,32.013l-1.645,17.762s-4.058,3.432-4.166,3.91-5.372-4.348-5.372-4.348,1.423-38.592,2.413-41.222,6.249-21.707,6.249-21.707h2.635v0Z" transform="translate(-657.53 -198.66)" fill="#d4d4d4"/>
                      </g>
                      <g id="Group_1878" data-name="Group 1878" transform="translate(34.548 28.627)">
                        <path id="Path_3310" data-name="Path 3310" d="M680.334,188.181l-3.728,6.673s-1.753-1.1-2.851-.768-1.207.65-1.207.65l-.768-5.693a4.546,4.546,0,0,1,3.4-1.531C677.044,187.728,680.334,188.181,680.334,188.181Z" transform="translate(-671.78 -187.494)" fill="#d0d0d0"/>
                      </g>
                      <g id="Group_1879" data-name="Group 1879" transform="translate(33.934 101.102)">
                        <path id="Path_3311" data-name="Path 3311" d="M700.679,355.072c-.32,3.388,1.192,20.352-.788,31.353-2.206,12.276-.9,30.989-.9,37.716s-7.84,41.512-7.84,41.512-5.274-2.048-8.352-1.753-7.052.488-7.052.488,5.934-42.586,4.954-49.308-8.741-48.239-8.741-48.239-2.768-26.311-.606-29.822,26.01-2.049,26.01-2.049S700.713,354.678,700.679,355.072Z" transform="translate(-670.534 -334.67)" fill="#595959"/>
                      </g>
                      <g id="Group_1880" data-name="Group 1880" transform="translate(6.489 31.641)">
                        <path id="Path_3312" data-name="Path 3312" d="M634.832,244.25,614.8,234.544l1.527-10.2,9.391,2.118s-7.066-33.835-2.167-32.826,13.03,13.532,14.492,15.714S634.832,244.25,634.832,244.25Z" transform="translate(-614.8 -193.615)" fill="#606060"/>
                      </g>
                      <g id="Group_1881" data-name="Group 1881" transform="translate(33.553)">
                        <path id="Path_3313" data-name="Path 3313" d="M675.777,129.36,686,150.111s-7.564,8.992-10.194,8.549-5.264-4.166-5.264-4.166l-.778-11.321Z" transform="translate(-669.76 -129.36)" fill="#cfcfcf"/>
                      </g>
                      <g id="Group_1883" data-name="Group 1883" transform="translate(29.067 28.833)">
                        <g id="Group_1882" data-name="Group 1882">
                          <path id="Path_3314" data-name="Path 3314" d="M660.65,193.535s7.51-6.515,9.657-5.515c1.526-.95,8.583,4.722,8.583,4.722l-9.4-3.063Z" transform="translate(-660.65 -187.912)" fill="#f4f4f4"/>
                        </g>
                      </g>
                      <g id="Group_1884" data-name="Group 1884" transform="translate(39.044 17.137)">
                        <path id="Path_3315" data-name="Path 3315" d="M689.877,164.16s.355,6.023-2.058,7.446-6.909,4.245-6.909,4.245l9.43,5.51,5.264-11.622Z" transform="translate(-680.91 -164.16)" fill="#fefefe"/>
                      </g>
                      <g id="Group_1885" data-name="Group 1885" transform="translate(31.15 20.485)">
                        <path id="Path_3316" data-name="Path 3316" d="M668.169,170.96l-2.743,4.21-.547,8.554,6.8-4.6s-3.068-3.511-3.068-4.393-.33-3.506-.33-3.506Z" transform="translate(-664.88 -170.96)" fill="#fefefe"/>
                      </g>
                      <g id="Group_1886" data-name="Group 1886" transform="translate(31.145 19.983)">
                        <path id="Path_3317" data-name="Path 3317" d="M664.87,229.037l.089.665,3.536,25.858s3.186,20.5,6.141,22.593,30.039,0,30.039,0l-1.536-12.276s-3.624-13.709-5.377-20.84,1.65-24.883,1.65-24.883L704.235,182l-12.779-8.13-6.185-3.93s-7.352,20.83-9.209,23.346S664.87,229.037,664.87,229.037Z" transform="translate(-664.87 -169.94)" fill="#606060"/>
                      </g>
                      <g id="Group_1887" data-name="Group 1887" transform="translate(31.145 19.983)">
                        <path id="Path_3318" data-name="Path 3318" d="M664.87,229.037l.089.665c3.457-8.834,26.557-50.553,26.557-50.553l-3.4-2.324,4.279-.744-.941-2.211-6.185-3.93s-7.352,20.83-9.208,23.346S664.87,229.037,664.87,229.037Z" transform="translate(-664.87 -169.94)" fill="#f6f6f6"/>
                      </g>
                      <g id="Group_1888" data-name="Group 1888" transform="translate(38.6 226.742)">
                        <path id="Path_3319" data-name="Path 3319" d="M691.09,590.583s2.083,6.141,2.413,8,2.191,4.6,1.1,6.027-6.909,1.536-9.1,1.423-5.7,0-5.481-.877.768-7.017.768-7.017v-4.6a25.052,25.052,0,0,0,2.191-3.728Z" transform="translate(-680.01 -589.81)" fill="#595959"/>
                      </g>
                      <g id="Group_1891" data-name="Group 1891" transform="translate(0 227.299)">
                        <g id="Group_1889" data-name="Group 1889" transform="translate(0.057 12.936)">
                          <path id="Path_3320" data-name="Path 3320" d="M618.473,620.386c2.63-.108,5.589-1.645,5.919-1.645s2.521-.985,4.5-.768a12.271,12.271,0,0,0,4.747-.763c-.069,1.472-.207,2.767-.473,2.9-.547.276-7.017.276-8.662.822s-4.934,2.083-6.909,1.975-15.566,0-15.566,0-.187-1.389-.286-2.511C605.448,620.421,616.3,620.48,618.473,620.386Z" transform="translate(-601.74 -617.21)" fill="#606060"/>
                        </g>
                        <g id="Group_1890" data-name="Group 1890">
                          <path id="Path_3321" data-name="Path 3321" d="M628.829,604.645c-1.975-.222-4.166.768-4.5.768s-3.289,1.536-5.919,1.645c-2.172.089-13.02.03-16.728.01a6.973,6.973,0,0,1-.044-1.325c.108-.547,8.11-3.836,9.208-4.826s7.234-9.977,7.234-9.977l4.6.33s7.126,6.687,7.456,6.357a34.29,34.29,0,0,0,1.206-4.826s2.3,5.372,2.3,6.909c0,.793,0,2.59-.079,4.171A12.285,12.285,0,0,1,628.829,604.645Z" transform="translate(-601.623 -590.94)" fill="#595959"/>
                        </g>
                      </g>
                      <g id="Group_1892" data-name="Group 1892" transform="translate(32.681 78.307)">
                        <ellipse id="Ellipse_144" data-name="Ellipse 144" cx="1.098" cy="1.753" rx="1.098" ry="1.753" fill="#ededed"/>
                      </g>
                      <g id="Group_1893" data-name="Group 1893" transform="translate(35.754 92.228)">
                        <path id="Path_3322" data-name="Path 3322" d="M674.23,318.733c0,1.152.591,2.083,1.315,2.083s1.315-.931,1.315-2.083-.591-2.083-1.315-2.083S674.23,317.586,674.23,318.733Z" transform="translate(-674.23 -316.65)" fill="#ededed"/>
                      </g>
                      <g id="Group_1894" data-name="Group 1894" transform="translate(8.02 23.489)">
                        <path id="Path_3323" data-name="Path 3323" d="M617.91,274.415s5.589,6.682,9.1,4.388S645.1,233.966,645.1,233.966l-.542-4.186-4.393-33.968,2.526-18.752-6.4,3.028-12.237,5.786s1.2,17.058,4.063,29c2.841,11.956,1.315,17.767,1.088,18.314S617.91,274.415,617.91,274.415Z" transform="translate(-617.91 -177.06)" fill="#f6f6f6"/>
                      </g>
                      <g id="Group_1895" data-name="Group 1895" transform="translate(22.173 23.489)">
                        <path id="Path_3324" data-name="Path 3324" d="M659.143,229.78l-4.393-33.968,2.526-18.752-6.4,3.028-2.472,6.077,2.841-.99-4.595,4.708C646.64,189.883,655.228,217.194,659.143,229.78Z" transform="translate(-646.65 -177.06)" fill="#f6f6f6"/>
                      </g>
                    </g>
                    <g id="Group_1899" data-name="Group 1899" transform="translate(20.984)">
                      <g id="Group_1897" data-name="Group 1897" transform="translate(4.431)">
                        <path id="Path_3325" data-name="Path 3325" d="M655.723,105.783s-3.216-6.579-2.339-8.041,2.339-3.654,8.918-4.969,14.177-.148,16.664,3.068,6.579,8.48,5.264,17.393-8.342,13-10.39,12.409-6.712-9.342-6.712-9.342Z" transform="translate(-653.233 -92.242)" fill="#5a5a5a"/>
                      </g>
                      <g id="Group_1898" data-name="Group 1898" transform="translate(0 7.435)">
                        <path id="Path_3326" data-name="Path 3326" d="M649.014,107.34s-3.413,6.983-2.684,8.155,1.463,2.049.877,3.068-3.363,5.845-2.925,6.431a16.484,16.484,0,0,0,2.339,1.9s-1.024,1.9-.586,2.049a5.857,5.857,0,0,1,1.315,1.024s-1.753.586-1.463,1.315,1.315,2.777,1.024,3.654-1.61.877-.148,1.753,9.208-.586,9.794-.438,6.431-10.819,6.431-10.819,4.388,1.024,4.969-.586,2.777-7.894-.29-7.894a14.4,14.4,0,0,0-6.141,1.753l-5.407-7.6Z" transform="translate(-644.235 -107.34)" fill="#d4d4d4"/>
                      </g>
                    </g>
                  </g>
                  <g id="Group_1901" data-name="Group 1901" transform="translate(0 67.75)">
                    <path id="Path_3327" data-name="Path 3327" d="M609.489,245.467l-2.295-5.407a14.256,14.256,0,0,0-1.852-2.221c-.96-.886-4.22-6.072-4.294-6.958s-1.556-1.852-2,0,1.728,5.629,1.728,5.629-3.427-1.7-3.8-1.925-8.071-.148-8.071-.148-3.181.3-3.107.96l.074.886s-2.369.517-2.59.517.955,1.566,1.472,1.852a17.085,17.085,0,0,0,4.151.739s-.739.369-.148,1.482,5.776,1.261,5.776,1.261,2.812,3.555,4.737,4.146,6.461,2.221,6.461,2.221l1.162,2.2,2.812-5.235h-.217v0Z" transform="translate(-583.254 -229.824)" fill="#d4d4d4"/>
                  </g>
                </g>
                <g id="Group_1903" data-name="Group 1903" transform="translate(40.338 94.172)">
                  <path id="Path_3328" data-name="Path 3328" d="M665.17,285.563c0,1.152.591,2.083,1.315,2.083s1.315-.931,1.315-2.083-.591-2.083-1.315-2.083S665.17,284.411,665.17,285.563Z" transform="translate(-665.17 -283.48)" fill="#ededed"/>
                </g>
              </g>
              <g id="Group_1905" data-name="Group 1905" transform="translate(24.09 80.616)">
                <path id="Path_3329" data-name="Path 3329" d="M633.533,256.58l.276.468-3.142,9.967-4.1-3.531a8.977,8.977,0,0,1,2.393-3.432c1.438-1.01,1.507-4.1,1.507-4.1Z" transform="translate(-626.57 -255.95)" fill="#c2c2c2"/>
              </g>
              <g id="Group_1906" data-name="Group 1906" transform="translate(24.09 49.6)">
                <path id="Path_3330" data-name="Path 3330" d="M680.142,194.539s2.122-2.566,4.141-1.142,4.944,2.979-3.491,27.837c-15.216,44.831-54.222,13.636-54.222,13.636s4.4-4.417,5.54-7.14c1.133-2.694.906-7.135.906-7.135s16.334,12.818,20.845,9.671,11.543-17.723,14.906-22.15S680.142,194.539,680.142,194.539Z" transform="translate(-626.57 -192.967)" fill="#f6f6f6"/>
              </g>
            </g>
          </g>
        </g>
      </g>
    </g>
  </g>
</svg>
