<svg xmlns="http://www.w3.org/2000/svg" xmlns:xlink="http://www.w3.org/1999/xlink" width="458" height="458" viewBox="0 0 458 458">
  <defs>
    <linearGradient id="linear-gradient" x1="0.865" y1="0.178" x2="0.152" y2="0.822" gradientUnits="objectBoundingBox">
      <stop offset="0" stop-color="#fdb819"/>
      <stop offset="1" stop-color="#fff"/>
    </linearGradient>
  </defs>
  <g id="Group_2046" data-name="Group 2046" transform="translate(-1037 -1147)">
    <circle id="Ellipse_8" data-name="Ellipse 8" cx="229" cy="229" r="229" transform="translate(1037 1605) rotate(-90)" fill="url(#linear-gradient)"/>
    <g id="Group_2010" data-name="Group 2010" transform="translate(-1.298 -0.845)">
      <g id="No_Buyers_Meetup" data-name="No Buyers Meetup" transform="translate(1093.135 1187.682)">
        <g id="OBJECTS" transform="translate(-4.837 45.163)">
          <g id="Group_1908" data-name="Group 1908" transform="translate(0 0)">
            <g id="Group_1790" data-name="Group 1790" transform="translate(91.048 13.217)">
              <g id="Group_1776" data-name="Group 1776" transform="translate(3.556 254.096)">
                <g id="Group_1771" data-name="Group 1771" transform="translate(13.271 18.258)">
                  <path id="Path_3230" data-name="Path 3230" d="M250.75,653.11h-.1C250.69,653.205,250.75,653.11,250.75,653.11Z" transform="translate(-250.65 -653.11)" fill="#656565"/>
                </g>
                <g id="Group_1772" data-name="Group 1772" transform="translate(0.338 12.492)">
                  <path id="Path_3231" data-name="Path 3231" d="M273.135,641.62a46.053,46.053,0,0,1-12.5,3.583,42.091,42.091,0,0,1-5.877.427c-5.42,0-13.7-2.268-15.839-2.805-.11-.025-.241-.05-.386-.08-2.484-.452-10.609-.969-12.687-1.089-1.094.09-.959.171-.959.171l.331,5.561h12.6a6.814,6.814,0,0,1,.156-2.123c6.916.3,7.393,2.123,17.45,2.123a48.32,48.32,0,0,0,17.515-3.157C273.737,644.094,273.27,642.222,273.135,641.62Z" transform="translate(-224.879 -641.62)" fill="#999"/>
                </g>
                <g id="Group_1773" data-name="Group 1773" transform="translate(35.377 7.894)">
                  <path id="Path_3232" data-name="Path 3232" d="M294.879,637.2a10.185,10.185,0,0,1,.532,3.448,46.052,46.052,0,0,0,12.5-3.583c0-.01-.005-.01-.01-.02-.135-.271-1.746-3.337-3.664-3.719-1.4-.281-6.2-.557-9.275-.863C294.763,633.971,294.522,636.39,294.879,637.2Z" transform="translate(-294.696 -632.46)" fill="#656565"/>
                </g>
                <g id="Group_1774" data-name="Group 1774" transform="translate(13.989 4.331)">
                  <path id="Path_3233" data-name="Path 3233" d="M266.368,631.252s-9.827-.938-11.091-.135a6.288,6.288,0,0,0-3.087,3.247c-.04.09-.075.186-.11.281.151.03.281.055.386.08,2.138.537,10.424,2.805,15.839,2.805a41.989,41.989,0,0,0,5.877-.426,10.189,10.189,0,0,0-.532-3.448c-.356-.808-.115-3.222.08-4.738a12.59,12.59,0,0,1-2.62-.407c-.371-.2-2.66-1.606-5.144-3.152a6.152,6.152,0,0,1,1,2.148A29.166,29.166,0,0,1,266.368,631.252Z" transform="translate(-252.08 -625.36)" fill="#656565"/>
                </g>
                <g id="Group_1775" data-name="Group 1775">
                  <path id="Path_3234" data-name="Path 3234" d="M238.3,630.065a6.306,6.306,0,0,1,3.086-3.247c1.265-.8,11.091.135,11.091.135a29.1,29.1,0,0,0,.6-3.744,6.152,6.152,0,0,0-1-2.148c-3.3-2.048-6.956-4.331-6.956-4.331s-5.882,4.743-8.421,4.943-11.026-3.076-11.026-3.076-1.536,5.616-1.47,6.886a23.278,23.278,0,0,0,.8,3.744l.492.03c2.083.126,10.2.643,12.687,1.089C238.225,630.25,238.26,630.16,238.3,630.065Z" transform="translate(-224.206 -616.73)" fill="#636363"/>
                </g>
              </g>
              <g id="Group_1779" data-name="Group 1779" transform="translate(0 136.437)">
                <g id="Group_1778" data-name="Group 1778">
                  <g id="Group_1777" data-name="Group 1777">
                    <path id="Path_3235" data-name="Path 3235" d="M220.447,504.389s.532.04,1.345.115c4.2.311,17.355,1.119,22.434-.577a4.56,4.56,0,0,0,1.536-.733c3.7-3.091-1.626-41.4-2.033-48.124a17.892,17.892,0,0,1,.1-2.354l11.081-65.85s-29.625-6.891-32.762-3.764c-3.1,3.127-5.024,29.445-5.024,30.644C217.125,416.07,222.816,414.79,220.447,504.389Z" transform="translate(-217.12 -382.288)" fill="#001327"/>
                  </g>
                </g>
              </g>
              <g id="Group_1782" data-name="Group 1782" transform="translate(2.273 33.54)">
                <g id="Group_1780" data-name="Group 1780">
                  <path id="Path_3236" data-name="Path 3236" d="M221.65,210.4c0-7.2,6.424-29.5,8.346-32.617s20.3,8.632,20.3,8.632,11.121,20.627,11.844,27.1c.532,4.788,8.7,46.584,12.918,68.019a10.025,10.025,0,0,1-10.328,11.95l-2.725-.13c.03-1.606.055-3.312.08-5.159.668-48.616-7.327-29.967-5.33-57.57s-10.875-52.536-23.533-47.211-.442,56.731-.442,56.731-2.665,10.088-2.665,18.88c0,5.892,1.4,22.539,2.314,32.9l-9.581-.462C222.849,291.467,221.65,217.6,221.65,210.4Z" transform="translate(-221.65 -177.262)" fill="#001327"/>
                </g>
                <g id="Group_1781" data-name="Group 1781" transform="translate(5.833 5.433)">
                  <path id="Path_3237" data-name="Path 3237" d="M238.571,245.543s-12.211-51.407.442-56.731,25.53,19.608,23.533,47.211,5.992,8.953,5.33,57.57c-.025,1.847-.05,3.553-.08,5.159l-29.575-1.425c-.918-10.359-2.314-27.006-2.314-32.9C235.906,255.63,238.571,245.543,238.571,245.543Z" transform="translate(-233.273 -188.087)" fill="#001327"/>
                </g>
              </g>
              <g id="Group_1789" data-name="Group 1789" transform="translate(8.659)">
                <g id="Group_1784" data-name="Group 1784" transform="translate(1.054 2.366)">
                  <g id="Group_1783" data-name="Group 1783">
                    <path id="Path_3238" data-name="Path 3238" d="M266.4,120.463c2.841,4.1,3.358,6,3.358,9.6s.959,4.8.959,4.8l2.876,5.275-3.6,1.2-.959,3.117h-2.64l1.44,1.44-.959,2.876s1.917,3.839-.482,3.358a51.451,51.451,0,0,0-8.155-.241L256.08,155l-17.746-10.554,2.158-4.316s-9.355-11.272.482-20.868S265.916,119.765,266.4,120.463Z" transform="translate(-236.473 -115.146)" fill="#d8d8d8"/>
                  </g>
                </g>
                <g id="Group_1786" data-name="Group 1786">
                  <g id="Group_1785" data-name="Group 1785">
                    <path id="Path_3239" data-name="Path 3239" d="M261.753,123.148s9.6,3.117,8.4,0-4.557-12.953-18.7-12.712-17.51,11.513-17.028,17.51a58.213,58.213,0,0,0,1.917,10.8l10.554,1.681.241-4.557s-3.839-1.917-1.917-7.433,6.715-2.4,6.715.959a10.612,10.612,0,0,0,1.2,5.275Z" transform="translate(-234.373 -110.431)" fill="#303030"/>
                  </g>
                </g>
                <g id="Group_1788" data-name="Group 1788" transform="translate(1.168 29.339)">
                  <g id="Group_1787" data-name="Group 1787">
                    <path id="Path_3240" data-name="Path 3240" d="M238.748,168.89l-2.048,6.921s15.568,3.378,17.821,5.792,7.242,9.014,7.242,9.014-.321-7.563-4.507-10.861S238.748,168.89,238.748,168.89Z" transform="translate(-236.7 -168.89)" fill="#eaeaea"/>
                  </g>
                </g>
              </g>
            </g>
            <g id="Group_1791" data-name="Group 1791" transform="translate(190.649 54.812)">
              <path id="Path_3241" data-name="Path 3241" d="M446.4,193.31s-5.631,7.583-7.4,10.564c-2.309,3.895-23.427,28.08-23.427,28.08l.577,5.772,6.765,4.085s22.865-19.182,24.019-26.107Z" transform="translate(-415.58 -193.31)" fill="#efefef"/>
            </g>
            <g id="Group_1834" data-name="Group 1834">
              <g id="Group_1792" data-name="Group 1792" transform="translate(22.941)">
                <path id="Path_3242" data-name="Path 3242" d="M92.152,84.943s7.771-2.924,13.872,1.824a12.054,12.054,0,0,1,2.489,2.8c5.711,8.637,3.152,22.469,2.509,26.393s3.518,4.763,2.881,6.9-2.434,6.314-16.507,5.661-15.643-4.637-15.959-6.715,2.886-3.358,2.645-6.4S77.919,94.714,92.152,84.943Z" transform="translate(-81.415 -84.052)" fill="#303030"/>
              </g>
              <g id="Group_1799" data-name="Group 1799" transform="translate(36.185 180.43)">
                <g id="Group_1793" data-name="Group 1793" transform="translate(1.69 0)">
                  <path id="Path_3243" data-name="Path 3243" d="M111.3,521.586c-.04.171-.075.391-.125.708-.276,1.917,11.362,7.2,11.362,7.2l-2.083-3.674s1.892-.4,3.744-.728l-3.021-3.513s0-2.459,1.019-12.115c.552-5.25,6.9-27.949,7.618-31.548s-.482-12.953.718-16.075c1.034-2.7.813-13.837.738-16.793-.01-.462-.02-.718-.02-.718L115.9,443.61c-1.681,12.953.482,21.591.482,21.591a76.189,76.189,0,0,0-4.557,18.951c-.893,10.273.718,24.948.718,27.829a25.254,25.254,0,0,1-1.074,8.4,11.7,11.7,0,0,0-.286,1.295A1.118,1.118,0,0,1,111.3,521.586Z" transform="translate(-111.17 -443.61)" fill="#e1e1e1"/>
                </g>
                <g id="Group_1794" data-name="Group 1794" transform="translate(1.577 77.976)">
                  <path id="Path_3244" data-name="Path 3244" d="M111.706,603.768a111.681,111.681,0,0,0,10.8,5.757c3.6,1.44,6-1.917,6-1.917l-4.416-5.124c-1.852.326-3.744.728-3.744.728l2.083,3.674s-11.638-5.28-11.362-7.2c.05-.316.085-.537.125-.708a1.111,1.111,0,0,0-.125.085A7.026,7.026,0,0,0,111.706,603.768Z" transform="translate(-110.946 -598.98)" fill="#8b8b8b"/>
                </g>
                <g id="Group_1798" data-name="Group 1798" transform="translate(0 77.966)">
                  <g id="Group_1795" data-name="Group 1795" transform="translate(12.124 13.345)">
                    <path id="Path_3245" data-name="Path 3245" d="M133.29,625.721c2.238-.241,14.554.161,14.554.161s-.02-.13-.06-.331c.186.241.326.5.221.652-.241.321-.241.4-2.8.562s-11.914.08-12.4-.161a4.443,4.443,0,0,1-.848-1A2.943,2.943,0,0,0,133.29,625.721Z" transform="translate(-131.96 -625.55)" fill="#4c4c4c"/>
                  </g>
                  <g id="Group_1796" data-name="Group 1796" transform="translate(0 8.522)">
                    <path id="Path_3246" data-name="Path 3246" d="M108.037,615.94a1.586,1.586,0,0,0,.346.517c1.034,1.034,6.083,1.184,8.236,1.952l-.08,1.405-8.733-.562A18.009,18.009,0,0,1,108.037,615.94Z" transform="translate(-107.803 -615.94)" fill="#4c4c4c"/>
                  </g>
                  <g id="Group_1797" data-name="Group 1797" transform="translate(0.011)">
                    <path id="Path_3247" data-name="Path 3247" d="M108.053,607.482a1.615,1.615,0,0,0,.346.517c1.029,1.029,6.083,1.179,8.236,1.947a3.382,3.382,0,0,1,.482.211c1.325.718,1.747,1.8,2.831,2.2a3.008,3.008,0,0,0,1.325.115c2.243-.241,14.559.161,14.559.161s-.02-.135-.06-.326c-.135-.683-.537-2.178-1.46-2.555,0,0-2.966-2.238-4.166-3.438s-3.272-3.839-4.156-4.166a12.724,12.724,0,0,0-3.453.316c-1.852.326-3.744.728-3.744.728l2.083,3.674s-11.638-5.28-11.362-7.2c.05-.316.085-.537.125-.708a1.12,1.12,0,0,0-.125.085,3.784,3.784,0,0,0-1.114,2.705C108.118,604.049,107.486,606.217,108.053,607.482Z" transform="translate(-107.825 -598.96)" fill="#797979"/>
                  </g>
                </g>
              </g>
              <g id="Group_1804" data-name="Group 1804" transform="translate(0 169.203)">
                <g id="Group_1800" data-name="Group 1800" transform="translate(3.928)">
                  <path id="Path_3248" data-name="Path 3248" d="M75.359,425.566S70.24,439,69.442,444.6a40.749,40.749,0,0,1-3.2,11.513c-1.28,3.041-1.541,17.054-3.3,20.893s-8.6,21.831-8.276,24.707.221,1.857.06,3.3-1.019,2.279-.482,4.838c.366,1.752-.642,5.6-1.762,6.715s-8.958-.763-8.958-.763,4.015-7.894,3.533-9.174.657-1.932.763-2.339c.552-2.073-1.139-22.308,2.1-42.1a101.831,101.831,0,0,1,3.518-14.072L60.8,421.24,74.872,425.4Z" transform="translate(-43.53 -421.24)" fill="#e1e1e1"/>
                </g>
                <g id="Group_1803" data-name="Group 1803" transform="translate(0 89.891)">
                  <g id="Group_1801" data-name="Group 1801" transform="translate(0 10.278)">
                    <path id="Path_3249" data-name="Path 3249" d="M35.993,620.83c1.651,2.008,5.475,2.765,7.076,2.6,1.741-.181,5.516-.241,6.158-1.36a2.242,2.242,0,0,0,.216-.627c.226.723.381,1.465.1,1.586-.562.241-4.958,1.681-6.956,1.44s-7.117-1.44-6.876-2.56C35.8,621.523,35.9,621.156,35.993,620.83Z" transform="translate(-35.704 -620.83)" fill="#575757"/>
                  </g>
                  <g id="Group_1802" data-name="Group 1802" transform="translate(0.065)">
                    <path id="Path_3250" data-name="Path 3250" d="M43.134,613.224c-1.6.166-5.425-.592-7.076-2.6-.01-.015-.03-.025-.04-.04-.949-1.184,2.078-6.017,2.078-6.017s5.435-3.578,7.357-4.06,2.4.161,4.316,1.917,0,4.477,0,4.477l-.321.878a11.933,11.933,0,0,1,.055,3.453,2.245,2.245,0,0,1-.216.627C48.654,612.988,44.88,613.048,43.134,613.224Z" transform="translate(-35.833 -600.351)" fill="#797979"/>
                  </g>
                </g>
              </g>
              <g id="Group_1805" data-name="Group 1805" transform="translate(12.204 106.571)">
                <path id="Path_3251" data-name="Path 3251" d="M98.574,298.79s9.837,4.557,11.036,13.435,0,68.852,0,68.852-16.15,1.681-24.03,1.44S60.02,380.6,60.02,380.6l3.769-70.533S72.908,289.671,98.574,298.79Z" transform="translate(-60.02 -296.443)" fill="#05101c"/>
              </g>
              <g id="Group_1806" data-name="Group 1806" transform="translate(11.335 43.264)">
                <path id="Path_3252" data-name="Path 3252" d="M73.883,170.3,58.29,176.779l5.2,22.549s4.718,13.034,4.08,20.23S63.73,233.4,63.334,236.512s-1.2,12.4-1.2,12.4l23.749-.718,1.837-36.305s-9.676-26.147-10.313-29.269S73.883,170.3,73.883,170.3Z" transform="translate(-58.29 -170.3)" fill="#d59a13"/>
              </g>
              <g id="Group_1807" data-name="Group 1807" transform="translate(36.931 43.264)">
                <path id="Path_3253" data-name="Path 3253" d="M123.127,170.3l15.593,6.479-5.2,22.549s-4.718,13.034-4.08,20.23,3.839,13.837,4.236,16.953,1.2,12.4,1.2,12.4l-23.749-.718-1.837-36.305s9.676-26.147,10.313-29.269S123.127,170.3,123.127,170.3Z" transform="translate(-109.29 -170.3)" fill="#d59a13"/>
              </g>
              <g id="Group_1808" data-name="Group 1808" transform="translate(38.165 84.447)">
                <path id="Path_3254" data-name="Path 3254" d="M111.75,253.559a1.2,1.2,0,1,0,1.2-1.2A1.2,1.2,0,0,0,111.75,253.559Z" transform="translate(-111.75 -252.36)" fill="#e1e1e1"/>
              </g>
              <g id="Group_1809" data-name="Group 1809" transform="translate(38.045 96.863)">
                <path id="Path_3255" data-name="Path 3255" d="M111.51,278.3a1.2,1.2,0,1,0,1.2-1.2A1.2,1.2,0,0,0,111.51,278.3Z" transform="translate(-111.51 -277.1)" fill="#e1e1e1"/>
              </g>
              <g id="Group_1821" data-name="Group 1821" transform="translate(23.892 27.831)">
                <g id="Group_1810" data-name="Group 1810" transform="translate(15.031 20.717)">
                  <path id="Path_3256" data-name="Path 3256" d="M113.26,181.021q3.975,0,7.955-.191c-1.531,6.62-5.275,20.09-7.709,28.722-.08-.286-.161-.577-.246-.868Z" transform="translate(-113.26 -180.83)" fill="#b4b4b4"/>
                </g>
                <g id="Group_1811" data-name="Group 1811" transform="translate(15.031)">
                  <path id="Path_3257" data-name="Path 3257" d="M121.215,160.272c-2.65.12-5.3.191-7.955.191V141.151l6.4-1.6s-.482,10.394,1.119,13.435a5.592,5.592,0,0,0,1.32,1.531,19.7,19.7,0,0,1-.281,2.866C121.706,158.064,121.5,159.058,121.215,160.272Z" transform="translate(-113.26 -139.55)" fill="#d4d4d4"/>
                </g>
                <g id="Group_1812" data-name="Group 1812" transform="translate(6.595)">
                  <path id="Path_3258" data-name="Path 3258" d="M97.414,160.3c-.321-1.37-.562-2.489-.683-3.232a18.99,18.99,0,0,1-.281-2.906,5.032,5.032,0,0,0,.923-1.174c1.6-3.041,1.119-13.435,1.119-13.435l6.4,1.6v19.312Q101.15,160.455,97.414,160.3Z" transform="translate(-96.45 -139.55)" fill="#d4d4d4"/>
                </g>
                <g id="Group_1813" data-name="Group 1813" transform="translate(7.558 20.747)">
                  <path id="Path_3259" data-name="Path 3259" d="M98.37,180.89q3.734.166,7.473.166v27.663C103.449,200.222,99.916,187.485,98.37,180.89Z" transform="translate(-98.37 -180.89)" fill="#b4b4b4"/>
                </g>
                <g id="Group_1814" data-name="Group 1814" transform="translate(15.031 48.576)">
                  <path id="Path_3260" data-name="Path 3260" d="M113.26,236.34c.085.3.166.587.246.868-.085.3-.166.582-.246.868Z" transform="translate(-113.26 -236.34)" fill="#e4e4e4"/>
                </g>
                <g id="Group_1815" data-name="Group 1815" transform="translate(0 10.988)">
                  <path id="Path_3261" data-name="Path 3261" d="M90.868,171.2c-.321-1.37-.562-2.489-.683-3.232a18.991,18.991,0,0,1-.281-2.906c-.025-3.3,1.4-2.931,1.4-2.931s-1.6-1.44-1.917-.161-5.119,4.477-5.119,4.477l-.346,2.253-.311,2.033-.3,1.957,3.6.321-3.087,2.128-.512.351s4.316,12.637,7.759,19.513a43.321,43.321,0,0,0,6.344,9.059c.055-.2.115-.4.176-.617.231-.8.482-1.7.758-2.67v-1.736C95.947,190.535,92.414,177.8,90.868,171.2Z" transform="translate(-83.31 -161.444)" fill="gray"/>
                </g>
                <g id="Group_1816" data-name="Group 1816" transform="translate(13.034 53.6)">
                  <path id="Path_3262" data-name="Path 3262" d="M109.28,250.084s.412-1.43,1.069-3.734c.457.517.893.984,1.285,1.4C110.249,249.211,109.28,250.084,109.28,250.084Z" transform="translate(-109.28 -246.35)" fill="#e4e4e4"/>
                </g>
                <g id="Group_1817" data-name="Group 1817" transform="translate(15.277 11.304)">
                  <path id="Path_3263" data-name="Path 3263" d="M125.338,173.64l3.6-.321-.356-2.309-.281-1.832-.321-2.1s-4.8-3.2-5.119-4.477-1.917.161-1.917.161,1.435-.371,1.4,2.971a19.7,19.7,0,0,1-.281,2.866c-.11.678-.321,1.676-.6,2.886-1.531,6.62-5.275,20.09-7.709,28.722q.444,1.581.823,2.9c.146.507.281.984.4,1.42a43.43,43.43,0,0,0,6.208-8.9c3.438-6.876,7.759-19.513,7.759-19.513l-.928-.637Z" transform="translate(-113.75 -162.074)" fill="#797979"/>
                </g>
                <g id="Group_1818" data-name="Group 1818" transform="translate(14.093 52.345)">
                  <path id="Path_3264" data-name="Path 3264" d="M112.329,246.043l1.064-2.193c.146.507.281.984.4,1.42-.4.447-.768.853-1.119,1.23-.391-.412-.823-.878-1.285-1.4.055-.2.115-.4.176-.617Z" transform="translate(-111.39 -243.85)" fill="#e4e4e4"/>
                </g>
                <g id="Group_1819" data-name="Group 1819" transform="translate(15.036 49.444)">
                  <path id="Path_3265" data-name="Path 3265" d="M113.511,238.07q.444,1.581.823,2.9l-1.064,2.193v-4.226C113.345,238.652,113.426,238.366,113.511,238.07Z" transform="translate(-113.27 -238.07)" fill="#e4e4e4"/>
                </g>
                <g id="Group_1820" data-name="Group 1820" transform="translate(14.273 50.313)">
                  <path id="Path_3266" data-name="Path 3266" d="M112.508,244.026l-.758-1.556c.231-.8.482-1.7.758-2.67Z" transform="translate(-111.75 -239.8)" fill="#e4e4e4"/>
                </g>
              </g>
              <g id="Group_1826" data-name="Group 1826" transform="translate(4.304 49.023)">
                <g id="Group_1822" data-name="Group 1822" transform="translate(20.2 41.879)">
                  <path id="Path_3267" data-name="Path 3267" d="M84.791,272.041l3.428-2.725,6.093-1.752,3.3.161s-.321,1.526-1.255,1.736-2.469.492-2.469.492l-2.063,1.295,3.358-.166,2.314-1.43,1.33-1.852s.878-2.123,1.551-2.409a1.625,1.625,0,0,1,1.114-.125l-.5,1.44s.863.01.9.537a56.134,56.134,0,0,1-2.248,5.787l-.647.607a3.215,3.215,0,0,1-.532,1.019l-.467.693-4.065,2.268-9.405.206Z" transform="translate(-84.53 -265.22)" fill="#e2e2e2"/>
                </g>
                <g id="Group_1823" data-name="Group 1823" transform="translate(23.262 30.627)">
                  <path id="Path_3268" data-name="Path 3268" d="M109.651,254.714l-4.682-.462-6.519-3.091-2.881-2.484s1.179-.888,2.143-.376,2.514,1.41,2.514,1.41l2.62.532-3.127-2.289-2.921-.612-2.284.4s-2.033.923-2.805.652a2.27,2.27,0,0,1-1.079-.708l1.29-.7s-.773-.627-.5-1.044,5.405-2.63,5.405-2.63l.933.02a2.838,2.838,0,0,1,1.069-.366l.823-.171,4.994,1.255,8.612,6.6Z" transform="translate(-90.63 -242.8)" fill="#e2e2e2"/>
                </g>
                <g id="Group_1824" data-name="Group 1824" transform="translate(41.033)">
                  <path id="Path_3269" data-name="Path 3269" d="M147.48,181.778c1.892-.156,2.76,7.117,2.881,13.475s2.158,23.051,3.719,28.09a7.694,7.694,0,0,1-5.26,9.791c-7.744,1.621-22.78-8.3-22.78-8.3l6.805-8.055,10.073,2.6-2.519-9.014C140.4,210.364,144.122,182.054,147.48,181.778Z" transform="translate(-126.04 -181.775)" fill="#797979"/>
                </g>
                <g id="Group_1825" data-name="Group 1825" transform="translate(0 0.542)">
                  <path id="Path_3270" data-name="Path 3270" d="M51.281,182.858c-1.887-.156-2.76,7.117-2.881,13.475s-2.158,21.5-3.719,26.534A8.011,8.011,0,0,0,49.5,232.894c5.184,1.747,18.032,3.378,18.032,3.378l-.688-7.784-11.011-9.581,2.519-7.458C58.357,211.444,54.639,183.134,51.281,182.858Z" transform="translate(-44.28 -182.855)" fill="#797979"/>
                </g>
              </g>
              <g id="Group_1831" data-name="Group 1831" transform="translate(25.605 1.669)">
                <g id="Group_1827" data-name="Group 1827" transform="translate(1.484)">
                  <path id="Path_3271" data-name="Path 3271" d="M89.68,99.254c0,6.534,2.238,21.209,11.357,21.2,11.046-.005,12.316-14.67,12.316-21.2a11.837,11.837,0,0,0-23.673,0Z" transform="translate(-89.68 -87.42)" fill="#dfdfdf"/>
                </g>
                <g id="Group_1830" data-name="Group 1830" transform="translate(0 12.664)">
                  <g id="Group_1828" data-name="Group 1828" transform="translate(0 0)">
                    <path id="Path_3272" data-name="Path 3272" d="M91.047,116.461l-2.72,7.292c-1.28.482-1.44-6.971-1.6-10.168S91.047,116.461,91.047,116.461Z" transform="translate(-86.722 -112.653)" fill="#dfdfdf"/>
                  </g>
                  <g id="Group_1829" data-name="Group 1829" transform="translate(22.312)">
                    <path id="Path_3273" data-name="Path 3273" d="M135.5,113.585c-.161,3.2-.321,10.65-1.6,10.168l-2.72-7.292S135.662,110.383,135.5,113.585Z" transform="translate(-131.18 -112.653)" fill="#dfdfdf"/>
                  </g>
                </g>
              </g>
              <g id="Group_1832" data-name="Group 1832" transform="translate(33.669 0.918)">
                <path id="Path_3274" data-name="Path 3274" d="M102.86,87.423s-.7,1.345,2.339,3.423,2.469-1.28,9.6,7.2c2.5,2.981,5.28,19.447,3.041,22.8s-2.354-.8-2.354-.8,1.235,6.655,4.592,6.238,7.423-1.34,5.6-15.814-9.2-23.784-16.557-24.421S102.86,87.423,102.86,87.423Z" transform="translate(-102.79 -85.925)" fill="#303030"/>
              </g>
              <g id="Group_1833" data-name="Group 1833" transform="translate(22.066 2.916)">
                <path id="Path_3275" data-name="Path 3275" d="M92.789,90.269a3.614,3.614,0,0,1,.572,4.16c-1.28,2.238-5.27,14.328-5.275,16.406s.316,14.715.316,14.715-6.474,5.6-8.231-1.762.848-37.52,12.135-33.52Z" transform="translate(-79.671 -89.906)" fill="#303030"/>
              </g>
            </g>
            <g id="Group_1863" data-name="Group 1863" transform="translate(200.501 10.495)">
              <g id="Group_1841" data-name="Group 1841" transform="translate(0 107.909)">
                <g id="Group_1839" data-name="Group 1839" transform="translate(0 73.895)">
                  <g id="Group_1835" data-name="Group 1835" transform="translate(23.359 70.518)">
                    <path id="Path_3276" data-name="Path 3276" d="M493.728,624.457c-1.44,1.154-7.428.04-10.334-.592a8.847,8.847,0,0,1-.637,1.365,9.091,9.091,0,0,0-.964,4.622,2.97,2.97,0,0,0,.964,1.927s5.2.944,7.894-.683,3.849-2.2,3.849-2.2,1.927-12.512,2.7-14.439a24.328,24.328,0,0,1,1.731-3.463,32.08,32.08,0,0,1-.587-3.222A21.809,21.809,0,0,1,496.9,610.7C494.686,614.545,495.65,622.916,493.728,624.457Z" transform="translate(-481.756 -607.77)" fill="#595959"/>
                  </g>
                  <g id="Group_1836" data-name="Group 1836" transform="translate(24.997 1.179)">
                    <path id="Path_3277" data-name="Path 3277" d="M508.442,493.072a100.968,100.968,0,0,0-3.849-14.052c-.191-1.154-.191-8.853-.191-8.853l-14.845-.557c-.136,2.364-.773,14.414.517,16.15,1.43,1.927,2.78,1.927,3.162,8.085s-1.35,38.112-1.35,38.112a133.1,133.1,0,0,0-4.617,14.82,66.589,66.589,0,0,1-2.248,8.261c2.906.632,8.893,1.747,10.333.592,1.927-1.541.964-9.912,3.177-13.761a22.406,22.406,0,0,0,1.435-2.931c-.075-.557-.141-1.159-.186-1.782C499.584,534.462,510.365,502.7,508.442,493.072Z" transform="translate(-485.02 -469.61)" fill="#a7a7a7"/>
                  </g>
                  <g id="Group_1837" data-name="Group 1837" transform="translate(2.499)">
                    <path id="Path_3278" data-name="Path 3278" d="M451.267,553.311c.386-2.118,1.154-6.354,3.659-9.239,1.942-2.238,3.764-4.14,4.572-7.483-.2-.6-.336-.989-.336-.989a16.372,16.372,0,0,1-3.659-5.435c-.964-2.841,2.886-25.555,2.886-29.6s-3.272-16.747-3.272-16.747l3.272-16.557H441.832s-2.118,13.862-1.541,15.4a32.6,32.6,0,0,1,2.118,9.817c-.005,3.583,3.639,47.146,3.659,47.356L444.336,553.5a7.27,7.27,0,0,1-1.235,2.118h3.739C446.84,555.619,450.886,555.429,451.267,553.311Z" transform="translate(-440.191 -467.26)" fill="#a7a7a7"/>
                  </g>
                  <g id="Group_1838" data-name="Group 1838" transform="translate(0 69.328)">
                    <path id="Path_3279" data-name="Path 3279" d="M457.017,605.4c-.813,3.343-2.63,5.24-4.572,7.483-2.5,2.886-3.272,7.122-3.659,9.24s-4.426,2.309-4.426,2.309h-3.739a5.389,5.389,0,0,1-3.192,1.927c-3.272.577-2.118,3.272-1.541,3.463s11.744,0,11.744,0,3.272-9.43,4.813-11.167a45.517,45.517,0,0,1,3.272-3.272l-.964,13.666.964-.577,1.541-14.63s1.35.336,1.35-1.852A29.612,29.612,0,0,0,457.017,605.4Z" transform="translate(-435.211 -605.4)" fill="#595959"/>
                  </g>
                </g>
                <g id="Group_1840" data-name="Group 1840" transform="translate(2.504)">
                  <path id="Path_3280" data-name="Path 3280" d="M487.973,343.232c-2.826-7.443-3.081-16.426-3.081-16.426l-2.053-6.785s-15.914,6.524-22.072,6.785a60.313,60.313,0,0,1-10.916-.512l-1.4,25.41c-1.285,6.158-8.251,46.97-8.251,46.97s14.153,2.309,24.677,1.285S489,397.132,489,397.132,490.8,350.674,487.973,343.232Z" transform="translate(-440.2 -320.02)" fill="#fdb819"/>
                </g>
              </g>
              <g id="Group_1859" data-name="Group 1859" transform="translate(8.752 5.774)">
                <g id="Group_1858" data-name="Group 1858">
                  <g id="Group_1854" data-name="Group 1854">
                    <g id="Group_1842" data-name="Group 1842" transform="translate(17.555 18.649)">
                      <path id="Path_3281" data-name="Path 3281" d="M487.63,161.118s4.3,5.445,4.316,8.778a28.792,28.792,0,0,0,.908,6.554s.667,4,2.891,2.444,10-12,10-12L500.3,153.67Z" transform="translate(-487.63 -153.67)" fill="#d8d8d8"/>
                    </g>
                    <g id="Group_1843" data-name="Group 1843" transform="translate(9.306)">
                      <path id="Path_3282" data-name="Path 3282" d="M497.459,130.969c-.11,2.228-1.621,3.071-2.088,4.03a3.175,3.175,0,0,1-1.922,1.285,9.076,9.076,0,0,0-2.484,3.157c-1.049,2.128-1.631,1.8-4.065,2.971-.065.03-.13.065-.2.09-2.685,1.114-10.981,1.9-12.341,1.179-1.39-.748-.11-2.76-.11-2.76a3.587,3.587,0,0,0-.7-2.118c-.7-.738.467-.637.467-.637s0-.422-.587-.748c-.582-.311.351-1.581.351-1.581l.12-.959-1.159.211s-1.159-.311-1.511-.949,1.742-2.971,3.127-4.989c1.4-2.007-.231-2.329-.577-3.5s1.857-6.349,3.488-8.366,1.511.527,1.511.527l.808,1.591s.662.351,1.636.873c2.173,1.179,5.862,3.257,7.066,4.427,1.747,1.691,1.977,6.67,2.439,7.418s1.28-1.38,1.28-1.38,1.977-2.439,3.247-2.65C496.53,127.9,497.5,130.061,497.459,130.969Z" transform="translate(-471.192 -116.51)" fill="#dfdfdf"/>
                    </g>
                    <g id="Group_1844" data-name="Group 1844" transform="translate(10.17 37.545)">
                      <path id="Path_3283" data-name="Path 3283" d="M485.635,197.654l-1.019-6.334a29.928,29.928,0,0,0-4.984,6.695c-1.777,3.528-6.334,17.089-6.665,24.531s1,8.11,1,8.11Z" transform="translate(-472.914 -191.32)" fill="#fafafa"/>
                    </g>
                    <g id="Group_1845" data-name="Group 1845" transform="translate(10.6 31.101)">
                      <path id="Path_3284" data-name="Path 3284" d="M496.063,178.48l5.335,4.11s-8.778,9.335-12.446,16-15.182,26.89-15.182,26.89l12.291-38.448Z" transform="translate(-473.77 -178.48)" fill="#fbfbfb"/>
                    </g>
                    <g id="Group_1846" data-name="Group 1846" transform="translate(22.729 27.984)">
                      <path id="Path_3285" data-name="Path 3285" d="M498.1,183.939s8-7.558,9.114-9.224,1.666-2.444,1.666-2.444l2.665,5-12.888,12.667S497.527,189.444,498.1,183.939Z" transform="translate(-497.938 -172.27)" fill="#fdfdfd"/>
                    </g>
                    <g id="Group_1847" data-name="Group 1847" transform="translate(19.222 33.992)">
                      <path id="Path_3286" data-name="Path 3286" d="M490.95,190.458l1.506,5.706,2.163-5.817-1.109-6.108Z" transform="translate(-490.95 -184.24)" fill="#fdfdfd"/>
                    </g>
                    <g id="Group_1850" data-name="Group 1850" transform="translate(9.454 31.879)">
                      <g id="Group_1848" data-name="Group 1848">
                        <path id="Path_3287" data-name="Path 3287" d="M488.478,215.7c.888-4.221,15.889-15.558,19.448-21.892a9.434,9.434,0,0,0,1.184-3.864L498.59,180.03l-3.413,4.251L475.81,220.15s-2.665,25.445-3.779,28-.447,19.668,1.335,21.445c.959.959,13.952,3.995,21.1,3.719-.492-9.571-1.872-28.526-5.32-33.615C484.478,232.812,487.589,219.919,488.478,215.7Z" transform="translate(-471.488 -180.03)" fill="#001327"/>
                      </g>
                      <g id="Group_1849" data-name="Group 1849" transform="translate(15.149 9.907)">
                        <path id="Path_3288" data-name="Path 3288" d="M516.07,248.532c-.667-2.891,6.891-14.67,6.891-14.67l2.78-32.591-1.6-1.5a9.408,9.408,0,0,1-1.184,3.864c-3.558,6.334-18.559,17.666-19.447,21.892s-4,17.114.667,24c3.448,5.089,4.833,24.04,5.32,33.615,6.088-.231,11.568-.607,11.568-.607s2.223-10.223,1.887-15.111S516.738,251.423,516.07,248.532Z" transform="translate(-501.674 -199.77)" fill="#05101c"/>
                      </g>
                    </g>
                    <g id="Group_1851" data-name="Group 1851" transform="translate(13.776 30.544)">
                      <path id="Path_3289" data-name="Path 3289" d="M498.323,182.148l4.557-4.778,4.221,3.669-5,9.084-3.222.808,1,1.225L480.1,218.825s6.9-18.328,11.111-25.114S498.323,182.148,498.323,182.148Z" transform="translate(-480.1 -177.37)" fill="#f6f6f6"/>
                    </g>
                    <g id="Group_1852" data-name="Group 1852" transform="translate(0 36.205)">
                      <path id="Path_3290" data-name="Path 3290" d="M473.523,188.65s-6.424,14.9-7.091,20.456.221,15.779.221,18.113-.6,17.736-3.563,27.226c-3.332,10.67-6.1,20.336-6.1,20.336H452.65s2.891-22.78,6.113-30.559,2.113-7.307,2.223-12.321-3.222-12.9-2.444-16.236,3.95-10.333,4.311-12.888S464.881,191,464.881,191Z" transform="translate(-452.65 -188.65)" fill="#001327"/>
                    </g>
                    <g id="Group_1853" data-name="Group 1853" transform="translate(10.598 34.323)">
                      <path id="Path_3291" data-name="Path 3291" d="M484.614,184.9l-6,5.892,1.666.668-2.555,1.666s-4.557,10.78-3.889,14.333,3.332,17.892,3.332,17.892-.668-15.337.447-18.449S484.614,184.9,484.614,184.9Z" transform="translate(-473.767 -184.9)" fill="#f6f6f6"/>
                    </g>
                  </g>
                  <g id="Group_1855" data-name="Group 1855" transform="translate(36.637 134.035)">
                    <path id="Path_3292" data-name="Path 3292" d="M531.135,383.58l-5.486,8.261.11,5.631,1.225,2.815s1.48-1.631,1.405-2.815,0-4.3,0-4.3h1.375s-1.651,7.262-.291,7.262a2.937,2.937,0,0,0,2.123-.888s-.467,1.039,1.014.592,1.481-.743,1.481-.743.3.447,1.481.3,1.335-.743,1.335-.743,0,1.184.888.592,2.815-4.743,2.815-4.743l-1.039-10.9Z" transform="translate(-525.65 -383.58)" fill="#dbdbdb"/>
                  </g>
                  <g id="Group_1856" data-name="Group 1856" transform="translate(41.52 131.48)">
                    <path id="Path_3293" data-name="Path 3293" d="M535.972,378.49l-.592,2.961,10.223,1.782v-3.408Z" transform="translate(-535.38 -378.49)" fill="#fff"/>
                  </g>
                  <g id="Group_1857" data-name="Group 1857" transform="translate(39.242 43.295)">
                    <path id="Path_3294" data-name="Path 3294" d="M533.711,252.018s-3.779-19.543-2.665-26.428,5.777-22.951,9.224-22.81,4.557,4.808,4.557,9.034.447,53.56.888,57.118-1.777,25.661-1.777,25.661l-11.558-2.544Z" transform="translate(-530.841 -202.778)" fill="#f6f6f6"/>
                  </g>
                </g>
              </g>
              <g id="Group_1860" data-name="Group 1860" transform="translate(20.174 2.171)">
                <path id="Path_3295" data-name="Path 3295" d="M485.652,112.949s-.768,3.252-3.528,3.714-5.039,5.26-5.27,6.931-3.814-6.655,1.245-11.563S487.73,109.818,485.652,112.949Z" transform="translate(-475.408 -109.332)" fill="#575757"/>
              </g>
              <g id="Group_1861" data-name="Group 1861" transform="translate(27.974)">
                <path id="Path_3296" data-name="Path 3296" d="M514.563,127.09s-10.022,7.623-9.2,11c.417,1.691-1.751-2.876-2.183-5.636.075-.03-1.225-3.021-1.225-3.021s2.8.788,3.262-.161,1.977-1.8,2.088-4.03c.045-.908-.928-3.071-2.208-2.861s-3.247,2.65-3.247,2.65-.808,2.118-1.28,1.38-.693-5.726-2.439-7.418c-1.2-1.169-4.893-3.247-7.066-4.426l-.11-5.576c0-.055.09-1.134,7.387-3.222,7.483-2.143,14.083.3,16.843,6.283S514.563,127.09,514.563,127.09Z" transform="translate(-490.95 -105.006)" fill="#303030"/>
              </g>
              <g id="Group_1862" data-name="Group 1862" transform="translate(27.487 4.321)">
                <path id="Path_3297" data-name="Path 3297" d="M490.919,115.886s-3.172,2.279,2.148,5.37,5.405,4.562,5.455,7.056a22.971,22.971,0,0,1-1.164,6.133s7.824-7.824,6.595-11.965S497.819,109.442,490.919,115.886Z" transform="translate(-489.98 -113.616)" fill="#616161"/>
              </g>
            </g>
            <g id="Group_1868" data-name="Group 1868" transform="translate(174.56 90.42)">
              <g id="Group_1864" data-name="Group 1864" transform="translate(0 2.133)">
                <path id="Path_3298" data-name="Path 3298" d="M383.587,275.145s1.44,7.142,4.04,7.212c.035,0,.065-.015.1-.015l-2.7-13.832C382.939,268.58,383.657,274.5,383.587,275.145Z" transform="translate(-383.523 -268.51)" fill="#595959"/>
              </g>
              <g id="Group_1865" data-name="Group 1865" transform="translate(1.509 2.131)">
                <path id="Path_3299" data-name="Path 3299" d="M390.209,272.764c-.723-2.093-1.586-4.326-3.679-4.256l2.7,13.832C391.694,282.209,390.916,274.827,390.209,272.764Z" transform="translate(-386.53 -268.507)" fill="#efefef"/>
              </g>
              <g id="Group_1867" data-name="Group 1867" transform="translate(1.504)">
                <g id="Group_1866" data-name="Group 1866">
                  <path id="Path_3300" data-name="Path 3300" d="M405.275,264.311c-3.172-.432-18.755,2.083-18.755,2.083,2.093-.07,2.956,2.163,3.679,4.256.713,2.063,1.486,9.44-.984,9.576l.045.231s18.1-2.223,19.187-3.307,2.309-3.172,2.379-7.428S408.452,264.747,405.275,264.311Z" transform="translate(-386.52 -264.261)" fill="#efefef"/>
                </g>
              </g>
            </g>
            <g id="Group_1869" data-name="Group 1869" transform="translate(161.53 94.7)">
              <path id="Path_3301" data-name="Path 3301" d="M357.56,276.629l5.079-3.839h10.354s4.492,3.518,4.3,4.687-.848,1.169-.848,1.169a3.289,3.289,0,0,1,.065,1.691,3.59,3.59,0,0,1-1.169,1.044,1.506,1.506,0,0,1-.979,1.561,2.348,2.348,0,0,1-1.822,0,5.24,5.24,0,0,1-2.148,1.1c-1.1.2-3.709-1.044-3.709-1.044a3.863,3.863,0,0,1-3.257,1.365c-1.952-.261-5.536-2.54-5.536-2.54Z" transform="translate(-357.56 -272.79)" fill="#d8d8d8"/>
            </g>
            <g id="Group_1870" data-name="Group 1870" transform="translate(165.932 91.579)">
              <path id="Path_3302" data-name="Path 3302" d="M377.07,269.762l-4.361-3.192-4.557,2.344-1.822,3.518a1.218,1.218,0,0,0,2.148.522,11.388,11.388,0,0,0,2.344-3.192Z" transform="translate(-366.33 -266.57)" fill="#f1f1f1"/>
            </g>
            <g id="Group_1871" data-name="Group 1871" transform="translate(100.705 54.912)">
              <path id="Path_3303" data-name="Path 3303" d="M252.657,196.185s-5.862-4.1-9.962-2.148-11.719,14.65-.391,29.886,15.432,17.581,18.75,17.776,35.547,6.248,35.547,6.248,2.931-5.275,2.539-8.4a42.825,42.825,0,0,0-1.952-7.423L271.8,229C271.8,229,262.032,204.386,252.657,196.185Z" transform="translate(-236.363 -193.51)" fill="#05101c"/>
            </g>
            <g id="Group_1907" data-name="Group 1907" transform="translate(271.987 4.089)">
              <g id="Group_1872" data-name="Group 1872" transform="translate(0 73.31)">
                <path id="Path_3304" data-name="Path 3304" d="M602.192,258.92l-6.223-2.981a32.564,32.564,0,0,1-5.054.326c-1.039-.2-7-3.563-7-3.563a56.728,56.728,0,0,1-4.923-3.618c-1.425-1.3-1.039-2.083.517-1.566a21.9,21.9,0,0,0,2.2.647s-3.628-2.2-4.02-3.112,2.464-.386,2.464-.386-2.4-2.073-2.5-2.72a1.509,1.509,0,0,1,2.5-.908,34.393,34.393,0,0,0,5.184,2.72s-3.242-2.595-2.2-3.368,7.648,3.889,7.648,3.889l6.349,1.942s-2.2-2.2-2.464-3.368-1.556-3.373-.517-4.276.647.647,1.817,2.72,5.7,4.406,5.7,4.406l2.464,5.571,6.093,13.741-3.759-4.406Z" transform="translate(-577.65 -238.316)" fill="#c8c8c8"/>
              </g>
              <g id="Group_1904" data-name="Group 1904" transform="translate(2.813)">
                <g id="Group_1902" data-name="Group 1902">
                  <g id="Group_1900" data-name="Group 1900" transform="translate(9.219)">
                    <g id="Group_1873" data-name="Group 1873" transform="translate(24.118 44.324)">
                      <path id="Path_3305" data-name="Path 3305" d="M649.68,273.035h30.243V180.56l-25.4,2.013Z" transform="translate(-649.68 -180.56)" fill="#ebebeb"/>
                    </g>
                    <g id="Group_1896" data-name="Group 1896" transform="translate(0 18.628)">
                      <g id="Group_1874" data-name="Group 1874" transform="translate(38.892 244.948)">
                        <path id="Path_3306" data-name="Path 3306" d="M693.2,617.43l1.787,1.119s.557,2.569-.336,3.242-.672,1.34-7.709,1.34-7.172-.336-7.382-.783-.883-2.013.01-3.127S693.2,617.43,693.2,617.43Z" transform="translate(-679.118 -617.43)" fill="#606060"/>
                      </g>
                      <g id="Group_1875" data-name="Group 1875" transform="translate(20.013 226.103)">
                        <path id="Path_3307" data-name="Path 3307" d="M649.545,579.88s3.573,8.642,2.981,11.618-7.96,3.8-8.451,3.1-2.575-12.928-2.575-12.928Z" transform="translate(-641.5 -579.88)" fill="#d4d4d4"/>
                      </g>
                      <g id="Group_1876" data-name="Group 1876" transform="translate(6.011 104.239)">
                        <path id="Path_3308" data-name="Path 3308" d="M627.306,337.06h19.176l6.449,29.6-.326.622-18.444,34.935s4.472,25.41,4.472,31.824-.6,29.881-.6,29.881a56.728,56.728,0,0,1-10.133,1.265c-3.975-.07-5.661.005-5.661.005L613.6,404.7Z" transform="translate(-613.6 -337.06)" fill="#001327"/>
                      </g>
                      <g id="Group_1877" data-name="Group 1877" transform="translate(28.058 34.78)">
                        <path id="Path_3309" data-name="Path 3309" d="M669.043,198.66a58.3,58.3,0,0,1,.557,13.857c-.672,6.926-.672,32.627-.672,32.627l-1.676,18.1s-4.135,3.5-4.246,3.985-5.475-4.432-5.475-4.432,1.45-39.332,2.459-42.012,6.369-22.122,6.369-22.122h2.685v-.005Z" transform="translate(-657.53 -198.66)" fill="#d4d4d4"/>
                      </g>
                      <g id="Group_1878" data-name="Group 1878" transform="translate(35.21 29.176)">
                        <path id="Path_3310" data-name="Path 3310" d="M680.5,188.195l-3.8,6.8s-1.787-1.119-2.906-.783-1.23.663-1.23.663l-.783-5.8s1.566-1.777,3.463-1.561S680.5,188.195,680.5,188.195Z" transform="translate(-671.78 -187.494)" fill="#d0d0d0"/>
                      </g>
                      <g id="Group_1879" data-name="Group 1879" transform="translate(34.584 103.039)">
                        <path id="Path_3311" data-name="Path 3311" d="M701.256,355.462c-.326,3.453,1.215,20.742-.8,31.954-2.248,12.512-.914,31.583-.914,38.438s-7.99,42.308-7.99,42.308-5.375-2.088-8.512-1.787-7.187.5-7.187.5,6.048-43.4,5.049-50.252-8.908-49.163-8.908-49.163-2.821-26.815-.617-30.393,26.509-2.088,26.509-2.088S701.292,355.061,701.256,355.462Z" transform="translate(-670.534 -334.67)" fill="#001327"/>
                      </g>
                      <g id="Group_1880" data-name="Group 1880" transform="translate(6.613 32.248)">
                        <path id="Path_3312" data-name="Path 3312" d="M635.216,245.22,614.8,235.328l1.556-10.394,9.571,2.158s-7.2-34.484-2.208-33.455,13.279,13.791,14.77,16.015S635.216,245.22,635.216,245.22Z" transform="translate(-614.8 -193.615)" fill="#d59a13"/>
                      </g>
                      <g id="Group_1881" data-name="Group 1881" transform="translate(34.196)">
                        <path id="Path_3313" data-name="Path 3313" d="M675.893,129.36l10.414,21.149s-7.709,9.164-10.389,8.712-5.365-4.246-5.365-4.246l-.793-11.538Z" transform="translate(-669.76 -129.36)" fill="#cfcfcf"/>
                      </g>
                      <g id="Group_1883" data-name="Group 1883" transform="translate(29.624 29.386)">
                        <g id="Group_1882" data-name="Group 1882">
                          <path id="Path_3314" data-name="Path 3314" d="M660.65,193.642s7.654-6.64,9.842-5.621c1.556-.969,8.748,4.813,8.748,4.813l-9.581-3.122Z" transform="translate(-660.65 -187.912)" fill="#f4f4f4"/>
                        </g>
                      </g>
                      <g id="Group_1884" data-name="Group 1884" transform="translate(39.792 17.465)">
                        <path id="Path_3315" data-name="Path 3315" d="M690.049,164.16s.361,6.138-2.1,7.588-7.041,4.326-7.041,4.326l9.611,5.616,5.365-11.844Z" transform="translate(-680.91 -164.16)" fill="#fefefe"/>
                      </g>
                      <g id="Group_1885" data-name="Group 1885" transform="translate(31.747 20.878)">
                        <path id="Path_3316" data-name="Path 3316" d="M668.232,170.96l-2.8,4.291-.557,8.717,6.926-4.687s-3.127-3.578-3.127-4.477-.336-3.573-.336-3.573Z" transform="translate(-664.88 -170.96)" fill="#fefefe"/>
                      </g>
                      <g id="Group_1886" data-name="Group 1886" transform="translate(31.742 20.366)">
                        <path id="Path_3317" data-name="Path 3317" d="M664.87,230.17l.09.678,3.6,26.353s3.247,20.9,6.258,23.026,30.614,0,30.614,0l-1.566-12.512s-3.694-13.972-5.48-21.239,1.681-25.36,1.681-25.36l4.918-38.885-13.024-8.286-6.3-4s-7.493,21.229-9.385,23.794S664.87,230.17,664.87,230.17Z" transform="translate(-664.87 -169.94)" fill="#fdb819"/>
                      </g>
                      <g id="Group_1887" data-name="Group 1887" transform="translate(31.742 20.366)">
                        <path id="Path_3318" data-name="Path 3318" d="M664.87,230.17l.09.678c3.523-9,27.066-51.522,27.066-51.522l-3.468-2.369,4.361-.758-.959-2.253-6.3-4s-7.493,21.229-9.385,23.794S664.87,230.17,664.87,230.17Z" transform="translate(-664.87 -169.94)" fill="#f6f6f6"/>
                      </g>
                      <g id="Group_1888" data-name="Group 1888" transform="translate(39.34 231.086)">
                        <path id="Path_3319" data-name="Path 3319" d="M691.3,590.6s2.123,6.258,2.459,8.156,2.233,4.692,1.119,6.143-7.041,1.566-9.275,1.45-5.812,0-5.586-.893.783-7.152.783-7.152v-4.693a25.543,25.543,0,0,0,2.233-3.8Z" transform="translate(-680.01 -589.81)" fill="#595959"/>
                      </g>
                      <g id="Group_1891" data-name="Group 1891" transform="translate(0 231.653)">
                        <g id="Group_1889" data-name="Group 1889" transform="translate(0.059 13.184)">
                          <path id="Path_3320" data-name="Path 3320" d="M618.794,620.447c2.68-.11,5.7-1.676,6.033-1.676s2.57-1,4.582-.783a12.5,12.5,0,0,0,4.838-.778c-.07,1.5-.211,2.82-.482,2.956-.557.281-7.152.281-8.828.838s-5.029,2.123-7.041,2.012-15.864,0-15.864,0-.191-1.415-.291-2.559C605.519,620.482,616.575,620.542,618.794,620.447Z" transform="translate(-601.74 -617.21)" fill="#606060"/>
                        </g>
                        <g id="Group_1890" data-name="Group 1890">
                          <path id="Path_3321" data-name="Path 3321" d="M629.35,604.907c-2.013-.226-4.246.783-4.582.783s-3.352,1.566-6.033,1.676c-2.213.09-13.269.03-17.049.01a7.094,7.094,0,0,1-.045-1.35c.11-.557,8.266-3.91,9.385-4.918S618.4,590.94,618.4,590.94l4.692.336s7.262,6.815,7.6,6.479,1.23-4.918,1.23-4.918,2.349,5.475,2.349,7.041c0,.808,0,2.64-.08,4.251A12.521,12.521,0,0,1,629.35,604.907Z" transform="translate(-601.623 -590.94)" fill="#595959"/>
                        </g>
                      </g>
                      <g id="Group_1892" data-name="Group 1892" transform="translate(33.308 79.807)">
                        <ellipse id="Ellipse_144" data-name="Ellipse 144" cx="1.119" cy="1.787" rx="1.119" ry="1.787" fill="#ededed"/>
                      </g>
                      <g id="Group_1893" data-name="Group 1893" transform="translate(36.439 93.995)">
                        <path id="Path_3322" data-name="Path 3322" d="M674.23,318.773c0,1.174.6,2.123,1.34,2.123s1.34-.949,1.34-2.123-.6-2.123-1.34-2.123S674.23,317.6,674.23,318.773Z" transform="translate(-674.23 -316.65)" fill="#ededed"/>
                      </g>
                      <g id="Group_1894" data-name="Group 1894" transform="translate(8.174 23.939)">
                        <path id="Path_3323" data-name="Path 3323" d="M617.91,276.28s5.7,6.81,9.269,4.472,18.439-45.7,18.439-45.7l-.552-4.266-4.477-34.619,2.575-19.111-6.524,3.086-12.471,5.9s1.225,17.385,4.14,29.56c2.9,12.185,1.34,18.108,1.109,18.665S617.91,276.28,617.91,276.28Z" transform="translate(-617.91 -177.06)" fill="#fdb819"/>
                      </g>
                      <g id="Group_1895" data-name="Group 1895" transform="translate(22.598 23.939)">
                        <path id="Path_3324" data-name="Path 3324" d="M659.383,230.79l-4.477-34.619,2.575-19.111-6.524,3.086-2.519,6.193,2.9-1.009-4.683,4.8C646.64,190.129,655.393,217.962,659.383,230.79Z" transform="translate(-646.65 -177.06)" fill="#f6f6f6"/>
                      </g>
                    </g>
                    <g id="Group_1899" data-name="Group 1899" transform="translate(21.386)">
                      <g id="Group_1897" data-name="Group 1897" transform="translate(4.515)">
                        <path id="Path_3325" data-name="Path 3325" d="M655.771,106.043s-3.277-6.705-2.384-8.2,2.384-3.724,9.089-5.064,14.449-.151,16.983,3.127,6.7,8.642,5.365,17.726-8.5,13.244-10.589,12.647-6.841-9.52-6.841-9.52Z" transform="translate(-653.233 -92.242)" fill="#303030"/>
                      </g>
                      <g id="Group_1898" data-name="Group 1898" transform="translate(0 7.577)">
                        <path id="Path_3326" data-name="Path 3326" d="M649.106,107.34s-3.478,7.117-2.735,8.311,1.491,2.088.893,3.127-3.428,5.957-2.981,6.554a16.794,16.794,0,0,0,2.384,1.937s-1.044,1.937-.6,2.088a5.97,5.97,0,0,1,1.34,1.044s-1.787.6-1.491,1.34,1.34,2.831,1.044,3.724-1.641.893-.151,1.787,9.385-.6,9.982-.447,6.554-11.026,6.554-11.026,4.472,1.044,5.064-.6,2.831-8.045-.3-8.045a14.68,14.68,0,0,0-6.258,1.787l-5.511-7.749Z" transform="translate(-644.235 -107.34)" fill="#d4d4d4"/>
                      </g>
                    </g>
                  </g>
                  <g id="Group_1901" data-name="Group 1901" transform="translate(0 69.048)">
                    <path id="Path_3327" data-name="Path 3327" d="M609.992,245.766l-2.339-5.511a14.531,14.531,0,0,0-1.887-2.263c-.979-.9-4.3-6.188-4.376-7.091s-1.586-1.887-2.038,0,1.762,5.736,1.762,5.736-3.493-1.736-3.875-1.962-8.226-.151-8.226-.151-3.242.3-3.167.979l.075.9s-2.414.527-2.64.527.974,1.6,1.5,1.887a17.413,17.413,0,0,0,4.231.753s-.753.376-.151,1.511,5.887,1.285,5.887,1.285,2.866,3.624,4.828,4.226,6.585,2.263,6.585,2.263l1.184,2.238,2.866-5.335h-.221v.005Z" transform="translate(-583.254 -229.824)" fill="#d4d4d4"/>
                  </g>
                </g>
                <g id="Group_1903" data-name="Group 1903" transform="translate(41.111 95.977)">
                  <path id="Path_3328" data-name="Path 3328" d="M665.17,285.6c0,1.174.6,2.123,1.34,2.123s1.34-.949,1.34-2.123-.6-2.123-1.34-2.123S665.17,284.428,665.17,285.6Z" transform="translate(-665.17 -283.48)" fill="#ededed"/>
                </g>
              </g>
              <g id="Group_1905" data-name="Group 1905" transform="translate(24.551 82.16)">
                <path id="Path_3329" data-name="Path 3329" d="M633.666,256.592l.281.477-3.2,10.158-4.176-3.6a9.15,9.15,0,0,1,2.439-3.5c1.466-1.029,1.536-4.181,1.536-4.181Z" transform="translate(-626.57 -255.95)" fill="#c2c2c2"/>
              </g>
              <g id="Group_1906" data-name="Group 1906" transform="translate(24.551 50.551)">
                <path id="Path_3330" data-name="Path 3330" d="M681.168,194.569s2.163-2.615,4.221-1.164,5.039,3.036-3.558,28.371c-15.508,45.69-55.261,13.9-55.261,13.9s4.482-4.5,5.646-7.277c1.154-2.745.923-7.272.923-7.272s16.647,13.064,21.244,9.857,11.764-18.062,15.192-22.574S681.168,194.569,681.168,194.569Z" transform="translate(-626.57 -192.967)" fill="#fdb819"/>
              </g>
            </g>
          </g>
        </g>
      </g>
    </g>
  </g>
</svg>
