<svg xmlns="http://www.w3.org/2000/svg" id="Capa_1" enable-background="new 0 0 512.035 512.035" viewBox="0 0 512.035 512.035" width="60" height="60"><circle cx="256.018" cy="256.012" r="10" /><path d="m 256.018 66.012 c 5.522 0 10 -4.477 10 -10 v -46 c 0 -5.523 -4.478 -10 -10 -10 s -10 4.477 -10 10 v 46 c 0 5.523 4.478 10 10 10 Z" /><path d="m 256.018 166.012 c 5.522 0 10 -4.477 10 -10 v -46 c 0 -5.523 -4.478 -10 -10 -10 s -10 4.477 -10 10 v 46 c 0 5.523 4.478 10 10 10 Z" /><path d="m 142.539 369.581 c -23.389 -23.387 -61.45 -23.39 -84.853 0 c -23.45 23.451 -23.456 61.406 0.002 84.864 c 23.395 23.383 61.457 23.391 84.851 -0.001 c 23.452 -23.453 23.455 -61.408 0 -84.863 Z m -14.142 70.72 c -15.592 15.592 -40.97 15.592 -56.567 0 c -15.633 -15.631 -15.64 -40.938 -0.002 -56.576 c 15.594 -15.587 40.971 -15.6 56.569 -0.001 c 15.635 15.633 15.639 40.94 0 56.577 Z" /><path d="m 492.844 353.209 c -20.753 -28.228 -53.838 -43.416 -88.509 -40.635 c -20.747 1.676 -40.95 -5.667 -55.416 -20.133 l -36.361 -36.361 l 154.041 -154.146 c 27.355 -27.355 27.358 -71.634 0 -98.993 c -1.876 -1.875 -4.42 -2.929 -7.073 -2.929 c -2.652 0 -5.196 1.055 -7.071 2.931 l -196.455 196.572 l -196.418 -196.571 c -1.876 -1.876 -4.419 -2.931 -7.072 -2.932 c -0.001 0 -0.001 0 -0.002 0 c -2.652 0 -5.195 1.054 -7.071 2.929 c -27.35 27.35 -27.362 71.63 -0.004 98.989 l 154.008 154.171 l -36.324 36.341 c -14.465 14.466 -34.678 21.799 -55.418 20.133 c -34.666 -2.79 -67.754 12.406 -88.506 40.634 c -24.223 32.936 -25.667 78.574 -3.483 112.593 c 9.32 14.3 21.393 25.631 35.883 33.678 c 4.823 2.682 10.914 0.942 13.597 -3.887 c 2.682 -4.828 0.941 -10.916 -3.888 -13.597 c -11.611 -6.449 -21.313 -15.571 -28.837 -27.115 c -17.493 -26.827 -16.325 -63.763 2.84 -89.825 c 16.619 -22.604 43.094 -34.771 70.79 -32.546 c 26.614 2.139 52.546 -7.309 71.165 -25.928 c 9.994 -9.999 76.671 -76.706 85.571 -85.61 c 0.052 -0.049 0.109 -0.091 0.16 -0.141 c 0.085 -0.083 0.158 -0.174 0.24 -0.259 l 195.596 -195.712 c 12.534 18.88 11.153 45.408 -6.372 62.934 c -0.451 0.451 -246.416 246.576 -246.897 247.058 c -18.451 18.451 -27.893 44.593 -25.901 71.724 c 1.697 23.104 -6.675 45.704 -22.968 62.006 c -5.344 5.343 -11.37 9.884 -17.911 13.498 c -4.834 2.67 -6.588 8.754 -3.917 13.588 c 2.671 4.835 8.753 6.588 13.589 3.917 c 8.182 -4.52 15.711 -10.193 22.383 -16.863 c 20.407 -20.418 30.894 -48.707 28.771 -77.611 c -1.565 -21.327 5.761 -41.781 20.099 -56.119 l 36.309 -36.326 l 36.327 36.328 c 14.337 14.336 21.663 34.791 20.099 56.116 c -2.124 28.905 8.362 57.194 28.771 77.614 c 44.626 44.624 119.509 37.717 155.117 -16.919 c 22.153 -33.974 20.77 -79.618 -3.482 -112.596 Z m -433.265 -265.418 c -17.242 -17.241 -19.138 -43.697 -6.371 -62.93 l 188.653 188.8 l -28.281 28.294 Z m 419.991 367.091 c -28.478 43.693 -88.311 49.611 -124.219 13.701 c -16.296 -16.303 -24.668 -38.904 -22.97 -62.009 c 1.99 -27.129 -7.451 -53.271 -25.902 -71.722 l -36.331 -36.332 l 28.273 -28.292 l 36.356 36.356 c 18.619 18.618 44.563 28.069 71.162 25.926 c 27.699 -2.226 54.173 9.941 70.793 32.547 c 19.164 26.06 20.332 62.997 2.838 89.825 Z" /><path d="m 369.496 369.581 c -23.452 23.453 -23.454 61.407 0 84.862 c 23.392 23.39 61.453 23.386 84.853 0 c 23.45 -23.451 23.456 -61.406 -0.002 -84.864 c -23.398 -23.386 -61.462 -23.385 -84.851 0.002 Z m 70.712 70.719 c -15.6 15.592 -40.978 15.593 -56.569 0.001 c -15.635 -15.633 -15.639 -40.94 0 -56.577 c 15.592 -15.592 40.97 -15.592 56.567 0 c 15.633 15.631 15.641 40.938 0.002 56.576 Z" /><circle cx="100.018" cy="502.012" r="10" /></svg>