<svg xmlns="http://www.w3.org/2000/svg" viewBox="0 0 512 512" width="512" height="512">
	<style>
		tspan { white-space:pre }
		.shp0 { fill: #fdb819 } 
		.shp1 { fill: #ffffff } 
		.shp2 { fill: #000000 } 
	</style>
	<path id="Shape 1 copy" class="shp0" d="M404 429.46C381.33 429.46 363 410.58 363 387.23C363 363.88 381.33 345 404 345C426.67 345 445 363.88 445 387.23C445 410.58 426.67 429.46 404 429.46Z" />
	<path id="Shape 1 copy 2" class="shp0" d="M171 428.46C148.33 428.46 130 409.58 130 386.23C130 362.88 148.33 344 171 344C193.67 344 212 362.88 212 386.23C212 409.58 193.67 428.46 171 428.46Z" />
	<g id="Layer">
		<g id="Layer">
			<path id="Shape 1" class="shp1" d="M405 410C392.28 410 382 399.72 382 387C382 374.28 392.28 364 405 364C417.72 364 428 374.28 428 387C428 399.72 417.72 410 405 410Z" />
			<path id="Shape 1 copy 3" class="shp1" d="M171 407C158.28 407 148 396.72 148 384C148 371.28 158.28 361 171 361C183.72 361 194 371.28 194 384C194 396.72 183.72 407 171 407Z" />
			<path id="Layer" fill-rule="evenodd" class="shp2" d="M512 285.7C512 290.2 511.6 297.6 510.8 306.4L510.8 306.5C508.2 336.9 502.3 384.1 502 386.6C501.9 386.7 501.9 386.8 501.9 386.9C501.8 387 501.8 387.1 501.8 387.2C501.8 387.4 501.7 387.5 501.7 387.6C501.7 387.7 501.6 387.8 501.6 387.9C501.5 388.1 501.5 388.2 501.4 388.4C501.3 388.5 501.3 388.5 501.3 388.6C501.2 388.8 501.1 389 501 389.2C500.9 389.4 500.8 389.6 500.7 389.8L500.6 389.9C500.5 390 500.4 390.2 500.3 390.3C500.2 390.4 500.2 390.4 500.1 390.5C500 390.6 499.9 390.7 499.8 390.8C499.7 390.9 499.7 390.9 499.6 391C499.5 391.1 499.4 391.2 499.3 391.3C499.3 391.4 499.2 391.4 499.1 391.5C499 391.6 498.9 391.6 498.8 391.7C498.7 391.8 498.6 391.8 498.5 391.9C498.4 392 498.3 392 498.2 392.1C498.1 392.2 498 392.2 497.9 392.3C497.8 392.4 497.7 392.4 497.6 392.5C497.5 392.5 497.4 392.6 497.3 392.6C497.1 392.6 497 392.7 496.9 392.7C496.8 392.7 496.7 392.8 496.6 392.8C496.5 392.8 496.3 392.9 496.2 392.9C496.2 393 496.1 393 496 393C495.8 393.1 495.6 393.1 495.4 393.1C495.2 393.1 461.5 393.1 461.2 393.1C457.5 421.1 433.5 442.7 404.6 442.7C375.7 442.7 351.7 421.1 348 393.1L227.7 393.1C224 421.1 200 442.7 171.1 442.7C142.2 442.7 118.2 421.1 114.5 393.1C114.3 393.1 80.6 393.1 80.4 393.1C80.1 393.1 79.9 393 79.7 393L79.6 393C79.3 392.9 79.1 392.9 78.9 392.8C78.8 392.8 78.8 392.8 78.8 392.8C78.6 392.7 78.4 392.7 78.2 392.6L78.1 392.6C78 392.5 77.8 392.5 77.7 392.4C77.1 392.1 76.5 391.7 76 391.2C75.9 391.2 75.8 391.1 75.7 391C74.9 390.2 74.3 389.2 73.9 388.1L73.9 388C73.8 387.9 73.8 387.8 73.8 387.7C73.8 387.6 73.7 387.4 73.7 387.3C73.7 387.2 73.7 387.2 73.7 387.1C73.7 386.9 73.6 386.7 73.6 386.5C73.6 386.4 73.6 386.4 73.6 386.3C73.6 386.1 73.6 385.9 73.6 385.7C73.6 385.6 73.6 385.4 73.6 385.3C73.6 385.2 73.6 385.1 73.6 385L81.3 305L86.3 253.3L61 253.3C56.9 253.3 53.5 249.9 53.5 245.8C53.5 241.7 56.9 238.3 61 238.3L87.8 238.3L97 143.3L7.5 143.3C3.4 143.3 0 139.9 0 135.8C0 131.7 3.4 128.3 7.5 128.3L98.5 128.3L103.6 75.4C103.6 75.3 103.6 75.3 103.6 75.2C103.6 75 103.7 74.8 103.7 74.6C103.7 74.5 103.7 74.5 103.7 74.5C104.4 71.1 107.5 68.6 111 68.6L201 68.6C205.1 68.6 208.5 72 208.5 76.1C208.5 80.2 205.1 83.6 201 83.6L117.8 83.6L113.5 128.3L191 128.3C195.1 128.3 198.5 131.7 198.5 135.8C198.5 139.9 195.1 143.3 191 143.3L112 143.3L102.8 238.3L151 238.3C155.1 238.3 158.5 241.7 158.5 245.8C158.5 249.9 155.1 253.3 151 253.3L101.4 253.3L97 298.3L357.6 298.3L361.4 255.1L376.3 83.7L231 83.7C226.9 83.7 223.5 80.3 223.5 76.2C223.5 72.1 226.9 68.7 231 68.7C231.1 68.7 384.6 68.7 384.7 68.7C384.8 68.7 385 68.7 385.1 68.7C385.2 68.7 385.2 68.7 385.2 68.7C385.4 68.8 385.5 68.8 385.6 68.8C385.7 68.9 385.9 68.9 386 68.9C386.1 68.9 386.2 69 386.3 69C386.4 69 386.6 69.1 386.7 69.1C386.8 69.2 386.8 69.2 386.9 69.2C387.1 69.3 387.2 69.3 387.4 69.4C387.5 69.4 387.5 69.4 387.5 69.4C390.2 70.6 392 73.3 392 76.3C392 76.4 392 76.4 392 76.4C392 76.6 392 76.8 392 77L382.3 188.5L414.5 188.5C468.3 188.5 512 232.3 512 285.7ZM377 248.5L407.8 248.5L411.7 203.5L381 203.5L377 248.5ZM213.1 386C213.1 362.8 194.2 343.9 171 343.9C147.8 343.9 128.9 362.8 128.9 386C128.9 409.2 147.8 428.1 171 428.1C194.2 428.1 213.1 409.2 213.1 386ZM446.6 386C446.6 362.8 427.7 343.9 404.5 343.9C381.3 343.9 362.4 362.8 362.4 386C362.4 409.2 381.3 428.1 404.5 428.1C427.7 428.1 446.6 409.2 446.6 386ZM495.1 312.7C478 309.9 467.9 298.3 458.8 287.9C447.8 275.3 437.5 263.4 414.5 263.4L375.7 263.4L371.9 306.5C371.9 306.6 371.9 306.6 371.9 306.6C371.8 306.8 371.8 306.9 371.8 307C371.7 307.2 371.7 307.3 371.7 307.4C371.7 307.6 371.6 307.7 371.6 307.8C371.6 308 371.5 308.1 371.5 308.2C371.5 308.3 371.4 308.4 371.4 308.5C371.4 308.7 371.3 308.8 371.3 308.9C371.3 309 371.2 309.1 371.2 309.2C371.1 309.4 371.1 309.5 371 309.6C371 309.7 371 309.8 370.9 309.9C370.8 310 370.8 310.1 370.7 310.2C370.6 310.2 370.6 310.3 370.5 310.4C370.5 310.5 370.4 310.6 370.3 310.7C370.2 310.7 370.2 310.8 370.1 310.9C370 311 369.9 311.1 369.8 311.2C369.8 311.3 369.7 311.3 369.6 311.4C369.5 311.5 369.4 311.6 369.3 311.7C369.2 311.8 369.1 311.8 369 311.9C368.9 312 368.8 312 368.7 312.1C368.6 312.2 368.5 312.2 368.4 312.3C368.3 312.4 368.2 312.4 368.1 312.5C368 312.6 367.9 312.6 367.8 312.7C367.7 312.8 367.6 312.8 367.5 312.9C367.4 312.9 367.3 313 367.2 313C367.1 313 366.9 313.1 366.8 313.1C366.7 313.1 366.6 313.2 366.5 313.2C366.4 313.2 366.2 313.3 366.1 313.3C366.1 313.4 366 313.4 365.9 313.4C365.7 313.4 365.5 313.5 365.3 313.5C365.1 313.5 95.9 313.5 95.6 313.5L89.3 378.5L114.4 378.5C118.1 350.6 142.1 328.9 171 328.9C199.9 328.9 223.9 350.5 227.6 378.5L347.9 378.5C351.6 350.6 375.6 328.9 404.5 328.9C433.4 328.9 457.4 350.5 461.1 378.5L487.9 378.5C489.4 365.6 493 335.9 495.1 312.7ZM497 286C497 244.6 466.4 210.3 426.6 204.4L422.7 248.9C447 251.6 459.7 266.2 470.1 278.1C478.4 287.7 485.3 295.5 496.4 297.8C496.8 292.9 497 288.8 497 286Z" />
		</g>
	</g>
	<g id="Layer">
		<g id="Layer">
			<path id="Layer" fill-rule="evenodd" class="shp2" d="M198.5 386C198.5 401.2 186.2 413.5 171 413.5C155.8 413.5 143.5 401.2 143.5 386C143.5 370.8 155.8 358.5 171 358.5C186.2 358.5 198.5 370.9 198.5 386ZM183.5 386C183.5 379.1 177.9 373.5 171 373.5C164.1 373.5 158.5 379.1 158.5 386C158.5 392.9 164.1 398.5 171 398.5C177.9 398.5 183.5 392.9 183.5 386Z" />
		</g>
	</g>
	<g id="Layer">
		<g id="Layer">
			<path id="Layer" fill-rule="evenodd" class="shp2" d="M432 386C432 401.2 419.7 413.5 404.5 413.5C389.3 413.5 377 401.2 377 386C377 370.8 389.3 358.5 404.5 358.5C419.7 358.5 432 370.9 432 386ZM417 386C417 379.1 411.4 373.5 404.5 373.5C397.6 373.5 392 379.1 392 386C392 392.9 397.6 398.5 404.5 398.5C411.4 398.5 417 392.9 417 386Z" />
		</g>
	</g>
	<g id="Layer">
		<g id="Layer">
			<path id="Layer" class="shp2" d="M71 188.5L34.3 188.5C30.2 188.5 26.8 191.9 26.8 196C26.8 200.1 30.2 203.5 34.3 203.5L71 203.5C75.1 203.5 78.5 200.1 78.5 196C78.5 191.9 75.1 188.5 71 188.5Z" />
		</g>
	</g>
</svg>