<svg xmlns="http://www.w3.org/2000/svg" viewBox="0 0 487 487" width="513" height="513">
	<style>
		tspan { white-space:pre }
		.shp0 { fill: #fdb819 } 
		.shp1 { fill: #000000 } 
	</style>
	<path id="Shape 1" class="shp0" d="M248.5 330.39C189.61 330.39 142 281.36 142 220.7C142 160.03 189.61 111 248.5 111C307.39 111 355 160.03 355 220.7C355 281.36 307.39 330.39 248.5 330.39Z" />
	<path id="Layer" class="shp1" d="M249.8 258.7C249 258.5 248.3 258.5 247.5 258.6C239.8 257.7 234 251.2 234 243.5C234 239.8 231 236.8 227.3 236.8C223.6 236.8 220.6 239.8 220.6 243.5C220.6 256.4 229.2 267.7 241.7 271.1L241.7 277.8C241.7 281.5 244.7 284.5 248.4 284.5C252.1 284.5 255.1 281.5 255.1 277.8L255.1 271.5C269.5 268.5 279.2 255.1 277.7 240.5C276.2 225.9 263.9 214.8 249.2 214.8C240.8 214.8 234 208 234 199.6C234 191.2 240.8 184.4 249.2 184.4C257.6 184.4 264.4 191.2 264.4 199.6C264.4 203.3 267.4 206.3 271.1 206.3C274.8 206.3 277.8 203.3 277.8 199.6C277.8 186.1 268.3 174.4 255 171.6L255 165.5C255 161.8 252 158.8 248.3 158.8C244.6 158.8 241.6 161.8 241.6 165.5L241.6 172C227.8 175.8 218.9 189.2 220.8 203.4C222.7 217.6 234.8 228.2 249.2 228.2C257.5 228.2 264.3 234.8 264.4 243.1C264.6 251.5 258 258.4 249.8 258.7Z" />
	<path id="Layer" fill-rule="evenodd" class="shp1" d="M249.2 106.4C313.1 106.4 365 158.3 365 222.2C365 286.1 313.1 338 249.2 338C185.3 338 133.4 286.2 133.4 222.2C133.4 158.2 185.3 106.4 249.2 106.4ZM149.3 222.1C149.3 277.3 194.1 322 249.2 322C304.3 322 349.1 277.4 349.1 222.2C349.1 167 304.4 122.3 249.2 122.3C194.1 122.4 149.4 167 149.3 222.1Z" />
	<path id="Layer" fill-rule="evenodd" class="shp1" d="M457.7 374C459.8 377.6 458.6 382.3 455.1 384.6L312.6 476.8C312.3 477 311.9 477.1 311.6 477.3C297.7 483.7 282.5 487 267.1 487C259.8 487 252.6 486.3 245.5 484.8C245.3 484.8 245.2 484.8 245 484.7L146.7 457.1C139.6 455.1 132.1 455.9 125.6 459.4L109.1 468.2L108.9 474.9C108.8 479.3 105.2 482.7 100.9 482.7L100.7 482.7L37.4 481C33 480.9 29.5 477.2 29.6 472.8L33.4 333.8C33.5 329.4 37.2 325.9 41.6 326L104.9 327.7C109.3 327.8 112.8 331.5 112.7 335.9L112.3 349.2C142.3 333.5 178.2 333.4 208.3 349.1L214.2 352.1C222.4 356.3 231.4 358.6 240.5 358.9L298.3 360.5C316.6 361 333.2 371.2 341.8 387.3L404.4 357.7C423.7 348 447.1 355.2 457.7 374ZM93.3 466.4L96.7 343.4L49.3 342.1L45.9 465.1L93.3 466.4ZM439.4 375.8C431.9 368.8 420.9 367.3 411.8 371.9C411.7 371.9 411.7 372 411.6 372L347.4 402.3C348 405.8 348.3 409.2 348.2 412.7C348.1 417.1 344.5 420.5 340.2 420.5L340 420.5L245 417.9C240.6 417.8 237.1 414.1 237.2 409.7C237.3 405.3 241 401.8 245.4 401.9L331.4 404.3C328.1 388.4 314.3 376.9 298.1 376.4L240.3 374.8C228.7 374.4 217.4 371.5 207.1 366.2L201.2 363.2C172.8 348.5 138.6 350.3 112 368L109.7 449.8L118.1 445.3C128.2 439.9 140 438.6 151 441.7L249 469.2C267.7 473 287 470.8 304.4 463L439.4 375.8Z" />
	<path id="Layer" class="shp1" d="M257.2 83.9L257.2 8C257.2 3.6 253.6 0 249.2 0C244.8 0 241.2 3.6 241.2 8L241.2 83.9C241.2 88.3 244.8 91.9 249.2 91.9C253.6 91.9 257.2 88.3 257.2 83.9Z" />
	<path id="Layer" class="shp1" d="M317.1 83.9L317.1 47.9C317.1 43.5 313.5 39.9 309.1 39.9C304.7 39.9 301.1 43.5 301.1 47.9L301.1 83.8C301.1 88.2 304.7 91.8 309.1 91.8C313.5 91.9 317.1 88.3 317.1 83.9Z" />
	<path id="Layer" class="shp1" d="M197.3 83.9L197.3 47.9C197.3 43.5 193.7 39.9 189.3 39.9C184.9 39.9 181.3 43.5 181.3 47.9L181.3 83.8C181.3 88.2 184.9 91.8 189.3 91.8C193.7 91.8 197.3 88.3 197.3 83.9Z" />
</svg>