<svg xmlns="http://www.w3.org/2000/svg" viewBox="0 0 488 488" width="512" height="512">
	<style>
		tspan { white-space:pre }
		.shp0 { fill: #000000 } 
	</style>
	<g id="Layer">
		<g id="Layer">
			<path id="Layer" fill-rule="evenodd" class="shp0" d="M484 208L484 328C484 347.3 470.2 363.5 452 367.2L452 488L436 488L436 368L364 368L364 480C364 484.4 360.4 488 356 488L308 488C303.6 488 300 484.4 300 480L300 352L252 352L252 472L284 472L284 488L204 488L204 472L236 472L236 352L188 352L188 480C188 484.4 184.4 488 180 488L132 488C127.6 488 124 484.4 124 480L124 368L52 368L52 488L36 488L36 367.2C17.8 363.5 4 347.3 4 328L4 208C4 188.1 18.6 171.7 37.6 168.6C26.8 158.4 20 144 20 128C20 97.1 45.1 72 76 72C106.9 72 132 97.1 132 128C132 147.6 121.9 164.9 106.5 174.9C117 182.1 124 194.3 124 208L124 264L156 264L156 224C156 195.3 177.6 171.7 205.4 168.4C194.7 158.2 188 143.9 188 128C188 97.1 213.1 72 244 72C274.9 72 300 97.1 300 128C300 143.9 293.3 158.2 282.6 168.4C310.4 171.7 332 195.4 332 224L332 264L364 264L364 208C364 194.3 371 182.1 381.5 174.9C366.2 164.9 356 147.6 356 128C356 97.1 381.1 72 412 72C442.9 72 468 97.1 468 128C468 144 461.2 158.4 450.4 168.6C469.4 171.7 484 188.1 484 208ZM412 168C434.1 168 452 150.1 452 128C452 105.9 434.1 88 412 88C389.9 88 372 105.9 372 128C372 150.1 389.9 168 412 168ZM244 168C266.1 168 284 150.1 284 128C284 105.9 266.1 88 244 88C221.9 88 204 105.9 204 128C204 150.1 221.9 168 244 168ZM172.1 224L172.1 264L204.1 264C208.5 264 212.1 267.6 212.1 272L212.1 304L276.1 304L276.1 272C276.1 267.6 279.7 264 284.1 264L316.1 264L316.1 224C316.1 201.9 298.2 184 276.1 184L273.6 184L251.6 242.8C250.4 245.9 247.4 248 244.1 248C240.8 248 237.8 245.9 236.6 242.8L214.5 184L212 184C189.9 184 172 201.9 172 224L172.1 224ZM231.5 184L244 217.2L256.5 184L231.5 184ZM76 168C98.1 168 116 150.1 116 128C116 105.9 98.1 88 76 88C53.9 88 36 105.9 36 128C36 150.1 53.9 168 76 168ZM172 344C172 330.8 161.2 320 148 320L76 320C71.6 320 68 316.4 68 312L68 232L84 232L84 304L196 304L196 280L116 280C111.6 280 108 276.4 108 272L108 208C108 194.8 97.2 184 84 184L44 184C30.8 184 20 194.8 20 208L20 328C20 341.2 30.8 352 44 352L132 352C136.4 352 140 355.6 140 360L140 472L172 472L172 344ZM308 320L180 320C183.5 324.6 185.9 330.1 187.1 336L300.9 336C302.1 330.1 304.5 324.6 308 320ZM468 208C468 194.8 457.2 184 444 184L404 184C390.8 184 380 194.8 380 208L380 272C380 276.4 376.4 280 372 280L292 280L292 304L404 304L404 232L420 232L420 312C420 316.4 416.4 320 412 320L340 320C326.8 320 316 330.8 316 344L316 472L348 472L348 360C348 355.6 351.6 352 356 352L444 352C457.2 352 468 341.2 468 328L468 208Z" />
		</g>
	</g>
	<g id="Layer">
		<g id="Layer">
			<path id="Layer" class="shp0" d="M236 264L252 264L252 280L236 280L236 264Z" />
		</g>
	</g>
	<g id="Layer">
		<g id="Layer">
			<path id="Layer" fill-rule="evenodd" class="shp0" d="M212 8L212 48C212 52.4 208.4 56 204 56L166.7 56L136.8 78.4C135.4 79.5 133.7 80 132 80C130.8 80 129.5 79.8 128.4 79.2C125.7 77.8 124 75 124 72L124 56L92 56C87.6 56 84 52.4 84 48L84 8C84 3.6 87.6 0 92 0L204 0C208.4 0 212 3.6 212 8ZM196 16L100 16L100 40L132 40C136.4 40 140 43.6 140 48L140 56L159.2 41.6C160.6 40.6 162.3 40 164 40L196 40L196 16Z" />
		</g>
	</g>
	<g id="Layer">
		<g id="Layer">
			<path id="Layer" class="shp0" d="M284 24L300 24L300 40L284 40L284 24Z" />
		</g>
	</g>
	<g id="Layer">
		<g id="Layer">
			<path id="Layer" class="shp0" d="M316 24L332 24L332 40L316 40L316 24Z" />
		</g>
	</g>
	<g id="Layer">
		<g id="Layer">
			<path id="Layer" class="shp0" d="M348 24L364 24L364 40L348 40L348 24Z" />
		</g>
	</g>
</svg>