<svg xmlns="http://www.w3.org/2000/svg" viewBox="0 0 464 464" width="512" height="512">
	<style>
		tspan { white-space:pre }
		.shp0 { fill: #000000 } 
	</style>
	<g id="Layer">
		<g id="Layer">
			<path id="Layer" class="shp0" d="M230.4 54C229.8 48.1 228 42.4 225.1 37.3C222.1 32 218 27.4 213.1 23.9C202.6 16.4 187.5 12.5 167.4 14.7C143.4 17.3 118.3 3.1 115.4 1.5C112.3 -0.8 107.8 -0.1 105.5 3C104.5 4.4 104 6.2 104.2 7.9C108.4 49.1 118.2 77.1 130.5 94.7C137.4 105.5 147.7 113.8 159.7 118.3C170 121.8 181.2 121.4 191.2 117.3C194.2 116.1 197 114.7 199.7 113.1C199.2 112.2 198.6 111.2 198 110.3C196 107.2 193.6 104.4 190.9 101.9C189.4 102.8 187.8 103.6 186.1 104.2C179.2 107.1 171.5 107.3 164.4 105C155.3 101.4 147.5 95 142.3 86.7C132.5 72.7 124.5 50.9 120.1 19.5C131.9 24.6 150.5 30.7 168.8 28.7C185.1 26.9 196.8 29.7 204.8 35.3C208.1 37.6 210.8 40.7 212.8 44.2C214.7 47.7 215.9 51.6 216.4 55.6C216.8 59.4 216.6 63.3 215.9 67C220.1 70.3 224 74.1 227.5 78.1C230.2 70.3 231.2 62.1 230.4 54Z" />
		</g>
	</g>
	<g id="Layer">
		<g id="Layer">
			<path id="Layer" class="shp0" d="M296.3 72.3C293.1 70 288.7 70.8 286.4 73.9C286.3 74 286.3 74.1 286.2 74.1C281.2 81.5 273.6 85.6 265.8 89.9C253.8 96.5 241.2 103.4 233.2 120.6C223.6 85.4 203.6 74.4 184.3 63.8C173.5 57.9 163.1 52.2 155.9 41.7C153.6 38.5 149.2 37.8 146 40.1C142.9 42.3 142.1 46.6 144.2 49.7C153.2 62.9 165.2 69.5 177.4 76.2C197.7 87.3 219.1 99 223.6 149.8C224.2 149.8 229.8 149.8 231.9 149.8C234 149.8 239.3 149.8 239.9 150C244.2 118 258.7 110 272.5 102.6C281.9 97.3 290.9 92.4 297.8 82.2C300.2 79 299.5 74.5 296.3 72.3Z" />
		</g>
	</g>
	<g id="Layer">
		<g id="Layer">
			<path id="Layer" fill-rule="evenodd" class="shp0" d="M381.7 313.7C381.7 396.5 314.5 463.6 231.7 463.5C191.9 463.5 153.8 447.7 125.7 419.5C97.6 391.4 81.9 353.3 81.9 313.5C81.9 230.7 149.1 163.6 231.9 163.7C314.7 163.8 381.7 230.9 381.7 313.7ZM367 313.9C367 308.6 366.7 303.2 366.1 297.9C353.4 280.1 337.3 270.2 323.5 261.7C297.8 245.7 278.8 234.1 292.4 192.5C273.5 183 252.7 178.1 231.5 178.1C200.9 178.1 171.2 188.4 147.3 207.5C151.9 225.4 164.5 236.3 175.9 246.1C189.3 257.5 201 267.6 201.3 285.5C201.5 298.9 194.9 307.1 187.5 316.1C180.9 323 176.2 331.4 173.5 340.6C172.8 346.6 172.7 352.7 173.2 358.8C173.5 372.1 174.1 387.6 169.2 399C165.2 410.2 153.8 417.1 141.9 415.5C158.4 430.1 178.2 440.4 199.6 445.6C196.8 432.1 202.5 418.2 214 410.6C226 401.9 246.4 408 268 414.4C284.5 419.2 301.6 424.4 312.9 422.4C347.1 396.7 367.2 356.5 367 313.9ZM156.2 393.4C159.9 384.8 159.3 371.1 158.9 359.3C158.2 352 158.5 344.6 159.6 337.3C162.7 326.1 168.4 315.7 176.4 307.1C182 300.2 187 293.9 187 285.6C186.8 274.1 177.3 265.9 166.6 256.7C154.9 246.6 142.1 235.6 135.6 217.7C110.2 243.2 95.9 277.7 96 313.7C95.9 343.6 105.8 372.6 124 396.3C144.2 404.6 152.9 401.4 156.2 393.4ZM292.1 435.3C283 433.5 273.5 430.7 264.1 427.9C245.9 422.5 228.7 417.3 222.5 421.9C214 427.8 210.9 438.9 215.1 448.4C220.6 449 226.2 449.4 231.7 449.4C252.6 449.4 273.3 444.5 292.1 435.3ZM331.2 249.4C341.4 255.3 351.1 262.2 360.1 269.8C350.2 240.9 330.9 216.2 305.2 199.6C297.2 228.4 311.7 237.4 331.2 249.4Z" />
		</g>
	</g>
	<g id="Layer">
		<g id="Layer">
			<path id="Layer" class="shp0" d="M321.7 42.6C320.2 42.5 318.7 42.8 317.4 43.5C317.4 43.5 297.8 55.1 279.6 53.1C264.3 51.4 252.6 54.4 244.5 60.3C240.6 63.1 237.4 66.7 235 70.8C232.8 74.8 231.4 79.3 231 83.9C230.5 88.3 230.7 92.8 231.6 97.2C235.6 92.9 240.1 89.1 245 85.8L245 85.4C245.3 82.7 246.1 80.1 247.4 77.7C248.7 75.4 250.6 73.3 252.8 71.8C258.2 67.8 266.6 66 278.1 67.2C289.7 68 301.4 66.1 312.1 61.5C308.8 82.8 303.1 97.5 296.4 107.3C292.8 113.1 287.4 117.7 281 120.2C277.3 121.5 273.2 121.7 269.4 120.7C265.7 124.1 262.4 127.9 259.6 132.1L261.1 132.7C268.9 135.9 277.7 136.2 285.7 133.5C295 130 302.9 123.6 308.2 115.3C317.4 102 324.8 81 328 50.2C328.5 46.4 325.6 42.9 321.7 42.6Z" />
		</g>
	</g>
</svg>