<svg xmlns="http://www.w3.org/2000/svg" viewBox="0 0 513 513" width="513" height="513">
	<style>
		tspan { white-space:pre }
		.shp0 { fill: #000000 } 
		.shp1 { fill: #fdb819 } 
	</style>
	<path id="Layer" class="shp0" d="M256.02 266.01C250.49 266.01 246.02 261.54 246.02 256.01C246.02 250.48 250.49 246.01 256.02 246.01C261.55 246.01 266.02 250.48 266.02 256.01C266.02 261.54 261.55 266.01 256.02 266.01Z" />
	<path id="Layer" class="shp0" d="M256.02 66.01C261.54 66.01 266.02 61.53 266.02 56.01L266.02 10.01C266.02 4.49 261.54 0.01 256.02 0.01C250.5 0.01 246.02 4.49 246.02 10.01L246.02 56.01C246.02 61.53 250.5 66.01 256.02 66.01Z" />
	<path id="Layer" class="shp0" d="M256.02 166.01C261.54 166.01 266.02 161.53 266.02 156.01L266.02 110.01C266.02 104.49 261.54 100.01 256.02 100.01C250.5 100.01 246.02 104.49 246.02 110.01L246.02 156.01C246.02 161.53 250.5 166.01 256.02 166.01Z" />
	<path id="Layer" fill-rule="evenodd" class="shp0" d="M142.54 369.58C165.99 393.04 165.99 430.99 142.54 454.44C119.14 477.84 81.08 477.83 57.69 454.45C34.23 430.99 34.24 393.03 57.69 369.58C81.09 346.19 119.15 346.19 142.54 369.58ZM128.4 383.72C112.8 368.13 87.42 368.14 71.83 383.73C56.19 399.36 56.2 424.67 71.83 440.3C87.43 455.89 112.8 455.89 128.4 440.3C144.04 424.66 144.03 399.36 128.4 383.72Z" />
	<path id="Layer" fill-rule="evenodd" class="shp0" d="M492.84 353.21C517.1 386.19 518.48 431.83 496.33 465.81C460.72 520.44 385.84 527.35 341.21 482.72C320.8 462.3 310.31 434.01 312.44 405.11C314 383.79 306.68 363.33 292.34 348.99L256.01 312.67L219.7 348.99C205.37 363.33 198.04 383.78 199.6 405.11C201.73 434.02 191.24 462.3 170.83 482.72C164.16 489.39 156.63 495.07 148.45 499.59C143.61 502.26 137.53 500.5 134.86 495.67C132.19 490.83 133.94 484.75 138.78 482.08C145.32 478.47 151.35 473.93 156.69 468.58C172.98 452.28 181.35 429.68 179.66 406.58C177.67 379.45 187.11 353.3 205.56 334.85C206.04 334.37 452 88.25 452.46 87.79C469.98 70.27 471.36 43.74 458.83 24.86L263.23 220.57C263.15 220.66 263.08 220.75 262.99 220.83C262.94 220.88 262.88 220.92 262.83 220.97C253.93 229.88 187.25 296.58 177.26 306.58C158.64 325.2 132.71 334.65 106.09 332.51C78.4 330.29 51.92 342.45 35.3 365.06C16.14 391.12 14.97 428.05 32.46 454.88C39.99 466.43 49.69 475.55 61.3 482C66.13 484.68 67.87 490.77 65.19 495.59C62.51 500.42 56.42 502.16 51.59 499.48C37.1 491.43 25.03 480.1 15.71 465.8C-6.47 431.78 -5.03 386.15 19.19 353.21C39.94 324.98 73.03 309.79 107.7 312.58C128.44 314.24 148.65 306.91 163.12 292.44L199.44 256.1L45.43 101.93C18.07 74.57 18.09 30.29 45.44 2.94C47.31 1.07 49.86 0.01 52.51 0.01C52.51 0.01 52.51 0.01 52.51 0.01C55.16 0.01 57.71 1.07 59.58 2.94L256 199.52L452.45 2.94C454.33 1.07 456.87 0.01 459.53 0.01C462.18 0.01 464.72 1.07 466.6 2.94C493.96 30.3 493.95 74.58 466.6 101.93L312.56 256.08L348.92 292.44C363.38 306.91 383.59 314.25 404.33 312.57C439.01 309.79 472.09 324.98 492.84 353.21ZM213.58 241.96L241.86 213.66L53.21 24.86C40.44 44.09 42.34 70.55 59.58 87.79L213.58 241.96ZM476.73 365.06C460.11 342.45 433.64 330.28 405.94 332.51C379.34 334.65 353.4 325.2 334.78 306.58L298.42 270.23L270.15 298.52L306.48 334.85C324.93 353.3 334.37 379.44 332.38 406.57C330.68 429.68 339.06 452.28 355.35 468.58C391.26 504.49 451.09 498.57 479.57 454.88C497.06 428.05 495.9 391.12 476.73 365.06Z" />
	<path id="Layer" fill-rule="evenodd" class="shp0" d="M369.5 369.58C392.88 346.19 430.95 346.19 454.35 369.58C477.81 393.04 477.8 430.99 454.35 454.44C430.95 477.83 392.89 477.83 369.5 454.44C346.04 430.99 346.04 393.03 369.5 369.58ZM440.21 383.72C424.61 368.13 399.23 368.13 383.64 383.72C368 399.36 368 424.67 383.64 440.3C399.23 455.89 424.61 455.89 440.21 440.3C455.85 424.66 455.84 399.36 440.21 383.72Z" />
	<path id="Layer" class="shp0" d="M100.02 512.01C94.49 512.01 90.02 507.54 90.02 502.01C90.02 496.48 94.49 492.01 100.02 492.01C105.55 492.01 110.02 496.48 110.02 502.01C110.02 507.54 105.55 512.01 100.02 512.01Z" />
	<path id="Shape 1" class="shp1" d="M100 453.46C77.33 453.46 59 434.58 59 411.23C59 387.88 77.33 369 100 369C122.67 369 141 387.88 141 411.23C141 434.58 122.67 453.46 100 453.46Z" />
	<path id="Shape 1 copy" class="shp1" d="M412 452.46C389.33 452.46 371 433.58 371 410.23C371 386.88 389.33 368 412 368C434.67 368 453 386.88 453 410.23C453 433.58 434.67 452.46 412 452.46Z" />
</svg>