<svg xmlns="http://www.w3.org/2000/svg" id="Capa_1" enable-background="new 0 0 512 512" viewBox="0 0 512 512" width="60" height="60"><path d="m 512 352 c 0 -36.52 -19.682 -68.525 -48.993 -85.98 c 11.389 -7.058 18.993 -19.665 18.993 -34.02 v -30 c 0 -5.523 -4.478 -10 -10 -10 h -120 c -5.522 0 -10 4.477 -10 10 v 30 c 0 14.355 7.605 26.962 18.993 34.02 c -29.311 17.455 -48.993 49.46 -48.993 85.98 v 130 c 0 16.542 13.458 30 30 30 h 140 c 16.542 0 30 -13.458 30 -30 Z m -130 -100 c -11.028 0 -20 -8.972 -20 -20 v -20 h 100 v 20 c 0 11.028 -8.972 20 -20 20 Z m -50 230 v -130 c 0 -40.724 30.594 -74.413 70 -79.353 v 40.619 c -17.233 4.452 -30 20.13 -30 38.734 c 0 22.056 17.944 40 40 40 c 11.028 0 20 8.972 20 20 s -8.972 20 -20 20 s -20 -8.972 -20 -20 c 0 -5.523 -4.478 -10 -10 -10 s -10 4.477 -10 10 c 0 18.604 12.767 34.282 30 38.734 v 41.266 h -60 c -5.513 0 -10 -4.486 -10 -10 Z m 160 0 c 0 5.514 -4.486 10 -10 10 h -60 v -41.266 c 17.233 -4.452 30 -20.13 30 -38.734 c 0 -22.056 -17.944 -40 -40 -40 c -11.028 0 -20 -8.972 -20 -20 s 8.972 -20 20 -20 s 20 8.972 20 20 c 0 5.523 4.478 10 10 10 s 10 -4.477 10 -10 c 0 -18.604 -12.767 -34.282 -30 -38.734 v -40.619 c 39.406 4.939 70 38.629 70 79.353 Z" /><path d="m 136 312 c -5.522 0 -10 4.477 -10 10 v 50 h -116 c -5.522 0 -10 4.477 -10 10 v 120 c 0 5.523 4.478 10 10 10 h 252 c 5.522 0 10 -4.477 10 -10 c 0 -41.294 0 -143.776 0 -180 c 0 -5.523 -4.478 -10 -10 -10 Z m 10 80 h 106 v 40 h -106 Z m 0 -60 h 106 v 40 h -106 Z m -126 60 h 106 v 40 h -106 Z m 0 60 h 106 v 40 h -106 Z m 126 40 v -40 h 106 v 40 Z" /><path d="m 400 110 c 5.522 0 10 -4.477 10 -10 v -90 c 0 -5.523 -4.478 -10 -10 -10 h -90 c -5.522 0 -10 4.477 -10 10 s 4.478 10 10 10 h 65.857 l -61.123 61.123 c -3.905 3.905 -3.905 10.237 0 14.143 c 3.906 3.905 10.236 3.905 14.143 0 l 61.123 -61.123 v 65.857 c 0 5.523 4.478 10 10 10 Z" /><ellipse transform="matrix(0.383 -0.924 0.924 0.383 68.157 342.002)" cx="290" cy="119.999" rx="10" ry="10" /><path d="m 17.072 287.071 l 112.928 -112.929 l 52.929 52.929 c 3.906 3.904 10.236 3.904 14.143 0 l 68.195 -68.195 c 3.905 -3.905 3.905 -10.237 0 -14.143 c -3.906 -3.904 -10.236 -3.904 -14.143 0 l -61.124 61.125 l -52.929 -52.929 c -3.906 -3.905 -10.236 -3.905 -14.143 0 l -120 120 c -3.905 3.905 -3.905 10.237 0 14.143 c 3.908 3.905 10.237 3.904 14.144 -0.001 Z" /></svg>