<svg xmlns="http://www.w3.org/2000/svg" id="Capa_1" style="" viewBox="0 0 512 512" x="0px" y="0px" width="60" height="60" xmlns:xml="http://www.w3.org/XML/1998/namespace" xml:space="preserve" version="1.1">
									<g>
										<g>
											<path d="M 506.442 413.537 L 401.146 308.242 c -3.585 -3.585 -8.35 -5.558 -13.42 -5.558 c -3.507 0 -6.857 0.964 -9.783 2.733 l -59.154 -59.154 c -3.032 -3.031 -7.947 -3.031 -10.979 0 c -3.031 3.031 -3.031 7.947 0 10.978 l 58.748 58.748 l -21.643 21.643 L 237.159 229.876 l 21.643 -21.643 l 14.419 14.417 c 3.03 3.032 7.946 3.031 10.978 0 c 3.031 -3.032 3.031 -7.947 -0.001 -10.978 l -14.418 -14.417 l 37.521 -37.521 l 2.969 2.969 c 3.687 3.688 8.591 5.719 13.808 5.719 c 5.216 0 10.119 -2.031 13.808 -5.719 l 13.83 -13.83 c 3.687 -3.688 5.719 -8.592 5.719 -13.807 c 0 -5.216 -2.032 -10.12 -5.719 -13.807 L 245.599 15.141 c -3.687 -3.688 -8.591 -5.72 -13.808 -5.72 c -5.216 0 -10.119 2.031 -13.806 5.719 l -13.831 13.83 c -3.688 3.688 -5.72 8.591 -5.72 13.808 c 0 5.215 2.032 10.119 5.719 13.807 l 2.969 2.969 L 88.48 178.196 l -2.969 -2.969 c -7.613 -7.612 -20.001 -7.612 -27.614 0.001 l -13.83 13.83 c -3.687 3.688 -5.719 8.592 -5.719 13.807 c 0 5.216 2.032 10.12 5.719 13.807 l 106.115 106.116 c 3.688 3.688 8.592 5.719 13.808 5.719 s 10.119 -2.031 13.807 -5.719 l 13.831 -13.83 c 0.001 0 0.001 0 0.001 0 c 7.611 -7.613 7.612 -20 0 -27.614 l -2.969 -2.969 l 37.52 -37.52 l 108.163 108.163 c -1.769 2.926 -2.733 6.276 -2.733 9.783 c 0 5.069 1.974 9.835 5.558 13.42 l 105.295 105.295 c 3.585 3.585 8.35 5.558 13.421 5.558 c 5.069 0 9.834 -1.974 13.42 -5.558 l 37.138 -37.138 c 3.584 -3.584 5.558 -8.35 5.558 -13.42 S 510.026 417.121 506.442 413.537 Z M 215.132 39.949 l 13.832 -13.831 c 0.755 -0.755 1.76 -1.171 2.827 -1.171 c 1.068 0 2.073 0.416 2.828 1.172 l 106.117 106.116 c 0.755 0.755 1.172 1.76 1.172 2.828 s -0.416 2.073 -1.173 2.829 l -13.829 13.83 c -1.512 1.511 -4.147 1.512 -5.658 0.001 L 215.133 45.607 c -0.756 -0.756 -1.173 -1.76 -1.173 -2.829 C 213.96 41.709 214.377 40.706 215.132 39.949 Z M 180.65 297.979 l -13.832 13.83 c -1.51 1.511 -4.146 1.511 -5.657 0 L 55.045 205.693 c -0.755 -0.755 -1.172 -1.76 -1.172 -2.828 s 0.416 -2.073 1.173 -2.829 l 13.829 -13.83 c 0.78 -0.78 1.804 -1.17 2.829 -1.17 c 1.025 0 2.049 0.39 2.828 1.17 l 106.116 106.115 C 182.208 293.881 182.208 296.418 180.65 297.979 Z M 220.69 224.386 c -0.001 0.001 -0.001 0.001 -0.002 0.002 l -43.008 43.008 l -78.222 -78.221 L 218.101 70.534 l 78.221 78.221 l -43.003 43.002 c -0.003 0.003 -0.006 0.005 -0.009 0.008 L 220.69 224.386 Z M 495.462 429.398 l -37.138 37.138 c -0.879 0.88 -1.906 1.011 -2.44 1.011 c -0.535 0 -1.562 -0.131 -2.441 -1.011 L 348.148 361.24 c -0.88 -0.88 -1.012 -1.907 -1.012 -2.441 s 0.131 -1.561 1.012 -2.441 l 2.258 -2.258 l 34.879 -34.88 c 0.879 -0.88 1.906 -1.011 2.441 -1.011 c 0.534 0 1.561 0.131 2.44 1.011 l 105.296 105.295 c 0.88 0.88 1.012 1.907 1.012 2.441 S 496.342 428.518 495.462 429.398 Z" />
										</g>
									</g>
									<g>
										<g>
											<path d="M 294.83 433.767 h -11.894 v -40.908 c 0 -9.126 -7.423 -16.55 -16.549 -16.55 H 132.57 c -4.288 0 -7.763 3.476 -7.763 7.763 s 3.475 7.763 7.763 7.763 h 133.817 c 0.564 0 1.023 0.459 1.023 1.023 v 40.908 H 61.141 v -40.908 c 0 -0.565 0.459 -1.023 1.023 -1.023 h 21.63 c 4.288 0 7.763 -3.476 7.763 -7.763 s -3.475 -7.763 -7.763 -7.763 h -21.63 c -9.126 0 -16.549 7.424 -16.549 16.55 v 40.908 H 33.721 C 15.127 433.767 0 448.894 0 467.488 v 22.103 c 0 7.162 5.826 12.988 12.988 12.988 h 302.575 c 7.162 0 12.988 -5.826 12.988 -12.988 v -22.103 C 328.551 448.894 313.424 433.767 294.83 433.767 Z M 313.026 487.053 L 313.026 487.053 h -297.5 v -19.565 c 0 -10.032 8.162 -18.195 18.195 -18.195 h 261.11 c 10.032 0 18.195 8.162 18.195 18.195 V 487.053 Z" />
										</g>
									</g>
									</svg>