<svg xmlns="http://www.w3.org/2000/svg" id="Capa_1" style="" viewBox="0 0 480 480" x="0px" y="0px" width="60" height="60" xmlns:xml="http://www.w3.org/XML/1998/namespace" xml:space="preserve" version="1.1">
								<g>
									<g>
										<path d="M 207.808 400 c -2.049 -40.003 -24.12 -76.279 -58.704 -96.488 l -55.264 -61.4 c -7.433 -8.422 -18.961 -11.964 -29.84 -9.168 V 128 c 0 -17.673 -14.327 -32 -32 -32 S 0 110.327 0 128 v 151.416 c 0.008 12.241 3.127 24.279 9.064 34.984 L 80 442.072 V 472 c 0 4.418 3.582 8 8 8 h 112 c 4.418 0 8 -3.582 8 -8 v -72 H 207.808 Z M 192 464 H 96 v -24 c 0 -1.361 -0.347 -2.699 -1.008 -3.888 L 23.048 306.616 c -4.614 -8.324 -7.039 -17.683 -7.048 -27.2 V 128 c 0 -8.837 7.163 -16 16 -16 s 16 7.163 16 16 v 114.824 c -10.01 11.633 -9.78 28.902 0.536 40.264 L 114.08 355.2 l 11.84 -10.768 l -65.544 -72.104 c -5.224 -5.746 -5.013 -14.583 0.48 -20.072 c 5.674 -5.679 14.878 -5.683 20.557 -0.008 c 0.185 0.185 0.364 0.374 0.539 0.568 l 56.104 62.336 c 0.714 0.718 1.521 1.337 2.4 1.84 c 31.839 18.243 51.497 52.113 51.544 88.808 V 464 Z" />
									</g>
								</g>
								<g>
									<g>
										<path d="M 448 96 c -17.673 0 -32 14.327 -32 32 v 104.944 c -2.593 -0.656 -5.261 -0.973 -7.936 -0.944 c -8.386 0.187 -16.318 3.846 -21.904 10.104 l -55.248 61.384 c -34.631 20.175 -56.721 56.483 -58.72 96.512 H 272 v 72 c 0 4.418 3.582 8 8 8 h 112 c 4.418 0 8 -3.582 8 -8 v -29.944 l 70.056 -126.976 c 6.507 -11.065 9.94 -23.667 9.944 -36.504 V 128 C 480 110.327 465.673 96 448 96 Z M 464 278.576 c -0.012 10.057 -2.719 19.928 -7.84 28.584 l -71.2 128.976 c -0.641 1.187 -0.971 2.516 -0.96 3.864 v 24 h -96 v -58.2 c 0.098 -36.838 19.923 -70.801 51.952 -89 c 0.745 -0.423 1.418 -0.963 1.992 -1.6 l 56.104 -62.4 c 5.388 -5.965 14.591 -6.432 20.556 -1.044 c 5.965 5.388 6.432 14.591 1.044 20.556 l -65.568 72.104 l 11.84 10.784 l 65.544 -72.096 c 10.326 -11.365 10.555 -28.645 0.536 -40.28 V 128 c 0 -8.837 7.163 -16 16 -16 s 16 7.163 16 16 V 278.576 Z" />
									</g>
								</g>
								<g>
									<g>
										<path d="M 336 200 h -16 c -28.698 0.031 -55.575 14.067 -72 37.6 V 184 h 8 c 48.577 -0.057 87.943 -39.423 88 -88 c 0 -4.418 -3.582 -8 -8 -8 h -16 c -28.698 0.031 -55.575 14.067 -72 37.6 V 72 h 8 c 35.33 -0.04 63.96 -28.67 64 -64 c 0 -4.418 -3.582 -8 -8 -8 h -16 c -23.298 0.014 -44.747 12.688 -56 33.088 C 228.747 12.688 207.298 0.014 184 0 h -16 c -4.418 0 -8 3.582 -8 8 c 0.04 35.33 28.67 63.96 64 64 h 8 v 53.6 c -16.425 -23.533 -43.302 -37.569 -72 -37.6 h -16 c -4.418 0 -8 3.582 -8 8 c 0.057 48.577 39.423 87.943 88 88 h 8 v 53.6 c -16.425 -23.533 -43.302 -37.569 -72 -37.6 h -16 c -4.418 0 -8 3.582 -8 8 c 0.057 48.577 39.423 87.943 88 88 h 8 v 64 h 16 v -64 h 8 c 48.577 -0.057 87.943 -39.423 88 -88 C 344 203.582 340.418 200 336 200 Z M 320 104 h 7.56 c -4.12 36.421 -34.907 63.956 -71.56 64 h -7.56 C 252.56 131.579 283.347 104.044 320 104 Z M 296 16 h 7.336 C 299.401 39.08 279.413 55.971 256 56 h -7.336 C 252.599 32.92 272.587 16.029 296 16 Z M 224 56 c -23.413 -0.029 -43.401 -16.92 -47.336 -40 H 184 c 23.413 0.029 43.401 16.92 47.336 40 H 224 Z M 224 168 c -36.653 -0.044 -67.44 -27.579 -71.56 -64 H 160 c 36.653 0.044 67.44 27.579 71.56 64 H 224 Z M 224 280 c -36.653 -0.044 -67.44 -27.579 -71.56 -64 H 160 c 36.653 0.044 67.44 27.579 71.56 64 H 224 Z M 256 280 h -7.56 c 4.12 -36.421 34.907 -63.956 71.56 -64 h 7.56 C 323.44 252.421 292.653 279.956 256 280 Z" />
									</g>
								</g>
								</svg>