<svg xmlns="http://www.w3.org/2000/svg" xmlns:xlink="http://www.w3.org/1999/xlink" width="458" height="458" viewBox="0 0 458 458">
  <defs>
    <linearGradient id="linear-gradient" x1="0.865" y1="0.178" x2="0.152" y2="0.822" gradientUnits="objectBoundingBox">
      <stop offset="0" stop-color="#fdb819"/>
      <stop offset="1" stop-color="#fff"/>
    </linearGradient>
  </defs>
  <g id="Group_2038" data-name="Group 2038" transform="translate(-393 -290)">
    <circle id="Ellipse_8" data-name="Ellipse 8" cx="229" cy="229" r="229" transform="translate(393 748) rotate(-90)" fill="url(#linear-gradient)"/>
    <g id="Group_2023" data-name="Group 2023" transform="translate(0.529 -11.676)">
      <g id="Save_more_money_and_get_better_deals_through_bidding_and_auctions" data-name="Save more money and get better deals through bidding and auctions" transform="translate(455.175 360.381)">
        <g id="Group_982" data-name="Group 982" transform="translate(-1.704 24.295)">
          <g id="Group_981" data-name="Group 981">
            <g id="Group_911" data-name="Group 911" transform="translate(77.54)">
              <g id="Group_895" data-name="Group 895" transform="translate(45.169 2.127)">
                <path id="Path_1889" data-name="Path 1889" d="M504.664,211.424a2.2,2.2,0,0,1,1.848,3.478h0l-.008,0-19.652,27.554-50.779-.046-12.039-16.676-7.818-10.828a2.2,2.2,0,0,1,1.84-3.49c4.629.152,10.622,2.286,14.268,1.177,4.9-1.5,7.346-9.117,12.47-9.868,5.174-.754,11.3,5.623,16.547,5.623s11.38-6.378,16.55-5.623c5.128.751,7.574,8.374,12.47,9.868C494.019,213.713,500.035,211.572,504.664,211.424Z" transform="translate(-415.794 -202.667)" fill="#979797"/>
              </g>
              <g id="Group_896" data-name="Group 896" transform="translate(110.912 4.38)">
                <path id="Path_1890" data-name="Path 1890" d="M599.651,217.063a7.332,7.332,0,0,1-1.25-.248c-3.284-1.006-5.46-4.751-8.081-7.346.137.011.274.023.4.046C594.465,210.061,596.77,214.251,599.651,217.063Z" transform="translate(-589.569 -209.131)" fill="#929292"/>
                <path id="Path_1891" data-name="Path 1891" d="M599.216,216.886l-.819-.091a7.258,7.258,0,0,1-1.3-.259c-2.4-.735-4.225-2.88-5.986-4.953-.716-.842-1.455-1.711-2.214-2.461l-.549-.541.77.057c.145.011.29.027.427.046,2.808.408,4.835,2.789,6.793,5.094.739.865,1.5,1.764,2.29,2.534Zm-9.331-7.563c.568.61,1.12,1.257,1.661,1.894,1.711,2.012,3.479,4.092,5.719,4.778.114.034.232.065.351.1-.587-.625-1.155-1.292-1.711-1.943C594.034,211.948,592.267,209.868,589.885,209.323Z" transform="translate(-588.35 -208.58)" fill="#4c4c4c"/>
              </g>
              <g id="Group_897" data-name="Group 897" transform="translate(44.869)">
                <path id="Path_1892" data-name="Path 1892" d="M486.369,241.141h0L435.59,241.1a2.121,2.121,0,0,1-1.726-.884L416.155,215.69a6.045,6.045,0,0,1-.236-6.736,5.616,5.616,0,0,1,5.749-2.671c.648.1,1.3.221,1.955.335,2.869.5,5.829,1.029,7.6.488,1.722-.526,3.242-2.313,4.854-4.206,2.08-2.446,4.439-5.22,7.932-5.73,3.425-.5,6.786,1.288,10.039,3.014,2.4,1.273,4.877,2.591,6.82,2.591s4.423-1.318,6.82-2.591c3.25-1.73,6.61-3.517,10.039-3.014,3.494.511,5.852,3.284,7.932,5.73,1.608,1.894,3.128,3.68,4.854,4.206,1.768.537,4.732.015,7.6-.488.674-.118,1.345-.236,2.012-.343a5.616,5.616,0,0,1,5.738,2.659,6.047,6.047,0,0,1-.21,6.721h0l-17.541,24.593A2.134,2.134,0,0,1,486.369,241.141Zm-49.685-4.305,48.588.042,16.9-23.7a1.778,1.778,0,0,0,.057-2,1.388,1.388,0,0,0-1.436-.7c-.648.1-1.3.221-1.951.335-3.36.591-6.835,1.2-9.578.37-2.918-.888-4.922-3.246-6.858-5.524-1.745-2.054-3.395-4-5.3-4.275-2.042-.3-4.778,1.154-7.422,2.56-2.857,1.52-5.814,3.09-8.82,3.09s-5.963-1.57-8.82-3.09c-2.644-1.406-5.38-2.854-7.422-2.56-1.9.278-3.555,2.217-5.3,4.275-1.935,2.278-3.94,4.633-6.858,5.524-2.743.834-6.218.225-9.578-.37-.632-.11-1.269-.225-1.9-.324a1.379,1.379,0,0,0-1.44.7,1.772,1.772,0,0,0,.065,2Zm67.227-22.418h0Z" transform="translate(-415.008 -197.084)" fill="#4c4c4c"/>
              </g>
              <g id="Group_898" data-name="Group 898" transform="translate(48.987 4.122)" opacity="0.6">
                <path id="Path_1893" data-name="Path 1893" d="M427.894,221.077a1.917,1.917,0,0,1-.072-2.16,1.546,1.546,0,0,1,1.581-.77c.629.1,1.261.213,1.9.324,3.345.591,6.8,1.2,9.513.373,2.88-.876,4.869-3.216,6.793-5.479,1.764-2.076,3.429-4.035,5.387-4.32,2.092-.309,4.842,1.158,7.509,2.576,2.842,1.509,5.783,3.071,8.751,3.071s5.909-1.562,8.751-3.071c2.663-1.417,5.418-2.877,7.509-2.576a3.874,3.874,0,0,1,.911.259,5.278,5.278,0,0,0-2.617-1.36c-2.092-.3-4.842,1.158-7.509,2.576-2.842,1.509-5.783,3.071-8.751,3.071s-5.909-1.562-8.751-3.071c-2.667-1.417-5.418-2.88-7.509-2.576-1.958.286-3.623,2.248-5.387,4.32-1.924,2.263-3.913,4.6-6.793,5.479-2.713.823-6.172.217-9.513-.373-.632-.111-1.269-.225-1.9-.324a1.534,1.534,0,0,0-1.581.77,1.917,1.917,0,0,0,.072,2.16l17.111,23.7h.911Z" transform="translate(-425.816 -207.903)" fill="#fff"/>
              </g>
              <g id="Group_899" data-name="Group 899" transform="translate(117.785 13.231)" opacity="0.6">
                <path id="Path_1894" data-name="Path 1894" d="M609.476,233.647c2.709.827,6.168.213,9.513-.373.651-.114,1.307-.229,1.955-.335.011,0,.023,0,.038,0a2.261,2.261,0,0,0-.16-.335,1.539,1.539,0,0,0-1.581-.766c-.648.1-1.3.221-1.955.335-3.345.591-6.8,1.2-9.513.373a8.347,8.347,0,0,1-1.383-.564A9.285,9.285,0,0,0,609.476,233.647Z" transform="translate(-606.39 -231.812)" fill="#fff"/>
              </g>
              <g id="Group_900" data-name="Group 900" transform="translate(52.147 12.93)" opacity="0.3">
                <path id="Path_1895" data-name="Path 1895" d="M518.607,234.8l-19.652,27.554-50.779-.046-12.039-16.676c-.5-1.966-.8-3.174-.8-3.174C464.056,264.06,514.3,251,518.607,234.8Z" transform="translate(-434.871 -233.36)" fill="#595959"/>
                <path id="Path_1896" data-name="Path 1896" d="M498.342,260.3H498.2l-50.924-.046L435.1,243.36c-.5-1.966-.8-3.174-.8-3.174l-.194-.777.64.48c18.314,13.777,45.209,13.476,63.737,7.071a44.438,44.438,0,0,0,13.948-7.4l6.088-8.538-.4,1.513c-.674,2.534-2.492,5.048-5.246,7.387Zm-50.783-.613,50.486.046,13.232-18.551A48.025,48.025,0,0,1,498.67,247.5c-18.455,6.382-45.159,6.744-63.626-6.679.137.541.339,1.345.591,2.351Zm69.147-25.138-2.05,2.877A14.88,14.88,0,0,0,516.706,234.548Z" transform="translate(-434.11 -231.02)" fill="#4c4c4c"/>
              </g>
              <g id="Group_901" data-name="Group 901" transform="translate(2.133 51.635)">
                <path id="Path_1897" data-name="Path 1897" d="M479.929,476.9c-.644,26.59-23.2,47.834-50.806,47.834H353.732c-25.519,0-46.721-18.154-50.288-41.9v-.008a47.29,47.29,0,0,1-.514-5.924c-1.894-78.035,25.5-124.658,70.416-144.287h36.175a104.151,104.151,0,0,1,43.254,34.731C471.12,392.6,481.1,428.781,479.929,476.9Z" transform="translate(-302.838 -332.61)" fill="#979797"/>
              </g>
              <g id="Group_902" data-name="Group 902" transform="translate(2.129 51.635)" opacity="0.65">
                <path id="Path_1898" data-name="Path 1898" d="M429.875,344.28a107.608,107.608,0,0,0-15.1-8.058H378.6a105.343,105.343,0,0,0-25.527,15.7c3.505,8.081-11.643,25.249-20.345,22.783-16.688,25.05-25.656,60.018-24.544,105.8a47.351,47.351,0,0,0,.514,5.924v.008a48.518,48.518,0,0,0,18.288,30.967,48.9,48.9,0,0,1-23.549-34.579v-.008a47.279,47.279,0,0,1-.514-5.924c-1.894-78.035,25.5-124.658,70.415-144.287h36.175A106.309,106.309,0,0,1,429.875,344.28Z" transform="translate(-302.828 -332.61)" fill="#efefef"/>
              </g>
              <g id="Group_903" data-name="Group 903" transform="translate(2.736 88.633)" opacity="0.3">
                <path id="Path_1899" data-name="Path 1899" d="M476.108,530.729c-.644,26.59-23.2,47.834-50.806,47.834h-75.4a51.513,51.513,0,0,1-38.4-16.9,47.637,47.637,0,0,1-7.083-18.718v-.008c53.13,48.032,193.755,7.734,150.162-113.213C469.315,454.367,477.148,487.8,476.108,530.729Z" transform="translate(-304.42 -429.72)" fill="#4c4c4c"/>
              </g>
              <g id="Group_904" data-name="Group 904" transform="translate(35.825 103.646)" opacity="0.19">
                <path id="Path_1900" data-name="Path 1900" d="M395.019,482.671c7.01-11.666,22.288-15.766,28.281-12.42s.438,12.874-6.572,24.536-12.824,21.05-18.817,17.7S388,494.333,395.019,482.671Z" transform="translate(-391.27 -469.125)" fill="#efefef"/>
              </g>
              <g id="Group_905" data-name="Group 905" transform="translate(70.763 113.966)">
                <path id="Path_1901" data-name="Path 1901" d="M523.775,545.553c.149,7.269-4.1,13.8-13.2,16.722l.183,8.828-11.674.221-.152-7.448c-6.469-.03-12.721-1.532-15.952-3.181l2.526-10.817a35.7,35.7,0,0,0,15.072,3.3c6.218-.118,9.441-2.663,9.361-6.424-.072-3.585-2.956-5.582-10.2-7.929-10-3.143-16.6-8.325-16.768-16.71-.164-7.928,5.254-14.455,14.752-16.828l-.183-8.854,11.674-.221.168,8.233a35.467,35.467,0,0,1,11.19,2.5l-2.793,10.584a29.257,29.257,0,0,0-12.569-2.5c-5.864.11-8.649,2.724-8.588,5.726.076,3.673,3.486,5.231,11.262,7.906C518.528,532.222,523.607,537.434,523.775,545.553Z" transform="translate(-482.97 -496.21)" fill="#f4f4f4"/>
              </g>
              <g id="Group_906" data-name="Group 906" transform="translate(0 49.509)">
                <path id="Path_1902" data-name="Path 1902" d="M425.658,523.41h-75.4a53.665,53.665,0,0,1-36.972-14.523,50,50,0,0,1-15.96-35.387c-1.8-74.42,22.989-125,71.692-146.291a2.131,2.131,0,0,1,.853-.179h36.172a2.131,2.131,0,0,1,.853.179C455.608,348.5,480.4,399.084,478.593,473.5a50,50,0,0,1-15.96,35.387A53.682,53.682,0,0,1,425.658,523.41Zm-40.542-4.263h40.542c26.228,0,48.063-20.524,48.672-45.754,1.753-72.336-22.01-121.461-68.732-142.1H370.322c-46.721,20.642-70.484,69.768-68.731,142.1.61,25.229,22.444,45.754,48.672,45.754Z" transform="translate(-297.239 -327.03)" fill="#4c4c4c"/>
              </g>
              <g id="Group_907" data-name="Group 907" transform="translate(55.9 37.283)">
                <path id="Path_1903" data-name="Path 1903" d="M514.661,304.708a8.187,8.187,0,0,1-3.33,6.37,12.168,12.168,0,0,1-4.781,2.275,14.17,14.17,0,0,1-3.227.373H456.048a14.074,14.074,0,0,1-3.037-.331c-4.77-1.063-8.3-4.568-8.3-8.687a8.187,8.187,0,0,1,3.33-6.37,12.234,12.234,0,0,1,5.136-2.351,13.607,13.607,0,0,1,2.873-.3h47.278a13.745,13.745,0,0,1,3.132.358C511.186,297.134,514.661,300.612,514.661,304.708Z" transform="translate(-444.424 -295.404)" fill="#cbcbcb"/>
                <path id="Path_1904" data-name="Path 1904" d="M502.858,313.544H455.584a14.35,14.35,0,0,1-3.1-.339c-5.018-1.116-8.523-4.8-8.523-8.965a8.425,8.425,0,0,1,3.436-6.591,12.493,12.493,0,0,1,5.258-2.4,13.891,13.891,0,0,1,2.93-.3h47.274a13.923,13.923,0,0,1,3.2.366c4.961,1.139,8.428,4.816,8.428,8.938a8.425,8.425,0,0,1-3.437,6.591,12.5,12.5,0,0,1-4.892,2.328A14.322,14.322,0,0,1,502.858,313.544Zm-47.274-18.036a13.3,13.3,0,0,0-2.812.293,11.939,11.939,0,0,0-5.018,2.293,7.87,7.87,0,0,0-3.223,6.149c0,3.89,3.322,7.349,8.077,8.409a13.668,13.668,0,0,0,2.976.328h47.274a13.815,13.815,0,0,0,3.162-.366,11.959,11.959,0,0,0,4.671-2.221,7.869,7.869,0,0,0,3.223-6.145c0-3.856-3.284-7.3-7.986-8.386a13.449,13.449,0,0,0-3.067-.351l-47.278,0Z" transform="translate(-443.96 -294.94)" fill="#4c4c4c"/>
              </g>
              <g id="Group_908" data-name="Group 908" transform="translate(56.182 37.569)" opacity="0.55">
                <path id="Path_1905" data-name="Path 1905" d="M514.654,304.708v.2a11.278,11.278,0,0,0-6.766-4.294,13.817,13.817,0,0,0-3.132-.358H464.363v11.769h-7.258V300.266a13.118,13.118,0,0,0-2.507.29,12.224,12.224,0,0,0-5.128,2.351,8.192,8.192,0,0,0-3.33,6.18,7.525,7.525,0,0,1-1.44-4.378,8.187,8.187,0,0,1,3.33-6.37,12.233,12.233,0,0,1,5.136-2.351,13.6,13.6,0,0,1,2.873-.3h47.278a13.743,13.743,0,0,1,3.132.358C511.18,297.134,514.654,300.612,514.654,304.708Z" transform="translate(-444.7 -295.69)" fill="#efefef"/>
              </g>
              <g id="Group_909" data-name="Group 909" transform="translate(56.197 38.738)">
                <path id="Path_1906" data-name="Path 1906" d="M514.679,306.608a8.187,8.187,0,0,1-3.33,6.37,12.17,12.17,0,0,1-4.782,2.275,14.172,14.172,0,0,1-3.227.373H456.067a14.069,14.069,0,0,1-3.037-.332c-4.679-1.036-8.153-4.427-8.29-8.439a12.154,12.154,0,0,0,5.334,2.625,13.885,13.885,0,0,0,3.037.331h30.247V298.76h19.316v10.862c.324-.05.636-.107.941-.183a12.2,12.2,0,0,0,4.782-2.275,8.181,8.181,0,0,0,3.33-6.37,1.7,1.7,0,0,0-.011-.24A8.02,8.02,0,0,1,514.679,306.608Z" transform="translate(-444.74 -298.76)" fill="#b9b9b9"/>
              </g>
              <g id="Group_910" data-name="Group 910" transform="translate(54.193 35.576)">
                <path id="Path_1907" data-name="Path 1907" d="M500.085,312.478H452.811a16.066,16.066,0,0,1-3.471-.381c-5.806-1.292-9.86-5.665-9.86-10.63a10.1,10.1,0,0,1,4.08-7.928,14.189,14.189,0,0,1,5.974-2.739,15.47,15.47,0,0,1,3.273-.339h47.274a15.588,15.588,0,0,1,3.585.411c5.73,1.318,9.742,5.677,9.742,10.6a10.1,10.1,0,0,1-4.08,7.928,14.248,14.248,0,0,1-5.563,2.656A16.373,16.373,0,0,1,500.085,312.478Zm-47.274-18.036a11.388,11.388,0,0,0-2.45.255,10.31,10.31,0,0,0-4.321,1.962,6.2,6.2,0,0,0-2.579,4.812c0,3.086,2.774,5.86,6.744,6.744a11.928,11.928,0,0,0,2.606.286h47.274a12.094,12.094,0,0,0,2.77-.32,10.22,10.22,0,0,0,4-1.9,6.215,6.215,0,0,0,2.579-4.812c0-3.056-2.739-5.822-6.664-6.721a11.689,11.689,0,0,0-2.686-.309Z" transform="translate(-439.48 -290.46)" fill="#4c4c4c"/>
              </g>
            </g>
            <g id="Group_916" data-name="Group 916" transform="translate(110.561 223.871)">
              <g id="Group_912" data-name="Group 912" transform="translate(1.989 1.981)">
                <path id="Path_1908" data-name="Path 1908" d="M451.522,794.075v9.414a4.188,4.188,0,0,1-3.955,4.183c-.076,0-.16,0-.232,0H393.321a4.191,4.191,0,0,1-4.191-4.191v-9.414a4.191,4.191,0,0,1,4.191-4.191h54.014A4.2,4.2,0,0,1,451.522,794.075Z" transform="translate(-389.13 -789.88)" fill="#cbcbcb"/>
              </g>
              <g id="Group_913" data-name="Group 913" transform="translate(36.332 1.989)">
                <rect id="Rectangle_100" data-name="Rectangle 100" width="23.363" height="17.792" fill="#b9b9b9"/>
              </g>
              <g id="Group_914" data-name="Group 914" transform="translate(8.995 1.985)" opacity="0.55">
                <rect id="Rectangle_101" data-name="Rectangle 101" width="11.35" height="17.792" fill="#efefef"/>
              </g>
              <g id="Group_915" data-name="Group 915">
                <path id="Path_1909" data-name="Path 1909" d="M444.1,806.45H390.09a6.189,6.189,0,0,1-6.18-6.18V790.86a6.189,6.189,0,0,1,6.18-6.18H444.1a6.188,6.188,0,0,1,6.18,6.18v9.411A6.188,6.188,0,0,1,444.1,806.45Zm-54.01-17.8a2.2,2.2,0,0,0-2.2,2.2v9.41a2.2,2.2,0,0,0,2.2,2.2H444.1a2.2,2.2,0,0,0,2.2-2.2v-9.41a2.2,2.2,0,0,0-2.2-2.2Z" transform="translate(-383.91 -784.68)" fill="#4c4c4c"/>
              </g>
            </g>
            <g id="Group_921" data-name="Group 921" transform="translate(118.07 206.071)">
              <g id="Group_917" data-name="Group 917" transform="translate(1.989 1.985)">
                <path id="Path_1910" data-name="Path 1910" d="M471.262,747.365v9.414a4.189,4.189,0,0,1-3.959,4.183c-.076,0-.16,0-.232,0h-54.04a4.191,4.191,0,0,1-4.191-4.191v-9.415a4.191,4.191,0,0,1,4.191-4.191h54.04A4.2,4.2,0,0,1,471.262,747.365Z" transform="translate(-408.84 -743.17)" fill="#cbcbcb"/>
              </g>
              <g id="Group_918" data-name="Group 918" transform="translate(36.347 1.993)">
                <rect id="Rectangle_102" data-name="Rectangle 102" width="23.374" height="17.792" fill="#b9b9b9"/>
              </g>
              <g id="Group_919" data-name="Group 919" transform="translate(8.995 1.989)" opacity="0.55">
                <rect id="Rectangle_103" data-name="Rectangle 103" width="11.354" height="17.792" fill="#efefef"/>
              </g>
              <g id="Group_920" data-name="Group 920">
                <path id="Path_1911" data-name="Path 1911" d="M463.84,759.734H409.8a6.187,6.187,0,0,1-6.18-6.183V744.14a6.186,6.186,0,0,1,6.18-6.18h54.04a6.186,6.186,0,0,1,6.18,6.18v9.411A6.189,6.189,0,0,1,463.84,759.734Zm-54.04-17.8a2.2,2.2,0,0,0-2.2,2.2v9.411a2.2,2.2,0,0,0,2.2,2.2h54.04a2.2,2.2,0,0,0,2.2-2.2V744.14a2.2,2.2,0,0,0-2.2-2.2Z" transform="translate(-403.62 -737.96)" fill="#4c4c4c"/>
              </g>
            </g>
            <g id="Group_952" data-name="Group 952" transform="translate(200.513 92.748)">
              <g id="Group_922" data-name="Group 922" transform="translate(96.98 34.395)">
                <rect id="Rectangle_104" data-name="Rectangle 104" width="18.032" height="10.302" transform="matrix(0.711, -0.703, 0.703, 0.711, 1.442, 14.123)" fill="#cbcbcb"/>
                <path id="Path_1912" data-name="Path 1912" d="M883.259,553.741a1.462,1.462,0,0,1-1.048-.438l-7.239-7.33a1.472,1.472,0,0,1,.015-2.08L887.82,531.22a1.473,1.473,0,0,1,2.08.012l7.239,7.33a1.472,1.472,0,0,1-.015,2.08l-12.832,12.672A1.453,1.453,0,0,1,883.259,553.741Zm-5.159-8.786,5.17,5.235,10.737-10.6-5.17-5.235Z" transform="translate(-874.55 -530.796)" fill="#4c4c4c"/>
              </g>
              <g id="Group_923" data-name="Group 923" transform="translate(100.531 37.947)" opacity="0.6">
                <path id="Path_1913" data-name="Path 1913" d="M884.689,551.455,895.372,540.9l-.766-.781L883.87,550.727l5.17,5.235.05-.053Z" transform="translate(-883.87 -540.12)" fill="#fff"/>
              </g>
              <g id="Group_924" data-name="Group 924" transform="translate(107.094 25.386)">
                <path id="Path_1914" data-name="Path 1914" d="M922.882,527.081l-2.012,1.989a3.722,3.722,0,0,1-5.269-.034L904.632,517.93a3.722,3.722,0,0,1,.034-5.269l2.012-1.989a3.722,3.722,0,0,1,5.269.034l10.969,11.106A3.729,3.729,0,0,1,922.882,527.081Z" transform="translate(-902.619 -508.664)" fill="#9b9b9b"/>
                <path id="Path_1915" data-name="Path 1915" d="M916.738,529.56a6.478,6.478,0,0,1-4.621-1.928l-9.148-9.258a6.5,6.5,0,0,1,.057-9.186l.164-.164a6.453,6.453,0,0,1,4.564-1.874h.042a6.471,6.471,0,0,1,4.583,1.932l9.148,9.258a6.5,6.5,0,0,1-.057,9.19l-.164.164A6.492,6.492,0,0,1,916.738,529.56Zm-8.98-19.465a3.524,3.524,0,0,0-2.5,1.025l-.164.164a3.551,3.551,0,0,0-.034,5.025l9.148,9.258a3.559,3.559,0,0,0,5.025.031l.164-.164h0a3.555,3.555,0,0,0,.03-5.025l-9.148-9.258A3.527,3.527,0,0,0,907.758,510.1Z" transform="translate(-901.097 -507.15)" fill="#4c4c4c"/>
              </g>
              <g id="Group_925" data-name="Group 925" transform="translate(110.036 28.323)" opacity="0.6">
                <path id="Path_1916" data-name="Path 1916" d="M909.041,519.634a3.542,3.542,0,0,1,1.055-2.507l.168-.164a3.522,3.522,0,0,1,2.518-1.025,3.4,3.4,0,0,1,.9.122,3.539,3.539,0,0,1,1.6.933l9.148,9.258a3.5,3.5,0,0,1,.8,1.246,3.514,3.514,0,0,0-1.017-2.32l-9.148-9.258a3.547,3.547,0,0,0-1.6-.937,3.739,3.739,0,0,0-.9-.122,3.522,3.522,0,0,0-2.518,1.025l-.168.164a3.551,3.551,0,0,0-.827,3.779C909.044,519.767,909.041,519.7,909.041,519.634Z" transform="translate(-908.82 -514.86)" fill="#fff"/>
              </g>
              <g id="Group_926" data-name="Group 926" transform="translate(56.369 15.004)">
                <rect id="Rectangle_105" data-name="Rectangle 105" width="13.88" height="13.182" transform="translate(1.473 15.345) rotate(-89.648)" fill="#cbcbcb"/>
                <path id="Path_1917" data-name="Path 1917" d="M782.609,496.8H782.6l-13.182-.08a1.47,1.47,0,0,1-1.459-1.482l.084-13.88a1.47,1.47,0,0,1,1.471-1.459h.008l13.182.08a1.472,1.472,0,0,1,1.463,1.482l-.084,13.88A1.477,1.477,0,0,1,782.609,496.8Zm-11.7-3.017,10.237.065.069-10.935-10.237-.065Z" transform="translate(-767.96 -479.9)" fill="#4c4c4c"/>
              </g>
              <g id="Group_927" data-name="Group 927" transform="translate(59.318 17.952)" opacity="0.6">
                <path id="Path_1918" data-name="Path 1918" d="M777.247,498.483l.069-10.832-1.551-.011-.065,10.935,10.237.065v-.1Z" transform="translate(-775.7 -487.64)" fill="#fff"/>
              </g>
              <g id="Group_928" data-name="Group 928" transform="translate(43.477)">
                <path id="Path_1919" data-name="Path 1919" d="M771.168,460.076l-27.576-.171a5.616,5.616,0,0,1-5.582-5.65l.027-4.263a5.616,5.616,0,0,1,5.65-5.582l27.576.171a5.616,5.616,0,0,1,5.581,5.65l-.027,4.263A5.611,5.611,0,0,1,771.168,460.076Z" transform="translate(-736.528 -442.928)" fill="#9b9b9b"/>
                <path id="Path_1920" data-name="Path 1920" d="M770.543,459.151h-.034l-31.089-.19a5.339,5.339,0,0,1-5.3-5.364l.05-7.776a5.339,5.339,0,0,1,5.33-5.3h.034l31.089.191a5.339,5.339,0,0,1,5.3,5.364l-.05,7.776A5.339,5.339,0,0,1,770.543,459.151Zm-.015-2.941h.015a2.392,2.392,0,0,0,2.389-2.374l.049-7.776a2.393,2.393,0,0,0-2.374-2.4l-31.089-.191H739.5a2.392,2.392,0,0,0-2.389,2.374l-.05,7.776a2.393,2.393,0,0,0,2.374,2.4Z" transform="translate(-734.12 -440.52)" fill="#4c4c4c"/>
              </g>
              <g id="Group_929" data-name="Group 929" transform="translate(46.418 2.949)" opacity="0.6">
                <path id="Path_1921" data-name="Path 1921" d="M743.009,459.735l.049-7.776a2.39,2.39,0,0,1,2.4-2.374l31.089.19a2.249,2.249,0,0,1,1.059.259,2.32,2.32,0,0,0-.545-.876,2.37,2.37,0,0,0-1.078-.629,2.3,2.3,0,0,0-.606-.08l-31.089-.191a2.393,2.393,0,0,0-2.4,2.374l-.05,7.776a2.368,2.368,0,0,0,.69,1.692,2.341,2.341,0,0,0,.621.442A2.521,2.521,0,0,1,743.009,459.735Z" transform="translate(-741.84 -448.26)" fill="#fff"/>
              </g>
              <g id="Group_932" data-name="Group 932" transform="translate(0 23.222)">
                <g id="Group_930" data-name="Group 930" transform="translate(1.993 1.993)">
                  <path id="Path_1922" data-name="Path 1922" d="M686.925,633.312a61.081,61.081,0,0,1-43.8-18.825,64.2,64.2,0,0,1,.427-89.374A61.1,61.1,0,0,1,687.325,506.7h.381c34.232.21,61.9,28.78,61.691,63.687A63.549,63.549,0,0,1,731.078,614.9a61.1,61.1,0,0,1-43.769,18.413Z" transform="translate(-625.236 -506.7)" fill="#999"/>
                </g>
                <g id="Group_931" data-name="Group 931">
                  <path id="Path_1923" data-name="Path 1923" d="M684.084,505.451h.37c33.189.206,59.923,27.82,59.713,61.687-.206,33.737-27.081,60.948-60.1,60.948H683.7c-33.189-.206-59.923-27.82-59.714-61.687.21-33.741,27.081-60.948,60.1-60.948m0-3.981h0A63.078,63.078,0,0,0,638.9,520.478a66.188,66.188,0,0,0-.438,92.151,63.044,63.044,0,0,0,45.213,19.431h.4a63.078,63.078,0,0,0,45.186-19.008,66.183,66.183,0,0,0,.434-92.151,63.044,63.044,0,0,0-45.213-19.431Z" transform="translate(-620.007 -501.47)" fill="#4c4c4c"/>
                </g>
              </g>
              <g id="Group_934" data-name="Group 934" transform="translate(22.69 40.412)" opacity="0.3">
                <g id="Group_933" data-name="Group 933">
                  <path id="Path_1924" data-name="Path 1924" d="M781.03,595.068a61.671,61.671,0,0,0-22.814-48.478,61.718,61.718,0,0,1,18.711,44.839c-.21,33.863-27.279,61.15-60.468,60.948a59.108,59.108,0,0,1-36.9-13.209,59.242,59.242,0,0,0,41,16.848C753.751,656.218,780.821,628.931,781.03,595.068Z" transform="translate(-679.56 -546.59)" fill="#4c4c4c"/>
                </g>
              </g>
              <g id="Group_935" data-name="Group 935" transform="translate(17.884 41.23)" opacity="0.6">
                <path id="Path_1925" data-name="Path 1925" d="M762.6,597.776c.137-22.281-14.516-41.791-35.635-47.441l-.381,1.421h0l.381-1.421a47.209,47.209,0,0,0-45.818,12.493,48.906,48.906,0,0,0-14.2,34.358c-.137,22.281,14.516,41.791,35.638,47.441a47.267,47.267,0,0,0,11.891,1.6C740.846,646.387,762.437,624.652,762.6,597.776Z" transform="translate(-666.948 -548.738)" fill="#fff"/>
              </g>
              <g id="Group_938" data-name="Group 938" transform="translate(15.77 39.303)">
                <g id="Group_936" data-name="Group 936" transform="translate(1.711 1.707)">
                  <path id="Path_1926" data-name="Path 1926" d="M712.183,643.172a45.832,45.832,0,0,1-32.869-14.127,47.668,47.668,0,0,1-13.426-33.665c.16-26.037,21.065-47.221,46.6-47.221h.286a45.821,45.821,0,0,1,32.869,14.131,47.666,47.666,0,0,1,13.426,33.661c-.16,26.037-21.062,47.221-46.6,47.221Z" transform="translate(-665.887 -548.16)" fill="#fff"/>
                </g>
                <g id="Group_937" data-name="Group 937">
                  <path id="Path_1927" data-name="Path 1927" d="M709.7,547.1h.278c24.788.152,44.759,20.783,44.6,46.078-.156,25.2-20.227,45.525-44.889,45.525h-.274c-24.788-.152-44.759-20.783-44.6-46.078.152-25.2,20.223-45.525,44.885-45.525m0-3.414a47.557,47.557,0,0,0-34.065,14.329A49.372,49.372,0,0,0,661.4,592.6c-.168,27.134,21.362,49.343,47.99,49.507h.3a47.557,47.557,0,0,0,34.065-14.329,49.878,49.878,0,0,0,.331-69.448A47.54,47.54,0,0,0,710,543.68l-.3,0Z" transform="translate(-661.398 -543.68)" fill="#4c4c4c"/>
                </g>
              </g>
              <g id="Group_941" data-name="Group 941" transform="translate(18.616 42.149)" opacity="0.3">
                <g id="Group_939" data-name="Group 939" transform="translate(0.286 0.282)">
                  <path id="Path_1928" data-name="Path 1928" d="M677.505,624.009a46.429,46.429,0,0,1-7.887-26.312c.156-25.256,20.421-45.807,45.175-45.807h.278a44.917,44.917,0,0,1,40.142,25.492l-.492.282a44.4,44.4,0,0,0-36.53-19.8h-.274c-24.441,0-44.451,20.3-44.6,45.243A45.759,45.759,0,0,0,678,623.723Z" transform="translate(-669.617 -551.89)" fill="#4c4c4c"/>
                </g>
                <g id="Group_940" data-name="Group 940">
                  <path id="Path_1929" data-name="Path 1929" d="M714.325,551.721h.278a44.794,44.794,0,0,1,39.886,25.332,44.581,44.581,0,0,0-36.762-19.926h-.274c-24.662,0-44.733,20.322-44.889,45.525a46.359,46.359,0,0,0,4.717,20.745,46.264,46.264,0,0,1-7.841-26.148c.152-25.207,20.223-45.533,44.885-45.529m0-.571a44.7,44.7,0,0,0-32.034,13.48A47.085,47.085,0,0,0,676.8,623.71l.983-.568a45.533,45.533,0,0,1-4.66-20.49c.153-24.791,20.037-44.961,44.321-44.961h.274a44.114,44.114,0,0,1,36.294,19.675L755,576.8a46.2,46.2,0,0,0-16.333-18.452,44.653,44.653,0,0,0-24.06-7.2h-.286Z" transform="translate(-668.868 -551.15)" fill="#4c4c4c"/>
                </g>
              </g>
              <g id="Group_946" data-name="Group 946" transform="translate(41.767 65.291)">
                <g id="Group_942" data-name="Group 942" transform="translate(14.513 16.252)">
                  <ellipse id="Ellipse_91" data-name="Ellipse 91" cx="7.582" cy="7.433" rx="7.582" ry="7.433" transform="translate(0 14.959) rotate(-80.567)" fill="#4c4c4c"/>
                </g>
                <g id="Group_943" data-name="Group 943" transform="translate(0 0.86)">
                  <path id="Path_1930" data-name="Path 1930" d="M730.112,617.485l19.476,21.45a1.842,1.842,0,0,0,3.158-.819h0a1.842,1.842,0,0,0-.415-1.642l-19.191-21.705a1.848,1.848,0,0,0-2.614-.152l-.286.255A1.85,1.85,0,0,0,730.112,617.485Z" transform="translate(-729.633 -614.147)" fill="#4c4c4c"/>
                </g>
                <g id="Group_944" data-name="Group 944" transform="translate(23.659)">
                  <path id="Path_1931" data-name="Path 1931" d="M791.73,629.937l12.154-16.432a3.988,3.988,0,0,1,5.765-.686h0a3.985,3.985,0,0,1,.636,5.441l-15.007,20.105Z" transform="translate(-791.73 -611.89)" fill="#4c4c4c"/>
                </g>
                <g id="Group_945" data-name="Group 945" transform="translate(24.653 27.314)">
                  <path id="Path_1932" data-name="Path 1932" d="M794.34,686.331l4.534,5.086a1.042,1.042,0,0,0,1.471.088l1.311-1.158a1.028,1.028,0,0,0,.072-1.471l-4.9-5.3Z" transform="translate(-794.34 -683.58)" fill="#4c4c4c"/>
                </g>
              </g>
              <g id="Group_947" data-name="Group 947" transform="translate(46.418 2.621)" opacity="0.3">
                <path id="Path_1933" data-name="Path 1933" d="M775.9,447.4l-2.034,5.856a6.051,6.051,0,0,1-5.143,4.039L741.84,459.87l1.17,1.33,34.682-.076,1.962-3.071-1.208-10.073Z" transform="translate(-741.84 -447.4)" fill="#4c4c4c"/>
              </g>
              <g id="Group_948" data-name="Group 948" transform="translate(3.978 27.202)" opacity="0.6">
                <path id="Path_1934" data-name="Path 1934" d="M690.916,511.918a58.87,58.87,0,0,0-30.255,8.115,60.662,60.662,0,0,0-16.585,14.329,62.2,62.2,0,0,0,7.982,85.983,62.2,62.2,0,0,1-5.208-85.892c2.785-.522,6.2-2.614,9.11-5.848a22.177,22.177,0,0,0,3.646-5.433,59.149,59.149,0,0,1,71.06,4.412A59.186,59.186,0,0,0,690.916,511.918Z" transform="translate(-630.447 -511.917)" fill="#fff"/>
              </g>
              <g id="Group_949" data-name="Group 949" transform="translate(58.644 17.339)" opacity="0.3">
                <path id="Path_1935" data-name="Path 1935" d="M774.029,487.078l4.808,1.288a2.229,2.229,0,0,1,.3,4.2,10.09,10.09,0,0,1-5.212.575l.636,1.608,12.489-.377-.815-8.344Z" transform="translate(-773.93 -486.03)" fill="#4c4c4c"/>
              </g>
              <g id="Group_950" data-name="Group 950" transform="translate(109.53 32.552)" opacity="0.3">
                <path id="Path_1936" data-name="Path 1936" d="M924.528,533.5s-2.941,5.307-16.771-7.536l-.267,2.446,10.424,10.489S925.073,539.992,924.528,533.5Z" transform="translate(-907.49 -525.96)" fill="#4c4c4c"/>
              </g>
              <g id="Group_951" data-name="Group 951" transform="translate(106.486 37.623)" opacity="0.3">
                <path id="Path_1937" data-name="Path 1937" d="M903.31,539.921l2.084,3.608a1.1,1.1,0,0,1-1.318,1.6,10.287,10.287,0,0,1-3.547-2.4l-1.029.994,5.841,6.641,4.964-5.273-6.568-5.822Z" transform="translate(-899.5 -539.27)" fill="#4c4c4c"/>
              </g>
            </g>
            <g id="Group_963" data-name="Group 963" transform="translate(57.949 169.846)">
              <g id="Group_953" data-name="Group 953" transform="translate(1.772 1.779)">
                <path id="Path_1938" data-name="Path 1938" d="M321.923,683.562a35.442,35.442,0,0,1-60.99,24.589,35.429,35.429,0,0,1-9.9-23.778c0-.27-.011-.537-.011-.808a35.45,35.45,0,0,1,59.668-25.9,36.286,36.286,0,0,1,3.871,4.26,35.348,35.348,0,0,1,7.365,21.633Z" transform="translate(-250.81 -647.897)" fill="#cbcbcb"/>
                <path id="Path_1939" data-name="Path 1939" d="M286.135,718.88a35.3,35.3,0,0,1-16.093-3.829,35.68,35.68,0,0,1-19.56-31.021c0-.286-.011-.545-.011-.811a35.658,35.658,0,0,1,60.018-26.052,36.967,36.967,0,0,1,3.894,4.282,35.572,35.572,0,0,1,7.41,21.77A35.7,35.7,0,0,1,286.135,718.88Zm0-70.907A35.281,35.281,0,0,0,250.9,683.215c0,.263,0,.522.011.785a35.006,35.006,0,0,0,6.225,19.229,34.629,34.629,0,0,0,3.616,4.423,35.3,35.3,0,0,0,9.483,7.014,34.873,34.873,0,0,0,15.9,3.783A35.237,35.237,0,0,0,314.047,661.7a35.822,35.822,0,0,0-3.848-4.233,35.01,35.01,0,0,0-18.078-8.988A35.58,35.58,0,0,0,286.135,647.973Z" transform="translate(-250.47 -647.55)" fill="#4c4c4c"/>
              </g>
              <g id="Group_954" data-name="Group 954" transform="translate(1.989 1.989)" opacity="0.55">
                <path id="Path_1940" data-name="Path 1940" d="M321.936,683.555c0,.888-.034,1.768-.1,2.637a35.45,35.45,0,0,0-70.705,0c-.061-.869-.1-1.753-.1-2.637a35.448,35.448,0,1,1,70.9,0Z" transform="translate(-251.04 -648.1)" fill="#fff"/>
              </g>
              <g id="Group_955" data-name="Group 955" transform="translate(1.981 32.449)">
                <path id="Path_1941" data-name="Path 1941" d="M321.923,733.045a35.452,35.452,0,1,1-70.553-4.995,35.455,35.455,0,0,0,70.2,0A35.44,35.44,0,0,1,321.923,733.045Z" transform="translate(-251.02 -728.05)" fill="#b9b9b9"/>
              </g>
              <g id="Group_956" data-name="Group 956" transform="translate(12.718 12.725)">
                <path id="Path_1942" data-name="Path 1942" d="M303.919,725.718A24.719,24.719,0,1,1,328.638,701,24.747,24.747,0,0,1,303.919,725.718Z" transform="translate(-279.2 -676.28)" fill="#dfdfdf"/>
              </g>
              <g id="Group_957" data-name="Group 957" transform="translate(12.714 12.721)" opacity="0.55">
                <path id="Path_1943" data-name="Path 1943" d="M328.628,700.993q0,1-.08,1.977a24.718,24.718,0,0,0-49.278,0c-.05-.648-.08-1.311-.08-1.977a24.719,24.719,0,1,1,49.438,0Z" transform="translate(-279.19 -676.27)" fill="#fff"/>
              </g>
              <g id="Group_958" data-name="Group 958" transform="translate(28.277 20.452)">
                <path id="Path_1944" data-name="Path 1944" d="M338.559,719.441c0,3.242-1.882,6.119-5.818,7.342v3.936h-5.018V727.4a16.429,16.429,0,0,1-6.824-1.554l1.181-4.8a14.906,14.906,0,0,0,6.446,1.6c2.671,0,4.077-1.109,4.077-2.785,0-1.6-1.219-2.515-4.309-3.619-4.271-1.486-7.056-3.852-7.056-7.593,0-3.536,2.385-6.4,6.484-7.376V697.32h5.018v3.673a14.731,14.731,0,0,1,4.785,1.208l-1.3,4.694a12.243,12.243,0,0,0-5.376-1.219c-2.518,0-3.738,1.139-3.738,2.48,0,1.638,1.452,2.362,4.766,3.619C336.426,713.455,338.559,715.821,338.559,719.441Z" transform="translate(-320.572 -697.031)" fill="#4c4c4c"/>
                <path id="Path_1945" data-name="Path 1945" d="M332.495,730.533h-5.585V727.2a16.382,16.382,0,0,1-6.679-1.581l-.19-.107,1.318-5.361.32.164A14.617,14.617,0,0,0,328,721.885c2.412,0,3.795-.911,3.795-2.5,0-1.4-1.04-2.248-4.122-3.353-4.8-1.673-7.243-4.317-7.243-7.86,0-3.669,2.476-6.565,6.484-7.6V696.56h5.585v3.7a15.125,15.125,0,0,1,4.618,1.208l.221.1-1.448,5.258-.309-.149a11.939,11.939,0,0,0-5.254-1.192c-2.1,0-3.456.861-3.456,2.194,0,1.379,1.143,2.05,4.583,3.357,4.679,1.73,6.858,4.248,6.858,7.932,0,3.585-2.118,6.324-5.818,7.551v4.016Zm-5.018-.568h4.446V726.1l.2-.061c3.57-1.112,5.62-3.688,5.62-7.071,0-3.459-2-5.742-6.492-7.4-3.444-1.307-4.953-2.073-4.953-3.886,0-1.276,1.055-2.762,4.023-2.762a12.511,12.511,0,0,1,5.193,1.1l1.139-4.134a14.615,14.615,0,0,0-4.469-1.086l-.259-.023v-3.646h-4.446v3.89l-.217.053c-3.867.922-6.267,3.642-6.267,7.1,0,3.322,2.244,5.715,6.866,7.323,2.85,1.021,4.5,1.985,4.5,3.89,0,1.92-1.631,3.067-4.362,3.067a15.093,15.093,0,0,1-6.252-1.471l-1.044,4.244a16.72,16.72,0,0,0,6.5,1.417l.278.008v3.3Z" transform="translate(-320.04 -696.56)" fill="#4c4c4c"/>
              </g>
              <g id="Group_959" data-name="Group 959" transform="translate(1.996 2.503)" opacity="0.27">
                <path id="Path_1946" data-name="Path 1946" d="M310.712,658.495l-53.389,46.032A35.181,35.181,0,0,1,251.06,685.2l41.464-35.749A35.29,35.29,0,0,1,310.712,658.495Z" transform="translate(-251.06 -649.45)" fill="#efefef"/>
              </g>
              <g id="Group_960" data-name="Group 960" transform="translate(11.898 15.804)" opacity="0.27">
                <path id="Path_1947" data-name="Path 1947" d="M334.839,691.263,285.059,736.51a25.13,25.13,0,0,1-8.009-5.924l53.621-46.226C333.083,687.484,333.578,687.438,334.839,691.263Z" transform="translate(-277.05 -684.36)" fill="#efefef"/>
              </g>
              <g id="Group_961" data-name="Group 961" transform="translate(11.011 11.015)">
                <path id="Path_1948" data-name="Path 1948" d="M301.146,724.642a26.426,26.426,0,1,1,26.426-26.426A26.456,26.456,0,0,1,301.146,724.642Zm0-49.438a23.016,23.016,0,1,0,23.016,23.016A23.042,23.042,0,0,0,301.146,675.2Z" transform="translate(-274.72 -671.79)" fill="#4c4c4c"/>
              </g>
              <g id="Group_962" data-name="Group 962">
                <path id="Path_1949" data-name="Path 1949" d="M283.257,717.764a37.025,37.025,0,0,1-16.893-4.023,37.451,37.451,0,0,1-20.532-32.564c-.008-.3-.011-.571-.011-.853a37.441,37.441,0,0,1,63.017-27.352,38.316,38.316,0,0,1,4.084,4.5,37.363,37.363,0,0,1,7.784,22.856A37.495,37.495,0,0,1,283.257,717.764Zm0-70.907A33.5,33.5,0,0,0,249.8,680.324c0,.251,0,.5.011.751a33.463,33.463,0,1,0,59.957-21.168,34.169,34.169,0,0,0-3.658-4.023,33.243,33.243,0,0,0-17.16-8.531A32.655,32.655,0,0,0,283.257,646.858Z" transform="translate(-245.82 -642.88)" fill="#4c4c4c"/>
              </g>
            </g>
            <g id="Group_965" data-name="Group 965" transform="translate(14.002 246.182)" opacity="0.3">
              <g id="Group_964" data-name="Group 964">
                <path id="Path_1950" data-name="Path 1950" d="M130.47,843.24s.693,16.973,32.686,12.809a39.668,39.668,0,0,1,22.864,3.65,59.344,59.344,0,0,1,12.535,8.584,77.265,77.265,0,0,0,37.89,18.246c20.162,3.459,49.8,3.36,86.3-11.746,0,0,42.184-19.29,82.676-18.25,0,0,30.933,3.65,37.81-13.034Z" transform="translate(-130.47 -843.24)" fill="#999"/>
              </g>
            </g>
            <g id="Group_966" data-name="Group 966" transform="translate(0 242.365)">
              <path id="Path_1951" data-name="Path 1951" d="M427.971,837.769H95.995a2.275,2.275,0,0,1,0-4.549H427.971a2.275,2.275,0,1,1,0,4.549Z" transform="translate(-93.72 -833.22)" fill="#4c4c4c"/>
            </g>
            <g id="Group_971" data-name="Group 971" transform="translate(26.157 174.349)">
              <g id="Group_967" data-name="Group 967" transform="translate(1.987 1.995)">
                <path id="Path_1952" data-name="Path 1952" d="M180.251,726.85l-9.582-3.185a4.5,4.5,0,0,1-2.922-5.441c.019-.076.05-.164.072-.24l18.269-54.974a4.494,4.494,0,0,1,5.681-2.846l9.582,3.185a4.49,4.49,0,0,1,2.846,5.681L185.928,724A4.489,4.489,0,0,1,180.251,726.85Z" transform="translate(-167.591 -659.934)" fill="#cbcbcb"/>
              </g>
              <g id="Group_968" data-name="Group 968" transform="translate(2.977 34.001)">
                <rect id="Rectangle_106" data-name="Rectangle 106" width="25.058" height="19.084" transform="translate(0 23.78) rotate(-71.621)" fill="#b9b9b9"/>
              </g>
              <g id="Group_969" data-name="Group 969" transform="translate(15.704 7.926)" opacity="0.55">
                <rect id="Rectangle_107" data-name="Rectangle 107" width="12.173" height="19.084" transform="translate(0 11.552) rotate(-71.621)" fill="#efefef"/>
              </g>
              <g id="Group_970" data-name="Group 970">
                <path id="Path_1953" data-name="Path 1953" d="M178.436,725.826a6.451,6.451,0,0,1-2.038-.331l-9.578-3.185a6.489,6.489,0,0,1-4.111-8.2l18.265-54.97a6.483,6.483,0,0,1,8.2-4.107l9.578,3.181a6.49,6.49,0,0,1,4.107,8.2l-18.265,54.97A6.489,6.489,0,0,1,178.436,725.826Zm8.69-67.143a2.5,2.5,0,0,0-2.374,1.718l-18.265,54.97h0a2.5,2.5,0,0,0,1.585,3.166l9.578,3.185a2.508,2.508,0,0,0,3.166-1.589l18.265-54.97A2.508,2.508,0,0,0,197.493,662l-9.578-3.181A2.335,2.335,0,0,0,187.126,658.683ZM164.6,714.743Z" transform="translate(-162.375 -654.697)" fill="#4c4c4c"/>
              </g>
            </g>
            <g id="Group_980" data-name="Group 980" transform="translate(19.027 31.899)">
              <g id="Group_972" data-name="Group 972" transform="translate(0 94.7)">
                <circle id="Ellipse_92" data-name="Ellipse 92" cx="2.838" cy="2.838" r="2.838" fill="#b4b4b4"/>
              </g>
              <g id="Group_973" data-name="Group 973" transform="translate(3.715 122.12)">
                <circle id="Ellipse_93" data-name="Ellipse 93" cx="2.206" cy="2.206" r="2.206" fill="#4c4c4c"/>
              </g>
              <g id="Group_974" data-name="Group 974" transform="translate(23.519 105.981)">
                <circle id="Ellipse_94" data-name="Ellipse 94" cx="1.577" cy="1.577" r="1.577" fill="#999"/>
              </g>
              <g id="Group_975" data-name="Group 975" transform="translate(270.887 14.783)">
                <circle id="Ellipse_95" data-name="Ellipse 95" cx="3.978" cy="3.978" r="3.978" fill="#999"/>
              </g>
              <g id="Group_976" data-name="Group 976" transform="translate(289.644)">
                <circle id="Ellipse_96" data-name="Ellipse 96" cx="2.275" cy="2.275" r="2.275" fill="#4c4c4c"/>
              </g>
              <g id="Group_977" data-name="Group 977" transform="translate(14.261 72.53)">
                <path id="Path_1954" data-name="Path 1954" d="M188.356,485.711c.983,0,1.844-1.478,2.3-3.673a1.669,1.669,0,0,1,1.3-1.3c2.195-.453,3.673-1.314,3.673-2.3s-1.478-1.844-3.673-2.3a1.669,1.669,0,0,1-1.3-1.3c-.453-2.195-1.314-3.673-2.3-3.673s-1.844,1.478-2.3,3.673a1.669,1.669,0,0,1-1.3,1.3c-2.195.453-3.673,1.314-3.673,2.3s1.478,1.844,3.673,2.3a1.669,1.669,0,0,1,1.3,1.3C186.512,484.233,187.373,485.711,188.356,485.711Z" transform="translate(-181.09 -471.18)" fill="#a2a2a2"/>
              </g>
              <g id="Group_978" data-name="Group 978" transform="translate(295.206 29.561)">
                <path id="Path_1955" data-name="Path 1955" d="M922.913,367.247c.6,0,1.12-.9,1.4-2.236a1.022,1.022,0,0,1,.789-.789c1.337-.278,2.236-.8,2.236-1.4s-.9-1.12-2.236-1.4a1.022,1.022,0,0,1-.789-.789c-.278-1.337-.8-2.236-1.4-2.236s-1.12.9-1.4,2.236a1.022,1.022,0,0,1-.789.789c-1.337.278-2.236.8-2.236,1.4s.9,1.12,2.236,1.4a1.022,1.022,0,0,1,.789.789C921.789,366.344,922.315,367.247,922.913,367.247Z" transform="translate(-918.49 -358.4)" fill="#d0d0d0"/>
              </g>
              <g id="Group_979" data-name="Group 979" transform="translate(279.978 48.318)">
                <circle id="Ellipse_97" data-name="Ellipse 97" cx="2.275" cy="2.275" r="2.275" fill="#a2a2a2"/>
              </g>
            </g>
          </g>
        </g>
      </g>
    </g>
  </g>
</svg>
