<svg xmlns="http://www.w3.org/2000/svg" xmlns:xlink="http://www.w3.org/1999/xlink" width="458" height="458" viewBox="0 0 458 458">
  <defs>
    <linearGradient id="linear-gradient" x1="0.865" y1="0.178" x2="0.152" y2="0.822" gradientUnits="objectBoundingBox">
      <stop offset="0" stop-color="#fdb819"/>
      <stop offset="1" stop-color="#fff"/>
    </linearGradient>
  </defs>
  <g id="Group_2039" data-name="Group 2039" transform="translate(-991 -290)">
    <circle id="Ellipse_8" data-name="Ellipse 8" cx="229" cy="229" r="229" transform="translate(991 748) rotate(-90)" fill="url(#linear-gradient)"/>
    <g id="Group_2022" data-name="Group 2022" transform="translate(0)">
      <g id="Save_more_money_and_get_better_deals_through_bidding_and_auctions" data-name="Save more money and get better deals through bidding and auctions" transform="translate(1064.176 350.196)">
        <g id="Group_982" data-name="Group 982" transform="translate(-16.176 19.804)">
          <g id="Group_981" data-name="Group 981">
            <g id="Group_911" data-name="Group 911" transform="translate(79.41)">
              <g id="Group_895" data-name="Group 895" transform="translate(46.258 2.179)">
                <path id="Path_1889" data-name="Path 1889" d="M506.807,211.635A2.252,2.252,0,0,1,508.7,215.2h0l-.008,0-20.126,28.218-52-.047-12.33-17.078-8.007-11.089a2.252,2.252,0,0,1,1.885-3.574c4.741.156,10.878,2.341,14.612,1.206,5.018-1.533,7.523-9.337,12.771-10.106,5.3-.773,11.573,5.759,16.946,5.759s11.655-6.532,16.95-5.759c5.252.769,7.757,8.576,12.771,10.106C495.906,213.98,502.067,211.787,506.807,211.635Z" transform="translate(-415.794 -202.667)" fill="#001327"/>
              </g>
              <g id="Group_896" data-name="Group 896" transform="translate(113.587 4.486)">
                <path id="Path_1890" data-name="Path 1890" d="M599.876,217.246a7.513,7.513,0,0,1-1.28-.254c-3.363-1.03-5.591-4.866-8.276-7.523.141.012.281.023.414.047C594.565,210.075,596.926,214.367,599.876,217.246Z" transform="translate(-589.551 -209.123)" fill="#929292"/>
                <path id="Path_1891" data-name="Path 1891" d="M599.478,217.086l-.839-.094a7.438,7.438,0,0,1-1.331-.265c-2.458-.753-4.327-2.95-6.13-5.072-.734-.862-1.49-1.752-2.267-2.521l-.562-.554.788.059c.148.012.3.027.437.047,2.876.417,4.951,2.856,6.957,5.217.757.886,1.537,1.807,2.345,2.595Zm-9.556-7.745c.581.624,1.147,1.288,1.7,1.939,1.752,2.06,3.562,4.191,5.857,4.893.117.035.238.066.359.1-.6-.64-1.182-1.323-1.752-1.99C594.172,212.029,592.361,209.9,589.922,209.341Z" transform="translate(-588.35 -208.58)" fill="#4c4c4c"/>
              </g>
              <g id="Group_897" data-name="Group 897" transform="translate(45.952)">
                <path id="Path_1892" data-name="Path 1892" d="M488.09,242.2h0l-52-.043a2.173,2.173,0,0,1-1.767-.905l-18.136-25.116a6.191,6.191,0,0,1-.242-6.9,5.752,5.752,0,0,1,5.888-2.735c.663.105,1.331.226,2,.343,2.938.515,5.97,1.053,7.78.5,1.764-.538,3.32-2.368,4.971-4.308,2.13-2.505,4.546-5.346,8.124-5.868,3.508-.507,6.949,1.319,10.281,3.086,2.454,1.3,4.994,2.653,6.984,2.653s4.53-1.35,6.984-2.653c3.328-1.771,6.77-3.6,10.281-3.086,3.578.523,5.993,3.363,8.124,5.868,1.647,1.939,3.2,3.769,4.971,4.308,1.81.55,4.846.016,7.78-.5.691-.121,1.377-.242,2.06-.351a5.751,5.751,0,0,1,5.876,2.724,6.193,6.193,0,0,1-.215,6.883h0L489.87,241.29A2.185,2.185,0,0,1,488.09,242.2Zm-50.884-4.409,49.76.043,17.309-24.27a1.82,1.82,0,0,0,.059-2.045,1.422,1.422,0,0,0-1.471-.718c-.663.105-1.331.226-2,.343-3.442.6-7,1.233-9.809.378-2.989-.909-5.041-3.324-7.023-5.658-1.787-2.1-3.477-4.093-5.427-4.378-2.091-.308-4.893,1.182-7.6,2.622-2.926,1.557-5.954,3.164-9.033,3.164s-6.106-1.608-9.033-3.164c-2.708-1.44-5.509-2.923-7.6-2.622-1.951.285-3.64,2.271-5.427,4.378-1.982,2.333-4.034,4.745-7.023,5.658-2.809.854-6.368.23-9.809-.378-.648-.113-1.3-.23-1.943-.332a1.412,1.412,0,0,0-1.475.718,1.815,1.815,0,0,0,.066,2.048Zm68.848-22.959h0Z" transform="translate(-415.008 -197.084)" fill="#4c4c4c"/>
              </g>
              <g id="Group_898" data-name="Group 898" transform="translate(50.169 4.222)" opacity="0.6">
                <path id="Path_1893" data-name="Path 1893" d="M427.944,221.395a1.963,1.963,0,0,1-.074-2.212,1.583,1.583,0,0,1,1.619-.788c.644.105,1.292.218,1.943.332,3.426.6,6.965,1.229,9.743.382,2.95-.9,4.987-3.293,6.957-5.611,1.807-2.126,3.512-4.132,5.517-4.425,2.142-.316,4.959,1.186,7.69,2.638,2.911,1.545,5.923,3.145,8.963,3.145s6.052-1.6,8.963-3.145c2.727-1.451,5.548-2.946,7.691-2.638a3.968,3.968,0,0,1,.933.265,5.406,5.406,0,0,0-2.681-1.393c-2.142-.308-4.959,1.186-7.691,2.638-2.911,1.545-5.923,3.145-8.963,3.145s-6.052-1.6-8.962-3.145c-2.731-1.452-5.548-2.95-7.691-2.638-2.006.293-3.711,2.3-5.517,4.425-1.97,2.318-4.007,4.713-6.957,5.611-2.778.843-6.321.222-9.743-.382-.648-.113-1.3-.23-1.943-.332a1.571,1.571,0,0,0-1.619.788,1.963,1.963,0,0,0,.074,2.212l17.523,24.27h.933Z" transform="translate(-425.816 -207.903)" fill="#05101c"/>
              </g>
              <g id="Group_899" data-name="Group 899" transform="translate(120.626 13.55)" opacity="0.6">
                <path id="Path_1894" data-name="Path 1894" d="M609.551,233.692c2.774.847,6.317.219,9.743-.382.667-.117,1.338-.234,2-.343.012,0,.023,0,.039,0a2.331,2.331,0,0,0-.164-.343,1.576,1.576,0,0,0-1.619-.784c-.663.105-1.331.226-2,.343-3.426.6-6.969,1.229-9.743.382a8.544,8.544,0,0,1-1.416-.577A9.507,9.507,0,0,0,609.551,233.692Z" transform="translate(-606.39 -231.812)" fill="#05101c"/>
              </g>
              <g id="Group_900" data-name="Group 900" transform="translate(53.405 13.241)" opacity="0.3">
                <path id="Path_1895" data-name="Path 1895" d="M520.615,234.8l-20.126,28.218-52-.047-12.33-17.078c-.507-2.013-.815-3.25-.815-3.25C464.748,264.766,516.2,251.395,520.615,234.8Z" transform="translate(-434.86 -233.325)" fill="#595959"/>
                <path id="Path_1896" data-name="Path 1896" d="M499.891,261.006h-.148l-52.152-.047-12.462-17.3c-.511-2.013-.819-3.25-.819-3.25l-.2-.8.656.492c18.756,14.109,46.3,13.8,65.274,7.242a45.512,45.512,0,0,0,14.285-7.581l6.235-8.744-.41,1.549c-.691,2.595-2.552,5.17-5.373,7.566Zm-52.008-.628,51.7.047,13.551-19a49.183,49.183,0,0,1-12.911,6.473c-18.9,6.536-46.249,6.906-65.161-6.84.141.554.347,1.377.6,2.407ZM518.7,234.633l-2.1,2.946A15.237,15.237,0,0,0,518.7,234.633Z" transform="translate(-434.11 -231.02)" fill="#4c4c4c"/>
              </g>
              <g id="Group_901" data-name="Group 901" transform="translate(2.185 52.88)">
                <path id="Path_1897" data-name="Path 1897" d="M484.2,480.377c-.659,27.231-23.758,48.988-52.031,48.988H354.96c-26.135,0-47.848-18.592-51.5-42.913v-.008a48.423,48.423,0,0,1-.527-6.067c-1.939-79.918,26.119-127.665,72.114-147.767h37.048a106.663,106.663,0,0,1,44.3,35.569C475.18,394.049,485.4,431.1,484.2,480.377Z" transform="translate(-302.838 -332.61)" fill="#001327"/>
              </g>
              <g id="Group_902" data-name="Group 902" transform="translate(2.181 52.88)" opacity="0.65">
                <path id="Path_1898" data-name="Path 1898" d="M432.94,344.561a110.21,110.21,0,0,0-15.467-8.252H380.425a107.883,107.883,0,0,0-26.142,16.08c3.59,8.276-11.924,25.858-20.836,23.333-17.09,25.655-26.275,61.466-25.136,108.355a48.491,48.491,0,0,0,.527,6.067v.008a49.688,49.688,0,0,0,18.729,31.714,50.083,50.083,0,0,1-24.117-35.413v-.008a48.423,48.423,0,0,1-.527-6.067c-1.939-79.918,26.119-127.665,72.114-147.767h37.048A108.87,108.87,0,0,1,432.94,344.561Z" transform="translate(-302.828 -332.61)" fill="#05101c"/>
              </g>
              <g id="Group_903" data-name="Group 903" transform="translate(2.802 90.771)" opacity="0.3">
                <path id="Path_1899" data-name="Path 1899" d="M480.249,533.166c-.659,27.231-23.758,48.988-52.031,48.988H351a52.756,52.756,0,0,1-39.331-17.313,48.786,48.786,0,0,1-7.254-19.17v-.008c54.411,49.191,198.429,7.921,153.784-115.944C473.292,454.961,481.315,489.2,480.249,533.166Z" transform="translate(-304.42 -429.72)" fill="#4c4c4c"/>
              </g>
              <g id="Group_904" data-name="Group 904" transform="translate(36.689 106.147)" opacity="0.19">
                <path id="Path_1900" data-name="Path 1900" d="M395.109,483c7.179-11.948,22.826-16.146,28.963-12.72s.449,13.184-6.731,25.128-13.134,21.558-19.271,18.128S387.926,494.941,395.109,483Z" transform="translate(-391.27 -469.125)" fill="#efefef"/>
              </g>
              <g id="Group_905" data-name="Group 905" transform="translate(72.47 116.715)">
                <path id="Path_1901" data-name="Path 1901" d="M524.759,546.743c.152,7.445-4.194,14.132-13.52,17.125l.187,9.041-11.955.226-.156-7.628c-6.625-.031-13.028-1.568-16.337-3.258l2.587-11.077A36.566,36.566,0,0,0,501,554.551c6.368-.121,9.669-2.727,9.587-6.579-.074-3.672-3.028-5.716-10.441-8.12-10.246-3.219-17-8.525-17.172-17.114-.168-8.12,5.381-14.8,15.108-17.234l-.187-9.068,11.955-.226.172,8.432a36.324,36.324,0,0,1,11.46,2.56l-2.86,10.839a29.964,29.964,0,0,0-12.872-2.556c-6,.113-8.857,2.79-8.795,5.865.078,3.761,3.57,5.357,11.534,8.1C519.386,533.09,524.587,538.428,524.759,546.743Z" transform="translate(-482.971 -496.21)" fill="#fdb819"/>
              </g>
              <g id="Group_906" data-name="Group 906" transform="translate(0 50.703)">
                <path id="Path_1902" data-name="Path 1902" d="M428.756,528.147H351.542a54.96,54.96,0,0,1-37.864-14.874,51.209,51.209,0,0,1-16.345-36.24c-1.846-76.215,23.544-128.02,73.421-149.82a2.181,2.181,0,0,1,.874-.183h37.044a2.181,2.181,0,0,1,.874.183c49.881,21.8,75.267,73.608,73.421,149.82a51.209,51.209,0,0,1-16.345,36.24A54.976,54.976,0,0,1,428.756,528.147Zm-41.52-4.366h41.52c26.86,0,49.222-21.019,49.846-46.857,1.795-74.081-22.541-124.391-70.389-145.531H372.085c-47.848,21.14-72.184,71.451-70.389,145.531.624,25.838,22.986,46.857,49.846,46.857Z" transform="translate(-297.239 -327.03)" fill="#4c4c4c"/>
              </g>
              <g id="Group_907" data-name="Group 907" transform="translate(57.248 38.182)">
                <path id="Path_1903" data-name="Path 1903" d="M516.348,304.926a8.385,8.385,0,0,1-3.41,6.524,12.462,12.462,0,0,1-4.9,2.329,14.514,14.514,0,0,1-3.3.382H456.322a14.412,14.412,0,0,1-3.11-.339c-4.885-1.089-8.5-4.678-8.5-8.9a8.385,8.385,0,0,1,3.41-6.524,12.529,12.529,0,0,1,5.26-2.408,13.933,13.933,0,0,1,2.942-.3H504.74a14.078,14.078,0,0,1,3.207.367C512.79,297.169,516.348,300.731,516.348,304.926Z" transform="translate(-444.417 -295.397)" fill="#d59a13"/>
                <path id="Path_1904" data-name="Path 1904" d="M504.279,313.993H455.865a14.7,14.7,0,0,1-3.176-.347c-5.139-1.143-8.728-4.92-8.728-9.181a8.629,8.629,0,0,1,3.519-6.75,12.8,12.8,0,0,1,5.385-2.462,14.225,14.225,0,0,1,3-.312h48.414a14.257,14.257,0,0,1,3.274.375c5.08,1.167,8.631,4.932,8.631,9.154a8.628,8.628,0,0,1-3.52,6.75,12.8,12.8,0,0,1-5.01,2.384A14.664,14.664,0,0,1,504.279,313.993Zm-48.414-18.471a13.626,13.626,0,0,0-2.88.3,12.228,12.228,0,0,0-5.139,2.349,8.06,8.06,0,0,0-3.3,6.3c0,3.984,3.4,7.527,8.272,8.611a14,14,0,0,0,3.047.336h48.414a14.148,14.148,0,0,0,3.239-.375,12.248,12.248,0,0,0,4.784-2.275,8.058,8.058,0,0,0,3.3-6.294c0-3.949-3.363-7.48-8.178-8.588a13.776,13.776,0,0,0-3.141-.359l-48.418,0Z" transform="translate(-443.96 -294.94)" fill="#4c4c4c"/>
              </g>
              <g id="Group_908" data-name="Group 908" transform="translate(57.537 38.475)" opacity="0.55">
                <path id="Path_1905" data-name="Path 1905" d="M516.342,304.926v.2a11.55,11.55,0,0,0-6.93-4.4,14.149,14.149,0,0,0-3.207-.367H464.838v12.053H457.4V300.376a13.433,13.433,0,0,0-2.567.3,12.519,12.519,0,0,0-5.252,2.407,8.39,8.39,0,0,0-3.41,6.329,7.707,7.707,0,0,1-1.475-4.483,8.385,8.385,0,0,1,3.41-6.524,12.529,12.529,0,0,1,5.26-2.407,13.933,13.933,0,0,1,2.942-.3H504.73a14.072,14.072,0,0,1,3.207.367C512.784,297.169,516.342,300.731,516.342,304.926Z" transform="translate(-444.7 -295.69)" fill="#efefef"/>
              </g>
              <g id="Group_909" data-name="Group 909" transform="translate(57.553 39.673)">
                <path id="Path_1906" data-name="Path 1906" d="M516.366,306.8a8.385,8.385,0,0,1-3.41,6.524,12.462,12.462,0,0,1-4.9,2.329,14.514,14.514,0,0,1-3.3.382H456.34a14.411,14.411,0,0,1-3.11-.339c-4.792-1.061-8.35-4.534-8.49-8.643a12.448,12.448,0,0,0,5.463,2.688,14.224,14.224,0,0,0,3.11.339h30.977V298.76h19.782v11.124c.332-.051.652-.109.964-.187a12.491,12.491,0,0,0,4.9-2.329,8.379,8.379,0,0,0,3.41-6.524,1.745,1.745,0,0,0-.012-.246A8.214,8.214,0,0,1,516.366,306.8Z" transform="translate(-444.74 -298.76)" fill="#fdb819"/>
              </g>
              <g id="Group_910" data-name="Group 910" transform="translate(55.5 36.434)">
                <path id="Path_1907" data-name="Path 1907" d="M501.547,313.009H453.133a16.453,16.453,0,0,1-3.555-.39c-5.946-1.323-10.1-5.8-10.1-10.886a10.346,10.346,0,0,1,4.179-8.12,14.531,14.531,0,0,1,6.118-2.805,15.85,15.85,0,0,1,3.352-.347h48.414a15.96,15.96,0,0,1,3.672.421c5.868,1.35,9.977,5.814,9.977,10.855a10.346,10.346,0,0,1-4.179,8.12,14.592,14.592,0,0,1-5.7,2.72A16.772,16.772,0,0,1,501.547,313.009Zm-48.414-18.471a11.664,11.664,0,0,0-2.509.261,10.559,10.559,0,0,0-4.425,2.009,6.353,6.353,0,0,0-2.642,4.928c0,3.16,2.841,6,6.906,6.906a12.215,12.215,0,0,0,2.669.293h48.414a12.383,12.383,0,0,0,2.837-.328,10.466,10.466,0,0,0,4.1-1.943,6.364,6.364,0,0,0,2.642-4.928c0-3.129-2.805-5.962-6.824-6.883a11.97,11.97,0,0,0-2.751-.316Z" transform="translate(-439.48 -290.46)" fill="#4c4c4c"/>
              </g>
            </g>
            <g id="Group_916" data-name="Group 916" transform="translate(113.228 229.272)">
              <g id="Group_912" data-name="Group 912" transform="translate(2.037 2.029)">
                <path id="Path_1908" data-name="Path 1908" d="M453.027,794.176v9.641a4.289,4.289,0,0,1-4.05,4.284c-.078,0-.164,0-.238,0H393.422a4.292,4.292,0,0,1-4.292-4.292v-9.642a4.292,4.292,0,0,1,4.292-4.292h55.317A4.3,4.3,0,0,1,453.027,794.176Z" transform="translate(-389.13 -789.88)" fill="#fdb819"/>
              </g>
              <g id="Group_913" data-name="Group 913" transform="translate(37.208 2.037)">
                <rect id="Rectangle_100" data-name="Rectangle 100" width="23.926" height="18.222" fill="#d59a13"/>
              </g>
              <g id="Group_914" data-name="Group 914" transform="translate(9.212 2.033)" opacity="0.55">
                <rect id="Rectangle_101" data-name="Rectangle 101" width="11.624" height="18.222" fill="#fdb819"/>
              </g>
              <g id="Group_915" data-name="Group 915">
                <path id="Path_1909" data-name="Path 1909" d="M445.552,806.975H390.239a6.338,6.338,0,0,1-6.329-6.329v-9.638a6.338,6.338,0,0,1,6.329-6.329h55.313a6.338,6.338,0,0,1,6.329,6.329v9.638A6.338,6.338,0,0,1,445.552,806.975ZM390.239,788.75a2.256,2.256,0,0,0-2.255,2.255v9.638a2.256,2.256,0,0,0,2.255,2.255h55.313a2.256,2.256,0,0,0,2.255-2.255v-9.638a2.256,2.256,0,0,0-2.255-2.255Z" transform="translate(-383.91 -784.68)" fill="#4c4c4c"/>
              </g>
            </g>
            <g id="Group_921" data-name="Group 921" transform="translate(120.919 211.042)">
              <g id="Group_917" data-name="Group 917" transform="translate(2.037 2.033)">
                <path id="Path_1910" data-name="Path 1910" d="M472.768,747.466v9.642a4.29,4.29,0,0,1-4.054,4.284c-.078,0-.164,0-.238,0H413.132a4.292,4.292,0,0,1-4.292-4.292v-9.642a4.292,4.292,0,0,1,4.292-4.292h55.344A4.3,4.3,0,0,1,472.768,747.466Z" transform="translate(-408.84 -743.17)" fill="#fdb819"/>
              </g>
              <g id="Group_918" data-name="Group 918" transform="translate(37.224 2.041)">
                <rect id="Rectangle_102" data-name="Rectangle 102" width="23.938" height="18.222" fill="#d59a13"/>
              </g>
              <g id="Group_919" data-name="Group 919" transform="translate(9.212 2.037)" opacity="0.55">
                <rect id="Rectangle_103" data-name="Rectangle 103" width="11.628" height="18.222" fill="#fdb819"/>
              </g>
              <g id="Group_920" data-name="Group 920">
                <path id="Path_1911" data-name="Path 1911" d="M465.293,760.259H409.949a6.336,6.336,0,0,1-6.329-6.333v-9.638a6.335,6.335,0,0,1,6.329-6.329h55.344a6.335,6.335,0,0,1,6.329,6.329v9.638A6.339,6.339,0,0,1,465.293,760.259Zm-55.344-18.225a2.256,2.256,0,0,0-2.255,2.255v9.638a2.256,2.256,0,0,0,2.255,2.255h55.344a2.256,2.256,0,0,0,2.255-2.255v-9.638a2.256,2.256,0,0,0-2.255-2.255Z" transform="translate(-403.62 -737.96)" fill="#4c4c4c"/>
              </g>
            </g>
            <g id="Group_952" data-name="Group 952" transform="translate(205.35 94.985)">
              <g id="Group_922" data-name="Group 922" transform="translate(99.319 35.224)">
                <rect id="Rectangle_104" data-name="Rectangle 104" width="18.467" height="10.551" transform="matrix(0.711, -0.703, 0.703, 0.711, 1.476, 14.463)" fill="#cbcbcb"/>
                <path id="Path_1912" data-name="Path 1912" d="M883.47,554.295a1.5,1.5,0,0,1-1.073-.449l-7.413-7.507a1.507,1.507,0,0,1,.016-2.13l13.142-12.978a1.508,1.508,0,0,1,2.13.012l7.414,7.507a1.507,1.507,0,0,1-.016,2.13l-13.141,12.978A1.489,1.489,0,0,1,883.47,554.295Zm-5.283-9,5.295,5.361,11-10.859-5.295-5.361Z" transform="translate(-874.55 -530.796)" fill="#4c4c4c"/>
              </g>
              <g id="Group_923" data-name="Group 923" transform="translate(102.956 38.862)" opacity="0.6">
                <path id="Path_1913" data-name="Path 1913" d="M884.709,551.728,895.65,540.92l-.784-.8-11,10.863,5.295,5.361.051-.055Z" transform="translate(-883.87 -540.12)" fill="#fff"/>
              </g>
              <g id="Group_924" data-name="Group 924" transform="translate(109.677 25.998)">
                <path id="Path_1914" data-name="Path 1914" d="M923.348,527.5l-2.06,2.037a3.811,3.811,0,0,1-5.4-.035l-11.234-11.374a3.812,3.812,0,0,1,.035-5.4l2.06-2.037a3.812,3.812,0,0,1,5.4.035l11.234,11.374A3.819,3.819,0,0,1,923.348,527.5Z" transform="translate(-902.597 -508.642)" fill="#fdb819"/>
                <path id="Path_1915" data-name="Path 1915" d="M917.115,530.1a6.634,6.634,0,0,1-4.733-1.974l-9.368-9.481a6.658,6.658,0,0,1,.059-9.407l.168-.168a6.608,6.608,0,0,1,4.674-1.92h.043a6.626,6.626,0,0,1,4.694,1.978l9.368,9.481a6.655,6.655,0,0,1-.059,9.411l-.168.168A6.649,6.649,0,0,1,917.115,530.1Zm-9.2-19.935a3.609,3.609,0,0,0-2.556,1.05l-.168.168a3.636,3.636,0,0,0-.035,5.146l9.368,9.482a3.644,3.644,0,0,0,5.146.031l.168-.168h0a3.641,3.641,0,0,0,.031-5.146l-9.368-9.482A3.612,3.612,0,0,0,907.919,510.166Z" transform="translate(-901.097 -507.15)" fill="#4c4c4c"/>
              </g>
              <g id="Group_925" data-name="Group 925" transform="translate(112.691 29.006)" opacity="0.6">
                <path id="Path_1916" data-name="Path 1916" d="M909.046,519.749a3.627,3.627,0,0,1,1.081-2.567l.172-.168a3.607,3.607,0,0,1,2.579-1.05,3.48,3.48,0,0,1,.925.125,3.625,3.625,0,0,1,1.643.956l9.368,9.482a3.585,3.585,0,0,1,.816,1.276,3.6,3.6,0,0,0-1.042-2.376l-9.368-9.481a3.631,3.631,0,0,0-1.643-.96,3.829,3.829,0,0,0-.925-.125,3.606,3.606,0,0,0-2.579,1.05l-.172.168a3.622,3.622,0,0,0-1.081,2.567,3.585,3.585,0,0,0,.234,1.3C909.05,519.885,909.046,519.819,909.046,519.749Z" transform="translate(-908.82 -514.86)" fill="#fff"/>
              </g>
              <g id="Group_926" data-name="Group 926" transform="translate(57.729 15.365)">
                <rect id="Rectangle_105" data-name="Rectangle 105" width="14.214" height="13.5" transform="translate(1.508 15.715) rotate(-89.648)" fill="#cbcbcb"/>
                <path id="Path_1917" data-name="Path 1917" d="M782.962,497.209h-.008l-13.5-.082a1.505,1.505,0,0,1-1.494-1.518l.086-14.214a1.505,1.505,0,0,1,1.506-1.494h.008l13.5.082a1.508,1.508,0,0,1,1.5,1.518l-.086,14.214A1.513,1.513,0,0,1,782.962,497.209Zm-11.983-3.09,10.484.066.07-11.2-10.484-.066Z" transform="translate(-767.96 -479.9)" fill="#4c4c4c"/>
              </g>
              <g id="Group_927" data-name="Group 927" transform="translate(60.749 18.386)" opacity="0.6">
                <path id="Path_1918" data-name="Path 1918" d="M777.284,498.745l.07-11.093-1.588-.012-.066,11.2,10.484.066V498.8Z" transform="translate(-775.7 -487.64)" fill="#fff"/>
              </g>
              <g id="Group_928" data-name="Group 928" transform="translate(44.525)">
                <path id="Path_1919" data-name="Path 1919" d="M771.968,460.454l-28.242-.176a5.752,5.752,0,0,1-5.716-5.786l.027-4.366a5.752,5.752,0,0,1,5.786-5.716l28.242.176a5.752,5.752,0,0,1,5.716,5.786l-.027,4.366A5.747,5.747,0,0,1,771.968,460.454Z" transform="translate(-736.492 -442.892)" fill="#d59a13"/>
                <path id="Path_1920" data-name="Path 1920" d="M771.422,459.6h-.035l-31.839-.2a5.468,5.468,0,0,1-5.427-5.494l.051-7.964a5.468,5.468,0,0,1,5.459-5.427h.035l31.839.2a5.468,5.468,0,0,1,5.427,5.494l-.051,7.964A5.468,5.468,0,0,1,771.422,459.6Zm-.016-3.012h.016a2.449,2.449,0,0,0,2.446-2.431l.051-7.964a2.45,2.45,0,0,0-2.431-2.462l-31.839-.2h-.016a2.45,2.45,0,0,0-2.447,2.431l-.051,7.964a2.451,2.451,0,0,0,2.431,2.462Z" transform="translate(-734.12 -440.52)" fill="#4c4c4c"/>
              </g>
              <g id="Group_929" data-name="Group 929" transform="translate(47.538 3.02)" opacity="0.6">
                <path id="Path_1921" data-name="Path 1921" d="M743.038,460.012l.051-7.964a2.448,2.448,0,0,1,2.462-2.431l31.839.2a2.3,2.3,0,0,1,1.085.265,2.377,2.377,0,0,0-.558-.9,2.426,2.426,0,0,0-1.1-.644,2.354,2.354,0,0,0-.62-.082l-31.839-.2a2.45,2.45,0,0,0-2.462,2.431l-.051,7.964a2.425,2.425,0,0,0,.706,1.732,2.392,2.392,0,0,0,.636.453A2.579,2.579,0,0,1,743.038,460.012Z" transform="translate(-741.84 -448.26)" fill="#fff"/>
              </g>
              <g id="Group_932" data-name="Group 932" transform="translate(0 23.782)">
                <g id="Group_930" data-name="Group 930" transform="translate(2.041 2.041)">
                  <path id="Path_1922" data-name="Path 1922" d="M688.413,636.366a62.554,62.554,0,0,1-44.852-19.279,65.749,65.749,0,0,1,.437-91.53A62.569,62.569,0,0,1,688.823,506.7h.39c35.058.215,63.4,29.475,63.179,65.223a65.082,65.082,0,0,1-18.76,45.586,62.569,62.569,0,0,1-44.825,18.858Z" transform="translate(-625.236 -506.7)" fill="#fdb819"/>
                </g>
                <g id="Group_931" data-name="Group 931">
                  <path id="Path_1923" data-name="Path 1923" d="M685.629,505.547h.379c33.989.211,61.368,28.491,61.154,63.175-.211,34.551-27.734,62.418-61.548,62.418h-.378c-33.989-.211-61.368-28.491-61.154-63.175.215-34.555,27.734-62.418,61.548-62.418m0-4.078h0a64.6,64.6,0,0,0-46.276,19.466,67.784,67.784,0,0,0-.449,94.374,64.565,64.565,0,0,0,46.3,19.9h.406a64.6,64.6,0,0,0,46.276-19.466,67.78,67.78,0,0,0,.445-94.374,64.566,64.566,0,0,0-46.3-19.9Z" transform="translate(-620.007 -501.47)" fill="#4c4c4c"/>
                </g>
              </g>
              <g id="Group_934" data-name="Group 934" transform="translate(23.237 41.387)" opacity="0.3">
                <g id="Group_933" data-name="Group 933">
                  <path id="Path_1924" data-name="Path 1924" d="M783.478,596.237a63.159,63.159,0,0,0-23.364-49.647,63.206,63.206,0,0,1,19.162,45.921c-.215,34.68-27.937,62.625-61.926,62.418A60.534,60.534,0,0,1,679.56,641.4a60.671,60.671,0,0,0,41.992,17.254C755.541,658.862,783.264,630.917,783.478,596.237Z" transform="translate(-679.56 -546.59)" fill="#4c4c4c"/>
                </g>
              </g>
              <g id="Group_935" data-name="Group 935" transform="translate(18.316 42.225)" opacity="0.6">
                <path id="Path_1925" data-name="Path 1925" d="M764.908,598.959c.141-22.818-14.866-42.8-36.494-48.586l-.39,1.455h0l.39-1.455a48.347,48.347,0,0,0-46.924,12.794,50.086,50.086,0,0,0-14.542,35.187c-.14,22.818,14.866,42.8,36.5,48.586a48.406,48.406,0,0,0,12.178,1.635C742.629,648.743,764.741,626.483,764.908,598.959Z" transform="translate(-666.948 -548.737)" fill="#fff"/>
              </g>
              <g id="Group_938" data-name="Group 938" transform="translate(16.15 40.252)">
                <g id="Group_936" data-name="Group 936" transform="translate(1.752 1.748)">
                  <path id="Path_1926" data-name="Path 1926" d="M713.3,645.464A46.937,46.937,0,0,1,679.639,631a48.818,48.818,0,0,1-13.75-34.477c.164-26.665,21.573-48.36,47.72-48.36h.293a46.925,46.925,0,0,1,33.661,14.472,48.815,48.815,0,0,1,13.75,34.473c-.164,26.665-21.57,48.36-47.72,48.36Z" transform="translate(-665.887 -548.16)" fill="#fff"/>
                </g>
                <g id="Group_937" data-name="Group 937">
                  <path id="Path_1927" data-name="Path 1927" d="M710.866,547.18h.285c25.385.156,45.839,21.285,45.679,47.189-.16,25.807-20.715,46.623-45.972,46.623h-.281c-25.385-.156-45.839-21.285-45.679-47.189.156-25.811,20.711-46.623,45.968-46.623m0-3.5a48.7,48.7,0,0,0-34.886,14.675A50.563,50.563,0,0,0,661.4,593.78c-.172,27.789,21.878,50.533,49.148,50.7h.3a48.7,48.7,0,0,0,34.886-14.675,51.081,51.081,0,0,0,.339-71.123,48.688,48.688,0,0,0-34.906-15l-.3,0Z" transform="translate(-661.398 -543.68)" fill="#4c4c4c"/>
                </g>
              </g>
              <g id="Group_941" data-name="Group 941" transform="translate(19.065 43.166)" opacity="0.3">
                <g id="Group_939" data-name="Group 939" transform="translate(0.293 0.289)">
                  <path id="Path_1928" data-name="Path 1928" d="M677.7,625.748a47.55,47.55,0,0,1-8.077-26.946c.16-25.865,20.914-46.912,46.264-46.912h.285A46,46,0,0,1,757.278,578l-.5.289a45.466,45.466,0,0,0-37.411-20.278h-.281c-25.03,0-45.523,20.785-45.679,46.335a46.861,46.861,0,0,0,4.8,21.113Z" transform="translate(-669.617 -551.89)" fill="#4c4c4c"/>
                </g>
                <g id="Group_940" data-name="Group 940">
                  <path id="Path_1929" data-name="Path 1929" d="M715.422,551.735h.285a45.874,45.874,0,0,1,40.848,25.943,45.656,45.656,0,0,0-37.649-20.407h-.281c-25.257,0-45.812,20.813-45.972,46.623a47.478,47.478,0,0,0,4.831,21.246,47.38,47.38,0,0,1-8.03-26.778c.156-25.815,20.711-46.631,45.968-46.627m0-.585a45.777,45.777,0,0,0-32.807,13.8A48.221,48.221,0,0,0,677,625.461l1.007-.581a46.63,46.63,0,0,1-4.772-20.984c.156-25.389,20.52-46.046,45.39-46.046h.281A45.177,45.177,0,0,1,756.071,578l1.007-.581a47.312,47.312,0,0,0-16.727-18.9,45.729,45.729,0,0,0-24.64-7.371h-.293Z" transform="translate(-668.868 -551.15)" fill="#4c4c4c"/>
                </g>
              </g>
              <g id="Group_946" data-name="Group 946" transform="translate(42.775 66.866)">
                <g id="Group_942" data-name="Group 942" transform="translate(14.863 16.644)">
                  <ellipse id="Ellipse_91" data-name="Ellipse 91" cx="7.765" cy="7.613" rx="7.765" ry="7.613" transform="translate(0 15.32) rotate(-80.567)" fill="#4c4c4c"/>
                </g>
                <g id="Group_943" data-name="Group 943" transform="translate(0 0.881)">
                  <path id="Path_1930" data-name="Path 1930" d="M730.123,617.566l19.946,21.967a1.886,1.886,0,0,0,3.235-.839h0a1.886,1.886,0,0,0-.425-1.682l-19.654-22.229a1.892,1.892,0,0,0-2.677-.156l-.293.261A1.9,1.9,0,0,0,730.123,617.566Z" transform="translate(-729.633 -614.147)" fill="#4c4c4c"/>
                </g>
                <g id="Group_944" data-name="Group 944" transform="translate(24.229)">
                  <path id="Path_1931" data-name="Path 1931" d="M791.73,630.373l12.447-16.829a4.084,4.084,0,0,1,5.9-.7h0a4.081,4.081,0,0,1,.651,5.572L795.363,639Z" transform="translate(-791.73 -611.89)" fill="#4c4c4c"/>
                </g>
                <g id="Group_945" data-name="Group 945" transform="translate(25.248 27.973)">
                  <path id="Path_1932" data-name="Path 1932" d="M794.34,686.4l4.643,5.209a1.068,1.068,0,0,0,1.506.09l1.342-1.186a1.053,1.053,0,0,0,.074-1.506l-5.014-5.424Z" transform="translate(-794.34 -683.58)" fill="#4c4c4c"/>
                </g>
              </g>
              <g id="Group_947" data-name="Group 947" transform="translate(47.538 2.684)" opacity="0.3">
                <path id="Path_1933" data-name="Path 1933" d="M776.723,447.4l-2.083,6a6.2,6.2,0,0,1-5.268,4.136l-27.532,2.638,1.2,1.362,35.519-.078,2.01-3.145-1.237-10.317Z" transform="translate(-741.84 -447.4)" fill="#4c4c4c"/>
              </g>
              <g id="Group_948" data-name="Group 948" transform="translate(4.074 27.858)" opacity="0.6">
                <path id="Path_1934" data-name="Path 1934" d="M692.374,511.918a60.292,60.292,0,0,0-30.985,8.311A62.124,62.124,0,0,0,644.4,534.9a63.7,63.7,0,0,0,8.174,88.057A63.7,63.7,0,0,1,647.245,535c2.852-.534,6.344-2.677,9.329-5.989a22.72,22.72,0,0,0,3.734-5.564,60.575,60.575,0,0,1,72.774,4.518A60.613,60.613,0,0,0,692.374,511.918Z" transform="translate(-630.447 -511.917)" fill="#fff"/>
              </g>
              <g id="Group_949" data-name="Group 949" transform="translate(60.059 17.757)" opacity="0.3">
                <path id="Path_1935" data-name="Path 1935" d="M774.031,487.1l4.924,1.319a2.283,2.283,0,0,1,.312,4.3,10.333,10.333,0,0,1-5.338.589l.651,1.647,12.79-.386-.835-8.545Z" transform="translate(-773.93 -486.03)" fill="#4c4c4c"/>
              </g>
              <g id="Group_950" data-name="Group 950" transform="translate(112.172 33.337)" opacity="0.3">
                <path id="Path_1936" data-name="Path 1936" d="M924.939,533.678s-3.012,5.435-17.176-7.718l-.273,2.505,10.676,10.742S925.5,540.331,924.939,533.678Z" transform="translate(-907.49 -525.96)" fill="#4c4c4c"/>
              </g>
              <g id="Group_951" data-name="Group 951" transform="translate(109.054 38.531)" opacity="0.3">
                <path id="Path_1937" data-name="Path 1937" d="M903.4,539.937l2.134,3.7a1.13,1.13,0,0,1-1.35,1.635,10.539,10.539,0,0,1-3.633-2.454l-1.053,1.018,5.982,6.8,5.084-5.4-6.727-5.962Z" transform="translate(-899.5 -539.27)" fill="#4c4c4c"/>
              </g>
            </g>
            <g id="Group_963" data-name="Group 963" transform="translate(59.347 173.943)">
              <g id="Group_953" data-name="Group 953" transform="translate(1.814 1.822)">
                <path id="Path_1938" data-name="Path 1938" d="M323.634,684.417A36.3,36.3,0,0,1,261.173,709.6a36.284,36.284,0,0,1-10.141-24.351c0-.277-.012-.55-.012-.827A36.306,36.306,0,0,1,312.127,657.9a37.155,37.155,0,0,1,3.964,4.362,36.2,36.2,0,0,1,7.542,22.155Z" transform="translate(-250.805 -647.892)" fill="#fdb819"/>
                <path id="Path_1939" data-name="Path 1939" d="M287,720.6a36.155,36.155,0,0,1-16.481-3.921,36.541,36.541,0,0,1-20.032-31.769c0-.293-.012-.558-.012-.831A36.519,36.519,0,0,1,311.936,657.4a37.857,37.857,0,0,1,3.988,4.386,36.43,36.43,0,0,1,7.589,22.3A36.56,36.56,0,0,1,287,720.6Zm0-72.617a36.132,36.132,0,0,0-36.088,36.092c0,.269,0,.535.012.8a35.85,35.85,0,0,0,6.376,19.693,35.461,35.461,0,0,0,3.7,4.53,36.148,36.148,0,0,0,9.712,7.183,35.714,35.714,0,0,0,16.282,3.875,36.088,36.088,0,0,0,28.589-58.118,36.688,36.688,0,0,0-3.941-4.335,35.854,35.854,0,0,0-18.514-9.2A36.448,36.448,0,0,0,287,647.983Z" transform="translate(-250.47 -647.55)" fill="#4c4c4c"/>
              </g>
              <g id="Group_954" data-name="Group 954" transform="translate(2.037 2.037)" opacity="0.55">
                <path id="Path_1940" data-name="Path 1940" d="M323.646,684.411c0,.909-.035,1.81-.1,2.7a36.305,36.305,0,0,0-72.411,0c-.062-.89-.1-1.795-.1-2.7a36.3,36.3,0,1,1,72.606,0Z" transform="translate(-251.04 -648.1)" fill="#fff"/>
              </g>
              <g id="Group_955" data-name="Group 955" transform="translate(2.029 33.232)">
                <path id="Path_1941" data-name="Path 1941" d="M323.634,733.165a36.307,36.307,0,1,1-72.255-5.115,36.31,36.31,0,0,0,71.9,0A36.3,36.3,0,0,1,323.634,733.165Z" transform="translate(-251.02 -728.05)" fill="#d59a13"/>
              </g>
              <g id="Group_956" data-name="Group 956" transform="translate(13.024 13.032)">
                <path id="Path_1942" data-name="Path 1942" d="M304.515,726.91A25.315,25.315,0,1,1,329.831,701.6,25.344,25.344,0,0,1,304.515,726.91Z" transform="translate(-279.2 -676.28)" fill="#fdb819"/>
              </g>
              <g id="Group_957" data-name="Group 957" transform="translate(13.021 13.028)" opacity="0.55">
                <path id="Path_1943" data-name="Path 1943" d="M329.821,701.589q0,1.024-.082,2.025a25.314,25.314,0,0,0-50.467,0c-.051-.663-.082-1.342-.082-2.025a25.315,25.315,0,1,1,50.631,0Z" transform="translate(-279.19 -676.27)" fill="#fff"/>
              </g>
              <g id="Group_958" data-name="Group 958" transform="translate(28.96 20.945)">
                <path id="Path_1944" data-name="Path 1944" d="M338.985,719.974c0,3.32-1.928,6.266-5.958,7.519v4.031h-5.139v-3.4a16.825,16.825,0,0,1-6.988-1.592l1.21-4.916a15.263,15.263,0,0,0,6.6,1.639c2.735,0,4.175-1.135,4.175-2.852,0-1.639-1.249-2.575-4.413-3.707-4.374-1.522-7.226-3.945-7.226-7.776,0-3.621,2.443-6.555,6.641-7.554V697.32h5.139v3.761a15.086,15.086,0,0,1,4.9,1.237l-1.327,4.807a12.538,12.538,0,0,0-5.505-1.249c-2.579,0-3.828,1.167-3.828,2.54,0,1.678,1.487,2.419,4.881,3.707C336.8,713.844,338.985,716.267,338.985,719.974Z" transform="translate(-320.564 -697.024)" fill="#4c4c4c"/>
                <path id="Path_1945" data-name="Path 1945" d="M332.8,731.353h-5.72v-3.41a16.778,16.778,0,0,1-6.84-1.619l-.2-.109,1.35-5.49.328.168a14.971,14.971,0,0,0,6.469,1.6c2.47,0,3.886-.933,3.886-2.56,0-1.436-1.065-2.3-4.222-3.434-4.92-1.713-7.417-4.421-7.417-8.049,0-3.758,2.536-6.723,6.641-7.784V696.56h5.72v3.789a15.49,15.49,0,0,1,4.729,1.237l.226.1-1.483,5.385-.316-.152a12.227,12.227,0,0,0-5.381-1.221c-2.15,0-3.539.882-3.539,2.247,0,1.412,1.171,2.1,4.694,3.438,4.792,1.771,7.023,4.351,7.023,8.124,0,3.672-2.169,6.477-5.958,7.734v4.113Zm-5.139-.581h4.553v-3.956l.2-.062c3.656-1.139,5.755-3.777,5.755-7.242,0-3.543-2.048-5.88-6.649-7.578-3.527-1.338-5.072-2.123-5.072-3.98,0-1.307,1.081-2.829,4.12-2.829a12.812,12.812,0,0,1,5.318,1.132l1.167-4.234a14.966,14.966,0,0,0-4.577-1.112l-.265-.024v-3.734h-4.554v3.984l-.222.055c-3.96.944-6.419,3.73-6.419,7.273,0,3.4,2.3,5.853,7.031,7.5,2.919,1.046,4.608,2.033,4.608,3.984,0,1.966-1.67,3.141-4.468,3.141a15.458,15.458,0,0,1-6.4-1.506l-1.069,4.347a17.125,17.125,0,0,0,6.657,1.452l.285.008v3.383Z" transform="translate(-320.04 -696.56)" fill="#4c4c4c"/>
              </g>
              <g id="Group_959" data-name="Group 959" transform="translate(2.045 2.564)" opacity="0.27">
                <path id="Path_1946" data-name="Path 1946" d="M312.151,658.713l-54.677,47.142a36.03,36.03,0,0,1-6.415-19.794l42.464-36.611A36.143,36.143,0,0,1,312.151,658.713Z" transform="translate(-251.06 -649.45)" fill="#fdb819"/>
              </g>
              <g id="Group_960" data-name="Group 960" transform="translate(12.186 16.185)" opacity="0.27">
                <path id="Path_1947" data-name="Path 1947" d="M336.233,691.43l-50.982,46.338a25.737,25.737,0,0,1-8.2-6.068l54.915-47.341C334.435,687.56,334.942,687.513,336.233,691.43Z" transform="translate(-277.05 -684.36)" fill="#efefef"/>
              </g>
              <g id="Group_961" data-name="Group 961" transform="translate(11.276 11.28)">
                <path id="Path_1948" data-name="Path 1948" d="M301.783,725.917a27.063,27.063,0,1,1,27.063-27.063A27.094,27.094,0,0,1,301.783,725.917Zm0-50.63a23.571,23.571,0,1,0,23.571,23.571A23.6,23.6,0,0,0,301.783,675.286Z" transform="translate(-274.72 -671.79)" fill="#4c4c4c"/>
              </g>
              <g id="Group_962" data-name="Group 962">
                <path id="Path_1949" data-name="Path 1949" d="M284.16,719.571a37.918,37.918,0,0,1-17.3-4.12A38.355,38.355,0,0,1,245.832,682.1c-.008-.308-.012-.585-.012-.874a38.344,38.344,0,0,1,64.537-28.011,39.249,39.249,0,0,1,4.183,4.6,38.264,38.264,0,0,1,7.972,23.407A38.4,38.4,0,0,1,284.16,719.571Zm0-72.617a34.306,34.306,0,0,0-34.266,34.274c0,.258,0,.511.012.769a34.27,34.27,0,1,0,61.4-21.679,34.988,34.988,0,0,0-3.746-4.12,34.044,34.044,0,0,0-17.574-8.736A33.448,33.448,0,0,0,284.16,646.954Z" transform="translate(-245.82 -642.88)" fill="#4c4c4c"/>
              </g>
            </g>
            <g id="Group_965" data-name="Group 965" transform="translate(14.339 252.121)" opacity="0.3">
              <g id="Group_964" data-name="Group 964">
                <path id="Path_1950" data-name="Path 1950" d="M130.47,843.24s.71,17.383,33.474,13.118a40.626,40.626,0,0,1,23.415,3.738,60.774,60.774,0,0,1,12.837,8.791A79.129,79.129,0,0,0,239,887.573c20.649,3.543,51,3.441,88.385-12.03,0,0,43.2-19.755,84.67-18.69,0,0,31.679,3.738,38.722-13.348Z" transform="translate(-130.47 -843.24)" fill="#999"/>
              </g>
            </g>
            <g id="Group_966" data-name="Group 966" transform="translate(0 248.211)">
              <path id="Path_1951" data-name="Path 1951" d="M436.034,837.879H96.049a2.329,2.329,0,1,1,0-4.659H436.034a2.329,2.329,0,1,1,0,4.659Z" transform="translate(-93.72 -833.22)" fill="#4c4c4c"/>
            </g>
            <g id="Group_971" data-name="Group 971" transform="translate(26.788 178.554)">
              <g id="Group_967" data-name="Group 967" transform="translate(2.035 2.043)">
                <path id="Path_1952" data-name="Path 1952" d="M180.556,728.464l-9.813-3.262a4.609,4.609,0,0,1-2.993-5.572c.02-.078.051-.168.074-.246l18.709-56.3a4.6,4.6,0,0,1,5.818-2.915l9.813,3.262a4.6,4.6,0,0,1,2.915,5.818l-18.709,56.3A4.6,4.6,0,0,1,180.556,728.464Z" transform="translate(-167.591 -659.934)" fill="#fdb819"/>
              </g>
              <g id="Group_968" data-name="Group 968" transform="translate(3.049 34.821)">
                <rect id="Rectangle_106" data-name="Rectangle 106" width="25.663" height="19.544" transform="translate(0 24.354) rotate(-71.621)" fill="#d59a13"/>
              </g>
              <g id="Group_969" data-name="Group 969" transform="translate(16.083 8.117)" opacity="0.55">
                <rect id="Rectangle_107" data-name="Rectangle 107" width="12.466" height="19.544" transform="translate(0 11.831) rotate(-71.621)" fill="#fdb819"/>
              </g>
              <g id="Group_970" data-name="Group 970">
                <path id="Path_1953" data-name="Path 1953" d="M178.823,727.542a6.608,6.608,0,0,1-2.088-.339l-9.809-3.262a6.646,6.646,0,0,1-4.21-8.4l18.706-56.3a6.639,6.639,0,0,1,8.4-4.206l9.809,3.258a6.646,6.646,0,0,1,4.206,8.4l-18.705,56.3A6.646,6.646,0,0,1,178.823,727.542Zm8.9-68.762a2.565,2.565,0,0,0-2.431,1.76l-18.705,56.3h0a2.563,2.563,0,0,0,1.623,3.242l9.809,3.262a2.569,2.569,0,0,0,3.242-1.627l18.705-56.3a2.569,2.569,0,0,0-1.627-3.242l-9.809-3.258A2.393,2.393,0,0,0,187.724,658.78Zm-23.072,57.412Z" transform="translate(-162.375 -654.697)" fill="#4c4c4c"/>
              </g>
            </g>
            <g id="Group_980" data-name="Group 980" transform="translate(19.486 32.669)">
              <g id="Group_972" data-name="Group 972" transform="translate(0 96.985)">
                <circle id="Ellipse_92" data-name="Ellipse 92" cx="2.907" cy="2.907" r="2.907" fill="#001327"/>
              </g>
              <g id="Group_973" data-name="Group 973" transform="translate(3.804 125.066)">
                <circle id="Ellipse_93" data-name="Ellipse 93" cx="2.259" cy="2.259" r="2.259" fill="#001327"/>
              </g>
              <g id="Group_974" data-name="Group 974" transform="translate(24.086 108.538)">
                <circle id="Ellipse_94" data-name="Ellipse 94" cx="1.615" cy="1.615" r="1.615" fill="#001327"/>
              </g>
              <g id="Group_975" data-name="Group 975" transform="translate(277.422 15.139)">
                <circle id="Ellipse_95" data-name="Ellipse 95" cx="4.074" cy="4.074" r="4.074" fill="#001327"/>
              </g>
              <g id="Group_976" data-name="Group 976" transform="translate(296.631)">
                <circle id="Ellipse_96" data-name="Ellipse 96" cx="2.329" cy="2.329" r="2.329" fill="#001327"/>
              </g>
              <g id="Group_977" data-name="Group 977" transform="translate(14.605 74.28)">
                <path id="Path_1954" data-name="Path 1954" d="M188.531,486.062c1.007,0,1.889-1.514,2.353-3.761a1.709,1.709,0,0,1,1.327-1.327c2.247-.464,3.761-1.346,3.761-2.353s-1.514-1.888-3.761-2.353a1.709,1.709,0,0,1-1.327-1.327c-.464-2.247-1.346-3.761-2.353-3.761s-1.888,1.514-2.353,3.761a1.709,1.709,0,0,1-1.327,1.327c-2.247.464-3.761,1.346-3.761,2.353s1.514,1.888,3.761,2.353a1.709,1.709,0,0,1,1.327,1.327C186.642,484.548,187.524,486.062,188.531,486.062Z" transform="translate(-181.09 -471.18)" fill="#fdb819"/>
              </g>
              <g id="Group_978" data-name="Group 978" transform="translate(302.328 30.274)">
                <path id="Path_1955" data-name="Path 1955" d="M923.02,367.46c.613,0,1.147-.921,1.432-2.29a1.046,1.046,0,0,1,.808-.808c1.37-.285,2.29-.819,2.29-1.432s-.921-1.147-2.29-1.432a1.046,1.046,0,0,1-.808-.808c-.285-1.37-.819-2.29-1.432-2.29s-1.147.921-1.432,2.29a1.046,1.046,0,0,1-.808.808c-1.369.285-2.29.819-2.29,1.432s.921,1.147,2.29,1.432a1.046,1.046,0,0,1,.808.808C921.869,366.535,922.408,367.46,923.02,367.46Z" transform="translate(-918.49 -358.4)" fill="#fdb819"/>
              </g>
              <g id="Group_979" data-name="Group 979" transform="translate(286.732 49.483)">
                <circle id="Ellipse_97" data-name="Ellipse 97" cx="2.329" cy="2.329" r="2.329" fill="#001327"/>
              </g>
            </g>
          </g>
        </g>
      </g>
    </g>
  </g>
</svg>
