<svg xmlns="http://www.w3.org/2000/svg" xmlns:xlink="http://www.w3.org/1999/xlink" width="458" height="458" viewBox="0 0 458 458">
  <defs>
    <linearGradient id="linear-gradient" x1="0.865" y1="0.178" x2="0.152" y2="0.822" gradientUnits="objectBoundingBox">
      <stop offset="0" stop-color="#fdb819"/>
      <stop offset="1" stop-color="#fff"/>
    </linearGradient>
  </defs>
  <g id="Group_2033" data-name="Group 2033" transform="translate(-1027 -297)">
    <circle id="Ellipse_8" data-name="Ellipse 8" cx="229" cy="229" r="229" transform="translate(1027 755) rotate(-90)" fill="url(#linear-gradient)"/>
    <g id="Group_2020" data-name="Group 2020" transform="translate(-10 -1)">
      <g id="Start_Selling" data-name="Start Selling" transform="translate(1112 372)">
        <g id="Group_1662" data-name="Group 1662" transform="translate(32 -32)">
          <path id="Path_2797" data-name="Path 2797" d="M426.692,468.56s-2.2,2.4-.733,3.919,6.272-.89,6.272-.89Z" transform="translate(-349.882 -311.055)" fill="#7c7c7c"/>
          <path id="Path_2798" data-name="Path 2798" d="M656.45,126.89c-.012.108-.032.212-.052.321a14.051,14.051,0,0,1-.409,1.655v.008a27.5,27.5,0,0,1-2.477,5.651q-.349.619-.709,1.2a39.533,39.533,0,0,1-4.477,6.064c-1.174,1.174-6.188,3.054-6.188,3.054L626.4,133.094l-6.761-18.659c-.22-.136-4.917-8.717,4.1-10.564h.008a14.918,14.918,0,0,1,1.92-.277c.236-.02.481-.036.733-.052a32.973,32.973,0,0,1,8.572.589,22.724,22.724,0,0,1,3.479,1.01c4.184,1.563,6.573,3.851,8.308,5.11a14.371,14.371,0,0,1,3.479,3.968,22.344,22.344,0,0,1,1.158,2.1c.144.3.22.469.22.469S657.38,120.726,656.45,126.89Z" transform="translate(-465.396 -92.29)" fill="#4c4c4c"/>
          <path id="Path_2799" data-name="Path 2799" d="M661.384,157.4q-.349.619-.709,1.2A29.581,29.581,0,0,0,650.3,149.2c-2.829-1.631-5.767-3.679-8.921-4.633a40.651,40.651,0,0,0-9.426-1.635c-.8-.052-.81-1.3,0-1.254a34.889,34.889,0,0,1,9.759,1.679,58.57,58.57,0,0,1,9.225,4.761A31.4,31.4,0,0,1,661.384,157.4Z" transform="translate(-473.264 -115.174)" fill="#7c7c7c"/>
          <path id="Path_2800" data-name="Path 2800" d="M660,117.271c-3.178-2.032-6.472-4.128-10.031-5.162-4.633-1.355-12.592-3.4-15.561,1.831a.631.631,0,0,1-1.142-.156.694.694,0,0,1-.641-.954c1.9-4.384,6.256-6.953,10.949-7.751a22.723,22.723,0,0,1,3.479,1.01c-4.645-.068-9.47,1.667-12.151,5.31,2.934-2.5,7.554-2.224,11.253-1.5a40,40,0,0,1,12.684,5.274A23.6,23.6,0,0,1,660,117.271Z" transform="translate(-473.993 -93.244)" fill="#7c7c7c"/>
          <path id="Path_2801" data-name="Path 2801" d="M629.878,104a11.689,11.689,0,0,0-2.821,9.674c.144.79-1.066,1.13-1.21.333a12.9,12.9,0,0,1,2.352-10h.008a14.918,14.918,0,0,1,1.92-.277C630.034,103.822,629.958,103.906,629.878,104Z" transform="translate(-469.847 -92.435)" fill="#7c7c7c"/>
          <path id="Path_2802" data-name="Path 2802" d="M665.549,140.747c-.012.108-.032.212-.052.321a14.049,14.049,0,0,1-.409,1.655c-2.485-4.152-5.262-7.843-9.682-10.684a22.94,22.94,0,0,0-8.9-3.751c-3.4-.489-8.937-.93-12.147.653-.721.357-1.363-.725-.633-1.086,2.934-1.443,7.438-1.355,10.6-1.074a23.34,23.34,0,0,1,10.015,3.122,31.512,31.512,0,0,1,8.608,6.993A34.406,34.406,0,0,1,665.549,140.747Z" transform="translate(-474.495 -106.147)" fill="#7c7c7c"/>
          <path id="Path_2803" data-name="Path 2803" d="M735.659,944.362H715.249l-.048-2.3-.032-1.254-.309-13.69V919.41l5.258-3.37,5.51,9.2,8.829,12.275.577,3.294.22,1.254Z" transform="translate(-523.305 -579.203)" fill="#7c7c7c"/>
          <path id="Path_2804" data-name="Path 2804" d="M452.01,427.377V423.77l17.714.393,3.763,15.754L459.22,442.5Z" transform="translate(-365.795 -284.215)" fill="#d2d2d2"/>
          <path id="Path_2805" data-name="Path 2805" d="M459.28,427.68l11.037,9.8-10.179-6.713Z" transform="translate(-370.151 -286.559)" fill="#7c7c7c"/>
          <path id="Path_2806" data-name="Path 2806" d="M506.016,463.857l-4.036-5.563,4.665-3.334Z" transform="translate(-395.739 -302.906)" fill="#7c7c7c"/>
          <path id="Path_2807" data-name="Path 2807" d="M489.96,422.579s3.839-1.747,4.076-1.278,6.741,16.459,6.428,16.459l-6.548,1.046a19.282,19.282,0,0,0-.818-8.745A32.912,32.912,0,0,0,489.96,422.579Z" transform="translate(-388.536 -282.688)" fill="#fbfbfb"/>
          <path id="Path_2808" data-name="Path 2808" d="M538.6,309.8c.156.469-9.165,16.535-9.165,16.535l-29.472,23.44s.076-8.228-2.589-14.423-5.5-6.973-5.5-6.973l23.376-15.457,1.118-.733.289-.192s-2.821-2.978-2.9-3.218c-.032-.092.457-.188,1.066-.265a13.151,13.151,0,0,1,2.144-.124.526.526,0,0,0,.08-.156c.665-1.423,5.086-13.057,9.193-23.953.152-.4.3-.8.453-1.2,3.631-9.65,6.889-18.4,6.889-18.5.012,0,1.475,13.458,2.817,25.689.032.3.064.6.092.89C537.563,300.871,538.536,309.6,538.6,309.8Z" transform="translate(-389.686 -188.816)" fill="#001327"/>
          <path id="Path_2809" data-name="Path 2809" d="M590.56,352.145l2.853-38.745.4,33.039Z" transform="translate(-448.819 -218.077)" fill="#7c7c7c"/>
          <path id="Path_2810" data-name="Path 2810" d="M587.971,318.533c-.024.092-.056.18-.08.276-.052.156-.092.313-.136.469a.628.628,0,0,1-1.21-.333c.244-.834-5.607-4.464-6.384-5.062-.846-.645-1.687-1.29-2.521-1.952.152-.4.3-.8.453-1.2,3.11,2.477,6.276,4.917,9.594,7.093a.418.418,0,0,1,.112.092A.621.621,0,0,1,587.971,318.533Z" transform="translate(-441.077 -216.477)" fill="#7c7c7c"/>
          <path id="Path_2811" data-name="Path 2811" d="M627.073,953.422H576.91l1.018-1.884.669-1.25.509-.942,18.623-10.913,1.266-.745,2.469-1.443,1.186-.693,2.8-1.643,1.182-.689,3.511-2.06,16.515,2.4.353,16.724.024,1.25Z" transform="translate(-440.64 -588.264)" fill="#7c7c7c"/>
          <path id="Path_2812" data-name="Path 2812" d="M656.832,656.324l.557.842-1.98,6.8-3.9-3.33-1.114-.954-.008-.008-5.751,6.172-3.134-4.184-3.242-39.294.842,40.865-4.076,2.613-7.887-3.178-1.31-.533-3.242-1.3s-1.543-5.378-2.565-9.238c-.136-.521-.268-1.014-.381-1.463a12.548,12.548,0,0,1-.5-2.368c.1-.144.689-1.811,1.291-3.563.144-.409.281-.814.421-1.2.545-1.591,1.01-2.966,1.01-2.966l-3.451-2.613,4.284-6.164L612.56,586.628l1.88-3.551s-14-55.08-16.195-63.645,2.713-39.4,2.713-39.4l64.482,1.154L654.126,649.159l-.088,1.254-.1,1.531,2.012,3.046Z" transform="translate(-453.085 -317.929)" fill="#001327"/>
          <path id="Path_2813" data-name="Path 2813" d="M689.05,515.76s6.925,27.484,8.793,32.654,18.263,14.908,18.263,14.908l1.659-24.623Z" transform="translate(-507.838 -339.34)" fill="#05101c"/>
          <path id="Path_2814" data-name="Path 2814" d="M607.088,492.9a196.522,196.522,0,0,1-.533,21.6,57.365,57.365,0,0,1-6.264,21.036l-2.621-9.326Z" transform="translate(-453.08 -325.641)" fill="#05101c"/>
          <path id="Path_2815" data-name="Path 2815" d="M645.54,526.909c-.625-1.675-4.545-.789-5.879-.806-.545-.008-1.094-.012-1.639-.02-.136-1.463-.268-2.922-.4-4.384l4.853-.18a.578.578,0,0,0,.441.06c.361-.04.721-.08,1.082-.116a.628.628,0,0,0,0-1.254,5.344,5.344,0,0,0-.789.028q-2.849.108-5.7.213-.823-9.234-1.571-18.467c-.052-.673-1.058-.894-1.23-.168-.064.265-.128.533-.192.8a.593.593,0,0,0,.277.669q.589,7.34,1.23,14.676l.228,2.537-4.156.156q-1.052-9.492-2.1-18.984c-.088-.794-1.342-.8-1.254,0l2.108,19.032-4.873.18c-.806.028-.81,1.282,0,1.254l5.009-.184.449,4.056q-2.651-.03-5.306-.064a.628.628,0,0,0,0,1.254q2.723.036,5.442.068l.148,1.351c.3,2.749-.092,6.536,1.868,8.7.87.962,2.525,1.643,3.591,2.4a35.747,35.747,0,0,1,5.346,4.829c.553.593,1.868-.89,1.315-1.479-1.972-2.108-4.537-3.37-6.889-5.042-.577-.4-1.17-.781-1.771-1.142-1.659-1.038-1.631-2.4-1.747-4a14.493,14.493,0,0,0,4.657-2.1.619.619,0,0,0,.309-.541c-.1-1-.18-2.008-.272-3.014,2.16-.048,4.717-.092,5.743-.048a.588.588,0,0,0,.765.653l.469-.156A.641.641,0,0,0,645.54,526.909Zm-9.181-5.162c.108,1.194.212,2.389.325,3.583.024.244.044.493.068.737-1.355-.016-2.713-.032-4.068-.052-.152-1.371-.3-2.745-.457-4.116C633.6,521.848,634.98,521.8,636.358,521.748Zm.665,7.266c.16,1.711-2.228,2.3-3.719,2.625l-.485-4.368,1.912.024c.24,0,1.058-.016,2.124-.04C636.915,527.843,636.971,528.428,637.023,529.013Z" transform="translate(-469.678 -330.535)" fill="#7c7c7c"/>
          <path id="Path_2816" data-name="Path 2816" d="M615.25,489.475s.89.733,14.84,2.092,20.483.521,20.483.521l-2.661-11.265-30.834-.553Z" transform="translate(-463.615 -318.073)" fill="#7c7c7c"/>
          <path id="Path_2817" data-name="Path 2817" d="M679.191,697.764,668.166,605.85h-2.2Z" transform="translate(-494.008 -393.325)" fill="#7c7c7c"/>
          <path id="Path_2818" data-name="Path 2818" d="M664.4,295.23l-40.357-.721-24.13-.433-3.968-86.348,21.477-11.518-7.839-9.562,13.325-16.928A149.832,149.832,0,0,0,634,185.871c.9,1.118,1.823,2.212,2.757,3.254a37.581,37.581,0,0,0,6.532,5.987,26.248,26.248,0,0,0,18.5,4.388s.008.3.024.89Z" transform="translate(-452.049 -131.978)" fill="#fbfbfb"/>
          <path id="Path_2819" data-name="Path 2819" d="M625.879,480.4l-.569,9.987L638,491.818v-11.2Z" transform="translate(-469.643 -318.15)" fill="#e4e4e4"/>
          <path id="Path_2820" data-name="Path 2820" d="M654.4,185.871l-14.848,12.8-1.723-2.457-7.839-9.562,13.325-16.928A148.456,148.456,0,0,0,654.4,185.871Z" transform="translate(-472.447 -131.978)" fill="#d2d2d2"/>
          <path id="Path_2821" data-name="Path 2821" d="M641.432,186.93a15.7,15.7,0,0,1-.052,7.578c-1.307,4.336-6.36,8.592-6.36,8.592l-5.029-6.136Z" transform="translate(-472.447 -142.291)" fill="#7c7c7c"/>
          <path id="Path_2822" data-name="Path 2822" d="M628.638,142.163l.052,5.811-6.873-.954c-.942,5.174-6.428,11.838-10.187,13.013s-8.232,1.254-9.875-3.134a25.724,25.724,0,0,1-1.331-9.326s-3.843-.236-3.062-2.12,4.232-3.687,4.076-5.33c-.112-1.222-1.014-3.322-1.174-5.186a4.434,4.434,0,0,1,.156-1.787c.052-.144.1-.309.164-.481.846-2.421,3.042-7.687,7.282-10.027,4.545-2.509,8.384-2.509,7.919-2.112s-3.843,5.174-3.3,8.464,4.24,4.472,4.24,4.933c0,.477.942,6.6.942,6.6a4.994,4.994,0,0,0,4.152-3.543c1.014-3.29,4.941-6.272,7.6-4.464S628.638,142.163,628.638,142.163Z" transform="translate(-452.833 -102.386)" fill="#d2d2d2"/>
          <path id="Path_2823" data-name="Path 2823" d="M599.094,246.34s-1.19,14.335-1.19,28.754c0,3.33-.1,8.44-.265,14.467-.052,1.811-.1,3.711-.164,5.667-.589,19.677-1.643,45.4-2.08,53.441-.625,11.494-9.406,36.994-9.927,36.157s-7.21-11.7-7.005-12.748,9.4-31.632,8.572-51.417-1.567-67.019-1.567-67.019l10.348-5.543,1.334-.721Z" transform="translate(-441.568 -177.892)" fill="#001327"/>
          <path id="Path_2824" data-name="Path 2824" d="M716.089,366.044c.208.625-13.381,4.184-21.32,4.809s-11.914-1.88-12.416-2.9-13.037-43.7-13.037-43.7l-6.128-.721s-2.176-9.674-1.9-45.719c.008-.878.02-1.775.024-2.685,0-.156.008-.321.008-.477.433-29.716,10.308-49.374,14.572-56.507a45.288,45.288,0,0,0,4.328,4.288c.381.333.765.641,1.142.934.357.269.713.525,1.066.765a26.248,26.248,0,0,0,18.5,4.388s.008.3.024.89c.124,3.651.689,18.635,2.589,47.39C705.753,310.259,715.872,365.419,716.089,366.044Z" transform="translate(-491.19 -160.994)" fill="#001327"/>
          <path id="Path_2825" data-name="Path 2825" d="M720.39,476.066l26.3,8.921-3.3-21.8Z" transform="translate(-526.619 -307.838)" fill="#001327"/>
          <path id="Path_2826" data-name="Path 2826" d="M753.746,394.24,743.23,411.825l11.037-11.991Z" transform="translate(-540.305 -266.52)" fill="#7c7c7c"/>
          <path id="Path_2827" data-name="Path 2827" d="M734.44,320.64l3.27,21.188,10.768,9.037-1.611-20.811Z" transform="translate(-535.038 -222.416)" fill="#001327"/>
          <path id="Path_2828" data-name="Path 2828" d="M717.839,520.366a.622.622,0,0,0-.529-.581q-4.346-8.176-8.392-16.507c-.353-.729-1.435-.092-1.082.633q4.274,8.807,8.881,17.437a.632.632,0,0,0,1.17-.317C717.871,520.811,717.855,520.591,717.839,520.366Z" transform="translate(-519.054 -331.667)" fill="#7c7c7c"/>
          <path id="Path_2829" data-name="Path 2829" d="M724.9,515.392q-2.519-3.144-5.033-6.288c-1.675-2.1-4.084-4.332-5.074-6.845-.293-.745-1.507-.421-1.21.333.87,2.212,2.669,3.992,4.136,5.827q3.144,3.931,6.292,7.859C724.514,516.907,725.4,516.017,724.9,515.392Z" transform="translate(-522.511 -330.996)" fill="#7c7c7c"/>
          <path id="Path_2830" data-name="Path 2830" d="M686.091,439.465c-2.425-7.306-5.651-14.3-8.769-21.324-.329-.737-1.407-.1-1.082.633,3.074,6.929,6.252,13.822,8.64,21.024C685.137,440.563,686.347,440.234,686.091,439.465Z" transform="translate(-500.126 -280.646)" fill="#7c7c7c"/>
          <path id="Path_2831" data-name="Path 2831" d="M697.359,457.868s-11.662,9.771-17.621,13.738-7.31,4.7-8.608,4.809c-.745.064-1.074-.533-1.21-1.046a3.588,3.588,0,0,1-.108-.725,4.446,4.446,0,0,1-1.254.313,2.021,2.021,0,0,1-1.387-.313,3.486,3.486,0,0,1-.986-1.932,6.3,6.3,0,0,1-.136-.89,3.822,3.822,0,0,1-.91-.064,3.754,3.754,0,0,1-1.286-.465,2.474,2.474,0,0,1-.986-1.511,4.982,4.982,0,0,1-.164-.89,5.212,5.212,0,0,1-.709-.064,4.066,4.066,0,0,1-2.533-1.19c-1.046-1.254,4.284-4.376,4.284-4.376a20.947,20.947,0,0,0-3.186-.012,8.334,8.334,0,0,1-3.607-.521s9.406-7.318,9.771-7.318,10.925,1.1,10.925,1.1l11.394-9.37Z" transform="translate(-488.603 -298.22)" fill="#d2d2d2"/>
          <path id="Path_2832" data-name="Path 2832" d="M776.768,309.252S761.291,328.3,756.594,333.6s-8.252,8.993-8.252,8.993l-14.636-17.157,7.775-8.452,1-1.086,9.093-9.887-2.2-2.2.253-.934.481-1.779-.2-.2c-.269-.276-.8-.822-1.511-1.579-.264-.281-.553-.589-.858-.93-4.312-4.729-12.684-14.716-13.838-22.266-1.567-10.247-2.112-26.442,10.139-32.085l13.169,19.016-.413.525-1.467,1.88.289.12.08.032,1.3.525,1.154.469,2.152,4.985.489,1.146Z" transform="translate(-534.108 -176.514)" fill="#001327"/>
          <path id="Path_2833" data-name="Path 2833" d="M725.787,448.15l-6.7,5.506L731.4,467.094l6.528-4.709Z" transform="translate(-525.84 -298.825)" fill="#fbfbfb"/>
          <path id="Path_2834" data-name="Path 2834" d="M639.021,244.04l4.809,5.747-6.168,5.33,3.972,83.707-7.21,6.793-4.444-6.829,5.595-83.879-3.555-3.555Z" transform="translate(-472.441 -176.514)" fill="#fdb819"/>
          <path id="Path_2835" data-name="Path 2835" d="M444.832,445.645h-.012l.056.124a.057.057,0,0,1,.02.044c.076.156.2.433.337.758a11.661,11.661,0,0,1,.9,2.433c-.056.232-1.234.553-2.02.741-.309.076-.553.124-.645.152a.217.217,0,0,1-.044.008s.4,1.178,0,1.419a7.016,7.016,0,0,1-1.335.425c-.3.076-.553.136-.7.168l-.12.032a5.314,5.314,0,0,1-1.491,1.92,5.916,5.916,0,0,1-2,.509l-.2-.1-.533-.269-.024-.012-2.365-1.21-.577-.3-2.757-1.411-.569-.3-3.511-1.791-7.486-3.823,2.789-10.384,10.873-4.284s16.038,10.316,16.459,11.049-.108,3.711-.212,3.843c-.076.092-2.689.188-4.044.237h-.012C445.192,445.633,444.9,445.645,444.832,445.645Z" transform="translate(-346.469 -288.248)" fill="#b0b0b0"/>
          <path id="Path_2836" data-name="Path 2836" d="M448.2,472.163a11.754,11.754,0,0,1-1.074,4.332,1.639,1.639,0,0,1-.565.625.788.788,0,0,1-.353.108,1.747,1.747,0,0,1-1.563-.814,2.1,2.1,0,0,1-.269-.541,2.735,2.735,0,0,1-.353.188,3.026,3.026,0,0,1-2.413.176,1.1,1.1,0,0,1-.786-1v-.012a1.452,1.452,0,0,1,.208-.709s-.268.052-.669.092c-1.114.124-3.29.237-3.719-.721a3.3,3.3,0,0,1,.669-2.409c.942-1.631,2.573-3.378,3.611-3.443a1.769,1.769,0,0,1,.621.068c1.09.325,1.21,1.755,1.21,1.755a3.407,3.407,0,0,1,2.208-.313c1.218.265,1.447,2.144,1.447,2.144S448.2,471.426,448.2,472.163Z" transform="translate(-356.545 -310.739)" fill="#d2d2d2"/>
          <path id="Path_2837" data-name="Path 2837" d="M449.521,423.612s-3.1-.589-3.29,1.018,1.92,8.7,2.312,8.777,3.33.393,3.37-.433-.393-7.366-.393-7.366Z" transform="translate(-362.324 -284.058)" fill="#d2d2d2"/>
          <path id="Path_2838" data-name="Path 2838" d="M378.274,951.539H335.06l.216-1.88.152-1.254L337.1,934.19l14.115-3.03L358,935.512l1.2.773,1.719,1.1,1.17.745,2.661,1.707,1.082.7,2.1,1.346,1.07.681,6.5,4.164.966,1.675.721,1.254Z" transform="translate(-295.713 -588.264)" fill="#7c7c7c"/>
          <path id="Path_2839" data-name="Path 2839" d="M286.872,968.655H268.534c-6.428,0-23.044-6.272-23.044-6.272l.541-2.7v-.008l.253-1.242,2.188-10.941,15.2-3.811,4.685,4.256,1.1,1,1.046.954,1.078.978,1.258,1.146,1.054.958h.008l2.036,1.856,1.01.914,5.695,5.178,2.385,4.352.677,1.242Z" transform="translate(-242.039 -595.767)" fill="#7c7c7c"/>
          <path id="Path_2840" data-name="Path 2840" d="M325.727,628.956l-.313,41.382,1.723,4.388-1.723,5.33.068.1.8,1.046,1.643,2.152-.032.172-.24,1.306-1.29,7.089-14.115,3.03-7.366-58.94-1.262-10.668v0l-.168-1.443-.152-1.286-.581-4.933v-.008l-.389-3.314-8.737-74.125,26.13-6.292,8.36-2.016v28.686l-1.988,57.713-.064,1.868-.168,4.961-.064,1.735Z" transform="translate(-270.863 -349.023)" fill="#fdb819"/>
          <path id="Path_2841" data-name="Path 2841" d="M321.686,731.48l4.34,11.678-7.883,9.238-1.783-15.137Z" transform="translate(-284.508 -468.608)" fill="#7c7c7c"/>
          <path id="Path_2842" data-name="Path 2842" d="M318.61,625.341l24.462-73.892V531.92l-2.966,1.884-3.15,21.409-6.108,4.7Z" transform="translate(-285.856 -349.023)" fill="#d59a13"/>
          <path id="Path_2843" data-name="Path 2843" d="M287.373,533.936l-14.54,87.895-.24,1.451-.012.072-1.31,1.988-.938,1.431-1.21,1.824-3.643,5.53-3.595,50.536-.1,1.435-.068.942-.473,1.254,1.238,1.9.645.994-.068.132-2.641,5.1-.268.521-1.455.589-14.267,5.8-4.817-6.388,1.8-5.018.393-75.587,3.218-2.344-1.807-1.964,5.719-16.615-5.2-63.488Z" transform="translate(-238.516 -349.023)" fill="#fdb819"/>
          <path id="Path_2844" data-name="Path 2844" d="M302.9,533.04A14.322,14.322,0,0,1,298.956,542c-3.763,3.607-13.526,4.781-24.046,4.388s-23.376-3.919-23.376-3.919l-.264-3.242Z" transform="translate(-245.503 -349.694)" fill="#d59a13"/>
          <path id="Path_2845" data-name="Path 2845" d="M277.794,307.258c-10.187,1.1-40.914-3.988-40.914-3.988l5.939-41.6.124-.9s-.076-.79-.208-2.212c-.4-4.432-1.343-15.012-2.176-26.8-.745-10.528-1.419-22.022-1.563-30.987a96.87,96.87,0,0,1,.389-12.48c1.158-8.741,7.121-18.872,13.494-27.528.268-.369.545-.741.814-1.1.224-.3.453-.6.677-.89,1.158-1.523,2.324-2.99,3.467-4.384a180.581,180.581,0,0,1,12.251-13.6l19.457,8.765-11.758,22.23,1.178,2.9,4.188,10.3,12.448,30.6a.584.584,0,0,0,.032.068.223.223,0,0,1,.024.056s-.012.914-.032,2.553c-.008.585-.012,1.266-.02,2.032-.056,5.623-.156,15.77-.208,26.719v1.423c-.056,14.223-.024,29.5.257,37.816C296.289,304.6,287.981,306.163,277.794,307.258Z" transform="translate(-236.88 -114.642)" fill="#fdb819"/>
          <path id="Path_2846" data-name="Path 2846" d="M260.106,342l-16.383-21.413c-.745-10.528-1.419-22.022-1.563-30.987l.232-.585Z" transform="translate(-240.044 -203.468)" fill="#d59a13"/>
          <path id="Path_2847" data-name="Path 2847" d="M321.764,235.932c-.769-1.655-9.205-19.777-15.934-29.344-4.941-7.021-17.946-20.2-25.3-27.464,1.158-1.523,2.324-2.99,3.467-4.384l19.954,17.393Z" transform="translate(-263.037 -134.987)" fill="#fbfbfb"/>
          <path id="Path_2848" data-name="Path 2848" d="M320.882,149.575,309.124,171.8,289.17,154.412a180.588,180.588,0,0,1,12.251-13.6Z" transform="translate(-268.214 -114.654)" fill="#b0b0b0"/>
          <path id="Path_2849" data-name="Path 2849" d="M338.039,225.39l-2.589,5.174,6.781,5.122-1.238,4.661,13.682,25.937Z" transform="translate(-295.947 -165.338)" fill="#001327"/>
          <path id="Path_2850" data-name="Path 2850" d="M417.977,436.114,414.6,447.772l-5.358-1.286,4.208-12.616Z" transform="translate(-340.165 -290.268)" fill="#fbfbfb"/>
          <path id="Path_2851" data-name="Path 2851" d="M314.568,318.034l-7.31,18.647-47.446-23.713s-17.181-44.256-17.946-52.307.076-20.791,11.782-20.066,19.224,9.2,20.479,21.946,3.988,32.4,3.988,32.4l1.134,1.254-1.134,1.363,4.376.942,20.591,12.54,1.387.846Z" transform="translate(-239.746 -174.432)" fill="#fdb819"/>
          <path id="Path_2852" data-name="Path 2852" d="M315.052,103.015s4.853,17.87-1.567,18.267-12.075-4.7-14.347-8.151a14.283,14.283,0,0,1-2.2-7.25v-.044l-16.5,7s-12.191-12.163-8.584-24.474,13.95-13.249,20.3-12.7c4.1.357,7.382.709,10.292,2.565h.008a15.519,15.519,0,0,1,4.517,4.645,35.176,35.176,0,0,1,3.475,6.576c.252.625.465,1.2.641,1.735a27.84,27.84,0,0,0,1.29,3.6c.866,1.411,6.039,5.406,6.039,6.508S315.052,103.015,315.052,103.015Z" transform="translate(-257.443 -75.545)" fill="#b0b0b0"/>
          <path id="Path_2853" data-name="Path 2853" d="M618.327,191.155l-.04-.016c-.473-.188-.773.22-.749.625l0,0a7.586,7.586,0,0,1-.766.794,6.24,6.24,0,0,1-1.066.822,4.709,4.709,0,0,1-2.573.966c-.806-.06-.8,1.194,0,1.254a6.2,6.2,0,0,0,3.459-1.3c.769-.5,2.14-1.535,2.2-2.533A.627.627,0,0,0,618.327,191.155Z" transform="translate(-461.982 -144.785)" fill="#7c7c7c"/>
          <path id="Path_2854" data-name="Path 2854" d="M609.365,152.444a4.612,4.612,0,0,0-4.633.337,4.432,4.432,0,0,1,.156-1.787c.052-.144.1-.309.164-.481a6.655,6.655,0,0,1,5.262.309C611.381,151.386,610.435,153.009,609.365,152.444Z" transform="translate(-457.297 -120.229)" fill="#7c7c7c"/>
          <path id="Path_2855" data-name="Path 2855" d="M615.161,162.274c.345,1.05.068,2.084-.613,2.308s-1.515-.445-1.859-1.5-.068-2.084.613-2.308S614.816,161.224,615.161,162.274Z" transform="translate(-461.99 -126.593)" fill="#7c7c7c"/>
          <path id="Path_2856" data-name="Path 2856" d="M681.4,229.768q-.6,5.146-.89,10.32a.637.637,0,0,1-.625.625,13.238,13.238,0,0,0-4.428,1.158,16.885,16.885,0,0,0,4.312,3.779.634.634,0,0,1,.224.858Q669.772,264.9,661.33,284.2c.008-.878.02-1.775.024-2.685,0-.156.008-.321.008-.477q7.863-17.692,17.269-34.642a18.773,18.773,0,0,1-4.685-4.444.625.625,0,0,1,.224-.858,15.716,15.716,0,0,1,4.6-1.535c1-.164.745-3.543.813-4.312.188-2.144.409-4.288.669-6.42C680.647,229.167,681.027,229.475,681.4,229.768Z" transform="translate(-491.228 -167.4)" fill="#7c7c7c"/>
          <path id="Path_2857" data-name="Path 2857" d="M616.714,291.1c-.052,1.811-.1,3.711-.164,5.667q-2.248-11.464-4.508-22.919c-.621-3.166-1.912-6.765-1.735-9.995.088-1.523,2.108-3.406,3.318-4.7a2.8,2.8,0,0,1-.5-2.821q.878-3.348,1.767-6.7l1.335-.721c-1.134,3.887-2.509,9.153-1.479,9.506a.633.633,0,0,1,.276,1.046c-.946,1.158-2.609,2.613-3.21,3.964-.685,1.5.208,3.811.509,5.334q.932,4.743,1.867,9.494Q615.457,284.69,616.714,291.1Z" transform="translate(-460.642 -179.438)" fill="#7c7c7c"/>
          <path id="Path_2858" data-name="Path 2858" d="M698.266,317.432c-.176-.26-1.587-2.653-1.587-2.653a.627.627,0,0,0-1.082.633c.056.112.12.212.18.321q-6.522,2.549-13.049,5.074c-.745.289-.421,1.5.333,1.21q6.673-2.579,13.333-5.186c.248.413.509.822.789,1.23C697.633,318.726,698.723,318.1,698.266,317.432Z" transform="translate(-503.798 -218.727)" fill="#7c7c7c"/>
          <path id="Path_2859" data-name="Path 2859" d="M768.521,294.81a136.874,136.874,0,0,1-13.017,5.6c-.757.281-1.086-.93-.333-1.21A131.2,131.2,0,0,0,769.7,292.81l-1.467,1.88Z" transform="translate(-547.206 -205.739)" fill="#7c7c7c"/>
          <path id="Path_2860" data-name="Path 2860" d="M774.859,298.4q-5.548,4.749-10.764,9.871a.627.627,0,0,1-.886-.886c3.342-3.29,6.8-6.46,10.352-9.514Z" transform="translate(-552.166 -208.771)" fill="#7c7c7c"/>
          <path id="Path_2861" data-name="Path 2861" d="M787.262,313.94q-4.412,2.368-8.921,4.557c-.725.353-1.363-.725-.633-1.086q4.581-2.218,9.065-4.621Z" transform="translate(-560.773 -217.712)" fill="#7c7c7c"/>
          <path id="Path_2862" data-name="Path 2862" d="M779.5,357.052c-.052.156-.108.321-.156.477a.614.614,0,0,1-.733.413,60.255,60.255,0,0,0-8.284,8.632c-.265-.281-.553-.589-.858-.93a61.2,61.2,0,0,1,8.985-9.209C778.9,356.07,779.717,356.4,779.5,357.052Z" transform="translate(-556.029 -243.775)" fill="#7c7c7c"/>
          <path id="Path_2863" data-name="Path 2863" d="M791.636,368.516q-7.815,2.411-15.638,4.821a.573.573,0,0,1-.2.024c-.369.337-.745.677-1.118,1.022l.481-1.779-.2-.2a101.683,101.683,0,0,1,10.428-8.388.645.645,0,0,1,.585-.589c.168-.02.337-.032.5-.052.677-.068.777.846.321,1.166a99.65,99.65,0,0,0-8.841,6.885q5.915-1.827,11.83-3.651a.563.563,0,0,1,.585-.5c.365,0,.733.008,1.1.008A.632.632,0,0,1,791.636,368.516Z" transform="translate(-559.152 -248.022)" fill="#7c7c7c"/>
          <path id="Path_2864" data-name="Path 2864" d="M770.967,426.235a107.078,107.078,0,0,1-16.627-1.819l1-1.086a104.778,104.778,0,0,0,15.626,1.647C771.777,425.009,771.777,426.264,770.967,426.235Z" transform="translate(-546.963 -283.952)" fill="#7c7c7c"/>
          <path id="Path_2865" data-name="Path 2865" d="M674.343,496.492c-1.3.721-2.613,1.443-3.919,2.164a4.978,4.978,0,0,1-.164-.89,5.212,5.212,0,0,1-.709-.064q2.08-1.148,4.156-2.3C674.419,495.018,675.044,496.1,674.343,496.492Z" transform="translate(-496.153 -327.093)" fill="#7c7c7c"/>
          <path id="Path_2866" data-name="Path 2866" d="M682.257,502.916a11.254,11.254,0,0,1-3.811,2.569,6.3,6.3,0,0,1-.136-.89,3.828,3.828,0,0,1-.91-.064,9.792,9.792,0,0,0,3.968-2.509C681.929,501.449,682.822,502.331,682.257,502.916Z" transform="translate(-500.857 -330.996)" fill="#7c7c7c"/>
          <path id="Path_2867" data-name="Path 2867" d="M689.914,511.875a13.286,13.286,0,0,1-2.641,1.563,3.587,3.587,0,0,1-.108-.725,4.45,4.45,0,0,1-1.254.313.645.645,0,0,1,.413-.533,12.094,12.094,0,0,0,2.954-1.7C689.926,510.3,690.547,511.395,689.914,511.875Z" transform="translate(-505.957 -336.289)" fill="#7c7c7c"/>
          <path id="Path_2868" data-name="Path 2868" d="M699.38,499.215a8.3,8.3,0,0,1-3.3-.365c-.773-.248-1.1.966-.333,1.21a9.246,9.246,0,0,0,3.639.409C700.181,500.4,700.185,499.147,699.38,499.215Z" transform="translate(-511.588 -329.187)" fill="#7c7c7c"/>
          <path id="Path_2869" data-name="Path 2869" d="M690.378,491.309l-.473-.144c-.773-.237-1.106.974-.333,1.21l.473.144C690.819,492.755,691.147,491.545,690.378,491.309Z" transform="translate(-507.888 -324.583)" fill="#7c7c7c"/>
          <path id="Path_2870" data-name="Path 2870" d="M644.82,747.524c-.2.12-.4.236-.6.365a.628.628,0,0,1-.922-.665q-3.661-1.268-7.306-2.545c.621,2.477,2.024,4.765,2.553,7.294q.246,1.166.4,2.332a29.393,29.393,0,0,1,.244,4.088.627.627,0,0,1-1.254,0,29.246,29.246,0,0,0-.3-4.621,19.382,19.382,0,0,0-.854-3.491c-.645-1.864-1.888-3.831-2.152-5.819-.012-.088-.012-.176-.02-.257-.93-.325-1.856-.645-2.785-.974-.136-.521-.268-1.014-.381-1.463,1.074.377,2.144.754,3.222,1.122a26.974,26.974,0,0,1,1.531-4.865.3.3,0,0,0-.052-.024c-1.3-.741-2.6-1.455-3.911-2.164.144-.409.281-.813.421-1.2,1.323.709,2.645,1.435,3.951,2.18.665-2.168.858-4.208-.858-5.731a.635.635,0,0,1,0-.89c2.8-3.074.244-8.208-.124-11.8-.381-3.723-.309-7.494-.789-11.213-.569-4.364-2.176-8.44-3-12.74a106.837,106.837,0,0,1-1.367-10.792c-.076-.833-.168-1.663-.256-2.5-.709-.445-1.4-.9-2.112-1.343-.685-.421-.056-1.507.633-1.078.433.264.854.541,1.278.81-.156-1.23-.337-2.465-.533-3.7-.289-.353-.565-.713-.83-1.09-.313-.445.068-.866.5-.91-2.445-13.69-7.162-27.083-11.73-40.124-.269-.77.946-1.1,1.21-.337,4.24,12.1,8.464,24.466,11.217,37,.369,1.675.657,3.354.9,5.034a57.38,57.38,0,0,0,6.572,6.252c.609.541-.281,1.419-.89.89-1.836-1.611-3.707-3.19-5.386-4.953.112.922.212,1.851.313,2.777,1.367.89,2.733,1.787,4.076,2.709a.6.6,0,0,1,.465.164c.212.2.433.4.645.6.521.477-.168,1.391-.757.986-1.4-.978-2.829-1.924-4.264-2.857.212,2.132.413,4.272.665,6.416.7,6,2.785,11.582,3.751,17.505.946,5.783.713,11.594,1.876,17.369.337,1.691.854,3.807.237,5.494-.533,1.455-.9,1.343-.325,2.641a6.562,6.562,0,0,1,.481,4.208,10.884,10.884,0,0,1-.609,1.767c1.1.633,2.2,1.278,3.278,1.944a18.857,18.857,0,0,0,2.745,1.751l.032-.008a.635.635,0,0,1,.769.441.854.854,0,0,0,.024.108.637.637,0,0,1-.769.769c-1.174-.156-2.441-1.375-3.435-1.976q-1.569-.95-3.162-1.88a10.011,10.011,0,0,0-1.319,4.741q4.46,1.551,8.921,3.11A.628.628,0,0,1,644.82,747.524Z" transform="translate(-464.887 -409.566)" fill="#7c7c7c"/>
          <path id="Path_2871" data-name="Path 2871" d="M724.71,745.87c-.276.044-.6.076-.986.124-1.13.136-2.264.276-3.4.369-.068.008-.136.008-.208.012-.064.469-.156.942-.265,1.411-.168.789-.365,1.587-.465,2.388a6.925,6.925,0,0,0,.064,2.385c.176.79-1.034,1.122-1.21.333a8.7,8.7,0,0,1,.032-3.667c.056-.265.112-.533.18-.8.164-.665.345-1.318.453-1.956-1.6.108-3.19.168-4.8.192-.585.012-1.166.012-1.751.012a.628.628,0,0,1,0-1.254c1.254.008,2.513-.012,3.767-.056.741-.02,1.475-.056,2.212-.108.212-.008.433-.024.645-.036a3.818,3.818,0,0,0-.934-2.308,3,3,0,0,1-.641-.946,6.533,6.533,0,0,1-.264-1.743c-.6.024-1.21.052-1.811.068a.628.628,0,0,1,0-1.254c.613-.02,1.23-.044,1.844-.068.076-1.042.256-2.1.337-3.1.188-2.469.357-4.933.477-7.41.525-11.129.421-22.27.168-33.415-.092-4.42-.188-8.841-.321-13.257-2.068-2.469-4.452-4.733-6.7-6.961a.628.628,0,0,1,.886-.89c1.912,1.9,3.911,3.819,5.751,5.863-.052-1.491-.108-2.99-.176-4.488-.733-.8-1.463-1.591-2.18-2.4-1.178-1.319-2.785-2.677-3.511-4.308-.321-.733.757-1.375,1.086-.633.842,1.888,2.877,3.587,4.264,5.11.08.088.168.18.252.269-.176-3.543-.4-7.077-.709-10.616-.966-10.865-2.465-21.677-4.008-32.474-.112-.8,1.1-1.134,1.21-.337,1.5,10.508,3,21.024,3.939,31.6.4,4.4.665,8.817.866,13.225.765.833,1.531,1.667,2.308,2.489a.637.637,0,0,1-.445,1.074c-.156,0-.321.008-.477.008a.609.609,0,0,1-.569-.842c-.244-.256-.481-.521-.725-.786.064,1.543.12,3.078.168,4.617.469.569.934,1.154,1.363,1.755a.663.663,0,0,1,.553.409c.176.409.345.814.513,1.23.288.677-.786,1.058-1.142.481-.381-.6-.8-1.19-1.222-1.763.108,3.463.18,6.921.265,10.392.252,11.129.445,22.286-.088,33.415-.136,2.885-.3,5.767-.533,8.648-.1,1.2-.232,2.152-.236,3.046,1.154-.056,2.312-.124,3.467-.212l-.088,1.254c-1.1.08-2.2.144-3.3.2a7.862,7.862,0,0,0,.946,2.621,5.168,5.168,0,0,1,.621,2.344c.044-.008.092-.008.136-.012,1.11-.108,2.308-.369,3.507-.577Z" transform="translate(-520.964 -407.475)" fill="#7c7c7c"/>
          <path id="Path_2872" data-name="Path 2872" d="M557.426,389.367l-.834-.413a.521.521,0,0,1-.309-.413q-3.036-2.218-6.083-4.428l1.118-.733q3.366,2.453,6.741,4.905A.627.627,0,0,1,557.426,389.367Z" transform="translate(-424.634 -260.012)" fill="#7c7c7c"/>
          <path id="Path_2873" data-name="Path 2873" d="M560.9,378.682c-.353,0-.7.008-1.046.008a.581.581,0,0,1-.6-.533A78.149,78.149,0,0,1,549.14,373.8a13.148,13.148,0,0,1,2.144-.124.528.528,0,0,0,.08-.156,77.258,77.258,0,0,0,9.7,3.939A.624.624,0,0,1,560.9,378.682Z" transform="translate(-423.999 -254.104)" fill="#7c7c7c"/>
          <path id="Path_2874" data-name="Path 2874" d="M628.559,980.14H579.45l.669-1.25h48.416Z" transform="translate(-442.162 -616.866)" fill="#999"/>
          <path id="Path_2875" data-name="Path 2875" d="M735.716,979.094H715.662l-.032-1.255H735.5Z" transform="translate(-523.766 -616.236)" fill="#999"/>
          <path id="Path_2876" data-name="Path 2876" d="M731.65,949.969c-.609-.633-1.707-.377-2.5-.381l-4.993-.012a.628.628,0,0,0,0,1.254c1.11,0,2.22,0,3.326.008.553,0,1.11,0,1.663,0,.168,0,.9-.08,1.327-.056a.607.607,0,0,0,.537.341.75.75,0,0,0,.737-.4A.614.614,0,0,0,731.65,949.969Z" transform="translate(-528.509 -599.278)" fill="#999"/>
          <path id="Path_2877" data-name="Path 2877" d="M731.3,943.646a2.821,2.821,0,0,0-2.3-.826c-1.623-.024-3.25.024-4.873.036a.628.628,0,0,0,0,1.254l2.926-.02c.93-.008,2.677-.357,3.362.441C730.941,945.149,731.827,944.259,731.3,943.646Z" transform="translate(-528.497 -595.247)" fill="#999"/>
          <path id="Path_2878" data-name="Path 2878" d="M633.611,951.013q-2.314-1.521-4.761-2.817l1.266-.745c1.411.77,2.785,1.591,4.128,2.477C634.917,950.372,634.288,951.458,633.611,951.013Z" transform="translate(-471.764 -598.026)" fill="#999"/>
          <path id="Path_2879" data-name="Path 2879" d="M643.009,945.863a56.229,56.229,0,0,1-4.829-3.046l1.186-.7c1.387.954,2.809,1.835,4.276,2.665A.625.625,0,0,1,643.009,945.863Z" transform="translate(-477.355 -594.832)" fill="#999"/>
          <path id="Path_2880" data-name="Path 2880" d="M654.446,941.5q-3.162-2.248-6.316-4.509l1.178-.689q2.88,2.062,5.767,4.112C655.732,940.881,655.1,941.967,654.446,941.5Z" transform="translate(-483.318 -591.344)" fill="#999"/>
          <path id="Path_2881" data-name="Path 2881" d="M377.511,975.444H335.6l.152-1.254H376.79Z" transform="translate(-296.037 -614.049)" fill="#999"/>
          <path id="Path_2882" data-name="Path 2882" d="M388.248,942.793c-1.258.7-2.521,1.379-3.779,2.068-.709.389-1.343-.7-.633-1.086,1.074-.585,2.14-1.166,3.21-1.755Z" transform="translate(-324.756 -594.772)" fill="#999"/>
          <path id="Path_2883" data-name="Path 2883" d="M398.04,947.445c-.689.425-1.375.846-2.064,1.266a.625.625,0,0,1-.633-1.078c.509-.313,1.014-.625,1.523-.934Z" transform="translate(-331.658 -597.576)" fill="#999"/>
          <path id="Path_2884" data-name="Path 2884" d="M408.365,953.511q-.661.6-1.278,1.259c-.553.589-1.435-.3-.886-.886.353-.369.709-.733,1.078-1.074Z" transform="translate(-338.24 -601.238)" fill="#999"/>
          <path id="Path_2885" data-name="Path 2885" d="M416.9,958.6a4.172,4.172,0,0,0-.745.986.629.629,0,0,1-1.086-.633,5.531,5.531,0,0,1,.757-1.034Z" transform="translate(-343.604 -604.3)" fill="#999"/>
          <path id="Path_2886" data-name="Path 2886" d="M296.039,955.3a34.045,34.045,0,0,0-5.222,1.932c-.729.337-1.367-.741-.633-1.086a36.935,36.935,0,0,1,4.761-1.844Z" transform="translate(-268.627 -602.131)" fill="#999"/>
          <path id="Path_2887" data-name="Path 2887" d="M303.56,960.148a28.212,28.212,0,0,0-3.739,1.387c-.733.321-1.375-.758-.633-1.078,1.09-.469,2.176-.934,3.29-1.286Z" transform="translate(-274.02 -605.049)" fill="#999"/>
          <path id="Path_2888" data-name="Path 2888" d="M310.214,965.438c-.289.092-.5.176-.565.2a12.833,12.833,0,0,0-2.641,1.519c-.653.481-1.278-.609-.633-1.078a13.22,13.22,0,0,1,2.785-1.6Z" transform="translate(-278.361 -608.231)" fill="#999"/>
          <path id="Path_2889" data-name="Path 2889" d="M318.907,972.414a8.7,8.7,0,0,0-2.3,1.419c-.609.521-1.5-.365-.886-.89A10.364,10.364,0,0,1,317.9,971.5Z" transform="translate(-284.001 -612.438)" fill="#999"/>
          <path id="Path_2890" data-name="Path 2890" d="M286.5,988.573c-6.176.509-12.56,1.118-18.555.152-7.23-1.158-14.259-4.456-21.12-6.985v-.008l.252-1.242q5.344,1.948,10.7,3.9c3.739,1.363,7.494,2.91,11.494,3.246a106.2,106.2,0,0,0,16.547-.3Z" transform="translate(-242.836 -617.825)" fill="#999"/>
          <path id="Path_2891" data-name="Path 2891" d="M363.063,111.979a5.96,5.96,0,0,0-3.354,2.469c-.657,1.014-2.288.076-1.623-.946a7.824,7.824,0,0,1,4.34-3.262C362.675,110.869,362.891,111.446,363.063,111.979Z" transform="translate(-309.418 -96.336)" fill="#7c7c7c"/>
          <path id="Path_2892" data-name="Path 2892" d="M267.069,311.717a61.046,61.046,0,0,0-20.7,1.8.628.628,0,0,0,.333,1.21,59.959,59.959,0,0,1,19.285-1.819.619.619,0,0,0,1.05.377c.156-.164.313-.329.473-.493A.635.635,0,0,0,267.069,311.717Z" transform="translate(-242.302 -216.939)" fill="#7c7c7c"/>
          <path id="Path_2893" data-name="Path 2893" d="M269.958,320.708c-2.938-.277-6.164.357-9.093.645-3.282.325-6.552.745-9.815,1.206-.8.112-.457,1.323.333,1.21q4.731-.667,9.482-1.162c2.922-.3,6.164-.922,9.093-.645C270.763,322.038,270.755,320.784,269.958,320.708Z" transform="translate(-245.099 -222.416)" fill="#7c7c7c"/>
          <path id="Path_2894" data-name="Path 2894" d="M265.17,245.8a16.635,16.635,0,0,0-16.82-5.671,12.669,12.669,0,0,0-9.442,12.692c.028.806,1.282.81,1.254,0-.212-5.915,3.859-10.364,9.454-11.706,5.514-1.323,11.157,1.439,14.668,5.575C264.805,247.3,265.691,246.413,265.17,245.8Z" transform="translate(-238.091 -173.886)" fill="#7c7c7c"/>
          <path id="Path_2895" data-name="Path 2895" d="M338.264,326.456c-2.841-1.523-6.072-2.645-8.717-4.024a38.085,38.085,0,0,1-7.526-4.789,6.409,6.409,0,0,0-4.2-1.13,19.211,19.211,0,0,1,2.785-3.635c.3-.309.212-.978-.277-1.046-2.817-.421-2.465-6.216-2.529-8.865,2.132,1.21,4.268,2.429,6.4,3.635a.625.625,0,0,0,.633-1.078c-.2-.132-.4-.265-.589-.389a.542.542,0,0,0-.269-.1q-3.12-1.779-6.24-3.555c-.012-.012-.032-.024-.044-.036-.056-.685-.132-1.363-.2-2.044a37.933,37.933,0,0,0,6.572,4.545.63.63,0,0,0,.757-.986c-.409-.4-.814-.8-1.222-1.19a.584.584,0,0,0-.814-.024,36.386,36.386,0,0,1-5.466-4.164q-.271-2.537-.589-5.078a11.135,11.135,0,0,0-1.4-4.132c1.331-2.212,3.062-4.252,2.008-6.777l-2.6-6.2c-.345-.834-.489-1.607-1.335-1.98-.725-.325-1.367.753-.625,1.086,1.266.565,2.389,5.13,2.918,6.388.6,1.443,1.166,1.952.333,3.5l-.064.112c-.369-.433-.721-.99-1-1.347-.4-.525-.789-1.066-1.174-1.607-.766-1.078-1.475-2.2-2.156-3.334a.625.625,0,0,0-1.078.633q1.28,2.134,2.733,4.144a18.125,18.125,0,0,0,2.052,2.673c-.264.489-.525.978-.79,1.475a74.845,74.845,0,0,0-5.11-5.855c-.533-.613-1.419.276-.886.886,1.547,1.775,3.911,3.831,5.422,6.027-.044.076-.08.156-.124.232a.641.641,0,0,0,.81.886,7.325,7.325,0,0,1,.509,1.158,28.3,28.3,0,0,1,1.01,7.077.537.537,0,0,0,.044.733c.052.978.108,1.932.188,2.829.012.152.024.309.036.465a.581.581,0,0,0,.044.585c.164,2.457.152,4.985.533,7.406.236,1.519.757,2.665,2,3.206a20.206,20.206,0,0,0-2.829,4.076.636.636,0,0,0,.541.942c1.908-.024,3.479-.036,5.054,1.323a13.159,13.159,0,0,0,1.463,1.242c1.823,1.166,3.755,2.164,5.663,3.174.729.385,1.507.753,2.316,1.11A21.263,21.263,0,0,1,327.5,325.8c-1.443.461-2.906.862-4.372,1.254a90.923,90.923,0,0,1-8.9,1.848c-.8.128-.457,1.339.333,1.21,3.374-.549,6.7-1.258,10-2.14,2.152-.573,6.364-1.134,8-2.749a57.158,57.158,0,0,1,5.711,2.681v-1.451Z" transform="translate(-279.737 -194.084)" fill="#7c7c7c"/>
          <path id="Path_2896" data-name="Path 2896" d="M259.792,452.814a150.409,150.409,0,0,1-8.228-15.044l.124-.9s-.076-.789-.208-2.212a150.747,150.747,0,0,0,9.386,17.521C261.3,452.866,260.221,453.5,259.792,452.814Z" transform="translate(-245.629 -290.741)" fill="#7c7c7c"/>
          <path id="Path_2897" data-name="Path 2897" d="M300.791,452.232a235.665,235.665,0,0,0-26.542-.838,33.958,33.958,0,0,0,1.078-4.068q10.857.355,21.709.818c.81.036.806-1.218,0-1.254q-10.887-.475-21.773-.822a.62.62,0,0,0-.874-.028c-.818-.028-1.631-.06-2.445-.084s-.806,1.23,0,1.254c.705.02,1.411.048,2.116.072a33.692,33.692,0,0,1-1.294,4.589.631.631,0,0,0,.605.794,234.45,234.45,0,0,1,26.049.709c.144.3,1.423.136,1.687.024C301.745,453.133,301.336,452.28,300.791,452.232Z" transform="translate(-257.529 -297.46)" fill="#7c7c7c"/>
          <path id="Path_2898" data-name="Path 2898" d="M360.023,723.878l-.236,1.3c-1.046.208-2.088.477-3.13.777a10.563,10.563,0,0,0-.345,4.665c.108.8-1.146.789-1.254,0a11.412,11.412,0,0,1,.108-4.22c-2.2.669-4.376,1.411-6.52,1.92-.785.18-1.114-1.022-.333-1.21,2.388-.565,4.817-1.391,7.25-2.12.152-.87-.176-1.355-.842-2.076a31.9,31.9,0,0,0-6.6,3.491c-.657.469-1.278-.621-.633-1.086a31.526,31.526,0,0,1,6.584-3.491.087.087,0,0,1,.008-.044c.878-2.464,2.613-5.454,1.823-8.1a20.721,20.721,0,0,1-.545-5.174q-.337-7.911-.685-15.834t-.689-15.826c-.076-1.791-.264-3.651-.289-5.486-.236.245-.481.481-.713.725-.557.585-1.447-.3-.89-.89.541-.557,1.09-1.1,1.635-1.655.02-.4.052-.81.1-1.2.2-1.607.613-3.134.946-4.709a23.45,23.45,0,0,1-3.94,3.274c-.689.425-1.322-.657-.633-1.078a29.81,29.81,0,0,0,4.953-4.2c1.755-10.119,1.687-20.936,1.952-31.143s.22-20.415-.124-30.626c-.032-.81,1.222-.8,1.254,0,.377,11.025.421,22.054.052,33.071-.188,5.711-.457,11.426-.854,17.132-.232,3.346-.337,6.785-.785,10.151l.2-.188c.441-.389.9-.87,1.379-1.363l-.064,1.868c-.613.545-1.222,1.1-1.823,1.647-.132.729-.281,1.455-.457,2.168a27.489,27.489,0,0,0-.645,3.707c.9-.87,1.823-1.731,2.757-2.565l-.064,1.735c-.966.9-1.912,1.8-2.845,2.729-.2,3.9.192,7.851.365,11.77q.337,7.911.685,15.826c.124,2.841.253,5.687.369,8.528.108,2.453-.224,5.466.822,7.731.6,1.3.036,2.457-.413,3.723-.4,1.146-.81,2.288-1.218,3.435a1.392,1.392,0,0,0-.068.245c.665-.253,1.331-.489,2-.721l.8,1.046c-.822.281-1.647.577-2.465.89a13.29,13.29,0,0,0,1.2,1.254.644.644,0,0,1,.1.757c-.012.024-.02.052-.032.076C358.147,724.282,359.081,724.054,360.023,723.878Z" transform="translate(-302.995 -389.378)" fill="#7c7c7c"/>
          <path id="Path_2899" data-name="Path 2899" d="M280.229,639.542c-.545,2.036-1.218,4.02-1.968,6.007.846-.365,1.7-.721,2.553-1.074.625-.265,1.254-.521,1.88-.777l-.236,1.447c-.5.2-1,.409-1.491.613-1.118.465-2.224.934-3.33,1.419-.4.986-.8,1.98-1.222,2.99l3.779-1.531-1.21,1.823c-1.086.445-2.176.886-3.262,1.323a52.764,52.764,0,0,0-3.086,7.975A55.429,55.429,0,0,0,271.412,671l-.846,20.88q-.228,5.531-.453,11.061c-.064,1.479-.12,2.966-.18,4.452.6-.3,1.2-.581,1.811-.87l-.1,1.435c-.609.3-1.218.589-1.82.886-.1.934-.168,2.044.353,2.6a4.765,4.765,0,0,1,.758,1.066c.465-.152.934-.3,1.4-.453l.645,1-.068.132c-.525.164-1.058.337-1.587.509a8.6,8.6,0,0,1-1.054,4.589,15.182,15.182,0,0,0-1.29,3.719c-.112.8-1.318.457-1.21-.333a9.951,9.951,0,0,1,.778-2.276c.757-1.735,1.767-3.739,1.6-5.322q-6.715,2.194-13.325,4.7c-.757.288-1.086-.922-.333-1.21q6.565-2.483,13.237-4.661a2.749,2.749,0,0,0-.91-.813.618.618,0,0,1-.313-.541c.032-.7.056-1.391.088-2.088-3.122,1.563-6.2,3.21-9.217,4.965a.625.625,0,0,1-.633-1.078q4.863-2.832,9.907-5.31.7-17.289,1.4-34.569c.22-5.422.112-11.085,2.088-16.227.613-1.619,1.3-3.218,2-4.809-.942.381-1.88.766-2.821,1.146-.753.3-1.074-.91-.337-1.21l3.875-1.567c.441-.99.87-1.976,1.3-2.974q-2.435,1.07-4.861,2.188c-.725.337-1.367-.741-.633-1.086q3.078-1.419,6.188-2.765c.557-1.375,1.09-2.757,1.563-4.164a41.327,41.327,0,0,0,1.431-5.783c.733-4.056,1.034-8.228,1.555-12.271q1.166-9.149,2.34-18.311,2.332-18.311,4.677-36.617c.1-.789,1.355-.8,1.254,0q-2.735,21.359-5.462,42.721-1.4,10.983-2.8,21.97A42.585,42.585,0,0,1,280.229,639.542Z" transform="translate(-248.377 -370.89)" fill="#7c7c7c"/>
          <path id="Path_2900" data-name="Path 2900" d="M356.971,550.641a.642.642,0,0,0-.793-.605c-.08.012-.156.02-.236.032a.628.628,0,0,0-.461.605l0,.188a.556.556,0,0,0,.228.481,31.518,31.518,0,0,1-1.138,4.26c-.469,1.928-.834,3.875-1.174,5.831-.236,1.355-.3,3.923-1.27,4.953a20.274,20.274,0,0,1-5.026,3.3c-.709.385-.076,1.471.633,1.082,2.184-1.186,6.007-2.853,6.376-5.639.357-2.7.83-5.37,1.4-8.035C355.941,555.1,357.147,552.668,356.971,550.641Z" transform="translate(-302.74 -359.873)" fill="#7c7c7c"/>
          <path id="Path_2901" data-name="Path 2901" d="M319.559,246.5c-.008.585-.012,1.266-.02,2.032L304.5,228.693c-2.845-3.751-6.188-7.43-8.608-11.47-1.218-2.024-2.032-4.032-1.5-6.2-3.931.389-6.428-5.374-8.244-8.063-3.118-4.617-6.484-9.153-9.342-13.958.269-.369.545-.741.814-1.1,2.152,3.631,4.641,7.073,7,10.564,1.29,1.908,2.585,3.811,3.867,5.723,1.363,2.012,3.418,6.609,6.7,5.362.565-.22.91.477.709.922-2.02,4.332,3.595,9.55,5.927,12.628q3.763,4.959,7.526,9.919Z" transform="translate(-260.808 -142.873)" fill="#7c7c7c"/>
          <path id="Path_2902" data-name="Path 2902" d="M301.761,86.115c-.108.413-2.1,5.318-3.134,7.362a10.192,10.192,0,0,1-2.809,3.3s-2.833-5.883-6.388-2.677-1.09,9.971-1.09,9.971l-7.883,8.765s-12.191-12.163-8.584-24.474,13.95-13.249,20.3-12.7c4.1.357,7.382.709,10.292,2.565a9.624,9.624,0,0,0-3.631,1.2c-1.567,1.146-2.3,1.254-1.146,2.509S301.861,85.694,301.761,86.115Z" transform="translate(-257.449 -75.545)" fill="#7c7c7c"/>
          <path id="Path_2903" data-name="Path 2903" d="M350.288,145.3c-6.432.4-12.075-4.7-14.347-8.151a14.283,14.283,0,0,1-2.2-7.25v-.044a21.425,21.425,0,0,0,0-4.885,13.126,13.126,0,0,0-1.134-4.176l1.134-5.166s2.509,5.166,5.51,10.087,8.909,5.719,8.909,5.719a4.353,4.353,0,0,1,.108-2.6c.521-.942,3.579-1.807,3.579-1.807S356.708,144.905,350.288,145.3Z" transform="translate(-294.245 -99.566)" fill="#7c7c7c"/>
          <path id="Path_2904" data-name="Path 2904" d="M313.95,146.72a4.641,4.641,0,0,0,2.853,2.389,11.6,11.6,0,0,0,3.623,0l.176,1.423S314.78,151.493,313.95,146.72Z" transform="translate(-283.063 -118.196)" fill="#7c7c7c"/>
          <path id="Path_2905" data-name="Path 2905" d="M661.28,177.465v.99a17.321,17.321,0,0,0,3.7-.677c1.391-.509,2.02-2.978,2.02-2.978S665.512,177.722,661.28,177.465Z" transform="translate(-491.198 -135.023)" fill="#7c7c7c"/>
          <path id="Path_2906" data-name="Path 2906" d="M317.26,125.725s.862-2.509,2.665-1.411,1.936,5.018,1.936,5.018Z" transform="translate(-285.047 -104.603)" fill="#7c7c7c"/>
          <path id="Path_2907" data-name="Path 2907" d="M325.611,137.25c-.08.236-1.174.1-.705,1.423s1.367,1.555,1.467,1.318A16.864,16.864,0,0,0,325.611,137.25Z" transform="translate(-289.559 -112.521)" fill="#7c7c7c"/>
          <path id="Path_2908" data-name="Path 2908" d="M664.54,156.842s1.924-3.555,3.6-3.07,1.13,3.07,1.13,3.07Z" transform="translate(-493.151 -122.395)" fill="#7c7c7c"/>
          <path id="Path_2909" data-name="Path 2909" d="M664.54,162.8a1.555,1.555,0,0,1,1.2,1.607c-.08,1.322-1.2,1.166-1.2,1.166Z" transform="translate(-493.151 -127.832)" fill="#7c7c7c"/>
          <path id="Path_2910" data-name="Path 2910" d="M368.2,124.941c-.16,1.014-.653,1.783-1.106,1.711s-.689-.95-.533-1.968.653-1.783,1.106-1.711S368.357,123.923,368.2,124.941Z" transform="translate(-314.559 -103.963)" fill="#7c7c7c"/>
          <path id="Path_2911" data-name="Path 2911" d="M455.269,427.891c-.08-.4-.681-.228-.605.168a41.255,41.255,0,0,1,.629,4.432c.048.537.072,1.074.08,1.611.036,1.884-3.635,1.707-3.246,1.823,1.03.317,3.266.605,3.691-.838C456.463,432.929,455.7,430.06,455.269,427.891Z" transform="translate(-365.847 -286.55)" fill="#7c7c7c"/>
          <path id="Path_2912" data-name="Path 2912" d="M454.071,474.384a11.275,11.275,0,0,1-.753,2.553l-.533-.269a1.64,1.64,0,0,1-.565.625.459.459,0,0,1,.064-.056,1.472,1.472,0,0,0,.477-.585,9.59,9.59,0,0,0,.6-2.036,4.714,4.714,0,0,0,.244-1.278c.032-1.03-.553-1.3-1.751-.814a5.806,5.806,0,0,0-1.463,2.922,5.3,5.3,0,0,0-.088,1.122v.02a2.1,2.1,0,0,1-.268-.541,2.744,2.744,0,0,1-.353.188,5.666,5.666,0,0,1,.132-1.086,6.126,6.126,0,0,1,1.09-2.469,4.257,4.257,0,0,1,.922-.886.182.182,0,0,1-.044-.076c-.377-1.118-1-1.687-2.212-1.475-.842.152-1.2.834-1.575,1.519a17.47,17.47,0,0,0-.942,1.976,17.106,17.106,0,0,0-.569,1.655v.012l-.465-.625c.132-.453.289-.9.465-1.335a12.635,12.635,0,0,1,.765-1.635,7.878,7.878,0,0,1,1.01-1.611.329.329,0,0,1-.108-.3c.088-.553-1-1.655-.83-1.579.669.309,1.447.769,1.447,1.5.032-.012.064-.032.1-.044a2.465,2.465,0,0,1,3.5,1.751,1.088,1.088,0,0,1,1.022.152A2.319,2.319,0,0,1,454.071,474.384Z" transform="translate(-362.205 -310.912)" fill="#7c7c7c"/>
          <path id="Path_2913" data-name="Path 2913" d="M471.139,479.5c-.3.076-.553.136-.7.168-.333-.353-.657-.7-.99-1.054a5.114,5.114,0,0,1-1.178-1.423c-.152-.377.453-.533.6-.164a4.108,4.108,0,0,0,.846.966c.224.236.453.477.677.721C470.646,478.974,470.895,479.238,471.139,479.5Z" transform="translate(-375.526 -316.003)" fill="#7c7c7c"/>
          <path id="Path_2914" data-name="Path 2914" d="M477.477,473.895c-.309.076-.553.124-.645.152a10.094,10.094,0,0,1-1.379-2.857.316.316,0,0,1,.609-.164A9.707,9.707,0,0,0,477.477,473.895Z" transform="translate(-379.836 -312.399)" fill="#7c7c7c"/>
          <path id="Path_2915" data-name="Path 2915" d="M481.312,463.131a.524.524,0,0,1-.12.08h-.012c-.413.008-.709.02-.777.02a18.1,18.1,0,0,1-1.274-3,.316.316,0,0,1,.569-.244c.5.369,1,.741,1.507,1.11.232.168.457.333.685.5.092.068.3.18.357.3C482.507,462.454,481.805,462.9,481.312,463.131Z" transform="translate(-382.04 -305.835)" fill="#7c7c7c"/>
          <path id="Path_2916" data-name="Path 2916" d="M612.278,477.641c0,1.559-.445,2.821-.994,2.821s-.994-1.262-.994-2.821.445-2.821.994-2.821S612.278,476.082,612.278,477.641Z" transform="translate(-460.642 -314.807)" fill="#7c7c7c"/>
          <path id="Path_2917" data-name="Path 2917" d="M616.868,424.761c0,1.559-.445,2.821-.994,2.821s-.994-1.262-.994-2.821.445-2.821.994-2.821S616.868,423.2,616.868,424.761Z" transform="translate(-463.393 -283.119)" fill="#7c7c7c"/>
          <path id="Path_2918" data-name="Path 2918" d="M367.552,417.256q-9.925,3.469-19.854,6.949c-.765.268-1.09-.946-.333-1.21q9.4-3.294,18.8-6.584Z" transform="translate(-302.83 -279.805)" fill="#7c7c7c"/>
          <path id="Path_2919" data-name="Path 2919" d="M284.99,421.29l39.246,28.362.02-9.153Z" transform="translate(-265.709 -282.729)" fill="#d59a13"/>
          <path id="Path_2920" data-name="Path 2920" d="M338.32,383.81l17.874,2.926v7.33Z" transform="translate(-297.667 -260.27)" fill="#d59a13"/>
          <path id="Path_2921" data-name="Path 2921" d="M281.57,461.61v2.942l25.392.705v-2.781Z" transform="translate(-263.66 -306.891)" fill="#d59a13"/>
          <path id="Path_2922" data-name="Path 2922" d="M331.655,363.47l6.777,10.3-4.492-2.148-2.93-.369,1.567-4.5Z" transform="translate(-293.286 -248.081)" fill="#7c7c7c"/>
          <path id="Path_2923" data-name="Path 2923" d="M336,225.39l-3.234,6.56-.721-.846Z" transform="translate(-293.904 -165.338)" fill="#7c7c7c"/>
        </g>
      </g>
    </g>
  </g>
</svg>
