<svg xmlns="http://www.w3.org/2000/svg" xmlns:xlink="http://www.w3.org/1999/xlink" width="458" height="458" viewBox="0 0 458 458">
  <defs>
    <linearGradient id="linear-gradient" x1="0.865" y1="0.178" x2="0.152" y2="0.822" gradientUnits="objectBoundingBox">
      <stop offset="0" stop-color="#fdb819"/>
      <stop offset="1" stop-color="#fff"/>
    </linearGradient>
  </defs>
  <g id="Group_2061" data-name="Group 2061" transform="translate(-411 -2495)">
    <circle id="Ellipse_8" data-name="Ellipse 8" cx="229" cy="229" r="229" transform="translate(411 2953) rotate(-90)" fill="url(#linear-gradient)"/>
    <g id="selling" transform="translate(459 2594)">
      <g id="Group_131" transform="translate(79.362)">
        <path id="Path_97" d="M277.78.01l4.15,116.68L251.36,98.06C144.06,247.65,0,259.72,0,259.72,113.27,208.73,178.29,117.33,205.76,70.27L172.18,49.8Z" fill="#4e4e4e"/>
        <path id="Path_98" d="M246.89,14.57,277.79,0l4.15,116.68L251.37,98.05C144.06,247.65.01,259.71.01,259.71,217.58,186.97,248.66,59.73,246.89,14.57Z" fill="#4c4c4c" opacity="0.47"/>
      </g>
      <g id="Group_134" transform="translate(0 60.953)">
        <g id="Group_133">
          <g id="Group_132">
            <path id="Path_99" d="M79.18,0a79.18,79.18,0,1,0,79.18,79.18A79.18,79.18,0,0,0,79.18,0ZM66.82,68.68,95.37,78.2a20.606,20.606,0,0,1,14.11,19.58c0,6.71-3.47,13.16-9.52,17.71a33.121,33.121,0,0,1-14.72,6.05v12.61H73.12V121.54a33.449,33.449,0,0,1-14.72-6.05c-6.05-4.54-9.52-10.99-9.52-17.7H61c0,6.57,8.32,12.12,18.18,12.12s18.18-5.55,18.18-12.12a8.508,8.508,0,0,0-5.82-8.08L62.99,80.19A20.606,20.606,0,0,1,48.88,60.61c0-6.71,3.47-13.16,9.52-17.71a33.237,33.237,0,0,1,14.72-6.05V24.25H85.24V36.86a33.449,33.449,0,0,1,14.72,6.05c6.05,4.54,9.52,10.99,9.52,17.7H97.36c0-6.57-8.32-12.12-18.18-12.12S61,54.04,61,60.6A8.508,8.508,0,0,0,66.82,68.68Z" fill="#cbcbcb"/>
          </g>
        </g>
      </g>
      <g id="Group_135" transform="translate(165.621 13.767)">
        <path id="Path_100" d="M27.83,78.56l4.26-2.13a2.759,2.759,0,0,0,0-4.94l-4.26-2.13a10.149,10.149,0,0,1-4.87-5.29l-3.59-8.98a2.762,2.762,0,0,0-5.13,0l-3.59,8.98a10.13,10.13,0,0,1-4.86,5.29L1.53,71.49a2.759,2.759,0,0,0,0,4.94l4.26,2.13a10.091,10.091,0,0,1,4.86,5.29l3.59,8.98a2.762,2.762,0,0,0,5.13,0l3.59-8.98A10.115,10.115,0,0,1,27.83,78.56Z" fill="#cbcbcb"/>
        <path id="Path_101" d="M59.22,25.2l4.26-2.13a2.759,2.759,0,0,0,0-4.94L59.22,16a10.091,10.091,0,0,1-4.86-5.29L50.77,1.73A2.768,2.768,0,0,0,47.18.19a2.8,2.8,0,0,0-1.54,1.54l-3.59,8.98A10.109,10.109,0,0,1,37.18,16l-4.26,2.13a2.759,2.759,0,0,0,0,4.94l4.26,2.13a10.149,10.149,0,0,1,4.87,5.29l3.59,8.98a2.762,2.762,0,0,0,5.13,0l3.59-8.98A10.051,10.051,0,0,1,59.22,25.2Z" fill="#cbcbcb"/>
      </g>
    </g>
  </g>
</svg>
