<svg xmlns="http://www.w3.org/2000/svg" xmlns:xlink="http://www.w3.org/1999/xlink" width="458" height="458" viewBox="0 0 458 458">
  <defs>
    <linearGradient id="linear-gradient" x1="0.865" y1="0.178" x2="0.152" y2="0.822" gradientUnits="objectBoundingBox">
      <stop offset="0" stop-color="#fdb819"/>
      <stop offset="1" stop-color="#fff"/>
    </linearGradient>
  </defs>
  <g id="Group_2060" data-name="Group 2060" transform="translate(-1054 -2495)">
    <circle id="Ellipse_8" data-name="Ellipse 8" cx="229" cy="229" r="229" transform="translate(1054 2953) rotate(-90)" fill="url(#linear-gradient)"/>
    <g id="Group_234" data-name="Group 234" transform="translate(961.869 1948.263)">
      <g id="Group_232" data-name="Group 232" transform="translate(156.86 620.975)">
        <g id="Rectangle_111" data-name="Rectangle 111" transform="translate(0.271 -0.237)" fill="none" stroke="rgba(112,112,112,0)" stroke-width="1">
          <rect width="328" height="311" stroke="none"/>
          <rect x="0.5" y="0.5" width="327" height="310" fill="none"/>
        </g>
        <g id="selling" transform="translate(6.031 40.978)">
          <g id="Group_131" data-name="Group 131" transform="translate(69.597)">
            <path id="Path_97" data-name="Path 97" d="M578.193,346.24l3.638,102.321-26.812-16.338C460.926,563.414,334.59,574,334.59,574c99.336-44.719,156.351-124.872,180.447-166.142l-29.45-17.949Z" transform="translate(-334.59 -346.234)" fill="#001327"/>
            <path id="Path_98" data-name="Path 98" d="M551.1,359.007l27.094-12.777,3.638,102.321-26.811-16.338C460.926,563.4,334.59,573.988,334.59,573.988,525.4,510.2,552.651,398.607,551.1,359.007Z" transform="translate(-334.59 -346.23)" fill="#05101c" opacity="0.47"/>
          </g>
          <g id="Group_134" data-name="Group 134" transform="translate(0 53.453)">
            <g id="Group_133" data-name="Group 133">
              <g id="Group_132" data-name="Group 132">
                <path id="Path_99" data-name="Path 99" d="M285.609,437.18a69.439,69.439,0,1,0,69.439,69.439A69.516,69.516,0,0,0,285.609,437.18Zm-10.837,60.229,25.037,8.346a18.071,18.071,0,0,1,12.371,17.167c0,5.883-3.044,11.543-8.351,15.528a29.154,29.154,0,0,1-12.906,5.307v11.055H280.3V543.757a29.221,29.221,0,0,1-12.906-5.307c-5.307-3.979-8.352-9.639-8.352-15.522h10.626c0,5.759,7.3,10.626,15.945,10.626s15.945-4.866,15.945-10.626a7.451,7.451,0,0,0-5.107-7.082L271.41,507.5a18.072,18.072,0,0,1-12.371-17.168c0-5.883,3.044-11.543,8.352-15.528A29.157,29.157,0,0,1,280.3,469.5V458.444h10.626V469.5a29.224,29.224,0,0,1,12.906,5.307c5.307,3.979,8.351,9.639,8.351,15.522H301.553c0-5.76-7.3-10.626-15.945-10.626s-15.945,4.866-15.945,10.626A7.462,7.462,0,0,0,274.771,497.409Z" transform="translate(-216.17 -437.18)" fill="#fbb619"/>
              </g>
            </g>
          </g>
          <g id="Group_135" data-name="Group 135" transform="translate(145.243 12.073)">
            <path id="Path_100" data-name="Path 100" d="M487.708,468.485l3.738-1.869a2.42,2.42,0,0,0,0-4.332l-3.738-1.869a8.868,8.868,0,0,1-4.267-4.637l-3.15-7.875a2.422,2.422,0,0,0-4.5,0l-3.15,7.875a8.869,8.869,0,0,1-4.267,4.637l-3.738,1.869a2.42,2.42,0,0,0,0,4.332l3.738,1.869a8.868,8.868,0,0,1,4.267,4.637l3.15,7.875a2.422,2.422,0,0,0,4.5,0l3.15-7.875a8.867,8.867,0,0,1,4.267-4.637Z" transform="translate(-463.3 -399.594)" fill="#fbb619"/>
            <path id="Path_101" data-name="Path 101" d="M534.538,388.875l3.738-1.869a2.42,2.42,0,0,0,0-4.331l-3.738-1.869a8.868,8.868,0,0,1-4.267-4.637l-3.15-7.875a2.422,2.422,0,0,0-4.5,0l-3.15,7.875a8.867,8.867,0,0,1-4.267,4.637l-3.738,1.869a2.42,2.42,0,0,0,0,4.331l3.738,1.869a8.868,8.868,0,0,1,4.267,4.637l3.15,7.875a2.422,2.422,0,0,0,4.5,0l3.15-7.875A8.871,8.871,0,0,1,534.538,388.875Z" transform="translate(-482.607 -366.772)" fill="#fbb619"/>
          </g>
        </g>
      </g>
    </g>
  </g>
</svg>
